%TF.GenerationSoftware,KiCad,Pcbnew,10.0.3*%
%TF.CreationDate,2026-09-25T12:59:06+09:00*%
%TF.ProjectId,octal_dff_panel,6f637461-6c5f-4646-9666-5f70616e656c,rev?*%
%TF.SameCoordinates,Original*%
%TF.FileFunction,Legend,Bot*%
%TF.FilePolarity,Positive*%
%FSLAX46Y46*%
G04 Gerber Fmt 4.6, Leading zero omitted, Abs format (unit mm)*
G04 Created by KiCad (PCBNEW 10.0.3) date 2026-09-25 12:59:06*
%MOMM*%
%LPD*%
G01*
G04 APERTURE LIST*
%ADD10C,0.150000*%
G04 APERTURE END LIST*
D10*
X86614285Y-72408557D02*
X86014285Y-72408557D01*
X86014285Y-72408557D02*
X86399999Y-73308557D01*
X85285714Y-72708557D02*
X85285714Y-73308557D01*
X85499999Y-72365700D02*
X85714285Y-73008557D01*
X85714285Y-73008557D02*
X85157142Y-73008557D01*
X84642856Y-72408557D02*
X84557142Y-72408557D01*
X84557142Y-72408557D02*
X84471428Y-72451414D01*
X84471428Y-72451414D02*
X84428571Y-72494271D01*
X84428571Y-72494271D02*
X84385713Y-72579985D01*
X84385713Y-72579985D02*
X84342856Y-72751414D01*
X84342856Y-72751414D02*
X84342856Y-72965700D01*
X84342856Y-72965700D02*
X84385713Y-73137128D01*
X84385713Y-73137128D02*
X84428571Y-73222842D01*
X84428571Y-73222842D02*
X84471428Y-73265700D01*
X84471428Y-73265700D02*
X84557142Y-73308557D01*
X84557142Y-73308557D02*
X84642856Y-73308557D01*
X84642856Y-73308557D02*
X84728571Y-73265700D01*
X84728571Y-73265700D02*
X84771428Y-73222842D01*
X84771428Y-73222842D02*
X84814285Y-73137128D01*
X84814285Y-73137128D02*
X84857142Y-72965700D01*
X84857142Y-72965700D02*
X84857142Y-72751414D01*
X84857142Y-72751414D02*
X84814285Y-72579985D01*
X84814285Y-72579985D02*
X84771428Y-72494271D01*
X84771428Y-72494271D02*
X84728571Y-72451414D01*
X84728571Y-72451414D02*
X84642856Y-72408557D01*
X83785713Y-72408557D02*
X83699999Y-72408557D01*
X83699999Y-72408557D02*
X83614285Y-72451414D01*
X83614285Y-72451414D02*
X83571428Y-72494271D01*
X83571428Y-72494271D02*
X83528570Y-72579985D01*
X83528570Y-72579985D02*
X83485713Y-72751414D01*
X83485713Y-72751414D02*
X83485713Y-72965700D01*
X83485713Y-72965700D02*
X83528570Y-73137128D01*
X83528570Y-73137128D02*
X83571428Y-73222842D01*
X83571428Y-73222842D02*
X83614285Y-73265700D01*
X83614285Y-73265700D02*
X83699999Y-73308557D01*
X83699999Y-73308557D02*
X83785713Y-73308557D01*
X83785713Y-73308557D02*
X83871428Y-73265700D01*
X83871428Y-73265700D02*
X83914285Y-73222842D01*
X83914285Y-73222842D02*
X83957142Y-73137128D01*
X83957142Y-73137128D02*
X83999999Y-72965700D01*
X83999999Y-72965700D02*
X83999999Y-72751414D01*
X83999999Y-72751414D02*
X83957142Y-72579985D01*
X83957142Y-72579985D02*
X83914285Y-72494271D01*
X83914285Y-72494271D02*
X83871428Y-72451414D01*
X83871428Y-72451414D02*
X83785713Y-72408557D01*
X82457142Y-73265700D02*
X82328571Y-73308557D01*
X82328571Y-73308557D02*
X82114285Y-73308557D01*
X82114285Y-73308557D02*
X82028571Y-73265700D01*
X82028571Y-73265700D02*
X81985713Y-73222842D01*
X81985713Y-73222842D02*
X81942856Y-73137128D01*
X81942856Y-73137128D02*
X81942856Y-73051414D01*
X81942856Y-73051414D02*
X81985713Y-72965700D01*
X81985713Y-72965700D02*
X82028571Y-72922842D01*
X82028571Y-72922842D02*
X82114285Y-72879985D01*
X82114285Y-72879985D02*
X82285713Y-72837128D01*
X82285713Y-72837128D02*
X82371428Y-72794271D01*
X82371428Y-72794271D02*
X82414285Y-72751414D01*
X82414285Y-72751414D02*
X82457142Y-72665700D01*
X82457142Y-72665700D02*
X82457142Y-72579985D01*
X82457142Y-72579985D02*
X82414285Y-72494271D01*
X82414285Y-72494271D02*
X82371428Y-72451414D01*
X82371428Y-72451414D02*
X82285713Y-72408557D01*
X82285713Y-72408557D02*
X82071428Y-72408557D01*
X82071428Y-72408557D02*
X81942856Y-72451414D01*
X81557142Y-72708557D02*
X81557142Y-73608557D01*
X81557142Y-72751414D02*
X81471428Y-72708557D01*
X81471428Y-72708557D02*
X81299999Y-72708557D01*
X81299999Y-72708557D02*
X81214285Y-72751414D01*
X81214285Y-72751414D02*
X81171428Y-72794271D01*
X81171428Y-72794271D02*
X81128570Y-72879985D01*
X81128570Y-72879985D02*
X81128570Y-73137128D01*
X81128570Y-73137128D02*
X81171428Y-73222842D01*
X81171428Y-73222842D02*
X81214285Y-73265700D01*
X81214285Y-73265700D02*
X81299999Y-73308557D01*
X81299999Y-73308557D02*
X81471428Y-73308557D01*
X81471428Y-73308557D02*
X81557142Y-73265700D01*
X80399999Y-73265700D02*
X80485713Y-73308557D01*
X80485713Y-73308557D02*
X80657142Y-73308557D01*
X80657142Y-73308557D02*
X80742856Y-73265700D01*
X80742856Y-73265700D02*
X80785713Y-73179985D01*
X80785713Y-73179985D02*
X80785713Y-72837128D01*
X80785713Y-72837128D02*
X80742856Y-72751414D01*
X80742856Y-72751414D02*
X80657142Y-72708557D01*
X80657142Y-72708557D02*
X80485713Y-72708557D01*
X80485713Y-72708557D02*
X80399999Y-72751414D01*
X80399999Y-72751414D02*
X80357142Y-72837128D01*
X80357142Y-72837128D02*
X80357142Y-72922842D01*
X80357142Y-72922842D02*
X80785713Y-73008557D01*
X79585713Y-73265700D02*
X79671427Y-73308557D01*
X79671427Y-73308557D02*
X79842855Y-73308557D01*
X79842855Y-73308557D02*
X79928570Y-73265700D01*
X79928570Y-73265700D02*
X79971427Y-73222842D01*
X79971427Y-73222842D02*
X80014284Y-73137128D01*
X80014284Y-73137128D02*
X80014284Y-72879985D01*
X80014284Y-72879985D02*
X79971427Y-72794271D01*
X79971427Y-72794271D02*
X79928570Y-72751414D01*
X79928570Y-72751414D02*
X79842855Y-72708557D01*
X79842855Y-72708557D02*
X79671427Y-72708557D01*
X79671427Y-72708557D02*
X79585713Y-72751414D01*
X79199998Y-73308557D02*
X79199998Y-72708557D01*
X79199998Y-72408557D02*
X79242855Y-72451414D01*
X79242855Y-72451414D02*
X79199998Y-72494271D01*
X79199998Y-72494271D02*
X79157141Y-72451414D01*
X79157141Y-72451414D02*
X79199998Y-72408557D01*
X79199998Y-72408557D02*
X79199998Y-72494271D01*
X78771427Y-73308557D02*
X78771427Y-72708557D01*
X78771427Y-72794271D02*
X78728570Y-72751414D01*
X78728570Y-72751414D02*
X78642855Y-72708557D01*
X78642855Y-72708557D02*
X78514284Y-72708557D01*
X78514284Y-72708557D02*
X78428570Y-72751414D01*
X78428570Y-72751414D02*
X78385713Y-72837128D01*
X78385713Y-72837128D02*
X78385713Y-73308557D01*
X78385713Y-72837128D02*
X78342855Y-72751414D01*
X78342855Y-72751414D02*
X78257141Y-72708557D01*
X78257141Y-72708557D02*
X78128570Y-72708557D01*
X78128570Y-72708557D02*
X78042855Y-72751414D01*
X78042855Y-72751414D02*
X77999998Y-72837128D01*
X77999998Y-72837128D02*
X77999998Y-73308557D01*
X77228570Y-73265700D02*
X77314284Y-73308557D01*
X77314284Y-73308557D02*
X77485713Y-73308557D01*
X77485713Y-73308557D02*
X77571427Y-73265700D01*
X77571427Y-73265700D02*
X77614284Y-73179985D01*
X77614284Y-73179985D02*
X77614284Y-72837128D01*
X77614284Y-72837128D02*
X77571427Y-72751414D01*
X77571427Y-72751414D02*
X77485713Y-72708557D01*
X77485713Y-72708557D02*
X77314284Y-72708557D01*
X77314284Y-72708557D02*
X77228570Y-72751414D01*
X77228570Y-72751414D02*
X77185713Y-72837128D01*
X77185713Y-72837128D02*
X77185713Y-72922842D01*
X77185713Y-72922842D02*
X77614284Y-73008557D01*
X76799998Y-72708557D02*
X76799998Y-73308557D01*
X76799998Y-72794271D02*
X76757141Y-72751414D01*
X76757141Y-72751414D02*
X76671426Y-72708557D01*
X76671426Y-72708557D02*
X76542855Y-72708557D01*
X76542855Y-72708557D02*
X76457141Y-72751414D01*
X76457141Y-72751414D02*
X76414284Y-72837128D01*
X76414284Y-72837128D02*
X76414284Y-73308557D01*
X75428569Y-72408557D02*
X74914284Y-72408557D01*
X75171426Y-73308557D02*
X75171426Y-72408557D01*
X74614284Y-73308557D02*
X74614284Y-72708557D01*
X74614284Y-72408557D02*
X74657141Y-72451414D01*
X74657141Y-72451414D02*
X74614284Y-72494271D01*
X74614284Y-72494271D02*
X74571427Y-72451414D01*
X74571427Y-72451414D02*
X74614284Y-72408557D01*
X74614284Y-72408557D02*
X74614284Y-72494271D01*
X74057141Y-73308557D02*
X74142856Y-73265700D01*
X74142856Y-73265700D02*
X74185713Y-73179985D01*
X74185713Y-73179985D02*
X74185713Y-72408557D01*
X73371427Y-73265700D02*
X73457141Y-73308557D01*
X73457141Y-73308557D02*
X73628570Y-73308557D01*
X73628570Y-73308557D02*
X73714284Y-73265700D01*
X73714284Y-73265700D02*
X73757141Y-73179985D01*
X73757141Y-73179985D02*
X73757141Y-72837128D01*
X73757141Y-72837128D02*
X73714284Y-72751414D01*
X73714284Y-72751414D02*
X73628570Y-72708557D01*
X73628570Y-72708557D02*
X73457141Y-72708557D01*
X73457141Y-72708557D02*
X73371427Y-72751414D01*
X73371427Y-72751414D02*
X73328570Y-72837128D01*
X73328570Y-72837128D02*
X73328570Y-72922842D01*
X73328570Y-72922842D02*
X73757141Y-73008557D01*
X72342855Y-72708557D02*
X72128569Y-73308557D01*
X72128569Y-73308557D02*
X71914284Y-72708557D01*
X71399998Y-72408557D02*
X71314284Y-72408557D01*
X71314284Y-72408557D02*
X71228570Y-72451414D01*
X71228570Y-72451414D02*
X71185713Y-72494271D01*
X71185713Y-72494271D02*
X71142855Y-72579985D01*
X71142855Y-72579985D02*
X71099998Y-72751414D01*
X71099998Y-72751414D02*
X71099998Y-72965700D01*
X71099998Y-72965700D02*
X71142855Y-73137128D01*
X71142855Y-73137128D02*
X71185713Y-73222842D01*
X71185713Y-73222842D02*
X71228570Y-73265700D01*
X71228570Y-73265700D02*
X71314284Y-73308557D01*
X71314284Y-73308557D02*
X71399998Y-73308557D01*
X71399998Y-73308557D02*
X71485713Y-73265700D01*
X71485713Y-73265700D02*
X71528570Y-73222842D01*
X71528570Y-73222842D02*
X71571427Y-73137128D01*
X71571427Y-73137128D02*
X71614284Y-72965700D01*
X71614284Y-72965700D02*
X71614284Y-72751414D01*
X71614284Y-72751414D02*
X71571427Y-72579985D01*
X71571427Y-72579985D02*
X71528570Y-72494271D01*
X71528570Y-72494271D02*
X71485713Y-72451414D01*
X71485713Y-72451414D02*
X71399998Y-72408557D01*
X70714284Y-73222842D02*
X70671427Y-73265700D01*
X70671427Y-73265700D02*
X70714284Y-73308557D01*
X70714284Y-73308557D02*
X70757141Y-73265700D01*
X70757141Y-73265700D02*
X70714284Y-73222842D01*
X70714284Y-73222842D02*
X70714284Y-73308557D01*
X69814284Y-73308557D02*
X70328570Y-73308557D01*
X70071427Y-73308557D02*
X70071427Y-72408557D01*
X70071427Y-72408557D02*
X70157141Y-72537128D01*
X70157141Y-72537128D02*
X70242856Y-72622842D01*
X70242856Y-72622842D02*
X70328570Y-72665700D01*
X68142856Y-72408557D02*
X67542856Y-72408557D01*
X67542856Y-72408557D02*
X67928570Y-73308557D01*
X66814285Y-72708557D02*
X66814285Y-73308557D01*
X67028570Y-72365700D02*
X67242856Y-73008557D01*
X67242856Y-73008557D02*
X66685713Y-73008557D01*
X66428570Y-73308557D02*
X65957142Y-72708557D01*
X66428570Y-72708557D02*
X65957142Y-73308557D01*
X65657142Y-72494271D02*
X65614285Y-72451414D01*
X65614285Y-72451414D02*
X65528571Y-72408557D01*
X65528571Y-72408557D02*
X65314285Y-72408557D01*
X65314285Y-72408557D02*
X65228571Y-72451414D01*
X65228571Y-72451414D02*
X65185713Y-72494271D01*
X65185713Y-72494271D02*
X65142856Y-72579985D01*
X65142856Y-72579985D02*
X65142856Y-72665700D01*
X65142856Y-72665700D02*
X65185713Y-72794271D01*
X65185713Y-72794271D02*
X65699999Y-73308557D01*
X65699999Y-73308557D02*
X65142856Y-73308557D01*
X64842856Y-72408557D02*
X64242856Y-72408557D01*
X64242856Y-72408557D02*
X64628570Y-73308557D01*
X63985713Y-72408557D02*
X63428570Y-72408557D01*
X63428570Y-72408557D02*
X63728570Y-72751414D01*
X63728570Y-72751414D02*
X63599999Y-72751414D01*
X63599999Y-72751414D02*
X63514285Y-72794271D01*
X63514285Y-72794271D02*
X63471427Y-72837128D01*
X63471427Y-72837128D02*
X63428570Y-72922842D01*
X63428570Y-72922842D02*
X63428570Y-73137128D01*
X63428570Y-73137128D02*
X63471427Y-73222842D01*
X63471427Y-73222842D02*
X63514285Y-73265700D01*
X63514285Y-73265700D02*
X63599999Y-73308557D01*
X63599999Y-73308557D02*
X63857142Y-73308557D01*
X63857142Y-73308557D02*
X63942856Y-73265700D01*
X63942856Y-73265700D02*
X63985713Y-73222842D01*
X81385715Y-73808556D02*
X81300001Y-73808556D01*
X81300001Y-73808556D02*
X81214287Y-73851413D01*
X81214287Y-73851413D02*
X81171430Y-73894270D01*
X81171430Y-73894270D02*
X81128572Y-73979984D01*
X81128572Y-73979984D02*
X81085715Y-74151413D01*
X81085715Y-74151413D02*
X81085715Y-74365699D01*
X81085715Y-74365699D02*
X81128572Y-74537127D01*
X81128572Y-74537127D02*
X81171430Y-74622841D01*
X81171430Y-74622841D02*
X81214287Y-74665699D01*
X81214287Y-74665699D02*
X81300001Y-74708556D01*
X81300001Y-74708556D02*
X81385715Y-74708556D01*
X81385715Y-74708556D02*
X81471430Y-74665699D01*
X81471430Y-74665699D02*
X81514287Y-74622841D01*
X81514287Y-74622841D02*
X81557144Y-74537127D01*
X81557144Y-74537127D02*
X81600001Y-74365699D01*
X81600001Y-74365699D02*
X81600001Y-74151413D01*
X81600001Y-74151413D02*
X81557144Y-73979984D01*
X81557144Y-73979984D02*
X81514287Y-73894270D01*
X81514287Y-73894270D02*
X81471430Y-73851413D01*
X81471430Y-73851413D02*
X81385715Y-73808556D01*
X80271429Y-73808556D02*
X80700001Y-73808556D01*
X80700001Y-73808556D02*
X80742858Y-74237127D01*
X80742858Y-74237127D02*
X80700001Y-74194270D01*
X80700001Y-74194270D02*
X80614287Y-74151413D01*
X80614287Y-74151413D02*
X80400001Y-74151413D01*
X80400001Y-74151413D02*
X80314287Y-74194270D01*
X80314287Y-74194270D02*
X80271429Y-74237127D01*
X80271429Y-74237127D02*
X80228572Y-74322841D01*
X80228572Y-74322841D02*
X80228572Y-74537127D01*
X80228572Y-74537127D02*
X80271429Y-74622841D01*
X80271429Y-74622841D02*
X80314287Y-74665699D01*
X80314287Y-74665699D02*
X80400001Y-74708556D01*
X80400001Y-74708556D02*
X80614287Y-74708556D01*
X80614287Y-74708556D02*
X80700001Y-74665699D01*
X80700001Y-74665699D02*
X80742858Y-74622841D01*
X80057144Y-74794270D02*
X79371429Y-74794270D01*
X79285715Y-74108556D02*
X78942858Y-74108556D01*
X79157144Y-74708556D02*
X79157144Y-73937127D01*
X79157144Y-73937127D02*
X79114287Y-73851413D01*
X79114287Y-73851413D02*
X79028572Y-73808556D01*
X79028572Y-73808556D02*
X78942858Y-73808556D01*
X78514286Y-74708556D02*
X78600001Y-74665699D01*
X78600001Y-74665699D02*
X78642858Y-74579984D01*
X78642858Y-74579984D02*
X78642858Y-73808556D01*
X78171429Y-74708556D02*
X78171429Y-74108556D01*
X78171429Y-73808556D02*
X78214286Y-73851413D01*
X78214286Y-73851413D02*
X78171429Y-73894270D01*
X78171429Y-73894270D02*
X78128572Y-73851413D01*
X78128572Y-73851413D02*
X78171429Y-73808556D01*
X78171429Y-73808556D02*
X78171429Y-73894270D01*
X77742858Y-74108556D02*
X77742858Y-75008556D01*
X77742858Y-74151413D02*
X77657144Y-74108556D01*
X77657144Y-74108556D02*
X77485715Y-74108556D01*
X77485715Y-74108556D02*
X77400001Y-74151413D01*
X77400001Y-74151413D02*
X77357144Y-74194270D01*
X77357144Y-74194270D02*
X77314286Y-74279984D01*
X77314286Y-74279984D02*
X77314286Y-74537127D01*
X77314286Y-74537127D02*
X77357144Y-74622841D01*
X77357144Y-74622841D02*
X77400001Y-74665699D01*
X77400001Y-74665699D02*
X77485715Y-74708556D01*
X77485715Y-74708556D02*
X77657144Y-74708556D01*
X77657144Y-74708556D02*
X77742858Y-74665699D01*
X77057143Y-74108556D02*
X76714286Y-74108556D01*
X76928572Y-74708556D02*
X76928572Y-73937127D01*
X76928572Y-73937127D02*
X76885715Y-73851413D01*
X76885715Y-73851413D02*
X76800000Y-73808556D01*
X76800000Y-73808556D02*
X76714286Y-73808556D01*
X76285714Y-74708556D02*
X76371429Y-74665699D01*
X76371429Y-74665699D02*
X76414286Y-74579984D01*
X76414286Y-74579984D02*
X76414286Y-73808556D01*
X75814285Y-74708556D02*
X75900000Y-74665699D01*
X75900000Y-74665699D02*
X75942857Y-74622841D01*
X75942857Y-74622841D02*
X75985714Y-74537127D01*
X75985714Y-74537127D02*
X75985714Y-74279984D01*
X75985714Y-74279984D02*
X75942857Y-74194270D01*
X75942857Y-74194270D02*
X75900000Y-74151413D01*
X75900000Y-74151413D02*
X75814285Y-74108556D01*
X75814285Y-74108556D02*
X75685714Y-74108556D01*
X75685714Y-74108556D02*
X75600000Y-74151413D01*
X75600000Y-74151413D02*
X75557143Y-74194270D01*
X75557143Y-74194270D02*
X75514285Y-74279984D01*
X75514285Y-74279984D02*
X75514285Y-74537127D01*
X75514285Y-74537127D02*
X75557143Y-74622841D01*
X75557143Y-74622841D02*
X75600000Y-74665699D01*
X75600000Y-74665699D02*
X75685714Y-74708556D01*
X75685714Y-74708556D02*
X75814285Y-74708556D01*
X75128571Y-74108556D02*
X75128571Y-75008556D01*
X75128571Y-74151413D02*
X75042857Y-74108556D01*
X75042857Y-74108556D02*
X74871428Y-74108556D01*
X74871428Y-74108556D02*
X74785714Y-74151413D01*
X74785714Y-74151413D02*
X74742857Y-74194270D01*
X74742857Y-74194270D02*
X74699999Y-74279984D01*
X74699999Y-74279984D02*
X74699999Y-74537127D01*
X74699999Y-74537127D02*
X74742857Y-74622841D01*
X74742857Y-74622841D02*
X74785714Y-74665699D01*
X74785714Y-74665699D02*
X74871428Y-74708556D01*
X74871428Y-74708556D02*
X75042857Y-74708556D01*
X75042857Y-74708556D02*
X75128571Y-74665699D01*
X74357142Y-74665699D02*
X74271428Y-74708556D01*
X74271428Y-74708556D02*
X74099999Y-74708556D01*
X74099999Y-74708556D02*
X74014285Y-74665699D01*
X74014285Y-74665699D02*
X73971428Y-74579984D01*
X73971428Y-74579984D02*
X73971428Y-74537127D01*
X73971428Y-74537127D02*
X74014285Y-74451413D01*
X74014285Y-74451413D02*
X74099999Y-74408556D01*
X74099999Y-74408556D02*
X74228571Y-74408556D01*
X74228571Y-74408556D02*
X74314285Y-74365699D01*
X74314285Y-74365699D02*
X74357142Y-74279984D01*
X74357142Y-74279984D02*
X74357142Y-74237127D01*
X74357142Y-74237127D02*
X74314285Y-74151413D01*
X74314285Y-74151413D02*
X74228571Y-74108556D01*
X74228571Y-74108556D02*
X74099999Y-74108556D01*
X74099999Y-74108556D02*
X74014285Y-74151413D01*
X73800000Y-74794270D02*
X73114285Y-74794270D01*
X72771428Y-74708556D02*
X72857143Y-74665699D01*
X72857143Y-74665699D02*
X72900000Y-74579984D01*
X72900000Y-74579984D02*
X72900000Y-73808556D01*
X72042857Y-74708556D02*
X72042857Y-74237127D01*
X72042857Y-74237127D02*
X72085714Y-74151413D01*
X72085714Y-74151413D02*
X72171428Y-74108556D01*
X72171428Y-74108556D02*
X72342857Y-74108556D01*
X72342857Y-74108556D02*
X72428571Y-74151413D01*
X72042857Y-74665699D02*
X72128571Y-74708556D01*
X72128571Y-74708556D02*
X72342857Y-74708556D01*
X72342857Y-74708556D02*
X72428571Y-74665699D01*
X72428571Y-74665699D02*
X72471428Y-74579984D01*
X72471428Y-74579984D02*
X72471428Y-74494270D01*
X72471428Y-74494270D02*
X72428571Y-74408556D01*
X72428571Y-74408556D02*
X72342857Y-74365699D01*
X72342857Y-74365699D02*
X72128571Y-74365699D01*
X72128571Y-74365699D02*
X72042857Y-74322841D01*
X71742856Y-74108556D02*
X71399999Y-74108556D01*
X71614285Y-73808556D02*
X71614285Y-74579984D01*
X71614285Y-74579984D02*
X71571428Y-74665699D01*
X71571428Y-74665699D02*
X71485713Y-74708556D01*
X71485713Y-74708556D02*
X71399999Y-74708556D01*
X70714285Y-74665699D02*
X70799999Y-74708556D01*
X70799999Y-74708556D02*
X70971427Y-74708556D01*
X70971427Y-74708556D02*
X71057142Y-74665699D01*
X71057142Y-74665699D02*
X71099999Y-74622841D01*
X71099999Y-74622841D02*
X71142856Y-74537127D01*
X71142856Y-74537127D02*
X71142856Y-74279984D01*
X71142856Y-74279984D02*
X71099999Y-74194270D01*
X71099999Y-74194270D02*
X71057142Y-74151413D01*
X71057142Y-74151413D02*
X70971427Y-74108556D01*
X70971427Y-74108556D02*
X70799999Y-74108556D01*
X70799999Y-74108556D02*
X70714285Y-74151413D01*
X70328570Y-74708556D02*
X70328570Y-73808556D01*
X69942856Y-74708556D02*
X69942856Y-74237127D01*
X69942856Y-74237127D02*
X69985713Y-74151413D01*
X69985713Y-74151413D02*
X70071427Y-74108556D01*
X70071427Y-74108556D02*
X70199998Y-74108556D01*
X70199998Y-74108556D02*
X70285713Y-74151413D01*
X70285713Y-74151413D02*
X70328570Y-74194270D01*
X69171427Y-74665699D02*
X69257141Y-74708556D01*
X69257141Y-74708556D02*
X69428570Y-74708556D01*
X69428570Y-74708556D02*
X69514284Y-74665699D01*
X69514284Y-74665699D02*
X69557141Y-74579984D01*
X69557141Y-74579984D02*
X69557141Y-74237127D01*
X69557141Y-74237127D02*
X69514284Y-74151413D01*
X69514284Y-74151413D02*
X69428570Y-74108556D01*
X69428570Y-74108556D02*
X69257141Y-74108556D01*
X69257141Y-74108556D02*
X69171427Y-74151413D01*
X69171427Y-74151413D02*
X69128570Y-74237127D01*
X69128570Y-74237127D02*
X69128570Y-74322841D01*
X69128570Y-74322841D02*
X69557141Y-74408556D01*
X68785712Y-74665699D02*
X68699998Y-74708556D01*
X68699998Y-74708556D02*
X68528569Y-74708556D01*
X68528569Y-74708556D02*
X68442855Y-74665699D01*
X68442855Y-74665699D02*
X68399998Y-74579984D01*
X68399998Y-74579984D02*
X68399998Y-74537127D01*
X68399998Y-74537127D02*
X68442855Y-74451413D01*
X68442855Y-74451413D02*
X68528569Y-74408556D01*
X68528569Y-74408556D02*
X68657141Y-74408556D01*
X68657141Y-74408556D02*
X68742855Y-74365699D01*
X68742855Y-74365699D02*
X68785712Y-74279984D01*
X68785712Y-74279984D02*
X68785712Y-74237127D01*
X68785712Y-74237127D02*
X68742855Y-74151413D01*
X68742855Y-74151413D02*
X68657141Y-74108556D01*
X68657141Y-74108556D02*
X68528569Y-74108556D01*
X68528569Y-74108556D02*
X68442855Y-74151413D01*
X78707142Y-76108557D02*
X78707142Y-75208557D01*
X78707142Y-75208557D02*
X78407142Y-75851414D01*
X78407142Y-75851414D02*
X78107142Y-75208557D01*
X78107142Y-75208557D02*
X78107142Y-76108557D01*
X77678571Y-76108557D02*
X77678571Y-75208557D01*
X77378571Y-75208557D02*
X76864286Y-75208557D01*
X77121428Y-76108557D02*
X77121428Y-75208557D01*
X75450000Y-76108557D02*
X75878572Y-76108557D01*
X75878572Y-76108557D02*
X75878572Y-75208557D01*
X75150001Y-76108557D02*
X75150001Y-75508557D01*
X75150001Y-75208557D02*
X75192858Y-75251414D01*
X75192858Y-75251414D02*
X75150001Y-75294271D01*
X75150001Y-75294271D02*
X75107144Y-75251414D01*
X75107144Y-75251414D02*
X75150001Y-75208557D01*
X75150001Y-75208557D02*
X75150001Y-75294271D01*
X74335716Y-76065700D02*
X74421430Y-76108557D01*
X74421430Y-76108557D02*
X74592858Y-76108557D01*
X74592858Y-76108557D02*
X74678573Y-76065700D01*
X74678573Y-76065700D02*
X74721430Y-76022842D01*
X74721430Y-76022842D02*
X74764287Y-75937128D01*
X74764287Y-75937128D02*
X74764287Y-75679985D01*
X74764287Y-75679985D02*
X74721430Y-75594271D01*
X74721430Y-75594271D02*
X74678573Y-75551414D01*
X74678573Y-75551414D02*
X74592858Y-75508557D01*
X74592858Y-75508557D02*
X74421430Y-75508557D01*
X74421430Y-75508557D02*
X74335716Y-75551414D01*
X73607144Y-76065700D02*
X73692858Y-76108557D01*
X73692858Y-76108557D02*
X73864287Y-76108557D01*
X73864287Y-76108557D02*
X73950001Y-76065700D01*
X73950001Y-76065700D02*
X73992858Y-75979985D01*
X73992858Y-75979985D02*
X73992858Y-75637128D01*
X73992858Y-75637128D02*
X73950001Y-75551414D01*
X73950001Y-75551414D02*
X73864287Y-75508557D01*
X73864287Y-75508557D02*
X73692858Y-75508557D01*
X73692858Y-75508557D02*
X73607144Y-75551414D01*
X73607144Y-75551414D02*
X73564287Y-75637128D01*
X73564287Y-75637128D02*
X73564287Y-75722842D01*
X73564287Y-75722842D02*
X73992858Y-75808557D01*
X73178572Y-75508557D02*
X73178572Y-76108557D01*
X73178572Y-75594271D02*
X73135715Y-75551414D01*
X73135715Y-75551414D02*
X73050000Y-75508557D01*
X73050000Y-75508557D02*
X72921429Y-75508557D01*
X72921429Y-75508557D02*
X72835715Y-75551414D01*
X72835715Y-75551414D02*
X72792858Y-75637128D01*
X72792858Y-75637128D02*
X72792858Y-76108557D01*
X72407143Y-76065700D02*
X72321429Y-76108557D01*
X72321429Y-76108557D02*
X72150000Y-76108557D01*
X72150000Y-76108557D02*
X72064286Y-76065700D01*
X72064286Y-76065700D02*
X72021429Y-75979985D01*
X72021429Y-75979985D02*
X72021429Y-75937128D01*
X72021429Y-75937128D02*
X72064286Y-75851414D01*
X72064286Y-75851414D02*
X72150000Y-75808557D01*
X72150000Y-75808557D02*
X72278572Y-75808557D01*
X72278572Y-75808557D02*
X72364286Y-75765700D01*
X72364286Y-75765700D02*
X72407143Y-75679985D01*
X72407143Y-75679985D02*
X72407143Y-75637128D01*
X72407143Y-75637128D02*
X72364286Y-75551414D01*
X72364286Y-75551414D02*
X72278572Y-75508557D01*
X72278572Y-75508557D02*
X72150000Y-75508557D01*
X72150000Y-75508557D02*
X72064286Y-75551414D01*
X71292858Y-76065700D02*
X71378572Y-76108557D01*
X71378572Y-76108557D02*
X71550001Y-76108557D01*
X71550001Y-76108557D02*
X71635715Y-76065700D01*
X71635715Y-76065700D02*
X71678572Y-75979985D01*
X71678572Y-75979985D02*
X71678572Y-75637128D01*
X71678572Y-75637128D02*
X71635715Y-75551414D01*
X71635715Y-75551414D02*
X71550001Y-75508557D01*
X71550001Y-75508557D02*
X71378572Y-75508557D01*
X71378572Y-75508557D02*
X71292858Y-75551414D01*
X71292858Y-75551414D02*
X71250001Y-75637128D01*
X71250001Y-75637128D02*
X71250001Y-75722842D01*
X71250001Y-75722842D02*
X71678572Y-75808557D01*
X83314286Y-77508556D02*
X83314286Y-76608556D01*
X83314286Y-76608556D02*
X82971429Y-76608556D01*
X82971429Y-76608556D02*
X82885714Y-76651413D01*
X82885714Y-76651413D02*
X82842857Y-76694270D01*
X82842857Y-76694270D02*
X82800000Y-76779984D01*
X82800000Y-76779984D02*
X82800000Y-76908556D01*
X82800000Y-76908556D02*
X82842857Y-76994270D01*
X82842857Y-76994270D02*
X82885714Y-77037127D01*
X82885714Y-77037127D02*
X82971429Y-77079984D01*
X82971429Y-77079984D02*
X83314286Y-77079984D01*
X82285714Y-77508556D02*
X82371429Y-77465699D01*
X82371429Y-77465699D02*
X82414286Y-77422841D01*
X82414286Y-77422841D02*
X82457143Y-77337127D01*
X82457143Y-77337127D02*
X82457143Y-77079984D01*
X82457143Y-77079984D02*
X82414286Y-76994270D01*
X82414286Y-76994270D02*
X82371429Y-76951413D01*
X82371429Y-76951413D02*
X82285714Y-76908556D01*
X82285714Y-76908556D02*
X82157143Y-76908556D01*
X82157143Y-76908556D02*
X82071429Y-76951413D01*
X82071429Y-76951413D02*
X82028572Y-76994270D01*
X82028572Y-76994270D02*
X81985714Y-77079984D01*
X81985714Y-77079984D02*
X81985714Y-77337127D01*
X81985714Y-77337127D02*
X82028572Y-77422841D01*
X82028572Y-77422841D02*
X82071429Y-77465699D01*
X82071429Y-77465699D02*
X82157143Y-77508556D01*
X82157143Y-77508556D02*
X82285714Y-77508556D01*
X81685714Y-76908556D02*
X81514286Y-77508556D01*
X81514286Y-77508556D02*
X81342857Y-77079984D01*
X81342857Y-77079984D02*
X81171428Y-77508556D01*
X81171428Y-77508556D02*
X81000000Y-76908556D01*
X80314286Y-77465699D02*
X80400000Y-77508556D01*
X80400000Y-77508556D02*
X80571429Y-77508556D01*
X80571429Y-77508556D02*
X80657143Y-77465699D01*
X80657143Y-77465699D02*
X80700000Y-77379984D01*
X80700000Y-77379984D02*
X80700000Y-77037127D01*
X80700000Y-77037127D02*
X80657143Y-76951413D01*
X80657143Y-76951413D02*
X80571429Y-76908556D01*
X80571429Y-76908556D02*
X80400000Y-76908556D01*
X80400000Y-76908556D02*
X80314286Y-76951413D01*
X80314286Y-76951413D02*
X80271429Y-77037127D01*
X80271429Y-77037127D02*
X80271429Y-77122841D01*
X80271429Y-77122841D02*
X80700000Y-77208556D01*
X79885714Y-77508556D02*
X79885714Y-76908556D01*
X79885714Y-77079984D02*
X79842857Y-76994270D01*
X79842857Y-76994270D02*
X79800000Y-76951413D01*
X79800000Y-76951413D02*
X79714285Y-76908556D01*
X79714285Y-76908556D02*
X79628571Y-76908556D01*
X79328571Y-77165699D02*
X78642857Y-77165699D01*
X78085713Y-77508556D02*
X78171428Y-77465699D01*
X78171428Y-77465699D02*
X78214285Y-77422841D01*
X78214285Y-77422841D02*
X78257142Y-77337127D01*
X78257142Y-77337127D02*
X78257142Y-77079984D01*
X78257142Y-77079984D02*
X78214285Y-76994270D01*
X78214285Y-76994270D02*
X78171428Y-76951413D01*
X78171428Y-76951413D02*
X78085713Y-76908556D01*
X78085713Y-76908556D02*
X77957142Y-76908556D01*
X77957142Y-76908556D02*
X77871428Y-76951413D01*
X77871428Y-76951413D02*
X77828571Y-76994270D01*
X77828571Y-76994270D02*
X77785713Y-77079984D01*
X77785713Y-77079984D02*
X77785713Y-77337127D01*
X77785713Y-77337127D02*
X77828571Y-77422841D01*
X77828571Y-77422841D02*
X77871428Y-77465699D01*
X77871428Y-77465699D02*
X77957142Y-77508556D01*
X77957142Y-77508556D02*
X78085713Y-77508556D01*
X77399999Y-76908556D02*
X77399999Y-77508556D01*
X77399999Y-76994270D02*
X77357142Y-76951413D01*
X77357142Y-76951413D02*
X77271427Y-76908556D01*
X77271427Y-76908556D02*
X77142856Y-76908556D01*
X77142856Y-76908556D02*
X77057142Y-76951413D01*
X77057142Y-76951413D02*
X77014285Y-77037127D01*
X77014285Y-77037127D02*
X77014285Y-77508556D01*
X76585713Y-77422841D02*
X76542856Y-77465699D01*
X76542856Y-77465699D02*
X76585713Y-77508556D01*
X76585713Y-77508556D02*
X76628570Y-77465699D01*
X76628570Y-77465699D02*
X76585713Y-77422841D01*
X76585713Y-77422841D02*
X76585713Y-77508556D01*
X76585713Y-76951413D02*
X76542856Y-76994270D01*
X76542856Y-76994270D02*
X76585713Y-77037127D01*
X76585713Y-77037127D02*
X76628570Y-76994270D01*
X76628570Y-76994270D02*
X76585713Y-76951413D01*
X76585713Y-76951413D02*
X76585713Y-77037127D01*
X75085714Y-77465699D02*
X75171428Y-77508556D01*
X75171428Y-77508556D02*
X75342856Y-77508556D01*
X75342856Y-77508556D02*
X75428571Y-77465699D01*
X75428571Y-77465699D02*
X75471428Y-77422841D01*
X75471428Y-77422841D02*
X75514285Y-77337127D01*
X75514285Y-77337127D02*
X75514285Y-77079984D01*
X75514285Y-77079984D02*
X75471428Y-76994270D01*
X75471428Y-76994270D02*
X75428571Y-76951413D01*
X75428571Y-76951413D02*
X75342856Y-76908556D01*
X75342856Y-76908556D02*
X75171428Y-76908556D01*
X75171428Y-76908556D02*
X75085714Y-76951413D01*
X74571427Y-77508556D02*
X74657142Y-77465699D01*
X74657142Y-77465699D02*
X74699999Y-77379984D01*
X74699999Y-77379984D02*
X74699999Y-76608556D01*
X73885713Y-77465699D02*
X73971427Y-77508556D01*
X73971427Y-77508556D02*
X74142856Y-77508556D01*
X74142856Y-77508556D02*
X74228570Y-77465699D01*
X74228570Y-77465699D02*
X74271427Y-77379984D01*
X74271427Y-77379984D02*
X74271427Y-77037127D01*
X74271427Y-77037127D02*
X74228570Y-76951413D01*
X74228570Y-76951413D02*
X74142856Y-76908556D01*
X74142856Y-76908556D02*
X73971427Y-76908556D01*
X73971427Y-76908556D02*
X73885713Y-76951413D01*
X73885713Y-76951413D02*
X73842856Y-77037127D01*
X73842856Y-77037127D02*
X73842856Y-77122841D01*
X73842856Y-77122841D02*
X74271427Y-77208556D01*
X73071427Y-77508556D02*
X73071427Y-77037127D01*
X73071427Y-77037127D02*
X73114284Y-76951413D01*
X73114284Y-76951413D02*
X73199998Y-76908556D01*
X73199998Y-76908556D02*
X73371427Y-76908556D01*
X73371427Y-76908556D02*
X73457141Y-76951413D01*
X73071427Y-77465699D02*
X73157141Y-77508556D01*
X73157141Y-77508556D02*
X73371427Y-77508556D01*
X73371427Y-77508556D02*
X73457141Y-77465699D01*
X73457141Y-77465699D02*
X73499998Y-77379984D01*
X73499998Y-77379984D02*
X73499998Y-77294270D01*
X73499998Y-77294270D02*
X73457141Y-77208556D01*
X73457141Y-77208556D02*
X73371427Y-77165699D01*
X73371427Y-77165699D02*
X73157141Y-77165699D01*
X73157141Y-77165699D02*
X73071427Y-77122841D01*
X72642855Y-77508556D02*
X72642855Y-76908556D01*
X72642855Y-77079984D02*
X72599998Y-76994270D01*
X72599998Y-76994270D02*
X72557141Y-76951413D01*
X72557141Y-76951413D02*
X72471426Y-76908556D01*
X72471426Y-76908556D02*
X72385712Y-76908556D01*
X71485712Y-76908556D02*
X71271426Y-77508556D01*
X71271426Y-77508556D02*
X71057141Y-76908556D01*
X70714284Y-77508556D02*
X70714284Y-76908556D01*
X70714284Y-76608556D02*
X70757141Y-76651413D01*
X70757141Y-76651413D02*
X70714284Y-76694270D01*
X70714284Y-76694270D02*
X70671427Y-76651413D01*
X70671427Y-76651413D02*
X70714284Y-76608556D01*
X70714284Y-76608556D02*
X70714284Y-76694270D01*
X69899999Y-77508556D02*
X69899999Y-77037127D01*
X69899999Y-77037127D02*
X69942856Y-76951413D01*
X69942856Y-76951413D02*
X70028570Y-76908556D01*
X70028570Y-76908556D02*
X70199999Y-76908556D01*
X70199999Y-76908556D02*
X70285713Y-76951413D01*
X69899999Y-77465699D02*
X69985713Y-77508556D01*
X69985713Y-77508556D02*
X70199999Y-77508556D01*
X70199999Y-77508556D02*
X70285713Y-77465699D01*
X70285713Y-77465699D02*
X70328570Y-77379984D01*
X70328570Y-77379984D02*
X70328570Y-77294270D01*
X70328570Y-77294270D02*
X70285713Y-77208556D01*
X70285713Y-77208556D02*
X70199999Y-77165699D01*
X70199999Y-77165699D02*
X69985713Y-77165699D01*
X69985713Y-77165699D02*
X69899999Y-77122841D01*
X68271427Y-77422841D02*
X68314284Y-77465699D01*
X68314284Y-77465699D02*
X68442856Y-77508556D01*
X68442856Y-77508556D02*
X68528570Y-77508556D01*
X68528570Y-77508556D02*
X68657141Y-77465699D01*
X68657141Y-77465699D02*
X68742856Y-77379984D01*
X68742856Y-77379984D02*
X68785713Y-77294270D01*
X68785713Y-77294270D02*
X68828570Y-77122841D01*
X68828570Y-77122841D02*
X68828570Y-76994270D01*
X68828570Y-76994270D02*
X68785713Y-76822841D01*
X68785713Y-76822841D02*
X68742856Y-76737127D01*
X68742856Y-76737127D02*
X68657141Y-76651413D01*
X68657141Y-76651413D02*
X68528570Y-76608556D01*
X68528570Y-76608556D02*
X68442856Y-76608556D01*
X68442856Y-76608556D02*
X68314284Y-76651413D01*
X68314284Y-76651413D02*
X68271427Y-76694270D01*
X67457141Y-77508556D02*
X67885713Y-77508556D01*
X67885713Y-77508556D02*
X67885713Y-76608556D01*
X66642856Y-77508556D02*
X66942856Y-77079984D01*
X67157142Y-77508556D02*
X67157142Y-76608556D01*
X67157142Y-76608556D02*
X66814285Y-76608556D01*
X66814285Y-76608556D02*
X66728570Y-76651413D01*
X66728570Y-76651413D02*
X66685713Y-76694270D01*
X66685713Y-76694270D02*
X66642856Y-76779984D01*
X66642856Y-76779984D02*
X66642856Y-76908556D01*
X66642856Y-76908556D02*
X66685713Y-76994270D01*
X66685713Y-76994270D02*
X66728570Y-77037127D01*
X66728570Y-77037127D02*
X66814285Y-77079984D01*
X66814285Y-77079984D02*
X67157142Y-77079984D01*
X86614285Y-122408557D02*
X86014285Y-122408557D01*
X86014285Y-122408557D02*
X86399999Y-123308557D01*
X85285714Y-122708557D02*
X85285714Y-123308557D01*
X85499999Y-122365700D02*
X85714285Y-123008557D01*
X85714285Y-123008557D02*
X85157142Y-123008557D01*
X84642856Y-122408557D02*
X84557142Y-122408557D01*
X84557142Y-122408557D02*
X84471428Y-122451414D01*
X84471428Y-122451414D02*
X84428571Y-122494271D01*
X84428571Y-122494271D02*
X84385713Y-122579985D01*
X84385713Y-122579985D02*
X84342856Y-122751414D01*
X84342856Y-122751414D02*
X84342856Y-122965700D01*
X84342856Y-122965700D02*
X84385713Y-123137128D01*
X84385713Y-123137128D02*
X84428571Y-123222842D01*
X84428571Y-123222842D02*
X84471428Y-123265700D01*
X84471428Y-123265700D02*
X84557142Y-123308557D01*
X84557142Y-123308557D02*
X84642856Y-123308557D01*
X84642856Y-123308557D02*
X84728571Y-123265700D01*
X84728571Y-123265700D02*
X84771428Y-123222842D01*
X84771428Y-123222842D02*
X84814285Y-123137128D01*
X84814285Y-123137128D02*
X84857142Y-122965700D01*
X84857142Y-122965700D02*
X84857142Y-122751414D01*
X84857142Y-122751414D02*
X84814285Y-122579985D01*
X84814285Y-122579985D02*
X84771428Y-122494271D01*
X84771428Y-122494271D02*
X84728571Y-122451414D01*
X84728571Y-122451414D02*
X84642856Y-122408557D01*
X83785713Y-122408557D02*
X83699999Y-122408557D01*
X83699999Y-122408557D02*
X83614285Y-122451414D01*
X83614285Y-122451414D02*
X83571428Y-122494271D01*
X83571428Y-122494271D02*
X83528570Y-122579985D01*
X83528570Y-122579985D02*
X83485713Y-122751414D01*
X83485713Y-122751414D02*
X83485713Y-122965700D01*
X83485713Y-122965700D02*
X83528570Y-123137128D01*
X83528570Y-123137128D02*
X83571428Y-123222842D01*
X83571428Y-123222842D02*
X83614285Y-123265700D01*
X83614285Y-123265700D02*
X83699999Y-123308557D01*
X83699999Y-123308557D02*
X83785713Y-123308557D01*
X83785713Y-123308557D02*
X83871428Y-123265700D01*
X83871428Y-123265700D02*
X83914285Y-123222842D01*
X83914285Y-123222842D02*
X83957142Y-123137128D01*
X83957142Y-123137128D02*
X83999999Y-122965700D01*
X83999999Y-122965700D02*
X83999999Y-122751414D01*
X83999999Y-122751414D02*
X83957142Y-122579985D01*
X83957142Y-122579985D02*
X83914285Y-122494271D01*
X83914285Y-122494271D02*
X83871428Y-122451414D01*
X83871428Y-122451414D02*
X83785713Y-122408557D01*
X82457142Y-123265700D02*
X82328571Y-123308557D01*
X82328571Y-123308557D02*
X82114285Y-123308557D01*
X82114285Y-123308557D02*
X82028571Y-123265700D01*
X82028571Y-123265700D02*
X81985713Y-123222842D01*
X81985713Y-123222842D02*
X81942856Y-123137128D01*
X81942856Y-123137128D02*
X81942856Y-123051414D01*
X81942856Y-123051414D02*
X81985713Y-122965700D01*
X81985713Y-122965700D02*
X82028571Y-122922842D01*
X82028571Y-122922842D02*
X82114285Y-122879985D01*
X82114285Y-122879985D02*
X82285713Y-122837128D01*
X82285713Y-122837128D02*
X82371428Y-122794271D01*
X82371428Y-122794271D02*
X82414285Y-122751414D01*
X82414285Y-122751414D02*
X82457142Y-122665700D01*
X82457142Y-122665700D02*
X82457142Y-122579985D01*
X82457142Y-122579985D02*
X82414285Y-122494271D01*
X82414285Y-122494271D02*
X82371428Y-122451414D01*
X82371428Y-122451414D02*
X82285713Y-122408557D01*
X82285713Y-122408557D02*
X82071428Y-122408557D01*
X82071428Y-122408557D02*
X81942856Y-122451414D01*
X81557142Y-122708557D02*
X81557142Y-123608557D01*
X81557142Y-122751414D02*
X81471428Y-122708557D01*
X81471428Y-122708557D02*
X81299999Y-122708557D01*
X81299999Y-122708557D02*
X81214285Y-122751414D01*
X81214285Y-122751414D02*
X81171428Y-122794271D01*
X81171428Y-122794271D02*
X81128570Y-122879985D01*
X81128570Y-122879985D02*
X81128570Y-123137128D01*
X81128570Y-123137128D02*
X81171428Y-123222842D01*
X81171428Y-123222842D02*
X81214285Y-123265700D01*
X81214285Y-123265700D02*
X81299999Y-123308557D01*
X81299999Y-123308557D02*
X81471428Y-123308557D01*
X81471428Y-123308557D02*
X81557142Y-123265700D01*
X80399999Y-123265700D02*
X80485713Y-123308557D01*
X80485713Y-123308557D02*
X80657142Y-123308557D01*
X80657142Y-123308557D02*
X80742856Y-123265700D01*
X80742856Y-123265700D02*
X80785713Y-123179985D01*
X80785713Y-123179985D02*
X80785713Y-122837128D01*
X80785713Y-122837128D02*
X80742856Y-122751414D01*
X80742856Y-122751414D02*
X80657142Y-122708557D01*
X80657142Y-122708557D02*
X80485713Y-122708557D01*
X80485713Y-122708557D02*
X80399999Y-122751414D01*
X80399999Y-122751414D02*
X80357142Y-122837128D01*
X80357142Y-122837128D02*
X80357142Y-122922842D01*
X80357142Y-122922842D02*
X80785713Y-123008557D01*
X79585713Y-123265700D02*
X79671427Y-123308557D01*
X79671427Y-123308557D02*
X79842855Y-123308557D01*
X79842855Y-123308557D02*
X79928570Y-123265700D01*
X79928570Y-123265700D02*
X79971427Y-123222842D01*
X79971427Y-123222842D02*
X80014284Y-123137128D01*
X80014284Y-123137128D02*
X80014284Y-122879985D01*
X80014284Y-122879985D02*
X79971427Y-122794271D01*
X79971427Y-122794271D02*
X79928570Y-122751414D01*
X79928570Y-122751414D02*
X79842855Y-122708557D01*
X79842855Y-122708557D02*
X79671427Y-122708557D01*
X79671427Y-122708557D02*
X79585713Y-122751414D01*
X79199998Y-123308557D02*
X79199998Y-122708557D01*
X79199998Y-122408557D02*
X79242855Y-122451414D01*
X79242855Y-122451414D02*
X79199998Y-122494271D01*
X79199998Y-122494271D02*
X79157141Y-122451414D01*
X79157141Y-122451414D02*
X79199998Y-122408557D01*
X79199998Y-122408557D02*
X79199998Y-122494271D01*
X78771427Y-123308557D02*
X78771427Y-122708557D01*
X78771427Y-122794271D02*
X78728570Y-122751414D01*
X78728570Y-122751414D02*
X78642855Y-122708557D01*
X78642855Y-122708557D02*
X78514284Y-122708557D01*
X78514284Y-122708557D02*
X78428570Y-122751414D01*
X78428570Y-122751414D02*
X78385713Y-122837128D01*
X78385713Y-122837128D02*
X78385713Y-123308557D01*
X78385713Y-122837128D02*
X78342855Y-122751414D01*
X78342855Y-122751414D02*
X78257141Y-122708557D01*
X78257141Y-122708557D02*
X78128570Y-122708557D01*
X78128570Y-122708557D02*
X78042855Y-122751414D01*
X78042855Y-122751414D02*
X77999998Y-122837128D01*
X77999998Y-122837128D02*
X77999998Y-123308557D01*
X77228570Y-123265700D02*
X77314284Y-123308557D01*
X77314284Y-123308557D02*
X77485713Y-123308557D01*
X77485713Y-123308557D02*
X77571427Y-123265700D01*
X77571427Y-123265700D02*
X77614284Y-123179985D01*
X77614284Y-123179985D02*
X77614284Y-122837128D01*
X77614284Y-122837128D02*
X77571427Y-122751414D01*
X77571427Y-122751414D02*
X77485713Y-122708557D01*
X77485713Y-122708557D02*
X77314284Y-122708557D01*
X77314284Y-122708557D02*
X77228570Y-122751414D01*
X77228570Y-122751414D02*
X77185713Y-122837128D01*
X77185713Y-122837128D02*
X77185713Y-122922842D01*
X77185713Y-122922842D02*
X77614284Y-123008557D01*
X76799998Y-122708557D02*
X76799998Y-123308557D01*
X76799998Y-122794271D02*
X76757141Y-122751414D01*
X76757141Y-122751414D02*
X76671426Y-122708557D01*
X76671426Y-122708557D02*
X76542855Y-122708557D01*
X76542855Y-122708557D02*
X76457141Y-122751414D01*
X76457141Y-122751414D02*
X76414284Y-122837128D01*
X76414284Y-122837128D02*
X76414284Y-123308557D01*
X75428569Y-122408557D02*
X74914284Y-122408557D01*
X75171426Y-123308557D02*
X75171426Y-122408557D01*
X74614284Y-123308557D02*
X74614284Y-122708557D01*
X74614284Y-122408557D02*
X74657141Y-122451414D01*
X74657141Y-122451414D02*
X74614284Y-122494271D01*
X74614284Y-122494271D02*
X74571427Y-122451414D01*
X74571427Y-122451414D02*
X74614284Y-122408557D01*
X74614284Y-122408557D02*
X74614284Y-122494271D01*
X74057141Y-123308557D02*
X74142856Y-123265700D01*
X74142856Y-123265700D02*
X74185713Y-123179985D01*
X74185713Y-123179985D02*
X74185713Y-122408557D01*
X73371427Y-123265700D02*
X73457141Y-123308557D01*
X73457141Y-123308557D02*
X73628570Y-123308557D01*
X73628570Y-123308557D02*
X73714284Y-123265700D01*
X73714284Y-123265700D02*
X73757141Y-123179985D01*
X73757141Y-123179985D02*
X73757141Y-122837128D01*
X73757141Y-122837128D02*
X73714284Y-122751414D01*
X73714284Y-122751414D02*
X73628570Y-122708557D01*
X73628570Y-122708557D02*
X73457141Y-122708557D01*
X73457141Y-122708557D02*
X73371427Y-122751414D01*
X73371427Y-122751414D02*
X73328570Y-122837128D01*
X73328570Y-122837128D02*
X73328570Y-122922842D01*
X73328570Y-122922842D02*
X73757141Y-123008557D01*
X72342855Y-122708557D02*
X72128569Y-123308557D01*
X72128569Y-123308557D02*
X71914284Y-122708557D01*
X71399998Y-122408557D02*
X71314284Y-122408557D01*
X71314284Y-122408557D02*
X71228570Y-122451414D01*
X71228570Y-122451414D02*
X71185713Y-122494271D01*
X71185713Y-122494271D02*
X71142855Y-122579985D01*
X71142855Y-122579985D02*
X71099998Y-122751414D01*
X71099998Y-122751414D02*
X71099998Y-122965700D01*
X71099998Y-122965700D02*
X71142855Y-123137128D01*
X71142855Y-123137128D02*
X71185713Y-123222842D01*
X71185713Y-123222842D02*
X71228570Y-123265700D01*
X71228570Y-123265700D02*
X71314284Y-123308557D01*
X71314284Y-123308557D02*
X71399998Y-123308557D01*
X71399998Y-123308557D02*
X71485713Y-123265700D01*
X71485713Y-123265700D02*
X71528570Y-123222842D01*
X71528570Y-123222842D02*
X71571427Y-123137128D01*
X71571427Y-123137128D02*
X71614284Y-122965700D01*
X71614284Y-122965700D02*
X71614284Y-122751414D01*
X71614284Y-122751414D02*
X71571427Y-122579985D01*
X71571427Y-122579985D02*
X71528570Y-122494271D01*
X71528570Y-122494271D02*
X71485713Y-122451414D01*
X71485713Y-122451414D02*
X71399998Y-122408557D01*
X70714284Y-123222842D02*
X70671427Y-123265700D01*
X70671427Y-123265700D02*
X70714284Y-123308557D01*
X70714284Y-123308557D02*
X70757141Y-123265700D01*
X70757141Y-123265700D02*
X70714284Y-123222842D01*
X70714284Y-123222842D02*
X70714284Y-123308557D01*
X69814284Y-123308557D02*
X70328570Y-123308557D01*
X70071427Y-123308557D02*
X70071427Y-122408557D01*
X70071427Y-122408557D02*
X70157141Y-122537128D01*
X70157141Y-122537128D02*
X70242856Y-122622842D01*
X70242856Y-122622842D02*
X70328570Y-122665700D01*
X68142856Y-122408557D02*
X67542856Y-122408557D01*
X67542856Y-122408557D02*
X67928570Y-123308557D01*
X66814285Y-122708557D02*
X66814285Y-123308557D01*
X67028570Y-122365700D02*
X67242856Y-123008557D01*
X67242856Y-123008557D02*
X66685713Y-123008557D01*
X66428570Y-123308557D02*
X65957142Y-122708557D01*
X66428570Y-122708557D02*
X65957142Y-123308557D01*
X65185713Y-122408557D02*
X65614285Y-122408557D01*
X65614285Y-122408557D02*
X65657142Y-122837128D01*
X65657142Y-122837128D02*
X65614285Y-122794271D01*
X65614285Y-122794271D02*
X65528571Y-122751414D01*
X65528571Y-122751414D02*
X65314285Y-122751414D01*
X65314285Y-122751414D02*
X65228571Y-122794271D01*
X65228571Y-122794271D02*
X65185713Y-122837128D01*
X65185713Y-122837128D02*
X65142856Y-122922842D01*
X65142856Y-122922842D02*
X65142856Y-123137128D01*
X65142856Y-123137128D02*
X65185713Y-123222842D01*
X65185713Y-123222842D02*
X65228571Y-123265700D01*
X65228571Y-123265700D02*
X65314285Y-123308557D01*
X65314285Y-123308557D02*
X65528571Y-123308557D01*
X65528571Y-123308557D02*
X65614285Y-123265700D01*
X65614285Y-123265700D02*
X65657142Y-123222842D01*
X64842856Y-122408557D02*
X64242856Y-122408557D01*
X64242856Y-122408557D02*
X64628570Y-123308557D01*
X63514285Y-122708557D02*
X63514285Y-123308557D01*
X63728570Y-122365700D02*
X63942856Y-123008557D01*
X63942856Y-123008557D02*
X63385713Y-123008557D01*
X81385715Y-123808556D02*
X81300001Y-123808556D01*
X81300001Y-123808556D02*
X81214287Y-123851413D01*
X81214287Y-123851413D02*
X81171430Y-123894270D01*
X81171430Y-123894270D02*
X81128572Y-123979984D01*
X81128572Y-123979984D02*
X81085715Y-124151413D01*
X81085715Y-124151413D02*
X81085715Y-124365699D01*
X81085715Y-124365699D02*
X81128572Y-124537127D01*
X81128572Y-124537127D02*
X81171430Y-124622841D01*
X81171430Y-124622841D02*
X81214287Y-124665699D01*
X81214287Y-124665699D02*
X81300001Y-124708556D01*
X81300001Y-124708556D02*
X81385715Y-124708556D01*
X81385715Y-124708556D02*
X81471430Y-124665699D01*
X81471430Y-124665699D02*
X81514287Y-124622841D01*
X81514287Y-124622841D02*
X81557144Y-124537127D01*
X81557144Y-124537127D02*
X81600001Y-124365699D01*
X81600001Y-124365699D02*
X81600001Y-124151413D01*
X81600001Y-124151413D02*
X81557144Y-123979984D01*
X81557144Y-123979984D02*
X81514287Y-123894270D01*
X81514287Y-123894270D02*
X81471430Y-123851413D01*
X81471430Y-123851413D02*
X81385715Y-123808556D01*
X80271429Y-123808556D02*
X80700001Y-123808556D01*
X80700001Y-123808556D02*
X80742858Y-124237127D01*
X80742858Y-124237127D02*
X80700001Y-124194270D01*
X80700001Y-124194270D02*
X80614287Y-124151413D01*
X80614287Y-124151413D02*
X80400001Y-124151413D01*
X80400001Y-124151413D02*
X80314287Y-124194270D01*
X80314287Y-124194270D02*
X80271429Y-124237127D01*
X80271429Y-124237127D02*
X80228572Y-124322841D01*
X80228572Y-124322841D02*
X80228572Y-124537127D01*
X80228572Y-124537127D02*
X80271429Y-124622841D01*
X80271429Y-124622841D02*
X80314287Y-124665699D01*
X80314287Y-124665699D02*
X80400001Y-124708556D01*
X80400001Y-124708556D02*
X80614287Y-124708556D01*
X80614287Y-124708556D02*
X80700001Y-124665699D01*
X80700001Y-124665699D02*
X80742858Y-124622841D01*
X80057144Y-124794270D02*
X79371429Y-124794270D01*
X79285715Y-124108556D02*
X78942858Y-124108556D01*
X79157144Y-124708556D02*
X79157144Y-123937127D01*
X79157144Y-123937127D02*
X79114287Y-123851413D01*
X79114287Y-123851413D02*
X79028572Y-123808556D01*
X79028572Y-123808556D02*
X78942858Y-123808556D01*
X78514286Y-124708556D02*
X78600001Y-124665699D01*
X78600001Y-124665699D02*
X78642858Y-124579984D01*
X78642858Y-124579984D02*
X78642858Y-123808556D01*
X78171429Y-124708556D02*
X78171429Y-124108556D01*
X78171429Y-123808556D02*
X78214286Y-123851413D01*
X78214286Y-123851413D02*
X78171429Y-123894270D01*
X78171429Y-123894270D02*
X78128572Y-123851413D01*
X78128572Y-123851413D02*
X78171429Y-123808556D01*
X78171429Y-123808556D02*
X78171429Y-123894270D01*
X77742858Y-124108556D02*
X77742858Y-125008556D01*
X77742858Y-124151413D02*
X77657144Y-124108556D01*
X77657144Y-124108556D02*
X77485715Y-124108556D01*
X77485715Y-124108556D02*
X77400001Y-124151413D01*
X77400001Y-124151413D02*
X77357144Y-124194270D01*
X77357144Y-124194270D02*
X77314286Y-124279984D01*
X77314286Y-124279984D02*
X77314286Y-124537127D01*
X77314286Y-124537127D02*
X77357144Y-124622841D01*
X77357144Y-124622841D02*
X77400001Y-124665699D01*
X77400001Y-124665699D02*
X77485715Y-124708556D01*
X77485715Y-124708556D02*
X77657144Y-124708556D01*
X77657144Y-124708556D02*
X77742858Y-124665699D01*
X77057143Y-124108556D02*
X76714286Y-124108556D01*
X76928572Y-124708556D02*
X76928572Y-123937127D01*
X76928572Y-123937127D02*
X76885715Y-123851413D01*
X76885715Y-123851413D02*
X76800000Y-123808556D01*
X76800000Y-123808556D02*
X76714286Y-123808556D01*
X76285714Y-124708556D02*
X76371429Y-124665699D01*
X76371429Y-124665699D02*
X76414286Y-124579984D01*
X76414286Y-124579984D02*
X76414286Y-123808556D01*
X75814285Y-124708556D02*
X75900000Y-124665699D01*
X75900000Y-124665699D02*
X75942857Y-124622841D01*
X75942857Y-124622841D02*
X75985714Y-124537127D01*
X75985714Y-124537127D02*
X75985714Y-124279984D01*
X75985714Y-124279984D02*
X75942857Y-124194270D01*
X75942857Y-124194270D02*
X75900000Y-124151413D01*
X75900000Y-124151413D02*
X75814285Y-124108556D01*
X75814285Y-124108556D02*
X75685714Y-124108556D01*
X75685714Y-124108556D02*
X75600000Y-124151413D01*
X75600000Y-124151413D02*
X75557143Y-124194270D01*
X75557143Y-124194270D02*
X75514285Y-124279984D01*
X75514285Y-124279984D02*
X75514285Y-124537127D01*
X75514285Y-124537127D02*
X75557143Y-124622841D01*
X75557143Y-124622841D02*
X75600000Y-124665699D01*
X75600000Y-124665699D02*
X75685714Y-124708556D01*
X75685714Y-124708556D02*
X75814285Y-124708556D01*
X75128571Y-124108556D02*
X75128571Y-125008556D01*
X75128571Y-124151413D02*
X75042857Y-124108556D01*
X75042857Y-124108556D02*
X74871428Y-124108556D01*
X74871428Y-124108556D02*
X74785714Y-124151413D01*
X74785714Y-124151413D02*
X74742857Y-124194270D01*
X74742857Y-124194270D02*
X74699999Y-124279984D01*
X74699999Y-124279984D02*
X74699999Y-124537127D01*
X74699999Y-124537127D02*
X74742857Y-124622841D01*
X74742857Y-124622841D02*
X74785714Y-124665699D01*
X74785714Y-124665699D02*
X74871428Y-124708556D01*
X74871428Y-124708556D02*
X75042857Y-124708556D01*
X75042857Y-124708556D02*
X75128571Y-124665699D01*
X74357142Y-124665699D02*
X74271428Y-124708556D01*
X74271428Y-124708556D02*
X74099999Y-124708556D01*
X74099999Y-124708556D02*
X74014285Y-124665699D01*
X74014285Y-124665699D02*
X73971428Y-124579984D01*
X73971428Y-124579984D02*
X73971428Y-124537127D01*
X73971428Y-124537127D02*
X74014285Y-124451413D01*
X74014285Y-124451413D02*
X74099999Y-124408556D01*
X74099999Y-124408556D02*
X74228571Y-124408556D01*
X74228571Y-124408556D02*
X74314285Y-124365699D01*
X74314285Y-124365699D02*
X74357142Y-124279984D01*
X74357142Y-124279984D02*
X74357142Y-124237127D01*
X74357142Y-124237127D02*
X74314285Y-124151413D01*
X74314285Y-124151413D02*
X74228571Y-124108556D01*
X74228571Y-124108556D02*
X74099999Y-124108556D01*
X74099999Y-124108556D02*
X74014285Y-124151413D01*
X73800000Y-124794270D02*
X73114285Y-124794270D01*
X72771428Y-124708556D02*
X72857143Y-124665699D01*
X72857143Y-124665699D02*
X72900000Y-124579984D01*
X72900000Y-124579984D02*
X72900000Y-123808556D01*
X72042857Y-124708556D02*
X72042857Y-124237127D01*
X72042857Y-124237127D02*
X72085714Y-124151413D01*
X72085714Y-124151413D02*
X72171428Y-124108556D01*
X72171428Y-124108556D02*
X72342857Y-124108556D01*
X72342857Y-124108556D02*
X72428571Y-124151413D01*
X72042857Y-124665699D02*
X72128571Y-124708556D01*
X72128571Y-124708556D02*
X72342857Y-124708556D01*
X72342857Y-124708556D02*
X72428571Y-124665699D01*
X72428571Y-124665699D02*
X72471428Y-124579984D01*
X72471428Y-124579984D02*
X72471428Y-124494270D01*
X72471428Y-124494270D02*
X72428571Y-124408556D01*
X72428571Y-124408556D02*
X72342857Y-124365699D01*
X72342857Y-124365699D02*
X72128571Y-124365699D01*
X72128571Y-124365699D02*
X72042857Y-124322841D01*
X71742856Y-124108556D02*
X71399999Y-124108556D01*
X71614285Y-123808556D02*
X71614285Y-124579984D01*
X71614285Y-124579984D02*
X71571428Y-124665699D01*
X71571428Y-124665699D02*
X71485713Y-124708556D01*
X71485713Y-124708556D02*
X71399999Y-124708556D01*
X70714285Y-124665699D02*
X70799999Y-124708556D01*
X70799999Y-124708556D02*
X70971427Y-124708556D01*
X70971427Y-124708556D02*
X71057142Y-124665699D01*
X71057142Y-124665699D02*
X71099999Y-124622841D01*
X71099999Y-124622841D02*
X71142856Y-124537127D01*
X71142856Y-124537127D02*
X71142856Y-124279984D01*
X71142856Y-124279984D02*
X71099999Y-124194270D01*
X71099999Y-124194270D02*
X71057142Y-124151413D01*
X71057142Y-124151413D02*
X70971427Y-124108556D01*
X70971427Y-124108556D02*
X70799999Y-124108556D01*
X70799999Y-124108556D02*
X70714285Y-124151413D01*
X70328570Y-124708556D02*
X70328570Y-123808556D01*
X69942856Y-124708556D02*
X69942856Y-124237127D01*
X69942856Y-124237127D02*
X69985713Y-124151413D01*
X69985713Y-124151413D02*
X70071427Y-124108556D01*
X70071427Y-124108556D02*
X70199998Y-124108556D01*
X70199998Y-124108556D02*
X70285713Y-124151413D01*
X70285713Y-124151413D02*
X70328570Y-124194270D01*
X69171427Y-124665699D02*
X69257141Y-124708556D01*
X69257141Y-124708556D02*
X69428570Y-124708556D01*
X69428570Y-124708556D02*
X69514284Y-124665699D01*
X69514284Y-124665699D02*
X69557141Y-124579984D01*
X69557141Y-124579984D02*
X69557141Y-124237127D01*
X69557141Y-124237127D02*
X69514284Y-124151413D01*
X69514284Y-124151413D02*
X69428570Y-124108556D01*
X69428570Y-124108556D02*
X69257141Y-124108556D01*
X69257141Y-124108556D02*
X69171427Y-124151413D01*
X69171427Y-124151413D02*
X69128570Y-124237127D01*
X69128570Y-124237127D02*
X69128570Y-124322841D01*
X69128570Y-124322841D02*
X69557141Y-124408556D01*
X68785712Y-124665699D02*
X68699998Y-124708556D01*
X68699998Y-124708556D02*
X68528569Y-124708556D01*
X68528569Y-124708556D02*
X68442855Y-124665699D01*
X68442855Y-124665699D02*
X68399998Y-124579984D01*
X68399998Y-124579984D02*
X68399998Y-124537127D01*
X68399998Y-124537127D02*
X68442855Y-124451413D01*
X68442855Y-124451413D02*
X68528569Y-124408556D01*
X68528569Y-124408556D02*
X68657141Y-124408556D01*
X68657141Y-124408556D02*
X68742855Y-124365699D01*
X68742855Y-124365699D02*
X68785712Y-124279984D01*
X68785712Y-124279984D02*
X68785712Y-124237127D01*
X68785712Y-124237127D02*
X68742855Y-124151413D01*
X68742855Y-124151413D02*
X68657141Y-124108556D01*
X68657141Y-124108556D02*
X68528569Y-124108556D01*
X68528569Y-124108556D02*
X68442855Y-124151413D01*
X78707142Y-126108557D02*
X78707142Y-125208557D01*
X78707142Y-125208557D02*
X78407142Y-125851414D01*
X78407142Y-125851414D02*
X78107142Y-125208557D01*
X78107142Y-125208557D02*
X78107142Y-126108557D01*
X77678571Y-126108557D02*
X77678571Y-125208557D01*
X77378571Y-125208557D02*
X76864286Y-125208557D01*
X77121428Y-126108557D02*
X77121428Y-125208557D01*
X75450000Y-126108557D02*
X75878572Y-126108557D01*
X75878572Y-126108557D02*
X75878572Y-125208557D01*
X75150001Y-126108557D02*
X75150001Y-125508557D01*
X75150001Y-125208557D02*
X75192858Y-125251414D01*
X75192858Y-125251414D02*
X75150001Y-125294271D01*
X75150001Y-125294271D02*
X75107144Y-125251414D01*
X75107144Y-125251414D02*
X75150001Y-125208557D01*
X75150001Y-125208557D02*
X75150001Y-125294271D01*
X74335716Y-126065700D02*
X74421430Y-126108557D01*
X74421430Y-126108557D02*
X74592858Y-126108557D01*
X74592858Y-126108557D02*
X74678573Y-126065700D01*
X74678573Y-126065700D02*
X74721430Y-126022842D01*
X74721430Y-126022842D02*
X74764287Y-125937128D01*
X74764287Y-125937128D02*
X74764287Y-125679985D01*
X74764287Y-125679985D02*
X74721430Y-125594271D01*
X74721430Y-125594271D02*
X74678573Y-125551414D01*
X74678573Y-125551414D02*
X74592858Y-125508557D01*
X74592858Y-125508557D02*
X74421430Y-125508557D01*
X74421430Y-125508557D02*
X74335716Y-125551414D01*
X73607144Y-126065700D02*
X73692858Y-126108557D01*
X73692858Y-126108557D02*
X73864287Y-126108557D01*
X73864287Y-126108557D02*
X73950001Y-126065700D01*
X73950001Y-126065700D02*
X73992858Y-125979985D01*
X73992858Y-125979985D02*
X73992858Y-125637128D01*
X73992858Y-125637128D02*
X73950001Y-125551414D01*
X73950001Y-125551414D02*
X73864287Y-125508557D01*
X73864287Y-125508557D02*
X73692858Y-125508557D01*
X73692858Y-125508557D02*
X73607144Y-125551414D01*
X73607144Y-125551414D02*
X73564287Y-125637128D01*
X73564287Y-125637128D02*
X73564287Y-125722842D01*
X73564287Y-125722842D02*
X73992858Y-125808557D01*
X73178572Y-125508557D02*
X73178572Y-126108557D01*
X73178572Y-125594271D02*
X73135715Y-125551414D01*
X73135715Y-125551414D02*
X73050000Y-125508557D01*
X73050000Y-125508557D02*
X72921429Y-125508557D01*
X72921429Y-125508557D02*
X72835715Y-125551414D01*
X72835715Y-125551414D02*
X72792858Y-125637128D01*
X72792858Y-125637128D02*
X72792858Y-126108557D01*
X72407143Y-126065700D02*
X72321429Y-126108557D01*
X72321429Y-126108557D02*
X72150000Y-126108557D01*
X72150000Y-126108557D02*
X72064286Y-126065700D01*
X72064286Y-126065700D02*
X72021429Y-125979985D01*
X72021429Y-125979985D02*
X72021429Y-125937128D01*
X72021429Y-125937128D02*
X72064286Y-125851414D01*
X72064286Y-125851414D02*
X72150000Y-125808557D01*
X72150000Y-125808557D02*
X72278572Y-125808557D01*
X72278572Y-125808557D02*
X72364286Y-125765700D01*
X72364286Y-125765700D02*
X72407143Y-125679985D01*
X72407143Y-125679985D02*
X72407143Y-125637128D01*
X72407143Y-125637128D02*
X72364286Y-125551414D01*
X72364286Y-125551414D02*
X72278572Y-125508557D01*
X72278572Y-125508557D02*
X72150000Y-125508557D01*
X72150000Y-125508557D02*
X72064286Y-125551414D01*
X71292858Y-126065700D02*
X71378572Y-126108557D01*
X71378572Y-126108557D02*
X71550001Y-126108557D01*
X71550001Y-126108557D02*
X71635715Y-126065700D01*
X71635715Y-126065700D02*
X71678572Y-125979985D01*
X71678572Y-125979985D02*
X71678572Y-125637128D01*
X71678572Y-125637128D02*
X71635715Y-125551414D01*
X71635715Y-125551414D02*
X71550001Y-125508557D01*
X71550001Y-125508557D02*
X71378572Y-125508557D01*
X71378572Y-125508557D02*
X71292858Y-125551414D01*
X71292858Y-125551414D02*
X71250001Y-125637128D01*
X71250001Y-125637128D02*
X71250001Y-125722842D01*
X71250001Y-125722842D02*
X71678572Y-125808557D01*
X136614285Y-72408557D02*
X136014285Y-72408557D01*
X136014285Y-72408557D02*
X136399999Y-73308557D01*
X135285714Y-72708557D02*
X135285714Y-73308557D01*
X135499999Y-72365700D02*
X135714285Y-73008557D01*
X135714285Y-73008557D02*
X135157142Y-73008557D01*
X134642856Y-72408557D02*
X134557142Y-72408557D01*
X134557142Y-72408557D02*
X134471428Y-72451414D01*
X134471428Y-72451414D02*
X134428571Y-72494271D01*
X134428571Y-72494271D02*
X134385713Y-72579985D01*
X134385713Y-72579985D02*
X134342856Y-72751414D01*
X134342856Y-72751414D02*
X134342856Y-72965700D01*
X134342856Y-72965700D02*
X134385713Y-73137128D01*
X134385713Y-73137128D02*
X134428571Y-73222842D01*
X134428571Y-73222842D02*
X134471428Y-73265700D01*
X134471428Y-73265700D02*
X134557142Y-73308557D01*
X134557142Y-73308557D02*
X134642856Y-73308557D01*
X134642856Y-73308557D02*
X134728571Y-73265700D01*
X134728571Y-73265700D02*
X134771428Y-73222842D01*
X134771428Y-73222842D02*
X134814285Y-73137128D01*
X134814285Y-73137128D02*
X134857142Y-72965700D01*
X134857142Y-72965700D02*
X134857142Y-72751414D01*
X134857142Y-72751414D02*
X134814285Y-72579985D01*
X134814285Y-72579985D02*
X134771428Y-72494271D01*
X134771428Y-72494271D02*
X134728571Y-72451414D01*
X134728571Y-72451414D02*
X134642856Y-72408557D01*
X133785713Y-72408557D02*
X133699999Y-72408557D01*
X133699999Y-72408557D02*
X133614285Y-72451414D01*
X133614285Y-72451414D02*
X133571428Y-72494271D01*
X133571428Y-72494271D02*
X133528570Y-72579985D01*
X133528570Y-72579985D02*
X133485713Y-72751414D01*
X133485713Y-72751414D02*
X133485713Y-72965700D01*
X133485713Y-72965700D02*
X133528570Y-73137128D01*
X133528570Y-73137128D02*
X133571428Y-73222842D01*
X133571428Y-73222842D02*
X133614285Y-73265700D01*
X133614285Y-73265700D02*
X133699999Y-73308557D01*
X133699999Y-73308557D02*
X133785713Y-73308557D01*
X133785713Y-73308557D02*
X133871428Y-73265700D01*
X133871428Y-73265700D02*
X133914285Y-73222842D01*
X133914285Y-73222842D02*
X133957142Y-73137128D01*
X133957142Y-73137128D02*
X133999999Y-72965700D01*
X133999999Y-72965700D02*
X133999999Y-72751414D01*
X133999999Y-72751414D02*
X133957142Y-72579985D01*
X133957142Y-72579985D02*
X133914285Y-72494271D01*
X133914285Y-72494271D02*
X133871428Y-72451414D01*
X133871428Y-72451414D02*
X133785713Y-72408557D01*
X132457142Y-73265700D02*
X132328571Y-73308557D01*
X132328571Y-73308557D02*
X132114285Y-73308557D01*
X132114285Y-73308557D02*
X132028571Y-73265700D01*
X132028571Y-73265700D02*
X131985713Y-73222842D01*
X131985713Y-73222842D02*
X131942856Y-73137128D01*
X131942856Y-73137128D02*
X131942856Y-73051414D01*
X131942856Y-73051414D02*
X131985713Y-72965700D01*
X131985713Y-72965700D02*
X132028571Y-72922842D01*
X132028571Y-72922842D02*
X132114285Y-72879985D01*
X132114285Y-72879985D02*
X132285713Y-72837128D01*
X132285713Y-72837128D02*
X132371428Y-72794271D01*
X132371428Y-72794271D02*
X132414285Y-72751414D01*
X132414285Y-72751414D02*
X132457142Y-72665700D01*
X132457142Y-72665700D02*
X132457142Y-72579985D01*
X132457142Y-72579985D02*
X132414285Y-72494271D01*
X132414285Y-72494271D02*
X132371428Y-72451414D01*
X132371428Y-72451414D02*
X132285713Y-72408557D01*
X132285713Y-72408557D02*
X132071428Y-72408557D01*
X132071428Y-72408557D02*
X131942856Y-72451414D01*
X131557142Y-72708557D02*
X131557142Y-73608557D01*
X131557142Y-72751414D02*
X131471428Y-72708557D01*
X131471428Y-72708557D02*
X131299999Y-72708557D01*
X131299999Y-72708557D02*
X131214285Y-72751414D01*
X131214285Y-72751414D02*
X131171428Y-72794271D01*
X131171428Y-72794271D02*
X131128570Y-72879985D01*
X131128570Y-72879985D02*
X131128570Y-73137128D01*
X131128570Y-73137128D02*
X131171428Y-73222842D01*
X131171428Y-73222842D02*
X131214285Y-73265700D01*
X131214285Y-73265700D02*
X131299999Y-73308557D01*
X131299999Y-73308557D02*
X131471428Y-73308557D01*
X131471428Y-73308557D02*
X131557142Y-73265700D01*
X130399999Y-73265700D02*
X130485713Y-73308557D01*
X130485713Y-73308557D02*
X130657142Y-73308557D01*
X130657142Y-73308557D02*
X130742856Y-73265700D01*
X130742856Y-73265700D02*
X130785713Y-73179985D01*
X130785713Y-73179985D02*
X130785713Y-72837128D01*
X130785713Y-72837128D02*
X130742856Y-72751414D01*
X130742856Y-72751414D02*
X130657142Y-72708557D01*
X130657142Y-72708557D02*
X130485713Y-72708557D01*
X130485713Y-72708557D02*
X130399999Y-72751414D01*
X130399999Y-72751414D02*
X130357142Y-72837128D01*
X130357142Y-72837128D02*
X130357142Y-72922842D01*
X130357142Y-72922842D02*
X130785713Y-73008557D01*
X129585713Y-73265700D02*
X129671427Y-73308557D01*
X129671427Y-73308557D02*
X129842855Y-73308557D01*
X129842855Y-73308557D02*
X129928570Y-73265700D01*
X129928570Y-73265700D02*
X129971427Y-73222842D01*
X129971427Y-73222842D02*
X130014284Y-73137128D01*
X130014284Y-73137128D02*
X130014284Y-72879985D01*
X130014284Y-72879985D02*
X129971427Y-72794271D01*
X129971427Y-72794271D02*
X129928570Y-72751414D01*
X129928570Y-72751414D02*
X129842855Y-72708557D01*
X129842855Y-72708557D02*
X129671427Y-72708557D01*
X129671427Y-72708557D02*
X129585713Y-72751414D01*
X129199998Y-73308557D02*
X129199998Y-72708557D01*
X129199998Y-72408557D02*
X129242855Y-72451414D01*
X129242855Y-72451414D02*
X129199998Y-72494271D01*
X129199998Y-72494271D02*
X129157141Y-72451414D01*
X129157141Y-72451414D02*
X129199998Y-72408557D01*
X129199998Y-72408557D02*
X129199998Y-72494271D01*
X128771427Y-73308557D02*
X128771427Y-72708557D01*
X128771427Y-72794271D02*
X128728570Y-72751414D01*
X128728570Y-72751414D02*
X128642855Y-72708557D01*
X128642855Y-72708557D02*
X128514284Y-72708557D01*
X128514284Y-72708557D02*
X128428570Y-72751414D01*
X128428570Y-72751414D02*
X128385713Y-72837128D01*
X128385713Y-72837128D02*
X128385713Y-73308557D01*
X128385713Y-72837128D02*
X128342855Y-72751414D01*
X128342855Y-72751414D02*
X128257141Y-72708557D01*
X128257141Y-72708557D02*
X128128570Y-72708557D01*
X128128570Y-72708557D02*
X128042855Y-72751414D01*
X128042855Y-72751414D02*
X127999998Y-72837128D01*
X127999998Y-72837128D02*
X127999998Y-73308557D01*
X127228570Y-73265700D02*
X127314284Y-73308557D01*
X127314284Y-73308557D02*
X127485713Y-73308557D01*
X127485713Y-73308557D02*
X127571427Y-73265700D01*
X127571427Y-73265700D02*
X127614284Y-73179985D01*
X127614284Y-73179985D02*
X127614284Y-72837128D01*
X127614284Y-72837128D02*
X127571427Y-72751414D01*
X127571427Y-72751414D02*
X127485713Y-72708557D01*
X127485713Y-72708557D02*
X127314284Y-72708557D01*
X127314284Y-72708557D02*
X127228570Y-72751414D01*
X127228570Y-72751414D02*
X127185713Y-72837128D01*
X127185713Y-72837128D02*
X127185713Y-72922842D01*
X127185713Y-72922842D02*
X127614284Y-73008557D01*
X126799998Y-72708557D02*
X126799998Y-73308557D01*
X126799998Y-72794271D02*
X126757141Y-72751414D01*
X126757141Y-72751414D02*
X126671426Y-72708557D01*
X126671426Y-72708557D02*
X126542855Y-72708557D01*
X126542855Y-72708557D02*
X126457141Y-72751414D01*
X126457141Y-72751414D02*
X126414284Y-72837128D01*
X126414284Y-72837128D02*
X126414284Y-73308557D01*
X125428569Y-72408557D02*
X124914284Y-72408557D01*
X125171426Y-73308557D02*
X125171426Y-72408557D01*
X124614284Y-73308557D02*
X124614284Y-72708557D01*
X124614284Y-72408557D02*
X124657141Y-72451414D01*
X124657141Y-72451414D02*
X124614284Y-72494271D01*
X124614284Y-72494271D02*
X124571427Y-72451414D01*
X124571427Y-72451414D02*
X124614284Y-72408557D01*
X124614284Y-72408557D02*
X124614284Y-72494271D01*
X124057141Y-73308557D02*
X124142856Y-73265700D01*
X124142856Y-73265700D02*
X124185713Y-73179985D01*
X124185713Y-73179985D02*
X124185713Y-72408557D01*
X123371427Y-73265700D02*
X123457141Y-73308557D01*
X123457141Y-73308557D02*
X123628570Y-73308557D01*
X123628570Y-73308557D02*
X123714284Y-73265700D01*
X123714284Y-73265700D02*
X123757141Y-73179985D01*
X123757141Y-73179985D02*
X123757141Y-72837128D01*
X123757141Y-72837128D02*
X123714284Y-72751414D01*
X123714284Y-72751414D02*
X123628570Y-72708557D01*
X123628570Y-72708557D02*
X123457141Y-72708557D01*
X123457141Y-72708557D02*
X123371427Y-72751414D01*
X123371427Y-72751414D02*
X123328570Y-72837128D01*
X123328570Y-72837128D02*
X123328570Y-72922842D01*
X123328570Y-72922842D02*
X123757141Y-73008557D01*
X122342855Y-72708557D02*
X122128569Y-73308557D01*
X122128569Y-73308557D02*
X121914284Y-72708557D01*
X121399998Y-72408557D02*
X121314284Y-72408557D01*
X121314284Y-72408557D02*
X121228570Y-72451414D01*
X121228570Y-72451414D02*
X121185713Y-72494271D01*
X121185713Y-72494271D02*
X121142855Y-72579985D01*
X121142855Y-72579985D02*
X121099998Y-72751414D01*
X121099998Y-72751414D02*
X121099998Y-72965700D01*
X121099998Y-72965700D02*
X121142855Y-73137128D01*
X121142855Y-73137128D02*
X121185713Y-73222842D01*
X121185713Y-73222842D02*
X121228570Y-73265700D01*
X121228570Y-73265700D02*
X121314284Y-73308557D01*
X121314284Y-73308557D02*
X121399998Y-73308557D01*
X121399998Y-73308557D02*
X121485713Y-73265700D01*
X121485713Y-73265700D02*
X121528570Y-73222842D01*
X121528570Y-73222842D02*
X121571427Y-73137128D01*
X121571427Y-73137128D02*
X121614284Y-72965700D01*
X121614284Y-72965700D02*
X121614284Y-72751414D01*
X121614284Y-72751414D02*
X121571427Y-72579985D01*
X121571427Y-72579985D02*
X121528570Y-72494271D01*
X121528570Y-72494271D02*
X121485713Y-72451414D01*
X121485713Y-72451414D02*
X121399998Y-72408557D01*
X120714284Y-73222842D02*
X120671427Y-73265700D01*
X120671427Y-73265700D02*
X120714284Y-73308557D01*
X120714284Y-73308557D02*
X120757141Y-73265700D01*
X120757141Y-73265700D02*
X120714284Y-73222842D01*
X120714284Y-73222842D02*
X120714284Y-73308557D01*
X119814284Y-73308557D02*
X120328570Y-73308557D01*
X120071427Y-73308557D02*
X120071427Y-72408557D01*
X120071427Y-72408557D02*
X120157141Y-72537128D01*
X120157141Y-72537128D02*
X120242856Y-72622842D01*
X120242856Y-72622842D02*
X120328570Y-72665700D01*
X118142856Y-72408557D02*
X117542856Y-72408557D01*
X117542856Y-72408557D02*
X117928570Y-73308557D01*
X116814285Y-72708557D02*
X116814285Y-73308557D01*
X117028570Y-72365700D02*
X117242856Y-73008557D01*
X117242856Y-73008557D02*
X116685713Y-73008557D01*
X116428570Y-73308557D02*
X115957142Y-72708557D01*
X116428570Y-72708557D02*
X115957142Y-73308557D01*
X115699999Y-72408557D02*
X115142856Y-72408557D01*
X115142856Y-72408557D02*
X115442856Y-72751414D01*
X115442856Y-72751414D02*
X115314285Y-72751414D01*
X115314285Y-72751414D02*
X115228571Y-72794271D01*
X115228571Y-72794271D02*
X115185713Y-72837128D01*
X115185713Y-72837128D02*
X115142856Y-72922842D01*
X115142856Y-72922842D02*
X115142856Y-73137128D01*
X115142856Y-73137128D02*
X115185713Y-73222842D01*
X115185713Y-73222842D02*
X115228571Y-73265700D01*
X115228571Y-73265700D02*
X115314285Y-73308557D01*
X115314285Y-73308557D02*
X115571428Y-73308557D01*
X115571428Y-73308557D02*
X115657142Y-73265700D01*
X115657142Y-73265700D02*
X115699999Y-73222842D01*
X114842856Y-72408557D02*
X114242856Y-72408557D01*
X114242856Y-72408557D02*
X114628570Y-73308557D01*
X113514285Y-72708557D02*
X113514285Y-73308557D01*
X113728570Y-72365700D02*
X113942856Y-73008557D01*
X113942856Y-73008557D02*
X113385713Y-73008557D01*
X131385715Y-73808556D02*
X131300001Y-73808556D01*
X131300001Y-73808556D02*
X131214287Y-73851413D01*
X131214287Y-73851413D02*
X131171430Y-73894270D01*
X131171430Y-73894270D02*
X131128572Y-73979984D01*
X131128572Y-73979984D02*
X131085715Y-74151413D01*
X131085715Y-74151413D02*
X131085715Y-74365699D01*
X131085715Y-74365699D02*
X131128572Y-74537127D01*
X131128572Y-74537127D02*
X131171430Y-74622841D01*
X131171430Y-74622841D02*
X131214287Y-74665699D01*
X131214287Y-74665699D02*
X131300001Y-74708556D01*
X131300001Y-74708556D02*
X131385715Y-74708556D01*
X131385715Y-74708556D02*
X131471430Y-74665699D01*
X131471430Y-74665699D02*
X131514287Y-74622841D01*
X131514287Y-74622841D02*
X131557144Y-74537127D01*
X131557144Y-74537127D02*
X131600001Y-74365699D01*
X131600001Y-74365699D02*
X131600001Y-74151413D01*
X131600001Y-74151413D02*
X131557144Y-73979984D01*
X131557144Y-73979984D02*
X131514287Y-73894270D01*
X131514287Y-73894270D02*
X131471430Y-73851413D01*
X131471430Y-73851413D02*
X131385715Y-73808556D01*
X130271429Y-73808556D02*
X130700001Y-73808556D01*
X130700001Y-73808556D02*
X130742858Y-74237127D01*
X130742858Y-74237127D02*
X130700001Y-74194270D01*
X130700001Y-74194270D02*
X130614287Y-74151413D01*
X130614287Y-74151413D02*
X130400001Y-74151413D01*
X130400001Y-74151413D02*
X130314287Y-74194270D01*
X130314287Y-74194270D02*
X130271429Y-74237127D01*
X130271429Y-74237127D02*
X130228572Y-74322841D01*
X130228572Y-74322841D02*
X130228572Y-74537127D01*
X130228572Y-74537127D02*
X130271429Y-74622841D01*
X130271429Y-74622841D02*
X130314287Y-74665699D01*
X130314287Y-74665699D02*
X130400001Y-74708556D01*
X130400001Y-74708556D02*
X130614287Y-74708556D01*
X130614287Y-74708556D02*
X130700001Y-74665699D01*
X130700001Y-74665699D02*
X130742858Y-74622841D01*
X130057144Y-74794270D02*
X129371429Y-74794270D01*
X129285715Y-74108556D02*
X128942858Y-74108556D01*
X129157144Y-74708556D02*
X129157144Y-73937127D01*
X129157144Y-73937127D02*
X129114287Y-73851413D01*
X129114287Y-73851413D02*
X129028572Y-73808556D01*
X129028572Y-73808556D02*
X128942858Y-73808556D01*
X128514286Y-74708556D02*
X128600001Y-74665699D01*
X128600001Y-74665699D02*
X128642858Y-74579984D01*
X128642858Y-74579984D02*
X128642858Y-73808556D01*
X128171429Y-74708556D02*
X128171429Y-74108556D01*
X128171429Y-73808556D02*
X128214286Y-73851413D01*
X128214286Y-73851413D02*
X128171429Y-73894270D01*
X128171429Y-73894270D02*
X128128572Y-73851413D01*
X128128572Y-73851413D02*
X128171429Y-73808556D01*
X128171429Y-73808556D02*
X128171429Y-73894270D01*
X127742858Y-74108556D02*
X127742858Y-75008556D01*
X127742858Y-74151413D02*
X127657144Y-74108556D01*
X127657144Y-74108556D02*
X127485715Y-74108556D01*
X127485715Y-74108556D02*
X127400001Y-74151413D01*
X127400001Y-74151413D02*
X127357144Y-74194270D01*
X127357144Y-74194270D02*
X127314286Y-74279984D01*
X127314286Y-74279984D02*
X127314286Y-74537127D01*
X127314286Y-74537127D02*
X127357144Y-74622841D01*
X127357144Y-74622841D02*
X127400001Y-74665699D01*
X127400001Y-74665699D02*
X127485715Y-74708556D01*
X127485715Y-74708556D02*
X127657144Y-74708556D01*
X127657144Y-74708556D02*
X127742858Y-74665699D01*
X127057143Y-74108556D02*
X126714286Y-74108556D01*
X126928572Y-74708556D02*
X126928572Y-73937127D01*
X126928572Y-73937127D02*
X126885715Y-73851413D01*
X126885715Y-73851413D02*
X126800000Y-73808556D01*
X126800000Y-73808556D02*
X126714286Y-73808556D01*
X126285714Y-74708556D02*
X126371429Y-74665699D01*
X126371429Y-74665699D02*
X126414286Y-74579984D01*
X126414286Y-74579984D02*
X126414286Y-73808556D01*
X125814285Y-74708556D02*
X125900000Y-74665699D01*
X125900000Y-74665699D02*
X125942857Y-74622841D01*
X125942857Y-74622841D02*
X125985714Y-74537127D01*
X125985714Y-74537127D02*
X125985714Y-74279984D01*
X125985714Y-74279984D02*
X125942857Y-74194270D01*
X125942857Y-74194270D02*
X125900000Y-74151413D01*
X125900000Y-74151413D02*
X125814285Y-74108556D01*
X125814285Y-74108556D02*
X125685714Y-74108556D01*
X125685714Y-74108556D02*
X125600000Y-74151413D01*
X125600000Y-74151413D02*
X125557143Y-74194270D01*
X125557143Y-74194270D02*
X125514285Y-74279984D01*
X125514285Y-74279984D02*
X125514285Y-74537127D01*
X125514285Y-74537127D02*
X125557143Y-74622841D01*
X125557143Y-74622841D02*
X125600000Y-74665699D01*
X125600000Y-74665699D02*
X125685714Y-74708556D01*
X125685714Y-74708556D02*
X125814285Y-74708556D01*
X125128571Y-74108556D02*
X125128571Y-75008556D01*
X125128571Y-74151413D02*
X125042857Y-74108556D01*
X125042857Y-74108556D02*
X124871428Y-74108556D01*
X124871428Y-74108556D02*
X124785714Y-74151413D01*
X124785714Y-74151413D02*
X124742857Y-74194270D01*
X124742857Y-74194270D02*
X124699999Y-74279984D01*
X124699999Y-74279984D02*
X124699999Y-74537127D01*
X124699999Y-74537127D02*
X124742857Y-74622841D01*
X124742857Y-74622841D02*
X124785714Y-74665699D01*
X124785714Y-74665699D02*
X124871428Y-74708556D01*
X124871428Y-74708556D02*
X125042857Y-74708556D01*
X125042857Y-74708556D02*
X125128571Y-74665699D01*
X124357142Y-74665699D02*
X124271428Y-74708556D01*
X124271428Y-74708556D02*
X124099999Y-74708556D01*
X124099999Y-74708556D02*
X124014285Y-74665699D01*
X124014285Y-74665699D02*
X123971428Y-74579984D01*
X123971428Y-74579984D02*
X123971428Y-74537127D01*
X123971428Y-74537127D02*
X124014285Y-74451413D01*
X124014285Y-74451413D02*
X124099999Y-74408556D01*
X124099999Y-74408556D02*
X124228571Y-74408556D01*
X124228571Y-74408556D02*
X124314285Y-74365699D01*
X124314285Y-74365699D02*
X124357142Y-74279984D01*
X124357142Y-74279984D02*
X124357142Y-74237127D01*
X124357142Y-74237127D02*
X124314285Y-74151413D01*
X124314285Y-74151413D02*
X124228571Y-74108556D01*
X124228571Y-74108556D02*
X124099999Y-74108556D01*
X124099999Y-74108556D02*
X124014285Y-74151413D01*
X123800000Y-74794270D02*
X123114285Y-74794270D01*
X122771428Y-74708556D02*
X122857143Y-74665699D01*
X122857143Y-74665699D02*
X122900000Y-74579984D01*
X122900000Y-74579984D02*
X122900000Y-73808556D01*
X122042857Y-74708556D02*
X122042857Y-74237127D01*
X122042857Y-74237127D02*
X122085714Y-74151413D01*
X122085714Y-74151413D02*
X122171428Y-74108556D01*
X122171428Y-74108556D02*
X122342857Y-74108556D01*
X122342857Y-74108556D02*
X122428571Y-74151413D01*
X122042857Y-74665699D02*
X122128571Y-74708556D01*
X122128571Y-74708556D02*
X122342857Y-74708556D01*
X122342857Y-74708556D02*
X122428571Y-74665699D01*
X122428571Y-74665699D02*
X122471428Y-74579984D01*
X122471428Y-74579984D02*
X122471428Y-74494270D01*
X122471428Y-74494270D02*
X122428571Y-74408556D01*
X122428571Y-74408556D02*
X122342857Y-74365699D01*
X122342857Y-74365699D02*
X122128571Y-74365699D01*
X122128571Y-74365699D02*
X122042857Y-74322841D01*
X121742856Y-74108556D02*
X121399999Y-74108556D01*
X121614285Y-73808556D02*
X121614285Y-74579984D01*
X121614285Y-74579984D02*
X121571428Y-74665699D01*
X121571428Y-74665699D02*
X121485713Y-74708556D01*
X121485713Y-74708556D02*
X121399999Y-74708556D01*
X120714285Y-74665699D02*
X120799999Y-74708556D01*
X120799999Y-74708556D02*
X120971427Y-74708556D01*
X120971427Y-74708556D02*
X121057142Y-74665699D01*
X121057142Y-74665699D02*
X121099999Y-74622841D01*
X121099999Y-74622841D02*
X121142856Y-74537127D01*
X121142856Y-74537127D02*
X121142856Y-74279984D01*
X121142856Y-74279984D02*
X121099999Y-74194270D01*
X121099999Y-74194270D02*
X121057142Y-74151413D01*
X121057142Y-74151413D02*
X120971427Y-74108556D01*
X120971427Y-74108556D02*
X120799999Y-74108556D01*
X120799999Y-74108556D02*
X120714285Y-74151413D01*
X120328570Y-74708556D02*
X120328570Y-73808556D01*
X119942856Y-74708556D02*
X119942856Y-74237127D01*
X119942856Y-74237127D02*
X119985713Y-74151413D01*
X119985713Y-74151413D02*
X120071427Y-74108556D01*
X120071427Y-74108556D02*
X120199998Y-74108556D01*
X120199998Y-74108556D02*
X120285713Y-74151413D01*
X120285713Y-74151413D02*
X120328570Y-74194270D01*
X119171427Y-74665699D02*
X119257141Y-74708556D01*
X119257141Y-74708556D02*
X119428570Y-74708556D01*
X119428570Y-74708556D02*
X119514284Y-74665699D01*
X119514284Y-74665699D02*
X119557141Y-74579984D01*
X119557141Y-74579984D02*
X119557141Y-74237127D01*
X119557141Y-74237127D02*
X119514284Y-74151413D01*
X119514284Y-74151413D02*
X119428570Y-74108556D01*
X119428570Y-74108556D02*
X119257141Y-74108556D01*
X119257141Y-74108556D02*
X119171427Y-74151413D01*
X119171427Y-74151413D02*
X119128570Y-74237127D01*
X119128570Y-74237127D02*
X119128570Y-74322841D01*
X119128570Y-74322841D02*
X119557141Y-74408556D01*
X118785712Y-74665699D02*
X118699998Y-74708556D01*
X118699998Y-74708556D02*
X118528569Y-74708556D01*
X118528569Y-74708556D02*
X118442855Y-74665699D01*
X118442855Y-74665699D02*
X118399998Y-74579984D01*
X118399998Y-74579984D02*
X118399998Y-74537127D01*
X118399998Y-74537127D02*
X118442855Y-74451413D01*
X118442855Y-74451413D02*
X118528569Y-74408556D01*
X118528569Y-74408556D02*
X118657141Y-74408556D01*
X118657141Y-74408556D02*
X118742855Y-74365699D01*
X118742855Y-74365699D02*
X118785712Y-74279984D01*
X118785712Y-74279984D02*
X118785712Y-74237127D01*
X118785712Y-74237127D02*
X118742855Y-74151413D01*
X118742855Y-74151413D02*
X118657141Y-74108556D01*
X118657141Y-74108556D02*
X118528569Y-74108556D01*
X118528569Y-74108556D02*
X118442855Y-74151413D01*
X128707142Y-76108557D02*
X128707142Y-75208557D01*
X128707142Y-75208557D02*
X128407142Y-75851414D01*
X128407142Y-75851414D02*
X128107142Y-75208557D01*
X128107142Y-75208557D02*
X128107142Y-76108557D01*
X127678571Y-76108557D02*
X127678571Y-75208557D01*
X127378571Y-75208557D02*
X126864286Y-75208557D01*
X127121428Y-76108557D02*
X127121428Y-75208557D01*
X125450000Y-76108557D02*
X125878572Y-76108557D01*
X125878572Y-76108557D02*
X125878572Y-75208557D01*
X125150001Y-76108557D02*
X125150001Y-75508557D01*
X125150001Y-75208557D02*
X125192858Y-75251414D01*
X125192858Y-75251414D02*
X125150001Y-75294271D01*
X125150001Y-75294271D02*
X125107144Y-75251414D01*
X125107144Y-75251414D02*
X125150001Y-75208557D01*
X125150001Y-75208557D02*
X125150001Y-75294271D01*
X124335716Y-76065700D02*
X124421430Y-76108557D01*
X124421430Y-76108557D02*
X124592858Y-76108557D01*
X124592858Y-76108557D02*
X124678573Y-76065700D01*
X124678573Y-76065700D02*
X124721430Y-76022842D01*
X124721430Y-76022842D02*
X124764287Y-75937128D01*
X124764287Y-75937128D02*
X124764287Y-75679985D01*
X124764287Y-75679985D02*
X124721430Y-75594271D01*
X124721430Y-75594271D02*
X124678573Y-75551414D01*
X124678573Y-75551414D02*
X124592858Y-75508557D01*
X124592858Y-75508557D02*
X124421430Y-75508557D01*
X124421430Y-75508557D02*
X124335716Y-75551414D01*
X123607144Y-76065700D02*
X123692858Y-76108557D01*
X123692858Y-76108557D02*
X123864287Y-76108557D01*
X123864287Y-76108557D02*
X123950001Y-76065700D01*
X123950001Y-76065700D02*
X123992858Y-75979985D01*
X123992858Y-75979985D02*
X123992858Y-75637128D01*
X123992858Y-75637128D02*
X123950001Y-75551414D01*
X123950001Y-75551414D02*
X123864287Y-75508557D01*
X123864287Y-75508557D02*
X123692858Y-75508557D01*
X123692858Y-75508557D02*
X123607144Y-75551414D01*
X123607144Y-75551414D02*
X123564287Y-75637128D01*
X123564287Y-75637128D02*
X123564287Y-75722842D01*
X123564287Y-75722842D02*
X123992858Y-75808557D01*
X123178572Y-75508557D02*
X123178572Y-76108557D01*
X123178572Y-75594271D02*
X123135715Y-75551414D01*
X123135715Y-75551414D02*
X123050000Y-75508557D01*
X123050000Y-75508557D02*
X122921429Y-75508557D01*
X122921429Y-75508557D02*
X122835715Y-75551414D01*
X122835715Y-75551414D02*
X122792858Y-75637128D01*
X122792858Y-75637128D02*
X122792858Y-76108557D01*
X122407143Y-76065700D02*
X122321429Y-76108557D01*
X122321429Y-76108557D02*
X122150000Y-76108557D01*
X122150000Y-76108557D02*
X122064286Y-76065700D01*
X122064286Y-76065700D02*
X122021429Y-75979985D01*
X122021429Y-75979985D02*
X122021429Y-75937128D01*
X122021429Y-75937128D02*
X122064286Y-75851414D01*
X122064286Y-75851414D02*
X122150000Y-75808557D01*
X122150000Y-75808557D02*
X122278572Y-75808557D01*
X122278572Y-75808557D02*
X122364286Y-75765700D01*
X122364286Y-75765700D02*
X122407143Y-75679985D01*
X122407143Y-75679985D02*
X122407143Y-75637128D01*
X122407143Y-75637128D02*
X122364286Y-75551414D01*
X122364286Y-75551414D02*
X122278572Y-75508557D01*
X122278572Y-75508557D02*
X122150000Y-75508557D01*
X122150000Y-75508557D02*
X122064286Y-75551414D01*
X121292858Y-76065700D02*
X121378572Y-76108557D01*
X121378572Y-76108557D02*
X121550001Y-76108557D01*
X121550001Y-76108557D02*
X121635715Y-76065700D01*
X121635715Y-76065700D02*
X121678572Y-75979985D01*
X121678572Y-75979985D02*
X121678572Y-75637128D01*
X121678572Y-75637128D02*
X121635715Y-75551414D01*
X121635715Y-75551414D02*
X121550001Y-75508557D01*
X121550001Y-75508557D02*
X121378572Y-75508557D01*
X121378572Y-75508557D02*
X121292858Y-75551414D01*
X121292858Y-75551414D02*
X121250001Y-75637128D01*
X121250001Y-75637128D02*
X121250001Y-75722842D01*
X121250001Y-75722842D02*
X121678572Y-75808557D01*
X136614285Y-122408557D02*
X136014285Y-122408557D01*
X136014285Y-122408557D02*
X136399999Y-123308557D01*
X135285714Y-122708557D02*
X135285714Y-123308557D01*
X135499999Y-122365700D02*
X135714285Y-123008557D01*
X135714285Y-123008557D02*
X135157142Y-123008557D01*
X134642856Y-122408557D02*
X134557142Y-122408557D01*
X134557142Y-122408557D02*
X134471428Y-122451414D01*
X134471428Y-122451414D02*
X134428571Y-122494271D01*
X134428571Y-122494271D02*
X134385713Y-122579985D01*
X134385713Y-122579985D02*
X134342856Y-122751414D01*
X134342856Y-122751414D02*
X134342856Y-122965700D01*
X134342856Y-122965700D02*
X134385713Y-123137128D01*
X134385713Y-123137128D02*
X134428571Y-123222842D01*
X134428571Y-123222842D02*
X134471428Y-123265700D01*
X134471428Y-123265700D02*
X134557142Y-123308557D01*
X134557142Y-123308557D02*
X134642856Y-123308557D01*
X134642856Y-123308557D02*
X134728571Y-123265700D01*
X134728571Y-123265700D02*
X134771428Y-123222842D01*
X134771428Y-123222842D02*
X134814285Y-123137128D01*
X134814285Y-123137128D02*
X134857142Y-122965700D01*
X134857142Y-122965700D02*
X134857142Y-122751414D01*
X134857142Y-122751414D02*
X134814285Y-122579985D01*
X134814285Y-122579985D02*
X134771428Y-122494271D01*
X134771428Y-122494271D02*
X134728571Y-122451414D01*
X134728571Y-122451414D02*
X134642856Y-122408557D01*
X133785713Y-122408557D02*
X133699999Y-122408557D01*
X133699999Y-122408557D02*
X133614285Y-122451414D01*
X133614285Y-122451414D02*
X133571428Y-122494271D01*
X133571428Y-122494271D02*
X133528570Y-122579985D01*
X133528570Y-122579985D02*
X133485713Y-122751414D01*
X133485713Y-122751414D02*
X133485713Y-122965700D01*
X133485713Y-122965700D02*
X133528570Y-123137128D01*
X133528570Y-123137128D02*
X133571428Y-123222842D01*
X133571428Y-123222842D02*
X133614285Y-123265700D01*
X133614285Y-123265700D02*
X133699999Y-123308557D01*
X133699999Y-123308557D02*
X133785713Y-123308557D01*
X133785713Y-123308557D02*
X133871428Y-123265700D01*
X133871428Y-123265700D02*
X133914285Y-123222842D01*
X133914285Y-123222842D02*
X133957142Y-123137128D01*
X133957142Y-123137128D02*
X133999999Y-122965700D01*
X133999999Y-122965700D02*
X133999999Y-122751414D01*
X133999999Y-122751414D02*
X133957142Y-122579985D01*
X133957142Y-122579985D02*
X133914285Y-122494271D01*
X133914285Y-122494271D02*
X133871428Y-122451414D01*
X133871428Y-122451414D02*
X133785713Y-122408557D01*
X132457142Y-123265700D02*
X132328571Y-123308557D01*
X132328571Y-123308557D02*
X132114285Y-123308557D01*
X132114285Y-123308557D02*
X132028571Y-123265700D01*
X132028571Y-123265700D02*
X131985713Y-123222842D01*
X131985713Y-123222842D02*
X131942856Y-123137128D01*
X131942856Y-123137128D02*
X131942856Y-123051414D01*
X131942856Y-123051414D02*
X131985713Y-122965700D01*
X131985713Y-122965700D02*
X132028571Y-122922842D01*
X132028571Y-122922842D02*
X132114285Y-122879985D01*
X132114285Y-122879985D02*
X132285713Y-122837128D01*
X132285713Y-122837128D02*
X132371428Y-122794271D01*
X132371428Y-122794271D02*
X132414285Y-122751414D01*
X132414285Y-122751414D02*
X132457142Y-122665700D01*
X132457142Y-122665700D02*
X132457142Y-122579985D01*
X132457142Y-122579985D02*
X132414285Y-122494271D01*
X132414285Y-122494271D02*
X132371428Y-122451414D01*
X132371428Y-122451414D02*
X132285713Y-122408557D01*
X132285713Y-122408557D02*
X132071428Y-122408557D01*
X132071428Y-122408557D02*
X131942856Y-122451414D01*
X131557142Y-122708557D02*
X131557142Y-123608557D01*
X131557142Y-122751414D02*
X131471428Y-122708557D01*
X131471428Y-122708557D02*
X131299999Y-122708557D01*
X131299999Y-122708557D02*
X131214285Y-122751414D01*
X131214285Y-122751414D02*
X131171428Y-122794271D01*
X131171428Y-122794271D02*
X131128570Y-122879985D01*
X131128570Y-122879985D02*
X131128570Y-123137128D01*
X131128570Y-123137128D02*
X131171428Y-123222842D01*
X131171428Y-123222842D02*
X131214285Y-123265700D01*
X131214285Y-123265700D02*
X131299999Y-123308557D01*
X131299999Y-123308557D02*
X131471428Y-123308557D01*
X131471428Y-123308557D02*
X131557142Y-123265700D01*
X130399999Y-123265700D02*
X130485713Y-123308557D01*
X130485713Y-123308557D02*
X130657142Y-123308557D01*
X130657142Y-123308557D02*
X130742856Y-123265700D01*
X130742856Y-123265700D02*
X130785713Y-123179985D01*
X130785713Y-123179985D02*
X130785713Y-122837128D01*
X130785713Y-122837128D02*
X130742856Y-122751414D01*
X130742856Y-122751414D02*
X130657142Y-122708557D01*
X130657142Y-122708557D02*
X130485713Y-122708557D01*
X130485713Y-122708557D02*
X130399999Y-122751414D01*
X130399999Y-122751414D02*
X130357142Y-122837128D01*
X130357142Y-122837128D02*
X130357142Y-122922842D01*
X130357142Y-122922842D02*
X130785713Y-123008557D01*
X129585713Y-123265700D02*
X129671427Y-123308557D01*
X129671427Y-123308557D02*
X129842855Y-123308557D01*
X129842855Y-123308557D02*
X129928570Y-123265700D01*
X129928570Y-123265700D02*
X129971427Y-123222842D01*
X129971427Y-123222842D02*
X130014284Y-123137128D01*
X130014284Y-123137128D02*
X130014284Y-122879985D01*
X130014284Y-122879985D02*
X129971427Y-122794271D01*
X129971427Y-122794271D02*
X129928570Y-122751414D01*
X129928570Y-122751414D02*
X129842855Y-122708557D01*
X129842855Y-122708557D02*
X129671427Y-122708557D01*
X129671427Y-122708557D02*
X129585713Y-122751414D01*
X129199998Y-123308557D02*
X129199998Y-122708557D01*
X129199998Y-122408557D02*
X129242855Y-122451414D01*
X129242855Y-122451414D02*
X129199998Y-122494271D01*
X129199998Y-122494271D02*
X129157141Y-122451414D01*
X129157141Y-122451414D02*
X129199998Y-122408557D01*
X129199998Y-122408557D02*
X129199998Y-122494271D01*
X128771427Y-123308557D02*
X128771427Y-122708557D01*
X128771427Y-122794271D02*
X128728570Y-122751414D01*
X128728570Y-122751414D02*
X128642855Y-122708557D01*
X128642855Y-122708557D02*
X128514284Y-122708557D01*
X128514284Y-122708557D02*
X128428570Y-122751414D01*
X128428570Y-122751414D02*
X128385713Y-122837128D01*
X128385713Y-122837128D02*
X128385713Y-123308557D01*
X128385713Y-122837128D02*
X128342855Y-122751414D01*
X128342855Y-122751414D02*
X128257141Y-122708557D01*
X128257141Y-122708557D02*
X128128570Y-122708557D01*
X128128570Y-122708557D02*
X128042855Y-122751414D01*
X128042855Y-122751414D02*
X127999998Y-122837128D01*
X127999998Y-122837128D02*
X127999998Y-123308557D01*
X127228570Y-123265700D02*
X127314284Y-123308557D01*
X127314284Y-123308557D02*
X127485713Y-123308557D01*
X127485713Y-123308557D02*
X127571427Y-123265700D01*
X127571427Y-123265700D02*
X127614284Y-123179985D01*
X127614284Y-123179985D02*
X127614284Y-122837128D01*
X127614284Y-122837128D02*
X127571427Y-122751414D01*
X127571427Y-122751414D02*
X127485713Y-122708557D01*
X127485713Y-122708557D02*
X127314284Y-122708557D01*
X127314284Y-122708557D02*
X127228570Y-122751414D01*
X127228570Y-122751414D02*
X127185713Y-122837128D01*
X127185713Y-122837128D02*
X127185713Y-122922842D01*
X127185713Y-122922842D02*
X127614284Y-123008557D01*
X126799998Y-122708557D02*
X126799998Y-123308557D01*
X126799998Y-122794271D02*
X126757141Y-122751414D01*
X126757141Y-122751414D02*
X126671426Y-122708557D01*
X126671426Y-122708557D02*
X126542855Y-122708557D01*
X126542855Y-122708557D02*
X126457141Y-122751414D01*
X126457141Y-122751414D02*
X126414284Y-122837128D01*
X126414284Y-122837128D02*
X126414284Y-123308557D01*
X125428569Y-122408557D02*
X124914284Y-122408557D01*
X125171426Y-123308557D02*
X125171426Y-122408557D01*
X124614284Y-123308557D02*
X124614284Y-122708557D01*
X124614284Y-122408557D02*
X124657141Y-122451414D01*
X124657141Y-122451414D02*
X124614284Y-122494271D01*
X124614284Y-122494271D02*
X124571427Y-122451414D01*
X124571427Y-122451414D02*
X124614284Y-122408557D01*
X124614284Y-122408557D02*
X124614284Y-122494271D01*
X124057141Y-123308557D02*
X124142856Y-123265700D01*
X124142856Y-123265700D02*
X124185713Y-123179985D01*
X124185713Y-123179985D02*
X124185713Y-122408557D01*
X123371427Y-123265700D02*
X123457141Y-123308557D01*
X123457141Y-123308557D02*
X123628570Y-123308557D01*
X123628570Y-123308557D02*
X123714284Y-123265700D01*
X123714284Y-123265700D02*
X123757141Y-123179985D01*
X123757141Y-123179985D02*
X123757141Y-122837128D01*
X123757141Y-122837128D02*
X123714284Y-122751414D01*
X123714284Y-122751414D02*
X123628570Y-122708557D01*
X123628570Y-122708557D02*
X123457141Y-122708557D01*
X123457141Y-122708557D02*
X123371427Y-122751414D01*
X123371427Y-122751414D02*
X123328570Y-122837128D01*
X123328570Y-122837128D02*
X123328570Y-122922842D01*
X123328570Y-122922842D02*
X123757141Y-123008557D01*
X122342855Y-122708557D02*
X122128569Y-123308557D01*
X122128569Y-123308557D02*
X121914284Y-122708557D01*
X121399998Y-122408557D02*
X121314284Y-122408557D01*
X121314284Y-122408557D02*
X121228570Y-122451414D01*
X121228570Y-122451414D02*
X121185713Y-122494271D01*
X121185713Y-122494271D02*
X121142855Y-122579985D01*
X121142855Y-122579985D02*
X121099998Y-122751414D01*
X121099998Y-122751414D02*
X121099998Y-122965700D01*
X121099998Y-122965700D02*
X121142855Y-123137128D01*
X121142855Y-123137128D02*
X121185713Y-123222842D01*
X121185713Y-123222842D02*
X121228570Y-123265700D01*
X121228570Y-123265700D02*
X121314284Y-123308557D01*
X121314284Y-123308557D02*
X121399998Y-123308557D01*
X121399998Y-123308557D02*
X121485713Y-123265700D01*
X121485713Y-123265700D02*
X121528570Y-123222842D01*
X121528570Y-123222842D02*
X121571427Y-123137128D01*
X121571427Y-123137128D02*
X121614284Y-122965700D01*
X121614284Y-122965700D02*
X121614284Y-122751414D01*
X121614284Y-122751414D02*
X121571427Y-122579985D01*
X121571427Y-122579985D02*
X121528570Y-122494271D01*
X121528570Y-122494271D02*
X121485713Y-122451414D01*
X121485713Y-122451414D02*
X121399998Y-122408557D01*
X120714284Y-123222842D02*
X120671427Y-123265700D01*
X120671427Y-123265700D02*
X120714284Y-123308557D01*
X120714284Y-123308557D02*
X120757141Y-123265700D01*
X120757141Y-123265700D02*
X120714284Y-123222842D01*
X120714284Y-123222842D02*
X120714284Y-123308557D01*
X119814284Y-123308557D02*
X120328570Y-123308557D01*
X120071427Y-123308557D02*
X120071427Y-122408557D01*
X120071427Y-122408557D02*
X120157141Y-122537128D01*
X120157141Y-122537128D02*
X120242856Y-122622842D01*
X120242856Y-122622842D02*
X120328570Y-122665700D01*
X118142856Y-122408557D02*
X117542856Y-122408557D01*
X117542856Y-122408557D02*
X117928570Y-123308557D01*
X116814285Y-122708557D02*
X116814285Y-123308557D01*
X117028570Y-122365700D02*
X117242856Y-123008557D01*
X117242856Y-123008557D02*
X116685713Y-123008557D01*
X116428570Y-123308557D02*
X115957142Y-122708557D01*
X116428570Y-122708557D02*
X115957142Y-123308557D01*
X115699999Y-122408557D02*
X115142856Y-122408557D01*
X115142856Y-122408557D02*
X115442856Y-122751414D01*
X115442856Y-122751414D02*
X115314285Y-122751414D01*
X115314285Y-122751414D02*
X115228571Y-122794271D01*
X115228571Y-122794271D02*
X115185713Y-122837128D01*
X115185713Y-122837128D02*
X115142856Y-122922842D01*
X115142856Y-122922842D02*
X115142856Y-123137128D01*
X115142856Y-123137128D02*
X115185713Y-123222842D01*
X115185713Y-123222842D02*
X115228571Y-123265700D01*
X115228571Y-123265700D02*
X115314285Y-123308557D01*
X115314285Y-123308557D02*
X115571428Y-123308557D01*
X115571428Y-123308557D02*
X115657142Y-123265700D01*
X115657142Y-123265700D02*
X115699999Y-123222842D01*
X114842856Y-122408557D02*
X114242856Y-122408557D01*
X114242856Y-122408557D02*
X114628570Y-123308557D01*
X113985713Y-122408557D02*
X113385713Y-122408557D01*
X113385713Y-122408557D02*
X113771427Y-123308557D01*
X131385715Y-123808556D02*
X131300001Y-123808556D01*
X131300001Y-123808556D02*
X131214287Y-123851413D01*
X131214287Y-123851413D02*
X131171430Y-123894270D01*
X131171430Y-123894270D02*
X131128572Y-123979984D01*
X131128572Y-123979984D02*
X131085715Y-124151413D01*
X131085715Y-124151413D02*
X131085715Y-124365699D01*
X131085715Y-124365699D02*
X131128572Y-124537127D01*
X131128572Y-124537127D02*
X131171430Y-124622841D01*
X131171430Y-124622841D02*
X131214287Y-124665699D01*
X131214287Y-124665699D02*
X131300001Y-124708556D01*
X131300001Y-124708556D02*
X131385715Y-124708556D01*
X131385715Y-124708556D02*
X131471430Y-124665699D01*
X131471430Y-124665699D02*
X131514287Y-124622841D01*
X131514287Y-124622841D02*
X131557144Y-124537127D01*
X131557144Y-124537127D02*
X131600001Y-124365699D01*
X131600001Y-124365699D02*
X131600001Y-124151413D01*
X131600001Y-124151413D02*
X131557144Y-123979984D01*
X131557144Y-123979984D02*
X131514287Y-123894270D01*
X131514287Y-123894270D02*
X131471430Y-123851413D01*
X131471430Y-123851413D02*
X131385715Y-123808556D01*
X130271429Y-123808556D02*
X130700001Y-123808556D01*
X130700001Y-123808556D02*
X130742858Y-124237127D01*
X130742858Y-124237127D02*
X130700001Y-124194270D01*
X130700001Y-124194270D02*
X130614287Y-124151413D01*
X130614287Y-124151413D02*
X130400001Y-124151413D01*
X130400001Y-124151413D02*
X130314287Y-124194270D01*
X130314287Y-124194270D02*
X130271429Y-124237127D01*
X130271429Y-124237127D02*
X130228572Y-124322841D01*
X130228572Y-124322841D02*
X130228572Y-124537127D01*
X130228572Y-124537127D02*
X130271429Y-124622841D01*
X130271429Y-124622841D02*
X130314287Y-124665699D01*
X130314287Y-124665699D02*
X130400001Y-124708556D01*
X130400001Y-124708556D02*
X130614287Y-124708556D01*
X130614287Y-124708556D02*
X130700001Y-124665699D01*
X130700001Y-124665699D02*
X130742858Y-124622841D01*
X130057144Y-124794270D02*
X129371429Y-124794270D01*
X129285715Y-124108556D02*
X128942858Y-124108556D01*
X129157144Y-124708556D02*
X129157144Y-123937127D01*
X129157144Y-123937127D02*
X129114287Y-123851413D01*
X129114287Y-123851413D02*
X129028572Y-123808556D01*
X129028572Y-123808556D02*
X128942858Y-123808556D01*
X128514286Y-124708556D02*
X128600001Y-124665699D01*
X128600001Y-124665699D02*
X128642858Y-124579984D01*
X128642858Y-124579984D02*
X128642858Y-123808556D01*
X128171429Y-124708556D02*
X128171429Y-124108556D01*
X128171429Y-123808556D02*
X128214286Y-123851413D01*
X128214286Y-123851413D02*
X128171429Y-123894270D01*
X128171429Y-123894270D02*
X128128572Y-123851413D01*
X128128572Y-123851413D02*
X128171429Y-123808556D01*
X128171429Y-123808556D02*
X128171429Y-123894270D01*
X127742858Y-124108556D02*
X127742858Y-125008556D01*
X127742858Y-124151413D02*
X127657144Y-124108556D01*
X127657144Y-124108556D02*
X127485715Y-124108556D01*
X127485715Y-124108556D02*
X127400001Y-124151413D01*
X127400001Y-124151413D02*
X127357144Y-124194270D01*
X127357144Y-124194270D02*
X127314286Y-124279984D01*
X127314286Y-124279984D02*
X127314286Y-124537127D01*
X127314286Y-124537127D02*
X127357144Y-124622841D01*
X127357144Y-124622841D02*
X127400001Y-124665699D01*
X127400001Y-124665699D02*
X127485715Y-124708556D01*
X127485715Y-124708556D02*
X127657144Y-124708556D01*
X127657144Y-124708556D02*
X127742858Y-124665699D01*
X127057143Y-124108556D02*
X126714286Y-124108556D01*
X126928572Y-124708556D02*
X126928572Y-123937127D01*
X126928572Y-123937127D02*
X126885715Y-123851413D01*
X126885715Y-123851413D02*
X126800000Y-123808556D01*
X126800000Y-123808556D02*
X126714286Y-123808556D01*
X126285714Y-124708556D02*
X126371429Y-124665699D01*
X126371429Y-124665699D02*
X126414286Y-124579984D01*
X126414286Y-124579984D02*
X126414286Y-123808556D01*
X125814285Y-124708556D02*
X125900000Y-124665699D01*
X125900000Y-124665699D02*
X125942857Y-124622841D01*
X125942857Y-124622841D02*
X125985714Y-124537127D01*
X125985714Y-124537127D02*
X125985714Y-124279984D01*
X125985714Y-124279984D02*
X125942857Y-124194270D01*
X125942857Y-124194270D02*
X125900000Y-124151413D01*
X125900000Y-124151413D02*
X125814285Y-124108556D01*
X125814285Y-124108556D02*
X125685714Y-124108556D01*
X125685714Y-124108556D02*
X125600000Y-124151413D01*
X125600000Y-124151413D02*
X125557143Y-124194270D01*
X125557143Y-124194270D02*
X125514285Y-124279984D01*
X125514285Y-124279984D02*
X125514285Y-124537127D01*
X125514285Y-124537127D02*
X125557143Y-124622841D01*
X125557143Y-124622841D02*
X125600000Y-124665699D01*
X125600000Y-124665699D02*
X125685714Y-124708556D01*
X125685714Y-124708556D02*
X125814285Y-124708556D01*
X125128571Y-124108556D02*
X125128571Y-125008556D01*
X125128571Y-124151413D02*
X125042857Y-124108556D01*
X125042857Y-124108556D02*
X124871428Y-124108556D01*
X124871428Y-124108556D02*
X124785714Y-124151413D01*
X124785714Y-124151413D02*
X124742857Y-124194270D01*
X124742857Y-124194270D02*
X124699999Y-124279984D01*
X124699999Y-124279984D02*
X124699999Y-124537127D01*
X124699999Y-124537127D02*
X124742857Y-124622841D01*
X124742857Y-124622841D02*
X124785714Y-124665699D01*
X124785714Y-124665699D02*
X124871428Y-124708556D01*
X124871428Y-124708556D02*
X125042857Y-124708556D01*
X125042857Y-124708556D02*
X125128571Y-124665699D01*
X124357142Y-124665699D02*
X124271428Y-124708556D01*
X124271428Y-124708556D02*
X124099999Y-124708556D01*
X124099999Y-124708556D02*
X124014285Y-124665699D01*
X124014285Y-124665699D02*
X123971428Y-124579984D01*
X123971428Y-124579984D02*
X123971428Y-124537127D01*
X123971428Y-124537127D02*
X124014285Y-124451413D01*
X124014285Y-124451413D02*
X124099999Y-124408556D01*
X124099999Y-124408556D02*
X124228571Y-124408556D01*
X124228571Y-124408556D02*
X124314285Y-124365699D01*
X124314285Y-124365699D02*
X124357142Y-124279984D01*
X124357142Y-124279984D02*
X124357142Y-124237127D01*
X124357142Y-124237127D02*
X124314285Y-124151413D01*
X124314285Y-124151413D02*
X124228571Y-124108556D01*
X124228571Y-124108556D02*
X124099999Y-124108556D01*
X124099999Y-124108556D02*
X124014285Y-124151413D01*
X123800000Y-124794270D02*
X123114285Y-124794270D01*
X122771428Y-124708556D02*
X122857143Y-124665699D01*
X122857143Y-124665699D02*
X122900000Y-124579984D01*
X122900000Y-124579984D02*
X122900000Y-123808556D01*
X122042857Y-124708556D02*
X122042857Y-124237127D01*
X122042857Y-124237127D02*
X122085714Y-124151413D01*
X122085714Y-124151413D02*
X122171428Y-124108556D01*
X122171428Y-124108556D02*
X122342857Y-124108556D01*
X122342857Y-124108556D02*
X122428571Y-124151413D01*
X122042857Y-124665699D02*
X122128571Y-124708556D01*
X122128571Y-124708556D02*
X122342857Y-124708556D01*
X122342857Y-124708556D02*
X122428571Y-124665699D01*
X122428571Y-124665699D02*
X122471428Y-124579984D01*
X122471428Y-124579984D02*
X122471428Y-124494270D01*
X122471428Y-124494270D02*
X122428571Y-124408556D01*
X122428571Y-124408556D02*
X122342857Y-124365699D01*
X122342857Y-124365699D02*
X122128571Y-124365699D01*
X122128571Y-124365699D02*
X122042857Y-124322841D01*
X121742856Y-124108556D02*
X121399999Y-124108556D01*
X121614285Y-123808556D02*
X121614285Y-124579984D01*
X121614285Y-124579984D02*
X121571428Y-124665699D01*
X121571428Y-124665699D02*
X121485713Y-124708556D01*
X121485713Y-124708556D02*
X121399999Y-124708556D01*
X120714285Y-124665699D02*
X120799999Y-124708556D01*
X120799999Y-124708556D02*
X120971427Y-124708556D01*
X120971427Y-124708556D02*
X121057142Y-124665699D01*
X121057142Y-124665699D02*
X121099999Y-124622841D01*
X121099999Y-124622841D02*
X121142856Y-124537127D01*
X121142856Y-124537127D02*
X121142856Y-124279984D01*
X121142856Y-124279984D02*
X121099999Y-124194270D01*
X121099999Y-124194270D02*
X121057142Y-124151413D01*
X121057142Y-124151413D02*
X120971427Y-124108556D01*
X120971427Y-124108556D02*
X120799999Y-124108556D01*
X120799999Y-124108556D02*
X120714285Y-124151413D01*
X120328570Y-124708556D02*
X120328570Y-123808556D01*
X119942856Y-124708556D02*
X119942856Y-124237127D01*
X119942856Y-124237127D02*
X119985713Y-124151413D01*
X119985713Y-124151413D02*
X120071427Y-124108556D01*
X120071427Y-124108556D02*
X120199998Y-124108556D01*
X120199998Y-124108556D02*
X120285713Y-124151413D01*
X120285713Y-124151413D02*
X120328570Y-124194270D01*
X119171427Y-124665699D02*
X119257141Y-124708556D01*
X119257141Y-124708556D02*
X119428570Y-124708556D01*
X119428570Y-124708556D02*
X119514284Y-124665699D01*
X119514284Y-124665699D02*
X119557141Y-124579984D01*
X119557141Y-124579984D02*
X119557141Y-124237127D01*
X119557141Y-124237127D02*
X119514284Y-124151413D01*
X119514284Y-124151413D02*
X119428570Y-124108556D01*
X119428570Y-124108556D02*
X119257141Y-124108556D01*
X119257141Y-124108556D02*
X119171427Y-124151413D01*
X119171427Y-124151413D02*
X119128570Y-124237127D01*
X119128570Y-124237127D02*
X119128570Y-124322841D01*
X119128570Y-124322841D02*
X119557141Y-124408556D01*
X118785712Y-124665699D02*
X118699998Y-124708556D01*
X118699998Y-124708556D02*
X118528569Y-124708556D01*
X118528569Y-124708556D02*
X118442855Y-124665699D01*
X118442855Y-124665699D02*
X118399998Y-124579984D01*
X118399998Y-124579984D02*
X118399998Y-124537127D01*
X118399998Y-124537127D02*
X118442855Y-124451413D01*
X118442855Y-124451413D02*
X118528569Y-124408556D01*
X118528569Y-124408556D02*
X118657141Y-124408556D01*
X118657141Y-124408556D02*
X118742855Y-124365699D01*
X118742855Y-124365699D02*
X118785712Y-124279984D01*
X118785712Y-124279984D02*
X118785712Y-124237127D01*
X118785712Y-124237127D02*
X118742855Y-124151413D01*
X118742855Y-124151413D02*
X118657141Y-124108556D01*
X118657141Y-124108556D02*
X118528569Y-124108556D01*
X118528569Y-124108556D02*
X118442855Y-124151413D01*
X128707142Y-126108557D02*
X128707142Y-125208557D01*
X128707142Y-125208557D02*
X128407142Y-125851414D01*
X128407142Y-125851414D02*
X128107142Y-125208557D01*
X128107142Y-125208557D02*
X128107142Y-126108557D01*
X127678571Y-126108557D02*
X127678571Y-125208557D01*
X127378571Y-125208557D02*
X126864286Y-125208557D01*
X127121428Y-126108557D02*
X127121428Y-125208557D01*
X125450000Y-126108557D02*
X125878572Y-126108557D01*
X125878572Y-126108557D02*
X125878572Y-125208557D01*
X125150001Y-126108557D02*
X125150001Y-125508557D01*
X125150001Y-125208557D02*
X125192858Y-125251414D01*
X125192858Y-125251414D02*
X125150001Y-125294271D01*
X125150001Y-125294271D02*
X125107144Y-125251414D01*
X125107144Y-125251414D02*
X125150001Y-125208557D01*
X125150001Y-125208557D02*
X125150001Y-125294271D01*
X124335716Y-126065700D02*
X124421430Y-126108557D01*
X124421430Y-126108557D02*
X124592858Y-126108557D01*
X124592858Y-126108557D02*
X124678573Y-126065700D01*
X124678573Y-126065700D02*
X124721430Y-126022842D01*
X124721430Y-126022842D02*
X124764287Y-125937128D01*
X124764287Y-125937128D02*
X124764287Y-125679985D01*
X124764287Y-125679985D02*
X124721430Y-125594271D01*
X124721430Y-125594271D02*
X124678573Y-125551414D01*
X124678573Y-125551414D02*
X124592858Y-125508557D01*
X124592858Y-125508557D02*
X124421430Y-125508557D01*
X124421430Y-125508557D02*
X124335716Y-125551414D01*
X123607144Y-126065700D02*
X123692858Y-126108557D01*
X123692858Y-126108557D02*
X123864287Y-126108557D01*
X123864287Y-126108557D02*
X123950001Y-126065700D01*
X123950001Y-126065700D02*
X123992858Y-125979985D01*
X123992858Y-125979985D02*
X123992858Y-125637128D01*
X123992858Y-125637128D02*
X123950001Y-125551414D01*
X123950001Y-125551414D02*
X123864287Y-125508557D01*
X123864287Y-125508557D02*
X123692858Y-125508557D01*
X123692858Y-125508557D02*
X123607144Y-125551414D01*
X123607144Y-125551414D02*
X123564287Y-125637128D01*
X123564287Y-125637128D02*
X123564287Y-125722842D01*
X123564287Y-125722842D02*
X123992858Y-125808557D01*
X123178572Y-125508557D02*
X123178572Y-126108557D01*
X123178572Y-125594271D02*
X123135715Y-125551414D01*
X123135715Y-125551414D02*
X123050000Y-125508557D01*
X123050000Y-125508557D02*
X122921429Y-125508557D01*
X122921429Y-125508557D02*
X122835715Y-125551414D01*
X122835715Y-125551414D02*
X122792858Y-125637128D01*
X122792858Y-125637128D02*
X122792858Y-126108557D01*
X122407143Y-126065700D02*
X122321429Y-126108557D01*
X122321429Y-126108557D02*
X122150000Y-126108557D01*
X122150000Y-126108557D02*
X122064286Y-126065700D01*
X122064286Y-126065700D02*
X122021429Y-125979985D01*
X122021429Y-125979985D02*
X122021429Y-125937128D01*
X122021429Y-125937128D02*
X122064286Y-125851414D01*
X122064286Y-125851414D02*
X122150000Y-125808557D01*
X122150000Y-125808557D02*
X122278572Y-125808557D01*
X122278572Y-125808557D02*
X122364286Y-125765700D01*
X122364286Y-125765700D02*
X122407143Y-125679985D01*
X122407143Y-125679985D02*
X122407143Y-125637128D01*
X122407143Y-125637128D02*
X122364286Y-125551414D01*
X122364286Y-125551414D02*
X122278572Y-125508557D01*
X122278572Y-125508557D02*
X122150000Y-125508557D01*
X122150000Y-125508557D02*
X122064286Y-125551414D01*
X121292858Y-126065700D02*
X121378572Y-126108557D01*
X121378572Y-126108557D02*
X121550001Y-126108557D01*
X121550001Y-126108557D02*
X121635715Y-126065700D01*
X121635715Y-126065700D02*
X121678572Y-125979985D01*
X121678572Y-125979985D02*
X121678572Y-125637128D01*
X121678572Y-125637128D02*
X121635715Y-125551414D01*
X121635715Y-125551414D02*
X121550001Y-125508557D01*
X121550001Y-125508557D02*
X121378572Y-125508557D01*
X121378572Y-125508557D02*
X121292858Y-125551414D01*
X121292858Y-125551414D02*
X121250001Y-125637128D01*
X121250001Y-125637128D02*
X121250001Y-125722842D01*
X121250001Y-125722842D02*
X121678572Y-125808557D01*
M02*
