%TF.GenerationSoftware,KiCad,Pcbnew,10.0.3*%
%TF.CreationDate,2026-09-17T15:36:10+09:00*%
%TF.ProjectId,74x273_tile,37347832-3733-45f7-9469-6c652e6b6963,0.1*%
%TF.SameCoordinates,Original*%
%TF.FileFunction,Legend,Top*%
%TF.FilePolarity,Positive*%
%FSLAX46Y46*%
G04 Gerber Fmt 4.6, Leading zero omitted, Abs format (unit mm)*
G04 Created by KiCad (PCBNEW 10.0.3) date 2026-09-17 15:36:10*
%MOMM*%
%LPD*%
G01*
G04 APERTURE LIST*
%ADD10C,0.150000*%
%ADD11C,0.120000*%
G04 APERTURE END LIST*
D10*
X39041541Y-22562295D02*
X39193922Y-22562295D01*
X39193922Y-22562295D02*
X39270112Y-22600390D01*
X39270112Y-22600390D02*
X39346303Y-22676580D01*
X39346303Y-22676580D02*
X39384398Y-22828961D01*
X39384398Y-22828961D02*
X39384398Y-23095628D01*
X39384398Y-23095628D02*
X39346303Y-23248009D01*
X39346303Y-23248009D02*
X39270112Y-23324200D01*
X39270112Y-23324200D02*
X39193922Y-23362295D01*
X39193922Y-23362295D02*
X39041541Y-23362295D01*
X39041541Y-23362295D02*
X38965350Y-23324200D01*
X38965350Y-23324200D02*
X38889160Y-23248009D01*
X38889160Y-23248009D02*
X38851064Y-23095628D01*
X38851064Y-23095628D02*
X38851064Y-22828961D01*
X38851064Y-22828961D02*
X38889160Y-22676580D01*
X38889160Y-22676580D02*
X38965350Y-22600390D01*
X38965350Y-22600390D02*
X39041541Y-22562295D01*
X40070112Y-23324200D02*
X39993921Y-23362295D01*
X39993921Y-23362295D02*
X39841540Y-23362295D01*
X39841540Y-23362295D02*
X39765350Y-23324200D01*
X39765350Y-23324200D02*
X39727255Y-23286104D01*
X39727255Y-23286104D02*
X39689159Y-23209914D01*
X39689159Y-23209914D02*
X39689159Y-22981342D01*
X39689159Y-22981342D02*
X39727255Y-22905152D01*
X39727255Y-22905152D02*
X39765350Y-22867057D01*
X39765350Y-22867057D02*
X39841540Y-22828961D01*
X39841540Y-22828961D02*
X39993921Y-22828961D01*
X39993921Y-22828961D02*
X40070112Y-22867057D01*
X40298683Y-22828961D02*
X40603445Y-22828961D01*
X40412969Y-22562295D02*
X40412969Y-23248009D01*
X40412969Y-23248009D02*
X40451064Y-23324200D01*
X40451064Y-23324200D02*
X40527254Y-23362295D01*
X40527254Y-23362295D02*
X40603445Y-23362295D01*
X41212969Y-23362295D02*
X41212969Y-22943247D01*
X41212969Y-22943247D02*
X41174874Y-22867057D01*
X41174874Y-22867057D02*
X41098683Y-22828961D01*
X41098683Y-22828961D02*
X40946302Y-22828961D01*
X40946302Y-22828961D02*
X40870112Y-22867057D01*
X41212969Y-23324200D02*
X41136778Y-23362295D01*
X41136778Y-23362295D02*
X40946302Y-23362295D01*
X40946302Y-23362295D02*
X40870112Y-23324200D01*
X40870112Y-23324200D02*
X40832016Y-23248009D01*
X40832016Y-23248009D02*
X40832016Y-23171819D01*
X40832016Y-23171819D02*
X40870112Y-23095628D01*
X40870112Y-23095628D02*
X40946302Y-23057533D01*
X40946302Y-23057533D02*
X41136778Y-23057533D01*
X41136778Y-23057533D02*
X41212969Y-23019438D01*
X41708207Y-23362295D02*
X41632017Y-23324200D01*
X41632017Y-23324200D02*
X41593922Y-23248009D01*
X41593922Y-23248009D02*
X41593922Y-22562295D01*
X42622494Y-23362295D02*
X42622494Y-22562295D01*
X42622494Y-22562295D02*
X42812970Y-22562295D01*
X42812970Y-22562295D02*
X42927256Y-22600390D01*
X42927256Y-22600390D02*
X43003446Y-22676580D01*
X43003446Y-22676580D02*
X43041541Y-22752771D01*
X43041541Y-22752771D02*
X43079637Y-22905152D01*
X43079637Y-22905152D02*
X43079637Y-23019438D01*
X43079637Y-23019438D02*
X43041541Y-23171819D01*
X43041541Y-23171819D02*
X43003446Y-23248009D01*
X43003446Y-23248009D02*
X42927256Y-23324200D01*
X42927256Y-23324200D02*
X42812970Y-23362295D01*
X42812970Y-23362295D02*
X42622494Y-23362295D01*
X43422494Y-23057533D02*
X44032018Y-23057533D01*
X44298684Y-22828961D02*
X44603446Y-22828961D01*
X44412970Y-22562295D02*
X44412970Y-23248009D01*
X44412970Y-23248009D02*
X44451065Y-23324200D01*
X44451065Y-23324200D02*
X44527255Y-23362295D01*
X44527255Y-23362295D02*
X44603446Y-23362295D01*
X44793922Y-22828961D02*
X44984398Y-23362295D01*
X45174875Y-22828961D02*
X44984398Y-23362295D01*
X44984398Y-23362295D02*
X44908208Y-23552771D01*
X44908208Y-23552771D02*
X44870113Y-23590866D01*
X44870113Y-23590866D02*
X44793922Y-23628961D01*
X45479637Y-22828961D02*
X45479637Y-23628961D01*
X45479637Y-22867057D02*
X45555827Y-22828961D01*
X45555827Y-22828961D02*
X45708208Y-22828961D01*
X45708208Y-22828961D02*
X45784399Y-22867057D01*
X45784399Y-22867057D02*
X45822494Y-22905152D01*
X45822494Y-22905152D02*
X45860589Y-22981342D01*
X45860589Y-22981342D02*
X45860589Y-23209914D01*
X45860589Y-23209914D02*
X45822494Y-23286104D01*
X45822494Y-23286104D02*
X45784399Y-23324200D01*
X45784399Y-23324200D02*
X45708208Y-23362295D01*
X45708208Y-23362295D02*
X45555827Y-23362295D01*
X45555827Y-23362295D02*
X45479637Y-23324200D01*
X46508209Y-23324200D02*
X46432018Y-23362295D01*
X46432018Y-23362295D02*
X46279637Y-23362295D01*
X46279637Y-23362295D02*
X46203447Y-23324200D01*
X46203447Y-23324200D02*
X46165351Y-23248009D01*
X46165351Y-23248009D02*
X46165351Y-22943247D01*
X46165351Y-22943247D02*
X46203447Y-22867057D01*
X46203447Y-22867057D02*
X46279637Y-22828961D01*
X46279637Y-22828961D02*
X46432018Y-22828961D01*
X46432018Y-22828961D02*
X46508209Y-22867057D01*
X46508209Y-22867057D02*
X46546304Y-22943247D01*
X46546304Y-22943247D02*
X46546304Y-23019438D01*
X46546304Y-23019438D02*
X46165351Y-23095628D01*
X38774874Y-24028961D02*
X39079636Y-24028961D01*
X38889160Y-24562295D02*
X38889160Y-23876580D01*
X38889160Y-23876580D02*
X38927255Y-23800390D01*
X38927255Y-23800390D02*
X39003445Y-23762295D01*
X39003445Y-23762295D02*
X39079636Y-23762295D01*
X39460588Y-24562295D02*
X39384398Y-24524200D01*
X39384398Y-24524200D02*
X39346303Y-24448009D01*
X39346303Y-24448009D02*
X39346303Y-23762295D01*
X39765351Y-24562295D02*
X39765351Y-24028961D01*
X39765351Y-23762295D02*
X39727255Y-23800390D01*
X39727255Y-23800390D02*
X39765351Y-23838485D01*
X39765351Y-23838485D02*
X39803446Y-23800390D01*
X39803446Y-23800390D02*
X39765351Y-23762295D01*
X39765351Y-23762295D02*
X39765351Y-23838485D01*
X40146303Y-24028961D02*
X40146303Y-24828961D01*
X40146303Y-24067057D02*
X40222493Y-24028961D01*
X40222493Y-24028961D02*
X40374874Y-24028961D01*
X40374874Y-24028961D02*
X40451065Y-24067057D01*
X40451065Y-24067057D02*
X40489160Y-24105152D01*
X40489160Y-24105152D02*
X40527255Y-24181342D01*
X40527255Y-24181342D02*
X40527255Y-24409914D01*
X40527255Y-24409914D02*
X40489160Y-24486104D01*
X40489160Y-24486104D02*
X40451065Y-24524200D01*
X40451065Y-24524200D02*
X40374874Y-24562295D01*
X40374874Y-24562295D02*
X40222493Y-24562295D01*
X40222493Y-24562295D02*
X40146303Y-24524200D01*
X40870113Y-24257533D02*
X41479637Y-24257533D01*
X41746303Y-24028961D02*
X42051065Y-24028961D01*
X41860589Y-24562295D02*
X41860589Y-23876580D01*
X41860589Y-23876580D02*
X41898684Y-23800390D01*
X41898684Y-23800390D02*
X41974874Y-23762295D01*
X41974874Y-23762295D02*
X42051065Y-23762295D01*
X42432017Y-24562295D02*
X42355827Y-24524200D01*
X42355827Y-24524200D02*
X42317732Y-24448009D01*
X42317732Y-24448009D02*
X42317732Y-23762295D01*
X42851065Y-24562295D02*
X42774875Y-24524200D01*
X42774875Y-24524200D02*
X42736780Y-24486104D01*
X42736780Y-24486104D02*
X42698684Y-24409914D01*
X42698684Y-24409914D02*
X42698684Y-24181342D01*
X42698684Y-24181342D02*
X42736780Y-24105152D01*
X42736780Y-24105152D02*
X42774875Y-24067057D01*
X42774875Y-24067057D02*
X42851065Y-24028961D01*
X42851065Y-24028961D02*
X42965351Y-24028961D01*
X42965351Y-24028961D02*
X43041542Y-24067057D01*
X43041542Y-24067057D02*
X43079637Y-24105152D01*
X43079637Y-24105152D02*
X43117732Y-24181342D01*
X43117732Y-24181342D02*
X43117732Y-24409914D01*
X43117732Y-24409914D02*
X43079637Y-24486104D01*
X43079637Y-24486104D02*
X43041542Y-24524200D01*
X43041542Y-24524200D02*
X42965351Y-24562295D01*
X42965351Y-24562295D02*
X42851065Y-24562295D01*
X43460590Y-24028961D02*
X43460590Y-24828961D01*
X43460590Y-24067057D02*
X43536780Y-24028961D01*
X43536780Y-24028961D02*
X43689161Y-24028961D01*
X43689161Y-24028961D02*
X43765352Y-24067057D01*
X43765352Y-24067057D02*
X43803447Y-24105152D01*
X43803447Y-24105152D02*
X43841542Y-24181342D01*
X43841542Y-24181342D02*
X43841542Y-24409914D01*
X43841542Y-24409914D02*
X43803447Y-24486104D01*
X43803447Y-24486104D02*
X43765352Y-24524200D01*
X43765352Y-24524200D02*
X43689161Y-24562295D01*
X43689161Y-24562295D02*
X43536780Y-24562295D01*
X43536780Y-24562295D02*
X43460590Y-24524200D01*
X44717733Y-24028961D02*
X44870114Y-24562295D01*
X44870114Y-24562295D02*
X45022495Y-24181342D01*
X45022495Y-24181342D02*
X45174876Y-24562295D01*
X45174876Y-24562295D02*
X45327257Y-24028961D01*
X45632019Y-24562295D02*
X45632019Y-24028961D01*
X45632019Y-23762295D02*
X45593923Y-23800390D01*
X45593923Y-23800390D02*
X45632019Y-23838485D01*
X45632019Y-23838485D02*
X45670114Y-23800390D01*
X45670114Y-23800390D02*
X45632019Y-23762295D01*
X45632019Y-23762295D02*
X45632019Y-23838485D01*
X45898685Y-24028961D02*
X46203447Y-24028961D01*
X46012971Y-23762295D02*
X46012971Y-24448009D01*
X46012971Y-24448009D02*
X46051066Y-24524200D01*
X46051066Y-24524200D02*
X46127256Y-24562295D01*
X46127256Y-24562295D02*
X46203447Y-24562295D01*
X46470114Y-24562295D02*
X46470114Y-23762295D01*
X46812971Y-24562295D02*
X46812971Y-24143247D01*
X46812971Y-24143247D02*
X46774876Y-24067057D01*
X46774876Y-24067057D02*
X46698685Y-24028961D01*
X46698685Y-24028961D02*
X46584399Y-24028961D01*
X46584399Y-24028961D02*
X46508209Y-24067057D01*
X46508209Y-24067057D02*
X46470114Y-24105152D01*
X39232017Y-25724200D02*
X39155826Y-25762295D01*
X39155826Y-25762295D02*
X39003445Y-25762295D01*
X39003445Y-25762295D02*
X38927255Y-25724200D01*
X38927255Y-25724200D02*
X38889160Y-25686104D01*
X38889160Y-25686104D02*
X38851064Y-25609914D01*
X38851064Y-25609914D02*
X38851064Y-25381342D01*
X38851064Y-25381342D02*
X38889160Y-25305152D01*
X38889160Y-25305152D02*
X38927255Y-25267057D01*
X38927255Y-25267057D02*
X39003445Y-25228961D01*
X39003445Y-25228961D02*
X39155826Y-25228961D01*
X39155826Y-25228961D02*
X39232017Y-25267057D01*
X39689159Y-25762295D02*
X39612969Y-25724200D01*
X39612969Y-25724200D02*
X39574874Y-25648009D01*
X39574874Y-25648009D02*
X39574874Y-24962295D01*
X40298684Y-25724200D02*
X40222493Y-25762295D01*
X40222493Y-25762295D02*
X40070112Y-25762295D01*
X40070112Y-25762295D02*
X39993922Y-25724200D01*
X39993922Y-25724200D02*
X39955826Y-25648009D01*
X39955826Y-25648009D02*
X39955826Y-25343247D01*
X39955826Y-25343247D02*
X39993922Y-25267057D01*
X39993922Y-25267057D02*
X40070112Y-25228961D01*
X40070112Y-25228961D02*
X40222493Y-25228961D01*
X40222493Y-25228961D02*
X40298684Y-25267057D01*
X40298684Y-25267057D02*
X40336779Y-25343247D01*
X40336779Y-25343247D02*
X40336779Y-25419438D01*
X40336779Y-25419438D02*
X39955826Y-25495628D01*
X41022493Y-25762295D02*
X41022493Y-25343247D01*
X41022493Y-25343247D02*
X40984398Y-25267057D01*
X40984398Y-25267057D02*
X40908207Y-25228961D01*
X40908207Y-25228961D02*
X40755826Y-25228961D01*
X40755826Y-25228961D02*
X40679636Y-25267057D01*
X41022493Y-25724200D02*
X40946302Y-25762295D01*
X40946302Y-25762295D02*
X40755826Y-25762295D01*
X40755826Y-25762295D02*
X40679636Y-25724200D01*
X40679636Y-25724200D02*
X40641540Y-25648009D01*
X40641540Y-25648009D02*
X40641540Y-25571819D01*
X40641540Y-25571819D02*
X40679636Y-25495628D01*
X40679636Y-25495628D02*
X40755826Y-25457533D01*
X40755826Y-25457533D02*
X40946302Y-25457533D01*
X40946302Y-25457533D02*
X41022493Y-25419438D01*
X41403446Y-25762295D02*
X41403446Y-25228961D01*
X41403446Y-25381342D02*
X41441541Y-25305152D01*
X41441541Y-25305152D02*
X41479636Y-25267057D01*
X41479636Y-25267057D02*
X41555827Y-25228961D01*
X41555827Y-25228961D02*
X41632017Y-25228961D01*
X39003445Y-26905152D02*
X38927255Y-26867057D01*
X38927255Y-26867057D02*
X38889160Y-26828961D01*
X38889160Y-26828961D02*
X38851064Y-26752771D01*
X38851064Y-26752771D02*
X38851064Y-26714676D01*
X38851064Y-26714676D02*
X38889160Y-26638485D01*
X38889160Y-26638485D02*
X38927255Y-26600390D01*
X38927255Y-26600390D02*
X39003445Y-26562295D01*
X39003445Y-26562295D02*
X39155826Y-26562295D01*
X39155826Y-26562295D02*
X39232017Y-26600390D01*
X39232017Y-26600390D02*
X39270112Y-26638485D01*
X39270112Y-26638485D02*
X39308207Y-26714676D01*
X39308207Y-26714676D02*
X39308207Y-26752771D01*
X39308207Y-26752771D02*
X39270112Y-26828961D01*
X39270112Y-26828961D02*
X39232017Y-26867057D01*
X39232017Y-26867057D02*
X39155826Y-26905152D01*
X39155826Y-26905152D02*
X39003445Y-26905152D01*
X39003445Y-26905152D02*
X38927255Y-26943247D01*
X38927255Y-26943247D02*
X38889160Y-26981342D01*
X38889160Y-26981342D02*
X38851064Y-27057533D01*
X38851064Y-27057533D02*
X38851064Y-27209914D01*
X38851064Y-27209914D02*
X38889160Y-27286104D01*
X38889160Y-27286104D02*
X38927255Y-27324200D01*
X38927255Y-27324200D02*
X39003445Y-27362295D01*
X39003445Y-27362295D02*
X39155826Y-27362295D01*
X39155826Y-27362295D02*
X39232017Y-27324200D01*
X39232017Y-27324200D02*
X39270112Y-27286104D01*
X39270112Y-27286104D02*
X39308207Y-27209914D01*
X39308207Y-27209914D02*
X39308207Y-27057533D01*
X39308207Y-27057533D02*
X39270112Y-26981342D01*
X39270112Y-26981342D02*
X39232017Y-26943247D01*
X39232017Y-26943247D02*
X39155826Y-26905152D01*
X40070112Y-26638485D02*
X40146303Y-26714676D01*
X40184398Y-26600390D02*
X40260589Y-26676580D01*
X39651065Y-26562295D02*
X39651065Y-27286104D01*
X39651065Y-27286104D02*
X40108208Y-27286104D01*
X40070112Y-26714676D02*
X39917731Y-26828961D01*
X39917731Y-26828961D02*
X39803446Y-26867057D01*
X39803446Y-26867057D02*
X39689160Y-26905152D01*
X40489160Y-26790866D02*
X40565350Y-26981342D01*
X40679636Y-26752771D02*
X40717731Y-26943247D01*
X40908207Y-26790866D02*
X40908207Y-26981342D01*
X40908207Y-26981342D02*
X40870112Y-27095628D01*
X40870112Y-27095628D02*
X40755826Y-27209914D01*
X40755826Y-27209914D02*
X40641541Y-27286104D01*
X41555826Y-26828961D02*
X41784398Y-27019438D01*
X41555826Y-26486104D02*
X41555826Y-27324200D01*
X42165350Y-27362295D02*
X42165350Y-26562295D01*
X42165350Y-26562295D02*
X42355826Y-26562295D01*
X42355826Y-26562295D02*
X42470112Y-26600390D01*
X42470112Y-26600390D02*
X42546302Y-26676580D01*
X42546302Y-26676580D02*
X42584397Y-26752771D01*
X42584397Y-26752771D02*
X42622493Y-26905152D01*
X42622493Y-26905152D02*
X42622493Y-27019438D01*
X42622493Y-27019438D02*
X42584397Y-27171819D01*
X42584397Y-27171819D02*
X42546302Y-27248009D01*
X42546302Y-27248009D02*
X42470112Y-27324200D01*
X42470112Y-27324200D02*
X42355826Y-27362295D01*
X42355826Y-27362295D02*
X42165350Y-27362295D01*
X42851064Y-27362295D02*
X43841540Y-27362295D01*
X42889159Y-26714676D02*
X43422493Y-26714676D01*
X42927254Y-26524200D02*
X43384397Y-26524200D01*
X42965350Y-27133723D02*
X43727254Y-27133723D01*
X43270112Y-26524200D02*
X43270112Y-26981342D01*
X43346302Y-26981342D02*
X43346302Y-27362295D01*
X43536778Y-26524200D02*
X43536778Y-26828961D01*
X43574874Y-26981342D02*
X43765350Y-26981342D01*
X43765350Y-26448009D02*
X43765350Y-26981342D01*
X43041540Y-26524200D02*
X43041540Y-26752771D01*
X43041540Y-26752771D02*
X43003445Y-26905152D01*
X44146302Y-26638485D02*
X44565349Y-26638485D01*
X44565349Y-26638485D02*
X44565349Y-26828961D01*
X44565349Y-26828961D02*
X44527254Y-27019438D01*
X44527254Y-27019438D02*
X44451064Y-27133723D01*
X44451064Y-27133723D02*
X44336778Y-27209914D01*
X44336778Y-27209914D02*
X44184397Y-27286104D01*
X45098682Y-26524200D02*
X45098682Y-26943247D01*
X45365349Y-26524200D02*
X45365349Y-26828961D01*
X45365349Y-26828961D02*
X45365349Y-26981342D01*
X45365349Y-26981342D02*
X45289159Y-27133723D01*
X45289159Y-27133723D02*
X45251063Y-27209914D01*
X45251063Y-27209914D02*
X45136778Y-27324200D01*
X45822492Y-26790866D02*
X45898682Y-26981342D01*
X46012968Y-26752771D02*
X46051063Y-26943247D01*
X46241539Y-26790866D02*
X46241539Y-26981342D01*
X46241539Y-26981342D02*
X46203444Y-27095628D01*
X46203444Y-27095628D02*
X46089158Y-27209914D01*
X46089158Y-27209914D02*
X45974873Y-27286104D01*
X46660587Y-26638485D02*
X47079634Y-26638485D01*
X47079634Y-26638485D02*
X47079634Y-26828961D01*
X47079634Y-26828961D02*
X47041539Y-27019438D01*
X47041539Y-27019438D02*
X46965349Y-27133723D01*
X46965349Y-27133723D02*
X46851063Y-27209914D01*
X46851063Y-27209914D02*
X46698682Y-27286104D01*
X47155825Y-26524200D02*
X47193920Y-26524200D01*
X47193920Y-26524200D02*
X47232015Y-26562295D01*
X47232015Y-26562295D02*
X47232015Y-26600390D01*
X47232015Y-26600390D02*
X47193920Y-26638485D01*
X47193920Y-26638485D02*
X47155825Y-26638485D01*
X47155825Y-26638485D02*
X47117730Y-26600390D01*
X47117730Y-26600390D02*
X47117730Y-26562295D01*
X47117730Y-26562295D02*
X47155825Y-26524200D01*
X38889160Y-27838485D02*
X39308207Y-27838485D01*
X39308207Y-27838485D02*
X39308207Y-28028961D01*
X39308207Y-28028961D02*
X39270112Y-28219438D01*
X39270112Y-28219438D02*
X39193922Y-28333723D01*
X39193922Y-28333723D02*
X39079636Y-28409914D01*
X39079636Y-28409914D02*
X38927255Y-28486104D01*
X39727255Y-27838485D02*
X39727255Y-28371819D01*
X39727255Y-27838485D02*
X40184398Y-27838485D01*
X40184398Y-27838485D02*
X40184398Y-28371819D01*
X40184398Y-28371819D02*
X39727255Y-28371819D01*
X40565350Y-27990866D02*
X40641540Y-28181342D01*
X40755826Y-27952771D02*
X40793921Y-28143247D01*
X40984397Y-27990866D02*
X40984397Y-28181342D01*
X40984397Y-28181342D02*
X40946302Y-28295628D01*
X40946302Y-28295628D02*
X40832016Y-28409914D01*
X40832016Y-28409914D02*
X40717731Y-28486104D01*
X41403445Y-27838485D02*
X41822492Y-27838485D01*
X41822492Y-27838485D02*
X41822492Y-28028961D01*
X41822492Y-28028961D02*
X41784397Y-28219438D01*
X41784397Y-28219438D02*
X41708207Y-28333723D01*
X41708207Y-28333723D02*
X41593921Y-28409914D01*
X41593921Y-28409914D02*
X41441540Y-28486104D01*
X41898683Y-27724200D02*
X41936778Y-27724200D01*
X41936778Y-27724200D02*
X41974873Y-27762295D01*
X41974873Y-27762295D02*
X41974873Y-27800390D01*
X41974873Y-27800390D02*
X41936778Y-27838485D01*
X41936778Y-27838485D02*
X41898683Y-27838485D01*
X41898683Y-27838485D02*
X41860588Y-27800390D01*
X41860588Y-27800390D02*
X41860588Y-27762295D01*
X41860588Y-27762295D02*
X41898683Y-27724200D01*
X42660587Y-27648009D02*
X42622492Y-27762295D01*
X42622492Y-27762295D02*
X42584397Y-27914676D01*
X42584397Y-27914676D02*
X42584397Y-28295628D01*
X42584397Y-28295628D02*
X42622492Y-28448009D01*
X42622492Y-28448009D02*
X42660587Y-28524200D01*
X43270111Y-27686104D02*
X43232016Y-27876580D01*
X43232016Y-27876580D02*
X43155825Y-27990866D01*
X43155825Y-27990866D02*
X43079635Y-28143247D01*
X43270111Y-27838485D02*
X43498682Y-27838485D01*
X43498682Y-27838485D02*
X43498682Y-27990866D01*
X43498682Y-27990866D02*
X43460587Y-28143247D01*
X43460587Y-28143247D02*
X43384397Y-28295628D01*
X43384397Y-28295628D02*
X43308206Y-28409914D01*
X43308206Y-28409914D02*
X43155825Y-28524200D01*
X44032015Y-27724200D02*
X44032015Y-28143247D01*
X44298682Y-27724200D02*
X44298682Y-28028961D01*
X44298682Y-28028961D02*
X44298682Y-28181342D01*
X44298682Y-28181342D02*
X44222492Y-28333723D01*
X44222492Y-28333723D02*
X44184396Y-28409914D01*
X44184396Y-28409914D02*
X44070111Y-28524200D01*
X44717729Y-27800390D02*
X45251063Y-27800390D01*
X45251063Y-27800390D02*
X45212968Y-27876580D01*
X45212968Y-27876580D02*
X45136777Y-27990866D01*
X45136777Y-27990866D02*
X45022491Y-28067057D01*
X44946301Y-27914676D02*
X44946301Y-28181342D01*
X44946301Y-28181342D02*
X44946301Y-28257533D01*
X44946301Y-28257533D02*
X44908206Y-28371819D01*
X44908206Y-28371819D02*
X44832015Y-28562295D01*
X45670110Y-27876580D02*
X45670110Y-28562295D01*
X45822491Y-27914676D02*
X46470110Y-27914676D01*
X45784396Y-27686104D02*
X45670110Y-27914676D01*
X45670110Y-27914676D02*
X45479634Y-28105152D01*
X45898682Y-28105152D02*
X46012967Y-28181342D01*
X46012967Y-28181342D02*
X46051063Y-28295628D01*
X46317729Y-27686104D02*
X46317729Y-28562295D01*
X46317729Y-28562295D02*
X46051063Y-28562295D01*
X46774872Y-28067057D02*
X47232015Y-27952771D01*
X46812967Y-27876580D02*
X47117729Y-27800390D01*
X46927253Y-27686104D02*
X47079634Y-28257533D01*
X47079634Y-28257533D02*
X46965348Y-28257533D01*
X46812967Y-28295628D02*
X46812967Y-28409914D01*
X46812967Y-28409914D02*
X46889157Y-28486104D01*
X46889157Y-28486104D02*
X47041538Y-28524200D01*
X38889160Y-28848009D02*
X38965350Y-28962295D01*
X38965350Y-28962295D02*
X39003445Y-29114676D01*
X39003445Y-29114676D02*
X39003445Y-29495628D01*
X39003445Y-29495628D02*
X38965350Y-29648009D01*
X38965350Y-29648009D02*
X38889160Y-29724200D01*
X3233333Y-562295D02*
X3500000Y-1362295D01*
X3500000Y-1362295D02*
X3766666Y-562295D01*
X4490476Y-1286104D02*
X4452380Y-1324200D01*
X4452380Y-1324200D02*
X4338095Y-1362295D01*
X4338095Y-1362295D02*
X4261904Y-1362295D01*
X4261904Y-1362295D02*
X4147618Y-1324200D01*
X4147618Y-1324200D02*
X4071428Y-1248009D01*
X4071428Y-1248009D02*
X4033333Y-1171819D01*
X4033333Y-1171819D02*
X3995237Y-1019438D01*
X3995237Y-1019438D02*
X3995237Y-905152D01*
X3995237Y-905152D02*
X4033333Y-752771D01*
X4033333Y-752771D02*
X4071428Y-676580D01*
X4071428Y-676580D02*
X4147618Y-600390D01*
X4147618Y-600390D02*
X4261904Y-562295D01*
X4261904Y-562295D02*
X4338095Y-562295D01*
X4338095Y-562295D02*
X4452380Y-600390D01*
X4452380Y-600390D02*
X4490476Y-638485D01*
X5290476Y-1286104D02*
X5252380Y-1324200D01*
X5252380Y-1324200D02*
X5138095Y-1362295D01*
X5138095Y-1362295D02*
X5061904Y-1362295D01*
X5061904Y-1362295D02*
X4947618Y-1324200D01*
X4947618Y-1324200D02*
X4871428Y-1248009D01*
X4871428Y-1248009D02*
X4833333Y-1171819D01*
X4833333Y-1171819D02*
X4795237Y-1019438D01*
X4795237Y-1019438D02*
X4795237Y-905152D01*
X4795237Y-905152D02*
X4833333Y-752771D01*
X4833333Y-752771D02*
X4871428Y-676580D01*
X4871428Y-676580D02*
X4947618Y-600390D01*
X4947618Y-600390D02*
X5061904Y-562295D01*
X5061904Y-562295D02*
X5138095Y-562295D01*
X5138095Y-562295D02*
X5252380Y-600390D01*
X5252380Y-600390D02*
X5290476Y-638485D01*
X3823810Y-49286104D02*
X3785714Y-49324200D01*
X3785714Y-49324200D02*
X3671429Y-49362295D01*
X3671429Y-49362295D02*
X3595238Y-49362295D01*
X3595238Y-49362295D02*
X3480952Y-49324200D01*
X3480952Y-49324200D02*
X3404762Y-49248009D01*
X3404762Y-49248009D02*
X3366667Y-49171819D01*
X3366667Y-49171819D02*
X3328571Y-49019438D01*
X3328571Y-49019438D02*
X3328571Y-48905152D01*
X3328571Y-48905152D02*
X3366667Y-48752771D01*
X3366667Y-48752771D02*
X3404762Y-48676580D01*
X3404762Y-48676580D02*
X3480952Y-48600390D01*
X3480952Y-48600390D02*
X3595238Y-48562295D01*
X3595238Y-48562295D02*
X3671429Y-48562295D01*
X3671429Y-48562295D02*
X3785714Y-48600390D01*
X3785714Y-48600390D02*
X3823810Y-48638485D01*
X4547619Y-49362295D02*
X4166667Y-49362295D01*
X4166667Y-49362295D02*
X4166667Y-48562295D01*
X5271429Y-49362295D02*
X5004762Y-48981342D01*
X4814286Y-49362295D02*
X4814286Y-48562295D01*
X4814286Y-48562295D02*
X5119048Y-48562295D01*
X5119048Y-48562295D02*
X5195238Y-48600390D01*
X5195238Y-48600390D02*
X5233333Y-48638485D01*
X5233333Y-48638485D02*
X5271429Y-48714676D01*
X5271429Y-48714676D02*
X5271429Y-48828961D01*
X5271429Y-48828961D02*
X5233333Y-48905152D01*
X5233333Y-48905152D02*
X5195238Y-48943247D01*
X5195238Y-48943247D02*
X5119048Y-48981342D01*
X5119048Y-48981342D02*
X4814286Y-48981342D01*
X4471429Y-22057533D02*
X5080953Y-22057533D01*
X4776191Y-22362295D02*
X4776191Y-21752771D01*
X5842857Y-21562295D02*
X5461905Y-21562295D01*
X5461905Y-21562295D02*
X5423809Y-21943247D01*
X5423809Y-21943247D02*
X5461905Y-21905152D01*
X5461905Y-21905152D02*
X5538095Y-21867057D01*
X5538095Y-21867057D02*
X5728571Y-21867057D01*
X5728571Y-21867057D02*
X5804762Y-21905152D01*
X5804762Y-21905152D02*
X5842857Y-21943247D01*
X5842857Y-21943247D02*
X5880952Y-22019438D01*
X5880952Y-22019438D02*
X5880952Y-22209914D01*
X5880952Y-22209914D02*
X5842857Y-22286104D01*
X5842857Y-22286104D02*
X5804762Y-22324200D01*
X5804762Y-22324200D02*
X5728571Y-22362295D01*
X5728571Y-22362295D02*
X5538095Y-22362295D01*
X5538095Y-22362295D02*
X5461905Y-22324200D01*
X5461905Y-22324200D02*
X5423809Y-22286104D01*
X6109524Y-21562295D02*
X6376191Y-22362295D01*
X6376191Y-22362295D02*
X6642857Y-21562295D01*
X4890476Y-28500390D02*
X4814286Y-28462295D01*
X4814286Y-28462295D02*
X4700000Y-28462295D01*
X4700000Y-28462295D02*
X4585714Y-28500390D01*
X4585714Y-28500390D02*
X4509524Y-28576580D01*
X4509524Y-28576580D02*
X4471429Y-28652771D01*
X4471429Y-28652771D02*
X4433333Y-28805152D01*
X4433333Y-28805152D02*
X4433333Y-28919438D01*
X4433333Y-28919438D02*
X4471429Y-29071819D01*
X4471429Y-29071819D02*
X4509524Y-29148009D01*
X4509524Y-29148009D02*
X4585714Y-29224200D01*
X4585714Y-29224200D02*
X4700000Y-29262295D01*
X4700000Y-29262295D02*
X4776191Y-29262295D01*
X4776191Y-29262295D02*
X4890476Y-29224200D01*
X4890476Y-29224200D02*
X4928572Y-29186104D01*
X4928572Y-29186104D02*
X4928572Y-28919438D01*
X4928572Y-28919438D02*
X4776191Y-28919438D01*
X5271429Y-29262295D02*
X5271429Y-28462295D01*
X5271429Y-28462295D02*
X5728572Y-29262295D01*
X5728572Y-29262295D02*
X5728572Y-28462295D01*
X6109524Y-29262295D02*
X6109524Y-28462295D01*
X6109524Y-28462295D02*
X6300000Y-28462295D01*
X6300000Y-28462295D02*
X6414286Y-28500390D01*
X6414286Y-28500390D02*
X6490476Y-28576580D01*
X6490476Y-28576580D02*
X6528571Y-28652771D01*
X6528571Y-28652771D02*
X6566667Y-28805152D01*
X6566667Y-28805152D02*
X6566667Y-28919438D01*
X6566667Y-28919438D02*
X6528571Y-29071819D01*
X6528571Y-29071819D02*
X6490476Y-29148009D01*
X6490476Y-29148009D02*
X6414286Y-29224200D01*
X6414286Y-29224200D02*
X6300000Y-29262295D01*
X6300000Y-29262295D02*
X6109524Y-29262295D01*
X8404761Y-905152D02*
X8328571Y-867057D01*
X8328571Y-867057D02*
X8290476Y-828961D01*
X8290476Y-828961D02*
X8252380Y-752771D01*
X8252380Y-752771D02*
X8252380Y-714676D01*
X8252380Y-714676D02*
X8290476Y-638485D01*
X8290476Y-638485D02*
X8328571Y-600390D01*
X8328571Y-600390D02*
X8404761Y-562295D01*
X8404761Y-562295D02*
X8557142Y-562295D01*
X8557142Y-562295D02*
X8633333Y-600390D01*
X8633333Y-600390D02*
X8671428Y-638485D01*
X8671428Y-638485D02*
X8709523Y-714676D01*
X8709523Y-714676D02*
X8709523Y-752771D01*
X8709523Y-752771D02*
X8671428Y-828961D01*
X8671428Y-828961D02*
X8633333Y-867057D01*
X8633333Y-867057D02*
X8557142Y-905152D01*
X8557142Y-905152D02*
X8404761Y-905152D01*
X8404761Y-905152D02*
X8328571Y-943247D01*
X8328571Y-943247D02*
X8290476Y-981342D01*
X8290476Y-981342D02*
X8252380Y-1057533D01*
X8252380Y-1057533D02*
X8252380Y-1209914D01*
X8252380Y-1209914D02*
X8290476Y-1286104D01*
X8290476Y-1286104D02*
X8328571Y-1324200D01*
X8328571Y-1324200D02*
X8404761Y-1362295D01*
X8404761Y-1362295D02*
X8557142Y-1362295D01*
X8557142Y-1362295D02*
X8633333Y-1324200D01*
X8633333Y-1324200D02*
X8671428Y-1286104D01*
X8671428Y-1286104D02*
X8709523Y-1209914D01*
X8709523Y-1209914D02*
X8709523Y-1057533D01*
X8709523Y-1057533D02*
X8671428Y-981342D01*
X8671428Y-981342D02*
X8633333Y-943247D01*
X8633333Y-943247D02*
X8557142Y-905152D01*
X9585714Y-1438485D02*
X9509524Y-1400390D01*
X9509524Y-1400390D02*
X9433333Y-1324200D01*
X9433333Y-1324200D02*
X9319047Y-1209914D01*
X9319047Y-1209914D02*
X9242857Y-1171819D01*
X9242857Y-1171819D02*
X9166666Y-1171819D01*
X9204762Y-1362295D02*
X9128571Y-1324200D01*
X9128571Y-1324200D02*
X9052381Y-1248009D01*
X9052381Y-1248009D02*
X9014285Y-1095628D01*
X9014285Y-1095628D02*
X9014285Y-828961D01*
X9014285Y-828961D02*
X9052381Y-676580D01*
X9052381Y-676580D02*
X9128571Y-600390D01*
X9128571Y-600390D02*
X9204762Y-562295D01*
X9204762Y-562295D02*
X9357143Y-562295D01*
X9357143Y-562295D02*
X9433333Y-600390D01*
X9433333Y-600390D02*
X9509524Y-676580D01*
X9509524Y-676580D02*
X9547619Y-828961D01*
X9547619Y-828961D02*
X9547619Y-1095628D01*
X9547619Y-1095628D02*
X9509524Y-1248009D01*
X9509524Y-1248009D02*
X9433333Y-1324200D01*
X9433333Y-1324200D02*
X9357143Y-1362295D01*
X9357143Y-1362295D02*
X9204762Y-1362295D01*
X8709523Y-49362295D02*
X8252380Y-49362295D01*
X8480952Y-49362295D02*
X8480952Y-48562295D01*
X8480952Y-48562295D02*
X8404761Y-48676580D01*
X8404761Y-48676580D02*
X8328571Y-48752771D01*
X8328571Y-48752771D02*
X8252380Y-48790866D01*
X9585714Y-49438485D02*
X9509524Y-49400390D01*
X9509524Y-49400390D02*
X9433333Y-49324200D01*
X9433333Y-49324200D02*
X9319047Y-49209914D01*
X9319047Y-49209914D02*
X9242857Y-49171819D01*
X9242857Y-49171819D02*
X9166666Y-49171819D01*
X9204762Y-49362295D02*
X9128571Y-49324200D01*
X9128571Y-49324200D02*
X9052381Y-49248009D01*
X9052381Y-49248009D02*
X9014285Y-49095628D01*
X9014285Y-49095628D02*
X9014285Y-48828961D01*
X9014285Y-48828961D02*
X9052381Y-48676580D01*
X9052381Y-48676580D02*
X9128571Y-48600390D01*
X9128571Y-48600390D02*
X9204762Y-48562295D01*
X9204762Y-48562295D02*
X9357143Y-48562295D01*
X9357143Y-48562295D02*
X9433333Y-48600390D01*
X9433333Y-48600390D02*
X9509524Y-48676580D01*
X9509524Y-48676580D02*
X9547619Y-48828961D01*
X9547619Y-48828961D02*
X9547619Y-49095628D01*
X9547619Y-49095628D02*
X9509524Y-49248009D01*
X9509524Y-49248009D02*
X9433333Y-49324200D01*
X9433333Y-49324200D02*
X9357143Y-49362295D01*
X9357143Y-49362295D02*
X9204762Y-49362295D01*
X13023809Y-905152D02*
X12947619Y-867057D01*
X12947619Y-867057D02*
X12909524Y-828961D01*
X12909524Y-828961D02*
X12871428Y-752771D01*
X12871428Y-752771D02*
X12871428Y-714676D01*
X12871428Y-714676D02*
X12909524Y-638485D01*
X12909524Y-638485D02*
X12947619Y-600390D01*
X12947619Y-600390D02*
X13023809Y-562295D01*
X13023809Y-562295D02*
X13176190Y-562295D01*
X13176190Y-562295D02*
X13252381Y-600390D01*
X13252381Y-600390D02*
X13290476Y-638485D01*
X13290476Y-638485D02*
X13328571Y-714676D01*
X13328571Y-714676D02*
X13328571Y-752771D01*
X13328571Y-752771D02*
X13290476Y-828961D01*
X13290476Y-828961D02*
X13252381Y-867057D01*
X13252381Y-867057D02*
X13176190Y-905152D01*
X13176190Y-905152D02*
X13023809Y-905152D01*
X13023809Y-905152D02*
X12947619Y-943247D01*
X12947619Y-943247D02*
X12909524Y-981342D01*
X12909524Y-981342D02*
X12871428Y-1057533D01*
X12871428Y-1057533D02*
X12871428Y-1209914D01*
X12871428Y-1209914D02*
X12909524Y-1286104D01*
X12909524Y-1286104D02*
X12947619Y-1324200D01*
X12947619Y-1324200D02*
X13023809Y-1362295D01*
X13023809Y-1362295D02*
X13176190Y-1362295D01*
X13176190Y-1362295D02*
X13252381Y-1324200D01*
X13252381Y-1324200D02*
X13290476Y-1286104D01*
X13290476Y-1286104D02*
X13328571Y-1209914D01*
X13328571Y-1209914D02*
X13328571Y-1057533D01*
X13328571Y-1057533D02*
X13290476Y-981342D01*
X13290476Y-981342D02*
X13252381Y-943247D01*
X13252381Y-943247D02*
X13176190Y-905152D01*
X13671429Y-1362295D02*
X13671429Y-562295D01*
X13671429Y-562295D02*
X13861905Y-562295D01*
X13861905Y-562295D02*
X13976191Y-600390D01*
X13976191Y-600390D02*
X14052381Y-676580D01*
X14052381Y-676580D02*
X14090476Y-752771D01*
X14090476Y-752771D02*
X14128572Y-905152D01*
X14128572Y-905152D02*
X14128572Y-1019438D01*
X14128572Y-1019438D02*
X14090476Y-1171819D01*
X14090476Y-1171819D02*
X14052381Y-1248009D01*
X14052381Y-1248009D02*
X13976191Y-1324200D01*
X13976191Y-1324200D02*
X13861905Y-1362295D01*
X13861905Y-1362295D02*
X13671429Y-1362295D01*
X13328571Y-49362295D02*
X12871428Y-49362295D01*
X13100000Y-49362295D02*
X13100000Y-48562295D01*
X13100000Y-48562295D02*
X13023809Y-48676580D01*
X13023809Y-48676580D02*
X12947619Y-48752771D01*
X12947619Y-48752771D02*
X12871428Y-48790866D01*
X13671429Y-49362295D02*
X13671429Y-48562295D01*
X13671429Y-48562295D02*
X13861905Y-48562295D01*
X13861905Y-48562295D02*
X13976191Y-48600390D01*
X13976191Y-48600390D02*
X14052381Y-48676580D01*
X14052381Y-48676580D02*
X14090476Y-48752771D01*
X14090476Y-48752771D02*
X14128572Y-48905152D01*
X14128572Y-48905152D02*
X14128572Y-49019438D01*
X14128572Y-49019438D02*
X14090476Y-49171819D01*
X14090476Y-49171819D02*
X14052381Y-49248009D01*
X14052381Y-49248009D02*
X13976191Y-49324200D01*
X13976191Y-49324200D02*
X13861905Y-49362295D01*
X13861905Y-49362295D02*
X13671429Y-49362295D01*
X17433333Y-562295D02*
X17966667Y-562295D01*
X17966667Y-562295D02*
X17623809Y-1362295D01*
X18271429Y-1362295D02*
X18271429Y-562295D01*
X18271429Y-562295D02*
X18461905Y-562295D01*
X18461905Y-562295D02*
X18576191Y-600390D01*
X18576191Y-600390D02*
X18652381Y-676580D01*
X18652381Y-676580D02*
X18690476Y-752771D01*
X18690476Y-752771D02*
X18728572Y-905152D01*
X18728572Y-905152D02*
X18728572Y-1019438D01*
X18728572Y-1019438D02*
X18690476Y-1171819D01*
X18690476Y-1171819D02*
X18652381Y-1248009D01*
X18652381Y-1248009D02*
X18576191Y-1324200D01*
X18576191Y-1324200D02*
X18461905Y-1362295D01*
X18461905Y-1362295D02*
X18271429Y-1362295D01*
X17471428Y-48638485D02*
X17509524Y-48600390D01*
X17509524Y-48600390D02*
X17585714Y-48562295D01*
X17585714Y-48562295D02*
X17776190Y-48562295D01*
X17776190Y-48562295D02*
X17852381Y-48600390D01*
X17852381Y-48600390D02*
X17890476Y-48638485D01*
X17890476Y-48638485D02*
X17928571Y-48714676D01*
X17928571Y-48714676D02*
X17928571Y-48790866D01*
X17928571Y-48790866D02*
X17890476Y-48905152D01*
X17890476Y-48905152D02*
X17433333Y-49362295D01*
X17433333Y-49362295D02*
X17928571Y-49362295D01*
X18271429Y-49362295D02*
X18271429Y-48562295D01*
X18271429Y-48562295D02*
X18461905Y-48562295D01*
X18461905Y-48562295D02*
X18576191Y-48600390D01*
X18576191Y-48600390D02*
X18652381Y-48676580D01*
X18652381Y-48676580D02*
X18690476Y-48752771D01*
X18690476Y-48752771D02*
X18728572Y-48905152D01*
X18728572Y-48905152D02*
X18728572Y-49019438D01*
X18728572Y-49019438D02*
X18690476Y-49171819D01*
X18690476Y-49171819D02*
X18652381Y-49248009D01*
X18652381Y-49248009D02*
X18576191Y-49324200D01*
X18576191Y-49324200D02*
X18461905Y-49362295D01*
X18461905Y-49362295D02*
X18271429Y-49362295D01*
X22014285Y-562295D02*
X22547619Y-562295D01*
X22547619Y-562295D02*
X22204761Y-1362295D01*
X23385714Y-1438485D02*
X23309524Y-1400390D01*
X23309524Y-1400390D02*
X23233333Y-1324200D01*
X23233333Y-1324200D02*
X23119047Y-1209914D01*
X23119047Y-1209914D02*
X23042857Y-1171819D01*
X23042857Y-1171819D02*
X22966666Y-1171819D01*
X23004762Y-1362295D02*
X22928571Y-1324200D01*
X22928571Y-1324200D02*
X22852381Y-1248009D01*
X22852381Y-1248009D02*
X22814285Y-1095628D01*
X22814285Y-1095628D02*
X22814285Y-828961D01*
X22814285Y-828961D02*
X22852381Y-676580D01*
X22852381Y-676580D02*
X22928571Y-600390D01*
X22928571Y-600390D02*
X23004762Y-562295D01*
X23004762Y-562295D02*
X23157143Y-562295D01*
X23157143Y-562295D02*
X23233333Y-600390D01*
X23233333Y-600390D02*
X23309524Y-676580D01*
X23309524Y-676580D02*
X23347619Y-828961D01*
X23347619Y-828961D02*
X23347619Y-1095628D01*
X23347619Y-1095628D02*
X23309524Y-1248009D01*
X23309524Y-1248009D02*
X23233333Y-1324200D01*
X23233333Y-1324200D02*
X23157143Y-1362295D01*
X23157143Y-1362295D02*
X23004762Y-1362295D01*
X22052380Y-48638485D02*
X22090476Y-48600390D01*
X22090476Y-48600390D02*
X22166666Y-48562295D01*
X22166666Y-48562295D02*
X22357142Y-48562295D01*
X22357142Y-48562295D02*
X22433333Y-48600390D01*
X22433333Y-48600390D02*
X22471428Y-48638485D01*
X22471428Y-48638485D02*
X22509523Y-48714676D01*
X22509523Y-48714676D02*
X22509523Y-48790866D01*
X22509523Y-48790866D02*
X22471428Y-48905152D01*
X22471428Y-48905152D02*
X22014285Y-49362295D01*
X22014285Y-49362295D02*
X22509523Y-49362295D01*
X23385714Y-49438485D02*
X23309524Y-49400390D01*
X23309524Y-49400390D02*
X23233333Y-49324200D01*
X23233333Y-49324200D02*
X23119047Y-49209914D01*
X23119047Y-49209914D02*
X23042857Y-49171819D01*
X23042857Y-49171819D02*
X22966666Y-49171819D01*
X23004762Y-49362295D02*
X22928571Y-49324200D01*
X22928571Y-49324200D02*
X22852381Y-49248009D01*
X22852381Y-49248009D02*
X22814285Y-49095628D01*
X22814285Y-49095628D02*
X22814285Y-48828961D01*
X22814285Y-48828961D02*
X22852381Y-48676580D01*
X22852381Y-48676580D02*
X22928571Y-48600390D01*
X22928571Y-48600390D02*
X23004762Y-48562295D01*
X23004762Y-48562295D02*
X23157143Y-48562295D01*
X23157143Y-48562295D02*
X23233333Y-48600390D01*
X23233333Y-48600390D02*
X23309524Y-48676580D01*
X23309524Y-48676580D02*
X23347619Y-48828961D01*
X23347619Y-48828961D02*
X23347619Y-49095628D01*
X23347619Y-49095628D02*
X23309524Y-49248009D01*
X23309524Y-49248009D02*
X23233333Y-49324200D01*
X23233333Y-49324200D02*
X23157143Y-49362295D01*
X23157143Y-49362295D02*
X23004762Y-49362295D01*
X27033333Y-562295D02*
X26880952Y-562295D01*
X26880952Y-562295D02*
X26804761Y-600390D01*
X26804761Y-600390D02*
X26766666Y-638485D01*
X26766666Y-638485D02*
X26690476Y-752771D01*
X26690476Y-752771D02*
X26652380Y-905152D01*
X26652380Y-905152D02*
X26652380Y-1209914D01*
X26652380Y-1209914D02*
X26690476Y-1286104D01*
X26690476Y-1286104D02*
X26728571Y-1324200D01*
X26728571Y-1324200D02*
X26804761Y-1362295D01*
X26804761Y-1362295D02*
X26957142Y-1362295D01*
X26957142Y-1362295D02*
X27033333Y-1324200D01*
X27033333Y-1324200D02*
X27071428Y-1286104D01*
X27071428Y-1286104D02*
X27109523Y-1209914D01*
X27109523Y-1209914D02*
X27109523Y-1019438D01*
X27109523Y-1019438D02*
X27071428Y-943247D01*
X27071428Y-943247D02*
X27033333Y-905152D01*
X27033333Y-905152D02*
X26957142Y-867057D01*
X26957142Y-867057D02*
X26804761Y-867057D01*
X26804761Y-867057D02*
X26728571Y-905152D01*
X26728571Y-905152D02*
X26690476Y-943247D01*
X26690476Y-943247D02*
X26652380Y-1019438D01*
X27985714Y-1438485D02*
X27909524Y-1400390D01*
X27909524Y-1400390D02*
X27833333Y-1324200D01*
X27833333Y-1324200D02*
X27719047Y-1209914D01*
X27719047Y-1209914D02*
X27642857Y-1171819D01*
X27642857Y-1171819D02*
X27566666Y-1171819D01*
X27604762Y-1362295D02*
X27528571Y-1324200D01*
X27528571Y-1324200D02*
X27452381Y-1248009D01*
X27452381Y-1248009D02*
X27414285Y-1095628D01*
X27414285Y-1095628D02*
X27414285Y-828961D01*
X27414285Y-828961D02*
X27452381Y-676580D01*
X27452381Y-676580D02*
X27528571Y-600390D01*
X27528571Y-600390D02*
X27604762Y-562295D01*
X27604762Y-562295D02*
X27757143Y-562295D01*
X27757143Y-562295D02*
X27833333Y-600390D01*
X27833333Y-600390D02*
X27909524Y-676580D01*
X27909524Y-676580D02*
X27947619Y-828961D01*
X27947619Y-828961D02*
X27947619Y-1095628D01*
X27947619Y-1095628D02*
X27909524Y-1248009D01*
X27909524Y-1248009D02*
X27833333Y-1324200D01*
X27833333Y-1324200D02*
X27757143Y-1362295D01*
X27757143Y-1362295D02*
X27604762Y-1362295D01*
X26614285Y-48562295D02*
X27109523Y-48562295D01*
X27109523Y-48562295D02*
X26842857Y-48867057D01*
X26842857Y-48867057D02*
X26957142Y-48867057D01*
X26957142Y-48867057D02*
X27033333Y-48905152D01*
X27033333Y-48905152D02*
X27071428Y-48943247D01*
X27071428Y-48943247D02*
X27109523Y-49019438D01*
X27109523Y-49019438D02*
X27109523Y-49209914D01*
X27109523Y-49209914D02*
X27071428Y-49286104D01*
X27071428Y-49286104D02*
X27033333Y-49324200D01*
X27033333Y-49324200D02*
X26957142Y-49362295D01*
X26957142Y-49362295D02*
X26728571Y-49362295D01*
X26728571Y-49362295D02*
X26652380Y-49324200D01*
X26652380Y-49324200D02*
X26614285Y-49286104D01*
X27985714Y-49438485D02*
X27909524Y-49400390D01*
X27909524Y-49400390D02*
X27833333Y-49324200D01*
X27833333Y-49324200D02*
X27719047Y-49209914D01*
X27719047Y-49209914D02*
X27642857Y-49171819D01*
X27642857Y-49171819D02*
X27566666Y-49171819D01*
X27604762Y-49362295D02*
X27528571Y-49324200D01*
X27528571Y-49324200D02*
X27452381Y-49248009D01*
X27452381Y-49248009D02*
X27414285Y-49095628D01*
X27414285Y-49095628D02*
X27414285Y-48828961D01*
X27414285Y-48828961D02*
X27452381Y-48676580D01*
X27452381Y-48676580D02*
X27528571Y-48600390D01*
X27528571Y-48600390D02*
X27604762Y-48562295D01*
X27604762Y-48562295D02*
X27757143Y-48562295D01*
X27757143Y-48562295D02*
X27833333Y-48600390D01*
X27833333Y-48600390D02*
X27909524Y-48676580D01*
X27909524Y-48676580D02*
X27947619Y-48828961D01*
X27947619Y-48828961D02*
X27947619Y-49095628D01*
X27947619Y-49095628D02*
X27909524Y-49248009D01*
X27909524Y-49248009D02*
X27833333Y-49324200D01*
X27833333Y-49324200D02*
X27757143Y-49362295D01*
X27757143Y-49362295D02*
X27604762Y-49362295D01*
X31652381Y-562295D02*
X31500000Y-562295D01*
X31500000Y-562295D02*
X31423809Y-600390D01*
X31423809Y-600390D02*
X31385714Y-638485D01*
X31385714Y-638485D02*
X31309524Y-752771D01*
X31309524Y-752771D02*
X31271428Y-905152D01*
X31271428Y-905152D02*
X31271428Y-1209914D01*
X31271428Y-1209914D02*
X31309524Y-1286104D01*
X31309524Y-1286104D02*
X31347619Y-1324200D01*
X31347619Y-1324200D02*
X31423809Y-1362295D01*
X31423809Y-1362295D02*
X31576190Y-1362295D01*
X31576190Y-1362295D02*
X31652381Y-1324200D01*
X31652381Y-1324200D02*
X31690476Y-1286104D01*
X31690476Y-1286104D02*
X31728571Y-1209914D01*
X31728571Y-1209914D02*
X31728571Y-1019438D01*
X31728571Y-1019438D02*
X31690476Y-943247D01*
X31690476Y-943247D02*
X31652381Y-905152D01*
X31652381Y-905152D02*
X31576190Y-867057D01*
X31576190Y-867057D02*
X31423809Y-867057D01*
X31423809Y-867057D02*
X31347619Y-905152D01*
X31347619Y-905152D02*
X31309524Y-943247D01*
X31309524Y-943247D02*
X31271428Y-1019438D01*
X32071429Y-1362295D02*
X32071429Y-562295D01*
X32071429Y-562295D02*
X32261905Y-562295D01*
X32261905Y-562295D02*
X32376191Y-600390D01*
X32376191Y-600390D02*
X32452381Y-676580D01*
X32452381Y-676580D02*
X32490476Y-752771D01*
X32490476Y-752771D02*
X32528572Y-905152D01*
X32528572Y-905152D02*
X32528572Y-1019438D01*
X32528572Y-1019438D02*
X32490476Y-1171819D01*
X32490476Y-1171819D02*
X32452381Y-1248009D01*
X32452381Y-1248009D02*
X32376191Y-1324200D01*
X32376191Y-1324200D02*
X32261905Y-1362295D01*
X32261905Y-1362295D02*
X32071429Y-1362295D01*
X31233333Y-48562295D02*
X31728571Y-48562295D01*
X31728571Y-48562295D02*
X31461905Y-48867057D01*
X31461905Y-48867057D02*
X31576190Y-48867057D01*
X31576190Y-48867057D02*
X31652381Y-48905152D01*
X31652381Y-48905152D02*
X31690476Y-48943247D01*
X31690476Y-48943247D02*
X31728571Y-49019438D01*
X31728571Y-49019438D02*
X31728571Y-49209914D01*
X31728571Y-49209914D02*
X31690476Y-49286104D01*
X31690476Y-49286104D02*
X31652381Y-49324200D01*
X31652381Y-49324200D02*
X31576190Y-49362295D01*
X31576190Y-49362295D02*
X31347619Y-49362295D01*
X31347619Y-49362295D02*
X31271428Y-49324200D01*
X31271428Y-49324200D02*
X31233333Y-49286104D01*
X32071429Y-49362295D02*
X32071429Y-48562295D01*
X32071429Y-48562295D02*
X32261905Y-48562295D01*
X32261905Y-48562295D02*
X32376191Y-48600390D01*
X32376191Y-48600390D02*
X32452381Y-48676580D01*
X32452381Y-48676580D02*
X32490476Y-48752771D01*
X32490476Y-48752771D02*
X32528572Y-48905152D01*
X32528572Y-48905152D02*
X32528572Y-49019438D01*
X32528572Y-49019438D02*
X32490476Y-49171819D01*
X32490476Y-49171819D02*
X32452381Y-49248009D01*
X32452381Y-49248009D02*
X32376191Y-49324200D01*
X32376191Y-49324200D02*
X32261905Y-49362295D01*
X32261905Y-49362295D02*
X32071429Y-49362295D01*
X36290476Y-562295D02*
X35909524Y-562295D01*
X35909524Y-562295D02*
X35871428Y-943247D01*
X35871428Y-943247D02*
X35909524Y-905152D01*
X35909524Y-905152D02*
X35985714Y-867057D01*
X35985714Y-867057D02*
X36176190Y-867057D01*
X36176190Y-867057D02*
X36252381Y-905152D01*
X36252381Y-905152D02*
X36290476Y-943247D01*
X36290476Y-943247D02*
X36328571Y-1019438D01*
X36328571Y-1019438D02*
X36328571Y-1209914D01*
X36328571Y-1209914D02*
X36290476Y-1286104D01*
X36290476Y-1286104D02*
X36252381Y-1324200D01*
X36252381Y-1324200D02*
X36176190Y-1362295D01*
X36176190Y-1362295D02*
X35985714Y-1362295D01*
X35985714Y-1362295D02*
X35909524Y-1324200D01*
X35909524Y-1324200D02*
X35871428Y-1286104D01*
X36671429Y-1362295D02*
X36671429Y-562295D01*
X36671429Y-562295D02*
X36861905Y-562295D01*
X36861905Y-562295D02*
X36976191Y-600390D01*
X36976191Y-600390D02*
X37052381Y-676580D01*
X37052381Y-676580D02*
X37090476Y-752771D01*
X37090476Y-752771D02*
X37128572Y-905152D01*
X37128572Y-905152D02*
X37128572Y-1019438D01*
X37128572Y-1019438D02*
X37090476Y-1171819D01*
X37090476Y-1171819D02*
X37052381Y-1248009D01*
X37052381Y-1248009D02*
X36976191Y-1324200D01*
X36976191Y-1324200D02*
X36861905Y-1362295D01*
X36861905Y-1362295D02*
X36671429Y-1362295D01*
X36252381Y-48828961D02*
X36252381Y-49362295D01*
X36061905Y-48524200D02*
X35871428Y-49095628D01*
X35871428Y-49095628D02*
X36366667Y-49095628D01*
X36671429Y-49362295D02*
X36671429Y-48562295D01*
X36671429Y-48562295D02*
X36861905Y-48562295D01*
X36861905Y-48562295D02*
X36976191Y-48600390D01*
X36976191Y-48600390D02*
X37052381Y-48676580D01*
X37052381Y-48676580D02*
X37090476Y-48752771D01*
X37090476Y-48752771D02*
X37128572Y-48905152D01*
X37128572Y-48905152D02*
X37128572Y-49019438D01*
X37128572Y-49019438D02*
X37090476Y-49171819D01*
X37090476Y-49171819D02*
X37052381Y-49248009D01*
X37052381Y-49248009D02*
X36976191Y-49324200D01*
X36976191Y-49324200D02*
X36861905Y-49362295D01*
X36861905Y-49362295D02*
X36671429Y-49362295D01*
X40871427Y-562295D02*
X40490475Y-562295D01*
X40490475Y-562295D02*
X40452379Y-943247D01*
X40452379Y-943247D02*
X40490475Y-905152D01*
X40490475Y-905152D02*
X40566665Y-867057D01*
X40566665Y-867057D02*
X40757141Y-867057D01*
X40757141Y-867057D02*
X40833332Y-905152D01*
X40833332Y-905152D02*
X40871427Y-943247D01*
X40871427Y-943247D02*
X40909522Y-1019438D01*
X40909522Y-1019438D02*
X40909522Y-1209914D01*
X40909522Y-1209914D02*
X40871427Y-1286104D01*
X40871427Y-1286104D02*
X40833332Y-1324200D01*
X40833332Y-1324200D02*
X40757141Y-1362295D01*
X40757141Y-1362295D02*
X40566665Y-1362295D01*
X40566665Y-1362295D02*
X40490475Y-1324200D01*
X40490475Y-1324200D02*
X40452379Y-1286104D01*
X41785713Y-1438485D02*
X41709523Y-1400390D01*
X41709523Y-1400390D02*
X41633332Y-1324200D01*
X41633332Y-1324200D02*
X41519046Y-1209914D01*
X41519046Y-1209914D02*
X41442856Y-1171819D01*
X41442856Y-1171819D02*
X41366665Y-1171819D01*
X41404761Y-1362295D02*
X41328570Y-1324200D01*
X41328570Y-1324200D02*
X41252380Y-1248009D01*
X41252380Y-1248009D02*
X41214284Y-1095628D01*
X41214284Y-1095628D02*
X41214284Y-828961D01*
X41214284Y-828961D02*
X41252380Y-676580D01*
X41252380Y-676580D02*
X41328570Y-600390D01*
X41328570Y-600390D02*
X41404761Y-562295D01*
X41404761Y-562295D02*
X41557142Y-562295D01*
X41557142Y-562295D02*
X41633332Y-600390D01*
X41633332Y-600390D02*
X41709523Y-676580D01*
X41709523Y-676580D02*
X41747618Y-828961D01*
X41747618Y-828961D02*
X41747618Y-1095628D01*
X41747618Y-1095628D02*
X41709523Y-1248009D01*
X41709523Y-1248009D02*
X41633332Y-1324200D01*
X41633332Y-1324200D02*
X41557142Y-1362295D01*
X41557142Y-1362295D02*
X41404761Y-1362295D01*
X40833332Y-48828961D02*
X40833332Y-49362295D01*
X40642856Y-48524200D02*
X40452379Y-49095628D01*
X40452379Y-49095628D02*
X40947618Y-49095628D01*
X41785713Y-49438485D02*
X41709523Y-49400390D01*
X41709523Y-49400390D02*
X41633332Y-49324200D01*
X41633332Y-49324200D02*
X41519046Y-49209914D01*
X41519046Y-49209914D02*
X41442856Y-49171819D01*
X41442856Y-49171819D02*
X41366665Y-49171819D01*
X41404761Y-49362295D02*
X41328570Y-49324200D01*
X41328570Y-49324200D02*
X41252380Y-49248009D01*
X41252380Y-49248009D02*
X41214284Y-49095628D01*
X41214284Y-49095628D02*
X41214284Y-48828961D01*
X41214284Y-48828961D02*
X41252380Y-48676580D01*
X41252380Y-48676580D02*
X41328570Y-48600390D01*
X41328570Y-48600390D02*
X41404761Y-48562295D01*
X41404761Y-48562295D02*
X41557142Y-48562295D01*
X41557142Y-48562295D02*
X41633332Y-48600390D01*
X41633332Y-48600390D02*
X41709523Y-48676580D01*
X41709523Y-48676580D02*
X41747618Y-48828961D01*
X41747618Y-48828961D02*
X41747618Y-49095628D01*
X41747618Y-49095628D02*
X41709523Y-49248009D01*
X41709523Y-49248009D02*
X41633332Y-49324200D01*
X41633332Y-49324200D02*
X41557142Y-49362295D01*
X41557142Y-49362295D02*
X41404761Y-49362295D01*
X45223810Y-1286104D02*
X45185714Y-1324200D01*
X45185714Y-1324200D02*
X45071429Y-1362295D01*
X45071429Y-1362295D02*
X44995238Y-1362295D01*
X44995238Y-1362295D02*
X44880952Y-1324200D01*
X44880952Y-1324200D02*
X44804762Y-1248009D01*
X44804762Y-1248009D02*
X44766667Y-1171819D01*
X44766667Y-1171819D02*
X44728571Y-1019438D01*
X44728571Y-1019438D02*
X44728571Y-905152D01*
X44728571Y-905152D02*
X44766667Y-752771D01*
X44766667Y-752771D02*
X44804762Y-676580D01*
X44804762Y-676580D02*
X44880952Y-600390D01*
X44880952Y-600390D02*
X44995238Y-562295D01*
X44995238Y-562295D02*
X45071429Y-562295D01*
X45071429Y-562295D02*
X45185714Y-600390D01*
X45185714Y-600390D02*
X45223810Y-638485D01*
X45947619Y-1362295D02*
X45566667Y-1362295D01*
X45566667Y-1362295D02*
X45566667Y-562295D01*
X46214286Y-1362295D02*
X46214286Y-562295D01*
X46671429Y-1362295D02*
X46328571Y-905152D01*
X46671429Y-562295D02*
X46214286Y-1019438D01*
X45090476Y-48600390D02*
X45014286Y-48562295D01*
X45014286Y-48562295D02*
X44900000Y-48562295D01*
X44900000Y-48562295D02*
X44785714Y-48600390D01*
X44785714Y-48600390D02*
X44709524Y-48676580D01*
X44709524Y-48676580D02*
X44671429Y-48752771D01*
X44671429Y-48752771D02*
X44633333Y-48905152D01*
X44633333Y-48905152D02*
X44633333Y-49019438D01*
X44633333Y-49019438D02*
X44671429Y-49171819D01*
X44671429Y-49171819D02*
X44709524Y-49248009D01*
X44709524Y-49248009D02*
X44785714Y-49324200D01*
X44785714Y-49324200D02*
X44900000Y-49362295D01*
X44900000Y-49362295D02*
X44976191Y-49362295D01*
X44976191Y-49362295D02*
X45090476Y-49324200D01*
X45090476Y-49324200D02*
X45128572Y-49286104D01*
X45128572Y-49286104D02*
X45128572Y-49019438D01*
X45128572Y-49019438D02*
X44976191Y-49019438D01*
X45471429Y-49362295D02*
X45471429Y-48562295D01*
X45471429Y-48562295D02*
X45928572Y-49362295D01*
X45928572Y-49362295D02*
X45928572Y-48562295D01*
X46309524Y-49362295D02*
X46309524Y-48562295D01*
X46309524Y-48562295D02*
X46500000Y-48562295D01*
X46500000Y-48562295D02*
X46614286Y-48600390D01*
X46614286Y-48600390D02*
X46690476Y-48676580D01*
X46690476Y-48676580D02*
X46728571Y-48752771D01*
X46728571Y-48752771D02*
X46766667Y-48905152D01*
X46766667Y-48905152D02*
X46766667Y-49019438D01*
X46766667Y-49019438D02*
X46728571Y-49171819D01*
X46728571Y-49171819D02*
X46690476Y-49248009D01*
X46690476Y-49248009D02*
X46614286Y-49324200D01*
X46614286Y-49324200D02*
X46500000Y-49362295D01*
X46500000Y-49362295D02*
X46309524Y-49362295D01*
X39571427Y-20332390D02*
X40638094Y-20332390D01*
X40638094Y-20332390D02*
X39952379Y-21932390D01*
X41933332Y-20865723D02*
X41933332Y-21932390D01*
X41552380Y-20256200D02*
X41171427Y-21399057D01*
X41171427Y-21399057D02*
X42161904Y-21399057D01*
X42619047Y-21932390D02*
X43457142Y-20865723D01*
X42619047Y-20865723D02*
X43457142Y-21932390D01*
X43990475Y-20484771D02*
X44066666Y-20408580D01*
X44066666Y-20408580D02*
X44219047Y-20332390D01*
X44219047Y-20332390D02*
X44599999Y-20332390D01*
X44599999Y-20332390D02*
X44752380Y-20408580D01*
X44752380Y-20408580D02*
X44828571Y-20484771D01*
X44828571Y-20484771D02*
X44904761Y-20637152D01*
X44904761Y-20637152D02*
X44904761Y-20789533D01*
X44904761Y-20789533D02*
X44828571Y-21018104D01*
X44828571Y-21018104D02*
X43914285Y-21932390D01*
X43914285Y-21932390D02*
X44904761Y-21932390D01*
X45438095Y-20332390D02*
X46504762Y-20332390D01*
X46504762Y-20332390D02*
X45819047Y-21932390D01*
X46961905Y-20332390D02*
X47952381Y-20332390D01*
X47952381Y-20332390D02*
X47419048Y-20941914D01*
X47419048Y-20941914D02*
X47647619Y-20941914D01*
X47647619Y-20941914D02*
X47800000Y-21018104D01*
X47800000Y-21018104D02*
X47876191Y-21094295D01*
X47876191Y-21094295D02*
X47952381Y-21246676D01*
X47952381Y-21246676D02*
X47952381Y-21627628D01*
X47952381Y-21627628D02*
X47876191Y-21780009D01*
X47876191Y-21780009D02*
X47800000Y-21856200D01*
X47800000Y-21856200D02*
X47647619Y-21932390D01*
X47647619Y-21932390D02*
X47190476Y-21932390D01*
X47190476Y-21932390D02*
X47038095Y-21856200D01*
X47038095Y-21856200D02*
X46961905Y-21780009D01*
%TO.C,C1*%
D11*
X10690000Y-24859420D02*
X10690000Y-25140580D01*
X11710000Y-24859420D02*
X11710000Y-25140580D01*
%TO.C,R11*%
X46777500Y-18812742D02*
X46777500Y-19287258D01*
X47822500Y-18812742D02*
X47822500Y-19287258D01*
%TO.C,R39*%
X8377500Y-14962742D02*
X8377500Y-15437258D01*
X9422500Y-14962742D02*
X9422500Y-15437258D01*
%TO.C,D12*%
X41964999Y-10615000D02*
X41964999Y-12900000D01*
X43434999Y-10615000D02*
X41964999Y-10615000D01*
X43434999Y-12900000D02*
X43434999Y-10615000D01*
%TO.C,CK11*%
X44590000Y-11490580D02*
X44590000Y-11209420D01*
X45610000Y-11490580D02*
X45610000Y-11209420D01*
%TO.C,SWT11*%
X44490000Y-3540000D02*
X44490000Y-8460000D01*
X44740000Y-3540000D02*
X44490000Y-3540000D01*
X44740000Y-8460000D02*
X44490000Y-8460000D01*
X48210000Y-3540000D02*
X47960000Y-3540000D01*
X48210000Y-8460000D02*
X47960000Y-8460000D01*
X48210000Y-8460000D02*
X48210000Y-3540000D01*
%TO.C,R4*%
X15977500Y-35037258D02*
X15977500Y-34562742D01*
X17022500Y-35037258D02*
X17022500Y-34562742D01*
%TO.C,R9*%
X38977499Y-35037258D02*
X38977499Y-34562742D01*
X40022499Y-35037258D02*
X40022499Y-34562742D01*
%TO.C,R24*%
X17577500Y-35037258D02*
X17577500Y-34562742D01*
X18622500Y-35037258D02*
X18622500Y-34562742D01*
%TO.C,R19*%
X9977500Y-14962742D02*
X9977500Y-15437258D01*
X11022500Y-14962742D02*
X11022500Y-15437258D01*
%TO.C,R13*%
X37577500Y-14962742D02*
X37577500Y-15437258D01*
X38622500Y-14962742D02*
X38622500Y-15437258D01*
%TO.C,R16*%
X23777500Y-14962742D02*
X23777500Y-15437258D01*
X24822500Y-14962742D02*
X24822500Y-15437258D01*
%TO.C,J1*%
X6920000Y-22795000D02*
X8300000Y-22795000D01*
X6920000Y-24175000D02*
X6920000Y-22795000D01*
X6920000Y-25445000D02*
X6920000Y-28095000D01*
X6920000Y-25445000D02*
X9680000Y-25445000D01*
X6920000Y-28095000D02*
X9680000Y-28095000D01*
X9680000Y-25445000D02*
X9680000Y-28095000D01*
%TO.C,D7*%
X29564999Y-37100000D02*
X29564999Y-39385000D01*
X29564999Y-39385000D02*
X31034999Y-39385000D01*
X31034999Y-39385000D02*
X31034999Y-37100000D01*
%TO.C,R34*%
X31377500Y-14962742D02*
X31377500Y-15437258D01*
X32422500Y-14962742D02*
X32422500Y-15437258D01*
%TO.C,D11*%
X43365000Y-18250000D02*
X43365000Y-20535000D01*
X43365000Y-20535000D02*
X44835000Y-20535000D01*
X44835000Y-20535000D02*
X44835000Y-18250000D01*
%TO.C,D8*%
X34165000Y-37100000D02*
X34165000Y-39385000D01*
X34165000Y-39385000D02*
X35635000Y-39385000D01*
X35635000Y-39385000D02*
X35635000Y-37100000D01*
%TO.C,D9*%
X38764999Y-37100000D02*
X38764999Y-39385000D01*
X38764999Y-39385000D02*
X40234999Y-39385000D01*
X40234999Y-39385000D02*
X40234999Y-37100000D01*
%TO.C,R6*%
X25177500Y-35037258D02*
X25177500Y-34562742D01*
X26222500Y-35037258D02*
X26222500Y-34562742D01*
%TO.C,R26*%
X26777500Y-35037258D02*
X26777500Y-34562742D01*
X27822500Y-35037258D02*
X27822500Y-34562742D01*
%TO.C,R3*%
X11377500Y-35037258D02*
X11377500Y-34562742D01*
X12422500Y-35037258D02*
X12422500Y-34562742D01*
%TO.C,D18*%
X14365000Y-10615000D02*
X14365000Y-12900000D01*
X15835000Y-10615000D02*
X14365000Y-10615000D01*
X15835000Y-12900000D02*
X15835000Y-10615000D01*
%TO.C,R32*%
X40577499Y-14962742D02*
X40577499Y-15437258D01*
X41622499Y-14962742D02*
X41622499Y-15437258D01*
%TO.C,R5*%
X20577499Y-35037258D02*
X20577499Y-34562742D01*
X21622499Y-35037258D02*
X21622499Y-34562742D01*
%TO.C,R38*%
X12977500Y-14962742D02*
X12977500Y-15437258D01*
X14022500Y-14962742D02*
X14022500Y-15437258D01*
%TO.C,R35*%
X26777500Y-14962742D02*
X26777500Y-15437258D01*
X27822500Y-14962742D02*
X27822500Y-15437258D01*
%TO.C,R33*%
X35977500Y-14962742D02*
X35977500Y-15437258D01*
X37022500Y-14962742D02*
X37022500Y-15437258D01*
%TO.C,D19*%
X9765000Y-10615000D02*
X9765000Y-12900000D01*
X11235000Y-10615000D02*
X9765000Y-10615000D01*
X11235000Y-12900000D02*
X11235000Y-10615000D01*
%TO.C,D16*%
X23565000Y-10615000D02*
X23565000Y-12900000D01*
X25035000Y-10615000D02*
X23565000Y-10615000D01*
X25035000Y-12900000D02*
X25035000Y-10615000D01*
%TO.C,D6*%
X24965000Y-37100000D02*
X24965000Y-39385000D01*
X24965000Y-39385000D02*
X26435000Y-39385000D01*
X26435000Y-39385000D02*
X26435000Y-37100000D01*
%TO.C,D1*%
X1965000Y-37100000D02*
X1965000Y-39385000D01*
X1965000Y-39385000D02*
X3435000Y-39385000D01*
X3435000Y-39385000D02*
X3435000Y-37100000D01*
%TO.C,R8*%
X34377500Y-35037258D02*
X34377500Y-34562742D01*
X35422500Y-35037258D02*
X35422500Y-34562742D01*
%TO.C,R29*%
X40577499Y-35037258D02*
X40577499Y-34562742D01*
X41622499Y-35037258D02*
X41622499Y-34562742D01*
%TO.C,D17*%
X18965000Y-10615000D02*
X18965000Y-12900000D01*
X20435000Y-10615000D02*
X18965000Y-10615000D01*
X20435000Y-12900000D02*
X20435000Y-10615000D01*
%TO.C,R2*%
X6777500Y-35037258D02*
X6777500Y-34562742D01*
X7822500Y-35037258D02*
X7822500Y-34562742D01*
%TO.C,R17*%
X19177500Y-14962742D02*
X19177500Y-15437258D01*
X20222500Y-14962742D02*
X20222500Y-15437258D01*
%TO.C,R14*%
X32977500Y-14962742D02*
X32977500Y-15437258D01*
X34022500Y-14962742D02*
X34022500Y-15437258D01*
%TO.C,R22*%
X8377500Y-35037258D02*
X8377500Y-34562742D01*
X9422500Y-35037258D02*
X9422500Y-34562742D01*
%TO.C,D15*%
X28165000Y-10615000D02*
X28165000Y-12900000D01*
X29635000Y-10615000D02*
X28165000Y-10615000D01*
X29635000Y-12900000D02*
X29635000Y-10615000D01*
%TO.C,D2*%
X6565000Y-37100000D02*
X6565000Y-39385000D01*
X6565000Y-39385000D02*
X8035000Y-39385000D01*
X8035000Y-39385000D02*
X8035000Y-37100000D01*
%TO.C,R37*%
X17577500Y-14962742D02*
X17577500Y-15437258D01*
X18622500Y-14962742D02*
X18622500Y-15437258D01*
%TO.C,R1*%
X2177500Y-35037258D02*
X2177500Y-34562742D01*
X3222500Y-35037258D02*
X3222500Y-34562742D01*
%TO.C,R12*%
X42177499Y-14962742D02*
X42177499Y-15437258D01*
X43222499Y-14962742D02*
X43222499Y-15437258D01*
%TO.C,R25*%
X22177500Y-35037258D02*
X22177500Y-34562742D01*
X23222500Y-35037258D02*
X23222500Y-34562742D01*
%TO.C,D5*%
X20364999Y-37100000D02*
X20364999Y-39385000D01*
X20364999Y-39385000D02*
X21834999Y-39385000D01*
X21834999Y-39385000D02*
X21834999Y-37100000D01*
%TO.C,R7*%
X29777499Y-35037258D02*
X29777499Y-34562742D01*
X30822499Y-35037258D02*
X30822499Y-34562742D01*
%TO.C,R36*%
X22177500Y-14962742D02*
X22177500Y-15437258D01*
X23222500Y-14962742D02*
X23222500Y-15437258D01*
%TO.C,UG11*%
X44140000Y-14290000D02*
X44190000Y-14290000D01*
X44140000Y-16110000D02*
X44140000Y-14290000D01*
X44190000Y-16110000D02*
X44140000Y-16110000D01*
X46090000Y-16110000D02*
X45310000Y-16110000D01*
X47210000Y-14290000D02*
X47260000Y-14290000D01*
X47260000Y-14290000D02*
X47260000Y-16110000D01*
X47260000Y-16110000D02*
X47210000Y-16110000D01*
X47210000Y-13750000D02*
X47540000Y-13510000D01*
X47540000Y-13990000D01*
X47210000Y-13750000D01*
G36*
X47540000Y-13990000D02*
G01*
X47210000Y-13750000D01*
X47540000Y-13510000D01*
X47540000Y-13990000D01*
G37*
%TO.C,D13*%
X37365000Y-10615000D02*
X37365000Y-12900000D01*
X38835000Y-10615000D02*
X37365000Y-10615000D01*
X38835000Y-12900000D02*
X38835000Y-10615000D01*
%TO.C,R21*%
X3777500Y-35037258D02*
X3777500Y-34562742D01*
X4822500Y-35037258D02*
X4822500Y-34562742D01*
%TO.C,D3*%
X11165000Y-37100000D02*
X11165000Y-39385000D01*
X11165000Y-39385000D02*
X12635000Y-39385000D01*
X12635000Y-39385000D02*
X12635000Y-37100000D01*
%TO.C,R18*%
X14577500Y-14962742D02*
X14577500Y-15437258D01*
X15622500Y-14962742D02*
X15622500Y-15437258D01*
%TO.C,R27*%
X31377500Y-35037258D02*
X31377500Y-34562742D01*
X32422500Y-35037258D02*
X32422500Y-34562742D01*
%TO.C,D14*%
X32765000Y-10615000D02*
X32765000Y-12900000D01*
X34235000Y-10615000D02*
X32765000Y-10615000D01*
X34235000Y-12900000D02*
X34235000Y-10615000D01*
%TO.C,R23*%
X12977500Y-35037258D02*
X12977500Y-34562742D01*
X14022500Y-35037258D02*
X14022500Y-34562742D01*
%TO.C,R15*%
X28377500Y-14962742D02*
X28377500Y-15437258D01*
X29422500Y-14962742D02*
X29422500Y-15437258D01*
%TO.C,R28*%
X35977500Y-35037258D02*
X35977500Y-34562742D01*
X37022500Y-35037258D02*
X37022500Y-34562742D01*
%TO.C,RC11*%
X46777500Y-11112742D02*
X46777500Y-11587258D01*
X47822500Y-11112742D02*
X47822500Y-11587258D01*
%TO.C,U1*%
X12240000Y-22350000D02*
X12240000Y-24000000D01*
X12240000Y-26000000D02*
X12240000Y-27650000D01*
X12240000Y-27650000D02*
X37760000Y-27650000D01*
X37760000Y-22350000D02*
X12240000Y-22350000D01*
X37760000Y-27650000D02*
X37760000Y-22350000D01*
X12180000Y-19860000D02*
X37820000Y-19860000D01*
X37820000Y-30140000D01*
X12180000Y-30140000D01*
X12180000Y-19860000D01*
X12240000Y-24000000D02*
G75*
G02*
X12240000Y-26000000I0J-1000000D01*
G01*
%TO.C,D4*%
X15765000Y-37100000D02*
X15765000Y-39385000D01*
X15765000Y-39385000D02*
X17235000Y-39385000D01*
X17235000Y-39385000D02*
X17235000Y-37100000D01*
%TD*%
M02*
