%TF.GenerationSoftware,KiCad,Pcbnew,10.0.3*%
%TF.CreationDate,2026-09-17T15:36:09+09:00*%
%TF.ProjectId,74x273_tile,37347832-3733-45f7-9469-6c652e6b6963,0.1*%
%TF.SameCoordinates,Original*%
%TF.FileFunction,Copper,L2,Bot*%
%TF.FilePolarity,Positive*%
%FSLAX46Y46*%
G04 Gerber Fmt 4.6, Leading zero omitted, Abs format (unit mm)*
G04 Created by KiCad (PCBNEW 10.0.3) date 2026-09-17 15:36:09*
%MOMM*%
%LPD*%
G01*
G04 APERTURE LIST*
G04 Aperture macros list*
%AMRoundRect*
0 Rectangle with rounded corners*
0 $1 Rounding radius*
0 $2 $3 $4 $5 $6 $7 $8 $9 X,Y pos of 4 corners*
0 Add a 4 corners polygon primitive as box body*
4,1,4,$2,$3,$4,$5,$6,$7,$8,$9,$2,$3,0*
0 Add four circle primitives for the rounded corners*
1,1,$1+$1,$2,$3*
1,1,$1+$1,$4,$5*
1,1,$1+$1,$6,$7*
1,1,$1+$1,$8,$9*
0 Add four rect primitives between the rounded corners*
20,1,$1+$1,$2,$3,$4,$5,0*
20,1,$1+$1,$4,$5,$6,$7,0*
20,1,$1+$1,$6,$7,$8,$9,0*
20,1,$1+$1,$8,$9,$2,$3,0*%
G04 Aperture macros list end*
%TA.AperFunction,ComponentPad*%
%ADD10R,1.700000X1.700000*%
%TD*%
%TA.AperFunction,ComponentPad*%
%ADD11C,1.700000*%
%TD*%
%TA.AperFunction,ComponentPad*%
%ADD12RoundRect,0.250000X0.550000X-0.550000X0.550000X0.550000X-0.550000X0.550000X-0.550000X-0.550000X0*%
%TD*%
%TA.AperFunction,ComponentPad*%
%ADD13C,1.600000*%
%TD*%
%TA.AperFunction,ViaPad*%
%ADD14C,0.600000*%
%TD*%
%TA.AperFunction,Conductor*%
%ADD15C,0.250000*%
%TD*%
G04 APERTURE END LIST*
D10*
%TO.P,J1,1*%
%TO.N,+5V*%
X8300000Y-24175000D03*
D11*
%TO.P,J1,2*%
%TO.N,GND*%
X8300000Y-26715000D03*
%TD*%
D12*
%TO.P,U1,1*%
%TO.N,/P1*%
X13570000Y-28810000D03*
D13*
%TO.P,U1,2*%
%TO.N,/P2*%
X16110000Y-28810000D03*
%TO.P,U1,3*%
%TO.N,/P3*%
X18650000Y-28810000D03*
%TO.P,U1,4*%
%TO.N,/P4*%
X21190000Y-28810000D03*
%TO.P,U1,5*%
%TO.N,/P5*%
X23730000Y-28810000D03*
%TO.P,U1,6*%
%TO.N,/P6*%
X26270000Y-28810000D03*
%TO.P,U1,7*%
%TO.N,/P7*%
X28810000Y-28810000D03*
%TO.P,U1,8*%
%TO.N,/P8*%
X31350000Y-28810000D03*
%TO.P,U1,9*%
%TO.N,/P9*%
X33890000Y-28810000D03*
%TO.P,U1,10*%
%TO.N,GND*%
X36430000Y-28810000D03*
%TO.P,U1,11*%
%TO.N,/P11*%
X36430000Y-21190000D03*
%TO.P,U1,12*%
%TO.N,/P12*%
X33890000Y-21190000D03*
%TO.P,U1,13*%
%TO.N,/P13*%
X31350000Y-21190000D03*
%TO.P,U1,14*%
%TO.N,/P14*%
X28810000Y-21190000D03*
%TO.P,U1,15*%
%TO.N,/P15*%
X26270000Y-21190000D03*
%TO.P,U1,16*%
%TO.N,/P16*%
X23730000Y-21190000D03*
%TO.P,U1,17*%
%TO.N,/P17*%
X21190000Y-21190000D03*
%TO.P,U1,18*%
%TO.N,/P18*%
X18650000Y-21190000D03*
%TO.P,U1,19*%
%TO.N,/P19*%
X16110000Y-21190000D03*
%TO.P,U1,20*%
%TO.N,+5V*%
X13570000Y-21190000D03*
%TD*%
D14*
%TO.N,GND*%
X43199999Y-9300000D03*
X29799999Y-40700000D03*
X34400000Y-40700000D03*
X11000000Y-9300000D03*
X15600000Y-9300000D03*
X6800000Y-40700000D03*
X45500000Y-10575000D03*
X2200000Y-40700000D03*
X44100000Y-20387000D03*
X38999999Y-40700000D03*
X34000000Y-9300000D03*
X16000000Y-40700000D03*
X24800000Y-9300000D03*
X29400000Y-9300000D03*
X20599999Y-40700000D03*
X47200000Y-4025000D03*
X44750000Y-14612000D03*
X38600000Y-9300000D03*
X20200000Y-9300000D03*
X25200000Y-40700000D03*
X11400000Y-40700000D03*
X11200000Y-26775000D03*
%TO.N,/LA11*%
X43000000Y-18262000D03*
X48400000Y-19875000D03*
%TD*%
%TO.N,/LA11*%
D15*
X48400000Y-19875000D02*
X43000000Y-18262000D01*
%TD*%
%TA.AperFunction,Conductor*%
%TO.N,GND*%
G36*
X49443039Y-519685D02*
G01*
X49488794Y-572489D01*
X49500000Y-624000D01*
X49500000Y-49376000D01*
X49480315Y-49443039D01*
X49427511Y-49488794D01*
X49376000Y-49500000D01*
X624000Y-49500000D01*
X556961Y-49480315D01*
X511206Y-49427511D01*
X500000Y-49376000D01*
X500000Y-28209983D01*
X12269500Y-28209983D01*
X12269500Y-29410001D01*
X12269501Y-29410018D01*
X12280000Y-29512796D01*
X12280001Y-29512799D01*
X12296818Y-29563548D01*
X12335186Y-29679334D01*
X12427288Y-29828656D01*
X12551344Y-29952712D01*
X12700666Y-30044814D01*
X12867203Y-30099999D01*
X12969991Y-30110500D01*
X14170008Y-30110499D01*
X14272797Y-30099999D01*
X14439334Y-30044814D01*
X14588656Y-29952712D01*
X14712712Y-29828656D01*
X14804814Y-29679334D01*
X14831955Y-29597427D01*
X14871726Y-29539984D01*
X14936242Y-29513161D01*
X15005018Y-29525476D01*
X15049977Y-29563547D01*
X15118030Y-29657213D01*
X15118034Y-29657219D01*
X15262786Y-29801971D01*
X15383226Y-29889474D01*
X15428390Y-29922287D01*
X15544607Y-29981503D01*
X15610776Y-30015218D01*
X15610778Y-30015218D01*
X15610781Y-30015220D01*
X15701856Y-30044812D01*
X15805465Y-30078477D01*
X15906557Y-30094488D01*
X16007648Y-30110500D01*
X16007649Y-30110500D01*
X16212351Y-30110500D01*
X16212352Y-30110500D01*
X16414534Y-30078477D01*
X16609219Y-30015220D01*
X16791610Y-29922287D01*
X16920482Y-29828657D01*
X16957213Y-29801971D01*
X16957215Y-29801968D01*
X16957219Y-29801966D01*
X17101966Y-29657219D01*
X17101968Y-29657215D01*
X17101971Y-29657213D01*
X17222284Y-29491614D01*
X17222286Y-29491611D01*
X17222287Y-29491610D01*
X17269516Y-29398917D01*
X17317489Y-29348123D01*
X17385310Y-29331328D01*
X17451445Y-29353865D01*
X17490483Y-29398917D01*
X17496140Y-29410018D01*
X17537715Y-29491614D01*
X17658028Y-29657213D01*
X17802786Y-29801971D01*
X17923226Y-29889474D01*
X17968390Y-29922287D01*
X18084607Y-29981503D01*
X18150776Y-30015218D01*
X18150778Y-30015218D01*
X18150781Y-30015220D01*
X18241856Y-30044812D01*
X18345465Y-30078477D01*
X18446557Y-30094488D01*
X18547648Y-30110500D01*
X18547649Y-30110500D01*
X18752351Y-30110500D01*
X18752352Y-30110500D01*
X18954534Y-30078477D01*
X19149219Y-30015220D01*
X19331610Y-29922287D01*
X19460482Y-29828657D01*
X19497213Y-29801971D01*
X19497215Y-29801968D01*
X19497219Y-29801966D01*
X19641966Y-29657219D01*
X19641968Y-29657215D01*
X19641971Y-29657213D01*
X19762284Y-29491614D01*
X19762286Y-29491611D01*
X19762287Y-29491610D01*
X19809516Y-29398917D01*
X19857489Y-29348123D01*
X19925310Y-29331328D01*
X19991445Y-29353865D01*
X20030483Y-29398917D01*
X20036140Y-29410018D01*
X20077715Y-29491614D01*
X20198028Y-29657213D01*
X20342786Y-29801971D01*
X20463226Y-29889474D01*
X20508390Y-29922287D01*
X20624607Y-29981503D01*
X20690776Y-30015218D01*
X20690778Y-30015218D01*
X20690781Y-30015220D01*
X20781856Y-30044812D01*
X20885465Y-30078477D01*
X20986557Y-30094488D01*
X21087648Y-30110500D01*
X21087649Y-30110500D01*
X21292351Y-30110500D01*
X21292352Y-30110500D01*
X21494534Y-30078477D01*
X21689219Y-30015220D01*
X21871610Y-29922287D01*
X22000482Y-29828657D01*
X22037213Y-29801971D01*
X22037215Y-29801968D01*
X22037219Y-29801966D01*
X22181966Y-29657219D01*
X22181968Y-29657215D01*
X22181971Y-29657213D01*
X22302284Y-29491614D01*
X22302286Y-29491611D01*
X22302287Y-29491610D01*
X22349516Y-29398917D01*
X22397489Y-29348123D01*
X22465310Y-29331328D01*
X22531445Y-29353865D01*
X22570483Y-29398917D01*
X22576140Y-29410018D01*
X22617715Y-29491614D01*
X22738028Y-29657213D01*
X22882786Y-29801971D01*
X23003226Y-29889474D01*
X23048390Y-29922287D01*
X23164607Y-29981503D01*
X23230776Y-30015218D01*
X23230778Y-30015218D01*
X23230781Y-30015220D01*
X23321856Y-30044812D01*
X23425465Y-30078477D01*
X23526557Y-30094488D01*
X23627648Y-30110500D01*
X23627649Y-30110500D01*
X23832351Y-30110500D01*
X23832352Y-30110500D01*
X24034534Y-30078477D01*
X24229219Y-30015220D01*
X24411610Y-29922287D01*
X24540482Y-29828657D01*
X24577213Y-29801971D01*
X24577215Y-29801968D01*
X24577219Y-29801966D01*
X24721966Y-29657219D01*
X24721968Y-29657215D01*
X24721971Y-29657213D01*
X24842284Y-29491614D01*
X24842286Y-29491611D01*
X24842287Y-29491610D01*
X24889516Y-29398917D01*
X24937489Y-29348123D01*
X25005310Y-29331328D01*
X25071445Y-29353865D01*
X25110483Y-29398917D01*
X25116140Y-29410018D01*
X25157715Y-29491614D01*
X25278028Y-29657213D01*
X25422786Y-29801971D01*
X25543226Y-29889474D01*
X25588390Y-29922287D01*
X25704607Y-29981503D01*
X25770776Y-30015218D01*
X25770778Y-30015218D01*
X25770781Y-30015220D01*
X25861856Y-30044812D01*
X25965465Y-30078477D01*
X26066557Y-30094488D01*
X26167648Y-30110500D01*
X26167649Y-30110500D01*
X26372351Y-30110500D01*
X26372352Y-30110500D01*
X26574534Y-30078477D01*
X26769219Y-30015220D01*
X26951610Y-29922287D01*
X27080482Y-29828657D01*
X27117213Y-29801971D01*
X27117215Y-29801968D01*
X27117219Y-29801966D01*
X27261966Y-29657219D01*
X27261968Y-29657215D01*
X27261971Y-29657213D01*
X27382284Y-29491614D01*
X27382286Y-29491611D01*
X27382287Y-29491610D01*
X27429516Y-29398917D01*
X27477489Y-29348123D01*
X27545310Y-29331328D01*
X27611445Y-29353865D01*
X27650483Y-29398917D01*
X27656140Y-29410018D01*
X27697715Y-29491614D01*
X27818028Y-29657213D01*
X27962786Y-29801971D01*
X28083226Y-29889474D01*
X28128390Y-29922287D01*
X28244607Y-29981503D01*
X28310776Y-30015218D01*
X28310778Y-30015218D01*
X28310781Y-30015220D01*
X28401856Y-30044812D01*
X28505465Y-30078477D01*
X28606557Y-30094488D01*
X28707648Y-30110500D01*
X28707649Y-30110500D01*
X28912351Y-30110500D01*
X28912352Y-30110500D01*
X29114534Y-30078477D01*
X29309219Y-30015220D01*
X29491610Y-29922287D01*
X29620482Y-29828657D01*
X29657213Y-29801971D01*
X29657215Y-29801968D01*
X29657219Y-29801966D01*
X29801966Y-29657219D01*
X29801968Y-29657215D01*
X29801971Y-29657213D01*
X29922284Y-29491614D01*
X29922286Y-29491611D01*
X29922287Y-29491610D01*
X29969516Y-29398917D01*
X30017489Y-29348123D01*
X30085310Y-29331328D01*
X30151445Y-29353865D01*
X30190483Y-29398917D01*
X30196140Y-29410018D01*
X30237715Y-29491614D01*
X30358028Y-29657213D01*
X30502786Y-29801971D01*
X30623226Y-29889474D01*
X30668390Y-29922287D01*
X30784607Y-29981503D01*
X30850776Y-30015218D01*
X30850778Y-30015218D01*
X30850781Y-30015220D01*
X30941856Y-30044812D01*
X31045465Y-30078477D01*
X31146557Y-30094488D01*
X31247648Y-30110500D01*
X31247649Y-30110500D01*
X31452351Y-30110500D01*
X31452352Y-30110500D01*
X31654534Y-30078477D01*
X31849219Y-30015220D01*
X32031610Y-29922287D01*
X32160482Y-29828657D01*
X32197213Y-29801971D01*
X32197215Y-29801968D01*
X32197219Y-29801966D01*
X32341966Y-29657219D01*
X32341968Y-29657215D01*
X32341971Y-29657213D01*
X32462284Y-29491614D01*
X32462286Y-29491611D01*
X32462287Y-29491610D01*
X32509516Y-29398917D01*
X32557489Y-29348123D01*
X32625310Y-29331328D01*
X32691445Y-29353865D01*
X32730483Y-29398917D01*
X32736140Y-29410018D01*
X32777715Y-29491614D01*
X32898028Y-29657213D01*
X33042786Y-29801971D01*
X33163226Y-29889474D01*
X33208390Y-29922287D01*
X33324607Y-29981503D01*
X33390776Y-30015218D01*
X33390778Y-30015218D01*
X33390781Y-30015220D01*
X33481856Y-30044812D01*
X33585465Y-30078477D01*
X33686557Y-30094488D01*
X33787648Y-30110500D01*
X33787649Y-30110500D01*
X33992351Y-30110500D01*
X33992352Y-30110500D01*
X34194534Y-30078477D01*
X34389219Y-30015220D01*
X34571610Y-29922287D01*
X34700482Y-29828657D01*
X34737213Y-29801971D01*
X34737215Y-29801968D01*
X34737219Y-29801966D01*
X34881966Y-29657219D01*
X34881968Y-29657215D01*
X34881971Y-29657213D01*
X34986894Y-29512797D01*
X35002287Y-29491610D01*
X35049795Y-29398369D01*
X35097769Y-29347573D01*
X35165590Y-29330778D01*
X35231725Y-29353315D01*
X35270765Y-29398369D01*
X35318141Y-29491350D01*
X35318147Y-29491359D01*
X35350523Y-29535921D01*
X35350524Y-29535922D01*
X36030000Y-28856446D01*
X36030000Y-28862661D01*
X36057259Y-28964394D01*
X36109920Y-29055606D01*
X36184394Y-29130080D01*
X36275606Y-29182741D01*
X36377339Y-29210000D01*
X36383553Y-29210000D01*
X35704076Y-29889474D01*
X35748650Y-29921859D01*
X35930968Y-30014755D01*
X36125582Y-30077990D01*
X36327683Y-30110000D01*
X36532317Y-30110000D01*
X36734417Y-30077990D01*
X36929031Y-30014755D01*
X37111349Y-29921859D01*
X37155921Y-29889474D01*
X36476447Y-29210000D01*
X36482661Y-29210000D01*
X36584394Y-29182741D01*
X36675606Y-29130080D01*
X36750080Y-29055606D01*
X36802741Y-28964394D01*
X36830000Y-28862661D01*
X36830000Y-28856448D01*
X37509474Y-29535922D01*
X37509474Y-29535921D01*
X37541859Y-29491349D01*
X37634755Y-29309031D01*
X37697990Y-29114417D01*
X37730000Y-28912317D01*
X37730000Y-28707682D01*
X37697990Y-28505582D01*
X37634755Y-28310968D01*
X37541859Y-28128650D01*
X37509474Y-28084077D01*
X37509474Y-28084076D01*
X36830000Y-28763551D01*
X36830000Y-28757339D01*
X36802741Y-28655606D01*
X36750080Y-28564394D01*
X36675606Y-28489920D01*
X36584394Y-28437259D01*
X36482661Y-28410000D01*
X36476446Y-28410000D01*
X37155922Y-27730524D01*
X37155921Y-27730523D01*
X37111359Y-27698147D01*
X37111350Y-27698141D01*
X36929031Y-27605244D01*
X36734417Y-27542009D01*
X36532317Y-27510000D01*
X36327683Y-27510000D01*
X36125582Y-27542009D01*
X35930968Y-27605244D01*
X35748644Y-27698143D01*
X35704077Y-27730523D01*
X35704077Y-27730524D01*
X36383554Y-28410000D01*
X36377339Y-28410000D01*
X36275606Y-28437259D01*
X36184394Y-28489920D01*
X36109920Y-28564394D01*
X36057259Y-28655606D01*
X36030000Y-28757339D01*
X36030000Y-28763553D01*
X35350524Y-28084077D01*
X35350523Y-28084077D01*
X35318143Y-28128644D01*
X35270765Y-28221630D01*
X35222790Y-28272426D01*
X35154969Y-28289221D01*
X35088834Y-28266683D01*
X35049795Y-28221630D01*
X35002284Y-28128385D01*
X34881971Y-27962786D01*
X34737213Y-27818028D01*
X34571613Y-27697715D01*
X34571612Y-27697714D01*
X34571610Y-27697713D01*
X34511898Y-27667288D01*
X34389223Y-27604781D01*
X34194534Y-27541522D01*
X34019995Y-27513878D01*
X33992352Y-27509500D01*
X33787648Y-27509500D01*
X33763329Y-27513351D01*
X33585465Y-27541522D01*
X33390776Y-27604781D01*
X33208386Y-27697715D01*
X33042786Y-27818028D01*
X32898028Y-27962786D01*
X32777715Y-28128386D01*
X32730485Y-28221080D01*
X32682510Y-28271876D01*
X32614689Y-28288671D01*
X32548554Y-28266134D01*
X32509515Y-28221080D01*
X32462419Y-28128650D01*
X32462287Y-28128390D01*
X32430092Y-28084077D01*
X32341971Y-27962786D01*
X32197213Y-27818028D01*
X32031613Y-27697715D01*
X32031612Y-27697714D01*
X32031610Y-27697713D01*
X31971898Y-27667288D01*
X31849223Y-27604781D01*
X31654534Y-27541522D01*
X31479995Y-27513878D01*
X31452352Y-27509500D01*
X31247648Y-27509500D01*
X31223329Y-27513351D01*
X31045465Y-27541522D01*
X30850776Y-27604781D01*
X30668386Y-27697715D01*
X30502786Y-27818028D01*
X30358028Y-27962786D01*
X30237715Y-28128386D01*
X30190485Y-28221080D01*
X30142510Y-28271876D01*
X30074689Y-28288671D01*
X30008554Y-28266134D01*
X29969515Y-28221080D01*
X29922419Y-28128650D01*
X29922287Y-28128390D01*
X29890092Y-28084077D01*
X29801971Y-27962786D01*
X29657213Y-27818028D01*
X29491613Y-27697715D01*
X29491612Y-27697714D01*
X29491610Y-27697713D01*
X29431898Y-27667288D01*
X29309223Y-27604781D01*
X29114534Y-27541522D01*
X28939995Y-27513878D01*
X28912352Y-27509500D01*
X28707648Y-27509500D01*
X28683329Y-27513351D01*
X28505465Y-27541522D01*
X28310776Y-27604781D01*
X28128386Y-27697715D01*
X27962786Y-27818028D01*
X27818028Y-27962786D01*
X27697715Y-28128386D01*
X27650485Y-28221080D01*
X27602510Y-28271876D01*
X27534689Y-28288671D01*
X27468554Y-28266134D01*
X27429515Y-28221080D01*
X27382419Y-28128650D01*
X27382287Y-28128390D01*
X27350092Y-28084077D01*
X27261971Y-27962786D01*
X27117213Y-27818028D01*
X26951613Y-27697715D01*
X26951612Y-27697714D01*
X26951610Y-27697713D01*
X26891898Y-27667288D01*
X26769223Y-27604781D01*
X26574534Y-27541522D01*
X26399995Y-27513878D01*
X26372352Y-27509500D01*
X26167648Y-27509500D01*
X26143329Y-27513351D01*
X25965465Y-27541522D01*
X25770776Y-27604781D01*
X25588386Y-27697715D01*
X25422786Y-27818028D01*
X25278028Y-27962786D01*
X25157715Y-28128386D01*
X25110485Y-28221080D01*
X25062510Y-28271876D01*
X24994689Y-28288671D01*
X24928554Y-28266134D01*
X24889515Y-28221080D01*
X24842419Y-28128650D01*
X24842287Y-28128390D01*
X24810092Y-28084077D01*
X24721971Y-27962786D01*
X24577213Y-27818028D01*
X24411613Y-27697715D01*
X24411612Y-27697714D01*
X24411610Y-27697713D01*
X24351898Y-27667288D01*
X24229223Y-27604781D01*
X24034534Y-27541522D01*
X23859995Y-27513878D01*
X23832352Y-27509500D01*
X23627648Y-27509500D01*
X23603329Y-27513351D01*
X23425465Y-27541522D01*
X23230776Y-27604781D01*
X23048386Y-27697715D01*
X22882786Y-27818028D01*
X22738028Y-27962786D01*
X22617715Y-28128386D01*
X22570485Y-28221080D01*
X22522510Y-28271876D01*
X22454689Y-28288671D01*
X22388554Y-28266134D01*
X22349515Y-28221080D01*
X22302419Y-28128650D01*
X22302287Y-28128390D01*
X22270092Y-28084077D01*
X22181971Y-27962786D01*
X22037213Y-27818028D01*
X21871613Y-27697715D01*
X21871612Y-27697714D01*
X21871610Y-27697713D01*
X21811898Y-27667288D01*
X21689223Y-27604781D01*
X21494534Y-27541522D01*
X21319995Y-27513878D01*
X21292352Y-27509500D01*
X21087648Y-27509500D01*
X21063329Y-27513351D01*
X20885465Y-27541522D01*
X20690776Y-27604781D01*
X20508386Y-27697715D01*
X20342786Y-27818028D01*
X20198028Y-27962786D01*
X20077715Y-28128386D01*
X20030485Y-28221080D01*
X19982510Y-28271876D01*
X19914689Y-28288671D01*
X19848554Y-28266134D01*
X19809515Y-28221080D01*
X19762419Y-28128650D01*
X19762287Y-28128390D01*
X19730092Y-28084077D01*
X19641971Y-27962786D01*
X19497213Y-27818028D01*
X19331613Y-27697715D01*
X19331612Y-27697714D01*
X19331610Y-27697713D01*
X19271898Y-27667288D01*
X19149223Y-27604781D01*
X18954534Y-27541522D01*
X18779995Y-27513878D01*
X18752352Y-27509500D01*
X18547648Y-27509500D01*
X18523329Y-27513351D01*
X18345465Y-27541522D01*
X18150776Y-27604781D01*
X17968386Y-27697715D01*
X17802786Y-27818028D01*
X17658028Y-27962786D01*
X17537715Y-28128386D01*
X17490485Y-28221080D01*
X17442510Y-28271876D01*
X17374689Y-28288671D01*
X17308554Y-28266134D01*
X17269515Y-28221080D01*
X17222419Y-28128650D01*
X17222287Y-28128390D01*
X17190092Y-28084077D01*
X17101971Y-27962786D01*
X16957213Y-27818028D01*
X16791613Y-27697715D01*
X16791612Y-27697714D01*
X16791610Y-27697713D01*
X16731898Y-27667288D01*
X16609223Y-27604781D01*
X16414534Y-27541522D01*
X16239995Y-27513878D01*
X16212352Y-27509500D01*
X16007648Y-27509500D01*
X15983329Y-27513351D01*
X15805465Y-27541522D01*
X15610776Y-27604781D01*
X15428386Y-27697715D01*
X15262786Y-27818028D01*
X15118032Y-27962782D01*
X15118028Y-27962787D01*
X15049978Y-28056451D01*
X14994648Y-28099117D01*
X14925035Y-28105096D01*
X14863240Y-28072490D01*
X14831954Y-28022570D01*
X14812144Y-27962787D01*
X14804814Y-27940666D01*
X14712712Y-27791344D01*
X14588656Y-27667288D01*
X14439334Y-27575186D01*
X14272797Y-27520001D01*
X14272795Y-27520000D01*
X14170010Y-27509500D01*
X12969998Y-27509500D01*
X12969981Y-27509501D01*
X12867203Y-27520000D01*
X12867200Y-27520001D01*
X12700668Y-27575185D01*
X12700663Y-27575187D01*
X12551342Y-27667289D01*
X12427289Y-27791342D01*
X12335187Y-27940663D01*
X12335185Y-27940668D01*
X12308046Y-28022570D01*
X12280001Y-28107203D01*
X12280001Y-28107204D01*
X12280000Y-28107204D01*
X12269500Y-28209983D01*
X500000Y-28209983D01*
X500000Y-26550000D01*
X1950000Y-26550000D01*
X5050000Y-26550000D01*
X5050000Y-23450000D01*
X1950000Y-23450000D01*
X1950000Y-26550000D01*
X500000Y-26550000D01*
X500000Y-23277135D01*
X6949500Y-23277135D01*
X6949500Y-25072870D01*
X6949501Y-25072876D01*
X6955908Y-25132483D01*
X7006202Y-25267328D01*
X7006206Y-25267335D01*
X7092452Y-25382544D01*
X7092455Y-25382547D01*
X7207664Y-25468793D01*
X7207671Y-25468797D01*
X7252618Y-25485561D01*
X7342517Y-25519091D01*
X7402127Y-25525500D01*
X7412685Y-25525499D01*
X7479723Y-25545179D01*
X7500372Y-25561818D01*
X8170591Y-26232037D01*
X8107007Y-26249075D01*
X7992993Y-26314901D01*
X7899901Y-26407993D01*
X7834075Y-26522007D01*
X7817037Y-26585591D01*
X7184728Y-25953282D01*
X7184727Y-25953282D01*
X7145380Y-26007439D01*
X7048904Y-26196782D01*
X6983242Y-26398869D01*
X6983242Y-26398872D01*
X6950000Y-26608753D01*
X6950000Y-26821246D01*
X6983242Y-27031127D01*
X6983242Y-27031130D01*
X7048904Y-27233217D01*
X7145375Y-27422550D01*
X7184728Y-27476716D01*
X7817037Y-26844408D01*
X7834075Y-26907993D01*
X7899901Y-27022007D01*
X7992993Y-27115099D01*
X8107007Y-27180925D01*
X8170590Y-27197962D01*
X7538282Y-27830269D01*
X7538282Y-27830270D01*
X7592449Y-27869624D01*
X7781782Y-27966095D01*
X7983870Y-28031757D01*
X8193754Y-28065000D01*
X8406246Y-28065000D01*
X8616127Y-28031757D01*
X8616130Y-28031757D01*
X8818217Y-27966095D01*
X9007554Y-27869622D01*
X9061716Y-27830270D01*
X9061717Y-27830270D01*
X8429408Y-27197962D01*
X8492993Y-27180925D01*
X8607007Y-27115099D01*
X8700099Y-27022007D01*
X8765925Y-26907993D01*
X8782962Y-26844408D01*
X9415270Y-27476717D01*
X9415270Y-27476716D01*
X9454622Y-27422554D01*
X9551095Y-27233217D01*
X9616757Y-27031130D01*
X9616757Y-27031127D01*
X9650000Y-26821246D01*
X9650000Y-26608753D01*
X9640694Y-26550000D01*
X44950000Y-26550000D01*
X48050000Y-26550000D01*
X48050000Y-23450000D01*
X44950000Y-23450000D01*
X44950000Y-26550000D01*
X9640694Y-26550000D01*
X9616757Y-26398872D01*
X9616757Y-26398869D01*
X9551095Y-26196782D01*
X9454624Y-26007449D01*
X9415270Y-25953282D01*
X9415269Y-25953282D01*
X8782962Y-26585590D01*
X8765925Y-26522007D01*
X8700099Y-26407993D01*
X8607007Y-26314901D01*
X8492993Y-26249075D01*
X8429409Y-26232037D01*
X9099627Y-25561818D01*
X9160950Y-25528333D01*
X9187307Y-25525499D01*
X9197872Y-25525499D01*
X9257483Y-25519091D01*
X9392331Y-25468796D01*
X9507546Y-25382546D01*
X9593796Y-25267331D01*
X9644091Y-25132483D01*
X9650500Y-25072873D01*
X9650499Y-23277128D01*
X9644091Y-23217517D01*
X9593796Y-23082669D01*
X9593795Y-23082668D01*
X9593793Y-23082664D01*
X9507547Y-22967455D01*
X9507544Y-22967452D01*
X9392335Y-22881206D01*
X9392328Y-22881202D01*
X9257482Y-22830908D01*
X9257483Y-22830908D01*
X9197883Y-22824501D01*
X9197881Y-22824500D01*
X9197873Y-22824500D01*
X9197864Y-22824500D01*
X7402129Y-22824500D01*
X7402123Y-22824501D01*
X7342516Y-22830908D01*
X7207671Y-22881202D01*
X7207664Y-22881206D01*
X7092455Y-22967452D01*
X7092452Y-22967455D01*
X7006206Y-23082664D01*
X7006202Y-23082671D01*
X6955908Y-23217517D01*
X6949501Y-23277116D01*
X6949501Y-23277123D01*
X6949500Y-23277135D01*
X500000Y-23277135D01*
X500000Y-21087648D01*
X12269500Y-21087648D01*
X12269500Y-21292351D01*
X12301522Y-21494534D01*
X12364781Y-21689223D01*
X12457715Y-21871613D01*
X12578028Y-22037213D01*
X12722786Y-22181971D01*
X12877749Y-22294556D01*
X12888390Y-22302287D01*
X13004607Y-22361503D01*
X13070776Y-22395218D01*
X13070778Y-22395218D01*
X13070781Y-22395220D01*
X13175137Y-22429127D01*
X13265465Y-22458477D01*
X13366557Y-22474488D01*
X13467648Y-22490500D01*
X13467649Y-22490500D01*
X13672351Y-22490500D01*
X13672352Y-22490500D01*
X13874534Y-22458477D01*
X14069219Y-22395220D01*
X14251610Y-22302287D01*
X14344590Y-22234732D01*
X14417213Y-22181971D01*
X14417215Y-22181968D01*
X14417219Y-22181966D01*
X14561966Y-22037219D01*
X14561968Y-22037215D01*
X14561971Y-22037213D01*
X14682284Y-21871614D01*
X14682285Y-21871613D01*
X14682287Y-21871610D01*
X14729516Y-21778917D01*
X14777489Y-21728123D01*
X14845310Y-21711328D01*
X14911445Y-21733865D01*
X14950485Y-21778919D01*
X14997715Y-21871614D01*
X15118028Y-22037213D01*
X15262786Y-22181971D01*
X15417749Y-22294556D01*
X15428390Y-22302287D01*
X15544607Y-22361503D01*
X15610776Y-22395218D01*
X15610778Y-22395218D01*
X15610781Y-22395220D01*
X15715137Y-22429127D01*
X15805465Y-22458477D01*
X15906557Y-22474488D01*
X16007648Y-22490500D01*
X16007649Y-22490500D01*
X16212351Y-22490500D01*
X16212352Y-22490500D01*
X16414534Y-22458477D01*
X16609219Y-22395220D01*
X16791610Y-22302287D01*
X16884590Y-22234732D01*
X16957213Y-22181971D01*
X16957215Y-22181968D01*
X16957219Y-22181966D01*
X17101966Y-22037219D01*
X17101968Y-22037215D01*
X17101971Y-22037213D01*
X17222284Y-21871614D01*
X17222285Y-21871613D01*
X17222287Y-21871610D01*
X17269516Y-21778917D01*
X17317489Y-21728123D01*
X17385310Y-21711328D01*
X17451445Y-21733865D01*
X17490485Y-21778919D01*
X17537715Y-21871614D01*
X17658028Y-22037213D01*
X17802786Y-22181971D01*
X17957749Y-22294556D01*
X17968390Y-22302287D01*
X18084607Y-22361503D01*
X18150776Y-22395218D01*
X18150778Y-22395218D01*
X18150781Y-22395220D01*
X18255137Y-22429127D01*
X18345465Y-22458477D01*
X18446557Y-22474488D01*
X18547648Y-22490500D01*
X18547649Y-22490500D01*
X18752351Y-22490500D01*
X18752352Y-22490500D01*
X18954534Y-22458477D01*
X19149219Y-22395220D01*
X19331610Y-22302287D01*
X19424590Y-22234732D01*
X19497213Y-22181971D01*
X19497215Y-22181968D01*
X19497219Y-22181966D01*
X19641966Y-22037219D01*
X19641968Y-22037215D01*
X19641971Y-22037213D01*
X19762284Y-21871614D01*
X19762285Y-21871613D01*
X19762287Y-21871610D01*
X19809516Y-21778917D01*
X19857489Y-21728123D01*
X19925310Y-21711328D01*
X19991445Y-21733865D01*
X20030485Y-21778919D01*
X20077715Y-21871614D01*
X20198028Y-22037213D01*
X20342786Y-22181971D01*
X20497749Y-22294556D01*
X20508390Y-22302287D01*
X20624607Y-22361503D01*
X20690776Y-22395218D01*
X20690778Y-22395218D01*
X20690781Y-22395220D01*
X20795137Y-22429127D01*
X20885465Y-22458477D01*
X20986557Y-22474488D01*
X21087648Y-22490500D01*
X21087649Y-22490500D01*
X21292351Y-22490500D01*
X21292352Y-22490500D01*
X21494534Y-22458477D01*
X21689219Y-22395220D01*
X21871610Y-22302287D01*
X21964590Y-22234732D01*
X22037213Y-22181971D01*
X22037215Y-22181968D01*
X22037219Y-22181966D01*
X22181966Y-22037219D01*
X22181968Y-22037215D01*
X22181971Y-22037213D01*
X22302284Y-21871614D01*
X22302285Y-21871613D01*
X22302287Y-21871610D01*
X22349516Y-21778917D01*
X22397489Y-21728123D01*
X22465310Y-21711328D01*
X22531445Y-21733865D01*
X22570485Y-21778919D01*
X22617715Y-21871614D01*
X22738028Y-22037213D01*
X22882786Y-22181971D01*
X23037749Y-22294556D01*
X23048390Y-22302287D01*
X23164607Y-22361503D01*
X23230776Y-22395218D01*
X23230778Y-22395218D01*
X23230781Y-22395220D01*
X23335137Y-22429127D01*
X23425465Y-22458477D01*
X23526557Y-22474488D01*
X23627648Y-22490500D01*
X23627649Y-22490500D01*
X23832351Y-22490500D01*
X23832352Y-22490500D01*
X24034534Y-22458477D01*
X24229219Y-22395220D01*
X24411610Y-22302287D01*
X24504590Y-22234732D01*
X24577213Y-22181971D01*
X24577215Y-22181968D01*
X24577219Y-22181966D01*
X24721966Y-22037219D01*
X24721968Y-22037215D01*
X24721971Y-22037213D01*
X24842284Y-21871614D01*
X24842285Y-21871613D01*
X24842287Y-21871610D01*
X24889516Y-21778917D01*
X24937489Y-21728123D01*
X25005310Y-21711328D01*
X25071445Y-21733865D01*
X25110485Y-21778919D01*
X25157715Y-21871614D01*
X25278028Y-22037213D01*
X25422786Y-22181971D01*
X25577749Y-22294556D01*
X25588390Y-22302287D01*
X25704607Y-22361503D01*
X25770776Y-22395218D01*
X25770778Y-22395218D01*
X25770781Y-22395220D01*
X25875137Y-22429127D01*
X25965465Y-22458477D01*
X26066557Y-22474488D01*
X26167648Y-22490500D01*
X26167649Y-22490500D01*
X26372351Y-22490500D01*
X26372352Y-22490500D01*
X26574534Y-22458477D01*
X26769219Y-22395220D01*
X26951610Y-22302287D01*
X27044590Y-22234732D01*
X27117213Y-22181971D01*
X27117215Y-22181968D01*
X27117219Y-22181966D01*
X27261966Y-22037219D01*
X27261968Y-22037215D01*
X27261971Y-22037213D01*
X27382284Y-21871614D01*
X27382285Y-21871613D01*
X27382287Y-21871610D01*
X27429516Y-21778917D01*
X27477489Y-21728123D01*
X27545310Y-21711328D01*
X27611445Y-21733865D01*
X27650485Y-21778919D01*
X27697715Y-21871614D01*
X27818028Y-22037213D01*
X27962786Y-22181971D01*
X28117749Y-22294556D01*
X28128390Y-22302287D01*
X28244607Y-22361503D01*
X28310776Y-22395218D01*
X28310778Y-22395218D01*
X28310781Y-22395220D01*
X28415137Y-22429127D01*
X28505465Y-22458477D01*
X28606557Y-22474488D01*
X28707648Y-22490500D01*
X28707649Y-22490500D01*
X28912351Y-22490500D01*
X28912352Y-22490500D01*
X29114534Y-22458477D01*
X29309219Y-22395220D01*
X29491610Y-22302287D01*
X29584590Y-22234732D01*
X29657213Y-22181971D01*
X29657215Y-22181968D01*
X29657219Y-22181966D01*
X29801966Y-22037219D01*
X29801968Y-22037215D01*
X29801971Y-22037213D01*
X29922284Y-21871614D01*
X29922285Y-21871613D01*
X29922287Y-21871610D01*
X29969516Y-21778917D01*
X30017489Y-21728123D01*
X30085310Y-21711328D01*
X30151445Y-21733865D01*
X30190485Y-21778919D01*
X30237715Y-21871614D01*
X30358028Y-22037213D01*
X30502786Y-22181971D01*
X30657749Y-22294556D01*
X30668390Y-22302287D01*
X30784607Y-22361503D01*
X30850776Y-22395218D01*
X30850778Y-22395218D01*
X30850781Y-22395220D01*
X30955137Y-22429127D01*
X31045465Y-22458477D01*
X31146557Y-22474488D01*
X31247648Y-22490500D01*
X31247649Y-22490500D01*
X31452351Y-22490500D01*
X31452352Y-22490500D01*
X31654534Y-22458477D01*
X31849219Y-22395220D01*
X32031610Y-22302287D01*
X32124590Y-22234732D01*
X32197213Y-22181971D01*
X32197215Y-22181968D01*
X32197219Y-22181966D01*
X32341966Y-22037219D01*
X32341968Y-22037215D01*
X32341971Y-22037213D01*
X32462284Y-21871614D01*
X32462285Y-21871613D01*
X32462287Y-21871610D01*
X32509516Y-21778917D01*
X32557489Y-21728123D01*
X32625310Y-21711328D01*
X32691445Y-21733865D01*
X32730485Y-21778919D01*
X32777715Y-21871614D01*
X32898028Y-22037213D01*
X33042786Y-22181971D01*
X33197749Y-22294556D01*
X33208390Y-22302287D01*
X33324607Y-22361503D01*
X33390776Y-22395218D01*
X33390778Y-22395218D01*
X33390781Y-22395220D01*
X33495137Y-22429127D01*
X33585465Y-22458477D01*
X33686557Y-22474488D01*
X33787648Y-22490500D01*
X33787649Y-22490500D01*
X33992351Y-22490500D01*
X33992352Y-22490500D01*
X34194534Y-22458477D01*
X34389219Y-22395220D01*
X34571610Y-22302287D01*
X34664590Y-22234732D01*
X34737213Y-22181971D01*
X34737215Y-22181968D01*
X34737219Y-22181966D01*
X34881966Y-22037219D01*
X34881968Y-22037215D01*
X34881971Y-22037213D01*
X35002284Y-21871614D01*
X35002285Y-21871613D01*
X35002287Y-21871610D01*
X35049516Y-21778917D01*
X35097489Y-21728123D01*
X35165310Y-21711328D01*
X35231445Y-21733865D01*
X35270485Y-21778919D01*
X35317715Y-21871614D01*
X35438028Y-22037213D01*
X35582786Y-22181971D01*
X35737749Y-22294556D01*
X35748390Y-22302287D01*
X35864607Y-22361503D01*
X35930776Y-22395218D01*
X35930778Y-22395218D01*
X35930781Y-22395220D01*
X36035137Y-22429127D01*
X36125465Y-22458477D01*
X36226557Y-22474488D01*
X36327648Y-22490500D01*
X36327649Y-22490500D01*
X36532351Y-22490500D01*
X36532352Y-22490500D01*
X36734534Y-22458477D01*
X36929219Y-22395220D01*
X37111610Y-22302287D01*
X37204590Y-22234732D01*
X37277213Y-22181971D01*
X37277215Y-22181968D01*
X37277219Y-22181966D01*
X37421966Y-22037219D01*
X37421968Y-22037215D01*
X37421971Y-22037213D01*
X37474732Y-21964590D01*
X37542287Y-21871610D01*
X37635220Y-21689219D01*
X37698477Y-21494534D01*
X37730500Y-21292352D01*
X37730500Y-21087648D01*
X37698477Y-20885466D01*
X37635220Y-20690781D01*
X37635218Y-20690778D01*
X37635218Y-20690776D01*
X37589515Y-20601080D01*
X37542287Y-20508390D01*
X37533856Y-20496786D01*
X37421971Y-20342786D01*
X37277213Y-20198028D01*
X37111613Y-20077715D01*
X37111612Y-20077714D01*
X37111610Y-20077713D01*
X37054653Y-20048691D01*
X36929223Y-19984781D01*
X36734534Y-19921522D01*
X36559995Y-19893878D01*
X36532352Y-19889500D01*
X36327648Y-19889500D01*
X36303329Y-19893351D01*
X36125465Y-19921522D01*
X35930776Y-19984781D01*
X35748386Y-20077715D01*
X35582786Y-20198028D01*
X35438028Y-20342786D01*
X35317715Y-20508386D01*
X35270485Y-20601080D01*
X35222510Y-20651876D01*
X35154689Y-20668671D01*
X35088554Y-20646134D01*
X35049515Y-20601080D01*
X35048883Y-20599840D01*
X35002287Y-20508390D01*
X34993856Y-20496786D01*
X34881971Y-20342786D01*
X34737213Y-20198028D01*
X34571613Y-20077715D01*
X34571612Y-20077714D01*
X34571610Y-20077713D01*
X34514653Y-20048691D01*
X34389223Y-19984781D01*
X34194534Y-19921522D01*
X34019995Y-19893878D01*
X33992352Y-19889500D01*
X33787648Y-19889500D01*
X33763329Y-19893351D01*
X33585465Y-19921522D01*
X33390776Y-19984781D01*
X33208386Y-20077715D01*
X33042786Y-20198028D01*
X32898028Y-20342786D01*
X32777715Y-20508386D01*
X32730485Y-20601080D01*
X32682510Y-20651876D01*
X32614689Y-20668671D01*
X32548554Y-20646134D01*
X32509515Y-20601080D01*
X32508883Y-20599840D01*
X32462287Y-20508390D01*
X32453856Y-20496786D01*
X32341971Y-20342786D01*
X32197213Y-20198028D01*
X32031613Y-20077715D01*
X32031612Y-20077714D01*
X32031610Y-20077713D01*
X31974653Y-20048691D01*
X31849223Y-19984781D01*
X31654534Y-19921522D01*
X31479995Y-19893878D01*
X31452352Y-19889500D01*
X31247648Y-19889500D01*
X31223329Y-19893351D01*
X31045465Y-19921522D01*
X30850776Y-19984781D01*
X30668386Y-20077715D01*
X30502786Y-20198028D01*
X30358028Y-20342786D01*
X30237715Y-20508386D01*
X30190485Y-20601080D01*
X30142510Y-20651876D01*
X30074689Y-20668671D01*
X30008554Y-20646134D01*
X29969515Y-20601080D01*
X29968883Y-20599840D01*
X29922287Y-20508390D01*
X29913856Y-20496786D01*
X29801971Y-20342786D01*
X29657213Y-20198028D01*
X29491613Y-20077715D01*
X29491612Y-20077714D01*
X29491610Y-20077713D01*
X29434653Y-20048691D01*
X29309223Y-19984781D01*
X29114534Y-19921522D01*
X28939995Y-19893878D01*
X28912352Y-19889500D01*
X28707648Y-19889500D01*
X28683329Y-19893351D01*
X28505465Y-19921522D01*
X28310776Y-19984781D01*
X28128386Y-20077715D01*
X27962786Y-20198028D01*
X27818028Y-20342786D01*
X27697715Y-20508386D01*
X27650485Y-20601080D01*
X27602510Y-20651876D01*
X27534689Y-20668671D01*
X27468554Y-20646134D01*
X27429515Y-20601080D01*
X27428883Y-20599840D01*
X27382287Y-20508390D01*
X27373856Y-20496786D01*
X27261971Y-20342786D01*
X27117213Y-20198028D01*
X26951613Y-20077715D01*
X26951612Y-20077714D01*
X26951610Y-20077713D01*
X26894653Y-20048691D01*
X26769223Y-19984781D01*
X26574534Y-19921522D01*
X26399995Y-19893878D01*
X26372352Y-19889500D01*
X26167648Y-19889500D01*
X26143329Y-19893351D01*
X25965465Y-19921522D01*
X25770776Y-19984781D01*
X25588386Y-20077715D01*
X25422786Y-20198028D01*
X25278028Y-20342786D01*
X25157715Y-20508386D01*
X25110485Y-20601080D01*
X25062510Y-20651876D01*
X24994689Y-20668671D01*
X24928554Y-20646134D01*
X24889515Y-20601080D01*
X24888883Y-20599840D01*
X24842287Y-20508390D01*
X24833856Y-20496786D01*
X24721971Y-20342786D01*
X24577213Y-20198028D01*
X24411613Y-20077715D01*
X24411612Y-20077714D01*
X24411610Y-20077713D01*
X24354653Y-20048691D01*
X24229223Y-19984781D01*
X24034534Y-19921522D01*
X23859995Y-19893878D01*
X23832352Y-19889500D01*
X23627648Y-19889500D01*
X23603329Y-19893351D01*
X23425465Y-19921522D01*
X23230776Y-19984781D01*
X23048386Y-20077715D01*
X22882786Y-20198028D01*
X22738028Y-20342786D01*
X22617715Y-20508386D01*
X22570485Y-20601080D01*
X22522510Y-20651876D01*
X22454689Y-20668671D01*
X22388554Y-20646134D01*
X22349515Y-20601080D01*
X22348883Y-20599840D01*
X22302287Y-20508390D01*
X22293856Y-20496786D01*
X22181971Y-20342786D01*
X22037213Y-20198028D01*
X21871613Y-20077715D01*
X21871612Y-20077714D01*
X21871610Y-20077713D01*
X21814653Y-20048691D01*
X21689223Y-19984781D01*
X21494534Y-19921522D01*
X21319995Y-19893878D01*
X21292352Y-19889500D01*
X21087648Y-19889500D01*
X21063329Y-19893351D01*
X20885465Y-19921522D01*
X20690776Y-19984781D01*
X20508386Y-20077715D01*
X20342786Y-20198028D01*
X20198028Y-20342786D01*
X20077715Y-20508386D01*
X20030485Y-20601080D01*
X19982510Y-20651876D01*
X19914689Y-20668671D01*
X19848554Y-20646134D01*
X19809515Y-20601080D01*
X19808883Y-20599840D01*
X19762287Y-20508390D01*
X19753856Y-20496786D01*
X19641971Y-20342786D01*
X19497213Y-20198028D01*
X19331613Y-20077715D01*
X19331612Y-20077714D01*
X19331610Y-20077713D01*
X19274653Y-20048691D01*
X19149223Y-19984781D01*
X18954534Y-19921522D01*
X18779995Y-19893878D01*
X18752352Y-19889500D01*
X18547648Y-19889500D01*
X18523329Y-19893351D01*
X18345465Y-19921522D01*
X18150776Y-19984781D01*
X17968386Y-20077715D01*
X17802786Y-20198028D01*
X17658028Y-20342786D01*
X17537715Y-20508386D01*
X17490485Y-20601080D01*
X17442510Y-20651876D01*
X17374689Y-20668671D01*
X17308554Y-20646134D01*
X17269515Y-20601080D01*
X17268883Y-20599840D01*
X17222287Y-20508390D01*
X17213856Y-20496786D01*
X17101971Y-20342786D01*
X16957213Y-20198028D01*
X16791613Y-20077715D01*
X16791612Y-20077714D01*
X16791610Y-20077713D01*
X16734653Y-20048691D01*
X16609223Y-19984781D01*
X16414534Y-19921522D01*
X16239995Y-19893878D01*
X16212352Y-19889500D01*
X16007648Y-19889500D01*
X15983329Y-19893351D01*
X15805465Y-19921522D01*
X15610776Y-19984781D01*
X15428386Y-20077715D01*
X15262786Y-20198028D01*
X15118028Y-20342786D01*
X14997715Y-20508386D01*
X14950485Y-20601080D01*
X14902510Y-20651876D01*
X14834689Y-20668671D01*
X14768554Y-20646134D01*
X14729515Y-20601080D01*
X14728883Y-20599840D01*
X14682287Y-20508390D01*
X14673856Y-20496786D01*
X14561971Y-20342786D01*
X14417213Y-20198028D01*
X14251613Y-20077715D01*
X14251612Y-20077714D01*
X14251610Y-20077713D01*
X14194653Y-20048691D01*
X14069223Y-19984781D01*
X13874534Y-19921522D01*
X13699995Y-19893878D01*
X13672352Y-19889500D01*
X13467648Y-19889500D01*
X13443329Y-19893351D01*
X13265465Y-19921522D01*
X13070776Y-19984781D01*
X12888386Y-20077715D01*
X12722786Y-20198028D01*
X12578028Y-20342786D01*
X12457715Y-20508386D01*
X12364781Y-20690776D01*
X12301522Y-20885465D01*
X12269500Y-21087648D01*
X500000Y-21087648D01*
X500000Y-18183153D01*
X42199500Y-18183153D01*
X42199500Y-18340846D01*
X42230261Y-18495489D01*
X42230264Y-18495501D01*
X42290602Y-18641172D01*
X42290609Y-18641185D01*
X42378210Y-18772288D01*
X42378213Y-18772292D01*
X42489707Y-18883786D01*
X42489711Y-18883789D01*
X42620814Y-18971390D01*
X42620827Y-18971397D01*
X42766498Y-19031735D01*
X42766503Y-19031737D01*
X42921153Y-19062499D01*
X42921156Y-19062500D01*
X42921158Y-19062500D01*
X43078844Y-19062500D01*
X43078845Y-19062499D01*
X43233497Y-19031737D01*
X43258962Y-19021188D01*
X43328430Y-19013720D01*
X43341902Y-19016936D01*
X47699342Y-20318519D01*
X47757942Y-20356568D01*
X47766947Y-20368432D01*
X47778211Y-20385289D01*
X47778212Y-20385290D01*
X47778215Y-20385294D01*
X47889707Y-20496786D01*
X47889711Y-20496789D01*
X48020814Y-20584390D01*
X48020827Y-20584397D01*
X48166498Y-20644735D01*
X48166503Y-20644737D01*
X48286827Y-20668671D01*
X48321153Y-20675499D01*
X48321156Y-20675500D01*
X48321158Y-20675500D01*
X48478844Y-20675500D01*
X48478845Y-20675499D01*
X48633497Y-20644737D01*
X48779179Y-20584394D01*
X48910289Y-20496789D01*
X49021789Y-20385289D01*
X49109394Y-20254179D01*
X49169737Y-20108497D01*
X49200500Y-19953842D01*
X49200500Y-19796158D01*
X49200500Y-19796155D01*
X49200499Y-19796153D01*
X49169738Y-19641510D01*
X49169737Y-19641503D01*
X49169735Y-19641498D01*
X49109397Y-19495827D01*
X49109390Y-19495814D01*
X49021789Y-19364711D01*
X49021786Y-19364707D01*
X48910292Y-19253213D01*
X48910288Y-19253210D01*
X48779185Y-19165609D01*
X48779172Y-19165602D01*
X48633501Y-19105264D01*
X48633489Y-19105261D01*
X48478845Y-19074500D01*
X48478842Y-19074500D01*
X48321158Y-19074500D01*
X48321156Y-19074500D01*
X48166505Y-19105262D01*
X48166498Y-19105264D01*
X48141035Y-19115811D01*
X48071565Y-19123278D01*
X48058095Y-19120062D01*
X47670627Y-19004324D01*
X46893821Y-18772289D01*
X43700657Y-17818479D01*
X43642056Y-17780430D01*
X43633044Y-17768555D01*
X43621790Y-17751712D01*
X43621786Y-17751707D01*
X43510292Y-17640213D01*
X43510288Y-17640210D01*
X43379185Y-17552609D01*
X43379172Y-17552602D01*
X43233501Y-17492264D01*
X43233489Y-17492261D01*
X43078845Y-17461500D01*
X43078842Y-17461500D01*
X42921158Y-17461500D01*
X42921155Y-17461500D01*
X42766510Y-17492261D01*
X42766498Y-17492264D01*
X42620827Y-17552602D01*
X42620814Y-17552609D01*
X42489711Y-17640210D01*
X42489707Y-17640213D01*
X42378213Y-17751707D01*
X42378210Y-17751711D01*
X42290609Y-17882814D01*
X42290602Y-17882827D01*
X42230264Y-18028498D01*
X42230261Y-18028510D01*
X42199500Y-18183153D01*
X500000Y-18183153D01*
X500000Y-624000D01*
X519685Y-556961D01*
X572489Y-511206D01*
X624000Y-500000D01*
X49376000Y-500000D01*
X49443039Y-519685D01*
G37*
%TD.AperFunction*%
%TD*%
M02*
