%TF.GenerationSoftware,KiCad,Pcbnew,10.0.3*%
%TF.CreationDate,2026-09-17T15:36:10+09:00*%
%TF.ProjectId,74x273_tile,37347832-3733-45f7-9469-6c652e6b6963,0.1*%
%TF.SameCoordinates,Original*%
%TF.FileFunction,Legend,Bot*%
%TF.FilePolarity,Positive*%
%FSLAX46Y46*%
G04 Gerber Fmt 4.6, Leading zero omitted, Abs format (unit mm)*
G04 Created by KiCad (PCBNEW 10.0.3) date 2026-09-17 15:36:10*
%MOMM*%
%LPD*%
G01*
G04 APERTURE LIST*
%ADD10C,0.150000*%
G04 APERTURE END LIST*
D10*
X36614285Y-22408557D02*
X36014285Y-22408557D01*
X36014285Y-22408557D02*
X36399999Y-23308557D01*
X35285714Y-22708557D02*
X35285714Y-23308557D01*
X35499999Y-22365700D02*
X35714285Y-23008557D01*
X35714285Y-23008557D02*
X35157142Y-23008557D01*
X34642856Y-22408557D02*
X34557142Y-22408557D01*
X34557142Y-22408557D02*
X34471428Y-22451414D01*
X34471428Y-22451414D02*
X34428571Y-22494271D01*
X34428571Y-22494271D02*
X34385713Y-22579985D01*
X34385713Y-22579985D02*
X34342856Y-22751414D01*
X34342856Y-22751414D02*
X34342856Y-22965700D01*
X34342856Y-22965700D02*
X34385713Y-23137128D01*
X34385713Y-23137128D02*
X34428571Y-23222842D01*
X34428571Y-23222842D02*
X34471428Y-23265700D01*
X34471428Y-23265700D02*
X34557142Y-23308557D01*
X34557142Y-23308557D02*
X34642856Y-23308557D01*
X34642856Y-23308557D02*
X34728571Y-23265700D01*
X34728571Y-23265700D02*
X34771428Y-23222842D01*
X34771428Y-23222842D02*
X34814285Y-23137128D01*
X34814285Y-23137128D02*
X34857142Y-22965700D01*
X34857142Y-22965700D02*
X34857142Y-22751414D01*
X34857142Y-22751414D02*
X34814285Y-22579985D01*
X34814285Y-22579985D02*
X34771428Y-22494271D01*
X34771428Y-22494271D02*
X34728571Y-22451414D01*
X34728571Y-22451414D02*
X34642856Y-22408557D01*
X33785713Y-22408557D02*
X33699999Y-22408557D01*
X33699999Y-22408557D02*
X33614285Y-22451414D01*
X33614285Y-22451414D02*
X33571428Y-22494271D01*
X33571428Y-22494271D02*
X33528570Y-22579985D01*
X33528570Y-22579985D02*
X33485713Y-22751414D01*
X33485713Y-22751414D02*
X33485713Y-22965700D01*
X33485713Y-22965700D02*
X33528570Y-23137128D01*
X33528570Y-23137128D02*
X33571428Y-23222842D01*
X33571428Y-23222842D02*
X33614285Y-23265700D01*
X33614285Y-23265700D02*
X33699999Y-23308557D01*
X33699999Y-23308557D02*
X33785713Y-23308557D01*
X33785713Y-23308557D02*
X33871428Y-23265700D01*
X33871428Y-23265700D02*
X33914285Y-23222842D01*
X33914285Y-23222842D02*
X33957142Y-23137128D01*
X33957142Y-23137128D02*
X33999999Y-22965700D01*
X33999999Y-22965700D02*
X33999999Y-22751414D01*
X33999999Y-22751414D02*
X33957142Y-22579985D01*
X33957142Y-22579985D02*
X33914285Y-22494271D01*
X33914285Y-22494271D02*
X33871428Y-22451414D01*
X33871428Y-22451414D02*
X33785713Y-22408557D01*
X32457142Y-23265700D02*
X32328571Y-23308557D01*
X32328571Y-23308557D02*
X32114285Y-23308557D01*
X32114285Y-23308557D02*
X32028571Y-23265700D01*
X32028571Y-23265700D02*
X31985713Y-23222842D01*
X31985713Y-23222842D02*
X31942856Y-23137128D01*
X31942856Y-23137128D02*
X31942856Y-23051414D01*
X31942856Y-23051414D02*
X31985713Y-22965700D01*
X31985713Y-22965700D02*
X32028571Y-22922842D01*
X32028571Y-22922842D02*
X32114285Y-22879985D01*
X32114285Y-22879985D02*
X32285713Y-22837128D01*
X32285713Y-22837128D02*
X32371428Y-22794271D01*
X32371428Y-22794271D02*
X32414285Y-22751414D01*
X32414285Y-22751414D02*
X32457142Y-22665700D01*
X32457142Y-22665700D02*
X32457142Y-22579985D01*
X32457142Y-22579985D02*
X32414285Y-22494271D01*
X32414285Y-22494271D02*
X32371428Y-22451414D01*
X32371428Y-22451414D02*
X32285713Y-22408557D01*
X32285713Y-22408557D02*
X32071428Y-22408557D01*
X32071428Y-22408557D02*
X31942856Y-22451414D01*
X31557142Y-22708557D02*
X31557142Y-23608557D01*
X31557142Y-22751414D02*
X31471428Y-22708557D01*
X31471428Y-22708557D02*
X31299999Y-22708557D01*
X31299999Y-22708557D02*
X31214285Y-22751414D01*
X31214285Y-22751414D02*
X31171428Y-22794271D01*
X31171428Y-22794271D02*
X31128570Y-22879985D01*
X31128570Y-22879985D02*
X31128570Y-23137128D01*
X31128570Y-23137128D02*
X31171428Y-23222842D01*
X31171428Y-23222842D02*
X31214285Y-23265700D01*
X31214285Y-23265700D02*
X31299999Y-23308557D01*
X31299999Y-23308557D02*
X31471428Y-23308557D01*
X31471428Y-23308557D02*
X31557142Y-23265700D01*
X30399999Y-23265700D02*
X30485713Y-23308557D01*
X30485713Y-23308557D02*
X30657142Y-23308557D01*
X30657142Y-23308557D02*
X30742856Y-23265700D01*
X30742856Y-23265700D02*
X30785713Y-23179985D01*
X30785713Y-23179985D02*
X30785713Y-22837128D01*
X30785713Y-22837128D02*
X30742856Y-22751414D01*
X30742856Y-22751414D02*
X30657142Y-22708557D01*
X30657142Y-22708557D02*
X30485713Y-22708557D01*
X30485713Y-22708557D02*
X30399999Y-22751414D01*
X30399999Y-22751414D02*
X30357142Y-22837128D01*
X30357142Y-22837128D02*
X30357142Y-22922842D01*
X30357142Y-22922842D02*
X30785713Y-23008557D01*
X29585713Y-23265700D02*
X29671427Y-23308557D01*
X29671427Y-23308557D02*
X29842855Y-23308557D01*
X29842855Y-23308557D02*
X29928570Y-23265700D01*
X29928570Y-23265700D02*
X29971427Y-23222842D01*
X29971427Y-23222842D02*
X30014284Y-23137128D01*
X30014284Y-23137128D02*
X30014284Y-22879985D01*
X30014284Y-22879985D02*
X29971427Y-22794271D01*
X29971427Y-22794271D02*
X29928570Y-22751414D01*
X29928570Y-22751414D02*
X29842855Y-22708557D01*
X29842855Y-22708557D02*
X29671427Y-22708557D01*
X29671427Y-22708557D02*
X29585713Y-22751414D01*
X29199998Y-23308557D02*
X29199998Y-22708557D01*
X29199998Y-22408557D02*
X29242855Y-22451414D01*
X29242855Y-22451414D02*
X29199998Y-22494271D01*
X29199998Y-22494271D02*
X29157141Y-22451414D01*
X29157141Y-22451414D02*
X29199998Y-22408557D01*
X29199998Y-22408557D02*
X29199998Y-22494271D01*
X28771427Y-23308557D02*
X28771427Y-22708557D01*
X28771427Y-22794271D02*
X28728570Y-22751414D01*
X28728570Y-22751414D02*
X28642855Y-22708557D01*
X28642855Y-22708557D02*
X28514284Y-22708557D01*
X28514284Y-22708557D02*
X28428570Y-22751414D01*
X28428570Y-22751414D02*
X28385713Y-22837128D01*
X28385713Y-22837128D02*
X28385713Y-23308557D01*
X28385713Y-22837128D02*
X28342855Y-22751414D01*
X28342855Y-22751414D02*
X28257141Y-22708557D01*
X28257141Y-22708557D02*
X28128570Y-22708557D01*
X28128570Y-22708557D02*
X28042855Y-22751414D01*
X28042855Y-22751414D02*
X27999998Y-22837128D01*
X27999998Y-22837128D02*
X27999998Y-23308557D01*
X27228570Y-23265700D02*
X27314284Y-23308557D01*
X27314284Y-23308557D02*
X27485713Y-23308557D01*
X27485713Y-23308557D02*
X27571427Y-23265700D01*
X27571427Y-23265700D02*
X27614284Y-23179985D01*
X27614284Y-23179985D02*
X27614284Y-22837128D01*
X27614284Y-22837128D02*
X27571427Y-22751414D01*
X27571427Y-22751414D02*
X27485713Y-22708557D01*
X27485713Y-22708557D02*
X27314284Y-22708557D01*
X27314284Y-22708557D02*
X27228570Y-22751414D01*
X27228570Y-22751414D02*
X27185713Y-22837128D01*
X27185713Y-22837128D02*
X27185713Y-22922842D01*
X27185713Y-22922842D02*
X27614284Y-23008557D01*
X26799998Y-22708557D02*
X26799998Y-23308557D01*
X26799998Y-22794271D02*
X26757141Y-22751414D01*
X26757141Y-22751414D02*
X26671426Y-22708557D01*
X26671426Y-22708557D02*
X26542855Y-22708557D01*
X26542855Y-22708557D02*
X26457141Y-22751414D01*
X26457141Y-22751414D02*
X26414284Y-22837128D01*
X26414284Y-22837128D02*
X26414284Y-23308557D01*
X25428569Y-22408557D02*
X24914284Y-22408557D01*
X25171426Y-23308557D02*
X25171426Y-22408557D01*
X24614284Y-23308557D02*
X24614284Y-22708557D01*
X24614284Y-22408557D02*
X24657141Y-22451414D01*
X24657141Y-22451414D02*
X24614284Y-22494271D01*
X24614284Y-22494271D02*
X24571427Y-22451414D01*
X24571427Y-22451414D02*
X24614284Y-22408557D01*
X24614284Y-22408557D02*
X24614284Y-22494271D01*
X24057141Y-23308557D02*
X24142856Y-23265700D01*
X24142856Y-23265700D02*
X24185713Y-23179985D01*
X24185713Y-23179985D02*
X24185713Y-22408557D01*
X23371427Y-23265700D02*
X23457141Y-23308557D01*
X23457141Y-23308557D02*
X23628570Y-23308557D01*
X23628570Y-23308557D02*
X23714284Y-23265700D01*
X23714284Y-23265700D02*
X23757141Y-23179985D01*
X23757141Y-23179985D02*
X23757141Y-22837128D01*
X23757141Y-22837128D02*
X23714284Y-22751414D01*
X23714284Y-22751414D02*
X23628570Y-22708557D01*
X23628570Y-22708557D02*
X23457141Y-22708557D01*
X23457141Y-22708557D02*
X23371427Y-22751414D01*
X23371427Y-22751414D02*
X23328570Y-22837128D01*
X23328570Y-22837128D02*
X23328570Y-22922842D01*
X23328570Y-22922842D02*
X23757141Y-23008557D01*
X22342855Y-22708557D02*
X22128569Y-23308557D01*
X22128569Y-23308557D02*
X21914284Y-22708557D01*
X21399998Y-22408557D02*
X21314284Y-22408557D01*
X21314284Y-22408557D02*
X21228570Y-22451414D01*
X21228570Y-22451414D02*
X21185713Y-22494271D01*
X21185713Y-22494271D02*
X21142855Y-22579985D01*
X21142855Y-22579985D02*
X21099998Y-22751414D01*
X21099998Y-22751414D02*
X21099998Y-22965700D01*
X21099998Y-22965700D02*
X21142855Y-23137128D01*
X21142855Y-23137128D02*
X21185713Y-23222842D01*
X21185713Y-23222842D02*
X21228570Y-23265700D01*
X21228570Y-23265700D02*
X21314284Y-23308557D01*
X21314284Y-23308557D02*
X21399998Y-23308557D01*
X21399998Y-23308557D02*
X21485713Y-23265700D01*
X21485713Y-23265700D02*
X21528570Y-23222842D01*
X21528570Y-23222842D02*
X21571427Y-23137128D01*
X21571427Y-23137128D02*
X21614284Y-22965700D01*
X21614284Y-22965700D02*
X21614284Y-22751414D01*
X21614284Y-22751414D02*
X21571427Y-22579985D01*
X21571427Y-22579985D02*
X21528570Y-22494271D01*
X21528570Y-22494271D02*
X21485713Y-22451414D01*
X21485713Y-22451414D02*
X21399998Y-22408557D01*
X20714284Y-23222842D02*
X20671427Y-23265700D01*
X20671427Y-23265700D02*
X20714284Y-23308557D01*
X20714284Y-23308557D02*
X20757141Y-23265700D01*
X20757141Y-23265700D02*
X20714284Y-23222842D01*
X20714284Y-23222842D02*
X20714284Y-23308557D01*
X19814284Y-23308557D02*
X20328570Y-23308557D01*
X20071427Y-23308557D02*
X20071427Y-22408557D01*
X20071427Y-22408557D02*
X20157141Y-22537128D01*
X20157141Y-22537128D02*
X20242856Y-22622842D01*
X20242856Y-22622842D02*
X20328570Y-22665700D01*
X18142856Y-22408557D02*
X17542856Y-22408557D01*
X17542856Y-22408557D02*
X17928570Y-23308557D01*
X16814285Y-22708557D02*
X16814285Y-23308557D01*
X17028570Y-22365700D02*
X17242856Y-23008557D01*
X17242856Y-23008557D02*
X16685713Y-23008557D01*
X16428570Y-23308557D02*
X15957142Y-22708557D01*
X16428570Y-22708557D02*
X15957142Y-23308557D01*
X15657142Y-22494271D02*
X15614285Y-22451414D01*
X15614285Y-22451414D02*
X15528571Y-22408557D01*
X15528571Y-22408557D02*
X15314285Y-22408557D01*
X15314285Y-22408557D02*
X15228571Y-22451414D01*
X15228571Y-22451414D02*
X15185713Y-22494271D01*
X15185713Y-22494271D02*
X15142856Y-22579985D01*
X15142856Y-22579985D02*
X15142856Y-22665700D01*
X15142856Y-22665700D02*
X15185713Y-22794271D01*
X15185713Y-22794271D02*
X15699999Y-23308557D01*
X15699999Y-23308557D02*
X15142856Y-23308557D01*
X14842856Y-22408557D02*
X14242856Y-22408557D01*
X14242856Y-22408557D02*
X14628570Y-23308557D01*
X13985713Y-22408557D02*
X13428570Y-22408557D01*
X13428570Y-22408557D02*
X13728570Y-22751414D01*
X13728570Y-22751414D02*
X13599999Y-22751414D01*
X13599999Y-22751414D02*
X13514285Y-22794271D01*
X13514285Y-22794271D02*
X13471427Y-22837128D01*
X13471427Y-22837128D02*
X13428570Y-22922842D01*
X13428570Y-22922842D02*
X13428570Y-23137128D01*
X13428570Y-23137128D02*
X13471427Y-23222842D01*
X13471427Y-23222842D02*
X13514285Y-23265700D01*
X13514285Y-23265700D02*
X13599999Y-23308557D01*
X13599999Y-23308557D02*
X13857142Y-23308557D01*
X13857142Y-23308557D02*
X13942856Y-23265700D01*
X13942856Y-23265700D02*
X13985713Y-23222842D01*
X31385715Y-23808556D02*
X31300001Y-23808556D01*
X31300001Y-23808556D02*
X31214287Y-23851413D01*
X31214287Y-23851413D02*
X31171430Y-23894270D01*
X31171430Y-23894270D02*
X31128572Y-23979984D01*
X31128572Y-23979984D02*
X31085715Y-24151413D01*
X31085715Y-24151413D02*
X31085715Y-24365699D01*
X31085715Y-24365699D02*
X31128572Y-24537127D01*
X31128572Y-24537127D02*
X31171430Y-24622841D01*
X31171430Y-24622841D02*
X31214287Y-24665699D01*
X31214287Y-24665699D02*
X31300001Y-24708556D01*
X31300001Y-24708556D02*
X31385715Y-24708556D01*
X31385715Y-24708556D02*
X31471430Y-24665699D01*
X31471430Y-24665699D02*
X31514287Y-24622841D01*
X31514287Y-24622841D02*
X31557144Y-24537127D01*
X31557144Y-24537127D02*
X31600001Y-24365699D01*
X31600001Y-24365699D02*
X31600001Y-24151413D01*
X31600001Y-24151413D02*
X31557144Y-23979984D01*
X31557144Y-23979984D02*
X31514287Y-23894270D01*
X31514287Y-23894270D02*
X31471430Y-23851413D01*
X31471430Y-23851413D02*
X31385715Y-23808556D01*
X30271429Y-23808556D02*
X30700001Y-23808556D01*
X30700001Y-23808556D02*
X30742858Y-24237127D01*
X30742858Y-24237127D02*
X30700001Y-24194270D01*
X30700001Y-24194270D02*
X30614287Y-24151413D01*
X30614287Y-24151413D02*
X30400001Y-24151413D01*
X30400001Y-24151413D02*
X30314287Y-24194270D01*
X30314287Y-24194270D02*
X30271429Y-24237127D01*
X30271429Y-24237127D02*
X30228572Y-24322841D01*
X30228572Y-24322841D02*
X30228572Y-24537127D01*
X30228572Y-24537127D02*
X30271429Y-24622841D01*
X30271429Y-24622841D02*
X30314287Y-24665699D01*
X30314287Y-24665699D02*
X30400001Y-24708556D01*
X30400001Y-24708556D02*
X30614287Y-24708556D01*
X30614287Y-24708556D02*
X30700001Y-24665699D01*
X30700001Y-24665699D02*
X30742858Y-24622841D01*
X30057144Y-24794270D02*
X29371429Y-24794270D01*
X29285715Y-24108556D02*
X28942858Y-24108556D01*
X29157144Y-24708556D02*
X29157144Y-23937127D01*
X29157144Y-23937127D02*
X29114287Y-23851413D01*
X29114287Y-23851413D02*
X29028572Y-23808556D01*
X29028572Y-23808556D02*
X28942858Y-23808556D01*
X28514286Y-24708556D02*
X28600001Y-24665699D01*
X28600001Y-24665699D02*
X28642858Y-24579984D01*
X28642858Y-24579984D02*
X28642858Y-23808556D01*
X28171429Y-24708556D02*
X28171429Y-24108556D01*
X28171429Y-23808556D02*
X28214286Y-23851413D01*
X28214286Y-23851413D02*
X28171429Y-23894270D01*
X28171429Y-23894270D02*
X28128572Y-23851413D01*
X28128572Y-23851413D02*
X28171429Y-23808556D01*
X28171429Y-23808556D02*
X28171429Y-23894270D01*
X27742858Y-24108556D02*
X27742858Y-25008556D01*
X27742858Y-24151413D02*
X27657144Y-24108556D01*
X27657144Y-24108556D02*
X27485715Y-24108556D01*
X27485715Y-24108556D02*
X27400001Y-24151413D01*
X27400001Y-24151413D02*
X27357144Y-24194270D01*
X27357144Y-24194270D02*
X27314286Y-24279984D01*
X27314286Y-24279984D02*
X27314286Y-24537127D01*
X27314286Y-24537127D02*
X27357144Y-24622841D01*
X27357144Y-24622841D02*
X27400001Y-24665699D01*
X27400001Y-24665699D02*
X27485715Y-24708556D01*
X27485715Y-24708556D02*
X27657144Y-24708556D01*
X27657144Y-24708556D02*
X27742858Y-24665699D01*
X27057143Y-24108556D02*
X26714286Y-24108556D01*
X26928572Y-24708556D02*
X26928572Y-23937127D01*
X26928572Y-23937127D02*
X26885715Y-23851413D01*
X26885715Y-23851413D02*
X26800000Y-23808556D01*
X26800000Y-23808556D02*
X26714286Y-23808556D01*
X26285714Y-24708556D02*
X26371429Y-24665699D01*
X26371429Y-24665699D02*
X26414286Y-24579984D01*
X26414286Y-24579984D02*
X26414286Y-23808556D01*
X25814285Y-24708556D02*
X25900000Y-24665699D01*
X25900000Y-24665699D02*
X25942857Y-24622841D01*
X25942857Y-24622841D02*
X25985714Y-24537127D01*
X25985714Y-24537127D02*
X25985714Y-24279984D01*
X25985714Y-24279984D02*
X25942857Y-24194270D01*
X25942857Y-24194270D02*
X25900000Y-24151413D01*
X25900000Y-24151413D02*
X25814285Y-24108556D01*
X25814285Y-24108556D02*
X25685714Y-24108556D01*
X25685714Y-24108556D02*
X25600000Y-24151413D01*
X25600000Y-24151413D02*
X25557143Y-24194270D01*
X25557143Y-24194270D02*
X25514285Y-24279984D01*
X25514285Y-24279984D02*
X25514285Y-24537127D01*
X25514285Y-24537127D02*
X25557143Y-24622841D01*
X25557143Y-24622841D02*
X25600000Y-24665699D01*
X25600000Y-24665699D02*
X25685714Y-24708556D01*
X25685714Y-24708556D02*
X25814285Y-24708556D01*
X25128571Y-24108556D02*
X25128571Y-25008556D01*
X25128571Y-24151413D02*
X25042857Y-24108556D01*
X25042857Y-24108556D02*
X24871428Y-24108556D01*
X24871428Y-24108556D02*
X24785714Y-24151413D01*
X24785714Y-24151413D02*
X24742857Y-24194270D01*
X24742857Y-24194270D02*
X24699999Y-24279984D01*
X24699999Y-24279984D02*
X24699999Y-24537127D01*
X24699999Y-24537127D02*
X24742857Y-24622841D01*
X24742857Y-24622841D02*
X24785714Y-24665699D01*
X24785714Y-24665699D02*
X24871428Y-24708556D01*
X24871428Y-24708556D02*
X25042857Y-24708556D01*
X25042857Y-24708556D02*
X25128571Y-24665699D01*
X24357142Y-24665699D02*
X24271428Y-24708556D01*
X24271428Y-24708556D02*
X24099999Y-24708556D01*
X24099999Y-24708556D02*
X24014285Y-24665699D01*
X24014285Y-24665699D02*
X23971428Y-24579984D01*
X23971428Y-24579984D02*
X23971428Y-24537127D01*
X23971428Y-24537127D02*
X24014285Y-24451413D01*
X24014285Y-24451413D02*
X24099999Y-24408556D01*
X24099999Y-24408556D02*
X24228571Y-24408556D01*
X24228571Y-24408556D02*
X24314285Y-24365699D01*
X24314285Y-24365699D02*
X24357142Y-24279984D01*
X24357142Y-24279984D02*
X24357142Y-24237127D01*
X24357142Y-24237127D02*
X24314285Y-24151413D01*
X24314285Y-24151413D02*
X24228571Y-24108556D01*
X24228571Y-24108556D02*
X24099999Y-24108556D01*
X24099999Y-24108556D02*
X24014285Y-24151413D01*
X23800000Y-24794270D02*
X23114285Y-24794270D01*
X22771428Y-24708556D02*
X22857143Y-24665699D01*
X22857143Y-24665699D02*
X22900000Y-24579984D01*
X22900000Y-24579984D02*
X22900000Y-23808556D01*
X22042857Y-24708556D02*
X22042857Y-24237127D01*
X22042857Y-24237127D02*
X22085714Y-24151413D01*
X22085714Y-24151413D02*
X22171428Y-24108556D01*
X22171428Y-24108556D02*
X22342857Y-24108556D01*
X22342857Y-24108556D02*
X22428571Y-24151413D01*
X22042857Y-24665699D02*
X22128571Y-24708556D01*
X22128571Y-24708556D02*
X22342857Y-24708556D01*
X22342857Y-24708556D02*
X22428571Y-24665699D01*
X22428571Y-24665699D02*
X22471428Y-24579984D01*
X22471428Y-24579984D02*
X22471428Y-24494270D01*
X22471428Y-24494270D02*
X22428571Y-24408556D01*
X22428571Y-24408556D02*
X22342857Y-24365699D01*
X22342857Y-24365699D02*
X22128571Y-24365699D01*
X22128571Y-24365699D02*
X22042857Y-24322841D01*
X21742856Y-24108556D02*
X21399999Y-24108556D01*
X21614285Y-23808556D02*
X21614285Y-24579984D01*
X21614285Y-24579984D02*
X21571428Y-24665699D01*
X21571428Y-24665699D02*
X21485713Y-24708556D01*
X21485713Y-24708556D02*
X21399999Y-24708556D01*
X20714285Y-24665699D02*
X20799999Y-24708556D01*
X20799999Y-24708556D02*
X20971427Y-24708556D01*
X20971427Y-24708556D02*
X21057142Y-24665699D01*
X21057142Y-24665699D02*
X21099999Y-24622841D01*
X21099999Y-24622841D02*
X21142856Y-24537127D01*
X21142856Y-24537127D02*
X21142856Y-24279984D01*
X21142856Y-24279984D02*
X21099999Y-24194270D01*
X21099999Y-24194270D02*
X21057142Y-24151413D01*
X21057142Y-24151413D02*
X20971427Y-24108556D01*
X20971427Y-24108556D02*
X20799999Y-24108556D01*
X20799999Y-24108556D02*
X20714285Y-24151413D01*
X20328570Y-24708556D02*
X20328570Y-23808556D01*
X19942856Y-24708556D02*
X19942856Y-24237127D01*
X19942856Y-24237127D02*
X19985713Y-24151413D01*
X19985713Y-24151413D02*
X20071427Y-24108556D01*
X20071427Y-24108556D02*
X20199998Y-24108556D01*
X20199998Y-24108556D02*
X20285713Y-24151413D01*
X20285713Y-24151413D02*
X20328570Y-24194270D01*
X19171427Y-24665699D02*
X19257141Y-24708556D01*
X19257141Y-24708556D02*
X19428570Y-24708556D01*
X19428570Y-24708556D02*
X19514284Y-24665699D01*
X19514284Y-24665699D02*
X19557141Y-24579984D01*
X19557141Y-24579984D02*
X19557141Y-24237127D01*
X19557141Y-24237127D02*
X19514284Y-24151413D01*
X19514284Y-24151413D02*
X19428570Y-24108556D01*
X19428570Y-24108556D02*
X19257141Y-24108556D01*
X19257141Y-24108556D02*
X19171427Y-24151413D01*
X19171427Y-24151413D02*
X19128570Y-24237127D01*
X19128570Y-24237127D02*
X19128570Y-24322841D01*
X19128570Y-24322841D02*
X19557141Y-24408556D01*
X18785712Y-24665699D02*
X18699998Y-24708556D01*
X18699998Y-24708556D02*
X18528569Y-24708556D01*
X18528569Y-24708556D02*
X18442855Y-24665699D01*
X18442855Y-24665699D02*
X18399998Y-24579984D01*
X18399998Y-24579984D02*
X18399998Y-24537127D01*
X18399998Y-24537127D02*
X18442855Y-24451413D01*
X18442855Y-24451413D02*
X18528569Y-24408556D01*
X18528569Y-24408556D02*
X18657141Y-24408556D01*
X18657141Y-24408556D02*
X18742855Y-24365699D01*
X18742855Y-24365699D02*
X18785712Y-24279984D01*
X18785712Y-24279984D02*
X18785712Y-24237127D01*
X18785712Y-24237127D02*
X18742855Y-24151413D01*
X18742855Y-24151413D02*
X18657141Y-24108556D01*
X18657141Y-24108556D02*
X18528569Y-24108556D01*
X18528569Y-24108556D02*
X18442855Y-24151413D01*
X28707142Y-26108557D02*
X28707142Y-25208557D01*
X28707142Y-25208557D02*
X28407142Y-25851414D01*
X28407142Y-25851414D02*
X28107142Y-25208557D01*
X28107142Y-25208557D02*
X28107142Y-26108557D01*
X27678571Y-26108557D02*
X27678571Y-25208557D01*
X27378571Y-25208557D02*
X26864286Y-25208557D01*
X27121428Y-26108557D02*
X27121428Y-25208557D01*
X25450000Y-26108557D02*
X25878572Y-26108557D01*
X25878572Y-26108557D02*
X25878572Y-25208557D01*
X25150001Y-26108557D02*
X25150001Y-25508557D01*
X25150001Y-25208557D02*
X25192858Y-25251414D01*
X25192858Y-25251414D02*
X25150001Y-25294271D01*
X25150001Y-25294271D02*
X25107144Y-25251414D01*
X25107144Y-25251414D02*
X25150001Y-25208557D01*
X25150001Y-25208557D02*
X25150001Y-25294271D01*
X24335716Y-26065700D02*
X24421430Y-26108557D01*
X24421430Y-26108557D02*
X24592858Y-26108557D01*
X24592858Y-26108557D02*
X24678573Y-26065700D01*
X24678573Y-26065700D02*
X24721430Y-26022842D01*
X24721430Y-26022842D02*
X24764287Y-25937128D01*
X24764287Y-25937128D02*
X24764287Y-25679985D01*
X24764287Y-25679985D02*
X24721430Y-25594271D01*
X24721430Y-25594271D02*
X24678573Y-25551414D01*
X24678573Y-25551414D02*
X24592858Y-25508557D01*
X24592858Y-25508557D02*
X24421430Y-25508557D01*
X24421430Y-25508557D02*
X24335716Y-25551414D01*
X23607144Y-26065700D02*
X23692858Y-26108557D01*
X23692858Y-26108557D02*
X23864287Y-26108557D01*
X23864287Y-26108557D02*
X23950001Y-26065700D01*
X23950001Y-26065700D02*
X23992858Y-25979985D01*
X23992858Y-25979985D02*
X23992858Y-25637128D01*
X23992858Y-25637128D02*
X23950001Y-25551414D01*
X23950001Y-25551414D02*
X23864287Y-25508557D01*
X23864287Y-25508557D02*
X23692858Y-25508557D01*
X23692858Y-25508557D02*
X23607144Y-25551414D01*
X23607144Y-25551414D02*
X23564287Y-25637128D01*
X23564287Y-25637128D02*
X23564287Y-25722842D01*
X23564287Y-25722842D02*
X23992858Y-25808557D01*
X23178572Y-25508557D02*
X23178572Y-26108557D01*
X23178572Y-25594271D02*
X23135715Y-25551414D01*
X23135715Y-25551414D02*
X23050000Y-25508557D01*
X23050000Y-25508557D02*
X22921429Y-25508557D01*
X22921429Y-25508557D02*
X22835715Y-25551414D01*
X22835715Y-25551414D02*
X22792858Y-25637128D01*
X22792858Y-25637128D02*
X22792858Y-26108557D01*
X22407143Y-26065700D02*
X22321429Y-26108557D01*
X22321429Y-26108557D02*
X22150000Y-26108557D01*
X22150000Y-26108557D02*
X22064286Y-26065700D01*
X22064286Y-26065700D02*
X22021429Y-25979985D01*
X22021429Y-25979985D02*
X22021429Y-25937128D01*
X22021429Y-25937128D02*
X22064286Y-25851414D01*
X22064286Y-25851414D02*
X22150000Y-25808557D01*
X22150000Y-25808557D02*
X22278572Y-25808557D01*
X22278572Y-25808557D02*
X22364286Y-25765700D01*
X22364286Y-25765700D02*
X22407143Y-25679985D01*
X22407143Y-25679985D02*
X22407143Y-25637128D01*
X22407143Y-25637128D02*
X22364286Y-25551414D01*
X22364286Y-25551414D02*
X22278572Y-25508557D01*
X22278572Y-25508557D02*
X22150000Y-25508557D01*
X22150000Y-25508557D02*
X22064286Y-25551414D01*
X21292858Y-26065700D02*
X21378572Y-26108557D01*
X21378572Y-26108557D02*
X21550001Y-26108557D01*
X21550001Y-26108557D02*
X21635715Y-26065700D01*
X21635715Y-26065700D02*
X21678572Y-25979985D01*
X21678572Y-25979985D02*
X21678572Y-25637128D01*
X21678572Y-25637128D02*
X21635715Y-25551414D01*
X21635715Y-25551414D02*
X21550001Y-25508557D01*
X21550001Y-25508557D02*
X21378572Y-25508557D01*
X21378572Y-25508557D02*
X21292858Y-25551414D01*
X21292858Y-25551414D02*
X21250001Y-25637128D01*
X21250001Y-25637128D02*
X21250001Y-25722842D01*
X21250001Y-25722842D02*
X21678572Y-25808557D01*
X33314286Y-27508556D02*
X33314286Y-26608556D01*
X33314286Y-26608556D02*
X32971429Y-26608556D01*
X32971429Y-26608556D02*
X32885714Y-26651413D01*
X32885714Y-26651413D02*
X32842857Y-26694270D01*
X32842857Y-26694270D02*
X32800000Y-26779984D01*
X32800000Y-26779984D02*
X32800000Y-26908556D01*
X32800000Y-26908556D02*
X32842857Y-26994270D01*
X32842857Y-26994270D02*
X32885714Y-27037127D01*
X32885714Y-27037127D02*
X32971429Y-27079984D01*
X32971429Y-27079984D02*
X33314286Y-27079984D01*
X32285714Y-27508556D02*
X32371429Y-27465699D01*
X32371429Y-27465699D02*
X32414286Y-27422841D01*
X32414286Y-27422841D02*
X32457143Y-27337127D01*
X32457143Y-27337127D02*
X32457143Y-27079984D01*
X32457143Y-27079984D02*
X32414286Y-26994270D01*
X32414286Y-26994270D02*
X32371429Y-26951413D01*
X32371429Y-26951413D02*
X32285714Y-26908556D01*
X32285714Y-26908556D02*
X32157143Y-26908556D01*
X32157143Y-26908556D02*
X32071429Y-26951413D01*
X32071429Y-26951413D02*
X32028572Y-26994270D01*
X32028572Y-26994270D02*
X31985714Y-27079984D01*
X31985714Y-27079984D02*
X31985714Y-27337127D01*
X31985714Y-27337127D02*
X32028572Y-27422841D01*
X32028572Y-27422841D02*
X32071429Y-27465699D01*
X32071429Y-27465699D02*
X32157143Y-27508556D01*
X32157143Y-27508556D02*
X32285714Y-27508556D01*
X31685714Y-26908556D02*
X31514286Y-27508556D01*
X31514286Y-27508556D02*
X31342857Y-27079984D01*
X31342857Y-27079984D02*
X31171428Y-27508556D01*
X31171428Y-27508556D02*
X31000000Y-26908556D01*
X30314286Y-27465699D02*
X30400000Y-27508556D01*
X30400000Y-27508556D02*
X30571429Y-27508556D01*
X30571429Y-27508556D02*
X30657143Y-27465699D01*
X30657143Y-27465699D02*
X30700000Y-27379984D01*
X30700000Y-27379984D02*
X30700000Y-27037127D01*
X30700000Y-27037127D02*
X30657143Y-26951413D01*
X30657143Y-26951413D02*
X30571429Y-26908556D01*
X30571429Y-26908556D02*
X30400000Y-26908556D01*
X30400000Y-26908556D02*
X30314286Y-26951413D01*
X30314286Y-26951413D02*
X30271429Y-27037127D01*
X30271429Y-27037127D02*
X30271429Y-27122841D01*
X30271429Y-27122841D02*
X30700000Y-27208556D01*
X29885714Y-27508556D02*
X29885714Y-26908556D01*
X29885714Y-27079984D02*
X29842857Y-26994270D01*
X29842857Y-26994270D02*
X29800000Y-26951413D01*
X29800000Y-26951413D02*
X29714285Y-26908556D01*
X29714285Y-26908556D02*
X29628571Y-26908556D01*
X29328571Y-27165699D02*
X28642857Y-27165699D01*
X28085713Y-27508556D02*
X28171428Y-27465699D01*
X28171428Y-27465699D02*
X28214285Y-27422841D01*
X28214285Y-27422841D02*
X28257142Y-27337127D01*
X28257142Y-27337127D02*
X28257142Y-27079984D01*
X28257142Y-27079984D02*
X28214285Y-26994270D01*
X28214285Y-26994270D02*
X28171428Y-26951413D01*
X28171428Y-26951413D02*
X28085713Y-26908556D01*
X28085713Y-26908556D02*
X27957142Y-26908556D01*
X27957142Y-26908556D02*
X27871428Y-26951413D01*
X27871428Y-26951413D02*
X27828571Y-26994270D01*
X27828571Y-26994270D02*
X27785713Y-27079984D01*
X27785713Y-27079984D02*
X27785713Y-27337127D01*
X27785713Y-27337127D02*
X27828571Y-27422841D01*
X27828571Y-27422841D02*
X27871428Y-27465699D01*
X27871428Y-27465699D02*
X27957142Y-27508556D01*
X27957142Y-27508556D02*
X28085713Y-27508556D01*
X27399999Y-26908556D02*
X27399999Y-27508556D01*
X27399999Y-26994270D02*
X27357142Y-26951413D01*
X27357142Y-26951413D02*
X27271427Y-26908556D01*
X27271427Y-26908556D02*
X27142856Y-26908556D01*
X27142856Y-26908556D02*
X27057142Y-26951413D01*
X27057142Y-26951413D02*
X27014285Y-27037127D01*
X27014285Y-27037127D02*
X27014285Y-27508556D01*
X26585713Y-27422841D02*
X26542856Y-27465699D01*
X26542856Y-27465699D02*
X26585713Y-27508556D01*
X26585713Y-27508556D02*
X26628570Y-27465699D01*
X26628570Y-27465699D02*
X26585713Y-27422841D01*
X26585713Y-27422841D02*
X26585713Y-27508556D01*
X26585713Y-26951413D02*
X26542856Y-26994270D01*
X26542856Y-26994270D02*
X26585713Y-27037127D01*
X26585713Y-27037127D02*
X26628570Y-26994270D01*
X26628570Y-26994270D02*
X26585713Y-26951413D01*
X26585713Y-26951413D02*
X26585713Y-27037127D01*
X25085714Y-27465699D02*
X25171428Y-27508556D01*
X25171428Y-27508556D02*
X25342856Y-27508556D01*
X25342856Y-27508556D02*
X25428571Y-27465699D01*
X25428571Y-27465699D02*
X25471428Y-27422841D01*
X25471428Y-27422841D02*
X25514285Y-27337127D01*
X25514285Y-27337127D02*
X25514285Y-27079984D01*
X25514285Y-27079984D02*
X25471428Y-26994270D01*
X25471428Y-26994270D02*
X25428571Y-26951413D01*
X25428571Y-26951413D02*
X25342856Y-26908556D01*
X25342856Y-26908556D02*
X25171428Y-26908556D01*
X25171428Y-26908556D02*
X25085714Y-26951413D01*
X24571427Y-27508556D02*
X24657142Y-27465699D01*
X24657142Y-27465699D02*
X24699999Y-27379984D01*
X24699999Y-27379984D02*
X24699999Y-26608556D01*
X23885713Y-27465699D02*
X23971427Y-27508556D01*
X23971427Y-27508556D02*
X24142856Y-27508556D01*
X24142856Y-27508556D02*
X24228570Y-27465699D01*
X24228570Y-27465699D02*
X24271427Y-27379984D01*
X24271427Y-27379984D02*
X24271427Y-27037127D01*
X24271427Y-27037127D02*
X24228570Y-26951413D01*
X24228570Y-26951413D02*
X24142856Y-26908556D01*
X24142856Y-26908556D02*
X23971427Y-26908556D01*
X23971427Y-26908556D02*
X23885713Y-26951413D01*
X23885713Y-26951413D02*
X23842856Y-27037127D01*
X23842856Y-27037127D02*
X23842856Y-27122841D01*
X23842856Y-27122841D02*
X24271427Y-27208556D01*
X23071427Y-27508556D02*
X23071427Y-27037127D01*
X23071427Y-27037127D02*
X23114284Y-26951413D01*
X23114284Y-26951413D02*
X23199998Y-26908556D01*
X23199998Y-26908556D02*
X23371427Y-26908556D01*
X23371427Y-26908556D02*
X23457141Y-26951413D01*
X23071427Y-27465699D02*
X23157141Y-27508556D01*
X23157141Y-27508556D02*
X23371427Y-27508556D01*
X23371427Y-27508556D02*
X23457141Y-27465699D01*
X23457141Y-27465699D02*
X23499998Y-27379984D01*
X23499998Y-27379984D02*
X23499998Y-27294270D01*
X23499998Y-27294270D02*
X23457141Y-27208556D01*
X23457141Y-27208556D02*
X23371427Y-27165699D01*
X23371427Y-27165699D02*
X23157141Y-27165699D01*
X23157141Y-27165699D02*
X23071427Y-27122841D01*
X22642855Y-27508556D02*
X22642855Y-26908556D01*
X22642855Y-27079984D02*
X22599998Y-26994270D01*
X22599998Y-26994270D02*
X22557141Y-26951413D01*
X22557141Y-26951413D02*
X22471426Y-26908556D01*
X22471426Y-26908556D02*
X22385712Y-26908556D01*
X21485712Y-26908556D02*
X21271426Y-27508556D01*
X21271426Y-27508556D02*
X21057141Y-26908556D01*
X20714284Y-27508556D02*
X20714284Y-26908556D01*
X20714284Y-26608556D02*
X20757141Y-26651413D01*
X20757141Y-26651413D02*
X20714284Y-26694270D01*
X20714284Y-26694270D02*
X20671427Y-26651413D01*
X20671427Y-26651413D02*
X20714284Y-26608556D01*
X20714284Y-26608556D02*
X20714284Y-26694270D01*
X19899999Y-27508556D02*
X19899999Y-27037127D01*
X19899999Y-27037127D02*
X19942856Y-26951413D01*
X19942856Y-26951413D02*
X20028570Y-26908556D01*
X20028570Y-26908556D02*
X20199999Y-26908556D01*
X20199999Y-26908556D02*
X20285713Y-26951413D01*
X19899999Y-27465699D02*
X19985713Y-27508556D01*
X19985713Y-27508556D02*
X20199999Y-27508556D01*
X20199999Y-27508556D02*
X20285713Y-27465699D01*
X20285713Y-27465699D02*
X20328570Y-27379984D01*
X20328570Y-27379984D02*
X20328570Y-27294270D01*
X20328570Y-27294270D02*
X20285713Y-27208556D01*
X20285713Y-27208556D02*
X20199999Y-27165699D01*
X20199999Y-27165699D02*
X19985713Y-27165699D01*
X19985713Y-27165699D02*
X19899999Y-27122841D01*
X18271427Y-27422841D02*
X18314284Y-27465699D01*
X18314284Y-27465699D02*
X18442856Y-27508556D01*
X18442856Y-27508556D02*
X18528570Y-27508556D01*
X18528570Y-27508556D02*
X18657141Y-27465699D01*
X18657141Y-27465699D02*
X18742856Y-27379984D01*
X18742856Y-27379984D02*
X18785713Y-27294270D01*
X18785713Y-27294270D02*
X18828570Y-27122841D01*
X18828570Y-27122841D02*
X18828570Y-26994270D01*
X18828570Y-26994270D02*
X18785713Y-26822841D01*
X18785713Y-26822841D02*
X18742856Y-26737127D01*
X18742856Y-26737127D02*
X18657141Y-26651413D01*
X18657141Y-26651413D02*
X18528570Y-26608556D01*
X18528570Y-26608556D02*
X18442856Y-26608556D01*
X18442856Y-26608556D02*
X18314284Y-26651413D01*
X18314284Y-26651413D02*
X18271427Y-26694270D01*
X17457141Y-27508556D02*
X17885713Y-27508556D01*
X17885713Y-27508556D02*
X17885713Y-26608556D01*
X16642856Y-27508556D02*
X16942856Y-27079984D01*
X17157142Y-27508556D02*
X17157142Y-26608556D01*
X17157142Y-26608556D02*
X16814285Y-26608556D01*
X16814285Y-26608556D02*
X16728570Y-26651413D01*
X16728570Y-26651413D02*
X16685713Y-26694270D01*
X16685713Y-26694270D02*
X16642856Y-26779984D01*
X16642856Y-26779984D02*
X16642856Y-26908556D01*
X16642856Y-26908556D02*
X16685713Y-26994270D01*
X16685713Y-26994270D02*
X16728570Y-27037127D01*
X16728570Y-27037127D02*
X16814285Y-27079984D01*
X16814285Y-27079984D02*
X17157142Y-27079984D01*
M02*
