%TF.GenerationSoftware,KiCad,Pcbnew,10.0.3*%
%TF.CreationDate,2026-09-17T15:36:07+09:00*%
%TF.ProjectId,74x00_tile,37347830-305f-4746-996c-652e6b696361,0.1*%
%TF.SameCoordinates,Original*%
%TF.FileFunction,Legend,Top*%
%TF.FilePolarity,Positive*%
%FSLAX46Y46*%
G04 Gerber Fmt 4.6, Leading zero omitted, Abs format (unit mm)*
G04 Created by KiCad (PCBNEW 10.0.3) date 2026-09-17 15:36:07*
%MOMM*%
%LPD*%
G01*
G04 APERTURE LIST*
%ADD10C,0.150000*%
%ADD11C,0.120000*%
G04 APERTURE END LIST*
D10*
X39422493Y-23438485D02*
X39346303Y-23400390D01*
X39346303Y-23400390D02*
X39270112Y-23324200D01*
X39270112Y-23324200D02*
X39155826Y-23209914D01*
X39155826Y-23209914D02*
X39079636Y-23171819D01*
X39079636Y-23171819D02*
X39003445Y-23171819D01*
X39041541Y-23362295D02*
X38965350Y-23324200D01*
X38965350Y-23324200D02*
X38889160Y-23248009D01*
X38889160Y-23248009D02*
X38851064Y-23095628D01*
X38851064Y-23095628D02*
X38851064Y-22828961D01*
X38851064Y-22828961D02*
X38889160Y-22676580D01*
X38889160Y-22676580D02*
X38965350Y-22600390D01*
X38965350Y-22600390D02*
X39041541Y-22562295D01*
X39041541Y-22562295D02*
X39193922Y-22562295D01*
X39193922Y-22562295D02*
X39270112Y-22600390D01*
X39270112Y-22600390D02*
X39346303Y-22676580D01*
X39346303Y-22676580D02*
X39384398Y-22828961D01*
X39384398Y-22828961D02*
X39384398Y-23095628D01*
X39384398Y-23095628D02*
X39346303Y-23248009D01*
X39346303Y-23248009D02*
X39270112Y-23324200D01*
X39270112Y-23324200D02*
X39193922Y-23362295D01*
X39193922Y-23362295D02*
X39041541Y-23362295D01*
X40070112Y-22828961D02*
X40070112Y-23362295D01*
X39727255Y-22828961D02*
X39727255Y-23248009D01*
X39727255Y-23248009D02*
X39765350Y-23324200D01*
X39765350Y-23324200D02*
X39841540Y-23362295D01*
X39841540Y-23362295D02*
X39955826Y-23362295D01*
X39955826Y-23362295D02*
X40032017Y-23324200D01*
X40032017Y-23324200D02*
X40070112Y-23286104D01*
X40793922Y-23362295D02*
X40793922Y-22943247D01*
X40793922Y-22943247D02*
X40755827Y-22867057D01*
X40755827Y-22867057D02*
X40679636Y-22828961D01*
X40679636Y-22828961D02*
X40527255Y-22828961D01*
X40527255Y-22828961D02*
X40451065Y-22867057D01*
X40793922Y-23324200D02*
X40717731Y-23362295D01*
X40717731Y-23362295D02*
X40527255Y-23362295D01*
X40527255Y-23362295D02*
X40451065Y-23324200D01*
X40451065Y-23324200D02*
X40412969Y-23248009D01*
X40412969Y-23248009D02*
X40412969Y-23171819D01*
X40412969Y-23171819D02*
X40451065Y-23095628D01*
X40451065Y-23095628D02*
X40527255Y-23057533D01*
X40527255Y-23057533D02*
X40717731Y-23057533D01*
X40717731Y-23057533D02*
X40793922Y-23019438D01*
X41517732Y-23362295D02*
X41517732Y-22562295D01*
X41517732Y-23324200D02*
X41441541Y-23362295D01*
X41441541Y-23362295D02*
X41289160Y-23362295D01*
X41289160Y-23362295D02*
X41212970Y-23324200D01*
X41212970Y-23324200D02*
X41174875Y-23286104D01*
X41174875Y-23286104D02*
X41136779Y-23209914D01*
X41136779Y-23209914D02*
X41136779Y-22981342D01*
X41136779Y-22981342D02*
X41174875Y-22905152D01*
X41174875Y-22905152D02*
X41212970Y-22867057D01*
X41212970Y-22867057D02*
X41289160Y-22828961D01*
X41289160Y-22828961D02*
X41441541Y-22828961D01*
X41441541Y-22828961D02*
X41517732Y-22867057D01*
X42470113Y-22638485D02*
X42508209Y-22600390D01*
X42508209Y-22600390D02*
X42584399Y-22562295D01*
X42584399Y-22562295D02*
X42774875Y-22562295D01*
X42774875Y-22562295D02*
X42851066Y-22600390D01*
X42851066Y-22600390D02*
X42889161Y-22638485D01*
X42889161Y-22638485D02*
X42927256Y-22714676D01*
X42927256Y-22714676D02*
X42927256Y-22790866D01*
X42927256Y-22790866D02*
X42889161Y-22905152D01*
X42889161Y-22905152D02*
X42432018Y-23362295D01*
X42432018Y-23362295D02*
X42927256Y-23362295D01*
X43270114Y-23057533D02*
X43879638Y-23057533D01*
X44260590Y-23362295D02*
X44260590Y-22828961D01*
X44260590Y-22562295D02*
X44222494Y-22600390D01*
X44222494Y-22600390D02*
X44260590Y-22638485D01*
X44260590Y-22638485D02*
X44298685Y-22600390D01*
X44298685Y-22600390D02*
X44260590Y-22562295D01*
X44260590Y-22562295D02*
X44260590Y-22638485D01*
X44641542Y-22828961D02*
X44641542Y-23362295D01*
X44641542Y-22905152D02*
X44679637Y-22867057D01*
X44679637Y-22867057D02*
X44755827Y-22828961D01*
X44755827Y-22828961D02*
X44870113Y-22828961D01*
X44870113Y-22828961D02*
X44946304Y-22867057D01*
X44946304Y-22867057D02*
X44984399Y-22943247D01*
X44984399Y-22943247D02*
X44984399Y-23362295D01*
X45365352Y-22828961D02*
X45365352Y-23628961D01*
X45365352Y-22867057D02*
X45441542Y-22828961D01*
X45441542Y-22828961D02*
X45593923Y-22828961D01*
X45593923Y-22828961D02*
X45670114Y-22867057D01*
X45670114Y-22867057D02*
X45708209Y-22905152D01*
X45708209Y-22905152D02*
X45746304Y-22981342D01*
X45746304Y-22981342D02*
X45746304Y-23209914D01*
X45746304Y-23209914D02*
X45708209Y-23286104D01*
X45708209Y-23286104D02*
X45670114Y-23324200D01*
X45670114Y-23324200D02*
X45593923Y-23362295D01*
X45593923Y-23362295D02*
X45441542Y-23362295D01*
X45441542Y-23362295D02*
X45365352Y-23324200D01*
X46432019Y-22828961D02*
X46432019Y-23362295D01*
X46089162Y-22828961D02*
X46089162Y-23248009D01*
X46089162Y-23248009D02*
X46127257Y-23324200D01*
X46127257Y-23324200D02*
X46203447Y-23362295D01*
X46203447Y-23362295D02*
X46317733Y-23362295D01*
X46317733Y-23362295D02*
X46393924Y-23324200D01*
X46393924Y-23324200D02*
X46432019Y-23286104D01*
X46698686Y-22828961D02*
X47003448Y-22828961D01*
X46812972Y-22562295D02*
X46812972Y-23248009D01*
X46812972Y-23248009D02*
X46851067Y-23324200D01*
X46851067Y-23324200D02*
X46927257Y-23362295D01*
X46927257Y-23362295D02*
X47003448Y-23362295D01*
X38889160Y-24562295D02*
X38889160Y-23762295D01*
X38889160Y-23762295D02*
X39346303Y-24562295D01*
X39346303Y-24562295D02*
X39346303Y-23762295D01*
X39689159Y-24333723D02*
X40070112Y-24333723D01*
X39612969Y-24562295D02*
X39879636Y-23762295D01*
X39879636Y-23762295D02*
X40146302Y-24562295D01*
X40412969Y-24562295D02*
X40412969Y-23762295D01*
X40412969Y-23762295D02*
X40870112Y-24562295D01*
X40870112Y-24562295D02*
X40870112Y-23762295D01*
X41251064Y-24562295D02*
X41251064Y-23762295D01*
X41251064Y-23762295D02*
X41441540Y-23762295D01*
X41441540Y-23762295D02*
X41555826Y-23800390D01*
X41555826Y-23800390D02*
X41632016Y-23876580D01*
X41632016Y-23876580D02*
X41670111Y-23952771D01*
X41670111Y-23952771D02*
X41708207Y-24105152D01*
X41708207Y-24105152D02*
X41708207Y-24219438D01*
X41708207Y-24219438D02*
X41670111Y-24371819D01*
X41670111Y-24371819D02*
X41632016Y-24448009D01*
X41632016Y-24448009D02*
X41555826Y-24524200D01*
X41555826Y-24524200D02*
X41441540Y-24562295D01*
X41441540Y-24562295D02*
X41251064Y-24562295D01*
X43003445Y-24028961D02*
X43003445Y-24676580D01*
X43003445Y-24676580D02*
X42965350Y-24752771D01*
X42965350Y-24752771D02*
X42927254Y-24790866D01*
X42927254Y-24790866D02*
X42851064Y-24828961D01*
X42851064Y-24828961D02*
X42736778Y-24828961D01*
X42736778Y-24828961D02*
X42660588Y-24790866D01*
X43003445Y-24524200D02*
X42927254Y-24562295D01*
X42927254Y-24562295D02*
X42774873Y-24562295D01*
X42774873Y-24562295D02*
X42698683Y-24524200D01*
X42698683Y-24524200D02*
X42660588Y-24486104D01*
X42660588Y-24486104D02*
X42622492Y-24409914D01*
X42622492Y-24409914D02*
X42622492Y-24181342D01*
X42622492Y-24181342D02*
X42660588Y-24105152D01*
X42660588Y-24105152D02*
X42698683Y-24067057D01*
X42698683Y-24067057D02*
X42774873Y-24028961D01*
X42774873Y-24028961D02*
X42927254Y-24028961D01*
X42927254Y-24028961D02*
X43003445Y-24067057D01*
X43727255Y-24562295D02*
X43727255Y-24143247D01*
X43727255Y-24143247D02*
X43689160Y-24067057D01*
X43689160Y-24067057D02*
X43612969Y-24028961D01*
X43612969Y-24028961D02*
X43460588Y-24028961D01*
X43460588Y-24028961D02*
X43384398Y-24067057D01*
X43727255Y-24524200D02*
X43651064Y-24562295D01*
X43651064Y-24562295D02*
X43460588Y-24562295D01*
X43460588Y-24562295D02*
X43384398Y-24524200D01*
X43384398Y-24524200D02*
X43346302Y-24448009D01*
X43346302Y-24448009D02*
X43346302Y-24371819D01*
X43346302Y-24371819D02*
X43384398Y-24295628D01*
X43384398Y-24295628D02*
X43460588Y-24257533D01*
X43460588Y-24257533D02*
X43651064Y-24257533D01*
X43651064Y-24257533D02*
X43727255Y-24219438D01*
X43993922Y-24028961D02*
X44298684Y-24028961D01*
X44108208Y-23762295D02*
X44108208Y-24448009D01*
X44108208Y-24448009D02*
X44146303Y-24524200D01*
X44146303Y-24524200D02*
X44222493Y-24562295D01*
X44222493Y-24562295D02*
X44298684Y-24562295D01*
X44870113Y-24524200D02*
X44793922Y-24562295D01*
X44793922Y-24562295D02*
X44641541Y-24562295D01*
X44641541Y-24562295D02*
X44565351Y-24524200D01*
X44565351Y-24524200D02*
X44527255Y-24448009D01*
X44527255Y-24448009D02*
X44527255Y-24143247D01*
X44527255Y-24143247D02*
X44565351Y-24067057D01*
X44565351Y-24067057D02*
X44641541Y-24028961D01*
X44641541Y-24028961D02*
X44793922Y-24028961D01*
X44793922Y-24028961D02*
X44870113Y-24067057D01*
X44870113Y-24067057D02*
X44908208Y-24143247D01*
X44908208Y-24143247D02*
X44908208Y-24219438D01*
X44908208Y-24219438D02*
X44527255Y-24295628D01*
X39232017Y-25628960D02*
X39232017Y-26162294D01*
X39041541Y-25324199D02*
X38851064Y-25895627D01*
X38851064Y-25895627D02*
X39346303Y-25895627D01*
X39536779Y-26124199D02*
X40527255Y-26124199D01*
X39536779Y-25324199D02*
X39536779Y-26162294D01*
X39803446Y-25857532D02*
X40260589Y-25857532D01*
X39803446Y-25552770D02*
X39803446Y-25857532D01*
X39536779Y-25324199D02*
X40527255Y-25324199D01*
X40527255Y-25324199D02*
X40527255Y-26162294D01*
X39803446Y-25552770D02*
X40260589Y-25552770D01*
X40260589Y-25552770D02*
X40260589Y-25857532D01*
X40793921Y-25590865D02*
X41098683Y-25590865D01*
X40793921Y-25324199D02*
X40793921Y-25590865D01*
X40793921Y-25743246D02*
X40793921Y-26086103D01*
X40946302Y-25781341D02*
X41098683Y-25781341D01*
X40946302Y-25552770D02*
X40946302Y-26048008D01*
X41098683Y-26048008D02*
X40717731Y-26086103D01*
X41251064Y-25819437D02*
X41251064Y-26162294D01*
X41251064Y-26124199D02*
X41670112Y-26124199D01*
X40793921Y-25324199D02*
X41098683Y-25324199D01*
X41098683Y-25324199D02*
X41098683Y-25590865D01*
X41251064Y-25819437D02*
X41670112Y-25819437D01*
X41670112Y-25819437D02*
X41670112Y-26162294D01*
X41327255Y-25248008D02*
X41251064Y-25438484D01*
X41251064Y-25438484D02*
X41136779Y-25552770D01*
X41289160Y-25400389D02*
X41327255Y-25552770D01*
X41327255Y-25552770D02*
X41555826Y-25781341D01*
X41555826Y-25781341D02*
X41708207Y-25819437D01*
X41289160Y-25362294D02*
X41593921Y-25362294D01*
X41593921Y-25362294D02*
X41517731Y-25552770D01*
X41517731Y-25552770D02*
X41289160Y-25743246D01*
X41289160Y-25743246D02*
X41098683Y-25819437D01*
X41974873Y-25438484D02*
X42012969Y-25400389D01*
X42012969Y-25400389D02*
X42089159Y-25362294D01*
X42089159Y-25362294D02*
X42279635Y-25362294D01*
X42279635Y-25362294D02*
X42355826Y-25400389D01*
X42355826Y-25400389D02*
X42393921Y-25438484D01*
X42393921Y-25438484D02*
X42432016Y-25514675D01*
X42432016Y-25514675D02*
X42432016Y-25590865D01*
X42432016Y-25590865D02*
X42393921Y-25705151D01*
X42393921Y-25705151D02*
X41936778Y-26162294D01*
X41936778Y-26162294D02*
X42432016Y-26162294D01*
X43155826Y-25438484D02*
X43117731Y-25667056D01*
X43117731Y-25667056D02*
X43003445Y-25895627D01*
X43003445Y-25895627D02*
X42736778Y-26162294D01*
X42889159Y-25362294D02*
X43155826Y-25362294D01*
X43155826Y-25362294D02*
X43232017Y-25590865D01*
X43232017Y-25590865D02*
X43346302Y-25895627D01*
X43346302Y-25895627D02*
X43612969Y-26162294D01*
X44451064Y-26162294D02*
X44717730Y-26162294D01*
X43879635Y-25514675D02*
X44832016Y-25514675D01*
X44832016Y-25514675D02*
X44832016Y-25743246D01*
X44832016Y-25743246D02*
X44755826Y-26124199D01*
X44298683Y-25248008D02*
X44298683Y-25590865D01*
X44298683Y-25590865D02*
X44222492Y-25781341D01*
X44222492Y-25781341D02*
X44108207Y-25971818D01*
X44108207Y-25971818D02*
X43879635Y-26162294D01*
X45136778Y-26162294D02*
X45136778Y-25362294D01*
X45136778Y-25362294D02*
X45593921Y-26162294D01*
X45593921Y-26162294D02*
X45593921Y-25362294D01*
X45936777Y-25933722D02*
X46317730Y-25933722D01*
X45860587Y-26162294D02*
X46127254Y-25362294D01*
X46127254Y-25362294D02*
X46393920Y-26162294D01*
X46660587Y-26162294D02*
X46660587Y-25362294D01*
X46660587Y-25362294D02*
X47117730Y-26162294D01*
X47117730Y-26162294D02*
X47117730Y-25362294D01*
X47498682Y-26162294D02*
X47498682Y-25362294D01*
X47498682Y-25362294D02*
X47689158Y-25362294D01*
X47689158Y-25362294D02*
X47803444Y-25400389D01*
X47803444Y-25400389D02*
X47879634Y-25476579D01*
X47879634Y-25476579D02*
X47917729Y-25552770D01*
X47917729Y-25552770D02*
X47955825Y-25705151D01*
X47955825Y-25705151D02*
X47955825Y-25819437D01*
X47955825Y-25819437D02*
X47917729Y-25971818D01*
X47917729Y-25971818D02*
X47879634Y-26048008D01*
X47879634Y-26048008D02*
X47803444Y-26124199D01*
X47803444Y-26124199D02*
X47689158Y-26162294D01*
X47689158Y-26162294D02*
X47498682Y-26162294D01*
X38965350Y-26752771D02*
X39384398Y-26752771D01*
X39232017Y-26600390D02*
X39308207Y-26676580D01*
X39346303Y-26562295D02*
X39422493Y-26638485D01*
X39003445Y-26486104D02*
X38965350Y-26638485D01*
X38965350Y-26638485D02*
X38889160Y-26828961D01*
X38889160Y-26828961D02*
X38851064Y-26981342D01*
X39193922Y-26752771D02*
X39193922Y-26943247D01*
X39193922Y-26943247D02*
X39155826Y-27057533D01*
X39155826Y-27057533D02*
X39079636Y-27171819D01*
X39079636Y-27171819D02*
X38965350Y-27324200D01*
X39651064Y-26943247D02*
X40260588Y-26943247D01*
X40793921Y-26828961D02*
X41022493Y-27019438D01*
X40793921Y-26486104D02*
X40793921Y-27324200D01*
X3233333Y-562295D02*
X3500000Y-1362295D01*
X3500000Y-1362295D02*
X3766666Y-562295D01*
X4490476Y-1286104D02*
X4452380Y-1324200D01*
X4452380Y-1324200D02*
X4338095Y-1362295D01*
X4338095Y-1362295D02*
X4261904Y-1362295D01*
X4261904Y-1362295D02*
X4147618Y-1324200D01*
X4147618Y-1324200D02*
X4071428Y-1248009D01*
X4071428Y-1248009D02*
X4033333Y-1171819D01*
X4033333Y-1171819D02*
X3995237Y-1019438D01*
X3995237Y-1019438D02*
X3995237Y-905152D01*
X3995237Y-905152D02*
X4033333Y-752771D01*
X4033333Y-752771D02*
X4071428Y-676580D01*
X4071428Y-676580D02*
X4147618Y-600390D01*
X4147618Y-600390D02*
X4261904Y-562295D01*
X4261904Y-562295D02*
X4338095Y-562295D01*
X4338095Y-562295D02*
X4452380Y-600390D01*
X4452380Y-600390D02*
X4490476Y-638485D01*
X5290476Y-1286104D02*
X5252380Y-1324200D01*
X5252380Y-1324200D02*
X5138095Y-1362295D01*
X5138095Y-1362295D02*
X5061904Y-1362295D01*
X5061904Y-1362295D02*
X4947618Y-1324200D01*
X4947618Y-1324200D02*
X4871428Y-1248009D01*
X4871428Y-1248009D02*
X4833333Y-1171819D01*
X4833333Y-1171819D02*
X4795237Y-1019438D01*
X4795237Y-1019438D02*
X4795237Y-905152D01*
X4795237Y-905152D02*
X4833333Y-752771D01*
X4833333Y-752771D02*
X4871428Y-676580D01*
X4871428Y-676580D02*
X4947618Y-600390D01*
X4947618Y-600390D02*
X5061904Y-562295D01*
X5061904Y-562295D02*
X5138095Y-562295D01*
X5138095Y-562295D02*
X5252380Y-600390D01*
X5252380Y-600390D02*
X5290476Y-638485D01*
X4185714Y-49362295D02*
X3728571Y-49362295D01*
X3957143Y-49362295D02*
X3957143Y-48562295D01*
X3957143Y-48562295D02*
X3880952Y-48676580D01*
X3880952Y-48676580D02*
X3804762Y-48752771D01*
X3804762Y-48752771D02*
X3728571Y-48790866D01*
X4490476Y-49133723D02*
X4871429Y-49133723D01*
X4414286Y-49362295D02*
X4680953Y-48562295D01*
X4680953Y-48562295D02*
X4947619Y-49362295D01*
X4471429Y-22057533D02*
X5080953Y-22057533D01*
X4776191Y-22362295D02*
X4776191Y-21752771D01*
X5842857Y-21562295D02*
X5461905Y-21562295D01*
X5461905Y-21562295D02*
X5423809Y-21943247D01*
X5423809Y-21943247D02*
X5461905Y-21905152D01*
X5461905Y-21905152D02*
X5538095Y-21867057D01*
X5538095Y-21867057D02*
X5728571Y-21867057D01*
X5728571Y-21867057D02*
X5804762Y-21905152D01*
X5804762Y-21905152D02*
X5842857Y-21943247D01*
X5842857Y-21943247D02*
X5880952Y-22019438D01*
X5880952Y-22019438D02*
X5880952Y-22209914D01*
X5880952Y-22209914D02*
X5842857Y-22286104D01*
X5842857Y-22286104D02*
X5804762Y-22324200D01*
X5804762Y-22324200D02*
X5728571Y-22362295D01*
X5728571Y-22362295D02*
X5538095Y-22362295D01*
X5538095Y-22362295D02*
X5461905Y-22324200D01*
X5461905Y-22324200D02*
X5423809Y-22286104D01*
X6109524Y-21562295D02*
X6376191Y-22362295D01*
X6376191Y-22362295D02*
X6642857Y-21562295D01*
X4890476Y-28500390D02*
X4814286Y-28462295D01*
X4814286Y-28462295D02*
X4700000Y-28462295D01*
X4700000Y-28462295D02*
X4585714Y-28500390D01*
X4585714Y-28500390D02*
X4509524Y-28576580D01*
X4509524Y-28576580D02*
X4471429Y-28652771D01*
X4471429Y-28652771D02*
X4433333Y-28805152D01*
X4433333Y-28805152D02*
X4433333Y-28919438D01*
X4433333Y-28919438D02*
X4471429Y-29071819D01*
X4471429Y-29071819D02*
X4509524Y-29148009D01*
X4509524Y-29148009D02*
X4585714Y-29224200D01*
X4585714Y-29224200D02*
X4700000Y-29262295D01*
X4700000Y-29262295D02*
X4776191Y-29262295D01*
X4776191Y-29262295D02*
X4890476Y-29224200D01*
X4890476Y-29224200D02*
X4928572Y-29186104D01*
X4928572Y-29186104D02*
X4928572Y-28919438D01*
X4928572Y-28919438D02*
X4776191Y-28919438D01*
X5271429Y-29262295D02*
X5271429Y-28462295D01*
X5271429Y-28462295D02*
X5728572Y-29262295D01*
X5728572Y-29262295D02*
X5728572Y-28462295D01*
X6109524Y-29262295D02*
X6109524Y-28462295D01*
X6109524Y-28462295D02*
X6300000Y-28462295D01*
X6300000Y-28462295D02*
X6414286Y-28500390D01*
X6414286Y-28500390D02*
X6490476Y-28576580D01*
X6490476Y-28576580D02*
X6528571Y-28652771D01*
X6528571Y-28652771D02*
X6566667Y-28805152D01*
X6566667Y-28805152D02*
X6566667Y-28919438D01*
X6566667Y-28919438D02*
X6528571Y-29071819D01*
X6528571Y-29071819D02*
X6490476Y-29148009D01*
X6490476Y-29148009D02*
X6414286Y-29224200D01*
X6414286Y-29224200D02*
X6300000Y-29262295D01*
X6300000Y-29262295D02*
X6109524Y-29262295D01*
X8652381Y-828961D02*
X8652381Y-1362295D01*
X8461905Y-524200D02*
X8271428Y-1095628D01*
X8271428Y-1095628D02*
X8766667Y-1095628D01*
X9338095Y-943247D02*
X9452381Y-981342D01*
X9452381Y-981342D02*
X9490476Y-1019438D01*
X9490476Y-1019438D02*
X9528572Y-1095628D01*
X9528572Y-1095628D02*
X9528572Y-1209914D01*
X9528572Y-1209914D02*
X9490476Y-1286104D01*
X9490476Y-1286104D02*
X9452381Y-1324200D01*
X9452381Y-1324200D02*
X9376191Y-1362295D01*
X9376191Y-1362295D02*
X9071429Y-1362295D01*
X9071429Y-1362295D02*
X9071429Y-562295D01*
X9071429Y-562295D02*
X9338095Y-562295D01*
X9338095Y-562295D02*
X9414286Y-600390D01*
X9414286Y-600390D02*
X9452381Y-638485D01*
X9452381Y-638485D02*
X9490476Y-714676D01*
X9490476Y-714676D02*
X9490476Y-790866D01*
X9490476Y-790866D02*
X9452381Y-867057D01*
X9452381Y-867057D02*
X9414286Y-905152D01*
X9414286Y-905152D02*
X9338095Y-943247D01*
X9338095Y-943247D02*
X9071429Y-943247D01*
X8728571Y-49362295D02*
X8271428Y-49362295D01*
X8500000Y-49362295D02*
X8500000Y-48562295D01*
X8500000Y-48562295D02*
X8423809Y-48676580D01*
X8423809Y-48676580D02*
X8347619Y-48752771D01*
X8347619Y-48752771D02*
X8271428Y-48790866D01*
X9338095Y-48943247D02*
X9452381Y-48981342D01*
X9452381Y-48981342D02*
X9490476Y-49019438D01*
X9490476Y-49019438D02*
X9528572Y-49095628D01*
X9528572Y-49095628D02*
X9528572Y-49209914D01*
X9528572Y-49209914D02*
X9490476Y-49286104D01*
X9490476Y-49286104D02*
X9452381Y-49324200D01*
X9452381Y-49324200D02*
X9376191Y-49362295D01*
X9376191Y-49362295D02*
X9071429Y-49362295D01*
X9071429Y-49362295D02*
X9071429Y-48562295D01*
X9071429Y-48562295D02*
X9338095Y-48562295D01*
X9338095Y-48562295D02*
X9414286Y-48600390D01*
X9414286Y-48600390D02*
X9452381Y-48638485D01*
X9452381Y-48638485D02*
X9490476Y-48714676D01*
X9490476Y-48714676D02*
X9490476Y-48790866D01*
X9490476Y-48790866D02*
X9452381Y-48867057D01*
X9452381Y-48867057D02*
X9414286Y-48905152D01*
X9414286Y-48905152D02*
X9338095Y-48943247D01*
X9338095Y-48943247D02*
X9071429Y-48943247D01*
X13309524Y-828961D02*
X13309524Y-1362295D01*
X13119048Y-524200D02*
X12928571Y-1095628D01*
X12928571Y-1095628D02*
X13423810Y-1095628D01*
X13690476Y-1133723D02*
X14071429Y-1133723D01*
X13614286Y-1362295D02*
X13880953Y-562295D01*
X13880953Y-562295D02*
X14147619Y-1362295D01*
X13385714Y-49362295D02*
X12928571Y-49362295D01*
X13157143Y-49362295D02*
X13157143Y-48562295D01*
X13157143Y-48562295D02*
X13080952Y-48676580D01*
X13080952Y-48676580D02*
X13004762Y-48752771D01*
X13004762Y-48752771D02*
X12928571Y-48790866D01*
X13880953Y-48981342D02*
X13880953Y-49362295D01*
X13614286Y-48562295D02*
X13880953Y-48981342D01*
X13880953Y-48981342D02*
X14147619Y-48562295D01*
X17909524Y-828961D02*
X17909524Y-1362295D01*
X17719048Y-524200D02*
X17528571Y-1095628D01*
X17528571Y-1095628D02*
X18023810Y-1095628D01*
X18480953Y-981342D02*
X18480953Y-1362295D01*
X18214286Y-562295D02*
X18480953Y-981342D01*
X18480953Y-981342D02*
X18747619Y-562295D01*
X17528571Y-48638485D02*
X17566667Y-48600390D01*
X17566667Y-48600390D02*
X17642857Y-48562295D01*
X17642857Y-48562295D02*
X17833333Y-48562295D01*
X17833333Y-48562295D02*
X17909524Y-48600390D01*
X17909524Y-48600390D02*
X17947619Y-48638485D01*
X17947619Y-48638485D02*
X17985714Y-48714676D01*
X17985714Y-48714676D02*
X17985714Y-48790866D01*
X17985714Y-48790866D02*
X17947619Y-48905152D01*
X17947619Y-48905152D02*
X17490476Y-49362295D01*
X17490476Y-49362295D02*
X17985714Y-49362295D01*
X18290476Y-49133723D02*
X18671429Y-49133723D01*
X18214286Y-49362295D02*
X18480953Y-48562295D01*
X18480953Y-48562295D02*
X18747619Y-49362295D01*
X22033333Y-562295D02*
X22528571Y-562295D01*
X22528571Y-562295D02*
X22261905Y-867057D01*
X22261905Y-867057D02*
X22376190Y-867057D01*
X22376190Y-867057D02*
X22452381Y-905152D01*
X22452381Y-905152D02*
X22490476Y-943247D01*
X22490476Y-943247D02*
X22528571Y-1019438D01*
X22528571Y-1019438D02*
X22528571Y-1209914D01*
X22528571Y-1209914D02*
X22490476Y-1286104D01*
X22490476Y-1286104D02*
X22452381Y-1324200D01*
X22452381Y-1324200D02*
X22376190Y-1362295D01*
X22376190Y-1362295D02*
X22147619Y-1362295D01*
X22147619Y-1362295D02*
X22071428Y-1324200D01*
X22071428Y-1324200D02*
X22033333Y-1286104D01*
X23138095Y-943247D02*
X23252381Y-981342D01*
X23252381Y-981342D02*
X23290476Y-1019438D01*
X23290476Y-1019438D02*
X23328572Y-1095628D01*
X23328572Y-1095628D02*
X23328572Y-1209914D01*
X23328572Y-1209914D02*
X23290476Y-1286104D01*
X23290476Y-1286104D02*
X23252381Y-1324200D01*
X23252381Y-1324200D02*
X23176191Y-1362295D01*
X23176191Y-1362295D02*
X22871429Y-1362295D01*
X22871429Y-1362295D02*
X22871429Y-562295D01*
X22871429Y-562295D02*
X23138095Y-562295D01*
X23138095Y-562295D02*
X23214286Y-600390D01*
X23214286Y-600390D02*
X23252381Y-638485D01*
X23252381Y-638485D02*
X23290476Y-714676D01*
X23290476Y-714676D02*
X23290476Y-790866D01*
X23290476Y-790866D02*
X23252381Y-867057D01*
X23252381Y-867057D02*
X23214286Y-905152D01*
X23214286Y-905152D02*
X23138095Y-943247D01*
X23138095Y-943247D02*
X22871429Y-943247D01*
X22071428Y-48638485D02*
X22109524Y-48600390D01*
X22109524Y-48600390D02*
X22185714Y-48562295D01*
X22185714Y-48562295D02*
X22376190Y-48562295D01*
X22376190Y-48562295D02*
X22452381Y-48600390D01*
X22452381Y-48600390D02*
X22490476Y-48638485D01*
X22490476Y-48638485D02*
X22528571Y-48714676D01*
X22528571Y-48714676D02*
X22528571Y-48790866D01*
X22528571Y-48790866D02*
X22490476Y-48905152D01*
X22490476Y-48905152D02*
X22033333Y-49362295D01*
X22033333Y-49362295D02*
X22528571Y-49362295D01*
X23138095Y-48943247D02*
X23252381Y-48981342D01*
X23252381Y-48981342D02*
X23290476Y-49019438D01*
X23290476Y-49019438D02*
X23328572Y-49095628D01*
X23328572Y-49095628D02*
X23328572Y-49209914D01*
X23328572Y-49209914D02*
X23290476Y-49286104D01*
X23290476Y-49286104D02*
X23252381Y-49324200D01*
X23252381Y-49324200D02*
X23176191Y-49362295D01*
X23176191Y-49362295D02*
X22871429Y-49362295D01*
X22871429Y-49362295D02*
X22871429Y-48562295D01*
X22871429Y-48562295D02*
X23138095Y-48562295D01*
X23138095Y-48562295D02*
X23214286Y-48600390D01*
X23214286Y-48600390D02*
X23252381Y-48638485D01*
X23252381Y-48638485D02*
X23290476Y-48714676D01*
X23290476Y-48714676D02*
X23290476Y-48790866D01*
X23290476Y-48790866D02*
X23252381Y-48867057D01*
X23252381Y-48867057D02*
X23214286Y-48905152D01*
X23214286Y-48905152D02*
X23138095Y-48943247D01*
X23138095Y-48943247D02*
X22871429Y-48943247D01*
X26690476Y-562295D02*
X27185714Y-562295D01*
X27185714Y-562295D02*
X26919048Y-867057D01*
X26919048Y-867057D02*
X27033333Y-867057D01*
X27033333Y-867057D02*
X27109524Y-905152D01*
X27109524Y-905152D02*
X27147619Y-943247D01*
X27147619Y-943247D02*
X27185714Y-1019438D01*
X27185714Y-1019438D02*
X27185714Y-1209914D01*
X27185714Y-1209914D02*
X27147619Y-1286104D01*
X27147619Y-1286104D02*
X27109524Y-1324200D01*
X27109524Y-1324200D02*
X27033333Y-1362295D01*
X27033333Y-1362295D02*
X26804762Y-1362295D01*
X26804762Y-1362295D02*
X26728571Y-1324200D01*
X26728571Y-1324200D02*
X26690476Y-1286104D01*
X27490476Y-1133723D02*
X27871429Y-1133723D01*
X27414286Y-1362295D02*
X27680953Y-562295D01*
X27680953Y-562295D02*
X27947619Y-1362295D01*
X26728571Y-48638485D02*
X26766667Y-48600390D01*
X26766667Y-48600390D02*
X26842857Y-48562295D01*
X26842857Y-48562295D02*
X27033333Y-48562295D01*
X27033333Y-48562295D02*
X27109524Y-48600390D01*
X27109524Y-48600390D02*
X27147619Y-48638485D01*
X27147619Y-48638485D02*
X27185714Y-48714676D01*
X27185714Y-48714676D02*
X27185714Y-48790866D01*
X27185714Y-48790866D02*
X27147619Y-48905152D01*
X27147619Y-48905152D02*
X26690476Y-49362295D01*
X26690476Y-49362295D02*
X27185714Y-49362295D01*
X27680953Y-48981342D02*
X27680953Y-49362295D01*
X27414286Y-48562295D02*
X27680953Y-48981342D01*
X27680953Y-48981342D02*
X27947619Y-48562295D01*
X31290476Y-562295D02*
X31785714Y-562295D01*
X31785714Y-562295D02*
X31519048Y-867057D01*
X31519048Y-867057D02*
X31633333Y-867057D01*
X31633333Y-867057D02*
X31709524Y-905152D01*
X31709524Y-905152D02*
X31747619Y-943247D01*
X31747619Y-943247D02*
X31785714Y-1019438D01*
X31785714Y-1019438D02*
X31785714Y-1209914D01*
X31785714Y-1209914D02*
X31747619Y-1286104D01*
X31747619Y-1286104D02*
X31709524Y-1324200D01*
X31709524Y-1324200D02*
X31633333Y-1362295D01*
X31633333Y-1362295D02*
X31404762Y-1362295D01*
X31404762Y-1362295D02*
X31328571Y-1324200D01*
X31328571Y-1324200D02*
X31290476Y-1286104D01*
X32280953Y-981342D02*
X32280953Y-1362295D01*
X32014286Y-562295D02*
X32280953Y-981342D01*
X32280953Y-981342D02*
X32547619Y-562295D01*
X31290476Y-48600390D02*
X31214286Y-48562295D01*
X31214286Y-48562295D02*
X31100000Y-48562295D01*
X31100000Y-48562295D02*
X30985714Y-48600390D01*
X30985714Y-48600390D02*
X30909524Y-48676580D01*
X30909524Y-48676580D02*
X30871429Y-48752771D01*
X30871429Y-48752771D02*
X30833333Y-48905152D01*
X30833333Y-48905152D02*
X30833333Y-49019438D01*
X30833333Y-49019438D02*
X30871429Y-49171819D01*
X30871429Y-49171819D02*
X30909524Y-49248009D01*
X30909524Y-49248009D02*
X30985714Y-49324200D01*
X30985714Y-49324200D02*
X31100000Y-49362295D01*
X31100000Y-49362295D02*
X31176191Y-49362295D01*
X31176191Y-49362295D02*
X31290476Y-49324200D01*
X31290476Y-49324200D02*
X31328572Y-49286104D01*
X31328572Y-49286104D02*
X31328572Y-49019438D01*
X31328572Y-49019438D02*
X31176191Y-49019438D01*
X31671429Y-49362295D02*
X31671429Y-48562295D01*
X31671429Y-48562295D02*
X32128572Y-49362295D01*
X32128572Y-49362295D02*
X32128572Y-48562295D01*
X32509524Y-49362295D02*
X32509524Y-48562295D01*
X32509524Y-48562295D02*
X32700000Y-48562295D01*
X32700000Y-48562295D02*
X32814286Y-48600390D01*
X32814286Y-48600390D02*
X32890476Y-48676580D01*
X32890476Y-48676580D02*
X32928571Y-48752771D01*
X32928571Y-48752771D02*
X32966667Y-48905152D01*
X32966667Y-48905152D02*
X32966667Y-49019438D01*
X32966667Y-49019438D02*
X32928571Y-49171819D01*
X32928571Y-49171819D02*
X32890476Y-49248009D01*
X32890476Y-49248009D02*
X32814286Y-49324200D01*
X32814286Y-49324200D02*
X32700000Y-49362295D01*
X32700000Y-49362295D02*
X32509524Y-49362295D01*
X40333332Y-20332390D02*
X41399999Y-20332390D01*
X41399999Y-20332390D02*
X40714284Y-21932390D01*
X42695237Y-20865723D02*
X42695237Y-21932390D01*
X42314285Y-20256200D02*
X41933332Y-21399057D01*
X41933332Y-21399057D02*
X42923809Y-21399057D01*
X43380952Y-21932390D02*
X44219047Y-20865723D01*
X43380952Y-20865723D02*
X44219047Y-21932390D01*
X45133333Y-20332390D02*
X45285714Y-20332390D01*
X45285714Y-20332390D02*
X45438095Y-20408580D01*
X45438095Y-20408580D02*
X45514285Y-20484771D01*
X45514285Y-20484771D02*
X45590476Y-20637152D01*
X45590476Y-20637152D02*
X45666666Y-20941914D01*
X45666666Y-20941914D02*
X45666666Y-21322866D01*
X45666666Y-21322866D02*
X45590476Y-21627628D01*
X45590476Y-21627628D02*
X45514285Y-21780009D01*
X45514285Y-21780009D02*
X45438095Y-21856200D01*
X45438095Y-21856200D02*
X45285714Y-21932390D01*
X45285714Y-21932390D02*
X45133333Y-21932390D01*
X45133333Y-21932390D02*
X44980952Y-21856200D01*
X44980952Y-21856200D02*
X44904761Y-21780009D01*
X44904761Y-21780009D02*
X44828571Y-21627628D01*
X44828571Y-21627628D02*
X44752380Y-21322866D01*
X44752380Y-21322866D02*
X44752380Y-20941914D01*
X44752380Y-20941914D02*
X44828571Y-20637152D01*
X44828571Y-20637152D02*
X44904761Y-20484771D01*
X44904761Y-20484771D02*
X44980952Y-20408580D01*
X44980952Y-20408580D02*
X45133333Y-20332390D01*
X46657143Y-20332390D02*
X46809524Y-20332390D01*
X46809524Y-20332390D02*
X46961905Y-20408580D01*
X46961905Y-20408580D02*
X47038095Y-20484771D01*
X47038095Y-20484771D02*
X47114286Y-20637152D01*
X47114286Y-20637152D02*
X47190476Y-20941914D01*
X47190476Y-20941914D02*
X47190476Y-21322866D01*
X47190476Y-21322866D02*
X47114286Y-21627628D01*
X47114286Y-21627628D02*
X47038095Y-21780009D01*
X47038095Y-21780009D02*
X46961905Y-21856200D01*
X46961905Y-21856200D02*
X46809524Y-21932390D01*
X46809524Y-21932390D02*
X46657143Y-21932390D01*
X46657143Y-21932390D02*
X46504762Y-21856200D01*
X46504762Y-21856200D02*
X46428571Y-21780009D01*
X46428571Y-21780009D02*
X46352381Y-21627628D01*
X46352381Y-21627628D02*
X46276190Y-21322866D01*
X46276190Y-21322866D02*
X46276190Y-20941914D01*
X46276190Y-20941914D02*
X46352381Y-20637152D01*
X46352381Y-20637152D02*
X46428571Y-20484771D01*
X46428571Y-20484771D02*
X46504762Y-20408580D01*
X46504762Y-20408580D02*
X46657143Y-20332390D01*
%TO.C,U1*%
D11*
X12240000Y-22350000D02*
X12240000Y-24000000D01*
X12240000Y-26000000D02*
X12240000Y-27650000D01*
X12240000Y-27650000D02*
X37760000Y-27650000D01*
X37760000Y-22350000D02*
X12240000Y-22350000D01*
X37760000Y-27650000D02*
X37760000Y-22350000D01*
X12180000Y-19860000D02*
X37820000Y-19860000D01*
X37820000Y-30140000D01*
X12180000Y-30140000D01*
X12180000Y-19860000D01*
X12240000Y-24000000D02*
G75*
G02*
X12240000Y-26000000I0J-1000000D01*
G01*
%TO.C,R24*%
X17577500Y-35037258D02*
X17577500Y-34562742D01*
X18622500Y-35037258D02*
X18622500Y-34562742D01*
%TO.C,D19*%
X9765000Y-10615000D02*
X9765000Y-12900000D01*
X11235000Y-10615000D02*
X9765000Y-10615000D01*
X11235000Y-12900000D02*
X11235000Y-10615000D01*
%TO.C,R17*%
X19177500Y-14962742D02*
X19177500Y-15437258D01*
X20222500Y-14962742D02*
X20222500Y-15437258D01*
%TO.C,R21*%
X3777500Y-35037258D02*
X3777500Y-34562742D01*
X4822500Y-35037258D02*
X4822500Y-34562742D01*
%TO.C,D16*%
X23565000Y-10615000D02*
X23565000Y-12900000D01*
X25035000Y-10615000D02*
X23565000Y-10615000D01*
X25035000Y-12900000D02*
X25035000Y-10615000D01*
%TO.C,R9*%
X38977499Y-35037258D02*
X38977499Y-34562742D01*
X40022499Y-35037258D02*
X40022499Y-34562742D01*
%TO.C,R2*%
X6777500Y-35037258D02*
X6777500Y-34562742D01*
X7822500Y-35037258D02*
X7822500Y-34562742D01*
%TO.C,R12*%
X42177499Y-14962742D02*
X42177499Y-15437258D01*
X43222499Y-14962742D02*
X43222499Y-15437258D01*
%TO.C,R18*%
X14577500Y-14962742D02*
X14577500Y-15437258D01*
X15622500Y-14962742D02*
X15622500Y-15437258D01*
%TO.C,R33*%
X35977500Y-14962742D02*
X35977500Y-15437258D01*
X37022500Y-14962742D02*
X37022500Y-15437258D01*
%TO.C,R19*%
X9977500Y-14962742D02*
X9977500Y-15437258D01*
X11022500Y-14962742D02*
X11022500Y-15437258D01*
%TO.C,R26*%
X26777500Y-35037258D02*
X26777500Y-34562742D01*
X27822500Y-35037258D02*
X27822500Y-34562742D01*
%TO.C,D4*%
X15765000Y-37100000D02*
X15765000Y-39385000D01*
X15765000Y-39385000D02*
X17235000Y-39385000D01*
X17235000Y-39385000D02*
X17235000Y-37100000D01*
%TO.C,R11*%
X46777500Y-14962742D02*
X46777500Y-15437258D01*
X47822500Y-14962742D02*
X47822500Y-15437258D01*
%TO.C,D15*%
X28165000Y-10615000D02*
X28165000Y-12900000D01*
X29635000Y-10615000D02*
X28165000Y-10615000D01*
X29635000Y-12900000D02*
X29635000Y-10615000D01*
%TO.C,R14*%
X32977500Y-14962742D02*
X32977500Y-15437258D01*
X34022500Y-14962742D02*
X34022500Y-15437258D01*
%TO.C,R30*%
X45177500Y-35037258D02*
X45177500Y-34562742D01*
X46222500Y-35037258D02*
X46222500Y-34562742D01*
%TO.C,R1*%
X2177500Y-35037258D02*
X2177500Y-34562742D01*
X3222500Y-35037258D02*
X3222500Y-34562742D01*
%TO.C,D6*%
X24965000Y-37100000D02*
X24965000Y-39385000D01*
X24965000Y-39385000D02*
X26435000Y-39385000D01*
X26435000Y-39385000D02*
X26435000Y-37100000D01*
%TO.C,R29*%
X40577499Y-35037258D02*
X40577499Y-34562742D01*
X41622499Y-35037258D02*
X41622499Y-34562742D01*
%TO.C,D12*%
X41964999Y-10615000D02*
X41964999Y-12900000D01*
X43434999Y-10615000D02*
X41964999Y-10615000D01*
X43434999Y-12900000D02*
X43434999Y-10615000D01*
%TO.C,C1*%
X10690000Y-24859420D02*
X10690000Y-25140580D01*
X11710000Y-24859420D02*
X11710000Y-25140580D01*
%TO.C,R35*%
X26777500Y-14962742D02*
X26777500Y-15437258D01*
X27822500Y-14962742D02*
X27822500Y-15437258D01*
%TO.C,R15*%
X28377500Y-14962742D02*
X28377500Y-15437258D01*
X29422500Y-14962742D02*
X29422500Y-15437258D01*
%TO.C,R16*%
X23777500Y-14962742D02*
X23777500Y-15437258D01*
X24822500Y-14962742D02*
X24822500Y-15437258D01*
%TO.C,R5*%
X20577499Y-35037258D02*
X20577499Y-34562742D01*
X21622499Y-35037258D02*
X21622499Y-34562742D01*
%TO.C,R25*%
X22177500Y-35037258D02*
X22177500Y-34562742D01*
X23222500Y-35037258D02*
X23222500Y-34562742D01*
%TO.C,D13*%
X37365000Y-10615000D02*
X37365000Y-12900000D01*
X38835000Y-10615000D02*
X37365000Y-10615000D01*
X38835000Y-12900000D02*
X38835000Y-10615000D01*
%TO.C,D3*%
X11165000Y-37100000D02*
X11165000Y-39385000D01*
X11165000Y-39385000D02*
X12635000Y-39385000D01*
X12635000Y-39385000D02*
X12635000Y-37100000D01*
%TO.C,R23*%
X12977500Y-35037258D02*
X12977500Y-34562742D01*
X14022500Y-35037258D02*
X14022500Y-34562742D01*
%TO.C,R4*%
X15977500Y-35037258D02*
X15977500Y-34562742D01*
X17022500Y-35037258D02*
X17022500Y-34562742D01*
%TO.C,D18*%
X14365000Y-10615000D02*
X14365000Y-12900000D01*
X15835000Y-10615000D02*
X14365000Y-10615000D01*
X15835000Y-12900000D02*
X15835000Y-10615000D01*
%TO.C,D14*%
X32765000Y-10615000D02*
X32765000Y-12900000D01*
X34235000Y-10615000D02*
X32765000Y-10615000D01*
X34235000Y-12900000D02*
X34235000Y-10615000D01*
%TO.C,R31*%
X45177500Y-14962742D02*
X45177500Y-15437258D01*
X46222500Y-14962742D02*
X46222500Y-15437258D01*
%TO.C,R3*%
X11377500Y-35037258D02*
X11377500Y-34562742D01*
X12422500Y-35037258D02*
X12422500Y-34562742D01*
%TO.C,R32*%
X40577499Y-14962742D02*
X40577499Y-15437258D01*
X41622499Y-14962742D02*
X41622499Y-15437258D01*
%TO.C,J1*%
X6920000Y-22795000D02*
X8300000Y-22795000D01*
X6920000Y-24175000D02*
X6920000Y-22795000D01*
X6920000Y-25445000D02*
X6920000Y-28095000D01*
X6920000Y-25445000D02*
X9680000Y-25445000D01*
X6920000Y-28095000D02*
X9680000Y-28095000D01*
X9680000Y-25445000D02*
X9680000Y-28095000D01*
%TO.C,D17*%
X18965000Y-10615000D02*
X18965000Y-12900000D01*
X20435000Y-10615000D02*
X18965000Y-10615000D01*
X20435000Y-12900000D02*
X20435000Y-10615000D01*
%TO.C,R39*%
X8377500Y-14962742D02*
X8377500Y-15437258D01*
X9422500Y-14962742D02*
X9422500Y-15437258D01*
%TO.C,R6*%
X25177500Y-35037258D02*
X25177500Y-34562742D01*
X26222500Y-35037258D02*
X26222500Y-34562742D01*
%TO.C,R28*%
X35977500Y-35037258D02*
X35977500Y-34562742D01*
X37022500Y-35037258D02*
X37022500Y-34562742D01*
%TO.C,D10*%
X43365000Y-37100000D02*
X43365000Y-39385000D01*
X43365000Y-39385000D02*
X44835000Y-39385000D01*
X44835000Y-39385000D02*
X44835000Y-37100000D01*
%TO.C,D9*%
X38764999Y-37100000D02*
X38764999Y-39385000D01*
X38764999Y-39385000D02*
X40234999Y-39385000D01*
X40234999Y-39385000D02*
X40234999Y-37100000D01*
%TO.C,D11*%
X46565000Y-10615000D02*
X46565000Y-12900000D01*
X48035000Y-10615000D02*
X46565000Y-10615000D01*
X48035000Y-12900000D02*
X48035000Y-10615000D01*
%TO.C,R8*%
X34377500Y-35037258D02*
X34377500Y-34562742D01*
X35422500Y-35037258D02*
X35422500Y-34562742D01*
%TO.C,R13*%
X37577500Y-14962742D02*
X37577500Y-15437258D01*
X38622500Y-14962742D02*
X38622500Y-15437258D01*
%TO.C,R10*%
X43577500Y-35037258D02*
X43577500Y-34562742D01*
X44622500Y-35037258D02*
X44622500Y-34562742D01*
%TO.C,D5*%
X20364999Y-37100000D02*
X20364999Y-39385000D01*
X20364999Y-39385000D02*
X21834999Y-39385000D01*
X21834999Y-39385000D02*
X21834999Y-37100000D01*
%TO.C,R37*%
X17577500Y-14962742D02*
X17577500Y-15437258D01*
X18622500Y-14962742D02*
X18622500Y-15437258D01*
%TO.C,D1*%
X1965000Y-37100000D02*
X1965000Y-39385000D01*
X1965000Y-39385000D02*
X3435000Y-39385000D01*
X3435000Y-39385000D02*
X3435000Y-37100000D01*
%TO.C,R38*%
X12977500Y-14962742D02*
X12977500Y-15437258D01*
X14022500Y-14962742D02*
X14022500Y-15437258D01*
%TO.C,D8*%
X34165000Y-37100000D02*
X34165000Y-39385000D01*
X34165000Y-39385000D02*
X35635000Y-39385000D01*
X35635000Y-39385000D02*
X35635000Y-37100000D01*
%TO.C,R22*%
X8377500Y-35037258D02*
X8377500Y-34562742D01*
X9422500Y-35037258D02*
X9422500Y-34562742D01*
%TO.C,R34*%
X31377500Y-14962742D02*
X31377500Y-15437258D01*
X32422500Y-14962742D02*
X32422500Y-15437258D01*
%TO.C,D2*%
X6565000Y-37100000D02*
X6565000Y-39385000D01*
X6565000Y-39385000D02*
X8035000Y-39385000D01*
X8035000Y-39385000D02*
X8035000Y-37100000D01*
%TO.C,R36*%
X22177500Y-14962742D02*
X22177500Y-15437258D01*
X23222500Y-14962742D02*
X23222500Y-15437258D01*
%TD*%
M02*
