%TF.GenerationSoftware,KiCad,Pcbnew,10.0.3*%
%TF.CreationDate,2026-09-17T15:36:07+09:00*%
%TF.ProjectId,74x00_tile,37347830-305f-4746-996c-652e6b696361,0.1*%
%TF.SameCoordinates,Original*%
%TF.FileFunction,Soldermask,Bot*%
%TF.FilePolarity,Negative*%
%FSLAX46Y46*%
G04 Gerber Fmt 4.6, Leading zero omitted, Abs format (unit mm)*
G04 Created by KiCad (PCBNEW 10.0.3) date 2026-09-17 15:36:07*
%MOMM*%
%LPD*%
G01*
G04 APERTURE LIST*
G04 Aperture macros list*
%AMRoundRect*
0 Rectangle with rounded corners*
0 $1 Rounding radius*
0 $2 $3 $4 $5 $6 $7 $8 $9 X,Y pos of 4 corners*
0 Add a 4 corners polygon primitive as box body*
4,1,4,$2,$3,$4,$5,$6,$7,$8,$9,$2,$3,0*
0 Add four circle primitives for the rounded corners*
1,1,$1+$1,$2,$3*
1,1,$1+$1,$4,$5*
1,1,$1+$1,$6,$7*
1,1,$1+$1,$8,$9*
0 Add four rect primitives between the rounded corners*
20,1,$1+$1,$2,$3,$4,$5,0*
20,1,$1+$1,$4,$5,$6,$7,0*
20,1,$1+$1,$6,$7,$8,$9,0*
20,1,$1+$1,$8,$9,$2,$3,0*%
G04 Aperture macros list end*
%ADD10RoundRect,0.250000X0.550000X-0.550000X0.550000X0.550000X-0.550000X0.550000X-0.550000X-0.550000X0*%
%ADD11C,1.600000*%
%ADD12C,0.800000*%
%ADD13C,2.200000*%
%ADD14R,1.700000X1.700000*%
%ADD15C,1.700000*%
G04 APERTURE END LIST*
D10*
%TO.C,U1*%
X13570000Y-28810000D03*
D11*
X16110000Y-28810000D03*
X18650000Y-28810000D03*
X21190000Y-28810000D03*
X23730000Y-28810000D03*
X26270000Y-28810000D03*
X28810000Y-28810000D03*
X31350000Y-28810000D03*
X33890000Y-28810000D03*
X36430000Y-28810000D03*
X36430000Y-21190000D03*
X33890000Y-21190000D03*
X31350000Y-21190000D03*
X28810000Y-21190000D03*
X26270000Y-21190000D03*
X23730000Y-21190000D03*
X21190000Y-21190000D03*
X18650000Y-21190000D03*
X16110000Y-21190000D03*
X13570000Y-21190000D03*
%TD*%
D12*
%TO.C,SW12*%
X41099999Y-4500000D03*
X41099999Y-7500000D03*
%TD*%
%TO.C,SW9*%
X41099999Y-45500000D03*
X41099999Y-42500000D03*
%TD*%
D13*
%TO.C,MTG2*%
X46500000Y-25000000D03*
%TD*%
D12*
%TO.C,SW13*%
X36500000Y-4500000D03*
X36500000Y-7500000D03*
%TD*%
%TO.C,SW11*%
X45700000Y-4500000D03*
X45700000Y-7500000D03*
%TD*%
%TO.C,SW8*%
X36500000Y-45500000D03*
X36500000Y-42500000D03*
%TD*%
%TO.C,SW14*%
X31900000Y-4500000D03*
X31900000Y-7500000D03*
%TD*%
%TO.C,SW5*%
X22700000Y-45500000D03*
X22700000Y-42500000D03*
%TD*%
D14*
%TO.C,J1*%
X8300000Y-24175000D03*
D15*
X8300000Y-26715000D03*
%TD*%
D12*
%TO.C,SW2*%
X8900000Y-45500000D03*
X8900000Y-42500000D03*
%TD*%
D13*
%TO.C,MTG1*%
X3500000Y-25000000D03*
%TD*%
D12*
%TO.C,SW19*%
X8900000Y-4500000D03*
X8900000Y-7500000D03*
%TD*%
%TO.C,SW4*%
X18100000Y-45500000D03*
X18100000Y-42500000D03*
%TD*%
%TO.C,SW17*%
X18100000Y-4500000D03*
X18100000Y-7500000D03*
%TD*%
%TO.C,SW10*%
X45700000Y-45500000D03*
X45700000Y-42500000D03*
%TD*%
%TO.C,SW18*%
X13500000Y-4500000D03*
X13500000Y-7500000D03*
%TD*%
%TO.C,SW15*%
X27300000Y-4500000D03*
X27300000Y-7500000D03*
%TD*%
%TO.C,SW16*%
X22700000Y-4500000D03*
X22700000Y-7500000D03*
%TD*%
%TO.C,SW6*%
X27300000Y-45500000D03*
X27300000Y-42500000D03*
%TD*%
%TO.C,SW3*%
X13500000Y-45500000D03*
X13500000Y-42500000D03*
%TD*%
%TO.C,SW1*%
X4300000Y-45500000D03*
X4300000Y-42500000D03*
%TD*%
M02*
