%TF.GenerationSoftware,KiCad,Pcbnew,10.0.3*%
%TF.CreationDate,2026-09-17T15:36:07+09:00*%
%TF.ProjectId,74x00_tile,37347830-305f-4746-996c-652e6b696361,0.1*%
%TF.SameCoordinates,Original*%
%TF.FileFunction,Drillmap*%
%TF.FilePolarity,Positive*%
%FSLAX45Y45*%
G04 Gerber Fmt 4.5, Leading zero omitted, Abs format (unit mm)*
G04 Created by KiCad (PCBNEW 10.0.3) date 2026-09-17 15:36:07*
%MOMM*%
%LPD*%
G01*
G04 APERTURE LIST*
%ADD10C,0.100000*%
%ADD11C,0.200000*%
%ADD12C,0.220000*%
G04 APERTURE END LIST*
D10*
X0Y0D02*
X5000000Y0D01*
X5000000Y-5000000D01*
X0Y-5000000D01*
X0Y0D01*
D11*
D10*
X205000Y-4055000D02*
X235000Y-4085000D01*
X235000Y-4055000D02*
X205000Y-4085000D01*
X665000Y-4055000D02*
X695000Y-4085000D01*
X695000Y-4055000D02*
X665000Y-4085000D01*
X1085000Y-915000D02*
X1115000Y-945000D01*
X1115000Y-915000D02*
X1085000Y-945000D01*
X1105000Y-2662500D02*
X1135000Y-2692500D01*
X1135000Y-2662500D02*
X1105000Y-2692500D01*
X1125000Y-4055000D02*
X1155000Y-4085000D01*
X1155000Y-4055000D02*
X1125000Y-4085000D01*
X1545000Y-915000D02*
X1575000Y-945000D01*
X1575000Y-915000D02*
X1545000Y-945000D01*
X1585000Y-4055000D02*
X1615000Y-4085000D01*
X1615000Y-4055000D02*
X1585000Y-4085000D01*
X2005000Y-915000D02*
X2035000Y-945000D01*
X2035000Y-915000D02*
X2005000Y-945000D01*
X2045000Y-4055000D02*
X2075000Y-4085000D01*
X2075000Y-4055000D02*
X2045000Y-4085000D01*
X2465000Y-915000D02*
X2495000Y-945000D01*
X2495000Y-915000D02*
X2465000Y-945000D01*
X2505000Y-4055000D02*
X2535000Y-4085000D01*
X2535000Y-4055000D02*
X2505000Y-4085000D01*
X2925000Y-915000D02*
X2955000Y-945000D01*
X2955000Y-915000D02*
X2925000Y-945000D01*
X3385000Y-915000D02*
X3415000Y-945000D01*
X3415000Y-915000D02*
X3385000Y-945000D01*
X3425000Y-4055000D02*
X3455000Y-4085000D01*
X3455000Y-4055000D02*
X3425000Y-4085000D01*
X3845000Y-915000D02*
X3875000Y-945000D01*
X3875000Y-915000D02*
X3845000Y-945000D01*
X3885000Y-4055000D02*
X3915000Y-4085000D01*
X3915000Y-4055000D02*
X3885000Y-4085000D01*
X4305000Y-915000D02*
X4335000Y-945000D01*
X4335000Y-915000D02*
X4305000Y-945000D01*
X4345000Y-4055000D02*
X4375000Y-4085000D01*
X4375000Y-4055000D02*
X4345000Y-4085000D01*
X4765000Y-915000D02*
X4795000Y-945000D01*
X4795000Y-915000D02*
X4765000Y-945000D01*
X1397000Y-2119000D02*
G75*
G02*
X1317000Y-2119000I-40000J0D01*
G01*
X1317000Y-2119000D02*
G75*
G02*
X1397000Y-2119000I40000J0D01*
G01*
X1397000Y-2881000D02*
G75*
G02*
X1317000Y-2881000I-40000J0D01*
G01*
X1317000Y-2881000D02*
G75*
G02*
X1397000Y-2881000I40000J0D01*
G01*
X1651000Y-2119000D02*
G75*
G02*
X1571000Y-2119000I-40000J0D01*
G01*
X1571000Y-2119000D02*
G75*
G02*
X1651000Y-2119000I40000J0D01*
G01*
X1651000Y-2881000D02*
G75*
G02*
X1571000Y-2881000I-40000J0D01*
G01*
X1571000Y-2881000D02*
G75*
G02*
X1651000Y-2881000I40000J0D01*
G01*
X1905000Y-2119000D02*
G75*
G02*
X1825000Y-2119000I-40000J0D01*
G01*
X1825000Y-2119000D02*
G75*
G02*
X1905000Y-2119000I40000J0D01*
G01*
X1905000Y-2881000D02*
G75*
G02*
X1825000Y-2881000I-40000J0D01*
G01*
X1825000Y-2881000D02*
G75*
G02*
X1905000Y-2881000I40000J0D01*
G01*
X2159000Y-2119000D02*
G75*
G02*
X2079000Y-2119000I-40000J0D01*
G01*
X2079000Y-2119000D02*
G75*
G02*
X2159000Y-2119000I40000J0D01*
G01*
X2159000Y-2881000D02*
G75*
G02*
X2079000Y-2881000I-40000J0D01*
G01*
X2079000Y-2881000D02*
G75*
G02*
X2159000Y-2881000I40000J0D01*
G01*
X2413000Y-2119000D02*
G75*
G02*
X2333000Y-2119000I-40000J0D01*
G01*
X2333000Y-2119000D02*
G75*
G02*
X2413000Y-2119000I40000J0D01*
G01*
X2413000Y-2881000D02*
G75*
G02*
X2333000Y-2881000I-40000J0D01*
G01*
X2333000Y-2881000D02*
G75*
G02*
X2413000Y-2881000I40000J0D01*
G01*
X2667000Y-2119000D02*
G75*
G02*
X2587000Y-2119000I-40000J0D01*
G01*
X2587000Y-2119000D02*
G75*
G02*
X2667000Y-2119000I40000J0D01*
G01*
X2667000Y-2881000D02*
G75*
G02*
X2587000Y-2881000I-40000J0D01*
G01*
X2587000Y-2881000D02*
G75*
G02*
X2667000Y-2881000I40000J0D01*
G01*
X2921000Y-2119000D02*
G75*
G02*
X2841000Y-2119000I-40000J0D01*
G01*
X2841000Y-2119000D02*
G75*
G02*
X2921000Y-2119000I40000J0D01*
G01*
X2921000Y-2881000D02*
G75*
G02*
X2841000Y-2881000I-40000J0D01*
G01*
X2841000Y-2881000D02*
G75*
G02*
X2921000Y-2881000I40000J0D01*
G01*
X3175000Y-2119000D02*
G75*
G02*
X3095000Y-2119000I-40000J0D01*
G01*
X3095000Y-2119000D02*
G75*
G02*
X3175000Y-2119000I40000J0D01*
G01*
X3175000Y-2881000D02*
G75*
G02*
X3095000Y-2881000I-40000J0D01*
G01*
X3095000Y-2881000D02*
G75*
G02*
X3175000Y-2881000I40000J0D01*
G01*
X3429000Y-2119000D02*
G75*
G02*
X3349000Y-2119000I-40000J0D01*
G01*
X3349000Y-2119000D02*
G75*
G02*
X3429000Y-2119000I40000J0D01*
G01*
X3429000Y-2881000D02*
G75*
G02*
X3349000Y-2881000I-40000J0D01*
G01*
X3349000Y-2881000D02*
G75*
G02*
X3429000Y-2881000I40000J0D01*
G01*
X3683000Y-2119000D02*
G75*
G02*
X3603000Y-2119000I-40000J0D01*
G01*
X3603000Y-2119000D02*
G75*
G02*
X3683000Y-2119000I40000J0D01*
G01*
X3683000Y-2881000D02*
G75*
G02*
X3603000Y-2881000I-40000J0D01*
G01*
X3603000Y-2881000D02*
G75*
G02*
X3683000Y-2881000I40000J0D01*
G01*
X830000Y-2367500D02*
X830000Y-2467500D01*
X780000Y-2417500D02*
X880000Y-2417500D01*
X830000Y-2621500D02*
X830000Y-2721500D01*
X780000Y-2671500D02*
X880000Y-2671500D01*
X458284Y-4278285D02*
X458284Y-4221716D01*
X401715Y-4221716D01*
X401715Y-4278285D01*
X458284Y-4278285D01*
X458284Y-4578285D02*
X458284Y-4521716D01*
X401715Y-4521716D01*
X401715Y-4578285D01*
X458284Y-4578285D01*
X918284Y-478284D02*
X918284Y-421715D01*
X861715Y-421715D01*
X861715Y-478284D01*
X918284Y-478284D01*
X918284Y-778284D02*
X918284Y-721715D01*
X861715Y-721715D01*
X861715Y-778284D01*
X918284Y-778284D01*
X918284Y-4278285D02*
X918284Y-4221716D01*
X861715Y-4221716D01*
X861715Y-4278285D01*
X918284Y-4278285D01*
X918284Y-4578285D02*
X918284Y-4521716D01*
X861715Y-4521716D01*
X861715Y-4578285D01*
X918284Y-4578285D01*
X1378285Y-478284D02*
X1378285Y-421715D01*
X1321716Y-421715D01*
X1321716Y-478284D01*
X1378285Y-478284D01*
X1378285Y-778284D02*
X1378285Y-721715D01*
X1321716Y-721715D01*
X1321716Y-778284D01*
X1378285Y-778284D01*
X1378285Y-4278285D02*
X1378285Y-4221716D01*
X1321716Y-4221716D01*
X1321716Y-4278285D01*
X1378285Y-4278285D01*
X1378285Y-4578285D02*
X1378285Y-4521716D01*
X1321716Y-4521716D01*
X1321716Y-4578285D01*
X1378285Y-4578285D01*
X1838284Y-478284D02*
X1838284Y-421715D01*
X1781715Y-421715D01*
X1781715Y-478284D01*
X1838284Y-478284D01*
X1838284Y-778284D02*
X1838284Y-721715D01*
X1781715Y-721715D01*
X1781715Y-778284D01*
X1838284Y-778284D01*
X1838284Y-4278285D02*
X1838284Y-4221716D01*
X1781715Y-4221716D01*
X1781715Y-4278285D01*
X1838284Y-4278285D01*
X1838284Y-4578285D02*
X1838284Y-4521716D01*
X1781715Y-4521716D01*
X1781715Y-4578285D01*
X1838284Y-4578285D01*
X2298285Y-478284D02*
X2298285Y-421715D01*
X2241716Y-421715D01*
X2241716Y-478284D01*
X2298285Y-478284D01*
X2298285Y-778284D02*
X2298285Y-721715D01*
X2241716Y-721715D01*
X2241716Y-778284D01*
X2298285Y-778284D01*
X2298285Y-4278285D02*
X2298285Y-4221716D01*
X2241716Y-4221716D01*
X2241716Y-4278285D01*
X2298285Y-4278285D01*
X2298285Y-4578285D02*
X2298285Y-4521716D01*
X2241716Y-4521716D01*
X2241716Y-4578285D01*
X2298285Y-4578285D01*
X2758285Y-478284D02*
X2758285Y-421715D01*
X2701716Y-421715D01*
X2701716Y-478284D01*
X2758285Y-478284D01*
X2758285Y-778284D02*
X2758285Y-721715D01*
X2701716Y-721715D01*
X2701716Y-778284D01*
X2758285Y-778284D01*
X2758285Y-4278285D02*
X2758285Y-4221716D01*
X2701716Y-4221716D01*
X2701716Y-4278285D01*
X2758285Y-4278285D01*
X2758285Y-4578285D02*
X2758285Y-4521716D01*
X2701716Y-4521716D01*
X2701716Y-4578285D01*
X2758285Y-4578285D01*
X3218284Y-478284D02*
X3218284Y-421715D01*
X3161715Y-421715D01*
X3161715Y-478284D01*
X3218284Y-478284D01*
X3218284Y-778284D02*
X3218284Y-721715D01*
X3161715Y-721715D01*
X3161715Y-778284D01*
X3218284Y-778284D01*
X3678284Y-478284D02*
X3678284Y-421715D01*
X3621715Y-421715D01*
X3621715Y-478284D01*
X3678284Y-478284D01*
X3678284Y-778284D02*
X3678284Y-721715D01*
X3621715Y-721715D01*
X3621715Y-778284D01*
X3678284Y-778284D01*
X3678284Y-4278285D02*
X3678284Y-4221716D01*
X3621715Y-4221716D01*
X3621715Y-4278285D01*
X3678284Y-4278285D01*
X3678284Y-4578285D02*
X3678284Y-4521716D01*
X3621715Y-4521716D01*
X3621715Y-4578285D01*
X3678284Y-4578285D01*
X4138284Y-478284D02*
X4138284Y-421715D01*
X4081715Y-421715D01*
X4081715Y-478284D01*
X4138284Y-478284D01*
X4138284Y-778284D02*
X4138284Y-721715D01*
X4081715Y-721715D01*
X4081715Y-778284D01*
X4138284Y-778284D01*
X4138284Y-4278285D02*
X4138284Y-4221716D01*
X4081715Y-4221716D01*
X4081715Y-4278285D01*
X4138284Y-4278285D01*
X4138284Y-4578285D02*
X4138284Y-4521716D01*
X4081715Y-4521716D01*
X4081715Y-4578285D01*
X4138284Y-4578285D01*
X4598285Y-478284D02*
X4598285Y-421715D01*
X4541716Y-421715D01*
X4541716Y-478284D01*
X4598285Y-478284D01*
X4598285Y-778284D02*
X4598285Y-721715D01*
X4541716Y-721715D01*
X4541716Y-778284D01*
X4598285Y-778284D01*
X4598285Y-4278285D02*
X4598285Y-4221716D01*
X4541716Y-4221716D01*
X4541716Y-4278285D01*
X4598285Y-4278285D01*
X4598285Y-4578285D02*
X4598285Y-4521716D01*
X4541716Y-4521716D01*
X4541716Y-4578285D01*
X4598285Y-4578285D01*
D12*
X350000Y-2610000D02*
X460000Y-2500000D01*
X350000Y-2390000D01*
X240000Y-2500000D01*
X350000Y-2610000D01*
X4650000Y-2610000D02*
X4760000Y-2500000D01*
X4650000Y-2390000D01*
X4540000Y-2500000D01*
X4650000Y-2610000D01*
D11*
X255777Y-5316484D02*
X255777Y-5116484D01*
X255777Y-5116484D02*
X303396Y-5116484D01*
X303396Y-5116484D02*
X331967Y-5126008D01*
X331967Y-5126008D02*
X351015Y-5145055D01*
X351015Y-5145055D02*
X360539Y-5164103D01*
X360539Y-5164103D02*
X370062Y-5202198D01*
X370062Y-5202198D02*
X370062Y-5230770D01*
X370062Y-5230770D02*
X360539Y-5268865D01*
X360539Y-5268865D02*
X351015Y-5287912D01*
X351015Y-5287912D02*
X331967Y-5306960D01*
X331967Y-5306960D02*
X303396Y-5316484D01*
X303396Y-5316484D02*
X255777Y-5316484D01*
X455777Y-5316484D02*
X455777Y-5183150D01*
X455777Y-5221246D02*
X465301Y-5202198D01*
X465301Y-5202198D02*
X474824Y-5192674D01*
X474824Y-5192674D02*
X493872Y-5183150D01*
X493872Y-5183150D02*
X512920Y-5183150D01*
X579586Y-5316484D02*
X579586Y-5183150D01*
X579586Y-5116484D02*
X570063Y-5126008D01*
X570063Y-5126008D02*
X579586Y-5135531D01*
X579586Y-5135531D02*
X589110Y-5126008D01*
X589110Y-5126008D02*
X579586Y-5116484D01*
X579586Y-5116484D02*
X579586Y-5135531D01*
X703396Y-5316484D02*
X684348Y-5306960D01*
X684348Y-5306960D02*
X674824Y-5287912D01*
X674824Y-5287912D02*
X674824Y-5116484D01*
X808158Y-5316484D02*
X789110Y-5306960D01*
X789110Y-5306960D02*
X779586Y-5287912D01*
X779586Y-5287912D02*
X779586Y-5116484D01*
X1036729Y-5316484D02*
X1036729Y-5116484D01*
X1036729Y-5116484D02*
X1103396Y-5259341D01*
X1103396Y-5259341D02*
X1170063Y-5116484D01*
X1170063Y-5116484D02*
X1170063Y-5316484D01*
X1351015Y-5316484D02*
X1351015Y-5211722D01*
X1351015Y-5211722D02*
X1341491Y-5192674D01*
X1341491Y-5192674D02*
X1322444Y-5183150D01*
X1322444Y-5183150D02*
X1284348Y-5183150D01*
X1284348Y-5183150D02*
X1265301Y-5192674D01*
X1351015Y-5306960D02*
X1331967Y-5316484D01*
X1331967Y-5316484D02*
X1284348Y-5316484D01*
X1284348Y-5316484D02*
X1265301Y-5306960D01*
X1265301Y-5306960D02*
X1255777Y-5287912D01*
X1255777Y-5287912D02*
X1255777Y-5268865D01*
X1255777Y-5268865D02*
X1265301Y-5249817D01*
X1265301Y-5249817D02*
X1284348Y-5240293D01*
X1284348Y-5240293D02*
X1331967Y-5240293D01*
X1331967Y-5240293D02*
X1351015Y-5230770D01*
X1446253Y-5183150D02*
X1446253Y-5383150D01*
X1446253Y-5192674D02*
X1465301Y-5183150D01*
X1465301Y-5183150D02*
X1503396Y-5183150D01*
X1503396Y-5183150D02*
X1522443Y-5192674D01*
X1522443Y-5192674D02*
X1531967Y-5202198D01*
X1531967Y-5202198D02*
X1541491Y-5221246D01*
X1541491Y-5221246D02*
X1541491Y-5278389D01*
X1541491Y-5278389D02*
X1531967Y-5297436D01*
X1531967Y-5297436D02*
X1522443Y-5306960D01*
X1522443Y-5306960D02*
X1503396Y-5316484D01*
X1503396Y-5316484D02*
X1465301Y-5316484D01*
X1465301Y-5316484D02*
X1446253Y-5306960D01*
X1627205Y-5297436D02*
X1636729Y-5306960D01*
X1636729Y-5306960D02*
X1627205Y-5316484D01*
X1627205Y-5316484D02*
X1617682Y-5306960D01*
X1617682Y-5306960D02*
X1627205Y-5297436D01*
X1627205Y-5297436D02*
X1627205Y-5316484D01*
X1627205Y-5192674D02*
X1636729Y-5202198D01*
X1636729Y-5202198D02*
X1627205Y-5211722D01*
X1627205Y-5211722D02*
X1617682Y-5202198D01*
X1617682Y-5202198D02*
X1627205Y-5192674D01*
X1627205Y-5192674D02*
X1627205Y-5211722D01*
D10*
X-35000Y-5630000D02*
X-5000Y-5660000D01*
X-5000Y-5630000D02*
X-35000Y-5660000D01*
D11*
X293872Y-5536484D02*
X312920Y-5536484D01*
X312920Y-5536484D02*
X331967Y-5546008D01*
X331967Y-5546008D02*
X341491Y-5555531D01*
X341491Y-5555531D02*
X351015Y-5574579D01*
X351015Y-5574579D02*
X360539Y-5612674D01*
X360539Y-5612674D02*
X360539Y-5660293D01*
X360539Y-5660293D02*
X351015Y-5698388D01*
X351015Y-5698388D02*
X341491Y-5717436D01*
X341491Y-5717436D02*
X331967Y-5726960D01*
X331967Y-5726960D02*
X312920Y-5736484D01*
X312920Y-5736484D02*
X293872Y-5736484D01*
X293872Y-5736484D02*
X274824Y-5726960D01*
X274824Y-5726960D02*
X265301Y-5717436D01*
X265301Y-5717436D02*
X255777Y-5698388D01*
X255777Y-5698388D02*
X246253Y-5660293D01*
X246253Y-5660293D02*
X246253Y-5612674D01*
X246253Y-5612674D02*
X255777Y-5574579D01*
X255777Y-5574579D02*
X265301Y-5555531D01*
X265301Y-5555531D02*
X274824Y-5546008D01*
X274824Y-5546008D02*
X293872Y-5536484D01*
X446253Y-5717436D02*
X455777Y-5726960D01*
X455777Y-5726960D02*
X446253Y-5736484D01*
X446253Y-5736484D02*
X436729Y-5726960D01*
X436729Y-5726960D02*
X446253Y-5717436D01*
X446253Y-5717436D02*
X446253Y-5736484D01*
X522443Y-5536484D02*
X646253Y-5536484D01*
X646253Y-5536484D02*
X579586Y-5612674D01*
X579586Y-5612674D02*
X608158Y-5612674D01*
X608158Y-5612674D02*
X627205Y-5622198D01*
X627205Y-5622198D02*
X636729Y-5631722D01*
X636729Y-5631722D02*
X646253Y-5650769D01*
X646253Y-5650769D02*
X646253Y-5698388D01*
X646253Y-5698388D02*
X636729Y-5717436D01*
X636729Y-5717436D02*
X627205Y-5726960D01*
X627205Y-5726960D02*
X608158Y-5736484D01*
X608158Y-5736484D02*
X551015Y-5736484D01*
X551015Y-5736484D02*
X531967Y-5726960D01*
X531967Y-5726960D02*
X522443Y-5717436D01*
X770062Y-5536484D02*
X789110Y-5536484D01*
X789110Y-5536484D02*
X808158Y-5546008D01*
X808158Y-5546008D02*
X817682Y-5555531D01*
X817682Y-5555531D02*
X827205Y-5574579D01*
X827205Y-5574579D02*
X836729Y-5612674D01*
X836729Y-5612674D02*
X836729Y-5660293D01*
X836729Y-5660293D02*
X827205Y-5698388D01*
X827205Y-5698388D02*
X817682Y-5717436D01*
X817682Y-5717436D02*
X808158Y-5726960D01*
X808158Y-5726960D02*
X789110Y-5736484D01*
X789110Y-5736484D02*
X770062Y-5736484D01*
X770062Y-5736484D02*
X751015Y-5726960D01*
X751015Y-5726960D02*
X741491Y-5717436D01*
X741491Y-5717436D02*
X731967Y-5698388D01*
X731967Y-5698388D02*
X722443Y-5660293D01*
X722443Y-5660293D02*
X722443Y-5612674D01*
X722443Y-5612674D02*
X731967Y-5574579D01*
X731967Y-5574579D02*
X741491Y-5555531D01*
X741491Y-5555531D02*
X751015Y-5546008D01*
X751015Y-5546008D02*
X770062Y-5536484D01*
X960539Y-5536484D02*
X979586Y-5536484D01*
X979586Y-5536484D02*
X998634Y-5546008D01*
X998634Y-5546008D02*
X1008158Y-5555531D01*
X1008158Y-5555531D02*
X1017682Y-5574579D01*
X1017682Y-5574579D02*
X1027205Y-5612674D01*
X1027205Y-5612674D02*
X1027205Y-5660293D01*
X1027205Y-5660293D02*
X1017682Y-5698388D01*
X1017682Y-5698388D02*
X1008158Y-5717436D01*
X1008158Y-5717436D02*
X998634Y-5726960D01*
X998634Y-5726960D02*
X979586Y-5736484D01*
X979586Y-5736484D02*
X960539Y-5736484D01*
X960539Y-5736484D02*
X941491Y-5726960D01*
X941491Y-5726960D02*
X931967Y-5717436D01*
X931967Y-5717436D02*
X922443Y-5698388D01*
X922443Y-5698388D02*
X912920Y-5660293D01*
X912920Y-5660293D02*
X912920Y-5612674D01*
X912920Y-5612674D02*
X922443Y-5574579D01*
X922443Y-5574579D02*
X931967Y-5555531D01*
X931967Y-5555531D02*
X941491Y-5546008D01*
X941491Y-5546008D02*
X960539Y-5536484D01*
X1112920Y-5736484D02*
X1112920Y-5603150D01*
X1112920Y-5622198D02*
X1122444Y-5612674D01*
X1122444Y-5612674D02*
X1141491Y-5603150D01*
X1141491Y-5603150D02*
X1170063Y-5603150D01*
X1170063Y-5603150D02*
X1189110Y-5612674D01*
X1189110Y-5612674D02*
X1198634Y-5631722D01*
X1198634Y-5631722D02*
X1198634Y-5736484D01*
X1198634Y-5631722D02*
X1208158Y-5612674D01*
X1208158Y-5612674D02*
X1227205Y-5603150D01*
X1227205Y-5603150D02*
X1255777Y-5603150D01*
X1255777Y-5603150D02*
X1274825Y-5612674D01*
X1274825Y-5612674D02*
X1284348Y-5631722D01*
X1284348Y-5631722D02*
X1284348Y-5736484D01*
X1379586Y-5736484D02*
X1379586Y-5603150D01*
X1379586Y-5622198D02*
X1389110Y-5612674D01*
X1389110Y-5612674D02*
X1408158Y-5603150D01*
X1408158Y-5603150D02*
X1436729Y-5603150D01*
X1436729Y-5603150D02*
X1455777Y-5612674D01*
X1455777Y-5612674D02*
X1465301Y-5631722D01*
X1465301Y-5631722D02*
X1465301Y-5736484D01*
X1465301Y-5631722D02*
X1474824Y-5612674D01*
X1474824Y-5612674D02*
X1493872Y-5603150D01*
X1493872Y-5603150D02*
X1522443Y-5603150D01*
X1522443Y-5603150D02*
X1541491Y-5612674D01*
X1541491Y-5612674D02*
X1551015Y-5631722D01*
X1551015Y-5631722D02*
X1551015Y-5736484D01*
X1941491Y-5526960D02*
X1770063Y-5784103D01*
X2198634Y-5536484D02*
X2217682Y-5536484D01*
X2217682Y-5536484D02*
X2236729Y-5546008D01*
X2236729Y-5546008D02*
X2246253Y-5555531D01*
X2246253Y-5555531D02*
X2255777Y-5574579D01*
X2255777Y-5574579D02*
X2265301Y-5612674D01*
X2265301Y-5612674D02*
X2265301Y-5660293D01*
X2265301Y-5660293D02*
X2255777Y-5698388D01*
X2255777Y-5698388D02*
X2246253Y-5717436D01*
X2246253Y-5717436D02*
X2236729Y-5726960D01*
X2236729Y-5726960D02*
X2217682Y-5736484D01*
X2217682Y-5736484D02*
X2198634Y-5736484D01*
X2198634Y-5736484D02*
X2179587Y-5726960D01*
X2179587Y-5726960D02*
X2170063Y-5717436D01*
X2170063Y-5717436D02*
X2160539Y-5698388D01*
X2160539Y-5698388D02*
X2151015Y-5660293D01*
X2151015Y-5660293D02*
X2151015Y-5612674D01*
X2151015Y-5612674D02*
X2160539Y-5574579D01*
X2160539Y-5574579D02*
X2170063Y-5555531D01*
X2170063Y-5555531D02*
X2179587Y-5546008D01*
X2179587Y-5546008D02*
X2198634Y-5536484D01*
X2351015Y-5717436D02*
X2360539Y-5726960D01*
X2360539Y-5726960D02*
X2351015Y-5736484D01*
X2351015Y-5736484D02*
X2341491Y-5726960D01*
X2341491Y-5726960D02*
X2351015Y-5717436D01*
X2351015Y-5717436D02*
X2351015Y-5736484D01*
X2484348Y-5536484D02*
X2503396Y-5536484D01*
X2503396Y-5536484D02*
X2522444Y-5546008D01*
X2522444Y-5546008D02*
X2531968Y-5555531D01*
X2531968Y-5555531D02*
X2541491Y-5574579D01*
X2541491Y-5574579D02*
X2551015Y-5612674D01*
X2551015Y-5612674D02*
X2551015Y-5660293D01*
X2551015Y-5660293D02*
X2541491Y-5698388D01*
X2541491Y-5698388D02*
X2531968Y-5717436D01*
X2531968Y-5717436D02*
X2522444Y-5726960D01*
X2522444Y-5726960D02*
X2503396Y-5736484D01*
X2503396Y-5736484D02*
X2484348Y-5736484D01*
X2484348Y-5736484D02*
X2465301Y-5726960D01*
X2465301Y-5726960D02*
X2455777Y-5717436D01*
X2455777Y-5717436D02*
X2446253Y-5698388D01*
X2446253Y-5698388D02*
X2436729Y-5660293D01*
X2436729Y-5660293D02*
X2436729Y-5612674D01*
X2436729Y-5612674D02*
X2446253Y-5574579D01*
X2446253Y-5574579D02*
X2455777Y-5555531D01*
X2455777Y-5555531D02*
X2465301Y-5546008D01*
X2465301Y-5546008D02*
X2484348Y-5536484D01*
X2741491Y-5736484D02*
X2627206Y-5736484D01*
X2684348Y-5736484D02*
X2684348Y-5536484D01*
X2684348Y-5536484D02*
X2665301Y-5565055D01*
X2665301Y-5565055D02*
X2646253Y-5584103D01*
X2646253Y-5584103D02*
X2627206Y-5593627D01*
X2931967Y-5736484D02*
X2817682Y-5736484D01*
X2874825Y-5736484D02*
X2874825Y-5536484D01*
X2874825Y-5536484D02*
X2855777Y-5565055D01*
X2855777Y-5565055D02*
X2836729Y-5584103D01*
X2836729Y-5584103D02*
X2817682Y-5593627D01*
X3046253Y-5622198D02*
X3027206Y-5612674D01*
X3027206Y-5612674D02*
X3017682Y-5603150D01*
X3017682Y-5603150D02*
X3008158Y-5584103D01*
X3008158Y-5584103D02*
X3008158Y-5574579D01*
X3008158Y-5574579D02*
X3017682Y-5555531D01*
X3017682Y-5555531D02*
X3027206Y-5546008D01*
X3027206Y-5546008D02*
X3046253Y-5536484D01*
X3046253Y-5536484D02*
X3084348Y-5536484D01*
X3084348Y-5536484D02*
X3103396Y-5546008D01*
X3103396Y-5546008D02*
X3112920Y-5555531D01*
X3112920Y-5555531D02*
X3122444Y-5574579D01*
X3122444Y-5574579D02*
X3122444Y-5584103D01*
X3122444Y-5584103D02*
X3112920Y-5603150D01*
X3112920Y-5603150D02*
X3103396Y-5612674D01*
X3103396Y-5612674D02*
X3084348Y-5622198D01*
X3084348Y-5622198D02*
X3046253Y-5622198D01*
X3046253Y-5622198D02*
X3027206Y-5631722D01*
X3027206Y-5631722D02*
X3017682Y-5641246D01*
X3017682Y-5641246D02*
X3008158Y-5660293D01*
X3008158Y-5660293D02*
X3008158Y-5698388D01*
X3008158Y-5698388D02*
X3017682Y-5717436D01*
X3017682Y-5717436D02*
X3027206Y-5726960D01*
X3027206Y-5726960D02*
X3046253Y-5736484D01*
X3046253Y-5736484D02*
X3084348Y-5736484D01*
X3084348Y-5736484D02*
X3103396Y-5726960D01*
X3103396Y-5726960D02*
X3112920Y-5717436D01*
X3112920Y-5717436D02*
X3122444Y-5698388D01*
X3122444Y-5698388D02*
X3122444Y-5660293D01*
X3122444Y-5660293D02*
X3112920Y-5641246D01*
X3112920Y-5641246D02*
X3103396Y-5631722D01*
X3103396Y-5631722D02*
X3084348Y-5622198D01*
X3198634Y-5536484D02*
X3198634Y-5574579D01*
X3274825Y-5536484D02*
X3274825Y-5574579D01*
X3570063Y-5812674D02*
X3560539Y-5803150D01*
X3560539Y-5803150D02*
X3541491Y-5774579D01*
X3541491Y-5774579D02*
X3531968Y-5755531D01*
X3531968Y-5755531D02*
X3522444Y-5726960D01*
X3522444Y-5726960D02*
X3512920Y-5679341D01*
X3512920Y-5679341D02*
X3512920Y-5641246D01*
X3512920Y-5641246D02*
X3522444Y-5593627D01*
X3522444Y-5593627D02*
X3531968Y-5565055D01*
X3531968Y-5565055D02*
X3541491Y-5546008D01*
X3541491Y-5546008D02*
X3560539Y-5517436D01*
X3560539Y-5517436D02*
X3570063Y-5507912D01*
X3751015Y-5736484D02*
X3636729Y-5736484D01*
X3693872Y-5736484D02*
X3693872Y-5536484D01*
X3693872Y-5536484D02*
X3674825Y-5565055D01*
X3674825Y-5565055D02*
X3655777Y-5584103D01*
X3655777Y-5584103D02*
X3636729Y-5593627D01*
X3846253Y-5736484D02*
X3884348Y-5736484D01*
X3884348Y-5736484D02*
X3903396Y-5726960D01*
X3903396Y-5726960D02*
X3912920Y-5717436D01*
X3912920Y-5717436D02*
X3931968Y-5688865D01*
X3931968Y-5688865D02*
X3941491Y-5650769D01*
X3941491Y-5650769D02*
X3941491Y-5574579D01*
X3941491Y-5574579D02*
X3931968Y-5555531D01*
X3931968Y-5555531D02*
X3922444Y-5546008D01*
X3922444Y-5546008D02*
X3903396Y-5536484D01*
X3903396Y-5536484D02*
X3865301Y-5536484D01*
X3865301Y-5536484D02*
X3846253Y-5546008D01*
X3846253Y-5546008D02*
X3836729Y-5555531D01*
X3836729Y-5555531D02*
X3827206Y-5574579D01*
X3827206Y-5574579D02*
X3827206Y-5622198D01*
X3827206Y-5622198D02*
X3836729Y-5641246D01*
X3836729Y-5641246D02*
X3846253Y-5650769D01*
X3846253Y-5650769D02*
X3865301Y-5660293D01*
X3865301Y-5660293D02*
X3903396Y-5660293D01*
X3903396Y-5660293D02*
X3922444Y-5650769D01*
X3922444Y-5650769D02*
X3931968Y-5641246D01*
X3931968Y-5641246D02*
X3941491Y-5622198D01*
X4179587Y-5736484D02*
X4179587Y-5536484D01*
X4265301Y-5736484D02*
X4265301Y-5631722D01*
X4265301Y-5631722D02*
X4255777Y-5612674D01*
X4255777Y-5612674D02*
X4236730Y-5603150D01*
X4236730Y-5603150D02*
X4208158Y-5603150D01*
X4208158Y-5603150D02*
X4189110Y-5612674D01*
X4189110Y-5612674D02*
X4179587Y-5622198D01*
X4389111Y-5736484D02*
X4370063Y-5726960D01*
X4370063Y-5726960D02*
X4360539Y-5717436D01*
X4360539Y-5717436D02*
X4351015Y-5698388D01*
X4351015Y-5698388D02*
X4351015Y-5641246D01*
X4351015Y-5641246D02*
X4360539Y-5622198D01*
X4360539Y-5622198D02*
X4370063Y-5612674D01*
X4370063Y-5612674D02*
X4389111Y-5603150D01*
X4389111Y-5603150D02*
X4417682Y-5603150D01*
X4417682Y-5603150D02*
X4436730Y-5612674D01*
X4436730Y-5612674D02*
X4446253Y-5622198D01*
X4446253Y-5622198D02*
X4455777Y-5641246D01*
X4455777Y-5641246D02*
X4455777Y-5698388D01*
X4455777Y-5698388D02*
X4446253Y-5717436D01*
X4446253Y-5717436D02*
X4436730Y-5726960D01*
X4436730Y-5726960D02*
X4417682Y-5736484D01*
X4417682Y-5736484D02*
X4389111Y-5736484D01*
X4570063Y-5736484D02*
X4551015Y-5726960D01*
X4551015Y-5726960D02*
X4541492Y-5707912D01*
X4541492Y-5707912D02*
X4541492Y-5536484D01*
X4722444Y-5726960D02*
X4703396Y-5736484D01*
X4703396Y-5736484D02*
X4665301Y-5736484D01*
X4665301Y-5736484D02*
X4646253Y-5726960D01*
X4646253Y-5726960D02*
X4636730Y-5707912D01*
X4636730Y-5707912D02*
X4636730Y-5631722D01*
X4636730Y-5631722D02*
X4646253Y-5612674D01*
X4646253Y-5612674D02*
X4665301Y-5603150D01*
X4665301Y-5603150D02*
X4703396Y-5603150D01*
X4703396Y-5603150D02*
X4722444Y-5612674D01*
X4722444Y-5612674D02*
X4731968Y-5631722D01*
X4731968Y-5631722D02*
X4731968Y-5650769D01*
X4731968Y-5650769D02*
X4636730Y-5669817D01*
X4808158Y-5726960D02*
X4827206Y-5736484D01*
X4827206Y-5736484D02*
X4865301Y-5736484D01*
X4865301Y-5736484D02*
X4884349Y-5726960D01*
X4884349Y-5726960D02*
X4893873Y-5707912D01*
X4893873Y-5707912D02*
X4893873Y-5698388D01*
X4893873Y-5698388D02*
X4884349Y-5679341D01*
X4884349Y-5679341D02*
X4865301Y-5669817D01*
X4865301Y-5669817D02*
X4836730Y-5669817D01*
X4836730Y-5669817D02*
X4817682Y-5660293D01*
X4817682Y-5660293D02*
X4808158Y-5641246D01*
X4808158Y-5641246D02*
X4808158Y-5631722D01*
X4808158Y-5631722D02*
X4817682Y-5612674D01*
X4817682Y-5612674D02*
X4836730Y-5603150D01*
X4836730Y-5603150D02*
X4865301Y-5603150D01*
X4865301Y-5603150D02*
X4884349Y-5612674D01*
X4960539Y-5812674D02*
X4970063Y-5803150D01*
X4970063Y-5803150D02*
X4989111Y-5774579D01*
X4989111Y-5774579D02*
X4998634Y-5755531D01*
X4998634Y-5755531D02*
X5008158Y-5726960D01*
X5008158Y-5726960D02*
X5017682Y-5679341D01*
X5017682Y-5679341D02*
X5017682Y-5641246D01*
X5017682Y-5641246D02*
X5008158Y-5593627D01*
X5008158Y-5593627D02*
X4998634Y-5565055D01*
X4998634Y-5565055D02*
X4989111Y-5546008D01*
X4989111Y-5546008D02*
X4970063Y-5517436D01*
X4970063Y-5517436D02*
X4960539Y-5507912D01*
D10*
X-5000Y-5909000D02*
G75*
G02*
X-85000Y-5909000I-40000J0D01*
G01*
X-85000Y-5909000D02*
G75*
G02*
X-5000Y-5909000I40000J0D01*
G01*
D11*
X293872Y-5800484D02*
X312920Y-5800484D01*
X312920Y-5800484D02*
X331967Y-5810008D01*
X331967Y-5810008D02*
X341491Y-5819531D01*
X341491Y-5819531D02*
X351015Y-5838579D01*
X351015Y-5838579D02*
X360539Y-5876674D01*
X360539Y-5876674D02*
X360539Y-5924293D01*
X360539Y-5924293D02*
X351015Y-5962388D01*
X351015Y-5962388D02*
X341491Y-5981436D01*
X341491Y-5981436D02*
X331967Y-5990960D01*
X331967Y-5990960D02*
X312920Y-6000484D01*
X312920Y-6000484D02*
X293872Y-6000484D01*
X293872Y-6000484D02*
X274824Y-5990960D01*
X274824Y-5990960D02*
X265301Y-5981436D01*
X265301Y-5981436D02*
X255777Y-5962388D01*
X255777Y-5962388D02*
X246253Y-5924293D01*
X246253Y-5924293D02*
X246253Y-5876674D01*
X246253Y-5876674D02*
X255777Y-5838579D01*
X255777Y-5838579D02*
X265301Y-5819531D01*
X265301Y-5819531D02*
X274824Y-5810008D01*
X274824Y-5810008D02*
X293872Y-5800484D01*
X446253Y-5981436D02*
X455777Y-5990960D01*
X455777Y-5990960D02*
X446253Y-6000484D01*
X446253Y-6000484D02*
X436729Y-5990960D01*
X436729Y-5990960D02*
X446253Y-5981436D01*
X446253Y-5981436D02*
X446253Y-6000484D01*
X570063Y-5886198D02*
X551015Y-5876674D01*
X551015Y-5876674D02*
X541491Y-5867150D01*
X541491Y-5867150D02*
X531967Y-5848103D01*
X531967Y-5848103D02*
X531967Y-5838579D01*
X531967Y-5838579D02*
X541491Y-5819531D01*
X541491Y-5819531D02*
X551015Y-5810008D01*
X551015Y-5810008D02*
X570063Y-5800484D01*
X570063Y-5800484D02*
X608158Y-5800484D01*
X608158Y-5800484D02*
X627205Y-5810008D01*
X627205Y-5810008D02*
X636729Y-5819531D01*
X636729Y-5819531D02*
X646253Y-5838579D01*
X646253Y-5838579D02*
X646253Y-5848103D01*
X646253Y-5848103D02*
X636729Y-5867150D01*
X636729Y-5867150D02*
X627205Y-5876674D01*
X627205Y-5876674D02*
X608158Y-5886198D01*
X608158Y-5886198D02*
X570063Y-5886198D01*
X570063Y-5886198D02*
X551015Y-5895722D01*
X551015Y-5895722D02*
X541491Y-5905246D01*
X541491Y-5905246D02*
X531967Y-5924293D01*
X531967Y-5924293D02*
X531967Y-5962388D01*
X531967Y-5962388D02*
X541491Y-5981436D01*
X541491Y-5981436D02*
X551015Y-5990960D01*
X551015Y-5990960D02*
X570063Y-6000484D01*
X570063Y-6000484D02*
X608158Y-6000484D01*
X608158Y-6000484D02*
X627205Y-5990960D01*
X627205Y-5990960D02*
X636729Y-5981436D01*
X636729Y-5981436D02*
X646253Y-5962388D01*
X646253Y-5962388D02*
X646253Y-5924293D01*
X646253Y-5924293D02*
X636729Y-5905246D01*
X636729Y-5905246D02*
X627205Y-5895722D01*
X627205Y-5895722D02*
X608158Y-5886198D01*
X770062Y-5800484D02*
X789110Y-5800484D01*
X789110Y-5800484D02*
X808158Y-5810008D01*
X808158Y-5810008D02*
X817682Y-5819531D01*
X817682Y-5819531D02*
X827205Y-5838579D01*
X827205Y-5838579D02*
X836729Y-5876674D01*
X836729Y-5876674D02*
X836729Y-5924293D01*
X836729Y-5924293D02*
X827205Y-5962388D01*
X827205Y-5962388D02*
X817682Y-5981436D01*
X817682Y-5981436D02*
X808158Y-5990960D01*
X808158Y-5990960D02*
X789110Y-6000484D01*
X789110Y-6000484D02*
X770062Y-6000484D01*
X770062Y-6000484D02*
X751015Y-5990960D01*
X751015Y-5990960D02*
X741491Y-5981436D01*
X741491Y-5981436D02*
X731967Y-5962388D01*
X731967Y-5962388D02*
X722443Y-5924293D01*
X722443Y-5924293D02*
X722443Y-5876674D01*
X722443Y-5876674D02*
X731967Y-5838579D01*
X731967Y-5838579D02*
X741491Y-5819531D01*
X741491Y-5819531D02*
X751015Y-5810008D01*
X751015Y-5810008D02*
X770062Y-5800484D01*
X960539Y-5800484D02*
X979586Y-5800484D01*
X979586Y-5800484D02*
X998634Y-5810008D01*
X998634Y-5810008D02*
X1008158Y-5819531D01*
X1008158Y-5819531D02*
X1017682Y-5838579D01*
X1017682Y-5838579D02*
X1027205Y-5876674D01*
X1027205Y-5876674D02*
X1027205Y-5924293D01*
X1027205Y-5924293D02*
X1017682Y-5962388D01*
X1017682Y-5962388D02*
X1008158Y-5981436D01*
X1008158Y-5981436D02*
X998634Y-5990960D01*
X998634Y-5990960D02*
X979586Y-6000484D01*
X979586Y-6000484D02*
X960539Y-6000484D01*
X960539Y-6000484D02*
X941491Y-5990960D01*
X941491Y-5990960D02*
X931967Y-5981436D01*
X931967Y-5981436D02*
X922443Y-5962388D01*
X922443Y-5962388D02*
X912920Y-5924293D01*
X912920Y-5924293D02*
X912920Y-5876674D01*
X912920Y-5876674D02*
X922443Y-5838579D01*
X922443Y-5838579D02*
X931967Y-5819531D01*
X931967Y-5819531D02*
X941491Y-5810008D01*
X941491Y-5810008D02*
X960539Y-5800484D01*
X1112920Y-6000484D02*
X1112920Y-5867150D01*
X1112920Y-5886198D02*
X1122444Y-5876674D01*
X1122444Y-5876674D02*
X1141491Y-5867150D01*
X1141491Y-5867150D02*
X1170063Y-5867150D01*
X1170063Y-5867150D02*
X1189110Y-5876674D01*
X1189110Y-5876674D02*
X1198634Y-5895722D01*
X1198634Y-5895722D02*
X1198634Y-6000484D01*
X1198634Y-5895722D02*
X1208158Y-5876674D01*
X1208158Y-5876674D02*
X1227205Y-5867150D01*
X1227205Y-5867150D02*
X1255777Y-5867150D01*
X1255777Y-5867150D02*
X1274825Y-5876674D01*
X1274825Y-5876674D02*
X1284348Y-5895722D01*
X1284348Y-5895722D02*
X1284348Y-6000484D01*
X1379586Y-6000484D02*
X1379586Y-5867150D01*
X1379586Y-5886198D02*
X1389110Y-5876674D01*
X1389110Y-5876674D02*
X1408158Y-5867150D01*
X1408158Y-5867150D02*
X1436729Y-5867150D01*
X1436729Y-5867150D02*
X1455777Y-5876674D01*
X1455777Y-5876674D02*
X1465301Y-5895722D01*
X1465301Y-5895722D02*
X1465301Y-6000484D01*
X1465301Y-5895722D02*
X1474824Y-5876674D01*
X1474824Y-5876674D02*
X1493872Y-5867150D01*
X1493872Y-5867150D02*
X1522443Y-5867150D01*
X1522443Y-5867150D02*
X1541491Y-5876674D01*
X1541491Y-5876674D02*
X1551015Y-5895722D01*
X1551015Y-5895722D02*
X1551015Y-6000484D01*
X1941491Y-5790960D02*
X1770063Y-6048103D01*
X2198634Y-5800484D02*
X2217682Y-5800484D01*
X2217682Y-5800484D02*
X2236729Y-5810008D01*
X2236729Y-5810008D02*
X2246253Y-5819531D01*
X2246253Y-5819531D02*
X2255777Y-5838579D01*
X2255777Y-5838579D02*
X2265301Y-5876674D01*
X2265301Y-5876674D02*
X2265301Y-5924293D01*
X2265301Y-5924293D02*
X2255777Y-5962388D01*
X2255777Y-5962388D02*
X2246253Y-5981436D01*
X2246253Y-5981436D02*
X2236729Y-5990960D01*
X2236729Y-5990960D02*
X2217682Y-6000484D01*
X2217682Y-6000484D02*
X2198634Y-6000484D01*
X2198634Y-6000484D02*
X2179587Y-5990960D01*
X2179587Y-5990960D02*
X2170063Y-5981436D01*
X2170063Y-5981436D02*
X2160539Y-5962388D01*
X2160539Y-5962388D02*
X2151015Y-5924293D01*
X2151015Y-5924293D02*
X2151015Y-5876674D01*
X2151015Y-5876674D02*
X2160539Y-5838579D01*
X2160539Y-5838579D02*
X2170063Y-5819531D01*
X2170063Y-5819531D02*
X2179587Y-5810008D01*
X2179587Y-5810008D02*
X2198634Y-5800484D01*
X2351015Y-5981436D02*
X2360539Y-5990960D01*
X2360539Y-5990960D02*
X2351015Y-6000484D01*
X2351015Y-6000484D02*
X2341491Y-5990960D01*
X2341491Y-5990960D02*
X2351015Y-5981436D01*
X2351015Y-5981436D02*
X2351015Y-6000484D01*
X2484348Y-5800484D02*
X2503396Y-5800484D01*
X2503396Y-5800484D02*
X2522444Y-5810008D01*
X2522444Y-5810008D02*
X2531968Y-5819531D01*
X2531968Y-5819531D02*
X2541491Y-5838579D01*
X2541491Y-5838579D02*
X2551015Y-5876674D01*
X2551015Y-5876674D02*
X2551015Y-5924293D01*
X2551015Y-5924293D02*
X2541491Y-5962388D01*
X2541491Y-5962388D02*
X2531968Y-5981436D01*
X2531968Y-5981436D02*
X2522444Y-5990960D01*
X2522444Y-5990960D02*
X2503396Y-6000484D01*
X2503396Y-6000484D02*
X2484348Y-6000484D01*
X2484348Y-6000484D02*
X2465301Y-5990960D01*
X2465301Y-5990960D02*
X2455777Y-5981436D01*
X2455777Y-5981436D02*
X2446253Y-5962388D01*
X2446253Y-5962388D02*
X2436729Y-5924293D01*
X2436729Y-5924293D02*
X2436729Y-5876674D01*
X2436729Y-5876674D02*
X2446253Y-5838579D01*
X2446253Y-5838579D02*
X2455777Y-5819531D01*
X2455777Y-5819531D02*
X2465301Y-5810008D01*
X2465301Y-5810008D02*
X2484348Y-5800484D01*
X2617682Y-5800484D02*
X2741491Y-5800484D01*
X2741491Y-5800484D02*
X2674825Y-5876674D01*
X2674825Y-5876674D02*
X2703396Y-5876674D01*
X2703396Y-5876674D02*
X2722444Y-5886198D01*
X2722444Y-5886198D02*
X2731968Y-5895722D01*
X2731968Y-5895722D02*
X2741491Y-5914769D01*
X2741491Y-5914769D02*
X2741491Y-5962388D01*
X2741491Y-5962388D02*
X2731968Y-5981436D01*
X2731968Y-5981436D02*
X2722444Y-5990960D01*
X2722444Y-5990960D02*
X2703396Y-6000484D01*
X2703396Y-6000484D02*
X2646253Y-6000484D01*
X2646253Y-6000484D02*
X2627206Y-5990960D01*
X2627206Y-5990960D02*
X2617682Y-5981436D01*
X2931967Y-6000484D02*
X2817682Y-6000484D01*
X2874825Y-6000484D02*
X2874825Y-5800484D01*
X2874825Y-5800484D02*
X2855777Y-5829055D01*
X2855777Y-5829055D02*
X2836729Y-5848103D01*
X2836729Y-5848103D02*
X2817682Y-5857627D01*
X3112920Y-5800484D02*
X3017682Y-5800484D01*
X3017682Y-5800484D02*
X3008158Y-5895722D01*
X3008158Y-5895722D02*
X3017682Y-5886198D01*
X3017682Y-5886198D02*
X3036729Y-5876674D01*
X3036729Y-5876674D02*
X3084348Y-5876674D01*
X3084348Y-5876674D02*
X3103396Y-5886198D01*
X3103396Y-5886198D02*
X3112920Y-5895722D01*
X3112920Y-5895722D02*
X3122444Y-5914769D01*
X3122444Y-5914769D02*
X3122444Y-5962388D01*
X3122444Y-5962388D02*
X3112920Y-5981436D01*
X3112920Y-5981436D02*
X3103396Y-5990960D01*
X3103396Y-5990960D02*
X3084348Y-6000484D01*
X3084348Y-6000484D02*
X3036729Y-6000484D01*
X3036729Y-6000484D02*
X3017682Y-5990960D01*
X3017682Y-5990960D02*
X3008158Y-5981436D01*
X3198634Y-5800484D02*
X3198634Y-5838579D01*
X3274825Y-5800484D02*
X3274825Y-5838579D01*
X3570063Y-6076674D02*
X3560539Y-6067150D01*
X3560539Y-6067150D02*
X3541491Y-6038579D01*
X3541491Y-6038579D02*
X3531968Y-6019531D01*
X3531968Y-6019531D02*
X3522444Y-5990960D01*
X3522444Y-5990960D02*
X3512920Y-5943341D01*
X3512920Y-5943341D02*
X3512920Y-5905246D01*
X3512920Y-5905246D02*
X3522444Y-5857627D01*
X3522444Y-5857627D02*
X3531968Y-5829055D01*
X3531968Y-5829055D02*
X3541491Y-5810008D01*
X3541491Y-5810008D02*
X3560539Y-5781436D01*
X3560539Y-5781436D02*
X3570063Y-5771912D01*
X3636729Y-5819531D02*
X3646253Y-5810008D01*
X3646253Y-5810008D02*
X3665301Y-5800484D01*
X3665301Y-5800484D02*
X3712920Y-5800484D01*
X3712920Y-5800484D02*
X3731968Y-5810008D01*
X3731968Y-5810008D02*
X3741491Y-5819531D01*
X3741491Y-5819531D02*
X3751015Y-5838579D01*
X3751015Y-5838579D02*
X3751015Y-5857627D01*
X3751015Y-5857627D02*
X3741491Y-5886198D01*
X3741491Y-5886198D02*
X3627206Y-6000484D01*
X3627206Y-6000484D02*
X3751015Y-6000484D01*
X3874825Y-5800484D02*
X3893872Y-5800484D01*
X3893872Y-5800484D02*
X3912920Y-5810008D01*
X3912920Y-5810008D02*
X3922444Y-5819531D01*
X3922444Y-5819531D02*
X3931968Y-5838579D01*
X3931968Y-5838579D02*
X3941491Y-5876674D01*
X3941491Y-5876674D02*
X3941491Y-5924293D01*
X3941491Y-5924293D02*
X3931968Y-5962388D01*
X3931968Y-5962388D02*
X3922444Y-5981436D01*
X3922444Y-5981436D02*
X3912920Y-5990960D01*
X3912920Y-5990960D02*
X3893872Y-6000484D01*
X3893872Y-6000484D02*
X3874825Y-6000484D01*
X3874825Y-6000484D02*
X3855777Y-5990960D01*
X3855777Y-5990960D02*
X3846253Y-5981436D01*
X3846253Y-5981436D02*
X3836729Y-5962388D01*
X3836729Y-5962388D02*
X3827206Y-5924293D01*
X3827206Y-5924293D02*
X3827206Y-5876674D01*
X3827206Y-5876674D02*
X3836729Y-5838579D01*
X3836729Y-5838579D02*
X3846253Y-5819531D01*
X3846253Y-5819531D02*
X3855777Y-5810008D01*
X3855777Y-5810008D02*
X3874825Y-5800484D01*
X4179587Y-6000484D02*
X4179587Y-5800484D01*
X4265301Y-6000484D02*
X4265301Y-5895722D01*
X4265301Y-5895722D02*
X4255777Y-5876674D01*
X4255777Y-5876674D02*
X4236730Y-5867150D01*
X4236730Y-5867150D02*
X4208158Y-5867150D01*
X4208158Y-5867150D02*
X4189110Y-5876674D01*
X4189110Y-5876674D02*
X4179587Y-5886198D01*
X4389111Y-6000484D02*
X4370063Y-5990960D01*
X4370063Y-5990960D02*
X4360539Y-5981436D01*
X4360539Y-5981436D02*
X4351015Y-5962388D01*
X4351015Y-5962388D02*
X4351015Y-5905246D01*
X4351015Y-5905246D02*
X4360539Y-5886198D01*
X4360539Y-5886198D02*
X4370063Y-5876674D01*
X4370063Y-5876674D02*
X4389111Y-5867150D01*
X4389111Y-5867150D02*
X4417682Y-5867150D01*
X4417682Y-5867150D02*
X4436730Y-5876674D01*
X4436730Y-5876674D02*
X4446253Y-5886198D01*
X4446253Y-5886198D02*
X4455777Y-5905246D01*
X4455777Y-5905246D02*
X4455777Y-5962388D01*
X4455777Y-5962388D02*
X4446253Y-5981436D01*
X4446253Y-5981436D02*
X4436730Y-5990960D01*
X4436730Y-5990960D02*
X4417682Y-6000484D01*
X4417682Y-6000484D02*
X4389111Y-6000484D01*
X4570063Y-6000484D02*
X4551015Y-5990960D01*
X4551015Y-5990960D02*
X4541492Y-5971912D01*
X4541492Y-5971912D02*
X4541492Y-5800484D01*
X4722444Y-5990960D02*
X4703396Y-6000484D01*
X4703396Y-6000484D02*
X4665301Y-6000484D01*
X4665301Y-6000484D02*
X4646253Y-5990960D01*
X4646253Y-5990960D02*
X4636730Y-5971912D01*
X4636730Y-5971912D02*
X4636730Y-5895722D01*
X4636730Y-5895722D02*
X4646253Y-5876674D01*
X4646253Y-5876674D02*
X4665301Y-5867150D01*
X4665301Y-5867150D02*
X4703396Y-5867150D01*
X4703396Y-5867150D02*
X4722444Y-5876674D01*
X4722444Y-5876674D02*
X4731968Y-5895722D01*
X4731968Y-5895722D02*
X4731968Y-5914769D01*
X4731968Y-5914769D02*
X4636730Y-5933817D01*
X4808158Y-5990960D02*
X4827206Y-6000484D01*
X4827206Y-6000484D02*
X4865301Y-6000484D01*
X4865301Y-6000484D02*
X4884349Y-5990960D01*
X4884349Y-5990960D02*
X4893873Y-5971912D01*
X4893873Y-5971912D02*
X4893873Y-5962388D01*
X4893873Y-5962388D02*
X4884349Y-5943341D01*
X4884349Y-5943341D02*
X4865301Y-5933817D01*
X4865301Y-5933817D02*
X4836730Y-5933817D01*
X4836730Y-5933817D02*
X4817682Y-5924293D01*
X4817682Y-5924293D02*
X4808158Y-5905246D01*
X4808158Y-5905246D02*
X4808158Y-5895722D01*
X4808158Y-5895722D02*
X4817682Y-5876674D01*
X4817682Y-5876674D02*
X4836730Y-5867150D01*
X4836730Y-5867150D02*
X4865301Y-5867150D01*
X4865301Y-5867150D02*
X4884349Y-5876674D01*
X4960539Y-6076674D02*
X4970063Y-6067150D01*
X4970063Y-6067150D02*
X4989111Y-6038579D01*
X4989111Y-6038579D02*
X4998634Y-6019531D01*
X4998634Y-6019531D02*
X5008158Y-5990960D01*
X5008158Y-5990960D02*
X5017682Y-5943341D01*
X5017682Y-5943341D02*
X5017682Y-5905246D01*
X5017682Y-5905246D02*
X5008158Y-5857627D01*
X5008158Y-5857627D02*
X4998634Y-5829055D01*
X4998634Y-5829055D02*
X4989111Y-5810008D01*
X4989111Y-5810008D02*
X4970063Y-5781436D01*
X4970063Y-5781436D02*
X4960539Y-5771912D01*
D10*
X-55000Y-6123000D02*
X-55000Y-6223000D01*
X-105000Y-6173000D02*
X-5000Y-6173000D01*
D11*
X360539Y-6264484D02*
X246253Y-6264484D01*
X303396Y-6264484D02*
X303396Y-6064484D01*
X303396Y-6064484D02*
X284348Y-6093055D01*
X284348Y-6093055D02*
X265301Y-6112103D01*
X265301Y-6112103D02*
X246253Y-6121627D01*
X446253Y-6245436D02*
X455777Y-6254960D01*
X455777Y-6254960D02*
X446253Y-6264484D01*
X446253Y-6264484D02*
X436729Y-6254960D01*
X436729Y-6254960D02*
X446253Y-6245436D01*
X446253Y-6245436D02*
X446253Y-6264484D01*
X579586Y-6064484D02*
X598634Y-6064484D01*
X598634Y-6064484D02*
X617682Y-6074008D01*
X617682Y-6074008D02*
X627205Y-6083531D01*
X627205Y-6083531D02*
X636729Y-6102579D01*
X636729Y-6102579D02*
X646253Y-6140674D01*
X646253Y-6140674D02*
X646253Y-6188293D01*
X646253Y-6188293D02*
X636729Y-6226388D01*
X636729Y-6226388D02*
X627205Y-6245436D01*
X627205Y-6245436D02*
X617682Y-6254960D01*
X617682Y-6254960D02*
X598634Y-6264484D01*
X598634Y-6264484D02*
X579586Y-6264484D01*
X579586Y-6264484D02*
X560539Y-6254960D01*
X560539Y-6254960D02*
X551015Y-6245436D01*
X551015Y-6245436D02*
X541491Y-6226388D01*
X541491Y-6226388D02*
X531967Y-6188293D01*
X531967Y-6188293D02*
X531967Y-6140674D01*
X531967Y-6140674D02*
X541491Y-6102579D01*
X541491Y-6102579D02*
X551015Y-6083531D01*
X551015Y-6083531D02*
X560539Y-6074008D01*
X560539Y-6074008D02*
X579586Y-6064484D01*
X770062Y-6064484D02*
X789110Y-6064484D01*
X789110Y-6064484D02*
X808158Y-6074008D01*
X808158Y-6074008D02*
X817682Y-6083531D01*
X817682Y-6083531D02*
X827205Y-6102579D01*
X827205Y-6102579D02*
X836729Y-6140674D01*
X836729Y-6140674D02*
X836729Y-6188293D01*
X836729Y-6188293D02*
X827205Y-6226388D01*
X827205Y-6226388D02*
X817682Y-6245436D01*
X817682Y-6245436D02*
X808158Y-6254960D01*
X808158Y-6254960D02*
X789110Y-6264484D01*
X789110Y-6264484D02*
X770062Y-6264484D01*
X770062Y-6264484D02*
X751015Y-6254960D01*
X751015Y-6254960D02*
X741491Y-6245436D01*
X741491Y-6245436D02*
X731967Y-6226388D01*
X731967Y-6226388D02*
X722443Y-6188293D01*
X722443Y-6188293D02*
X722443Y-6140674D01*
X722443Y-6140674D02*
X731967Y-6102579D01*
X731967Y-6102579D02*
X741491Y-6083531D01*
X741491Y-6083531D02*
X751015Y-6074008D01*
X751015Y-6074008D02*
X770062Y-6064484D01*
X960539Y-6064484D02*
X979586Y-6064484D01*
X979586Y-6064484D02*
X998634Y-6074008D01*
X998634Y-6074008D02*
X1008158Y-6083531D01*
X1008158Y-6083531D02*
X1017682Y-6102579D01*
X1017682Y-6102579D02*
X1027205Y-6140674D01*
X1027205Y-6140674D02*
X1027205Y-6188293D01*
X1027205Y-6188293D02*
X1017682Y-6226388D01*
X1017682Y-6226388D02*
X1008158Y-6245436D01*
X1008158Y-6245436D02*
X998634Y-6254960D01*
X998634Y-6254960D02*
X979586Y-6264484D01*
X979586Y-6264484D02*
X960539Y-6264484D01*
X960539Y-6264484D02*
X941491Y-6254960D01*
X941491Y-6254960D02*
X931967Y-6245436D01*
X931967Y-6245436D02*
X922443Y-6226388D01*
X922443Y-6226388D02*
X912920Y-6188293D01*
X912920Y-6188293D02*
X912920Y-6140674D01*
X912920Y-6140674D02*
X922443Y-6102579D01*
X922443Y-6102579D02*
X931967Y-6083531D01*
X931967Y-6083531D02*
X941491Y-6074008D01*
X941491Y-6074008D02*
X960539Y-6064484D01*
X1112920Y-6264484D02*
X1112920Y-6131150D01*
X1112920Y-6150198D02*
X1122444Y-6140674D01*
X1122444Y-6140674D02*
X1141491Y-6131150D01*
X1141491Y-6131150D02*
X1170063Y-6131150D01*
X1170063Y-6131150D02*
X1189110Y-6140674D01*
X1189110Y-6140674D02*
X1198634Y-6159722D01*
X1198634Y-6159722D02*
X1198634Y-6264484D01*
X1198634Y-6159722D02*
X1208158Y-6140674D01*
X1208158Y-6140674D02*
X1227205Y-6131150D01*
X1227205Y-6131150D02*
X1255777Y-6131150D01*
X1255777Y-6131150D02*
X1274825Y-6140674D01*
X1274825Y-6140674D02*
X1284348Y-6159722D01*
X1284348Y-6159722D02*
X1284348Y-6264484D01*
X1379586Y-6264484D02*
X1379586Y-6131150D01*
X1379586Y-6150198D02*
X1389110Y-6140674D01*
X1389110Y-6140674D02*
X1408158Y-6131150D01*
X1408158Y-6131150D02*
X1436729Y-6131150D01*
X1436729Y-6131150D02*
X1455777Y-6140674D01*
X1455777Y-6140674D02*
X1465301Y-6159722D01*
X1465301Y-6159722D02*
X1465301Y-6264484D01*
X1465301Y-6159722D02*
X1474824Y-6140674D01*
X1474824Y-6140674D02*
X1493872Y-6131150D01*
X1493872Y-6131150D02*
X1522443Y-6131150D01*
X1522443Y-6131150D02*
X1541491Y-6140674D01*
X1541491Y-6140674D02*
X1551015Y-6159722D01*
X1551015Y-6159722D02*
X1551015Y-6264484D01*
X1941491Y-6054960D02*
X1770063Y-6312103D01*
X2198634Y-6064484D02*
X2217682Y-6064484D01*
X2217682Y-6064484D02*
X2236729Y-6074008D01*
X2236729Y-6074008D02*
X2246253Y-6083531D01*
X2246253Y-6083531D02*
X2255777Y-6102579D01*
X2255777Y-6102579D02*
X2265301Y-6140674D01*
X2265301Y-6140674D02*
X2265301Y-6188293D01*
X2265301Y-6188293D02*
X2255777Y-6226388D01*
X2255777Y-6226388D02*
X2246253Y-6245436D01*
X2246253Y-6245436D02*
X2236729Y-6254960D01*
X2236729Y-6254960D02*
X2217682Y-6264484D01*
X2217682Y-6264484D02*
X2198634Y-6264484D01*
X2198634Y-6264484D02*
X2179587Y-6254960D01*
X2179587Y-6254960D02*
X2170063Y-6245436D01*
X2170063Y-6245436D02*
X2160539Y-6226388D01*
X2160539Y-6226388D02*
X2151015Y-6188293D01*
X2151015Y-6188293D02*
X2151015Y-6140674D01*
X2151015Y-6140674D02*
X2160539Y-6102579D01*
X2160539Y-6102579D02*
X2170063Y-6083531D01*
X2170063Y-6083531D02*
X2179587Y-6074008D01*
X2179587Y-6074008D02*
X2198634Y-6064484D01*
X2351015Y-6245436D02*
X2360539Y-6254960D01*
X2360539Y-6254960D02*
X2351015Y-6264484D01*
X2351015Y-6264484D02*
X2341491Y-6254960D01*
X2341491Y-6254960D02*
X2351015Y-6245436D01*
X2351015Y-6245436D02*
X2351015Y-6264484D01*
X2484348Y-6064484D02*
X2503396Y-6064484D01*
X2503396Y-6064484D02*
X2522444Y-6074008D01*
X2522444Y-6074008D02*
X2531968Y-6083531D01*
X2531968Y-6083531D02*
X2541491Y-6102579D01*
X2541491Y-6102579D02*
X2551015Y-6140674D01*
X2551015Y-6140674D02*
X2551015Y-6188293D01*
X2551015Y-6188293D02*
X2541491Y-6226388D01*
X2541491Y-6226388D02*
X2531968Y-6245436D01*
X2531968Y-6245436D02*
X2522444Y-6254960D01*
X2522444Y-6254960D02*
X2503396Y-6264484D01*
X2503396Y-6264484D02*
X2484348Y-6264484D01*
X2484348Y-6264484D02*
X2465301Y-6254960D01*
X2465301Y-6254960D02*
X2455777Y-6245436D01*
X2455777Y-6245436D02*
X2446253Y-6226388D01*
X2446253Y-6226388D02*
X2436729Y-6188293D01*
X2436729Y-6188293D02*
X2436729Y-6140674D01*
X2436729Y-6140674D02*
X2446253Y-6102579D01*
X2446253Y-6102579D02*
X2455777Y-6083531D01*
X2455777Y-6083531D02*
X2465301Y-6074008D01*
X2465301Y-6074008D02*
X2484348Y-6064484D01*
X2617682Y-6064484D02*
X2741491Y-6064484D01*
X2741491Y-6064484D02*
X2674825Y-6140674D01*
X2674825Y-6140674D02*
X2703396Y-6140674D01*
X2703396Y-6140674D02*
X2722444Y-6150198D01*
X2722444Y-6150198D02*
X2731968Y-6159722D01*
X2731968Y-6159722D02*
X2741491Y-6178769D01*
X2741491Y-6178769D02*
X2741491Y-6226388D01*
X2741491Y-6226388D02*
X2731968Y-6245436D01*
X2731968Y-6245436D02*
X2722444Y-6254960D01*
X2722444Y-6254960D02*
X2703396Y-6264484D01*
X2703396Y-6264484D02*
X2646253Y-6264484D01*
X2646253Y-6264484D02*
X2627206Y-6254960D01*
X2627206Y-6254960D02*
X2617682Y-6245436D01*
X2836729Y-6264484D02*
X2874825Y-6264484D01*
X2874825Y-6264484D02*
X2893872Y-6254960D01*
X2893872Y-6254960D02*
X2903396Y-6245436D01*
X2903396Y-6245436D02*
X2922444Y-6216865D01*
X2922444Y-6216865D02*
X2931967Y-6178769D01*
X2931967Y-6178769D02*
X2931967Y-6102579D01*
X2931967Y-6102579D02*
X2922444Y-6083531D01*
X2922444Y-6083531D02*
X2912920Y-6074008D01*
X2912920Y-6074008D02*
X2893872Y-6064484D01*
X2893872Y-6064484D02*
X2855777Y-6064484D01*
X2855777Y-6064484D02*
X2836729Y-6074008D01*
X2836729Y-6074008D02*
X2827206Y-6083531D01*
X2827206Y-6083531D02*
X2817682Y-6102579D01*
X2817682Y-6102579D02*
X2817682Y-6150198D01*
X2817682Y-6150198D02*
X2827206Y-6169246D01*
X2827206Y-6169246D02*
X2836729Y-6178769D01*
X2836729Y-6178769D02*
X2855777Y-6188293D01*
X2855777Y-6188293D02*
X2893872Y-6188293D01*
X2893872Y-6188293D02*
X2912920Y-6178769D01*
X2912920Y-6178769D02*
X2922444Y-6169246D01*
X2922444Y-6169246D02*
X2931967Y-6150198D01*
X3103396Y-6131150D02*
X3103396Y-6264484D01*
X3055777Y-6054960D02*
X3008158Y-6197817D01*
X3008158Y-6197817D02*
X3131967Y-6197817D01*
X3198634Y-6064484D02*
X3198634Y-6102579D01*
X3274825Y-6064484D02*
X3274825Y-6102579D01*
X3570063Y-6340674D02*
X3560539Y-6331150D01*
X3560539Y-6331150D02*
X3541491Y-6302579D01*
X3541491Y-6302579D02*
X3531968Y-6283531D01*
X3531968Y-6283531D02*
X3522444Y-6254960D01*
X3522444Y-6254960D02*
X3512920Y-6207341D01*
X3512920Y-6207341D02*
X3512920Y-6169246D01*
X3512920Y-6169246D02*
X3522444Y-6121627D01*
X3522444Y-6121627D02*
X3531968Y-6093055D01*
X3531968Y-6093055D02*
X3541491Y-6074008D01*
X3541491Y-6074008D02*
X3560539Y-6045436D01*
X3560539Y-6045436D02*
X3570063Y-6035912D01*
X3636729Y-6083531D02*
X3646253Y-6074008D01*
X3646253Y-6074008D02*
X3665301Y-6064484D01*
X3665301Y-6064484D02*
X3712920Y-6064484D01*
X3712920Y-6064484D02*
X3731968Y-6074008D01*
X3731968Y-6074008D02*
X3741491Y-6083531D01*
X3741491Y-6083531D02*
X3751015Y-6102579D01*
X3751015Y-6102579D02*
X3751015Y-6121627D01*
X3751015Y-6121627D02*
X3741491Y-6150198D01*
X3741491Y-6150198D02*
X3627206Y-6264484D01*
X3627206Y-6264484D02*
X3751015Y-6264484D01*
X3989110Y-6264484D02*
X3989110Y-6064484D01*
X4074825Y-6264484D02*
X4074825Y-6159722D01*
X4074825Y-6159722D02*
X4065301Y-6140674D01*
X4065301Y-6140674D02*
X4046253Y-6131150D01*
X4046253Y-6131150D02*
X4017682Y-6131150D01*
X4017682Y-6131150D02*
X3998634Y-6140674D01*
X3998634Y-6140674D02*
X3989110Y-6150198D01*
X4198634Y-6264484D02*
X4179587Y-6254960D01*
X4179587Y-6254960D02*
X4170063Y-6245436D01*
X4170063Y-6245436D02*
X4160539Y-6226388D01*
X4160539Y-6226388D02*
X4160539Y-6169246D01*
X4160539Y-6169246D02*
X4170063Y-6150198D01*
X4170063Y-6150198D02*
X4179587Y-6140674D01*
X4179587Y-6140674D02*
X4198634Y-6131150D01*
X4198634Y-6131150D02*
X4227206Y-6131150D01*
X4227206Y-6131150D02*
X4246253Y-6140674D01*
X4246253Y-6140674D02*
X4255777Y-6150198D01*
X4255777Y-6150198D02*
X4265301Y-6169246D01*
X4265301Y-6169246D02*
X4265301Y-6226388D01*
X4265301Y-6226388D02*
X4255777Y-6245436D01*
X4255777Y-6245436D02*
X4246253Y-6254960D01*
X4246253Y-6254960D02*
X4227206Y-6264484D01*
X4227206Y-6264484D02*
X4198634Y-6264484D01*
X4379587Y-6264484D02*
X4360539Y-6254960D01*
X4360539Y-6254960D02*
X4351015Y-6235912D01*
X4351015Y-6235912D02*
X4351015Y-6064484D01*
X4531968Y-6254960D02*
X4512920Y-6264484D01*
X4512920Y-6264484D02*
X4474825Y-6264484D01*
X4474825Y-6264484D02*
X4455777Y-6254960D01*
X4455777Y-6254960D02*
X4446253Y-6235912D01*
X4446253Y-6235912D02*
X4446253Y-6159722D01*
X4446253Y-6159722D02*
X4455777Y-6140674D01*
X4455777Y-6140674D02*
X4474825Y-6131150D01*
X4474825Y-6131150D02*
X4512920Y-6131150D01*
X4512920Y-6131150D02*
X4531968Y-6140674D01*
X4531968Y-6140674D02*
X4541492Y-6159722D01*
X4541492Y-6159722D02*
X4541492Y-6178769D01*
X4541492Y-6178769D02*
X4446253Y-6197817D01*
X4617682Y-6254960D02*
X4636730Y-6264484D01*
X4636730Y-6264484D02*
X4674825Y-6264484D01*
X4674825Y-6264484D02*
X4693873Y-6254960D01*
X4693873Y-6254960D02*
X4703396Y-6235912D01*
X4703396Y-6235912D02*
X4703396Y-6226388D01*
X4703396Y-6226388D02*
X4693873Y-6207341D01*
X4693873Y-6207341D02*
X4674825Y-6197817D01*
X4674825Y-6197817D02*
X4646253Y-6197817D01*
X4646253Y-6197817D02*
X4627206Y-6188293D01*
X4627206Y-6188293D02*
X4617682Y-6169246D01*
X4617682Y-6169246D02*
X4617682Y-6159722D01*
X4617682Y-6159722D02*
X4627206Y-6140674D01*
X4627206Y-6140674D02*
X4646253Y-6131150D01*
X4646253Y-6131150D02*
X4674825Y-6131150D01*
X4674825Y-6131150D02*
X4693873Y-6140674D01*
X4770063Y-6340674D02*
X4779587Y-6331150D01*
X4779587Y-6331150D02*
X4798634Y-6302579D01*
X4798634Y-6302579D02*
X4808158Y-6283531D01*
X4808158Y-6283531D02*
X4817682Y-6254960D01*
X4817682Y-6254960D02*
X4827206Y-6207341D01*
X4827206Y-6207341D02*
X4827206Y-6169246D01*
X4827206Y-6169246D02*
X4817682Y-6121627D01*
X4817682Y-6121627D02*
X4808158Y-6093055D01*
X4808158Y-6093055D02*
X4798634Y-6074008D01*
X4798634Y-6074008D02*
X4779587Y-6045436D01*
X4779587Y-6045436D02*
X4770063Y-6035912D01*
D10*
X-16716Y-6465284D02*
X-16716Y-6408715D01*
X-73285Y-6408715D01*
X-73285Y-6465284D01*
X-16716Y-6465284D01*
D11*
X293872Y-6328484D02*
X312920Y-6328484D01*
X312920Y-6328484D02*
X331967Y-6338008D01*
X331967Y-6338008D02*
X341491Y-6347531D01*
X341491Y-6347531D02*
X351015Y-6366579D01*
X351015Y-6366579D02*
X360539Y-6404674D01*
X360539Y-6404674D02*
X360539Y-6452293D01*
X360539Y-6452293D02*
X351015Y-6490388D01*
X351015Y-6490388D02*
X341491Y-6509436D01*
X341491Y-6509436D02*
X331967Y-6518960D01*
X331967Y-6518960D02*
X312920Y-6528484D01*
X312920Y-6528484D02*
X293872Y-6528484D01*
X293872Y-6528484D02*
X274824Y-6518960D01*
X274824Y-6518960D02*
X265301Y-6509436D01*
X265301Y-6509436D02*
X255777Y-6490388D01*
X255777Y-6490388D02*
X246253Y-6452293D01*
X246253Y-6452293D02*
X246253Y-6404674D01*
X246253Y-6404674D02*
X255777Y-6366579D01*
X255777Y-6366579D02*
X265301Y-6347531D01*
X265301Y-6347531D02*
X274824Y-6338008D01*
X274824Y-6338008D02*
X293872Y-6328484D01*
X446253Y-6509436D02*
X455777Y-6518960D01*
X455777Y-6518960D02*
X446253Y-6528484D01*
X446253Y-6528484D02*
X436729Y-6518960D01*
X436729Y-6518960D02*
X446253Y-6509436D01*
X446253Y-6509436D02*
X446253Y-6528484D01*
X570063Y-6414198D02*
X551015Y-6404674D01*
X551015Y-6404674D02*
X541491Y-6395150D01*
X541491Y-6395150D02*
X531967Y-6376103D01*
X531967Y-6376103D02*
X531967Y-6366579D01*
X531967Y-6366579D02*
X541491Y-6347531D01*
X541491Y-6347531D02*
X551015Y-6338008D01*
X551015Y-6338008D02*
X570063Y-6328484D01*
X570063Y-6328484D02*
X608158Y-6328484D01*
X608158Y-6328484D02*
X627205Y-6338008D01*
X627205Y-6338008D02*
X636729Y-6347531D01*
X636729Y-6347531D02*
X646253Y-6366579D01*
X646253Y-6366579D02*
X646253Y-6376103D01*
X646253Y-6376103D02*
X636729Y-6395150D01*
X636729Y-6395150D02*
X627205Y-6404674D01*
X627205Y-6404674D02*
X608158Y-6414198D01*
X608158Y-6414198D02*
X570063Y-6414198D01*
X570063Y-6414198D02*
X551015Y-6423722D01*
X551015Y-6423722D02*
X541491Y-6433246D01*
X541491Y-6433246D02*
X531967Y-6452293D01*
X531967Y-6452293D02*
X531967Y-6490388D01*
X531967Y-6490388D02*
X541491Y-6509436D01*
X541491Y-6509436D02*
X551015Y-6518960D01*
X551015Y-6518960D02*
X570063Y-6528484D01*
X570063Y-6528484D02*
X608158Y-6528484D01*
X608158Y-6528484D02*
X627205Y-6518960D01*
X627205Y-6518960D02*
X636729Y-6509436D01*
X636729Y-6509436D02*
X646253Y-6490388D01*
X646253Y-6490388D02*
X646253Y-6452293D01*
X646253Y-6452293D02*
X636729Y-6433246D01*
X636729Y-6433246D02*
X627205Y-6423722D01*
X627205Y-6423722D02*
X608158Y-6414198D01*
X770062Y-6328484D02*
X789110Y-6328484D01*
X789110Y-6328484D02*
X808158Y-6338008D01*
X808158Y-6338008D02*
X817682Y-6347531D01*
X817682Y-6347531D02*
X827205Y-6366579D01*
X827205Y-6366579D02*
X836729Y-6404674D01*
X836729Y-6404674D02*
X836729Y-6452293D01*
X836729Y-6452293D02*
X827205Y-6490388D01*
X827205Y-6490388D02*
X817682Y-6509436D01*
X817682Y-6509436D02*
X808158Y-6518960D01*
X808158Y-6518960D02*
X789110Y-6528484D01*
X789110Y-6528484D02*
X770062Y-6528484D01*
X770062Y-6528484D02*
X751015Y-6518960D01*
X751015Y-6518960D02*
X741491Y-6509436D01*
X741491Y-6509436D02*
X731967Y-6490388D01*
X731967Y-6490388D02*
X722443Y-6452293D01*
X722443Y-6452293D02*
X722443Y-6404674D01*
X722443Y-6404674D02*
X731967Y-6366579D01*
X731967Y-6366579D02*
X741491Y-6347531D01*
X741491Y-6347531D02*
X751015Y-6338008D01*
X751015Y-6338008D02*
X770062Y-6328484D01*
X960539Y-6328484D02*
X979586Y-6328484D01*
X979586Y-6328484D02*
X998634Y-6338008D01*
X998634Y-6338008D02*
X1008158Y-6347531D01*
X1008158Y-6347531D02*
X1017682Y-6366579D01*
X1017682Y-6366579D02*
X1027205Y-6404674D01*
X1027205Y-6404674D02*
X1027205Y-6452293D01*
X1027205Y-6452293D02*
X1017682Y-6490388D01*
X1017682Y-6490388D02*
X1008158Y-6509436D01*
X1008158Y-6509436D02*
X998634Y-6518960D01*
X998634Y-6518960D02*
X979586Y-6528484D01*
X979586Y-6528484D02*
X960539Y-6528484D01*
X960539Y-6528484D02*
X941491Y-6518960D01*
X941491Y-6518960D02*
X931967Y-6509436D01*
X931967Y-6509436D02*
X922443Y-6490388D01*
X922443Y-6490388D02*
X912920Y-6452293D01*
X912920Y-6452293D02*
X912920Y-6404674D01*
X912920Y-6404674D02*
X922443Y-6366579D01*
X922443Y-6366579D02*
X931967Y-6347531D01*
X931967Y-6347531D02*
X941491Y-6338008D01*
X941491Y-6338008D02*
X960539Y-6328484D01*
X1112920Y-6528484D02*
X1112920Y-6395150D01*
X1112920Y-6414198D02*
X1122444Y-6404674D01*
X1122444Y-6404674D02*
X1141491Y-6395150D01*
X1141491Y-6395150D02*
X1170063Y-6395150D01*
X1170063Y-6395150D02*
X1189110Y-6404674D01*
X1189110Y-6404674D02*
X1198634Y-6423722D01*
X1198634Y-6423722D02*
X1198634Y-6528484D01*
X1198634Y-6423722D02*
X1208158Y-6404674D01*
X1208158Y-6404674D02*
X1227205Y-6395150D01*
X1227205Y-6395150D02*
X1255777Y-6395150D01*
X1255777Y-6395150D02*
X1274825Y-6404674D01*
X1274825Y-6404674D02*
X1284348Y-6423722D01*
X1284348Y-6423722D02*
X1284348Y-6528484D01*
X1379586Y-6528484D02*
X1379586Y-6395150D01*
X1379586Y-6414198D02*
X1389110Y-6404674D01*
X1389110Y-6404674D02*
X1408158Y-6395150D01*
X1408158Y-6395150D02*
X1436729Y-6395150D01*
X1436729Y-6395150D02*
X1455777Y-6404674D01*
X1455777Y-6404674D02*
X1465301Y-6423722D01*
X1465301Y-6423722D02*
X1465301Y-6528484D01*
X1465301Y-6423722D02*
X1474824Y-6404674D01*
X1474824Y-6404674D02*
X1493872Y-6395150D01*
X1493872Y-6395150D02*
X1522443Y-6395150D01*
X1522443Y-6395150D02*
X1541491Y-6404674D01*
X1541491Y-6404674D02*
X1551015Y-6423722D01*
X1551015Y-6423722D02*
X1551015Y-6528484D01*
X1941491Y-6318960D02*
X1770063Y-6576103D01*
X2198634Y-6328484D02*
X2217682Y-6328484D01*
X2217682Y-6328484D02*
X2236729Y-6338008D01*
X2236729Y-6338008D02*
X2246253Y-6347531D01*
X2246253Y-6347531D02*
X2255777Y-6366579D01*
X2255777Y-6366579D02*
X2265301Y-6404674D01*
X2265301Y-6404674D02*
X2265301Y-6452293D01*
X2265301Y-6452293D02*
X2255777Y-6490388D01*
X2255777Y-6490388D02*
X2246253Y-6509436D01*
X2246253Y-6509436D02*
X2236729Y-6518960D01*
X2236729Y-6518960D02*
X2217682Y-6528484D01*
X2217682Y-6528484D02*
X2198634Y-6528484D01*
X2198634Y-6528484D02*
X2179587Y-6518960D01*
X2179587Y-6518960D02*
X2170063Y-6509436D01*
X2170063Y-6509436D02*
X2160539Y-6490388D01*
X2160539Y-6490388D02*
X2151015Y-6452293D01*
X2151015Y-6452293D02*
X2151015Y-6404674D01*
X2151015Y-6404674D02*
X2160539Y-6366579D01*
X2160539Y-6366579D02*
X2170063Y-6347531D01*
X2170063Y-6347531D02*
X2179587Y-6338008D01*
X2179587Y-6338008D02*
X2198634Y-6328484D01*
X2351015Y-6509436D02*
X2360539Y-6518960D01*
X2360539Y-6518960D02*
X2351015Y-6528484D01*
X2351015Y-6528484D02*
X2341491Y-6518960D01*
X2341491Y-6518960D02*
X2351015Y-6509436D01*
X2351015Y-6509436D02*
X2351015Y-6528484D01*
X2484348Y-6328484D02*
X2503396Y-6328484D01*
X2503396Y-6328484D02*
X2522444Y-6338008D01*
X2522444Y-6338008D02*
X2531968Y-6347531D01*
X2531968Y-6347531D02*
X2541491Y-6366579D01*
X2541491Y-6366579D02*
X2551015Y-6404674D01*
X2551015Y-6404674D02*
X2551015Y-6452293D01*
X2551015Y-6452293D02*
X2541491Y-6490388D01*
X2541491Y-6490388D02*
X2531968Y-6509436D01*
X2531968Y-6509436D02*
X2522444Y-6518960D01*
X2522444Y-6518960D02*
X2503396Y-6528484D01*
X2503396Y-6528484D02*
X2484348Y-6528484D01*
X2484348Y-6528484D02*
X2465301Y-6518960D01*
X2465301Y-6518960D02*
X2455777Y-6509436D01*
X2455777Y-6509436D02*
X2446253Y-6490388D01*
X2446253Y-6490388D02*
X2436729Y-6452293D01*
X2436729Y-6452293D02*
X2436729Y-6404674D01*
X2436729Y-6404674D02*
X2446253Y-6366579D01*
X2446253Y-6366579D02*
X2455777Y-6347531D01*
X2455777Y-6347531D02*
X2465301Y-6338008D01*
X2465301Y-6338008D02*
X2484348Y-6328484D01*
X2617682Y-6328484D02*
X2741491Y-6328484D01*
X2741491Y-6328484D02*
X2674825Y-6404674D01*
X2674825Y-6404674D02*
X2703396Y-6404674D01*
X2703396Y-6404674D02*
X2722444Y-6414198D01*
X2722444Y-6414198D02*
X2731968Y-6423722D01*
X2731968Y-6423722D02*
X2741491Y-6442769D01*
X2741491Y-6442769D02*
X2741491Y-6490388D01*
X2741491Y-6490388D02*
X2731968Y-6509436D01*
X2731968Y-6509436D02*
X2722444Y-6518960D01*
X2722444Y-6518960D02*
X2703396Y-6528484D01*
X2703396Y-6528484D02*
X2646253Y-6528484D01*
X2646253Y-6528484D02*
X2627206Y-6518960D01*
X2627206Y-6518960D02*
X2617682Y-6509436D01*
X2931967Y-6528484D02*
X2817682Y-6528484D01*
X2874825Y-6528484D02*
X2874825Y-6328484D01*
X2874825Y-6328484D02*
X2855777Y-6357055D01*
X2855777Y-6357055D02*
X2836729Y-6376103D01*
X2836729Y-6376103D02*
X2817682Y-6385627D01*
X3112920Y-6328484D02*
X3017682Y-6328484D01*
X3017682Y-6328484D02*
X3008158Y-6423722D01*
X3008158Y-6423722D02*
X3017682Y-6414198D01*
X3017682Y-6414198D02*
X3036729Y-6404674D01*
X3036729Y-6404674D02*
X3084348Y-6404674D01*
X3084348Y-6404674D02*
X3103396Y-6414198D01*
X3103396Y-6414198D02*
X3112920Y-6423722D01*
X3112920Y-6423722D02*
X3122444Y-6442769D01*
X3122444Y-6442769D02*
X3122444Y-6490388D01*
X3122444Y-6490388D02*
X3112920Y-6509436D01*
X3112920Y-6509436D02*
X3103396Y-6518960D01*
X3103396Y-6518960D02*
X3084348Y-6528484D01*
X3084348Y-6528484D02*
X3036729Y-6528484D01*
X3036729Y-6528484D02*
X3017682Y-6518960D01*
X3017682Y-6518960D02*
X3008158Y-6509436D01*
X3198634Y-6328484D02*
X3198634Y-6366579D01*
X3274825Y-6328484D02*
X3274825Y-6366579D01*
X3570063Y-6604674D02*
X3560539Y-6595150D01*
X3560539Y-6595150D02*
X3541491Y-6566579D01*
X3541491Y-6566579D02*
X3531968Y-6547531D01*
X3531968Y-6547531D02*
X3522444Y-6518960D01*
X3522444Y-6518960D02*
X3512920Y-6471341D01*
X3512920Y-6471341D02*
X3512920Y-6433246D01*
X3512920Y-6433246D02*
X3522444Y-6385627D01*
X3522444Y-6385627D02*
X3531968Y-6357055D01*
X3531968Y-6357055D02*
X3541491Y-6338008D01*
X3541491Y-6338008D02*
X3560539Y-6309436D01*
X3560539Y-6309436D02*
X3570063Y-6299912D01*
X3627206Y-6328484D02*
X3751015Y-6328484D01*
X3751015Y-6328484D02*
X3684348Y-6404674D01*
X3684348Y-6404674D02*
X3712920Y-6404674D01*
X3712920Y-6404674D02*
X3731968Y-6414198D01*
X3731968Y-6414198D02*
X3741491Y-6423722D01*
X3741491Y-6423722D02*
X3751015Y-6442769D01*
X3751015Y-6442769D02*
X3751015Y-6490388D01*
X3751015Y-6490388D02*
X3741491Y-6509436D01*
X3741491Y-6509436D02*
X3731968Y-6518960D01*
X3731968Y-6518960D02*
X3712920Y-6528484D01*
X3712920Y-6528484D02*
X3655777Y-6528484D01*
X3655777Y-6528484D02*
X3636729Y-6518960D01*
X3636729Y-6518960D02*
X3627206Y-6509436D01*
X3922444Y-6328484D02*
X3884348Y-6328484D01*
X3884348Y-6328484D02*
X3865301Y-6338008D01*
X3865301Y-6338008D02*
X3855777Y-6347531D01*
X3855777Y-6347531D02*
X3836729Y-6376103D01*
X3836729Y-6376103D02*
X3827206Y-6414198D01*
X3827206Y-6414198D02*
X3827206Y-6490388D01*
X3827206Y-6490388D02*
X3836729Y-6509436D01*
X3836729Y-6509436D02*
X3846253Y-6518960D01*
X3846253Y-6518960D02*
X3865301Y-6528484D01*
X3865301Y-6528484D02*
X3903396Y-6528484D01*
X3903396Y-6528484D02*
X3922444Y-6518960D01*
X3922444Y-6518960D02*
X3931968Y-6509436D01*
X3931968Y-6509436D02*
X3941491Y-6490388D01*
X3941491Y-6490388D02*
X3941491Y-6442769D01*
X3941491Y-6442769D02*
X3931968Y-6423722D01*
X3931968Y-6423722D02*
X3922444Y-6414198D01*
X3922444Y-6414198D02*
X3903396Y-6404674D01*
X3903396Y-6404674D02*
X3865301Y-6404674D01*
X3865301Y-6404674D02*
X3846253Y-6414198D01*
X3846253Y-6414198D02*
X3836729Y-6423722D01*
X3836729Y-6423722D02*
X3827206Y-6442769D01*
X4179587Y-6528484D02*
X4179587Y-6328484D01*
X4265301Y-6528484D02*
X4265301Y-6423722D01*
X4265301Y-6423722D02*
X4255777Y-6404674D01*
X4255777Y-6404674D02*
X4236730Y-6395150D01*
X4236730Y-6395150D02*
X4208158Y-6395150D01*
X4208158Y-6395150D02*
X4189110Y-6404674D01*
X4189110Y-6404674D02*
X4179587Y-6414198D01*
X4389111Y-6528484D02*
X4370063Y-6518960D01*
X4370063Y-6518960D02*
X4360539Y-6509436D01*
X4360539Y-6509436D02*
X4351015Y-6490388D01*
X4351015Y-6490388D02*
X4351015Y-6433246D01*
X4351015Y-6433246D02*
X4360539Y-6414198D01*
X4360539Y-6414198D02*
X4370063Y-6404674D01*
X4370063Y-6404674D02*
X4389111Y-6395150D01*
X4389111Y-6395150D02*
X4417682Y-6395150D01*
X4417682Y-6395150D02*
X4436730Y-6404674D01*
X4436730Y-6404674D02*
X4446253Y-6414198D01*
X4446253Y-6414198D02*
X4455777Y-6433246D01*
X4455777Y-6433246D02*
X4455777Y-6490388D01*
X4455777Y-6490388D02*
X4446253Y-6509436D01*
X4446253Y-6509436D02*
X4436730Y-6518960D01*
X4436730Y-6518960D02*
X4417682Y-6528484D01*
X4417682Y-6528484D02*
X4389111Y-6528484D01*
X4570063Y-6528484D02*
X4551015Y-6518960D01*
X4551015Y-6518960D02*
X4541492Y-6499912D01*
X4541492Y-6499912D02*
X4541492Y-6328484D01*
X4722444Y-6518960D02*
X4703396Y-6528484D01*
X4703396Y-6528484D02*
X4665301Y-6528484D01*
X4665301Y-6528484D02*
X4646253Y-6518960D01*
X4646253Y-6518960D02*
X4636730Y-6499912D01*
X4636730Y-6499912D02*
X4636730Y-6423722D01*
X4636730Y-6423722D02*
X4646253Y-6404674D01*
X4646253Y-6404674D02*
X4665301Y-6395150D01*
X4665301Y-6395150D02*
X4703396Y-6395150D01*
X4703396Y-6395150D02*
X4722444Y-6404674D01*
X4722444Y-6404674D02*
X4731968Y-6423722D01*
X4731968Y-6423722D02*
X4731968Y-6442769D01*
X4731968Y-6442769D02*
X4636730Y-6461817D01*
X4808158Y-6518960D02*
X4827206Y-6528484D01*
X4827206Y-6528484D02*
X4865301Y-6528484D01*
X4865301Y-6528484D02*
X4884349Y-6518960D01*
X4884349Y-6518960D02*
X4893873Y-6499912D01*
X4893873Y-6499912D02*
X4893873Y-6490388D01*
X4893873Y-6490388D02*
X4884349Y-6471341D01*
X4884349Y-6471341D02*
X4865301Y-6461817D01*
X4865301Y-6461817D02*
X4836730Y-6461817D01*
X4836730Y-6461817D02*
X4817682Y-6452293D01*
X4817682Y-6452293D02*
X4808158Y-6433246D01*
X4808158Y-6433246D02*
X4808158Y-6423722D01*
X4808158Y-6423722D02*
X4817682Y-6404674D01*
X4817682Y-6404674D02*
X4836730Y-6395150D01*
X4836730Y-6395150D02*
X4865301Y-6395150D01*
X4865301Y-6395150D02*
X4884349Y-6404674D01*
X4960539Y-6604674D02*
X4970063Y-6595150D01*
X4970063Y-6595150D02*
X4989111Y-6566579D01*
X4989111Y-6566579D02*
X4998634Y-6547531D01*
X4998634Y-6547531D02*
X5008158Y-6518960D01*
X5008158Y-6518960D02*
X5017682Y-6471341D01*
X5017682Y-6471341D02*
X5017682Y-6433246D01*
X5017682Y-6433246D02*
X5008158Y-6385627D01*
X5008158Y-6385627D02*
X4998634Y-6357055D01*
X4998634Y-6357055D02*
X4989111Y-6338008D01*
X4989111Y-6338008D02*
X4970063Y-6309436D01*
X4970063Y-6309436D02*
X4960539Y-6299912D01*
X5322444Y-6604674D02*
X5312920Y-6595150D01*
X5312920Y-6595150D02*
X5293873Y-6566579D01*
X5293873Y-6566579D02*
X5284349Y-6547531D01*
X5284349Y-6547531D02*
X5274825Y-6518960D01*
X5274825Y-6518960D02*
X5265301Y-6471341D01*
X5265301Y-6471341D02*
X5265301Y-6433246D01*
X5265301Y-6433246D02*
X5274825Y-6385627D01*
X5274825Y-6385627D02*
X5284349Y-6357055D01*
X5284349Y-6357055D02*
X5293873Y-6338008D01*
X5293873Y-6338008D02*
X5312920Y-6309436D01*
X5312920Y-6309436D02*
X5322444Y-6299912D01*
X5398634Y-6395150D02*
X5398634Y-6528484D01*
X5398634Y-6414198D02*
X5408158Y-6404674D01*
X5408158Y-6404674D02*
X5427206Y-6395150D01*
X5427206Y-6395150D02*
X5455777Y-6395150D01*
X5455777Y-6395150D02*
X5474825Y-6404674D01*
X5474825Y-6404674D02*
X5484349Y-6423722D01*
X5484349Y-6423722D02*
X5484349Y-6528484D01*
X5608158Y-6528484D02*
X5589111Y-6518960D01*
X5589111Y-6518960D02*
X5579587Y-6509436D01*
X5579587Y-6509436D02*
X5570063Y-6490388D01*
X5570063Y-6490388D02*
X5570063Y-6433246D01*
X5570063Y-6433246D02*
X5579587Y-6414198D01*
X5579587Y-6414198D02*
X5589111Y-6404674D01*
X5589111Y-6404674D02*
X5608158Y-6395150D01*
X5608158Y-6395150D02*
X5636730Y-6395150D01*
X5636730Y-6395150D02*
X5655777Y-6404674D01*
X5655777Y-6404674D02*
X5665301Y-6414198D01*
X5665301Y-6414198D02*
X5674825Y-6433246D01*
X5674825Y-6433246D02*
X5674825Y-6490388D01*
X5674825Y-6490388D02*
X5665301Y-6509436D01*
X5665301Y-6509436D02*
X5655777Y-6518960D01*
X5655777Y-6518960D02*
X5636730Y-6528484D01*
X5636730Y-6528484D02*
X5608158Y-6528484D01*
X5731968Y-6395150D02*
X5808158Y-6395150D01*
X5760539Y-6328484D02*
X5760539Y-6499912D01*
X5760539Y-6499912D02*
X5770063Y-6518960D01*
X5770063Y-6518960D02*
X5789111Y-6528484D01*
X5789111Y-6528484D02*
X5808158Y-6528484D01*
X6027206Y-6395150D02*
X6027206Y-6595150D01*
X6027206Y-6404674D02*
X6046253Y-6395150D01*
X6046253Y-6395150D02*
X6084349Y-6395150D01*
X6084349Y-6395150D02*
X6103396Y-6404674D01*
X6103396Y-6404674D02*
X6112920Y-6414198D01*
X6112920Y-6414198D02*
X6122444Y-6433246D01*
X6122444Y-6433246D02*
X6122444Y-6490388D01*
X6122444Y-6490388D02*
X6112920Y-6509436D01*
X6112920Y-6509436D02*
X6103396Y-6518960D01*
X6103396Y-6518960D02*
X6084349Y-6528484D01*
X6084349Y-6528484D02*
X6046253Y-6528484D01*
X6046253Y-6528484D02*
X6027206Y-6518960D01*
X6236730Y-6528484D02*
X6217682Y-6518960D01*
X6217682Y-6518960D02*
X6208158Y-6499912D01*
X6208158Y-6499912D02*
X6208158Y-6328484D01*
X6398634Y-6528484D02*
X6398634Y-6423722D01*
X6398634Y-6423722D02*
X6389111Y-6404674D01*
X6389111Y-6404674D02*
X6370063Y-6395150D01*
X6370063Y-6395150D02*
X6331968Y-6395150D01*
X6331968Y-6395150D02*
X6312920Y-6404674D01*
X6398634Y-6518960D02*
X6379587Y-6528484D01*
X6379587Y-6528484D02*
X6331968Y-6528484D01*
X6331968Y-6528484D02*
X6312920Y-6518960D01*
X6312920Y-6518960D02*
X6303396Y-6499912D01*
X6303396Y-6499912D02*
X6303396Y-6480865D01*
X6303396Y-6480865D02*
X6312920Y-6461817D01*
X6312920Y-6461817D02*
X6331968Y-6452293D01*
X6331968Y-6452293D02*
X6379587Y-6452293D01*
X6379587Y-6452293D02*
X6398634Y-6442769D01*
X6465301Y-6395150D02*
X6541492Y-6395150D01*
X6493873Y-6328484D02*
X6493873Y-6499912D01*
X6493873Y-6499912D02*
X6503396Y-6518960D01*
X6503396Y-6518960D02*
X6522444Y-6528484D01*
X6522444Y-6528484D02*
X6541492Y-6528484D01*
X6684349Y-6518960D02*
X6665301Y-6528484D01*
X6665301Y-6528484D02*
X6627206Y-6528484D01*
X6627206Y-6528484D02*
X6608158Y-6518960D01*
X6608158Y-6518960D02*
X6598634Y-6499912D01*
X6598634Y-6499912D02*
X6598634Y-6423722D01*
X6598634Y-6423722D02*
X6608158Y-6404674D01*
X6608158Y-6404674D02*
X6627206Y-6395150D01*
X6627206Y-6395150D02*
X6665301Y-6395150D01*
X6665301Y-6395150D02*
X6684349Y-6404674D01*
X6684349Y-6404674D02*
X6693873Y-6423722D01*
X6693873Y-6423722D02*
X6693873Y-6442769D01*
X6693873Y-6442769D02*
X6598634Y-6461817D01*
X6865301Y-6528484D02*
X6865301Y-6328484D01*
X6865301Y-6518960D02*
X6846254Y-6528484D01*
X6846254Y-6528484D02*
X6808158Y-6528484D01*
X6808158Y-6528484D02*
X6789111Y-6518960D01*
X6789111Y-6518960D02*
X6779587Y-6509436D01*
X6779587Y-6509436D02*
X6770063Y-6490388D01*
X6770063Y-6490388D02*
X6770063Y-6433246D01*
X6770063Y-6433246D02*
X6779587Y-6414198D01*
X6779587Y-6414198D02*
X6789111Y-6404674D01*
X6789111Y-6404674D02*
X6808158Y-6395150D01*
X6808158Y-6395150D02*
X6846254Y-6395150D01*
X6846254Y-6395150D02*
X6865301Y-6404674D01*
X6941492Y-6604674D02*
X6951015Y-6595150D01*
X6951015Y-6595150D02*
X6970063Y-6566579D01*
X6970063Y-6566579D02*
X6979587Y-6547531D01*
X6979587Y-6547531D02*
X6989111Y-6518960D01*
X6989111Y-6518960D02*
X6998634Y-6471341D01*
X6998634Y-6471341D02*
X6998634Y-6433246D01*
X6998634Y-6433246D02*
X6989111Y-6385627D01*
X6989111Y-6385627D02*
X6979587Y-6357055D01*
X6979587Y-6357055D02*
X6970063Y-6338008D01*
X6970063Y-6338008D02*
X6951015Y-6309436D01*
X6951015Y-6309436D02*
X6941492Y-6299912D01*
X-105000Y-6801000D02*
X-5000Y-6701000D01*
X-105000Y-6601000D01*
X-205000Y-6701000D01*
X-105000Y-6801000D01*
X246253Y-6611531D02*
X255777Y-6602008D01*
X255777Y-6602008D02*
X274824Y-6592484D01*
X274824Y-6592484D02*
X322444Y-6592484D01*
X322444Y-6592484D02*
X341491Y-6602008D01*
X341491Y-6602008D02*
X351015Y-6611531D01*
X351015Y-6611531D02*
X360539Y-6630579D01*
X360539Y-6630579D02*
X360539Y-6649627D01*
X360539Y-6649627D02*
X351015Y-6678198D01*
X351015Y-6678198D02*
X236729Y-6792484D01*
X236729Y-6792484D02*
X360539Y-6792484D01*
X446253Y-6773436D02*
X455777Y-6782960D01*
X455777Y-6782960D02*
X446253Y-6792484D01*
X446253Y-6792484D02*
X436729Y-6782960D01*
X436729Y-6782960D02*
X446253Y-6773436D01*
X446253Y-6773436D02*
X446253Y-6792484D01*
X531967Y-6611531D02*
X541491Y-6602008D01*
X541491Y-6602008D02*
X560539Y-6592484D01*
X560539Y-6592484D02*
X608158Y-6592484D01*
X608158Y-6592484D02*
X627205Y-6602008D01*
X627205Y-6602008D02*
X636729Y-6611531D01*
X636729Y-6611531D02*
X646253Y-6630579D01*
X646253Y-6630579D02*
X646253Y-6649627D01*
X646253Y-6649627D02*
X636729Y-6678198D01*
X636729Y-6678198D02*
X522443Y-6792484D01*
X522443Y-6792484D02*
X646253Y-6792484D01*
X770062Y-6592484D02*
X789110Y-6592484D01*
X789110Y-6592484D02*
X808158Y-6602008D01*
X808158Y-6602008D02*
X817682Y-6611531D01*
X817682Y-6611531D02*
X827205Y-6630579D01*
X827205Y-6630579D02*
X836729Y-6668674D01*
X836729Y-6668674D02*
X836729Y-6716293D01*
X836729Y-6716293D02*
X827205Y-6754388D01*
X827205Y-6754388D02*
X817682Y-6773436D01*
X817682Y-6773436D02*
X808158Y-6782960D01*
X808158Y-6782960D02*
X789110Y-6792484D01*
X789110Y-6792484D02*
X770062Y-6792484D01*
X770062Y-6792484D02*
X751015Y-6782960D01*
X751015Y-6782960D02*
X741491Y-6773436D01*
X741491Y-6773436D02*
X731967Y-6754388D01*
X731967Y-6754388D02*
X722443Y-6716293D01*
X722443Y-6716293D02*
X722443Y-6668674D01*
X722443Y-6668674D02*
X731967Y-6630579D01*
X731967Y-6630579D02*
X741491Y-6611531D01*
X741491Y-6611531D02*
X751015Y-6602008D01*
X751015Y-6602008D02*
X770062Y-6592484D01*
X960539Y-6592484D02*
X979586Y-6592484D01*
X979586Y-6592484D02*
X998634Y-6602008D01*
X998634Y-6602008D02*
X1008158Y-6611531D01*
X1008158Y-6611531D02*
X1017682Y-6630579D01*
X1017682Y-6630579D02*
X1027205Y-6668674D01*
X1027205Y-6668674D02*
X1027205Y-6716293D01*
X1027205Y-6716293D02*
X1017682Y-6754388D01*
X1017682Y-6754388D02*
X1008158Y-6773436D01*
X1008158Y-6773436D02*
X998634Y-6782960D01*
X998634Y-6782960D02*
X979586Y-6792484D01*
X979586Y-6792484D02*
X960539Y-6792484D01*
X960539Y-6792484D02*
X941491Y-6782960D01*
X941491Y-6782960D02*
X931967Y-6773436D01*
X931967Y-6773436D02*
X922443Y-6754388D01*
X922443Y-6754388D02*
X912920Y-6716293D01*
X912920Y-6716293D02*
X912920Y-6668674D01*
X912920Y-6668674D02*
X922443Y-6630579D01*
X922443Y-6630579D02*
X931967Y-6611531D01*
X931967Y-6611531D02*
X941491Y-6602008D01*
X941491Y-6602008D02*
X960539Y-6592484D01*
X1112920Y-6792484D02*
X1112920Y-6659150D01*
X1112920Y-6678198D02*
X1122444Y-6668674D01*
X1122444Y-6668674D02*
X1141491Y-6659150D01*
X1141491Y-6659150D02*
X1170063Y-6659150D01*
X1170063Y-6659150D02*
X1189110Y-6668674D01*
X1189110Y-6668674D02*
X1198634Y-6687722D01*
X1198634Y-6687722D02*
X1198634Y-6792484D01*
X1198634Y-6687722D02*
X1208158Y-6668674D01*
X1208158Y-6668674D02*
X1227205Y-6659150D01*
X1227205Y-6659150D02*
X1255777Y-6659150D01*
X1255777Y-6659150D02*
X1274825Y-6668674D01*
X1274825Y-6668674D02*
X1284348Y-6687722D01*
X1284348Y-6687722D02*
X1284348Y-6792484D01*
X1379586Y-6792484D02*
X1379586Y-6659150D01*
X1379586Y-6678198D02*
X1389110Y-6668674D01*
X1389110Y-6668674D02*
X1408158Y-6659150D01*
X1408158Y-6659150D02*
X1436729Y-6659150D01*
X1436729Y-6659150D02*
X1455777Y-6668674D01*
X1455777Y-6668674D02*
X1465301Y-6687722D01*
X1465301Y-6687722D02*
X1465301Y-6792484D01*
X1465301Y-6687722D02*
X1474824Y-6668674D01*
X1474824Y-6668674D02*
X1493872Y-6659150D01*
X1493872Y-6659150D02*
X1522443Y-6659150D01*
X1522443Y-6659150D02*
X1541491Y-6668674D01*
X1541491Y-6668674D02*
X1551015Y-6687722D01*
X1551015Y-6687722D02*
X1551015Y-6792484D01*
X1941491Y-6582960D02*
X1770063Y-6840103D01*
X2198634Y-6592484D02*
X2217682Y-6592484D01*
X2217682Y-6592484D02*
X2236729Y-6602008D01*
X2236729Y-6602008D02*
X2246253Y-6611531D01*
X2246253Y-6611531D02*
X2255777Y-6630579D01*
X2255777Y-6630579D02*
X2265301Y-6668674D01*
X2265301Y-6668674D02*
X2265301Y-6716293D01*
X2265301Y-6716293D02*
X2255777Y-6754388D01*
X2255777Y-6754388D02*
X2246253Y-6773436D01*
X2246253Y-6773436D02*
X2236729Y-6782960D01*
X2236729Y-6782960D02*
X2217682Y-6792484D01*
X2217682Y-6792484D02*
X2198634Y-6792484D01*
X2198634Y-6792484D02*
X2179587Y-6782960D01*
X2179587Y-6782960D02*
X2170063Y-6773436D01*
X2170063Y-6773436D02*
X2160539Y-6754388D01*
X2160539Y-6754388D02*
X2151015Y-6716293D01*
X2151015Y-6716293D02*
X2151015Y-6668674D01*
X2151015Y-6668674D02*
X2160539Y-6630579D01*
X2160539Y-6630579D02*
X2170063Y-6611531D01*
X2170063Y-6611531D02*
X2179587Y-6602008D01*
X2179587Y-6602008D02*
X2198634Y-6592484D01*
X2351015Y-6773436D02*
X2360539Y-6782960D01*
X2360539Y-6782960D02*
X2351015Y-6792484D01*
X2351015Y-6792484D02*
X2341491Y-6782960D01*
X2341491Y-6782960D02*
X2351015Y-6773436D01*
X2351015Y-6773436D02*
X2351015Y-6792484D01*
X2484348Y-6592484D02*
X2503396Y-6592484D01*
X2503396Y-6592484D02*
X2522444Y-6602008D01*
X2522444Y-6602008D02*
X2531968Y-6611531D01*
X2531968Y-6611531D02*
X2541491Y-6630579D01*
X2541491Y-6630579D02*
X2551015Y-6668674D01*
X2551015Y-6668674D02*
X2551015Y-6716293D01*
X2551015Y-6716293D02*
X2541491Y-6754388D01*
X2541491Y-6754388D02*
X2531968Y-6773436D01*
X2531968Y-6773436D02*
X2522444Y-6782960D01*
X2522444Y-6782960D02*
X2503396Y-6792484D01*
X2503396Y-6792484D02*
X2484348Y-6792484D01*
X2484348Y-6792484D02*
X2465301Y-6782960D01*
X2465301Y-6782960D02*
X2455777Y-6773436D01*
X2455777Y-6773436D02*
X2446253Y-6754388D01*
X2446253Y-6754388D02*
X2436729Y-6716293D01*
X2436729Y-6716293D02*
X2436729Y-6668674D01*
X2436729Y-6668674D02*
X2446253Y-6630579D01*
X2446253Y-6630579D02*
X2455777Y-6611531D01*
X2455777Y-6611531D02*
X2465301Y-6602008D01*
X2465301Y-6602008D02*
X2484348Y-6592484D01*
X2665301Y-6678198D02*
X2646253Y-6668674D01*
X2646253Y-6668674D02*
X2636729Y-6659150D01*
X2636729Y-6659150D02*
X2627206Y-6640103D01*
X2627206Y-6640103D02*
X2627206Y-6630579D01*
X2627206Y-6630579D02*
X2636729Y-6611531D01*
X2636729Y-6611531D02*
X2646253Y-6602008D01*
X2646253Y-6602008D02*
X2665301Y-6592484D01*
X2665301Y-6592484D02*
X2703396Y-6592484D01*
X2703396Y-6592484D02*
X2722444Y-6602008D01*
X2722444Y-6602008D02*
X2731968Y-6611531D01*
X2731968Y-6611531D02*
X2741491Y-6630579D01*
X2741491Y-6630579D02*
X2741491Y-6640103D01*
X2741491Y-6640103D02*
X2731968Y-6659150D01*
X2731968Y-6659150D02*
X2722444Y-6668674D01*
X2722444Y-6668674D02*
X2703396Y-6678198D01*
X2703396Y-6678198D02*
X2665301Y-6678198D01*
X2665301Y-6678198D02*
X2646253Y-6687722D01*
X2646253Y-6687722D02*
X2636729Y-6697246D01*
X2636729Y-6697246D02*
X2627206Y-6716293D01*
X2627206Y-6716293D02*
X2627206Y-6754388D01*
X2627206Y-6754388D02*
X2636729Y-6773436D01*
X2636729Y-6773436D02*
X2646253Y-6782960D01*
X2646253Y-6782960D02*
X2665301Y-6792484D01*
X2665301Y-6792484D02*
X2703396Y-6792484D01*
X2703396Y-6792484D02*
X2722444Y-6782960D01*
X2722444Y-6782960D02*
X2731968Y-6773436D01*
X2731968Y-6773436D02*
X2741491Y-6754388D01*
X2741491Y-6754388D02*
X2741491Y-6716293D01*
X2741491Y-6716293D02*
X2731968Y-6697246D01*
X2731968Y-6697246D02*
X2722444Y-6687722D01*
X2722444Y-6687722D02*
X2703396Y-6678198D01*
X2912920Y-6592484D02*
X2874825Y-6592484D01*
X2874825Y-6592484D02*
X2855777Y-6602008D01*
X2855777Y-6602008D02*
X2846253Y-6611531D01*
X2846253Y-6611531D02*
X2827206Y-6640103D01*
X2827206Y-6640103D02*
X2817682Y-6678198D01*
X2817682Y-6678198D02*
X2817682Y-6754388D01*
X2817682Y-6754388D02*
X2827206Y-6773436D01*
X2827206Y-6773436D02*
X2836729Y-6782960D01*
X2836729Y-6782960D02*
X2855777Y-6792484D01*
X2855777Y-6792484D02*
X2893872Y-6792484D01*
X2893872Y-6792484D02*
X2912920Y-6782960D01*
X2912920Y-6782960D02*
X2922444Y-6773436D01*
X2922444Y-6773436D02*
X2931967Y-6754388D01*
X2931967Y-6754388D02*
X2931967Y-6706769D01*
X2931967Y-6706769D02*
X2922444Y-6687722D01*
X2922444Y-6687722D02*
X2912920Y-6678198D01*
X2912920Y-6678198D02*
X2893872Y-6668674D01*
X2893872Y-6668674D02*
X2855777Y-6668674D01*
X2855777Y-6668674D02*
X2836729Y-6678198D01*
X2836729Y-6678198D02*
X2827206Y-6687722D01*
X2827206Y-6687722D02*
X2817682Y-6706769D01*
X3103396Y-6592484D02*
X3065301Y-6592484D01*
X3065301Y-6592484D02*
X3046253Y-6602008D01*
X3046253Y-6602008D02*
X3036729Y-6611531D01*
X3036729Y-6611531D02*
X3017682Y-6640103D01*
X3017682Y-6640103D02*
X3008158Y-6678198D01*
X3008158Y-6678198D02*
X3008158Y-6754388D01*
X3008158Y-6754388D02*
X3017682Y-6773436D01*
X3017682Y-6773436D02*
X3027206Y-6782960D01*
X3027206Y-6782960D02*
X3046253Y-6792484D01*
X3046253Y-6792484D02*
X3084348Y-6792484D01*
X3084348Y-6792484D02*
X3103396Y-6782960D01*
X3103396Y-6782960D02*
X3112920Y-6773436D01*
X3112920Y-6773436D02*
X3122444Y-6754388D01*
X3122444Y-6754388D02*
X3122444Y-6706769D01*
X3122444Y-6706769D02*
X3112920Y-6687722D01*
X3112920Y-6687722D02*
X3103396Y-6678198D01*
X3103396Y-6678198D02*
X3084348Y-6668674D01*
X3084348Y-6668674D02*
X3046253Y-6668674D01*
X3046253Y-6668674D02*
X3027206Y-6678198D01*
X3027206Y-6678198D02*
X3017682Y-6687722D01*
X3017682Y-6687722D02*
X3008158Y-6706769D01*
X3198634Y-6592484D02*
X3198634Y-6630579D01*
X3274825Y-6592484D02*
X3274825Y-6630579D01*
X3570063Y-6868674D02*
X3560539Y-6859150D01*
X3560539Y-6859150D02*
X3541491Y-6830579D01*
X3541491Y-6830579D02*
X3531968Y-6811531D01*
X3531968Y-6811531D02*
X3522444Y-6782960D01*
X3522444Y-6782960D02*
X3512920Y-6735341D01*
X3512920Y-6735341D02*
X3512920Y-6697246D01*
X3512920Y-6697246D02*
X3522444Y-6649627D01*
X3522444Y-6649627D02*
X3531968Y-6621055D01*
X3531968Y-6621055D02*
X3541491Y-6602008D01*
X3541491Y-6602008D02*
X3560539Y-6573436D01*
X3560539Y-6573436D02*
X3570063Y-6563912D01*
X3636729Y-6611531D02*
X3646253Y-6602008D01*
X3646253Y-6602008D02*
X3665301Y-6592484D01*
X3665301Y-6592484D02*
X3712920Y-6592484D01*
X3712920Y-6592484D02*
X3731968Y-6602008D01*
X3731968Y-6602008D02*
X3741491Y-6611531D01*
X3741491Y-6611531D02*
X3751015Y-6630579D01*
X3751015Y-6630579D02*
X3751015Y-6649627D01*
X3751015Y-6649627D02*
X3741491Y-6678198D01*
X3741491Y-6678198D02*
X3627206Y-6792484D01*
X3627206Y-6792484D02*
X3751015Y-6792484D01*
X3989110Y-6792484D02*
X3989110Y-6592484D01*
X4074825Y-6792484D02*
X4074825Y-6687722D01*
X4074825Y-6687722D02*
X4065301Y-6668674D01*
X4065301Y-6668674D02*
X4046253Y-6659150D01*
X4046253Y-6659150D02*
X4017682Y-6659150D01*
X4017682Y-6659150D02*
X3998634Y-6668674D01*
X3998634Y-6668674D02*
X3989110Y-6678198D01*
X4198634Y-6792484D02*
X4179587Y-6782960D01*
X4179587Y-6782960D02*
X4170063Y-6773436D01*
X4170063Y-6773436D02*
X4160539Y-6754388D01*
X4160539Y-6754388D02*
X4160539Y-6697246D01*
X4160539Y-6697246D02*
X4170063Y-6678198D01*
X4170063Y-6678198D02*
X4179587Y-6668674D01*
X4179587Y-6668674D02*
X4198634Y-6659150D01*
X4198634Y-6659150D02*
X4227206Y-6659150D01*
X4227206Y-6659150D02*
X4246253Y-6668674D01*
X4246253Y-6668674D02*
X4255777Y-6678198D01*
X4255777Y-6678198D02*
X4265301Y-6697246D01*
X4265301Y-6697246D02*
X4265301Y-6754388D01*
X4265301Y-6754388D02*
X4255777Y-6773436D01*
X4255777Y-6773436D02*
X4246253Y-6782960D01*
X4246253Y-6782960D02*
X4227206Y-6792484D01*
X4227206Y-6792484D02*
X4198634Y-6792484D01*
X4379587Y-6792484D02*
X4360539Y-6782960D01*
X4360539Y-6782960D02*
X4351015Y-6763912D01*
X4351015Y-6763912D02*
X4351015Y-6592484D01*
X4531968Y-6782960D02*
X4512920Y-6792484D01*
X4512920Y-6792484D02*
X4474825Y-6792484D01*
X4474825Y-6792484D02*
X4455777Y-6782960D01*
X4455777Y-6782960D02*
X4446253Y-6763912D01*
X4446253Y-6763912D02*
X4446253Y-6687722D01*
X4446253Y-6687722D02*
X4455777Y-6668674D01*
X4455777Y-6668674D02*
X4474825Y-6659150D01*
X4474825Y-6659150D02*
X4512920Y-6659150D01*
X4512920Y-6659150D02*
X4531968Y-6668674D01*
X4531968Y-6668674D02*
X4541492Y-6687722D01*
X4541492Y-6687722D02*
X4541492Y-6706769D01*
X4541492Y-6706769D02*
X4446253Y-6725817D01*
X4617682Y-6782960D02*
X4636730Y-6792484D01*
X4636730Y-6792484D02*
X4674825Y-6792484D01*
X4674825Y-6792484D02*
X4693873Y-6782960D01*
X4693873Y-6782960D02*
X4703396Y-6763912D01*
X4703396Y-6763912D02*
X4703396Y-6754388D01*
X4703396Y-6754388D02*
X4693873Y-6735341D01*
X4693873Y-6735341D02*
X4674825Y-6725817D01*
X4674825Y-6725817D02*
X4646253Y-6725817D01*
X4646253Y-6725817D02*
X4627206Y-6716293D01*
X4627206Y-6716293D02*
X4617682Y-6697246D01*
X4617682Y-6697246D02*
X4617682Y-6687722D01*
X4617682Y-6687722D02*
X4627206Y-6668674D01*
X4627206Y-6668674D02*
X4646253Y-6659150D01*
X4646253Y-6659150D02*
X4674825Y-6659150D01*
X4674825Y-6659150D02*
X4693873Y-6668674D01*
X4770063Y-6868674D02*
X4779587Y-6859150D01*
X4779587Y-6859150D02*
X4798634Y-6830579D01*
X4798634Y-6830579D02*
X4808158Y-6811531D01*
X4808158Y-6811531D02*
X4817682Y-6782960D01*
X4817682Y-6782960D02*
X4827206Y-6735341D01*
X4827206Y-6735341D02*
X4827206Y-6697246D01*
X4827206Y-6697246D02*
X4817682Y-6649627D01*
X4817682Y-6649627D02*
X4808158Y-6621055D01*
X4808158Y-6621055D02*
X4798634Y-6602008D01*
X4798634Y-6602008D02*
X4779587Y-6573436D01*
X4779587Y-6573436D02*
X4770063Y-6563912D01*
X5131968Y-6868674D02*
X5122444Y-6859150D01*
X5122444Y-6859150D02*
X5103396Y-6830579D01*
X5103396Y-6830579D02*
X5093873Y-6811531D01*
X5093873Y-6811531D02*
X5084349Y-6782960D01*
X5084349Y-6782960D02*
X5074825Y-6735341D01*
X5074825Y-6735341D02*
X5074825Y-6697246D01*
X5074825Y-6697246D02*
X5084349Y-6649627D01*
X5084349Y-6649627D02*
X5093873Y-6621055D01*
X5093873Y-6621055D02*
X5103396Y-6602008D01*
X5103396Y-6602008D02*
X5122444Y-6573436D01*
X5122444Y-6573436D02*
X5131968Y-6563912D01*
X5208158Y-6659150D02*
X5208158Y-6792484D01*
X5208158Y-6678198D02*
X5217682Y-6668674D01*
X5217682Y-6668674D02*
X5236730Y-6659150D01*
X5236730Y-6659150D02*
X5265301Y-6659150D01*
X5265301Y-6659150D02*
X5284349Y-6668674D01*
X5284349Y-6668674D02*
X5293873Y-6687722D01*
X5293873Y-6687722D02*
X5293873Y-6792484D01*
X5417682Y-6792484D02*
X5398634Y-6782960D01*
X5398634Y-6782960D02*
X5389111Y-6773436D01*
X5389111Y-6773436D02*
X5379587Y-6754388D01*
X5379587Y-6754388D02*
X5379587Y-6697246D01*
X5379587Y-6697246D02*
X5389111Y-6678198D01*
X5389111Y-6678198D02*
X5398634Y-6668674D01*
X5398634Y-6668674D02*
X5417682Y-6659150D01*
X5417682Y-6659150D02*
X5446254Y-6659150D01*
X5446254Y-6659150D02*
X5465301Y-6668674D01*
X5465301Y-6668674D02*
X5474825Y-6678198D01*
X5474825Y-6678198D02*
X5484349Y-6697246D01*
X5484349Y-6697246D02*
X5484349Y-6754388D01*
X5484349Y-6754388D02*
X5474825Y-6773436D01*
X5474825Y-6773436D02*
X5465301Y-6782960D01*
X5465301Y-6782960D02*
X5446254Y-6792484D01*
X5446254Y-6792484D02*
X5417682Y-6792484D01*
X5541492Y-6659150D02*
X5617682Y-6659150D01*
X5570063Y-6592484D02*
X5570063Y-6763912D01*
X5570063Y-6763912D02*
X5579587Y-6782960D01*
X5579587Y-6782960D02*
X5598634Y-6792484D01*
X5598634Y-6792484D02*
X5617682Y-6792484D01*
X5836730Y-6659150D02*
X5836730Y-6859150D01*
X5836730Y-6668674D02*
X5855777Y-6659150D01*
X5855777Y-6659150D02*
X5893873Y-6659150D01*
X5893873Y-6659150D02*
X5912920Y-6668674D01*
X5912920Y-6668674D02*
X5922444Y-6678198D01*
X5922444Y-6678198D02*
X5931968Y-6697246D01*
X5931968Y-6697246D02*
X5931968Y-6754388D01*
X5931968Y-6754388D02*
X5922444Y-6773436D01*
X5922444Y-6773436D02*
X5912920Y-6782960D01*
X5912920Y-6782960D02*
X5893873Y-6792484D01*
X5893873Y-6792484D02*
X5855777Y-6792484D01*
X5855777Y-6792484D02*
X5836730Y-6782960D01*
X6046253Y-6792484D02*
X6027206Y-6782960D01*
X6027206Y-6782960D02*
X6017682Y-6763912D01*
X6017682Y-6763912D02*
X6017682Y-6592484D01*
X6208158Y-6792484D02*
X6208158Y-6687722D01*
X6208158Y-6687722D02*
X6198634Y-6668674D01*
X6198634Y-6668674D02*
X6179587Y-6659150D01*
X6179587Y-6659150D02*
X6141492Y-6659150D01*
X6141492Y-6659150D02*
X6122444Y-6668674D01*
X6208158Y-6782960D02*
X6189111Y-6792484D01*
X6189111Y-6792484D02*
X6141492Y-6792484D01*
X6141492Y-6792484D02*
X6122444Y-6782960D01*
X6122444Y-6782960D02*
X6112920Y-6763912D01*
X6112920Y-6763912D02*
X6112920Y-6744865D01*
X6112920Y-6744865D02*
X6122444Y-6725817D01*
X6122444Y-6725817D02*
X6141492Y-6716293D01*
X6141492Y-6716293D02*
X6189111Y-6716293D01*
X6189111Y-6716293D02*
X6208158Y-6706769D01*
X6274825Y-6659150D02*
X6351015Y-6659150D01*
X6303396Y-6592484D02*
X6303396Y-6763912D01*
X6303396Y-6763912D02*
X6312920Y-6782960D01*
X6312920Y-6782960D02*
X6331968Y-6792484D01*
X6331968Y-6792484D02*
X6351015Y-6792484D01*
X6493873Y-6782960D02*
X6474825Y-6792484D01*
X6474825Y-6792484D02*
X6436730Y-6792484D01*
X6436730Y-6792484D02*
X6417682Y-6782960D01*
X6417682Y-6782960D02*
X6408158Y-6763912D01*
X6408158Y-6763912D02*
X6408158Y-6687722D01*
X6408158Y-6687722D02*
X6417682Y-6668674D01*
X6417682Y-6668674D02*
X6436730Y-6659150D01*
X6436730Y-6659150D02*
X6474825Y-6659150D01*
X6474825Y-6659150D02*
X6493873Y-6668674D01*
X6493873Y-6668674D02*
X6503396Y-6687722D01*
X6503396Y-6687722D02*
X6503396Y-6706769D01*
X6503396Y-6706769D02*
X6408158Y-6725817D01*
X6674825Y-6792484D02*
X6674825Y-6592484D01*
X6674825Y-6782960D02*
X6655777Y-6792484D01*
X6655777Y-6792484D02*
X6617682Y-6792484D01*
X6617682Y-6792484D02*
X6598634Y-6782960D01*
X6598634Y-6782960D02*
X6589111Y-6773436D01*
X6589111Y-6773436D02*
X6579587Y-6754388D01*
X6579587Y-6754388D02*
X6579587Y-6697246D01*
X6579587Y-6697246D02*
X6589111Y-6678198D01*
X6589111Y-6678198D02*
X6598634Y-6668674D01*
X6598634Y-6668674D02*
X6617682Y-6659150D01*
X6617682Y-6659150D02*
X6655777Y-6659150D01*
X6655777Y-6659150D02*
X6674825Y-6668674D01*
X6751015Y-6868674D02*
X6760539Y-6859150D01*
X6760539Y-6859150D02*
X6779587Y-6830579D01*
X6779587Y-6830579D02*
X6789111Y-6811531D01*
X6789111Y-6811531D02*
X6798634Y-6782960D01*
X6798634Y-6782960D02*
X6808158Y-6735341D01*
X6808158Y-6735341D02*
X6808158Y-6697246D01*
X6808158Y-6697246D02*
X6798634Y-6649627D01*
X6798634Y-6649627D02*
X6789111Y-6621055D01*
X6789111Y-6621055D02*
X6779587Y-6602008D01*
X6779587Y-6602008D02*
X6760539Y-6573436D01*
X6760539Y-6573436D02*
X6751015Y-6563912D01*
M02*
