%TF.GenerationSoftware,KiCad,Pcbnew,10.0.3*%
%TF.CreationDate,2026-09-17T15:36:07+09:00*%
%TF.ProjectId,74x00_tile,37347830-305f-4746-996c-652e6b696361,0.1*%
%TF.SameCoordinates,Original*%
%TF.FileFunction,Copper,L1,Top*%
%TF.FilePolarity,Positive*%
%FSLAX46Y46*%
G04 Gerber Fmt 4.6, Leading zero omitted, Abs format (unit mm)*
G04 Created by KiCad (PCBNEW 10.0.3) date 2026-09-17 15:36:07*
%MOMM*%
%LPD*%
G01*
G04 APERTURE LIST*
G04 Aperture macros list*
%AMRoundRect*
0 Rectangle with rounded corners*
0 $1 Rounding radius*
0 $2 $3 $4 $5 $6 $7 $8 $9 X,Y pos of 4 corners*
0 Add a 4 corners polygon primitive as box body*
4,1,4,$2,$3,$4,$5,$6,$7,$8,$9,$2,$3,0*
0 Add four circle primitives for the rounded corners*
1,1,$1+$1,$2,$3*
1,1,$1+$1,$4,$5*
1,1,$1+$1,$6,$7*
1,1,$1+$1,$8,$9*
0 Add four rect primitives between the rounded corners*
20,1,$1+$1,$2,$3,$4,$5,0*
20,1,$1+$1,$4,$5,$6,$7,0*
20,1,$1+$1,$6,$7,$8,$9,0*
20,1,$1+$1,$8,$9,$2,$3,0*%
G04 Aperture macros list end*
%TA.AperFunction,ComponentPad*%
%ADD10RoundRect,0.250000X0.550000X-0.550000X0.550000X0.550000X-0.550000X0.550000X-0.550000X-0.550000X0*%
%TD*%
%TA.AperFunction,ComponentPad*%
%ADD11C,1.600000*%
%TD*%
%TA.AperFunction,SMDPad,CuDef*%
%ADD12RoundRect,0.200000X0.275000X-0.200000X0.275000X0.200000X-0.275000X0.200000X-0.275000X-0.200000X0*%
%TD*%
%TA.AperFunction,SMDPad,CuDef*%
%ADD13RoundRect,0.200000X-0.600000X0.200000X-0.600000X-0.200000X0.600000X-0.200000X0.600000X0.200000X0*%
%TD*%
%TA.AperFunction,SMDPad,CuDef*%
%ADD14RoundRect,0.175000X-0.175000X0.350000X-0.175000X-0.350000X0.175000X-0.350000X0.175000X0.350000X0*%
%TD*%
%TA.AperFunction,SMDPad,CuDef*%
%ADD15RoundRect,0.218750X-0.256250X0.218750X-0.256250X-0.218750X0.256250X-0.218750X0.256250X0.218750X0*%
%TD*%
%TA.AperFunction,SMDPad,CuDef*%
%ADD16RoundRect,0.200000X-0.275000X0.200000X-0.275000X-0.200000X0.275000X-0.200000X0.275000X0.200000X0*%
%TD*%
%TA.AperFunction,SMDPad,CuDef*%
%ADD17RoundRect,0.218750X0.256250X-0.218750X0.256250X0.218750X-0.256250X0.218750X-0.256250X-0.218750X0*%
%TD*%
%TA.AperFunction,SMDPad,CuDef*%
%ADD18RoundRect,0.200000X0.600000X-0.200000X0.600000X0.200000X-0.600000X0.200000X-0.600000X-0.200000X0*%
%TD*%
%TA.AperFunction,SMDPad,CuDef*%
%ADD19RoundRect,0.175000X0.175000X-0.350000X0.175000X0.350000X-0.175000X0.350000X-0.175000X-0.350000X0*%
%TD*%
%TA.AperFunction,SMDPad,CuDef*%
%ADD20RoundRect,0.225000X-0.250000X0.225000X-0.250000X-0.225000X0.250000X-0.225000X0.250000X0.225000X0*%
%TD*%
%TA.AperFunction,ComponentPad*%
%ADD21R,1.700000X1.700000*%
%TD*%
%TA.AperFunction,ComponentPad*%
%ADD22C,1.700000*%
%TD*%
%TA.AperFunction,ViaPad*%
%ADD23C,0.600000*%
%TD*%
%TA.AperFunction,Conductor*%
%ADD24C,0.250000*%
%TD*%
%TA.AperFunction,Conductor*%
%ADD25C,0.300000*%
%TD*%
%TA.AperFunction,Conductor*%
%ADD26C,0.500000*%
%TD*%
G04 APERTURE END LIST*
D10*
%TO.P,U1,1*%
%TO.N,/P1*%
X13570000Y-28810000D03*
D11*
%TO.P,U1,2*%
%TO.N,/P2*%
X16110000Y-28810000D03*
%TO.P,U1,3*%
%TO.N,/P3*%
X18650000Y-28810000D03*
%TO.P,U1,4*%
%TO.N,/P4*%
X21190000Y-28810000D03*
%TO.P,U1,5*%
%TO.N,/P5*%
X23730000Y-28810000D03*
%TO.P,U1,6*%
%TO.N,/P6*%
X26270000Y-28810000D03*
%TO.P,U1,7*%
%TO.N,GND*%
X28810000Y-28810000D03*
%TO.P,U1,8*%
%TO.N,/P8*%
X31350000Y-28810000D03*
%TO.P,U1,9*%
%TO.N,/P9*%
X33890000Y-28810000D03*
%TO.P,U1,10*%
%TO.N,/P10*%
X36430000Y-28810000D03*
%TO.P,U1,11*%
%TO.N,/P11*%
X36430000Y-21190000D03*
%TO.P,U1,12*%
%TO.N,/P12*%
X33890000Y-21190000D03*
%TO.P,U1,13*%
%TO.N,/P13*%
X31350000Y-21190000D03*
%TO.P,U1,14*%
%TO.N,/P14*%
X28810000Y-21190000D03*
%TO.P,U1,15*%
%TO.N,/P15*%
X26270000Y-21190000D03*
%TO.P,U1,16*%
%TO.N,/P16*%
X23730000Y-21190000D03*
%TO.P,U1,17*%
%TO.N,/P17*%
X21190000Y-21190000D03*
%TO.P,U1,18*%
%TO.N,/P18*%
X18650000Y-21190000D03*
%TO.P,U1,19*%
%TO.N,/P19*%
X16110000Y-21190000D03*
%TO.P,U1,20*%
%TO.N,+5V*%
X13570000Y-21190000D03*
%TD*%
D12*
%TO.P,R24,1*%
%TO.N,/SWC4*%
X18100000Y-35625000D03*
%TO.P,R24,2*%
%TO.N,/P4*%
X18100000Y-33975000D03*
%TD*%
D13*
%TO.P,SW12,1*%
%TO.N,+5V*%
X42899999Y-3750000D03*
%TO.P,SW12,2*%
%TO.N,/SWC12*%
X42899999Y-6750000D03*
%TO.P,SW12,3*%
%TO.N,GND*%
X42899999Y-8250000D03*
D14*
%TO.P,SW12,SH*%
%TO.N,N/C*%
X42199999Y-2325000D03*
X39999999Y-2325000D03*
X42199999Y-9675000D03*
X39999999Y-9675000D03*
%TD*%
D15*
%TO.P,D19,1*%
%TO.N,GND*%
X10500000Y-11312500D03*
%TO.P,D19,2*%
%TO.N,/LA19*%
X10500000Y-12887500D03*
%TD*%
D16*
%TO.P,R17,1*%
%TO.N,/LA17*%
X19700000Y-14375000D03*
%TO.P,R17,2*%
%TO.N,/P17*%
X19700000Y-16025000D03*
%TD*%
D12*
%TO.P,R21,1*%
%TO.N,/SWC1*%
X4300000Y-35625000D03*
%TO.P,R21,2*%
%TO.N,/P1*%
X4300000Y-33975000D03*
%TD*%
D15*
%TO.P,D16,1*%
%TO.N,GND*%
X24300000Y-11312500D03*
%TO.P,D16,2*%
%TO.N,/LA16*%
X24300000Y-12887500D03*
%TD*%
D12*
%TO.P,R9,1*%
%TO.N,/LA9*%
X39499999Y-35625000D03*
%TO.P,R9,2*%
%TO.N,/P9*%
X39499999Y-33975000D03*
%TD*%
%TO.P,R2,1*%
%TO.N,/LA2*%
X7300000Y-35625000D03*
%TO.P,R2,2*%
%TO.N,/P2*%
X7300000Y-33975000D03*
%TD*%
D16*
%TO.P,R12,1*%
%TO.N,/LA12*%
X42699999Y-14375000D03*
%TO.P,R12,2*%
%TO.N,/P12*%
X42699999Y-16025000D03*
%TD*%
%TO.P,R18,1*%
%TO.N,/LA18*%
X15100000Y-14375000D03*
%TO.P,R18,2*%
%TO.N,/P18*%
X15100000Y-16025000D03*
%TD*%
%TO.P,R33,1*%
%TO.N,/SWC13*%
X36500000Y-14375000D03*
%TO.P,R33,2*%
%TO.N,/P13*%
X36500000Y-16025000D03*
%TD*%
%TO.P,R19,1*%
%TO.N,/LA19*%
X10500000Y-14375000D03*
%TO.P,R19,2*%
%TO.N,/P19*%
X10500000Y-16025000D03*
%TD*%
D12*
%TO.P,R26,1*%
%TO.N,/SWC6*%
X27300000Y-35625000D03*
%TO.P,R26,2*%
%TO.N,/P6*%
X27300000Y-33975000D03*
%TD*%
D17*
%TO.P,D4,1*%
%TO.N,GND*%
X16500000Y-38687500D03*
%TO.P,D4,2*%
%TO.N,/LA4*%
X16500000Y-37112500D03*
%TD*%
D16*
%TO.P,R11,1*%
%TO.N,/LA11*%
X47300000Y-14375000D03*
%TO.P,R11,2*%
%TO.N,/P11*%
X47300000Y-16025000D03*
%TD*%
D18*
%TO.P,SW9,1*%
%TO.N,+5V*%
X39299999Y-46250000D03*
%TO.P,SW9,2*%
%TO.N,/SWC9*%
X39299999Y-43250000D03*
%TO.P,SW9,3*%
%TO.N,GND*%
X39299999Y-41750000D03*
D19*
%TO.P,SW9,SH*%
%TO.N,N/C*%
X39999999Y-47675000D03*
X42199999Y-47675000D03*
X39999999Y-40325000D03*
X42199999Y-40325000D03*
%TD*%
D15*
%TO.P,D15,1*%
%TO.N,GND*%
X28900000Y-11312500D03*
%TO.P,D15,2*%
%TO.N,/LA15*%
X28900000Y-12887500D03*
%TD*%
D16*
%TO.P,R14,1*%
%TO.N,/LA14*%
X33500000Y-14375000D03*
%TO.P,R14,2*%
%TO.N,/P14*%
X33500000Y-16025000D03*
%TD*%
D12*
%TO.P,R30,1*%
%TO.N,/SWC10*%
X45700000Y-35625000D03*
%TO.P,R30,2*%
%TO.N,/P10*%
X45700000Y-33975000D03*
%TD*%
%TO.P,R1,1*%
%TO.N,/LA1*%
X2700000Y-35625000D03*
%TO.P,R1,2*%
%TO.N,/P1*%
X2700000Y-33975000D03*
%TD*%
D17*
%TO.P,D6,1*%
%TO.N,GND*%
X25700000Y-38687500D03*
%TO.P,D6,2*%
%TO.N,/LA6*%
X25700000Y-37112500D03*
%TD*%
D12*
%TO.P,R29,1*%
%TO.N,/SWC9*%
X41099999Y-35625000D03*
%TO.P,R29,2*%
%TO.N,/P9*%
X41099999Y-33975000D03*
%TD*%
D15*
%TO.P,D12,1*%
%TO.N,GND*%
X42699999Y-11312500D03*
%TO.P,D12,2*%
%TO.N,/LA12*%
X42699999Y-12887500D03*
%TD*%
D20*
%TO.P,C1,1*%
%TO.N,+5V*%
X11200000Y-24225000D03*
%TO.P,C1,2*%
%TO.N,GND*%
X11200000Y-25775000D03*
%TD*%
D16*
%TO.P,R35,1*%
%TO.N,/SWC15*%
X27300000Y-14375000D03*
%TO.P,R35,2*%
%TO.N,/P15*%
X27300000Y-16025000D03*
%TD*%
%TO.P,R15,1*%
%TO.N,/LA15*%
X28900000Y-14375000D03*
%TO.P,R15,2*%
%TO.N,/P15*%
X28900000Y-16025000D03*
%TD*%
%TO.P,R16,1*%
%TO.N,/LA16*%
X24300000Y-14375000D03*
%TO.P,R16,2*%
%TO.N,/P16*%
X24300000Y-16025000D03*
%TD*%
D12*
%TO.P,R5,1*%
%TO.N,/LA5*%
X21099999Y-35625000D03*
%TO.P,R5,2*%
%TO.N,/P5*%
X21099999Y-33975000D03*
%TD*%
%TO.P,R25,1*%
%TO.N,/SWC5*%
X22700000Y-35625000D03*
%TO.P,R25,2*%
%TO.N,/P5*%
X22700000Y-33975000D03*
%TD*%
D15*
%TO.P,D13,1*%
%TO.N,GND*%
X38100000Y-11312500D03*
%TO.P,D13,2*%
%TO.N,/LA13*%
X38100000Y-12887500D03*
%TD*%
D13*
%TO.P,SW13,1*%
%TO.N,+5V*%
X38300000Y-3750000D03*
%TO.P,SW13,2*%
%TO.N,/SWC13*%
X38300000Y-6750000D03*
%TO.P,SW13,3*%
%TO.N,GND*%
X38300000Y-8250000D03*
D14*
%TO.P,SW13,SH*%
%TO.N,N/C*%
X37600000Y-2325000D03*
X35400000Y-2325000D03*
X37600000Y-9675000D03*
X35400000Y-9675000D03*
%TD*%
D17*
%TO.P,D3,1*%
%TO.N,GND*%
X11900000Y-38687500D03*
%TO.P,D3,2*%
%TO.N,/LA3*%
X11900000Y-37112500D03*
%TD*%
D12*
%TO.P,R23,1*%
%TO.N,/SWC3*%
X13500000Y-35625000D03*
%TO.P,R23,2*%
%TO.N,/P3*%
X13500000Y-33975000D03*
%TD*%
%TO.P,R4,1*%
%TO.N,/LA4*%
X16500000Y-35625000D03*
%TO.P,R4,2*%
%TO.N,/P4*%
X16500000Y-33975000D03*
%TD*%
D15*
%TO.P,D18,1*%
%TO.N,GND*%
X15100000Y-11312500D03*
%TO.P,D18,2*%
%TO.N,/LA18*%
X15100000Y-12887500D03*
%TD*%
D13*
%TO.P,SW11,1*%
%TO.N,+5V*%
X47500000Y-3750000D03*
%TO.P,SW11,2*%
%TO.N,/SWC11*%
X47500000Y-6750000D03*
%TO.P,SW11,3*%
%TO.N,GND*%
X47500000Y-8250000D03*
D14*
%TO.P,SW11,SH*%
%TO.N,N/C*%
X46800000Y-2325000D03*
X44600000Y-2325000D03*
X46800000Y-9675000D03*
X44600000Y-9675000D03*
%TD*%
D15*
%TO.P,D14,1*%
%TO.N,GND*%
X33500000Y-11312500D03*
%TO.P,D14,2*%
%TO.N,/LA14*%
X33500000Y-12887500D03*
%TD*%
D16*
%TO.P,R31,1*%
%TO.N,/SWC11*%
X45700000Y-14375000D03*
%TO.P,R31,2*%
%TO.N,/P11*%
X45700000Y-16025000D03*
%TD*%
D18*
%TO.P,SW8,1*%
%TO.N,+5V*%
X34700000Y-46250000D03*
%TO.P,SW8,2*%
%TO.N,/SWC8*%
X34700000Y-43250000D03*
%TO.P,SW8,3*%
%TO.N,GND*%
X34700000Y-41750000D03*
D19*
%TO.P,SW8,SH*%
%TO.N,N/C*%
X35400000Y-47675000D03*
X37600000Y-47675000D03*
X35400000Y-40325000D03*
X37600000Y-40325000D03*
%TD*%
D12*
%TO.P,R3,1*%
%TO.N,/LA3*%
X11900000Y-35625000D03*
%TO.P,R3,2*%
%TO.N,/P3*%
X11900000Y-33975000D03*
%TD*%
D16*
%TO.P,R32,1*%
%TO.N,/SWC12*%
X41099999Y-14375000D03*
%TO.P,R32,2*%
%TO.N,/P12*%
X41099999Y-16025000D03*
%TD*%
D13*
%TO.P,SW14,1*%
%TO.N,+5V*%
X33700000Y-3750000D03*
%TO.P,SW14,2*%
%TO.N,/SWC14*%
X33700000Y-6750000D03*
%TO.P,SW14,3*%
%TO.N,GND*%
X33700000Y-8250000D03*
D14*
%TO.P,SW14,SH*%
%TO.N,N/C*%
X33000000Y-2325000D03*
X30800000Y-2325000D03*
X33000000Y-9675000D03*
X30800000Y-9675000D03*
%TD*%
D18*
%TO.P,SW5,1*%
%TO.N,+5V*%
X20900000Y-46250000D03*
%TO.P,SW5,2*%
%TO.N,/SWC5*%
X20900000Y-43250000D03*
%TO.P,SW5,3*%
%TO.N,GND*%
X20900000Y-41750000D03*
D19*
%TO.P,SW5,SH*%
%TO.N,N/C*%
X21600000Y-47675000D03*
X23800000Y-47675000D03*
X21600000Y-40325000D03*
X23800000Y-40325000D03*
%TD*%
D21*
%TO.P,J1,1*%
%TO.N,+5V*%
X8300000Y-24175000D03*
D22*
%TO.P,J1,2*%
%TO.N,GND*%
X8300000Y-26715000D03*
%TD*%
D15*
%TO.P,D17,1*%
%TO.N,GND*%
X19700000Y-11312500D03*
%TO.P,D17,2*%
%TO.N,/LA17*%
X19700000Y-12887500D03*
%TD*%
D18*
%TO.P,SW2,1*%
%TO.N,+5V*%
X7100000Y-46250000D03*
%TO.P,SW2,2*%
%TO.N,/SWC2*%
X7100000Y-43250000D03*
%TO.P,SW2,3*%
%TO.N,GND*%
X7100000Y-41750000D03*
D19*
%TO.P,SW2,SH*%
%TO.N,N/C*%
X7800000Y-47675000D03*
X10000000Y-47675000D03*
X7800000Y-40325000D03*
X10000000Y-40325000D03*
%TD*%
D13*
%TO.P,SW19,1*%
%TO.N,+5V*%
X10700000Y-3750000D03*
%TO.P,SW19,2*%
%TO.N,/SWC19*%
X10700000Y-6750000D03*
%TO.P,SW19,3*%
%TO.N,GND*%
X10700000Y-8250000D03*
D14*
%TO.P,SW19,SH*%
%TO.N,N/C*%
X10000000Y-2325000D03*
X7800000Y-2325000D03*
X10000000Y-9675000D03*
X7800000Y-9675000D03*
%TD*%
D16*
%TO.P,R39,1*%
%TO.N,/SWC19*%
X8900000Y-14375000D03*
%TO.P,R39,2*%
%TO.N,/P19*%
X8900000Y-16025000D03*
%TD*%
D12*
%TO.P,R6,1*%
%TO.N,/LA6*%
X25700000Y-35625000D03*
%TO.P,R6,2*%
%TO.N,/P6*%
X25700000Y-33975000D03*
%TD*%
%TO.P,R28,1*%
%TO.N,/SWC8*%
X36500000Y-35625000D03*
%TO.P,R28,2*%
%TO.N,/P8*%
X36500000Y-33975000D03*
%TD*%
D17*
%TO.P,D10,1*%
%TO.N,GND*%
X44100000Y-38687500D03*
%TO.P,D10,2*%
%TO.N,/LA10*%
X44100000Y-37112500D03*
%TD*%
%TO.P,D9,1*%
%TO.N,GND*%
X39499999Y-38687500D03*
%TO.P,D9,2*%
%TO.N,/LA9*%
X39499999Y-37112500D03*
%TD*%
D15*
%TO.P,D11,1*%
%TO.N,GND*%
X47300000Y-11312500D03*
%TO.P,D11,2*%
%TO.N,/LA11*%
X47300000Y-12887500D03*
%TD*%
D12*
%TO.P,R8,1*%
%TO.N,/LA8*%
X34900000Y-35625000D03*
%TO.P,R8,2*%
%TO.N,/P8*%
X34900000Y-33975000D03*
%TD*%
D16*
%TO.P,R13,1*%
%TO.N,/LA13*%
X38100000Y-14375000D03*
%TO.P,R13,2*%
%TO.N,/P13*%
X38100000Y-16025000D03*
%TD*%
D18*
%TO.P,SW4,1*%
%TO.N,+5V*%
X16300000Y-46250000D03*
%TO.P,SW4,2*%
%TO.N,/SWC4*%
X16300000Y-43250000D03*
%TO.P,SW4,3*%
%TO.N,GND*%
X16300000Y-41750000D03*
D19*
%TO.P,SW4,SH*%
%TO.N,N/C*%
X17000000Y-47675000D03*
X19200000Y-47675000D03*
X17000000Y-40325000D03*
X19200000Y-40325000D03*
%TD*%
D13*
%TO.P,SW17,1*%
%TO.N,+5V*%
X19900000Y-3750000D03*
%TO.P,SW17,2*%
%TO.N,/SWC17*%
X19900000Y-6750000D03*
%TO.P,SW17,3*%
%TO.N,GND*%
X19900000Y-8250000D03*
D14*
%TO.P,SW17,SH*%
%TO.N,N/C*%
X19200000Y-2325000D03*
X17000000Y-2325000D03*
X19200000Y-9675000D03*
X17000000Y-9675000D03*
%TD*%
D12*
%TO.P,R10,1*%
%TO.N,/LA10*%
X44100000Y-35625000D03*
%TO.P,R10,2*%
%TO.N,/P10*%
X44100000Y-33975000D03*
%TD*%
D17*
%TO.P,D5,1*%
%TO.N,GND*%
X21099999Y-38687500D03*
%TO.P,D5,2*%
%TO.N,/LA5*%
X21099999Y-37112500D03*
%TD*%
D16*
%TO.P,R37,1*%
%TO.N,/SWC17*%
X18100000Y-14375000D03*
%TO.P,R37,2*%
%TO.N,/P17*%
X18100000Y-16025000D03*
%TD*%
D17*
%TO.P,D1,1*%
%TO.N,GND*%
X2700000Y-38687500D03*
%TO.P,D1,2*%
%TO.N,/LA1*%
X2700000Y-37112500D03*
%TD*%
D18*
%TO.P,SW10,1*%
%TO.N,+5V*%
X43900000Y-46250000D03*
%TO.P,SW10,2*%
%TO.N,/SWC10*%
X43900000Y-43250000D03*
%TO.P,SW10,3*%
%TO.N,GND*%
X43900000Y-41750000D03*
D19*
%TO.P,SW10,SH*%
%TO.N,N/C*%
X44600000Y-47675000D03*
X46800000Y-47675000D03*
X44600000Y-40325000D03*
X46800000Y-40325000D03*
%TD*%
D13*
%TO.P,SW18,1*%
%TO.N,+5V*%
X15300000Y-3750000D03*
%TO.P,SW18,2*%
%TO.N,/SWC18*%
X15300000Y-6750000D03*
%TO.P,SW18,3*%
%TO.N,GND*%
X15300000Y-8250000D03*
D14*
%TO.P,SW18,SH*%
%TO.N,N/C*%
X14600000Y-2325000D03*
X12400000Y-2325000D03*
X14600000Y-9675000D03*
X12400000Y-9675000D03*
%TD*%
D16*
%TO.P,R38,1*%
%TO.N,/SWC18*%
X13500000Y-14375000D03*
%TO.P,R38,2*%
%TO.N,/P18*%
X13500000Y-16025000D03*
%TD*%
D13*
%TO.P,SW15,1*%
%TO.N,+5V*%
X29100000Y-3750000D03*
%TO.P,SW15,2*%
%TO.N,/SWC15*%
X29100000Y-6750000D03*
%TO.P,SW15,3*%
%TO.N,GND*%
X29100000Y-8250000D03*
D14*
%TO.P,SW15,SH*%
%TO.N,N/C*%
X28400000Y-2325000D03*
X26200000Y-2325000D03*
X28400000Y-9675000D03*
X26200000Y-9675000D03*
%TD*%
D17*
%TO.P,D8,1*%
%TO.N,GND*%
X34900000Y-38687500D03*
%TO.P,D8,2*%
%TO.N,/LA8*%
X34900000Y-37112500D03*
%TD*%
D13*
%TO.P,SW16,1*%
%TO.N,+5V*%
X24500000Y-3750000D03*
%TO.P,SW16,2*%
%TO.N,/SWC16*%
X24500000Y-6750000D03*
%TO.P,SW16,3*%
%TO.N,GND*%
X24500000Y-8250000D03*
D14*
%TO.P,SW16,SH*%
%TO.N,N/C*%
X23800000Y-2325000D03*
X21600000Y-2325000D03*
X23800000Y-9675000D03*
X21600000Y-9675000D03*
%TD*%
D12*
%TO.P,R22,1*%
%TO.N,/SWC2*%
X8900000Y-35625000D03*
%TO.P,R22,2*%
%TO.N,/P2*%
X8900000Y-33975000D03*
%TD*%
D18*
%TO.P,SW6,1*%
%TO.N,+5V*%
X25500000Y-46250000D03*
%TO.P,SW6,2*%
%TO.N,/SWC6*%
X25500000Y-43250000D03*
%TO.P,SW6,3*%
%TO.N,GND*%
X25500000Y-41750000D03*
D19*
%TO.P,SW6,SH*%
%TO.N,N/C*%
X26200000Y-47675000D03*
X28400000Y-47675000D03*
X26200000Y-40325000D03*
X28400000Y-40325000D03*
%TD*%
D16*
%TO.P,R34,1*%
%TO.N,/SWC14*%
X31900000Y-14375000D03*
%TO.P,R34,2*%
%TO.N,/P14*%
X31900000Y-16025000D03*
%TD*%
D17*
%TO.P,D2,1*%
%TO.N,GND*%
X7300000Y-38687500D03*
%TO.P,D2,2*%
%TO.N,/LA2*%
X7300000Y-37112500D03*
%TD*%
D16*
%TO.P,R36,1*%
%TO.N,/SWC16*%
X22700000Y-14375000D03*
%TO.P,R36,2*%
%TO.N,/P16*%
X22700000Y-16025000D03*
%TD*%
D18*
%TO.P,SW3,1*%
%TO.N,+5V*%
X11700000Y-46250000D03*
%TO.P,SW3,2*%
%TO.N,/SWC3*%
X11700000Y-43250000D03*
%TO.P,SW3,3*%
%TO.N,GND*%
X11700000Y-41750000D03*
D19*
%TO.P,SW3,SH*%
%TO.N,N/C*%
X12400000Y-47675000D03*
X14600000Y-47675000D03*
X12400000Y-40325000D03*
X14600000Y-40325000D03*
%TD*%
D18*
%TO.P,SW1,1*%
%TO.N,+5V*%
X2500000Y-46250000D03*
%TO.P,SW1,2*%
%TO.N,/SWC1*%
X2500000Y-43250000D03*
%TO.P,SW1,3*%
%TO.N,GND*%
X2500000Y-41750000D03*
D19*
%TO.P,SW1,SH*%
%TO.N,N/C*%
X3200000Y-47675000D03*
X5400000Y-47675000D03*
X3200000Y-40325000D03*
X5400000Y-40325000D03*
%TD*%
D23*
%TO.N,GND*%
X43600000Y-40700000D03*
X47800000Y-9300000D03*
X16000000Y-40700000D03*
X6800000Y-40700000D03*
X25200000Y-40700000D03*
X24800000Y-9300000D03*
X34400000Y-40700000D03*
X11000000Y-9300000D03*
X15600000Y-9300000D03*
X38999999Y-40700000D03*
X34000000Y-9300000D03*
X43199999Y-9300000D03*
X2200000Y-40700000D03*
X11200000Y-26775000D03*
X11400000Y-40700000D03*
X20200000Y-9300000D03*
X29400000Y-9300000D03*
X38600000Y-9300000D03*
X20599999Y-40700000D03*
%TD*%
%TO.N,/P1*%
D24*
X4300000Y-33975000D02*
X4300000Y-31000000D01*
X13570000Y-31000000D02*
X13570000Y-28810000D01*
X4300000Y-31000000D02*
X13570000Y-31000000D01*
X2700000Y-33975000D02*
X4300000Y-33975000D01*
%TO.N,/P2*%
X7300000Y-33975000D02*
X8900000Y-33975000D01*
X8900000Y-31500000D02*
X16110000Y-31500000D01*
X16110000Y-31500000D02*
X16110000Y-28810000D01*
X8900000Y-33975000D02*
X8900000Y-31500000D01*
%TO.N,/P3*%
X13500000Y-32000000D02*
X18650000Y-32000000D01*
X11900000Y-33975000D02*
X13500000Y-33975000D01*
X13500000Y-33975000D02*
X13500000Y-32000000D01*
X18650000Y-32000000D02*
X18650000Y-28810000D01*
%TO.N,/P4*%
X18100000Y-33975000D02*
X18100000Y-32500000D01*
X18100000Y-32500000D02*
X21190000Y-32500000D01*
X21190000Y-32500000D02*
X21190000Y-28810000D01*
X16500000Y-33975000D02*
X18100000Y-33975000D01*
%TO.N,/P5*%
X22700000Y-33975000D02*
X22700000Y-33000000D01*
X22700000Y-33000000D02*
X23730000Y-33000000D01*
X23730000Y-33000000D02*
X23730000Y-28810000D01*
X21099999Y-33975000D02*
X22700000Y-33975000D01*
%TO.N,/P6*%
X27300000Y-33000000D02*
X26270000Y-33000000D01*
X26270000Y-33000000D02*
X26270000Y-28810000D01*
X27300000Y-33975000D02*
X27300000Y-33000000D01*
X25700000Y-33975000D02*
X27300000Y-33975000D01*
%TO.N,GND*%
D25*
X20200000Y-9300000D02*
X20200000Y-10812999D01*
X11400000Y-39187000D02*
X11900000Y-38687000D01*
X39300000Y-41750000D02*
X38999999Y-40700000D01*
X20200000Y-10812999D02*
X19700000Y-11312999D01*
X11400000Y-40700000D02*
X11400000Y-39187000D01*
X10700000Y-8250000D02*
X11000000Y-9300000D01*
X42899999Y-8250000D02*
X43199999Y-9300000D01*
X11000000Y-9300000D02*
X11000000Y-10812999D01*
X20900000Y-41750000D02*
X20599999Y-40700000D01*
X16000000Y-39187000D02*
X16500000Y-38687000D01*
X43199999Y-10812999D02*
X42699999Y-11312999D01*
X2500000Y-41750000D02*
X2200000Y-40700000D01*
X11700000Y-41750000D02*
X11400000Y-40700000D01*
X19900000Y-8250000D02*
X20200000Y-9300000D01*
X25500000Y-41750000D02*
X25200000Y-40700000D01*
X47500000Y-8250000D02*
X47800000Y-9300000D01*
X29100000Y-8250000D02*
X29400000Y-9300000D01*
X43600000Y-39187000D02*
X44100000Y-38687000D01*
X2200000Y-39187000D02*
X2700000Y-38687000D01*
X34400000Y-39187000D02*
X34900000Y-38687000D01*
X2200000Y-40700000D02*
X2200000Y-39187000D01*
X38600000Y-10812999D02*
X38100000Y-11312999D01*
X24800000Y-9300000D02*
X24800000Y-10812999D01*
X38300000Y-8250000D02*
X38600000Y-9300000D01*
X38999999Y-40700000D02*
X38999999Y-39187000D01*
X29400000Y-10812999D02*
X28900000Y-11312999D01*
X29400000Y-9300000D02*
X29400000Y-10812999D01*
X15600000Y-9300000D02*
X15600000Y-10812999D01*
X25200000Y-39187000D02*
X25700000Y-38687000D01*
X43199999Y-9300000D02*
X43199999Y-10812999D01*
X38999999Y-39187000D02*
X39499999Y-38687000D01*
X20599999Y-39187000D02*
X21099999Y-38687000D01*
X15300000Y-8250000D02*
X15600000Y-9300000D01*
X38600000Y-9300000D02*
X38600000Y-10812999D01*
X24500000Y-8250000D02*
X24800000Y-9300000D01*
X16000000Y-40700000D02*
X16000000Y-39187000D01*
X47800000Y-10812999D02*
X47300000Y-11312999D01*
X43600000Y-40700000D02*
X43600000Y-39187000D01*
X6800000Y-40700000D02*
X6800000Y-39187000D01*
X24800000Y-10812999D02*
X24300000Y-11312999D01*
X11200000Y-25775000D02*
X11200000Y-26775000D01*
X7100000Y-41750000D02*
X6800000Y-40700000D01*
X34000000Y-9300000D02*
X34000000Y-10812999D01*
X25200000Y-40700000D02*
X25200000Y-39187000D01*
X43900000Y-41750000D02*
X43600000Y-40700000D01*
X20599999Y-40700000D02*
X20599999Y-39187000D01*
X34000000Y-10812999D02*
X33500000Y-11312999D01*
X33699999Y-8250000D02*
X34000000Y-9300000D01*
X16300000Y-41750000D02*
X16000000Y-40700000D01*
X34400000Y-40700000D02*
X34400000Y-39187000D01*
X15600000Y-10812999D02*
X15100000Y-11312999D01*
X11000000Y-10812999D02*
X10500000Y-11312999D01*
X47800000Y-9300000D02*
X47800000Y-10812999D01*
X34700000Y-41750000D02*
X34400000Y-40700000D01*
X6800000Y-39187000D02*
X7300000Y-38687000D01*
%TO.N,/P8*%
D24*
X36500000Y-33975000D02*
X36500000Y-32000000D01*
X34900000Y-33975000D02*
X36500000Y-33975000D01*
X36500000Y-32000000D02*
X31350000Y-32000000D01*
X31350000Y-32000000D02*
X31350000Y-28810000D01*
%TO.N,/P9*%
X33890000Y-31500000D02*
X33890000Y-28810000D01*
X39499999Y-33975000D02*
X41099999Y-33975000D01*
X41099999Y-33975000D02*
X41099999Y-31500000D01*
X41099999Y-31500000D02*
X33890000Y-31500000D01*
%TO.N,/P10*%
X45700000Y-31000000D02*
X36430000Y-31000000D01*
X45700000Y-33975000D02*
X45700000Y-31000000D01*
X36430000Y-31000000D02*
X36430000Y-28810000D01*
X44100000Y-33975000D02*
X45700000Y-33975000D01*
%TO.N,/P11*%
X45700000Y-16024999D02*
X45700000Y-19000000D01*
X36430000Y-19000000D02*
X36430000Y-21190000D01*
X47300000Y-16024999D02*
X45700000Y-16024999D01*
X45700000Y-19000000D02*
X36430000Y-19000000D01*
%TO.N,/P12*%
X33890000Y-18500000D02*
X33890000Y-21190000D01*
X41099999Y-18500000D02*
X33890000Y-18500000D01*
X42699999Y-16024999D02*
X41099999Y-16024999D01*
X41099999Y-16024999D02*
X41099999Y-18500000D01*
%TO.N,/P13*%
X36500000Y-18000000D02*
X31350000Y-18000000D01*
X38100000Y-16024999D02*
X36500000Y-16024999D01*
X36500000Y-16024999D02*
X36500000Y-18000000D01*
X31350000Y-18000000D02*
X31350000Y-21190000D01*
%TO.N,/P14*%
X28810000Y-17500000D02*
X28810000Y-21190000D01*
X33500000Y-16024999D02*
X31900000Y-16024999D01*
X31900000Y-16024999D02*
X31900000Y-17500000D01*
X31900000Y-17500000D02*
X28810000Y-17500000D01*
%TO.N,/P15*%
X26270000Y-17000000D02*
X26270000Y-21190000D01*
X27300000Y-16024999D02*
X27300000Y-17000000D01*
X28900000Y-16024999D02*
X27300000Y-16024999D01*
X27300000Y-17000000D02*
X26270000Y-17000000D01*
%TO.N,/P16*%
X22700000Y-17000000D02*
X23730000Y-17000000D01*
X24300000Y-16024999D02*
X22700000Y-16024999D01*
X22700000Y-16024999D02*
X22700000Y-17000000D01*
X23730000Y-17000000D02*
X23730000Y-21190000D01*
%TO.N,/P17*%
X18100000Y-16024999D02*
X18100000Y-17500000D01*
X19700000Y-16024999D02*
X18100000Y-16024999D01*
X21190000Y-17500000D02*
X21190000Y-21190000D01*
X18100000Y-17500000D02*
X21190000Y-17500000D01*
%TO.N,/P18*%
X15100000Y-16024999D02*
X13500000Y-16024999D01*
X13500000Y-16024999D02*
X13500000Y-18000000D01*
X18650000Y-18000000D02*
X18650000Y-21190000D01*
X13500000Y-18000000D02*
X18650000Y-18000000D01*
%TO.N,/P19*%
X8900000Y-16024999D02*
X8900000Y-18500000D01*
X10500000Y-16024999D02*
X8900000Y-16024999D01*
X8900000Y-18500000D02*
X16110000Y-18500000D01*
X16110000Y-18500000D02*
X16110000Y-21190000D01*
%TO.N,+5V*%
D26*
X20200000Y-3750000D02*
X20200000Y-1000000D01*
X29400000Y-3750000D02*
X29400000Y-1000000D01*
X43199999Y-3750000D02*
X43199999Y-1000000D01*
X5050000Y-24175000D02*
X13570000Y-24175000D01*
X11200000Y-24175000D02*
X11200000Y-24225000D01*
X13570000Y-24175000D02*
X13570000Y-21190000D01*
X1000000Y-24175000D02*
X1950000Y-24175000D01*
X47800000Y-3750000D02*
X47800000Y-1000000D01*
X38999999Y-46250000D02*
X38999999Y-49000000D01*
X19900000Y-3750000D02*
X20200000Y-3750000D01*
X20900000Y-46250000D02*
X20599999Y-46250000D01*
X20599999Y-46250000D02*
X20599999Y-49000000D01*
X47500000Y-1000000D02*
X1000000Y-1000000D01*
X10700000Y-3750000D02*
X11000000Y-3750000D01*
X1000000Y-49000000D02*
X43900000Y-49000000D01*
X16300000Y-46250000D02*
X16000000Y-46250000D01*
X24800000Y-3750000D02*
X24800000Y-1000000D01*
X34700000Y-46250000D02*
X34400000Y-46250000D01*
X5050000Y-22375000D02*
X5050000Y-24175000D01*
X2500000Y-46250000D02*
X2200000Y-46250000D01*
X11400000Y-46250000D02*
X11400000Y-49000000D01*
X16000000Y-46250000D02*
X16000000Y-49000000D01*
X38600000Y-3750000D02*
X38600000Y-1000000D01*
X33699999Y-3750000D02*
X34000000Y-3750000D01*
X7100000Y-46250000D02*
X6800000Y-46250000D01*
X11000000Y-3750000D02*
X11000000Y-1000000D01*
X11700000Y-46250000D02*
X11400000Y-46250000D01*
X42899999Y-3750000D02*
X43199999Y-3750000D01*
X1950000Y-24175000D02*
X1950000Y-22375000D01*
X34000000Y-3750000D02*
X34000000Y-1000000D01*
X2200000Y-46250000D02*
X2200000Y-49000000D01*
X47500000Y-3750000D02*
X47800000Y-3750000D01*
X25200000Y-46250000D02*
X25200000Y-49000000D01*
X15300000Y-3750000D02*
X15600000Y-3750000D01*
X38300000Y-3750000D02*
X38600000Y-3750000D01*
X1000000Y-1000000D02*
X1000000Y-49000000D01*
X43900000Y-46250000D02*
X43600000Y-46250000D01*
X39300000Y-46250000D02*
X38999999Y-46250000D01*
X15600000Y-3750000D02*
X15600000Y-1000000D01*
X24500000Y-3750000D02*
X24800000Y-3750000D01*
X25500000Y-46250000D02*
X25200000Y-46250000D01*
X29100000Y-3750000D02*
X29400000Y-3750000D01*
X34400000Y-46250000D02*
X34400000Y-49000000D01*
X43600000Y-46250000D02*
X43600000Y-49000000D01*
X6800000Y-46250000D02*
X6800000Y-49000000D01*
X1950000Y-22375000D02*
X5050000Y-22375000D01*
%TO.N,/SWC1*%
D24*
X4300000Y-41180000D02*
X4300000Y-35625000D01*
X3480000Y-43350000D02*
X5200000Y-43350000D01*
X2500000Y-43250000D02*
X3480000Y-43250000D01*
X5200000Y-41400000D02*
X4300000Y-41180000D01*
X3480000Y-43250000D02*
X3480000Y-43350000D01*
X5200000Y-43350000D02*
X5200000Y-41400000D01*
%TO.N,/LA1*%
X2700000Y-37113000D02*
X2700000Y-35625000D01*
%TO.N,/SWC2*%
X8900000Y-41180000D02*
X8900000Y-35625000D01*
X9800000Y-43350000D02*
X9800000Y-41400000D01*
X8080000Y-43250000D02*
X8080000Y-43350000D01*
X8080000Y-43350000D02*
X9800000Y-43350000D01*
X9800000Y-41400000D02*
X8900000Y-41180000D01*
X7100000Y-43250000D02*
X8080000Y-43250000D01*
%TO.N,/LA2*%
X7300000Y-37113000D02*
X7300000Y-35625000D01*
%TO.N,/SWC3*%
X14400000Y-43350000D02*
X14400000Y-41400000D01*
X13500000Y-41180000D02*
X13500000Y-35625000D01*
X12680000Y-43250000D02*
X12680000Y-43350000D01*
X14400000Y-41400000D02*
X13500000Y-41180000D01*
X11700000Y-43250000D02*
X12680000Y-43250000D01*
X12680000Y-43350000D02*
X14400000Y-43350000D01*
%TO.N,/LA3*%
X11900000Y-37113000D02*
X11900000Y-35625000D01*
%TO.N,/SWC4*%
X19000000Y-43350000D02*
X19000000Y-41400000D01*
X18100000Y-41180000D02*
X18100000Y-35625000D01*
X16300000Y-43250000D02*
X17280000Y-43250000D01*
X17280000Y-43250000D02*
X17280000Y-43350000D01*
X19000000Y-41400000D02*
X18100000Y-41180000D01*
X17280000Y-43350000D02*
X19000000Y-43350000D01*
%TO.N,/LA4*%
X16500000Y-37113000D02*
X16500000Y-35625000D01*
%TO.N,/SWC5*%
X23599999Y-41400000D02*
X22700000Y-41180000D01*
X22700000Y-41180000D02*
X22700000Y-35625000D01*
X21880000Y-43250000D02*
X21880000Y-43350000D01*
X23599999Y-43350000D02*
X23599999Y-41400000D01*
X20900000Y-43250000D02*
X21880000Y-43250000D01*
X21880000Y-43350000D02*
X23599999Y-43350000D01*
%TO.N,/LA5*%
X21099999Y-37113000D02*
X21099999Y-35625000D01*
%TO.N,/SWC6*%
X25500000Y-43250000D02*
X26480000Y-43250000D01*
X26480000Y-43250000D02*
X26480000Y-43350000D01*
X28200000Y-43350000D02*
X28200000Y-41400000D01*
X27300000Y-41180000D02*
X27300000Y-35625000D01*
X28200000Y-41400000D02*
X27300000Y-41180000D01*
X26480000Y-43350000D02*
X28200000Y-43350000D01*
%TO.N,/LA6*%
X25700000Y-37113000D02*
X25700000Y-35625000D01*
%TO.N,/SWC8*%
X35680000Y-43350000D02*
X37400000Y-43350000D01*
X36500000Y-41180000D02*
X36500000Y-35625000D01*
X34700000Y-43250000D02*
X35680000Y-43250000D01*
X37400000Y-43350000D02*
X37400000Y-41400000D01*
X35680000Y-43250000D02*
X35680000Y-43350000D01*
X37400000Y-41400000D02*
X36500000Y-41180000D01*
%TO.N,/LA8*%
X34900000Y-37113000D02*
X34900000Y-35625000D01*
%TO.N,/SWC9*%
X41099999Y-41180000D02*
X41099999Y-35625000D01*
X41999999Y-41400000D02*
X41099999Y-41180000D01*
X41999999Y-43350000D02*
X41999999Y-41400000D01*
X40279999Y-43250000D02*
X40279999Y-43350000D01*
X39300000Y-43250000D02*
X40279999Y-43250000D01*
X40279999Y-43350000D02*
X41999999Y-43350000D01*
%TO.N,/LA9*%
X39499999Y-37113000D02*
X39499999Y-35625000D01*
%TO.N,/SWC10*%
X44880000Y-43250000D02*
X44880000Y-43350000D01*
X44880000Y-43350000D02*
X46600000Y-43350000D01*
X45700000Y-41180000D02*
X45700000Y-35625000D01*
X46600000Y-41400000D02*
X45700000Y-41180000D01*
X46600000Y-43350000D02*
X46600000Y-41400000D01*
X43900000Y-43250000D02*
X44880000Y-43250000D01*
%TO.N,/LA10*%
X44100000Y-37113000D02*
X44100000Y-35625000D01*
%TO.N,/SWC11*%
X44800000Y-8600000D02*
X45700000Y-8820000D01*
X46520000Y-6750000D02*
X46520000Y-6650000D01*
X47500000Y-6750000D02*
X46520000Y-6750000D01*
X45700000Y-8820000D02*
X45700000Y-14375000D01*
X46520000Y-6650000D02*
X44800000Y-6650000D01*
X44800000Y-6650000D02*
X44800000Y-8600000D01*
%TO.N,/LA11*%
X47300000Y-12887000D02*
X47300000Y-14375000D01*
%TO.N,/SWC12*%
X40199999Y-8600000D02*
X41099999Y-8820000D01*
X42899999Y-6750000D02*
X41919999Y-6750000D01*
X40199999Y-6650000D02*
X40199999Y-8600000D01*
X41919999Y-6750000D02*
X41919999Y-6650000D01*
X41919999Y-6650000D02*
X40199999Y-6650000D01*
X41099999Y-8820000D02*
X41099999Y-14375000D01*
%TO.N,/LA12*%
X42699999Y-12887000D02*
X42699999Y-14375000D01*
%TO.N,/SWC13*%
X37320000Y-6650000D02*
X35600000Y-6650000D01*
X35600000Y-8600000D02*
X36500000Y-8820000D01*
X38300000Y-6750000D02*
X37320000Y-6750000D01*
X35600000Y-6650000D02*
X35600000Y-8600000D01*
X36500000Y-8820000D02*
X36500000Y-14375000D01*
X37320000Y-6750000D02*
X37320000Y-6650000D01*
%TO.N,/LA13*%
X38100000Y-12887000D02*
X38100000Y-14375000D01*
%TO.N,/SWC14*%
X31900000Y-8820000D02*
X31900000Y-14375000D01*
X32720000Y-6750000D02*
X32720000Y-6650000D01*
X32720000Y-6650000D02*
X31000000Y-6650000D01*
X33699999Y-6750000D02*
X32720000Y-6750000D01*
X31000000Y-8600000D02*
X31900000Y-8820000D01*
X31000000Y-6650000D02*
X31000000Y-8600000D01*
%TO.N,/LA14*%
X33500000Y-12887000D02*
X33500000Y-14375000D01*
%TO.N,/SWC15*%
X29100000Y-6750000D02*
X28120000Y-6750000D01*
X27300000Y-8820000D02*
X27300000Y-14375000D01*
X26400000Y-6650000D02*
X26400000Y-8600000D01*
X26400000Y-8600000D02*
X27300000Y-8820000D01*
X28120000Y-6750000D02*
X28120000Y-6650000D01*
X28120000Y-6650000D02*
X26400000Y-6650000D01*
%TO.N,/LA15*%
X28900000Y-12887000D02*
X28900000Y-14375000D01*
%TO.N,/SWC16*%
X24500000Y-6750000D02*
X23520000Y-6750000D01*
X21800000Y-6650000D02*
X21800000Y-8600000D01*
X22700000Y-8820000D02*
X22700000Y-14375000D01*
X23520000Y-6650000D02*
X21800000Y-6650000D01*
X23520000Y-6750000D02*
X23520000Y-6650000D01*
X21800000Y-8600000D02*
X22700000Y-8820000D01*
%TO.N,/LA16*%
X24300000Y-12887000D02*
X24300000Y-14375000D01*
%TO.N,/SWC17*%
X17200000Y-8600000D02*
X18100000Y-8820000D01*
X18100000Y-8820000D02*
X18100000Y-14375000D01*
X18920000Y-6750000D02*
X18920000Y-6650000D01*
X18920000Y-6650000D02*
X17200000Y-6650000D01*
X17200000Y-6650000D02*
X17200000Y-8600000D01*
X19900000Y-6750000D02*
X18920000Y-6750000D01*
%TO.N,/LA17*%
X19700000Y-12887000D02*
X19700000Y-14375000D01*
%TO.N,/SWC18*%
X14320000Y-6750000D02*
X14320000Y-6650000D01*
X12600000Y-6650000D02*
X12600000Y-8600000D01*
X12600000Y-8600000D02*
X13500000Y-8820000D01*
X13500000Y-8820000D02*
X13500000Y-14375000D01*
X14320000Y-6650000D02*
X12600000Y-6650000D01*
X15300000Y-6750000D02*
X14320000Y-6750000D01*
%TO.N,/LA18*%
X15100000Y-12887000D02*
X15100000Y-14375000D01*
%TO.N,/SWC19*%
X8900000Y-8820000D02*
X8900000Y-14375000D01*
X10700000Y-6750000D02*
X9720000Y-6750000D01*
X9720000Y-6750000D02*
X9720000Y-6650000D01*
X8000000Y-6650000D02*
X8000000Y-8600000D01*
X9720000Y-6650000D02*
X8000000Y-6650000D01*
X8000000Y-8600000D02*
X8900000Y-8820000D01*
%TO.N,/LA19*%
X10500000Y-12887000D02*
X10500000Y-14375000D01*
%TD*%
M02*
