%TF.GenerationSoftware,KiCad,Pcbnew,10.0.3*%
%TF.CreationDate,2026-09-17T15:36:08+09:00*%
%TF.ProjectId,74x244_tile,37347832-3434-45f7-9469-6c652e6b6963,0.1*%
%TF.SameCoordinates,Original*%
%TF.FileFunction,Paste,Top*%
%TF.FilePolarity,Positive*%
%FSLAX46Y46*%
G04 Gerber Fmt 4.6, Leading zero omitted, Abs format (unit mm)*
G04 Created by KiCad (PCBNEW 10.0.3) date 2026-09-17 15:36:08*
%MOMM*%
%LPD*%
G01*
G04 APERTURE LIST*
G04 Aperture macros list*
%AMRoundRect*
0 Rectangle with rounded corners*
0 $1 Rounding radius*
0 $2 $3 $4 $5 $6 $7 $8 $9 X,Y pos of 4 corners*
0 Add a 4 corners polygon primitive as box body*
4,1,4,$2,$3,$4,$5,$6,$7,$8,$9,$2,$3,0*
0 Add four circle primitives for the rounded corners*
1,1,$1+$1,$2,$3*
1,1,$1+$1,$4,$5*
1,1,$1+$1,$6,$7*
1,1,$1+$1,$8,$9*
0 Add four rect primitives between the rounded corners*
20,1,$1+$1,$2,$3,$4,$5,0*
20,1,$1+$1,$4,$5,$6,$7,0*
20,1,$1+$1,$6,$7,$8,$9,0*
20,1,$1+$1,$8,$9,$2,$3,0*%
G04 Aperture macros list end*
%ADD10RoundRect,0.200000X-0.275000X0.200000X-0.275000X-0.200000X0.275000X-0.200000X0.275000X0.200000X0*%
%ADD11RoundRect,0.200000X0.275000X-0.200000X0.275000X0.200000X-0.275000X0.200000X-0.275000X-0.200000X0*%
%ADD12RoundRect,0.218750X-0.256250X0.218750X-0.256250X-0.218750X0.256250X-0.218750X0.256250X0.218750X0*%
%ADD13RoundRect,0.200000X0.600000X-0.200000X0.600000X0.200000X-0.600000X0.200000X-0.600000X-0.200000X0*%
%ADD14RoundRect,0.175000X0.175000X-0.350000X0.175000X0.350000X-0.175000X0.350000X-0.175000X-0.350000X0*%
%ADD15RoundRect,0.218750X0.256250X-0.218750X0.256250X0.218750X-0.256250X0.218750X-0.256250X-0.218750X0*%
%ADD16RoundRect,0.200000X-0.600000X0.200000X-0.600000X-0.200000X0.600000X-0.200000X0.600000X0.200000X0*%
%ADD17RoundRect,0.175000X-0.175000X0.350000X-0.175000X-0.350000X0.175000X-0.350000X0.175000X0.350000X0*%
%ADD18RoundRect,0.225000X-0.250000X0.225000X-0.250000X-0.225000X0.250000X-0.225000X0.250000X0.225000X0*%
G04 APERTURE END LIST*
D10*
%TO.C,R16*%
X24300000Y-14375000D03*
X24300000Y-16025000D03*
%TD*%
D11*
%TO.C,R28*%
X36500000Y-35625000D03*
X36500000Y-33975000D03*
%TD*%
%TO.C,R26*%
X27300000Y-35625000D03*
X27300000Y-33975000D03*
%TD*%
D12*
%TO.C,D18*%
X15100000Y-11312500D03*
X15100000Y-12887500D03*
%TD*%
D13*
%TO.C,SW4*%
X16300000Y-46250000D03*
X16300000Y-43250000D03*
X16300000Y-41750000D03*
D14*
X17000000Y-47675000D03*
X19200000Y-47675000D03*
X17000000Y-40325000D03*
X19200000Y-40325000D03*
%TD*%
D10*
%TO.C,R12*%
X42699999Y-14375000D03*
X42699999Y-16025000D03*
%TD*%
D11*
%TO.C,R1*%
X2700000Y-35625000D03*
X2700000Y-33975000D03*
%TD*%
D13*
%TO.C,SW1*%
X2500000Y-46250000D03*
X2500000Y-43250000D03*
X2500000Y-41750000D03*
D14*
X3200000Y-47675000D03*
X5400000Y-47675000D03*
X3200000Y-40325000D03*
X5400000Y-40325000D03*
%TD*%
D11*
%TO.C,R21*%
X4300000Y-35625000D03*
X4300000Y-33975000D03*
%TD*%
D13*
%TO.C,SW9*%
X39299999Y-46250000D03*
X39299999Y-43250000D03*
X39299999Y-41750000D03*
D14*
X39999999Y-47675000D03*
X42199999Y-47675000D03*
X39999999Y-40325000D03*
X42199999Y-40325000D03*
%TD*%
D15*
%TO.C,D7*%
X30299999Y-38687500D03*
X30299999Y-37112500D03*
%TD*%
D10*
%TO.C,R35*%
X27300000Y-14375000D03*
X27300000Y-16025000D03*
%TD*%
D16*
%TO.C,SW11*%
X47500000Y-3750000D03*
X47500000Y-6750000D03*
X47500000Y-8250000D03*
D17*
X46800000Y-2325000D03*
X44600000Y-2325000D03*
X46800000Y-9675000D03*
X44600000Y-9675000D03*
%TD*%
D12*
%TO.C,D13*%
X38100000Y-11312500D03*
X38100000Y-12887500D03*
%TD*%
D11*
%TO.C,R29*%
X41099999Y-35625000D03*
X41099999Y-33975000D03*
%TD*%
D16*
%TO.C,SW17*%
X19900000Y-3750000D03*
X19900000Y-6750000D03*
X19900000Y-8250000D03*
D17*
X19200000Y-2325000D03*
X17000000Y-2325000D03*
X19200000Y-9675000D03*
X17000000Y-9675000D03*
%TD*%
D11*
%TO.C,R27*%
X31900000Y-35625000D03*
X31900000Y-33975000D03*
%TD*%
D15*
%TO.C,D4*%
X16500000Y-38687500D03*
X16500000Y-37112500D03*
%TD*%
D11*
%TO.C,R6*%
X25700000Y-35625000D03*
X25700000Y-33975000D03*
%TD*%
D10*
%TO.C,R31*%
X45700000Y-14375000D03*
X45700000Y-16025000D03*
%TD*%
D12*
%TO.C,D14*%
X33500000Y-11312500D03*
X33500000Y-12887500D03*
%TD*%
D10*
%TO.C,R39*%
X8900000Y-14375000D03*
X8900000Y-16025000D03*
%TD*%
D16*
%TO.C,SW14*%
X33700000Y-3750000D03*
X33700000Y-6750000D03*
X33700000Y-8250000D03*
D17*
X33000000Y-2325000D03*
X30800000Y-2325000D03*
X33000000Y-9675000D03*
X30800000Y-9675000D03*
%TD*%
D16*
%TO.C,SW16*%
X24500000Y-3750000D03*
X24500000Y-6750000D03*
X24500000Y-8250000D03*
D17*
X23800000Y-2325000D03*
X21600000Y-2325000D03*
X23800000Y-9675000D03*
X21600000Y-9675000D03*
%TD*%
D10*
%TO.C,R33*%
X36500000Y-14375000D03*
X36500000Y-16025000D03*
%TD*%
%TO.C,R19*%
X10500000Y-14375000D03*
X10500000Y-16025000D03*
%TD*%
D12*
%TO.C,D17*%
X19700000Y-11312500D03*
X19700000Y-12887500D03*
%TD*%
D15*
%TO.C,D9*%
X39499999Y-38687500D03*
X39499999Y-37112500D03*
%TD*%
D10*
%TO.C,R13*%
X38100000Y-14375000D03*
X38100000Y-16025000D03*
%TD*%
D15*
%TO.C,D6*%
X25700000Y-38687500D03*
X25700000Y-37112500D03*
%TD*%
D12*
%TO.C,D15*%
X28900000Y-11312500D03*
X28900000Y-12887500D03*
%TD*%
D10*
%TO.C,R11*%
X47300000Y-14375000D03*
X47300000Y-16025000D03*
%TD*%
%TO.C,R17*%
X19700000Y-14375000D03*
X19700000Y-16025000D03*
%TD*%
D13*
%TO.C,SW5*%
X20900000Y-46250000D03*
X20900000Y-43250000D03*
X20900000Y-41750000D03*
D14*
X21600000Y-47675000D03*
X23800000Y-47675000D03*
X21600000Y-40325000D03*
X23800000Y-40325000D03*
%TD*%
D10*
%TO.C,R36*%
X22700000Y-14375000D03*
X22700000Y-16025000D03*
%TD*%
D11*
%TO.C,R4*%
X16500000Y-35625000D03*
X16500000Y-33975000D03*
%TD*%
D12*
%TO.C,D19*%
X10500000Y-11312500D03*
X10500000Y-12887500D03*
%TD*%
D16*
%TO.C,SW13*%
X38300000Y-3750000D03*
X38300000Y-6750000D03*
X38300000Y-8250000D03*
D17*
X37600000Y-2325000D03*
X35400000Y-2325000D03*
X37600000Y-9675000D03*
X35400000Y-9675000D03*
%TD*%
D10*
%TO.C,R34*%
X31900000Y-14375000D03*
X31900000Y-16025000D03*
%TD*%
D15*
%TO.C,D8*%
X34900000Y-38687500D03*
X34900000Y-37112500D03*
%TD*%
D11*
%TO.C,R7*%
X30299999Y-35625000D03*
X30299999Y-33975000D03*
%TD*%
D15*
%TO.C,D5*%
X21099999Y-38687500D03*
X21099999Y-37112500D03*
%TD*%
%TO.C,D2*%
X7300000Y-38687500D03*
X7300000Y-37112500D03*
%TD*%
D11*
%TO.C,R2*%
X7300000Y-35625000D03*
X7300000Y-33975000D03*
%TD*%
D13*
%TO.C,SW6*%
X25500000Y-46250000D03*
X25500000Y-43250000D03*
X25500000Y-41750000D03*
D14*
X26200000Y-47675000D03*
X28400000Y-47675000D03*
X26200000Y-40325000D03*
X28400000Y-40325000D03*
%TD*%
D12*
%TO.C,D11*%
X47300000Y-11312500D03*
X47300000Y-12887500D03*
%TD*%
D18*
%TO.C,C1*%
X11200000Y-24225000D03*
X11200000Y-25775000D03*
%TD*%
D13*
%TO.C,SW3*%
X11700000Y-46250000D03*
X11700000Y-43250000D03*
X11700000Y-41750000D03*
D14*
X12400000Y-47675000D03*
X14600000Y-47675000D03*
X12400000Y-40325000D03*
X14600000Y-40325000D03*
%TD*%
D12*
%TO.C,D12*%
X42699999Y-11312500D03*
X42699999Y-12887500D03*
%TD*%
D10*
%TO.C,R38*%
X13500000Y-14375000D03*
X13500000Y-16025000D03*
%TD*%
%TO.C,R18*%
X15100000Y-14375000D03*
X15100000Y-16025000D03*
%TD*%
D11*
%TO.C,R8*%
X34900000Y-35625000D03*
X34900000Y-33975000D03*
%TD*%
D10*
%TO.C,R32*%
X41099999Y-14375000D03*
X41099999Y-16025000D03*
%TD*%
D11*
%TO.C,R22*%
X8900000Y-35625000D03*
X8900000Y-33975000D03*
%TD*%
%TO.C,R25*%
X22700000Y-35625000D03*
X22700000Y-33975000D03*
%TD*%
%TO.C,R23*%
X13500000Y-35625000D03*
X13500000Y-33975000D03*
%TD*%
D10*
%TO.C,R14*%
X33500000Y-14375000D03*
X33500000Y-16025000D03*
%TD*%
D12*
%TO.C,D16*%
X24300000Y-11312500D03*
X24300000Y-12887500D03*
%TD*%
D16*
%TO.C,SW15*%
X29100000Y-3750000D03*
X29100000Y-6750000D03*
X29100000Y-8250000D03*
D17*
X28400000Y-2325000D03*
X26200000Y-2325000D03*
X28400000Y-9675000D03*
X26200000Y-9675000D03*
%TD*%
D16*
%TO.C,SW18*%
X15300000Y-3750000D03*
X15300000Y-6750000D03*
X15300000Y-8250000D03*
D17*
X14600000Y-2325000D03*
X12400000Y-2325000D03*
X14600000Y-9675000D03*
X12400000Y-9675000D03*
%TD*%
D11*
%TO.C,R3*%
X11900000Y-35625000D03*
X11900000Y-33975000D03*
%TD*%
D15*
%TO.C,D1*%
X2700000Y-38687500D03*
X2700000Y-37112500D03*
%TD*%
D10*
%TO.C,R37*%
X18100000Y-14375000D03*
X18100000Y-16025000D03*
%TD*%
D13*
%TO.C,SW2*%
X7100000Y-46250000D03*
X7100000Y-43250000D03*
X7100000Y-41750000D03*
D14*
X7800000Y-47675000D03*
X10000000Y-47675000D03*
X7800000Y-40325000D03*
X10000000Y-40325000D03*
%TD*%
D10*
%TO.C,R15*%
X28900000Y-14375000D03*
X28900000Y-16025000D03*
%TD*%
D11*
%TO.C,R5*%
X21099999Y-35625000D03*
X21099999Y-33975000D03*
%TD*%
D13*
%TO.C,SW8*%
X34700000Y-46250000D03*
X34700000Y-43250000D03*
X34700000Y-41750000D03*
D14*
X35400000Y-47675000D03*
X37600000Y-47675000D03*
X35400000Y-40325000D03*
X37600000Y-40325000D03*
%TD*%
D11*
%TO.C,R24*%
X18100000Y-35625000D03*
X18100000Y-33975000D03*
%TD*%
%TO.C,R9*%
X39499999Y-35625000D03*
X39499999Y-33975000D03*
%TD*%
D16*
%TO.C,SW19*%
X10700000Y-3750000D03*
X10700000Y-6750000D03*
X10700000Y-8250000D03*
D17*
X10000000Y-2325000D03*
X7800000Y-2325000D03*
X10000000Y-9675000D03*
X7800000Y-9675000D03*
%TD*%
D15*
%TO.C,D3*%
X11900000Y-38687500D03*
X11900000Y-37112500D03*
%TD*%
D13*
%TO.C,SW7*%
X30100000Y-46250000D03*
X30100000Y-43250000D03*
X30100000Y-41750000D03*
D14*
X30800000Y-47675000D03*
X33000000Y-47675000D03*
X30800000Y-40325000D03*
X33000000Y-40325000D03*
%TD*%
D16*
%TO.C,SW12*%
X42899999Y-3750000D03*
X42899999Y-6750000D03*
X42899999Y-8250000D03*
D17*
X42199999Y-2325000D03*
X39999999Y-2325000D03*
X42199999Y-9675000D03*
X39999999Y-9675000D03*
%TD*%
M02*
