%TF.GenerationSoftware,KiCad,Pcbnew,10.0.3*%
%TF.CreationDate,2026-09-17T15:36:08+09:00*%
%TF.ProjectId,74x244_tile,37347832-3434-45f7-9469-6c652e6b6963,0.1*%
%TF.SameCoordinates,Original*%
%TF.FileFunction,Legend,Top*%
%TF.FilePolarity,Positive*%
%FSLAX46Y46*%
G04 Gerber Fmt 4.6, Leading zero omitted, Abs format (unit mm)*
G04 Created by KiCad (PCBNEW 10.0.3) date 2026-09-17 15:36:08*
%MOMM*%
%LPD*%
G01*
G04 APERTURE LIST*
%ADD10C,0.150000*%
%ADD11C,0.120000*%
G04 APERTURE END LIST*
D10*
X39041541Y-22562295D02*
X39193922Y-22562295D01*
X39193922Y-22562295D02*
X39270112Y-22600390D01*
X39270112Y-22600390D02*
X39346303Y-22676580D01*
X39346303Y-22676580D02*
X39384398Y-22828961D01*
X39384398Y-22828961D02*
X39384398Y-23095628D01*
X39384398Y-23095628D02*
X39346303Y-23248009D01*
X39346303Y-23248009D02*
X39270112Y-23324200D01*
X39270112Y-23324200D02*
X39193922Y-23362295D01*
X39193922Y-23362295D02*
X39041541Y-23362295D01*
X39041541Y-23362295D02*
X38965350Y-23324200D01*
X38965350Y-23324200D02*
X38889160Y-23248009D01*
X38889160Y-23248009D02*
X38851064Y-23095628D01*
X38851064Y-23095628D02*
X38851064Y-22828961D01*
X38851064Y-22828961D02*
X38889160Y-22676580D01*
X38889160Y-22676580D02*
X38965350Y-22600390D01*
X38965350Y-22600390D02*
X39041541Y-22562295D01*
X40070112Y-23324200D02*
X39993921Y-23362295D01*
X39993921Y-23362295D02*
X39841540Y-23362295D01*
X39841540Y-23362295D02*
X39765350Y-23324200D01*
X39765350Y-23324200D02*
X39727255Y-23286104D01*
X39727255Y-23286104D02*
X39689159Y-23209914D01*
X39689159Y-23209914D02*
X39689159Y-22981342D01*
X39689159Y-22981342D02*
X39727255Y-22905152D01*
X39727255Y-22905152D02*
X39765350Y-22867057D01*
X39765350Y-22867057D02*
X39841540Y-22828961D01*
X39841540Y-22828961D02*
X39993921Y-22828961D01*
X39993921Y-22828961D02*
X40070112Y-22867057D01*
X40298683Y-22828961D02*
X40603445Y-22828961D01*
X40412969Y-22562295D02*
X40412969Y-23248009D01*
X40412969Y-23248009D02*
X40451064Y-23324200D01*
X40451064Y-23324200D02*
X40527254Y-23362295D01*
X40527254Y-23362295D02*
X40603445Y-23362295D01*
X41212969Y-23362295D02*
X41212969Y-22943247D01*
X41212969Y-22943247D02*
X41174874Y-22867057D01*
X41174874Y-22867057D02*
X41098683Y-22828961D01*
X41098683Y-22828961D02*
X40946302Y-22828961D01*
X40946302Y-22828961D02*
X40870112Y-22867057D01*
X41212969Y-23324200D02*
X41136778Y-23362295D01*
X41136778Y-23362295D02*
X40946302Y-23362295D01*
X40946302Y-23362295D02*
X40870112Y-23324200D01*
X40870112Y-23324200D02*
X40832016Y-23248009D01*
X40832016Y-23248009D02*
X40832016Y-23171819D01*
X40832016Y-23171819D02*
X40870112Y-23095628D01*
X40870112Y-23095628D02*
X40946302Y-23057533D01*
X40946302Y-23057533D02*
X41136778Y-23057533D01*
X41136778Y-23057533D02*
X41212969Y-23019438D01*
X41708207Y-23362295D02*
X41632017Y-23324200D01*
X41632017Y-23324200D02*
X41593922Y-23248009D01*
X41593922Y-23248009D02*
X41593922Y-22562295D01*
X38889160Y-24562295D02*
X38889160Y-23762295D01*
X38889160Y-24067057D02*
X38965350Y-24028961D01*
X38965350Y-24028961D02*
X39117731Y-24028961D01*
X39117731Y-24028961D02*
X39193922Y-24067057D01*
X39193922Y-24067057D02*
X39232017Y-24105152D01*
X39232017Y-24105152D02*
X39270112Y-24181342D01*
X39270112Y-24181342D02*
X39270112Y-24409914D01*
X39270112Y-24409914D02*
X39232017Y-24486104D01*
X39232017Y-24486104D02*
X39193922Y-24524200D01*
X39193922Y-24524200D02*
X39117731Y-24562295D01*
X39117731Y-24562295D02*
X38965350Y-24562295D01*
X38965350Y-24562295D02*
X38889160Y-24524200D01*
X39955827Y-24028961D02*
X39955827Y-24562295D01*
X39612970Y-24028961D02*
X39612970Y-24448009D01*
X39612970Y-24448009D02*
X39651065Y-24524200D01*
X39651065Y-24524200D02*
X39727255Y-24562295D01*
X39727255Y-24562295D02*
X39841541Y-24562295D01*
X39841541Y-24562295D02*
X39917732Y-24524200D01*
X39917732Y-24524200D02*
X39955827Y-24486104D01*
X40222494Y-24028961D02*
X40527256Y-24028961D01*
X40336780Y-24562295D02*
X40336780Y-23876580D01*
X40336780Y-23876580D02*
X40374875Y-23800390D01*
X40374875Y-23800390D02*
X40451065Y-23762295D01*
X40451065Y-23762295D02*
X40527256Y-23762295D01*
X40679637Y-24028961D02*
X40984399Y-24028961D01*
X40793923Y-24562295D02*
X40793923Y-23876580D01*
X40793923Y-23876580D02*
X40832018Y-23800390D01*
X40832018Y-23800390D02*
X40908208Y-23762295D01*
X40908208Y-23762295D02*
X40984399Y-23762295D01*
X41555828Y-24524200D02*
X41479637Y-24562295D01*
X41479637Y-24562295D02*
X41327256Y-24562295D01*
X41327256Y-24562295D02*
X41251066Y-24524200D01*
X41251066Y-24524200D02*
X41212970Y-24448009D01*
X41212970Y-24448009D02*
X41212970Y-24143247D01*
X41212970Y-24143247D02*
X41251066Y-24067057D01*
X41251066Y-24067057D02*
X41327256Y-24028961D01*
X41327256Y-24028961D02*
X41479637Y-24028961D01*
X41479637Y-24028961D02*
X41555828Y-24067057D01*
X41555828Y-24067057D02*
X41593923Y-24143247D01*
X41593923Y-24143247D02*
X41593923Y-24219438D01*
X41593923Y-24219438D02*
X41212970Y-24295628D01*
X41936780Y-24562295D02*
X41936780Y-24028961D01*
X41936780Y-24181342D02*
X41974875Y-24105152D01*
X41974875Y-24105152D02*
X42012970Y-24067057D01*
X42012970Y-24067057D02*
X42089161Y-24028961D01*
X42089161Y-24028961D02*
X42165351Y-24028961D01*
X43003446Y-23724200D02*
X42317732Y-24752771D01*
X43384398Y-24562295D02*
X43308208Y-24524200D01*
X43308208Y-24524200D02*
X43270113Y-24448009D01*
X43270113Y-24448009D02*
X43270113Y-23762295D01*
X43689161Y-24562295D02*
X43689161Y-24028961D01*
X43689161Y-23762295D02*
X43651065Y-23800390D01*
X43651065Y-23800390D02*
X43689161Y-23838485D01*
X43689161Y-23838485D02*
X43727256Y-23800390D01*
X43727256Y-23800390D02*
X43689161Y-23762295D01*
X43689161Y-23762295D02*
X43689161Y-23838485D01*
X44070113Y-24028961D02*
X44070113Y-24562295D01*
X44070113Y-24105152D02*
X44108208Y-24067057D01*
X44108208Y-24067057D02*
X44184398Y-24028961D01*
X44184398Y-24028961D02*
X44298684Y-24028961D01*
X44298684Y-24028961D02*
X44374875Y-24067057D01*
X44374875Y-24067057D02*
X44412970Y-24143247D01*
X44412970Y-24143247D02*
X44412970Y-24562295D01*
X45098685Y-24524200D02*
X45022494Y-24562295D01*
X45022494Y-24562295D02*
X44870113Y-24562295D01*
X44870113Y-24562295D02*
X44793923Y-24524200D01*
X44793923Y-24524200D02*
X44755827Y-24448009D01*
X44755827Y-24448009D02*
X44755827Y-24143247D01*
X44755827Y-24143247D02*
X44793923Y-24067057D01*
X44793923Y-24067057D02*
X44870113Y-24028961D01*
X44870113Y-24028961D02*
X45022494Y-24028961D01*
X45022494Y-24028961D02*
X45098685Y-24067057D01*
X45098685Y-24067057D02*
X45136780Y-24143247D01*
X45136780Y-24143247D02*
X45136780Y-24219438D01*
X45136780Y-24219438D02*
X44755827Y-24295628D01*
X39232017Y-25762295D02*
X39232017Y-24962295D01*
X39232017Y-25724200D02*
X39155826Y-25762295D01*
X39155826Y-25762295D02*
X39003445Y-25762295D01*
X39003445Y-25762295D02*
X38927255Y-25724200D01*
X38927255Y-25724200D02*
X38889160Y-25686104D01*
X38889160Y-25686104D02*
X38851064Y-25609914D01*
X38851064Y-25609914D02*
X38851064Y-25381342D01*
X38851064Y-25381342D02*
X38889160Y-25305152D01*
X38889160Y-25305152D02*
X38927255Y-25267057D01*
X38927255Y-25267057D02*
X39003445Y-25228961D01*
X39003445Y-25228961D02*
X39155826Y-25228961D01*
X39155826Y-25228961D02*
X39232017Y-25267057D01*
X39612970Y-25762295D02*
X39612970Y-25228961D01*
X39612970Y-25381342D02*
X39651065Y-25305152D01*
X39651065Y-25305152D02*
X39689160Y-25267057D01*
X39689160Y-25267057D02*
X39765351Y-25228961D01*
X39765351Y-25228961D02*
X39841541Y-25228961D01*
X40108208Y-25762295D02*
X40108208Y-25228961D01*
X40108208Y-24962295D02*
X40070112Y-25000390D01*
X40070112Y-25000390D02*
X40108208Y-25038485D01*
X40108208Y-25038485D02*
X40146303Y-25000390D01*
X40146303Y-25000390D02*
X40108208Y-24962295D01*
X40108208Y-24962295D02*
X40108208Y-25038485D01*
X40412969Y-25228961D02*
X40603445Y-25762295D01*
X40603445Y-25762295D02*
X40793922Y-25228961D01*
X41403446Y-25724200D02*
X41327255Y-25762295D01*
X41327255Y-25762295D02*
X41174874Y-25762295D01*
X41174874Y-25762295D02*
X41098684Y-25724200D01*
X41098684Y-25724200D02*
X41060588Y-25648009D01*
X41060588Y-25648009D02*
X41060588Y-25343247D01*
X41060588Y-25343247D02*
X41098684Y-25267057D01*
X41098684Y-25267057D02*
X41174874Y-25228961D01*
X41174874Y-25228961D02*
X41327255Y-25228961D01*
X41327255Y-25228961D02*
X41403446Y-25267057D01*
X41403446Y-25267057D02*
X41441541Y-25343247D01*
X41441541Y-25343247D02*
X41441541Y-25419438D01*
X41441541Y-25419438D02*
X41060588Y-25495628D01*
X41784398Y-25762295D02*
X41784398Y-25228961D01*
X41784398Y-25381342D02*
X41822493Y-25305152D01*
X41822493Y-25305152D02*
X41860588Y-25267057D01*
X41860588Y-25267057D02*
X41936779Y-25228961D01*
X41936779Y-25228961D02*
X42012969Y-25228961D01*
X42317731Y-25724200D02*
X42317731Y-25762295D01*
X42317731Y-25762295D02*
X42279636Y-25838485D01*
X42279636Y-25838485D02*
X42241540Y-25876580D01*
X43270112Y-25228961D02*
X43270112Y-25762295D01*
X43270112Y-25305152D02*
X43308207Y-25267057D01*
X43308207Y-25267057D02*
X43384397Y-25228961D01*
X43384397Y-25228961D02*
X43498683Y-25228961D01*
X43498683Y-25228961D02*
X43574874Y-25267057D01*
X43574874Y-25267057D02*
X43612969Y-25343247D01*
X43612969Y-25343247D02*
X43612969Y-25762295D01*
X44108207Y-25762295D02*
X44032017Y-25724200D01*
X44032017Y-25724200D02*
X43993922Y-25686104D01*
X43993922Y-25686104D02*
X43955826Y-25609914D01*
X43955826Y-25609914D02*
X43955826Y-25381342D01*
X43955826Y-25381342D02*
X43993922Y-25305152D01*
X43993922Y-25305152D02*
X44032017Y-25267057D01*
X44032017Y-25267057D02*
X44108207Y-25228961D01*
X44108207Y-25228961D02*
X44222493Y-25228961D01*
X44222493Y-25228961D02*
X44298684Y-25267057D01*
X44298684Y-25267057D02*
X44336779Y-25305152D01*
X44336779Y-25305152D02*
X44374874Y-25381342D01*
X44374874Y-25381342D02*
X44374874Y-25609914D01*
X44374874Y-25609914D02*
X44336779Y-25686104D01*
X44336779Y-25686104D02*
X44298684Y-25724200D01*
X44298684Y-25724200D02*
X44222493Y-25762295D01*
X44222493Y-25762295D02*
X44108207Y-25762295D01*
X44717732Y-25228961D02*
X44717732Y-25762295D01*
X44717732Y-25305152D02*
X44755827Y-25267057D01*
X44755827Y-25267057D02*
X44832017Y-25228961D01*
X44832017Y-25228961D02*
X44946303Y-25228961D01*
X44946303Y-25228961D02*
X45022494Y-25267057D01*
X45022494Y-25267057D02*
X45060589Y-25343247D01*
X45060589Y-25343247D02*
X45060589Y-25762295D01*
X45441542Y-25457533D02*
X46051066Y-25457533D01*
X38889160Y-26962295D02*
X38889160Y-26428961D01*
X38889160Y-26162295D02*
X38851064Y-26200390D01*
X38851064Y-26200390D02*
X38889160Y-26238485D01*
X38889160Y-26238485D02*
X38927255Y-26200390D01*
X38927255Y-26200390D02*
X38889160Y-26162295D01*
X38889160Y-26162295D02*
X38889160Y-26238485D01*
X39270112Y-26428961D02*
X39270112Y-26962295D01*
X39270112Y-26505152D02*
X39308207Y-26467057D01*
X39308207Y-26467057D02*
X39384397Y-26428961D01*
X39384397Y-26428961D02*
X39498683Y-26428961D01*
X39498683Y-26428961D02*
X39574874Y-26467057D01*
X39574874Y-26467057D02*
X39612969Y-26543247D01*
X39612969Y-26543247D02*
X39612969Y-26962295D01*
X39917731Y-26428961D02*
X40108207Y-26962295D01*
X40108207Y-26962295D02*
X40298684Y-26428961D01*
X40908208Y-26924200D02*
X40832017Y-26962295D01*
X40832017Y-26962295D02*
X40679636Y-26962295D01*
X40679636Y-26962295D02*
X40603446Y-26924200D01*
X40603446Y-26924200D02*
X40565350Y-26848009D01*
X40565350Y-26848009D02*
X40565350Y-26543247D01*
X40565350Y-26543247D02*
X40603446Y-26467057D01*
X40603446Y-26467057D02*
X40679636Y-26428961D01*
X40679636Y-26428961D02*
X40832017Y-26428961D01*
X40832017Y-26428961D02*
X40908208Y-26467057D01*
X40908208Y-26467057D02*
X40946303Y-26543247D01*
X40946303Y-26543247D02*
X40946303Y-26619438D01*
X40946303Y-26619438D02*
X40565350Y-26695628D01*
X41289160Y-26962295D02*
X41289160Y-26428961D01*
X41289160Y-26581342D02*
X41327255Y-26505152D01*
X41327255Y-26505152D02*
X41365350Y-26467057D01*
X41365350Y-26467057D02*
X41441541Y-26428961D01*
X41441541Y-26428961D02*
X41517731Y-26428961D01*
X41670112Y-26428961D02*
X41974874Y-26428961D01*
X41784398Y-26162295D02*
X41784398Y-26848009D01*
X41784398Y-26848009D02*
X41822493Y-26924200D01*
X41822493Y-26924200D02*
X41898683Y-26962295D01*
X41898683Y-26962295D02*
X41974874Y-26962295D01*
X42241541Y-26962295D02*
X42241541Y-26428961D01*
X42241541Y-26162295D02*
X42203445Y-26200390D01*
X42203445Y-26200390D02*
X42241541Y-26238485D01*
X42241541Y-26238485D02*
X42279636Y-26200390D01*
X42279636Y-26200390D02*
X42241541Y-26162295D01*
X42241541Y-26162295D02*
X42241541Y-26238485D01*
X42622493Y-26428961D02*
X42622493Y-26962295D01*
X42622493Y-26505152D02*
X42660588Y-26467057D01*
X42660588Y-26467057D02*
X42736778Y-26428961D01*
X42736778Y-26428961D02*
X42851064Y-26428961D01*
X42851064Y-26428961D02*
X42927255Y-26467057D01*
X42927255Y-26467057D02*
X42965350Y-26543247D01*
X42965350Y-26543247D02*
X42965350Y-26962295D01*
X43689160Y-26428961D02*
X43689160Y-27076580D01*
X43689160Y-27076580D02*
X43651065Y-27152771D01*
X43651065Y-27152771D02*
X43612969Y-27190866D01*
X43612969Y-27190866D02*
X43536779Y-27228961D01*
X43536779Y-27228961D02*
X43422493Y-27228961D01*
X43422493Y-27228961D02*
X43346303Y-27190866D01*
X43689160Y-26924200D02*
X43612969Y-26962295D01*
X43612969Y-26962295D02*
X43460588Y-26962295D01*
X43460588Y-26962295D02*
X43384398Y-26924200D01*
X43384398Y-26924200D02*
X43346303Y-26886104D01*
X43346303Y-26886104D02*
X43308207Y-26809914D01*
X43308207Y-26809914D02*
X43308207Y-26581342D01*
X43308207Y-26581342D02*
X43346303Y-26505152D01*
X43346303Y-26505152D02*
X43384398Y-26467057D01*
X43384398Y-26467057D02*
X43460588Y-26428961D01*
X43460588Y-26428961D02*
X43612969Y-26428961D01*
X43612969Y-26428961D02*
X43689160Y-26467057D01*
X44108208Y-26924200D02*
X44108208Y-26962295D01*
X44108208Y-26962295D02*
X44070113Y-27038485D01*
X44070113Y-27038485D02*
X44032017Y-27076580D01*
X38812969Y-27362295D02*
X39308207Y-27362295D01*
X39308207Y-27362295D02*
X39041541Y-27667057D01*
X39041541Y-27667057D02*
X39155826Y-27667057D01*
X39155826Y-27667057D02*
X39232017Y-27705152D01*
X39232017Y-27705152D02*
X39270112Y-27743247D01*
X39270112Y-27743247D02*
X39308207Y-27819438D01*
X39308207Y-27819438D02*
X39308207Y-28009914D01*
X39308207Y-28009914D02*
X39270112Y-28086104D01*
X39270112Y-28086104D02*
X39232017Y-28124200D01*
X39232017Y-28124200D02*
X39155826Y-28162295D01*
X39155826Y-28162295D02*
X38927255Y-28162295D01*
X38927255Y-28162295D02*
X38851064Y-28124200D01*
X38851064Y-28124200D02*
X38812969Y-28086104D01*
X39651065Y-27857533D02*
X40260589Y-27857533D01*
X40603445Y-28124200D02*
X40679636Y-28162295D01*
X40679636Y-28162295D02*
X40832017Y-28162295D01*
X40832017Y-28162295D02*
X40908207Y-28124200D01*
X40908207Y-28124200D02*
X40946303Y-28048009D01*
X40946303Y-28048009D02*
X40946303Y-28009914D01*
X40946303Y-28009914D02*
X40908207Y-27933723D01*
X40908207Y-27933723D02*
X40832017Y-27895628D01*
X40832017Y-27895628D02*
X40717731Y-27895628D01*
X40717731Y-27895628D02*
X40641541Y-27857533D01*
X40641541Y-27857533D02*
X40603445Y-27781342D01*
X40603445Y-27781342D02*
X40603445Y-27743247D01*
X40603445Y-27743247D02*
X40641541Y-27667057D01*
X40641541Y-27667057D02*
X40717731Y-27628961D01*
X40717731Y-27628961D02*
X40832017Y-27628961D01*
X40832017Y-27628961D02*
X40908207Y-27667057D01*
X41174874Y-27628961D02*
X41479636Y-27628961D01*
X41289160Y-27362295D02*
X41289160Y-28048009D01*
X41289160Y-28048009D02*
X41327255Y-28124200D01*
X41327255Y-28124200D02*
X41403445Y-28162295D01*
X41403445Y-28162295D02*
X41479636Y-28162295D01*
X42089160Y-28162295D02*
X42089160Y-27743247D01*
X42089160Y-27743247D02*
X42051065Y-27667057D01*
X42051065Y-27667057D02*
X41974874Y-27628961D01*
X41974874Y-27628961D02*
X41822493Y-27628961D01*
X41822493Y-27628961D02*
X41746303Y-27667057D01*
X42089160Y-28124200D02*
X42012969Y-28162295D01*
X42012969Y-28162295D02*
X41822493Y-28162295D01*
X41822493Y-28162295D02*
X41746303Y-28124200D01*
X41746303Y-28124200D02*
X41708207Y-28048009D01*
X41708207Y-28048009D02*
X41708207Y-27971819D01*
X41708207Y-27971819D02*
X41746303Y-27895628D01*
X41746303Y-27895628D02*
X41822493Y-27857533D01*
X41822493Y-27857533D02*
X42012969Y-27857533D01*
X42012969Y-27857533D02*
X42089160Y-27819438D01*
X42355827Y-27628961D02*
X42660589Y-27628961D01*
X42470113Y-27362295D02*
X42470113Y-28048009D01*
X42470113Y-28048009D02*
X42508208Y-28124200D01*
X42508208Y-28124200D02*
X42584398Y-28162295D01*
X42584398Y-28162295D02*
X42660589Y-28162295D01*
X43232018Y-28124200D02*
X43155827Y-28162295D01*
X43155827Y-28162295D02*
X43003446Y-28162295D01*
X43003446Y-28162295D02*
X42927256Y-28124200D01*
X42927256Y-28124200D02*
X42889160Y-28048009D01*
X42889160Y-28048009D02*
X42889160Y-27743247D01*
X42889160Y-27743247D02*
X42927256Y-27667057D01*
X42927256Y-27667057D02*
X43003446Y-27628961D01*
X43003446Y-27628961D02*
X43155827Y-27628961D01*
X43155827Y-27628961D02*
X43232018Y-27667057D01*
X43232018Y-27667057D02*
X43270113Y-27743247D01*
X43270113Y-27743247D02*
X43270113Y-27819438D01*
X43270113Y-27819438D02*
X42889160Y-27895628D01*
X44336779Y-28162295D02*
X44260589Y-28124200D01*
X44260589Y-28124200D02*
X44222494Y-28086104D01*
X44222494Y-28086104D02*
X44184398Y-28009914D01*
X44184398Y-28009914D02*
X44184398Y-27781342D01*
X44184398Y-27781342D02*
X44222494Y-27705152D01*
X44222494Y-27705152D02*
X44260589Y-27667057D01*
X44260589Y-27667057D02*
X44336779Y-27628961D01*
X44336779Y-27628961D02*
X44451065Y-27628961D01*
X44451065Y-27628961D02*
X44527256Y-27667057D01*
X44527256Y-27667057D02*
X44565351Y-27705152D01*
X44565351Y-27705152D02*
X44603446Y-27781342D01*
X44603446Y-27781342D02*
X44603446Y-28009914D01*
X44603446Y-28009914D02*
X44565351Y-28086104D01*
X44565351Y-28086104D02*
X44527256Y-28124200D01*
X44527256Y-28124200D02*
X44451065Y-28162295D01*
X44451065Y-28162295D02*
X44336779Y-28162295D01*
X45289161Y-27628961D02*
X45289161Y-28162295D01*
X44946304Y-27628961D02*
X44946304Y-28048009D01*
X44946304Y-28048009D02*
X44984399Y-28124200D01*
X44984399Y-28124200D02*
X45060589Y-28162295D01*
X45060589Y-28162295D02*
X45174875Y-28162295D01*
X45174875Y-28162295D02*
X45251066Y-28124200D01*
X45251066Y-28124200D02*
X45289161Y-28086104D01*
X45555828Y-27628961D02*
X45860590Y-27628961D01*
X45670114Y-27362295D02*
X45670114Y-28048009D01*
X45670114Y-28048009D02*
X45708209Y-28124200D01*
X45708209Y-28124200D02*
X45784399Y-28162295D01*
X45784399Y-28162295D02*
X45860590Y-28162295D01*
X46127257Y-27628961D02*
X46127257Y-28428961D01*
X46127257Y-27667057D02*
X46203447Y-27628961D01*
X46203447Y-27628961D02*
X46355828Y-27628961D01*
X46355828Y-27628961D02*
X46432019Y-27667057D01*
X46432019Y-27667057D02*
X46470114Y-27705152D01*
X46470114Y-27705152D02*
X46508209Y-27781342D01*
X46508209Y-27781342D02*
X46508209Y-28009914D01*
X46508209Y-28009914D02*
X46470114Y-28086104D01*
X46470114Y-28086104D02*
X46432019Y-28124200D01*
X46432019Y-28124200D02*
X46355828Y-28162295D01*
X46355828Y-28162295D02*
X46203447Y-28162295D01*
X46203447Y-28162295D02*
X46127257Y-28124200D01*
X47193924Y-27628961D02*
X47193924Y-28162295D01*
X46851067Y-27628961D02*
X46851067Y-28048009D01*
X46851067Y-28048009D02*
X46889162Y-28124200D01*
X46889162Y-28124200D02*
X46965352Y-28162295D01*
X46965352Y-28162295D02*
X47079638Y-28162295D01*
X47079638Y-28162295D02*
X47155829Y-28124200D01*
X47155829Y-28124200D02*
X47193924Y-28086104D01*
X47460591Y-27628961D02*
X47765353Y-27628961D01*
X47574877Y-27362295D02*
X47574877Y-28048009D01*
X47574877Y-28048009D02*
X47612972Y-28124200D01*
X47612972Y-28124200D02*
X47689162Y-28162295D01*
X47689162Y-28162295D02*
X47765353Y-28162295D01*
X47993924Y-28124200D02*
X48070115Y-28162295D01*
X48070115Y-28162295D02*
X48222496Y-28162295D01*
X48222496Y-28162295D02*
X48298686Y-28124200D01*
X48298686Y-28124200D02*
X48336782Y-28048009D01*
X48336782Y-28048009D02*
X48336782Y-28009914D01*
X48336782Y-28009914D02*
X48298686Y-27933723D01*
X48298686Y-27933723D02*
X48222496Y-27895628D01*
X48222496Y-27895628D02*
X48108210Y-27895628D01*
X48108210Y-27895628D02*
X48032020Y-27857533D01*
X48032020Y-27857533D02*
X47993924Y-27781342D01*
X47993924Y-27781342D02*
X47993924Y-27743247D01*
X47993924Y-27743247D02*
X48032020Y-27667057D01*
X48032020Y-27667057D02*
X48108210Y-27628961D01*
X48108210Y-27628961D02*
X48222496Y-27628961D01*
X48222496Y-27628961D02*
X48298686Y-27667057D01*
X39003445Y-29305152D02*
X38927255Y-29267057D01*
X38927255Y-29267057D02*
X38889160Y-29228961D01*
X38889160Y-29228961D02*
X38851064Y-29152771D01*
X38851064Y-29152771D02*
X38851064Y-29114676D01*
X38851064Y-29114676D02*
X38889160Y-29038485D01*
X38889160Y-29038485D02*
X38927255Y-29000390D01*
X38927255Y-29000390D02*
X39003445Y-28962295D01*
X39003445Y-28962295D02*
X39155826Y-28962295D01*
X39155826Y-28962295D02*
X39232017Y-29000390D01*
X39232017Y-29000390D02*
X39270112Y-29038485D01*
X39270112Y-29038485D02*
X39308207Y-29114676D01*
X39308207Y-29114676D02*
X39308207Y-29152771D01*
X39308207Y-29152771D02*
X39270112Y-29228961D01*
X39270112Y-29228961D02*
X39232017Y-29267057D01*
X39232017Y-29267057D02*
X39155826Y-29305152D01*
X39155826Y-29305152D02*
X39003445Y-29305152D01*
X39003445Y-29305152D02*
X38927255Y-29343247D01*
X38927255Y-29343247D02*
X38889160Y-29381342D01*
X38889160Y-29381342D02*
X38851064Y-29457533D01*
X38851064Y-29457533D02*
X38851064Y-29609914D01*
X38851064Y-29609914D02*
X38889160Y-29686104D01*
X38889160Y-29686104D02*
X38927255Y-29724200D01*
X38927255Y-29724200D02*
X39003445Y-29762295D01*
X39003445Y-29762295D02*
X39155826Y-29762295D01*
X39155826Y-29762295D02*
X39232017Y-29724200D01*
X39232017Y-29724200D02*
X39270112Y-29686104D01*
X39270112Y-29686104D02*
X39308207Y-29609914D01*
X39308207Y-29609914D02*
X39308207Y-29457533D01*
X39308207Y-29457533D02*
X39270112Y-29381342D01*
X39270112Y-29381342D02*
X39232017Y-29343247D01*
X39232017Y-29343247D02*
X39155826Y-29305152D01*
X39536779Y-29724200D02*
X40527255Y-29724200D01*
X39536779Y-28924200D02*
X39536779Y-29762295D01*
X39803446Y-29457533D02*
X40260589Y-29457533D01*
X39803446Y-29152771D02*
X39803446Y-29457533D01*
X39536779Y-28924200D02*
X40527255Y-28924200D01*
X40527255Y-28924200D02*
X40527255Y-29762295D01*
X39803446Y-29152771D02*
X40260589Y-29152771D01*
X40260589Y-29152771D02*
X40260589Y-29457533D01*
X40793921Y-29190866D02*
X41098683Y-29190866D01*
X40793921Y-28924200D02*
X40793921Y-29190866D01*
X40793921Y-29343247D02*
X40793921Y-29686104D01*
X40946302Y-29381342D02*
X41098683Y-29381342D01*
X40946302Y-29152771D02*
X40946302Y-29648009D01*
X41098683Y-29648009D02*
X40717731Y-29686104D01*
X41251064Y-29419438D02*
X41251064Y-29762295D01*
X41251064Y-29724200D02*
X41670112Y-29724200D01*
X40793921Y-28924200D02*
X41098683Y-28924200D01*
X41098683Y-28924200D02*
X41098683Y-29190866D01*
X41251064Y-29419438D02*
X41670112Y-29419438D01*
X41670112Y-29419438D02*
X41670112Y-29762295D01*
X41327255Y-28848009D02*
X41251064Y-29038485D01*
X41251064Y-29038485D02*
X41136779Y-29152771D01*
X41289160Y-29000390D02*
X41327255Y-29152771D01*
X41327255Y-29152771D02*
X41555826Y-29381342D01*
X41555826Y-29381342D02*
X41708207Y-29419438D01*
X41289160Y-28962295D02*
X41593921Y-28962295D01*
X41593921Y-28962295D02*
X41517731Y-29152771D01*
X41517731Y-29152771D02*
X41289160Y-29343247D01*
X41289160Y-29343247D02*
X41098683Y-29419438D01*
X42355826Y-29114676D02*
X42508207Y-29571819D01*
X42393921Y-29038485D02*
X42470112Y-29114676D01*
X42508207Y-29000390D02*
X42584397Y-29076580D01*
X42165350Y-29114676D02*
X42127254Y-29305152D01*
X42127254Y-29305152D02*
X42051064Y-29457533D01*
X42051064Y-29457533D02*
X41974873Y-29571819D01*
X42851064Y-29190866D02*
X42927254Y-29381342D01*
X43041540Y-29152771D02*
X43079635Y-29343247D01*
X43270111Y-29190866D02*
X43270111Y-29381342D01*
X43270111Y-29381342D02*
X43232016Y-29495628D01*
X43232016Y-29495628D02*
X43117730Y-29609914D01*
X43117730Y-29609914D02*
X43003445Y-29686104D01*
X43689159Y-29038485D02*
X44108206Y-29038485D01*
X44108206Y-29038485D02*
X44108206Y-29228961D01*
X44108206Y-29228961D02*
X44070111Y-29419438D01*
X44070111Y-29419438D02*
X43993921Y-29533723D01*
X43993921Y-29533723D02*
X43879635Y-29609914D01*
X43879635Y-29609914D02*
X43727254Y-29686104D01*
X44565349Y-29152771D02*
X44946301Y-29152771D01*
X44946301Y-29152771D02*
X44908206Y-29267057D01*
X44908206Y-29267057D02*
X44832016Y-29381342D01*
X44755825Y-29267057D02*
X44755825Y-29419438D01*
X44755825Y-29419438D02*
X44717730Y-29533723D01*
X44717730Y-29533723D02*
X44641539Y-29648009D01*
X45936777Y-28924200D02*
X45251063Y-29952771D01*
X46241539Y-29000390D02*
X46622491Y-29000390D01*
X46165348Y-29190866D02*
X46660587Y-29190866D01*
X46660587Y-29190866D02*
X46660587Y-29381342D01*
X46660587Y-29381342D02*
X46584396Y-29495628D01*
X46584396Y-29495628D02*
X46470110Y-29609914D01*
X46470110Y-29609914D02*
X46317729Y-29724200D01*
X47270110Y-29190866D02*
X47270110Y-29762295D01*
X47460586Y-28924200D02*
X47384396Y-29038485D01*
X47384396Y-29038485D02*
X47270110Y-29190866D01*
X47270110Y-29190866D02*
X47117729Y-29305152D01*
X47117729Y-29305152D02*
X47003443Y-29381342D01*
X38889160Y-30238484D02*
X39041541Y-30390865D01*
X38889160Y-30848008D02*
X39079636Y-30809913D01*
X39079636Y-30809913D02*
X39193922Y-30695627D01*
X39193922Y-30695627D02*
X39270112Y-30581341D01*
X39270112Y-30581341D02*
X39346303Y-30314675D01*
X39955826Y-30428960D02*
X40184398Y-30619437D01*
X39955826Y-30086103D02*
X39955826Y-30924199D01*
X40108207Y-30352770D02*
X40184398Y-30428960D01*
X40222493Y-30314675D02*
X40298683Y-30390865D01*
X40603445Y-30200389D02*
X40984397Y-30200389D01*
X40527254Y-30390865D02*
X41022493Y-30390865D01*
X41022493Y-30390865D02*
X41022493Y-30581341D01*
X41022493Y-30581341D02*
X40946302Y-30695627D01*
X40946302Y-30695627D02*
X40832016Y-30809913D01*
X40832016Y-30809913D02*
X40679635Y-30924199D01*
X41632016Y-30390865D02*
X41632016Y-30962294D01*
X41822492Y-30124199D02*
X41746302Y-30238484D01*
X41746302Y-30238484D02*
X41632016Y-30390865D01*
X41632016Y-30390865D02*
X41479635Y-30505151D01*
X41479635Y-30505151D02*
X41365349Y-30581341D01*
X42584397Y-30314675D02*
X42736778Y-30771818D01*
X42622492Y-30238484D02*
X42698683Y-30314675D01*
X42736778Y-30200389D02*
X42812968Y-30276579D01*
X42393921Y-30314675D02*
X42355825Y-30505151D01*
X42355825Y-30505151D02*
X42279635Y-30657532D01*
X42279635Y-30657532D02*
X42203444Y-30771818D01*
X43498682Y-30048008D02*
X43460587Y-30162294D01*
X43460587Y-30162294D02*
X43422492Y-30314675D01*
X43422492Y-30314675D02*
X43422492Y-30695627D01*
X43422492Y-30695627D02*
X43460587Y-30848008D01*
X43460587Y-30848008D02*
X43498682Y-30924199D01*
X43803444Y-30695627D02*
X44184396Y-30657532D01*
X43841539Y-30238484D02*
X44146301Y-30238484D01*
X43841539Y-30467056D02*
X44146301Y-30467056D01*
X44412968Y-30695627D02*
X44793920Y-30695627D01*
X44412968Y-30467056D02*
X44755825Y-30467056D01*
X44412968Y-30238484D02*
X44793920Y-30238484D01*
X44412968Y-30048008D02*
X44412968Y-30962294D01*
X44146301Y-30086103D02*
X44146301Y-30543246D01*
X44146301Y-30543246D02*
X44108206Y-30771818D01*
X44108206Y-30771818D02*
X43917730Y-30962294D01*
X45136777Y-30124199D02*
X45936777Y-30124199D01*
X45136777Y-30124199D02*
X45136777Y-30581341D01*
X45136777Y-30581341D02*
X45060586Y-30886103D01*
X45136777Y-30390865D02*
X45860586Y-30390865D01*
X45860586Y-30390865D02*
X45746301Y-30581341D01*
X45746301Y-30581341D02*
X45555825Y-30809913D01*
X45555825Y-30809913D02*
X45174872Y-30962294D01*
X45289158Y-30390865D02*
X45365348Y-30619437D01*
X45365348Y-30619437D02*
X45555825Y-30809913D01*
X45555825Y-30809913D02*
X45746301Y-30924199D01*
X45746301Y-30924199D02*
X45974872Y-30962294D01*
X46165348Y-30771818D02*
X46660586Y-30771818D01*
X46165348Y-30200389D02*
X46622491Y-30200389D01*
X46203443Y-30619437D02*
X46622491Y-30619437D01*
X46203443Y-30467056D02*
X46622491Y-30467056D01*
X46203443Y-30314675D02*
X46203443Y-30619437D01*
X46393919Y-30048008D02*
X46393919Y-30962294D01*
X46622491Y-30924199D02*
X46965348Y-30924199D01*
X46660586Y-30467056D02*
X47155824Y-30467056D01*
X46736777Y-30162294D02*
X47117729Y-30162294D01*
X46774872Y-30924199D02*
X47155824Y-30924199D01*
X46851062Y-30467056D02*
X46698681Y-30924199D01*
X47003443Y-30657532D02*
X47155824Y-30962294D01*
X46203443Y-30314675D02*
X46622491Y-30314675D01*
X46622491Y-30314675D02*
X46584396Y-30619437D01*
X47460586Y-30733722D02*
X47612967Y-30924199D01*
X38812969Y-31362294D02*
X39308207Y-31362294D01*
X39308207Y-31362294D02*
X39041541Y-31667056D01*
X39041541Y-31667056D02*
X39155826Y-31667056D01*
X39155826Y-31667056D02*
X39232017Y-31705151D01*
X39232017Y-31705151D02*
X39270112Y-31743246D01*
X39270112Y-31743246D02*
X39308207Y-31819437D01*
X39308207Y-31819437D02*
X39308207Y-32009913D01*
X39308207Y-32009913D02*
X39270112Y-32086103D01*
X39270112Y-32086103D02*
X39232017Y-32124199D01*
X39232017Y-32124199D02*
X39155826Y-32162294D01*
X39155826Y-32162294D02*
X38927255Y-32162294D01*
X38927255Y-32162294D02*
X38851064Y-32124199D01*
X38851064Y-32124199D02*
X38812969Y-32086103D01*
X39574874Y-31400389D02*
X39727255Y-31552770D01*
X39803446Y-31705151D02*
X39536779Y-31933722D01*
X39803446Y-31248008D02*
X39803446Y-32162294D01*
X39879636Y-31590865D02*
X40527255Y-31590865D01*
X40336779Y-31324199D02*
X40451065Y-31438484D01*
X40184398Y-31590865D02*
X40222493Y-31781341D01*
X40222493Y-31781341D02*
X40298684Y-31971818D01*
X40298684Y-31971818D02*
X40489160Y-32162294D01*
X40184398Y-31248008D02*
X40184398Y-31590865D01*
X40184398Y-31590865D02*
X40108208Y-31781341D01*
X40108208Y-31781341D02*
X40032017Y-31971818D01*
X40032017Y-31971818D02*
X39879636Y-32162294D01*
X40717731Y-31438484D02*
X41174874Y-31438484D01*
X40793921Y-31743246D02*
X41136779Y-31743246D01*
X40793921Y-31628960D02*
X41136779Y-31628960D01*
X40793921Y-31514675D02*
X40793921Y-31895627D01*
X40870112Y-32009913D02*
X40717731Y-32162294D01*
X40908207Y-31248008D02*
X40832017Y-31438484D01*
X41022493Y-32162294D02*
X41441541Y-32162294D01*
X41022493Y-31971818D02*
X41022493Y-32162294D01*
X41060588Y-31324199D02*
X41212969Y-31438484D01*
X41289160Y-31895627D02*
X41670112Y-31895627D01*
X41289160Y-31552770D02*
X41670112Y-31552770D01*
X41327255Y-31628960D02*
X41327255Y-31895627D01*
X41327255Y-31286103D02*
X41327255Y-31514675D01*
X41479636Y-32086103D02*
X41441541Y-32162294D01*
X41517731Y-31971818D02*
X41708207Y-32162294D01*
X41593921Y-31324199D02*
X41289160Y-31400389D01*
X41593921Y-31667056D02*
X41289160Y-31743246D01*
X41670112Y-31438484D02*
X41670112Y-31552770D01*
X41670112Y-31781341D02*
X41670112Y-31895627D01*
X40793921Y-31514675D02*
X41136779Y-31514675D01*
X41136779Y-31514675D02*
X41136779Y-31895627D01*
X41022493Y-31895627D02*
X41136779Y-31933722D01*
X41136779Y-31933722D02*
X41289160Y-32009913D01*
X41898683Y-32086103D02*
X42889159Y-32086103D01*
X41898683Y-31781341D02*
X41898683Y-32162294D01*
X41936778Y-31667056D02*
X42851064Y-31667056D01*
X41936778Y-31362294D02*
X41936778Y-31667056D01*
X42393921Y-31248008D02*
X42393921Y-32086103D01*
X42851064Y-31362294D02*
X42851064Y-31667056D01*
X42889159Y-31781341D02*
X42889159Y-32162294D01*
X43689159Y-32162294D02*
X43955825Y-32162294D01*
X43117730Y-31514675D02*
X44070111Y-31514675D01*
X44070111Y-31514675D02*
X44070111Y-31743246D01*
X44070111Y-31743246D02*
X43993921Y-32124199D01*
X43536778Y-31248008D02*
X43536778Y-31590865D01*
X43536778Y-31590865D02*
X43460587Y-31781341D01*
X43460587Y-31781341D02*
X43346302Y-31971818D01*
X43346302Y-31971818D02*
X43117730Y-32162294D01*
X44374873Y-31248008D02*
X44451063Y-31362294D01*
X44451063Y-31362294D02*
X44489158Y-31514675D01*
X44489158Y-31514675D02*
X44489158Y-31895627D01*
X44489158Y-31895627D02*
X44451063Y-32048008D01*
X44451063Y-32048008D02*
X44374873Y-32124199D01*
X3233333Y-562295D02*
X3500000Y-1362295D01*
X3500000Y-1362295D02*
X3766666Y-562295D01*
X4490476Y-1286104D02*
X4452380Y-1324200D01*
X4452380Y-1324200D02*
X4338095Y-1362295D01*
X4338095Y-1362295D02*
X4261904Y-1362295D01*
X4261904Y-1362295D02*
X4147618Y-1324200D01*
X4147618Y-1324200D02*
X4071428Y-1248009D01*
X4071428Y-1248009D02*
X4033333Y-1171819D01*
X4033333Y-1171819D02*
X3995237Y-1019438D01*
X3995237Y-1019438D02*
X3995237Y-905152D01*
X3995237Y-905152D02*
X4033333Y-752771D01*
X4033333Y-752771D02*
X4071428Y-676580D01*
X4071428Y-676580D02*
X4147618Y-600390D01*
X4147618Y-600390D02*
X4261904Y-562295D01*
X4261904Y-562295D02*
X4338095Y-562295D01*
X4338095Y-562295D02*
X4452380Y-600390D01*
X4452380Y-600390D02*
X4490476Y-638485D01*
X5290476Y-1286104D02*
X5252380Y-1324200D01*
X5252380Y-1324200D02*
X5138095Y-1362295D01*
X5138095Y-1362295D02*
X5061904Y-1362295D01*
X5061904Y-1362295D02*
X4947618Y-1324200D01*
X4947618Y-1324200D02*
X4871428Y-1248009D01*
X4871428Y-1248009D02*
X4833333Y-1171819D01*
X4833333Y-1171819D02*
X4795237Y-1019438D01*
X4795237Y-1019438D02*
X4795237Y-905152D01*
X4795237Y-905152D02*
X4833333Y-752771D01*
X4833333Y-752771D02*
X4871428Y-676580D01*
X4871428Y-676580D02*
X4947618Y-600390D01*
X4947618Y-600390D02*
X5061904Y-562295D01*
X5061904Y-562295D02*
X5138095Y-562295D01*
X5138095Y-562295D02*
X5252380Y-600390D01*
X5252380Y-600390D02*
X5290476Y-638485D01*
X3747618Y-49362295D02*
X3290475Y-49362295D01*
X3519047Y-49362295D02*
X3519047Y-48562295D01*
X3519047Y-48562295D02*
X3442856Y-48676580D01*
X3442856Y-48676580D02*
X3366666Y-48752771D01*
X3366666Y-48752771D02*
X3290475Y-48790866D01*
X4242857Y-48562295D02*
X4395238Y-48562295D01*
X4395238Y-48562295D02*
X4471428Y-48600390D01*
X4471428Y-48600390D02*
X4547619Y-48676580D01*
X4547619Y-48676580D02*
X4585714Y-48828961D01*
X4585714Y-48828961D02*
X4585714Y-49095628D01*
X4585714Y-49095628D02*
X4547619Y-49248009D01*
X4547619Y-49248009D02*
X4471428Y-49324200D01*
X4471428Y-49324200D02*
X4395238Y-49362295D01*
X4395238Y-49362295D02*
X4242857Y-49362295D01*
X4242857Y-49362295D02*
X4166666Y-49324200D01*
X4166666Y-49324200D02*
X4090476Y-49248009D01*
X4090476Y-49248009D02*
X4052380Y-49095628D01*
X4052380Y-49095628D02*
X4052380Y-48828961D01*
X4052380Y-48828961D02*
X4090476Y-48676580D01*
X4090476Y-48676580D02*
X4166666Y-48600390D01*
X4166666Y-48600390D02*
X4242857Y-48562295D01*
X4928571Y-48943247D02*
X5195237Y-48943247D01*
X5309523Y-49362295D02*
X4928571Y-49362295D01*
X4928571Y-49362295D02*
X4928571Y-48562295D01*
X4928571Y-48562295D02*
X5309523Y-48562295D01*
X4471429Y-22057533D02*
X5080953Y-22057533D01*
X4776191Y-22362295D02*
X4776191Y-21752771D01*
X5842857Y-21562295D02*
X5461905Y-21562295D01*
X5461905Y-21562295D02*
X5423809Y-21943247D01*
X5423809Y-21943247D02*
X5461905Y-21905152D01*
X5461905Y-21905152D02*
X5538095Y-21867057D01*
X5538095Y-21867057D02*
X5728571Y-21867057D01*
X5728571Y-21867057D02*
X5804762Y-21905152D01*
X5804762Y-21905152D02*
X5842857Y-21943247D01*
X5842857Y-21943247D02*
X5880952Y-22019438D01*
X5880952Y-22019438D02*
X5880952Y-22209914D01*
X5880952Y-22209914D02*
X5842857Y-22286104D01*
X5842857Y-22286104D02*
X5804762Y-22324200D01*
X5804762Y-22324200D02*
X5728571Y-22362295D01*
X5728571Y-22362295D02*
X5538095Y-22362295D01*
X5538095Y-22362295D02*
X5461905Y-22324200D01*
X5461905Y-22324200D02*
X5423809Y-22286104D01*
X6109524Y-21562295D02*
X6376191Y-22362295D01*
X6376191Y-22362295D02*
X6642857Y-21562295D01*
X4890476Y-28500390D02*
X4814286Y-28462295D01*
X4814286Y-28462295D02*
X4700000Y-28462295D01*
X4700000Y-28462295D02*
X4585714Y-28500390D01*
X4585714Y-28500390D02*
X4509524Y-28576580D01*
X4509524Y-28576580D02*
X4471429Y-28652771D01*
X4471429Y-28652771D02*
X4433333Y-28805152D01*
X4433333Y-28805152D02*
X4433333Y-28919438D01*
X4433333Y-28919438D02*
X4471429Y-29071819D01*
X4471429Y-29071819D02*
X4509524Y-29148009D01*
X4509524Y-29148009D02*
X4585714Y-29224200D01*
X4585714Y-29224200D02*
X4700000Y-29262295D01*
X4700000Y-29262295D02*
X4776191Y-29262295D01*
X4776191Y-29262295D02*
X4890476Y-29224200D01*
X4890476Y-29224200D02*
X4928572Y-29186104D01*
X4928572Y-29186104D02*
X4928572Y-28919438D01*
X4928572Y-28919438D02*
X4776191Y-28919438D01*
X5271429Y-29262295D02*
X5271429Y-28462295D01*
X5271429Y-28462295D02*
X5728572Y-29262295D01*
X5728572Y-29262295D02*
X5728572Y-28462295D01*
X6109524Y-29262295D02*
X6109524Y-28462295D01*
X6109524Y-28462295D02*
X6300000Y-28462295D01*
X6300000Y-28462295D02*
X6414286Y-28500390D01*
X6414286Y-28500390D02*
X6490476Y-28576580D01*
X6490476Y-28576580D02*
X6528571Y-28652771D01*
X6528571Y-28652771D02*
X6566667Y-28805152D01*
X6566667Y-28805152D02*
X6566667Y-28919438D01*
X6566667Y-28919438D02*
X6528571Y-29071819D01*
X6528571Y-29071819D02*
X6490476Y-29148009D01*
X6490476Y-29148009D02*
X6414286Y-29224200D01*
X6414286Y-29224200D02*
X6300000Y-29262295D01*
X6300000Y-29262295D02*
X6109524Y-29262295D01*
X7890475Y-638485D02*
X7928571Y-600390D01*
X7928571Y-600390D02*
X8004761Y-562295D01*
X8004761Y-562295D02*
X8195237Y-562295D01*
X8195237Y-562295D02*
X8271428Y-600390D01*
X8271428Y-600390D02*
X8309523Y-638485D01*
X8309523Y-638485D02*
X8347618Y-714676D01*
X8347618Y-714676D02*
X8347618Y-790866D01*
X8347618Y-790866D02*
X8309523Y-905152D01*
X8309523Y-905152D02*
X7852380Y-1362295D01*
X7852380Y-1362295D02*
X8347618Y-1362295D01*
X8842857Y-562295D02*
X8995238Y-562295D01*
X8995238Y-562295D02*
X9071428Y-600390D01*
X9071428Y-600390D02*
X9147619Y-676580D01*
X9147619Y-676580D02*
X9185714Y-828961D01*
X9185714Y-828961D02*
X9185714Y-1095628D01*
X9185714Y-1095628D02*
X9147619Y-1248009D01*
X9147619Y-1248009D02*
X9071428Y-1324200D01*
X9071428Y-1324200D02*
X8995238Y-1362295D01*
X8995238Y-1362295D02*
X8842857Y-1362295D01*
X8842857Y-1362295D02*
X8766666Y-1324200D01*
X8766666Y-1324200D02*
X8690476Y-1248009D01*
X8690476Y-1248009D02*
X8652380Y-1095628D01*
X8652380Y-1095628D02*
X8652380Y-828961D01*
X8652380Y-828961D02*
X8690476Y-676580D01*
X8690476Y-676580D02*
X8766666Y-600390D01*
X8766666Y-600390D02*
X8842857Y-562295D01*
X9528571Y-943247D02*
X9795237Y-943247D01*
X9909523Y-1362295D02*
X9528571Y-1362295D01*
X9528571Y-1362295D02*
X9528571Y-562295D01*
X9528571Y-562295D02*
X9909523Y-562295D01*
X8404761Y-49362295D02*
X7947618Y-49362295D01*
X8176190Y-49362295D02*
X8176190Y-48562295D01*
X8176190Y-48562295D02*
X8099999Y-48676580D01*
X8099999Y-48676580D02*
X8023809Y-48752771D01*
X8023809Y-48752771D02*
X7947618Y-48790866D01*
X8709523Y-49133723D02*
X9090476Y-49133723D01*
X8633333Y-49362295D02*
X8900000Y-48562295D01*
X8900000Y-48562295D02*
X9166666Y-49362295D01*
X9852380Y-49362295D02*
X9395237Y-49362295D01*
X9623809Y-49362295D02*
X9623809Y-48562295D01*
X9623809Y-48562295D02*
X9547618Y-48676580D01*
X9547618Y-48676580D02*
X9471428Y-48752771D01*
X9471428Y-48752771D02*
X9395237Y-48790866D01*
X13004761Y-1362295D02*
X12547618Y-1362295D01*
X12776190Y-1362295D02*
X12776190Y-562295D01*
X12776190Y-562295D02*
X12699999Y-676580D01*
X12699999Y-676580D02*
X12623809Y-752771D01*
X12623809Y-752771D02*
X12547618Y-790866D01*
X13500000Y-981342D02*
X13500000Y-1362295D01*
X13233333Y-562295D02*
X13500000Y-981342D01*
X13500000Y-981342D02*
X13766666Y-562295D01*
X14452380Y-1362295D02*
X13995237Y-1362295D01*
X14223809Y-1362295D02*
X14223809Y-562295D01*
X14223809Y-562295D02*
X14147618Y-676580D01*
X14147618Y-676580D02*
X14071428Y-752771D01*
X14071428Y-752771D02*
X13995237Y-790866D01*
X12547618Y-48638485D02*
X12585714Y-48600390D01*
X12585714Y-48600390D02*
X12661904Y-48562295D01*
X12661904Y-48562295D02*
X12852380Y-48562295D01*
X12852380Y-48562295D02*
X12928571Y-48600390D01*
X12928571Y-48600390D02*
X12966666Y-48638485D01*
X12966666Y-48638485D02*
X13004761Y-48714676D01*
X13004761Y-48714676D02*
X13004761Y-48790866D01*
X13004761Y-48790866D02*
X12966666Y-48905152D01*
X12966666Y-48905152D02*
X12509523Y-49362295D01*
X12509523Y-49362295D02*
X13004761Y-49362295D01*
X13500000Y-48981342D02*
X13500000Y-49362295D01*
X13233333Y-48562295D02*
X13500000Y-48981342D01*
X13500000Y-48981342D02*
X13766666Y-48562295D01*
X14376190Y-48828961D02*
X14376190Y-49362295D01*
X14185714Y-48524200D02*
X13995237Y-49095628D01*
X13995237Y-49095628D02*
X14490476Y-49095628D01*
X17147618Y-638485D02*
X17185714Y-600390D01*
X17185714Y-600390D02*
X17261904Y-562295D01*
X17261904Y-562295D02*
X17452380Y-562295D01*
X17452380Y-562295D02*
X17528571Y-600390D01*
X17528571Y-600390D02*
X17566666Y-638485D01*
X17566666Y-638485D02*
X17604761Y-714676D01*
X17604761Y-714676D02*
X17604761Y-790866D01*
X17604761Y-790866D02*
X17566666Y-905152D01*
X17566666Y-905152D02*
X17109523Y-1362295D01*
X17109523Y-1362295D02*
X17604761Y-1362295D01*
X17909523Y-1133723D02*
X18290476Y-1133723D01*
X17833333Y-1362295D02*
X18100000Y-562295D01*
X18100000Y-562295D02*
X18366666Y-1362295D01*
X18976190Y-828961D02*
X18976190Y-1362295D01*
X18785714Y-524200D02*
X18595237Y-1095628D01*
X18595237Y-1095628D02*
X19090476Y-1095628D01*
X17604761Y-49362295D02*
X17147618Y-49362295D01*
X17376190Y-49362295D02*
X17376190Y-48562295D01*
X17376190Y-48562295D02*
X17299999Y-48676580D01*
X17299999Y-48676580D02*
X17223809Y-48752771D01*
X17223809Y-48752771D02*
X17147618Y-48790866D01*
X17909523Y-49133723D02*
X18290476Y-49133723D01*
X17833333Y-49362295D02*
X18100000Y-48562295D01*
X18100000Y-48562295D02*
X18366666Y-49362295D01*
X18595237Y-48638485D02*
X18633333Y-48600390D01*
X18633333Y-48600390D02*
X18709523Y-48562295D01*
X18709523Y-48562295D02*
X18899999Y-48562295D01*
X18899999Y-48562295D02*
X18976190Y-48600390D01*
X18976190Y-48600390D02*
X19014285Y-48638485D01*
X19014285Y-48638485D02*
X19052380Y-48714676D01*
X19052380Y-48714676D02*
X19052380Y-48790866D01*
X19052380Y-48790866D02*
X19014285Y-48905152D01*
X19014285Y-48905152D02*
X18557142Y-49362295D01*
X18557142Y-49362295D02*
X19052380Y-49362295D01*
X22204761Y-1362295D02*
X21747618Y-1362295D01*
X21976190Y-1362295D02*
X21976190Y-562295D01*
X21976190Y-562295D02*
X21899999Y-676580D01*
X21899999Y-676580D02*
X21823809Y-752771D01*
X21823809Y-752771D02*
X21747618Y-790866D01*
X22700000Y-981342D02*
X22700000Y-1362295D01*
X22433333Y-562295D02*
X22700000Y-981342D01*
X22700000Y-981342D02*
X22966666Y-562295D01*
X23195237Y-638485D02*
X23233333Y-600390D01*
X23233333Y-600390D02*
X23309523Y-562295D01*
X23309523Y-562295D02*
X23499999Y-562295D01*
X23499999Y-562295D02*
X23576190Y-600390D01*
X23576190Y-600390D02*
X23614285Y-638485D01*
X23614285Y-638485D02*
X23652380Y-714676D01*
X23652380Y-714676D02*
X23652380Y-790866D01*
X23652380Y-790866D02*
X23614285Y-905152D01*
X23614285Y-905152D02*
X23157142Y-1362295D01*
X23157142Y-1362295D02*
X23652380Y-1362295D01*
X21747618Y-48638485D02*
X21785714Y-48600390D01*
X21785714Y-48600390D02*
X21861904Y-48562295D01*
X21861904Y-48562295D02*
X22052380Y-48562295D01*
X22052380Y-48562295D02*
X22128571Y-48600390D01*
X22128571Y-48600390D02*
X22166666Y-48638485D01*
X22166666Y-48638485D02*
X22204761Y-48714676D01*
X22204761Y-48714676D02*
X22204761Y-48790866D01*
X22204761Y-48790866D02*
X22166666Y-48905152D01*
X22166666Y-48905152D02*
X21709523Y-49362295D01*
X21709523Y-49362295D02*
X22204761Y-49362295D01*
X22700000Y-48981342D02*
X22700000Y-49362295D01*
X22433333Y-48562295D02*
X22700000Y-48981342D01*
X22700000Y-48981342D02*
X22966666Y-48562295D01*
X23157142Y-48562295D02*
X23652380Y-48562295D01*
X23652380Y-48562295D02*
X23385714Y-48867057D01*
X23385714Y-48867057D02*
X23499999Y-48867057D01*
X23499999Y-48867057D02*
X23576190Y-48905152D01*
X23576190Y-48905152D02*
X23614285Y-48943247D01*
X23614285Y-48943247D02*
X23652380Y-49019438D01*
X23652380Y-49019438D02*
X23652380Y-49209914D01*
X23652380Y-49209914D02*
X23614285Y-49286104D01*
X23614285Y-49286104D02*
X23576190Y-49324200D01*
X23576190Y-49324200D02*
X23499999Y-49362295D01*
X23499999Y-49362295D02*
X23271428Y-49362295D01*
X23271428Y-49362295D02*
X23195237Y-49324200D01*
X23195237Y-49324200D02*
X23157142Y-49286104D01*
X26347618Y-638485D02*
X26385714Y-600390D01*
X26385714Y-600390D02*
X26461904Y-562295D01*
X26461904Y-562295D02*
X26652380Y-562295D01*
X26652380Y-562295D02*
X26728571Y-600390D01*
X26728571Y-600390D02*
X26766666Y-638485D01*
X26766666Y-638485D02*
X26804761Y-714676D01*
X26804761Y-714676D02*
X26804761Y-790866D01*
X26804761Y-790866D02*
X26766666Y-905152D01*
X26766666Y-905152D02*
X26309523Y-1362295D01*
X26309523Y-1362295D02*
X26804761Y-1362295D01*
X27109523Y-1133723D02*
X27490476Y-1133723D01*
X27033333Y-1362295D02*
X27300000Y-562295D01*
X27300000Y-562295D02*
X27566666Y-1362295D01*
X27757142Y-562295D02*
X28252380Y-562295D01*
X28252380Y-562295D02*
X27985714Y-867057D01*
X27985714Y-867057D02*
X28099999Y-867057D01*
X28099999Y-867057D02*
X28176190Y-905152D01*
X28176190Y-905152D02*
X28214285Y-943247D01*
X28214285Y-943247D02*
X28252380Y-1019438D01*
X28252380Y-1019438D02*
X28252380Y-1209914D01*
X28252380Y-1209914D02*
X28214285Y-1286104D01*
X28214285Y-1286104D02*
X28176190Y-1324200D01*
X28176190Y-1324200D02*
X28099999Y-1362295D01*
X28099999Y-1362295D02*
X27871428Y-1362295D01*
X27871428Y-1362295D02*
X27795237Y-1324200D01*
X27795237Y-1324200D02*
X27757142Y-1286104D01*
X26804761Y-49362295D02*
X26347618Y-49362295D01*
X26576190Y-49362295D02*
X26576190Y-48562295D01*
X26576190Y-48562295D02*
X26499999Y-48676580D01*
X26499999Y-48676580D02*
X26423809Y-48752771D01*
X26423809Y-48752771D02*
X26347618Y-48790866D01*
X27109523Y-49133723D02*
X27490476Y-49133723D01*
X27033333Y-49362295D02*
X27300000Y-48562295D01*
X27300000Y-48562295D02*
X27566666Y-49362295D01*
X27757142Y-48562295D02*
X28252380Y-48562295D01*
X28252380Y-48562295D02*
X27985714Y-48867057D01*
X27985714Y-48867057D02*
X28099999Y-48867057D01*
X28099999Y-48867057D02*
X28176190Y-48905152D01*
X28176190Y-48905152D02*
X28214285Y-48943247D01*
X28214285Y-48943247D02*
X28252380Y-49019438D01*
X28252380Y-49019438D02*
X28252380Y-49209914D01*
X28252380Y-49209914D02*
X28214285Y-49286104D01*
X28214285Y-49286104D02*
X28176190Y-49324200D01*
X28176190Y-49324200D02*
X28099999Y-49362295D01*
X28099999Y-49362295D02*
X27871428Y-49362295D01*
X27871428Y-49362295D02*
X27795237Y-49324200D01*
X27795237Y-49324200D02*
X27757142Y-49286104D01*
X31404761Y-1362295D02*
X30947618Y-1362295D01*
X31176190Y-1362295D02*
X31176190Y-562295D01*
X31176190Y-562295D02*
X31099999Y-676580D01*
X31099999Y-676580D02*
X31023809Y-752771D01*
X31023809Y-752771D02*
X30947618Y-790866D01*
X31900000Y-981342D02*
X31900000Y-1362295D01*
X31633333Y-562295D02*
X31900000Y-981342D01*
X31900000Y-981342D02*
X32166666Y-562295D01*
X32357142Y-562295D02*
X32852380Y-562295D01*
X32852380Y-562295D02*
X32585714Y-867057D01*
X32585714Y-867057D02*
X32699999Y-867057D01*
X32699999Y-867057D02*
X32776190Y-905152D01*
X32776190Y-905152D02*
X32814285Y-943247D01*
X32814285Y-943247D02*
X32852380Y-1019438D01*
X32852380Y-1019438D02*
X32852380Y-1209914D01*
X32852380Y-1209914D02*
X32814285Y-1286104D01*
X32814285Y-1286104D02*
X32776190Y-1324200D01*
X32776190Y-1324200D02*
X32699999Y-1362295D01*
X32699999Y-1362295D02*
X32471428Y-1362295D01*
X32471428Y-1362295D02*
X32395237Y-1324200D01*
X32395237Y-1324200D02*
X32357142Y-1286104D01*
X30947618Y-48638485D02*
X30985714Y-48600390D01*
X30985714Y-48600390D02*
X31061904Y-48562295D01*
X31061904Y-48562295D02*
X31252380Y-48562295D01*
X31252380Y-48562295D02*
X31328571Y-48600390D01*
X31328571Y-48600390D02*
X31366666Y-48638485D01*
X31366666Y-48638485D02*
X31404761Y-48714676D01*
X31404761Y-48714676D02*
X31404761Y-48790866D01*
X31404761Y-48790866D02*
X31366666Y-48905152D01*
X31366666Y-48905152D02*
X30909523Y-49362295D01*
X30909523Y-49362295D02*
X31404761Y-49362295D01*
X31900000Y-48981342D02*
X31900000Y-49362295D01*
X31633333Y-48562295D02*
X31900000Y-48981342D01*
X31900000Y-48981342D02*
X32166666Y-48562295D01*
X32395237Y-48638485D02*
X32433333Y-48600390D01*
X32433333Y-48600390D02*
X32509523Y-48562295D01*
X32509523Y-48562295D02*
X32699999Y-48562295D01*
X32699999Y-48562295D02*
X32776190Y-48600390D01*
X32776190Y-48600390D02*
X32814285Y-48638485D01*
X32814285Y-48638485D02*
X32852380Y-48714676D01*
X32852380Y-48714676D02*
X32852380Y-48790866D01*
X32852380Y-48790866D02*
X32814285Y-48905152D01*
X32814285Y-48905152D02*
X32357142Y-49362295D01*
X32357142Y-49362295D02*
X32852380Y-49362295D01*
X35547618Y-638485D02*
X35585714Y-600390D01*
X35585714Y-600390D02*
X35661904Y-562295D01*
X35661904Y-562295D02*
X35852380Y-562295D01*
X35852380Y-562295D02*
X35928571Y-600390D01*
X35928571Y-600390D02*
X35966666Y-638485D01*
X35966666Y-638485D02*
X36004761Y-714676D01*
X36004761Y-714676D02*
X36004761Y-790866D01*
X36004761Y-790866D02*
X35966666Y-905152D01*
X35966666Y-905152D02*
X35509523Y-1362295D01*
X35509523Y-1362295D02*
X36004761Y-1362295D01*
X36309523Y-1133723D02*
X36690476Y-1133723D01*
X36233333Y-1362295D02*
X36500000Y-562295D01*
X36500000Y-562295D02*
X36766666Y-1362295D01*
X36995237Y-638485D02*
X37033333Y-600390D01*
X37033333Y-600390D02*
X37109523Y-562295D01*
X37109523Y-562295D02*
X37299999Y-562295D01*
X37299999Y-562295D02*
X37376190Y-600390D01*
X37376190Y-600390D02*
X37414285Y-638485D01*
X37414285Y-638485D02*
X37452380Y-714676D01*
X37452380Y-714676D02*
X37452380Y-790866D01*
X37452380Y-790866D02*
X37414285Y-905152D01*
X37414285Y-905152D02*
X36957142Y-1362295D01*
X36957142Y-1362295D02*
X37452380Y-1362295D01*
X36004761Y-49362295D02*
X35547618Y-49362295D01*
X35776190Y-49362295D02*
X35776190Y-48562295D01*
X35776190Y-48562295D02*
X35699999Y-48676580D01*
X35699999Y-48676580D02*
X35623809Y-48752771D01*
X35623809Y-48752771D02*
X35547618Y-48790866D01*
X36309523Y-49133723D02*
X36690476Y-49133723D01*
X36233333Y-49362295D02*
X36500000Y-48562295D01*
X36500000Y-48562295D02*
X36766666Y-49362295D01*
X37376190Y-48828961D02*
X37376190Y-49362295D01*
X37185714Y-48524200D02*
X36995237Y-49095628D01*
X36995237Y-49095628D02*
X37490476Y-49095628D01*
X40604760Y-1362295D02*
X40147617Y-1362295D01*
X40376189Y-1362295D02*
X40376189Y-562295D01*
X40376189Y-562295D02*
X40299998Y-676580D01*
X40299998Y-676580D02*
X40223808Y-752771D01*
X40223808Y-752771D02*
X40147617Y-790866D01*
X41099999Y-981342D02*
X41099999Y-1362295D01*
X40833332Y-562295D02*
X41099999Y-981342D01*
X41099999Y-981342D02*
X41366665Y-562295D01*
X41976189Y-828961D02*
X41976189Y-1362295D01*
X41785713Y-524200D02*
X41595236Y-1095628D01*
X41595236Y-1095628D02*
X42090475Y-1095628D01*
X40147617Y-48638485D02*
X40185713Y-48600390D01*
X40185713Y-48600390D02*
X40261903Y-48562295D01*
X40261903Y-48562295D02*
X40452379Y-48562295D01*
X40452379Y-48562295D02*
X40528570Y-48600390D01*
X40528570Y-48600390D02*
X40566665Y-48638485D01*
X40566665Y-48638485D02*
X40604760Y-48714676D01*
X40604760Y-48714676D02*
X40604760Y-48790866D01*
X40604760Y-48790866D02*
X40566665Y-48905152D01*
X40566665Y-48905152D02*
X40109522Y-49362295D01*
X40109522Y-49362295D02*
X40604760Y-49362295D01*
X41099999Y-48981342D02*
X41099999Y-49362295D01*
X40833332Y-48562295D02*
X41099999Y-48981342D01*
X41099999Y-48981342D02*
X41366665Y-48562295D01*
X42052379Y-49362295D02*
X41595236Y-49362295D01*
X41823808Y-49362295D02*
X41823808Y-48562295D01*
X41823808Y-48562295D02*
X41747617Y-48676580D01*
X41747617Y-48676580D02*
X41671427Y-48752771D01*
X41671427Y-48752771D02*
X41595236Y-48790866D01*
X44747618Y-638485D02*
X44785714Y-600390D01*
X44785714Y-600390D02*
X44861904Y-562295D01*
X44861904Y-562295D02*
X45052380Y-562295D01*
X45052380Y-562295D02*
X45128571Y-600390D01*
X45128571Y-600390D02*
X45166666Y-638485D01*
X45166666Y-638485D02*
X45204761Y-714676D01*
X45204761Y-714676D02*
X45204761Y-790866D01*
X45204761Y-790866D02*
X45166666Y-905152D01*
X45166666Y-905152D02*
X44709523Y-1362295D01*
X44709523Y-1362295D02*
X45204761Y-1362295D01*
X45509523Y-1133723D02*
X45890476Y-1133723D01*
X45433333Y-1362295D02*
X45700000Y-562295D01*
X45700000Y-562295D02*
X45966666Y-1362295D01*
X46652380Y-1362295D02*
X46195237Y-1362295D01*
X46423809Y-1362295D02*
X46423809Y-562295D01*
X46423809Y-562295D02*
X46347618Y-676580D01*
X46347618Y-676580D02*
X46271428Y-752771D01*
X46271428Y-752771D02*
X46195237Y-790866D01*
X45090476Y-48600390D02*
X45014286Y-48562295D01*
X45014286Y-48562295D02*
X44900000Y-48562295D01*
X44900000Y-48562295D02*
X44785714Y-48600390D01*
X44785714Y-48600390D02*
X44709524Y-48676580D01*
X44709524Y-48676580D02*
X44671429Y-48752771D01*
X44671429Y-48752771D02*
X44633333Y-48905152D01*
X44633333Y-48905152D02*
X44633333Y-49019438D01*
X44633333Y-49019438D02*
X44671429Y-49171819D01*
X44671429Y-49171819D02*
X44709524Y-49248009D01*
X44709524Y-49248009D02*
X44785714Y-49324200D01*
X44785714Y-49324200D02*
X44900000Y-49362295D01*
X44900000Y-49362295D02*
X44976191Y-49362295D01*
X44976191Y-49362295D02*
X45090476Y-49324200D01*
X45090476Y-49324200D02*
X45128572Y-49286104D01*
X45128572Y-49286104D02*
X45128572Y-49019438D01*
X45128572Y-49019438D02*
X44976191Y-49019438D01*
X45471429Y-49362295D02*
X45471429Y-48562295D01*
X45471429Y-48562295D02*
X45928572Y-49362295D01*
X45928572Y-49362295D02*
X45928572Y-48562295D01*
X46309524Y-49362295D02*
X46309524Y-48562295D01*
X46309524Y-48562295D02*
X46500000Y-48562295D01*
X46500000Y-48562295D02*
X46614286Y-48600390D01*
X46614286Y-48600390D02*
X46690476Y-48676580D01*
X46690476Y-48676580D02*
X46728571Y-48752771D01*
X46728571Y-48752771D02*
X46766667Y-48905152D01*
X46766667Y-48905152D02*
X46766667Y-49019438D01*
X46766667Y-49019438D02*
X46728571Y-49171819D01*
X46728571Y-49171819D02*
X46690476Y-49248009D01*
X46690476Y-49248009D02*
X46614286Y-49324200D01*
X46614286Y-49324200D02*
X46500000Y-49362295D01*
X46500000Y-49362295D02*
X46309524Y-49362295D01*
X39571427Y-20332390D02*
X40638094Y-20332390D01*
X40638094Y-20332390D02*
X39952379Y-21932390D01*
X41933332Y-20865723D02*
X41933332Y-21932390D01*
X41552380Y-20256200D02*
X41171427Y-21399057D01*
X41171427Y-21399057D02*
X42161904Y-21399057D01*
X42619047Y-21932390D02*
X43457142Y-20865723D01*
X42619047Y-20865723D02*
X43457142Y-21932390D01*
X43990475Y-20484771D02*
X44066666Y-20408580D01*
X44066666Y-20408580D02*
X44219047Y-20332390D01*
X44219047Y-20332390D02*
X44599999Y-20332390D01*
X44599999Y-20332390D02*
X44752380Y-20408580D01*
X44752380Y-20408580D02*
X44828571Y-20484771D01*
X44828571Y-20484771D02*
X44904761Y-20637152D01*
X44904761Y-20637152D02*
X44904761Y-20789533D01*
X44904761Y-20789533D02*
X44828571Y-21018104D01*
X44828571Y-21018104D02*
X43914285Y-21932390D01*
X43914285Y-21932390D02*
X44904761Y-21932390D01*
X46276190Y-20865723D02*
X46276190Y-21932390D01*
X45895238Y-20256200D02*
X45514285Y-21399057D01*
X45514285Y-21399057D02*
X46504762Y-21399057D01*
X47800000Y-20865723D02*
X47800000Y-21932390D01*
X47419048Y-20256200D02*
X47038095Y-21399057D01*
X47038095Y-21399057D02*
X48028572Y-21399057D01*
%TO.C,R16*%
D11*
X23777500Y-14962742D02*
X23777500Y-15437258D01*
X24822500Y-14962742D02*
X24822500Y-15437258D01*
%TO.C,R28*%
X35977500Y-35037258D02*
X35977500Y-34562742D01*
X37022500Y-35037258D02*
X37022500Y-34562742D01*
%TO.C,R26*%
X26777500Y-35037258D02*
X26777500Y-34562742D01*
X27822500Y-35037258D02*
X27822500Y-34562742D01*
%TO.C,D18*%
X14365000Y-10615000D02*
X14365000Y-12900000D01*
X15835000Y-10615000D02*
X14365000Y-10615000D01*
X15835000Y-12900000D02*
X15835000Y-10615000D01*
%TO.C,R12*%
X42177499Y-14962742D02*
X42177499Y-15437258D01*
X43222499Y-14962742D02*
X43222499Y-15437258D01*
%TO.C,R1*%
X2177500Y-35037258D02*
X2177500Y-34562742D01*
X3222500Y-35037258D02*
X3222500Y-34562742D01*
%TO.C,R21*%
X3777500Y-35037258D02*
X3777500Y-34562742D01*
X4822500Y-35037258D02*
X4822500Y-34562742D01*
%TO.C,D7*%
X29564999Y-37100000D02*
X29564999Y-39385000D01*
X29564999Y-39385000D02*
X31034999Y-39385000D01*
X31034999Y-39385000D02*
X31034999Y-37100000D01*
%TO.C,R35*%
X26777500Y-14962742D02*
X26777500Y-15437258D01*
X27822500Y-14962742D02*
X27822500Y-15437258D01*
%TO.C,D13*%
X37365000Y-10615000D02*
X37365000Y-12900000D01*
X38835000Y-10615000D02*
X37365000Y-10615000D01*
X38835000Y-12900000D02*
X38835000Y-10615000D01*
%TO.C,R29*%
X40577499Y-35037258D02*
X40577499Y-34562742D01*
X41622499Y-35037258D02*
X41622499Y-34562742D01*
%TO.C,R27*%
X31377500Y-35037258D02*
X31377500Y-34562742D01*
X32422500Y-35037258D02*
X32422500Y-34562742D01*
%TO.C,D4*%
X15765000Y-37100000D02*
X15765000Y-39385000D01*
X15765000Y-39385000D02*
X17235000Y-39385000D01*
X17235000Y-39385000D02*
X17235000Y-37100000D01*
%TO.C,R6*%
X25177500Y-35037258D02*
X25177500Y-34562742D01*
X26222500Y-35037258D02*
X26222500Y-34562742D01*
%TO.C,R31*%
X45177500Y-14962742D02*
X45177500Y-15437258D01*
X46222500Y-14962742D02*
X46222500Y-15437258D01*
%TO.C,D14*%
X32765000Y-10615000D02*
X32765000Y-12900000D01*
X34235000Y-10615000D02*
X32765000Y-10615000D01*
X34235000Y-12900000D02*
X34235000Y-10615000D01*
%TO.C,R39*%
X8377500Y-14962742D02*
X8377500Y-15437258D01*
X9422500Y-14962742D02*
X9422500Y-15437258D01*
%TO.C,R33*%
X35977500Y-14962742D02*
X35977500Y-15437258D01*
X37022500Y-14962742D02*
X37022500Y-15437258D01*
%TO.C,R19*%
X9977500Y-14962742D02*
X9977500Y-15437258D01*
X11022500Y-14962742D02*
X11022500Y-15437258D01*
%TO.C,D17*%
X18965000Y-10615000D02*
X18965000Y-12900000D01*
X20435000Y-10615000D02*
X18965000Y-10615000D01*
X20435000Y-12900000D02*
X20435000Y-10615000D01*
%TO.C,D9*%
X38764999Y-37100000D02*
X38764999Y-39385000D01*
X38764999Y-39385000D02*
X40234999Y-39385000D01*
X40234999Y-39385000D02*
X40234999Y-37100000D01*
%TO.C,R13*%
X37577500Y-14962742D02*
X37577500Y-15437258D01*
X38622500Y-14962742D02*
X38622500Y-15437258D01*
%TO.C,D6*%
X24965000Y-37100000D02*
X24965000Y-39385000D01*
X24965000Y-39385000D02*
X26435000Y-39385000D01*
X26435000Y-39385000D02*
X26435000Y-37100000D01*
%TO.C,D15*%
X28165000Y-10615000D02*
X28165000Y-12900000D01*
X29635000Y-10615000D02*
X28165000Y-10615000D01*
X29635000Y-12900000D02*
X29635000Y-10615000D01*
%TO.C,R11*%
X46777500Y-14962742D02*
X46777500Y-15437258D01*
X47822500Y-14962742D02*
X47822500Y-15437258D01*
%TO.C,U1*%
X12240000Y-22350000D02*
X12240000Y-24000000D01*
X12240000Y-26000000D02*
X12240000Y-27650000D01*
X12240000Y-27650000D02*
X37760000Y-27650000D01*
X37760000Y-22350000D02*
X12240000Y-22350000D01*
X37760000Y-27650000D02*
X37760000Y-22350000D01*
X12180000Y-19860000D02*
X37820000Y-19860000D01*
X37820000Y-30140000D01*
X12180000Y-30140000D01*
X12180000Y-19860000D01*
X12240000Y-24000000D02*
G75*
G02*
X12240000Y-26000000I0J-1000000D01*
G01*
%TO.C,R17*%
X19177500Y-14962742D02*
X19177500Y-15437258D01*
X20222500Y-14962742D02*
X20222500Y-15437258D01*
%TO.C,R36*%
X22177500Y-14962742D02*
X22177500Y-15437258D01*
X23222500Y-14962742D02*
X23222500Y-15437258D01*
%TO.C,R4*%
X15977500Y-35037258D02*
X15977500Y-34562742D01*
X17022500Y-35037258D02*
X17022500Y-34562742D01*
%TO.C,D19*%
X9765000Y-10615000D02*
X9765000Y-12900000D01*
X11235000Y-10615000D02*
X9765000Y-10615000D01*
X11235000Y-12900000D02*
X11235000Y-10615000D01*
%TO.C,R34*%
X31377500Y-14962742D02*
X31377500Y-15437258D01*
X32422500Y-14962742D02*
X32422500Y-15437258D01*
%TO.C,D8*%
X34165000Y-37100000D02*
X34165000Y-39385000D01*
X34165000Y-39385000D02*
X35635000Y-39385000D01*
X35635000Y-39385000D02*
X35635000Y-37100000D01*
%TO.C,R7*%
X29777499Y-35037258D02*
X29777499Y-34562742D01*
X30822499Y-35037258D02*
X30822499Y-34562742D01*
%TO.C,D5*%
X20364999Y-37100000D02*
X20364999Y-39385000D01*
X20364999Y-39385000D02*
X21834999Y-39385000D01*
X21834999Y-39385000D02*
X21834999Y-37100000D01*
%TO.C,D2*%
X6565000Y-37100000D02*
X6565000Y-39385000D01*
X6565000Y-39385000D02*
X8035000Y-39385000D01*
X8035000Y-39385000D02*
X8035000Y-37100000D01*
%TO.C,R2*%
X6777500Y-35037258D02*
X6777500Y-34562742D01*
X7822500Y-35037258D02*
X7822500Y-34562742D01*
%TO.C,D11*%
X46565000Y-10615000D02*
X46565000Y-12900000D01*
X48035000Y-10615000D02*
X46565000Y-10615000D01*
X48035000Y-12900000D02*
X48035000Y-10615000D01*
%TO.C,C1*%
X10690000Y-24859420D02*
X10690000Y-25140580D01*
X11710000Y-24859420D02*
X11710000Y-25140580D01*
%TO.C,D12*%
X41964999Y-10615000D02*
X41964999Y-12900000D01*
X43434999Y-10615000D02*
X41964999Y-10615000D01*
X43434999Y-12900000D02*
X43434999Y-10615000D01*
%TO.C,R38*%
X12977500Y-14962742D02*
X12977500Y-15437258D01*
X14022500Y-14962742D02*
X14022500Y-15437258D01*
%TO.C,R18*%
X14577500Y-14962742D02*
X14577500Y-15437258D01*
X15622500Y-14962742D02*
X15622500Y-15437258D01*
%TO.C,R8*%
X34377500Y-35037258D02*
X34377500Y-34562742D01*
X35422500Y-35037258D02*
X35422500Y-34562742D01*
%TO.C,R32*%
X40577499Y-14962742D02*
X40577499Y-15437258D01*
X41622499Y-14962742D02*
X41622499Y-15437258D01*
%TO.C,R22*%
X8377500Y-35037258D02*
X8377500Y-34562742D01*
X9422500Y-35037258D02*
X9422500Y-34562742D01*
%TO.C,R25*%
X22177500Y-35037258D02*
X22177500Y-34562742D01*
X23222500Y-35037258D02*
X23222500Y-34562742D01*
%TO.C,R23*%
X12977500Y-35037258D02*
X12977500Y-34562742D01*
X14022500Y-35037258D02*
X14022500Y-34562742D01*
%TO.C,R14*%
X32977500Y-14962742D02*
X32977500Y-15437258D01*
X34022500Y-14962742D02*
X34022500Y-15437258D01*
%TO.C,J1*%
X6920000Y-22795000D02*
X8300000Y-22795000D01*
X6920000Y-24175000D02*
X6920000Y-22795000D01*
X6920000Y-25445000D02*
X6920000Y-28095000D01*
X6920000Y-25445000D02*
X9680000Y-25445000D01*
X6920000Y-28095000D02*
X9680000Y-28095000D01*
X9680000Y-25445000D02*
X9680000Y-28095000D01*
%TO.C,D16*%
X23565000Y-10615000D02*
X23565000Y-12900000D01*
X25035000Y-10615000D02*
X23565000Y-10615000D01*
X25035000Y-12900000D02*
X25035000Y-10615000D01*
%TO.C,R3*%
X11377500Y-35037258D02*
X11377500Y-34562742D01*
X12422500Y-35037258D02*
X12422500Y-34562742D01*
%TO.C,D1*%
X1965000Y-37100000D02*
X1965000Y-39385000D01*
X1965000Y-39385000D02*
X3435000Y-39385000D01*
X3435000Y-39385000D02*
X3435000Y-37100000D01*
%TO.C,R37*%
X17577500Y-14962742D02*
X17577500Y-15437258D01*
X18622500Y-14962742D02*
X18622500Y-15437258D01*
%TO.C,R15*%
X28377500Y-14962742D02*
X28377500Y-15437258D01*
X29422500Y-14962742D02*
X29422500Y-15437258D01*
%TO.C,R5*%
X20577499Y-35037258D02*
X20577499Y-34562742D01*
X21622499Y-35037258D02*
X21622499Y-34562742D01*
%TO.C,R24*%
X17577500Y-35037258D02*
X17577500Y-34562742D01*
X18622500Y-35037258D02*
X18622500Y-34562742D01*
%TO.C,R9*%
X38977499Y-35037258D02*
X38977499Y-34562742D01*
X40022499Y-35037258D02*
X40022499Y-34562742D01*
%TO.C,D3*%
X11165000Y-37100000D02*
X11165000Y-39385000D01*
X11165000Y-39385000D02*
X12635000Y-39385000D01*
X12635000Y-39385000D02*
X12635000Y-37100000D01*
%TD*%
M02*
