M48
; DRILL file KiCad 10.0.3 date 2026-09-17T15:36:09
; FORMAT={-:-/ absolute / metric / decimal}
; #@! TF.CreationDate,2026-09-17T15:36:09+09:00
; #@! TF.GenerationSoftware,Kicad,Pcbnew,10.0.3
; #@! TF.FileFunction,MixedPlating,1,2
FMAT,2
METRIC
; #@! TA.AperFunction,Plated,PTH,ViaDrill
T1C0.300
; #@! TA.AperFunction,Plated,PTH,ComponentDrill
T2C0.800
; #@! TA.AperFunction,Plated,PTH,ComponentDrill
T3C1.000
; #@! TA.AperFunction,NonPlated,NPTH,ComponentDrill
T4C0.800
; #@! TA.AperFunction,NonPlated,NPTH,ComponentDrill
T5C2.200
%
G90
G05
T1
X2.2Y-40.7
X6.8Y-40.7
X11.0Y-9.3
X11.2Y-26.775
X11.4Y-40.7
X15.6Y-9.3
X16.0Y-40.7
X20.2Y-9.3
X20.6Y-40.7
X24.8Y-9.3
X25.2Y-40.7
X29.4Y-9.3
X29.8Y-40.7
X34.0Y-9.3
X34.4Y-40.7
X38.6Y-9.3
X39.0Y-40.7
X43.2Y-9.3
X47.8Y-9.3
T2
X13.57Y-21.19
X13.57Y-28.81
X16.11Y-21.19
X16.11Y-28.81
X18.65Y-21.19
X18.65Y-28.81
X21.19Y-21.19
X21.19Y-28.81
X23.73Y-21.19
X23.73Y-28.81
X26.27Y-21.19
X26.27Y-28.81
X28.81Y-21.19
X28.81Y-28.81
X31.35Y-21.19
X31.35Y-28.81
X33.89Y-21.19
X33.89Y-28.81
X36.43Y-21.19
X36.43Y-28.81
T3
X8.3Y-24.175
X8.3Y-26.715
T4
X4.3Y-42.5
X4.3Y-45.5
X8.9Y-4.5
X8.9Y-7.5
X8.9Y-42.5
X8.9Y-45.5
X13.5Y-4.5
X13.5Y-7.5
X13.5Y-42.5
X13.5Y-45.5
X18.1Y-4.5
X18.1Y-7.5
X18.1Y-42.5
X18.1Y-45.5
X22.7Y-4.5
X22.7Y-7.5
X22.7Y-42.5
X22.7Y-45.5
X27.3Y-4.5
X27.3Y-7.5
X27.3Y-42.5
X27.3Y-45.5
X31.9Y-4.5
X31.9Y-7.5
X31.9Y-42.5
X31.9Y-45.5
X36.5Y-4.5
X36.5Y-7.5
X36.5Y-42.5
X36.5Y-45.5
X41.1Y-4.5
X41.1Y-7.5
X41.1Y-42.5
X41.1Y-45.5
X45.7Y-4.5
X45.7Y-7.5
T5
X3.5Y-25.0
X46.5Y-25.0
M30
