%TF.GenerationSoftware,KiCad,Pcbnew,10.0.3*%
%TF.CreationDate,2026-09-25T08:47:11+09:00*%
%TF.ProjectId,commons_gates_panel,636f6d6d-6f6e-4735-9f67-617465735f70,rev?*%
%TF.SameCoordinates,Original*%
%TF.FileFunction,Soldermask,Bot*%
%TF.FilePolarity,Negative*%
%FSLAX46Y46*%
G04 Gerber Fmt 4.6, Leading zero omitted, Abs format (unit mm)*
G04 Created by KiCad (PCBNEW 10.0.3) date 2026-09-25 08:47:11*
%MOMM*%
%LPD*%
G01*
G04 APERTURE LIST*
G04 Aperture macros list*
%AMRoundRect*
0 Rectangle with rounded corners*
0 $1 Rounding radius*
0 $2 $3 $4 $5 $6 $7 $8 $9 X,Y pos of 4 corners*
0 Add a 4 corners polygon primitive as box body*
4,1,4,$2,$3,$4,$5,$6,$7,$8,$9,$2,$3,0*
0 Add four circle primitives for the rounded corners*
1,1,$1+$1,$2,$3*
1,1,$1+$1,$4,$5*
1,1,$1+$1,$6,$7*
1,1,$1+$1,$8,$9*
0 Add four rect primitives between the rounded corners*
20,1,$1+$1,$2,$3,$4,$5,0*
20,1,$1+$1,$4,$5,$6,$7,0*
20,1,$1+$1,$6,$7,$8,$9,0*
20,1,$1+$1,$8,$9,$2,$3,0*%
G04 Aperture macros list end*
%ADD10C,0.800000*%
%ADD11C,2.200000*%
%ADD12RoundRect,0.250000X0.550000X-0.550000X0.550000X0.550000X-0.550000X0.550000X-0.550000X-0.550000X0*%
%ADD13C,1.600000*%
%ADD14R,1.700000X1.700000*%
%ADD15C,1.700000*%
G04 APERTURE END LIST*
D10*
%TO.C,D_SW8*%
X136500000Y-145500000D03*
X136500000Y-142500000D03*
%TD*%
%TO.C,D_SW12*%
X141099999Y-104500000D03*
X141099999Y-107500000D03*
%TD*%
%TO.C,A_SW12*%
X91099999Y-54500000D03*
X91099999Y-57500000D03*
%TD*%
%TO.C,D_SW16*%
X122700000Y-104500000D03*
X122700000Y-107500000D03*
%TD*%
%TO.C,A_SW8*%
X86500000Y-95500000D03*
X86500000Y-92500000D03*
%TD*%
%TO.C,B_SW8*%
X136500000Y-95500000D03*
X136500000Y-92500000D03*
%TD*%
%TO.C,A_SW13*%
X86500000Y-54500000D03*
X86500000Y-57500000D03*
%TD*%
D11*
%TO.C,B_MTG1*%
X103500000Y-75000000D03*
%TD*%
D12*
%TO.C,D_U1*%
X113570000Y-128810000D03*
D13*
X116110000Y-128810000D03*
X118650000Y-128810000D03*
X121190000Y-128810000D03*
X123730000Y-128810000D03*
X126270000Y-128810000D03*
X128810000Y-128810000D03*
X131350000Y-128810000D03*
X133890000Y-128810000D03*
X136430000Y-128810000D03*
X136430000Y-121190000D03*
X133890000Y-121190000D03*
X131350000Y-121190000D03*
X128810000Y-121190000D03*
X126270000Y-121190000D03*
X123730000Y-121190000D03*
X121190000Y-121190000D03*
X118650000Y-121190000D03*
X116110000Y-121190000D03*
X113570000Y-121190000D03*
%TD*%
D10*
%TO.C,D_SW2*%
X108900000Y-145500000D03*
X108900000Y-142500000D03*
%TD*%
%TO.C,B_SW5*%
X122700000Y-95500000D03*
X122700000Y-92500000D03*
%TD*%
%TO.C,A_SW3*%
X63500000Y-95500000D03*
X63500000Y-92500000D03*
%TD*%
D11*
%TO.C,A_MTG1*%
X53500000Y-75000000D03*
%TD*%
D10*
%TO.C,B_SW14*%
X131900000Y-54500000D03*
X131900000Y-57500000D03*
%TD*%
%TO.C,A_SW4*%
X68100000Y-95500000D03*
X68100000Y-92500000D03*
%TD*%
%TO.C,B_SW18*%
X113500000Y-54500000D03*
X113500000Y-57500000D03*
%TD*%
%TO.C,C_SW19*%
X58900000Y-104500000D03*
X58900000Y-107500000D03*
%TD*%
%TO.C,D_SW14*%
X131900000Y-104500000D03*
X131900000Y-107500000D03*
%TD*%
%TO.C,B_SW19*%
X108900000Y-54500000D03*
X108900000Y-57500000D03*
%TD*%
%TO.C,A_SW19*%
X58900000Y-54500000D03*
X58900000Y-57500000D03*
%TD*%
%TO.C,B_SW13*%
X136500000Y-54500000D03*
X136500000Y-57500000D03*
%TD*%
%TO.C,C_SW13*%
X86500000Y-104500000D03*
X86500000Y-107500000D03*
%TD*%
%TO.C,A_SW16*%
X72700000Y-54500000D03*
X72700000Y-57500000D03*
%TD*%
%TO.C,B_SW9*%
X141099999Y-95500000D03*
X141099999Y-92500000D03*
%TD*%
%TO.C,D_SW13*%
X136500000Y-104500000D03*
X136500000Y-107500000D03*
%TD*%
%TO.C,C_SW12*%
X91099999Y-104500000D03*
X91099999Y-107500000D03*
%TD*%
D12*
%TO.C,B_U1*%
X113570000Y-78810000D03*
D13*
X116110000Y-78810000D03*
X118650000Y-78810000D03*
X121190000Y-78810000D03*
X123730000Y-78810000D03*
X126270000Y-78810000D03*
X128810000Y-78810000D03*
X131350000Y-78810000D03*
X133890000Y-78810000D03*
X136430000Y-78810000D03*
X136430000Y-71190000D03*
X133890000Y-71190000D03*
X131350000Y-71190000D03*
X128810000Y-71190000D03*
X126270000Y-71190000D03*
X123730000Y-71190000D03*
X121190000Y-71190000D03*
X118650000Y-71190000D03*
X116110000Y-71190000D03*
X113570000Y-71190000D03*
%TD*%
D10*
%TO.C,C_SW9*%
X91099999Y-145500000D03*
X91099999Y-142500000D03*
%TD*%
%TO.C,C_SW14*%
X81900000Y-104500000D03*
X81900000Y-107500000D03*
%TD*%
D14*
%TO.C,D_J1*%
X108300000Y-124175000D03*
D15*
X108300000Y-126715000D03*
%TD*%
D10*
%TO.C,C_SW15*%
X77300000Y-104500000D03*
X77300000Y-107500000D03*
%TD*%
%TO.C,D_SW19*%
X108900000Y-104500000D03*
X108900000Y-107500000D03*
%TD*%
%TO.C,B_SW12*%
X141099999Y-54500000D03*
X141099999Y-57500000D03*
%TD*%
%TO.C,D_SW15*%
X127300000Y-104500000D03*
X127300000Y-107500000D03*
%TD*%
%TO.C,A_SW6*%
X77300000Y-95500000D03*
X77300000Y-92500000D03*
%TD*%
%TO.C,C_SW3*%
X63500000Y-145500000D03*
X63500000Y-142500000D03*
%TD*%
%TO.C,D_SW6*%
X127300000Y-145500000D03*
X127300000Y-142500000D03*
%TD*%
%TO.C,A_SW18*%
X63500000Y-54500000D03*
X63500000Y-57500000D03*
%TD*%
%TO.C,B_SW1*%
X104300000Y-95500000D03*
X104300000Y-92500000D03*
%TD*%
%TO.C,A_SW15*%
X77300000Y-54500000D03*
X77300000Y-57500000D03*
%TD*%
%TO.C,B_SW10*%
X145700000Y-95500000D03*
X145700000Y-92500000D03*
%TD*%
%TO.C,C_SW4*%
X68100000Y-145500000D03*
X68100000Y-142500000D03*
%TD*%
%TO.C,D_SW10*%
X145700000Y-145500000D03*
X145700000Y-142500000D03*
%TD*%
%TO.C,C_SW11*%
X95700000Y-104500000D03*
X95700000Y-107500000D03*
%TD*%
%TO.C,B_SW15*%
X127300000Y-54500000D03*
X127300000Y-57500000D03*
%TD*%
%TO.C,C_SW10*%
X95700000Y-145500000D03*
X95700000Y-142500000D03*
%TD*%
D14*
%TO.C,C_J1*%
X58300000Y-124175000D03*
D15*
X58300000Y-126715000D03*
%TD*%
D10*
%TO.C,C_SW6*%
X77300000Y-145500000D03*
X77300000Y-142500000D03*
%TD*%
D11*
%TO.C,C_MTG1*%
X53500000Y-125000000D03*
%TD*%
D10*
%TO.C,C_SW1*%
X54300000Y-145500000D03*
X54300000Y-142500000D03*
%TD*%
%TO.C,D_SW11*%
X145700000Y-104500000D03*
X145700000Y-107500000D03*
%TD*%
%TO.C,D_SW9*%
X141099999Y-145500000D03*
X141099999Y-142500000D03*
%TD*%
%TO.C,B_SW3*%
X113500000Y-95500000D03*
X113500000Y-92500000D03*
%TD*%
%TO.C,A_SW14*%
X81900000Y-54500000D03*
X81900000Y-57500000D03*
%TD*%
%TO.C,D_SW17*%
X118100000Y-104500000D03*
X118100000Y-107500000D03*
%TD*%
%TO.C,D_SW3*%
X113500000Y-145500000D03*
X113500000Y-142500000D03*
%TD*%
%TO.C,A_SW11*%
X95700000Y-54500000D03*
X95700000Y-57500000D03*
%TD*%
%TO.C,B_SW17*%
X118100000Y-54500000D03*
X118100000Y-57500000D03*
%TD*%
%TO.C,A_SW2*%
X58900000Y-95500000D03*
X58900000Y-92500000D03*
%TD*%
%TO.C,D_SW4*%
X118100000Y-145500000D03*
X118100000Y-142500000D03*
%TD*%
%TO.C,B_SW6*%
X127300000Y-95500000D03*
X127300000Y-92500000D03*
%TD*%
%TO.C,C_SW2*%
X58900000Y-145500000D03*
X58900000Y-142500000D03*
%TD*%
%TO.C,B_SW2*%
X108900000Y-95500000D03*
X108900000Y-92500000D03*
%TD*%
D12*
%TO.C,A_U1*%
X63570000Y-78810000D03*
D13*
X66110000Y-78810000D03*
X68650000Y-78810000D03*
X71190000Y-78810000D03*
X73730000Y-78810000D03*
X76270000Y-78810000D03*
X78810000Y-78810000D03*
X81350000Y-78810000D03*
X83890000Y-78810000D03*
X86430000Y-78810000D03*
X86430000Y-71190000D03*
X83890000Y-71190000D03*
X81350000Y-71190000D03*
X78810000Y-71190000D03*
X76270000Y-71190000D03*
X73730000Y-71190000D03*
X71190000Y-71190000D03*
X68650000Y-71190000D03*
X66110000Y-71190000D03*
X63570000Y-71190000D03*
%TD*%
D10*
%TO.C,C_SW16*%
X72700000Y-104500000D03*
X72700000Y-107500000D03*
%TD*%
%TO.C,B_SW4*%
X118100000Y-95500000D03*
X118100000Y-92500000D03*
%TD*%
%TO.C,A_SW10*%
X95700000Y-95500000D03*
X95700000Y-92500000D03*
%TD*%
D12*
%TO.C,C_U1*%
X63570000Y-128810000D03*
D13*
X66110000Y-128810000D03*
X68650000Y-128810000D03*
X71190000Y-128810000D03*
X73730000Y-128810000D03*
X76270000Y-128810000D03*
X78810000Y-128810000D03*
X81350000Y-128810000D03*
X83890000Y-128810000D03*
X86430000Y-128810000D03*
X86430000Y-121190000D03*
X83890000Y-121190000D03*
X81350000Y-121190000D03*
X78810000Y-121190000D03*
X76270000Y-121190000D03*
X73730000Y-121190000D03*
X71190000Y-121190000D03*
X68650000Y-121190000D03*
X66110000Y-121190000D03*
X63570000Y-121190000D03*
%TD*%
D10*
%TO.C,A_SW9*%
X91099999Y-95500000D03*
X91099999Y-92500000D03*
%TD*%
%TO.C,A_SW5*%
X72700000Y-95500000D03*
X72700000Y-92500000D03*
%TD*%
%TO.C,A_SW17*%
X68100000Y-54500000D03*
X68100000Y-57500000D03*
%TD*%
%TO.C,A_SW1*%
X54300000Y-95500000D03*
X54300000Y-92500000D03*
%TD*%
D14*
%TO.C,B_J1*%
X108300000Y-74175000D03*
D15*
X108300000Y-76715000D03*
%TD*%
D10*
%TO.C,B_SW11*%
X145700000Y-54500000D03*
X145700000Y-57500000D03*
%TD*%
%TO.C,C_SW5*%
X72700000Y-145500000D03*
X72700000Y-142500000D03*
%TD*%
%TO.C,D_SW18*%
X113500000Y-104500000D03*
X113500000Y-107500000D03*
%TD*%
D11*
%TO.C,D_MTG1*%
X103500000Y-125000000D03*
%TD*%
D10*
%TO.C,C_SW17*%
X68100000Y-104500000D03*
X68100000Y-107500000D03*
%TD*%
%TO.C,C_SW8*%
X86500000Y-145500000D03*
X86500000Y-142500000D03*
%TD*%
%TO.C,C_SW18*%
X63500000Y-104500000D03*
X63500000Y-107500000D03*
%TD*%
D14*
%TO.C,A_J1*%
X58300000Y-74175000D03*
D15*
X58300000Y-76715000D03*
%TD*%
D10*
%TO.C,D_SW1*%
X104300000Y-145500000D03*
X104300000Y-142500000D03*
%TD*%
%TO.C,B_SW16*%
X122700000Y-54500000D03*
X122700000Y-57500000D03*
%TD*%
%TO.C,D_SW5*%
X122700000Y-145500000D03*
X122700000Y-142500000D03*
%TD*%
M02*
