%TF.GenerationSoftware,KiCad,Pcbnew,10.0.3*%
%TF.CreationDate,2026-09-25T08:47:11+09:00*%
%TF.ProjectId,commons_gates_panel,636f6d6d-6f6e-4735-9f67-617465735f70,rev?*%
%TF.SameCoordinates,Original*%
%TF.FileFunction,Legend,Top*%
%TF.FilePolarity,Positive*%
%FSLAX46Y46*%
G04 Gerber Fmt 4.6, Leading zero omitted, Abs format (unit mm)*
G04 Created by KiCad (PCBNEW 10.0.3) date 2026-09-25 08:47:11*
%MOMM*%
%LPD*%
G01*
G04 APERTURE LIST*
%ADD10C,0.150000*%
%ADD11C,0.120000*%
G04 APERTURE END LIST*
D10*
X89422493Y-73438485D02*
X89346303Y-73400390D01*
X89346303Y-73400390D02*
X89270112Y-73324200D01*
X89270112Y-73324200D02*
X89155826Y-73209914D01*
X89155826Y-73209914D02*
X89079636Y-73171819D01*
X89079636Y-73171819D02*
X89003445Y-73171819D01*
X89041541Y-73362295D02*
X88965350Y-73324200D01*
X88965350Y-73324200D02*
X88889160Y-73248009D01*
X88889160Y-73248009D02*
X88851064Y-73095628D01*
X88851064Y-73095628D02*
X88851064Y-72828961D01*
X88851064Y-72828961D02*
X88889160Y-72676580D01*
X88889160Y-72676580D02*
X88965350Y-72600390D01*
X88965350Y-72600390D02*
X89041541Y-72562295D01*
X89041541Y-72562295D02*
X89193922Y-72562295D01*
X89193922Y-72562295D02*
X89270112Y-72600390D01*
X89270112Y-72600390D02*
X89346303Y-72676580D01*
X89346303Y-72676580D02*
X89384398Y-72828961D01*
X89384398Y-72828961D02*
X89384398Y-73095628D01*
X89384398Y-73095628D02*
X89346303Y-73248009D01*
X89346303Y-73248009D02*
X89270112Y-73324200D01*
X89270112Y-73324200D02*
X89193922Y-73362295D01*
X89193922Y-73362295D02*
X89041541Y-73362295D01*
X90070112Y-72828961D02*
X90070112Y-73362295D01*
X89727255Y-72828961D02*
X89727255Y-73248009D01*
X89727255Y-73248009D02*
X89765350Y-73324200D01*
X89765350Y-73324200D02*
X89841540Y-73362295D01*
X89841540Y-73362295D02*
X89955826Y-73362295D01*
X89955826Y-73362295D02*
X90032017Y-73324200D01*
X90032017Y-73324200D02*
X90070112Y-73286104D01*
X90793922Y-73362295D02*
X90793922Y-72943247D01*
X90793922Y-72943247D02*
X90755827Y-72867057D01*
X90755827Y-72867057D02*
X90679636Y-72828961D01*
X90679636Y-72828961D02*
X90527255Y-72828961D01*
X90527255Y-72828961D02*
X90451065Y-72867057D01*
X90793922Y-73324200D02*
X90717731Y-73362295D01*
X90717731Y-73362295D02*
X90527255Y-73362295D01*
X90527255Y-73362295D02*
X90451065Y-73324200D01*
X90451065Y-73324200D02*
X90412969Y-73248009D01*
X90412969Y-73248009D02*
X90412969Y-73171819D01*
X90412969Y-73171819D02*
X90451065Y-73095628D01*
X90451065Y-73095628D02*
X90527255Y-73057533D01*
X90527255Y-73057533D02*
X90717731Y-73057533D01*
X90717731Y-73057533D02*
X90793922Y-73019438D01*
X91517732Y-73362295D02*
X91517732Y-72562295D01*
X91517732Y-73324200D02*
X91441541Y-73362295D01*
X91441541Y-73362295D02*
X91289160Y-73362295D01*
X91289160Y-73362295D02*
X91212970Y-73324200D01*
X91212970Y-73324200D02*
X91174875Y-73286104D01*
X91174875Y-73286104D02*
X91136779Y-73209914D01*
X91136779Y-73209914D02*
X91136779Y-72981342D01*
X91136779Y-72981342D02*
X91174875Y-72905152D01*
X91174875Y-72905152D02*
X91212970Y-72867057D01*
X91212970Y-72867057D02*
X91289160Y-72828961D01*
X91289160Y-72828961D02*
X91441541Y-72828961D01*
X91441541Y-72828961D02*
X91517732Y-72867057D01*
X92470113Y-72638485D02*
X92508209Y-72600390D01*
X92508209Y-72600390D02*
X92584399Y-72562295D01*
X92584399Y-72562295D02*
X92774875Y-72562295D01*
X92774875Y-72562295D02*
X92851066Y-72600390D01*
X92851066Y-72600390D02*
X92889161Y-72638485D01*
X92889161Y-72638485D02*
X92927256Y-72714676D01*
X92927256Y-72714676D02*
X92927256Y-72790866D01*
X92927256Y-72790866D02*
X92889161Y-72905152D01*
X92889161Y-72905152D02*
X92432018Y-73362295D01*
X92432018Y-73362295D02*
X92927256Y-73362295D01*
X93270114Y-73057533D02*
X93879638Y-73057533D01*
X94260590Y-73362295D02*
X94260590Y-72828961D01*
X94260590Y-72562295D02*
X94222494Y-72600390D01*
X94222494Y-72600390D02*
X94260590Y-72638485D01*
X94260590Y-72638485D02*
X94298685Y-72600390D01*
X94298685Y-72600390D02*
X94260590Y-72562295D01*
X94260590Y-72562295D02*
X94260590Y-72638485D01*
X94641542Y-72828961D02*
X94641542Y-73362295D01*
X94641542Y-72905152D02*
X94679637Y-72867057D01*
X94679637Y-72867057D02*
X94755827Y-72828961D01*
X94755827Y-72828961D02*
X94870113Y-72828961D01*
X94870113Y-72828961D02*
X94946304Y-72867057D01*
X94946304Y-72867057D02*
X94984399Y-72943247D01*
X94984399Y-72943247D02*
X94984399Y-73362295D01*
X95365352Y-72828961D02*
X95365352Y-73628961D01*
X95365352Y-72867057D02*
X95441542Y-72828961D01*
X95441542Y-72828961D02*
X95593923Y-72828961D01*
X95593923Y-72828961D02*
X95670114Y-72867057D01*
X95670114Y-72867057D02*
X95708209Y-72905152D01*
X95708209Y-72905152D02*
X95746304Y-72981342D01*
X95746304Y-72981342D02*
X95746304Y-73209914D01*
X95746304Y-73209914D02*
X95708209Y-73286104D01*
X95708209Y-73286104D02*
X95670114Y-73324200D01*
X95670114Y-73324200D02*
X95593923Y-73362295D01*
X95593923Y-73362295D02*
X95441542Y-73362295D01*
X95441542Y-73362295D02*
X95365352Y-73324200D01*
X96432019Y-72828961D02*
X96432019Y-73362295D01*
X96089162Y-72828961D02*
X96089162Y-73248009D01*
X96089162Y-73248009D02*
X96127257Y-73324200D01*
X96127257Y-73324200D02*
X96203447Y-73362295D01*
X96203447Y-73362295D02*
X96317733Y-73362295D01*
X96317733Y-73362295D02*
X96393924Y-73324200D01*
X96393924Y-73324200D02*
X96432019Y-73286104D01*
X96698686Y-72828961D02*
X97003448Y-72828961D01*
X96812972Y-72562295D02*
X96812972Y-73248009D01*
X96812972Y-73248009D02*
X96851067Y-73324200D01*
X96851067Y-73324200D02*
X96927257Y-73362295D01*
X96927257Y-73362295D02*
X97003448Y-73362295D01*
X88889160Y-74562295D02*
X88889160Y-73762295D01*
X88889160Y-73762295D02*
X89346303Y-74562295D01*
X89346303Y-74562295D02*
X89346303Y-73762295D01*
X89689159Y-74333723D02*
X90070112Y-74333723D01*
X89612969Y-74562295D02*
X89879636Y-73762295D01*
X89879636Y-73762295D02*
X90146302Y-74562295D01*
X90412969Y-74562295D02*
X90412969Y-73762295D01*
X90412969Y-73762295D02*
X90870112Y-74562295D01*
X90870112Y-74562295D02*
X90870112Y-73762295D01*
X91251064Y-74562295D02*
X91251064Y-73762295D01*
X91251064Y-73762295D02*
X91441540Y-73762295D01*
X91441540Y-73762295D02*
X91555826Y-73800390D01*
X91555826Y-73800390D02*
X91632016Y-73876580D01*
X91632016Y-73876580D02*
X91670111Y-73952771D01*
X91670111Y-73952771D02*
X91708207Y-74105152D01*
X91708207Y-74105152D02*
X91708207Y-74219438D01*
X91708207Y-74219438D02*
X91670111Y-74371819D01*
X91670111Y-74371819D02*
X91632016Y-74448009D01*
X91632016Y-74448009D02*
X91555826Y-74524200D01*
X91555826Y-74524200D02*
X91441540Y-74562295D01*
X91441540Y-74562295D02*
X91251064Y-74562295D01*
X93003445Y-74028961D02*
X93003445Y-74676580D01*
X93003445Y-74676580D02*
X92965350Y-74752771D01*
X92965350Y-74752771D02*
X92927254Y-74790866D01*
X92927254Y-74790866D02*
X92851064Y-74828961D01*
X92851064Y-74828961D02*
X92736778Y-74828961D01*
X92736778Y-74828961D02*
X92660588Y-74790866D01*
X93003445Y-74524200D02*
X92927254Y-74562295D01*
X92927254Y-74562295D02*
X92774873Y-74562295D01*
X92774873Y-74562295D02*
X92698683Y-74524200D01*
X92698683Y-74524200D02*
X92660588Y-74486104D01*
X92660588Y-74486104D02*
X92622492Y-74409914D01*
X92622492Y-74409914D02*
X92622492Y-74181342D01*
X92622492Y-74181342D02*
X92660588Y-74105152D01*
X92660588Y-74105152D02*
X92698683Y-74067057D01*
X92698683Y-74067057D02*
X92774873Y-74028961D01*
X92774873Y-74028961D02*
X92927254Y-74028961D01*
X92927254Y-74028961D02*
X93003445Y-74067057D01*
X93727255Y-74562295D02*
X93727255Y-74143247D01*
X93727255Y-74143247D02*
X93689160Y-74067057D01*
X93689160Y-74067057D02*
X93612969Y-74028961D01*
X93612969Y-74028961D02*
X93460588Y-74028961D01*
X93460588Y-74028961D02*
X93384398Y-74067057D01*
X93727255Y-74524200D02*
X93651064Y-74562295D01*
X93651064Y-74562295D02*
X93460588Y-74562295D01*
X93460588Y-74562295D02*
X93384398Y-74524200D01*
X93384398Y-74524200D02*
X93346302Y-74448009D01*
X93346302Y-74448009D02*
X93346302Y-74371819D01*
X93346302Y-74371819D02*
X93384398Y-74295628D01*
X93384398Y-74295628D02*
X93460588Y-74257533D01*
X93460588Y-74257533D02*
X93651064Y-74257533D01*
X93651064Y-74257533D02*
X93727255Y-74219438D01*
X93993922Y-74028961D02*
X94298684Y-74028961D01*
X94108208Y-73762295D02*
X94108208Y-74448009D01*
X94108208Y-74448009D02*
X94146303Y-74524200D01*
X94146303Y-74524200D02*
X94222493Y-74562295D01*
X94222493Y-74562295D02*
X94298684Y-74562295D01*
X94870113Y-74524200D02*
X94793922Y-74562295D01*
X94793922Y-74562295D02*
X94641541Y-74562295D01*
X94641541Y-74562295D02*
X94565351Y-74524200D01*
X94565351Y-74524200D02*
X94527255Y-74448009D01*
X94527255Y-74448009D02*
X94527255Y-74143247D01*
X94527255Y-74143247D02*
X94565351Y-74067057D01*
X94565351Y-74067057D02*
X94641541Y-74028961D01*
X94641541Y-74028961D02*
X94793922Y-74028961D01*
X94793922Y-74028961D02*
X94870113Y-74067057D01*
X94870113Y-74067057D02*
X94908208Y-74143247D01*
X94908208Y-74143247D02*
X94908208Y-74219438D01*
X94908208Y-74219438D02*
X94527255Y-74295628D01*
X89232017Y-75628960D02*
X89232017Y-76162294D01*
X89041541Y-75324199D02*
X88851064Y-75895627D01*
X88851064Y-75895627D02*
X89346303Y-75895627D01*
X89536779Y-76124199D02*
X90527255Y-76124199D01*
X89536779Y-75324199D02*
X89536779Y-76162294D01*
X89803446Y-75857532D02*
X90260589Y-75857532D01*
X89803446Y-75552770D02*
X89803446Y-75857532D01*
X89536779Y-75324199D02*
X90527255Y-75324199D01*
X90527255Y-75324199D02*
X90527255Y-76162294D01*
X89803446Y-75552770D02*
X90260589Y-75552770D01*
X90260589Y-75552770D02*
X90260589Y-75857532D01*
X90793921Y-75590865D02*
X91098683Y-75590865D01*
X90793921Y-75324199D02*
X90793921Y-75590865D01*
X90793921Y-75743246D02*
X90793921Y-76086103D01*
X90946302Y-75781341D02*
X91098683Y-75781341D01*
X90946302Y-75552770D02*
X90946302Y-76048008D01*
X91098683Y-76048008D02*
X90717731Y-76086103D01*
X91251064Y-75819437D02*
X91251064Y-76162294D01*
X91251064Y-76124199D02*
X91670112Y-76124199D01*
X90793921Y-75324199D02*
X91098683Y-75324199D01*
X91098683Y-75324199D02*
X91098683Y-75590865D01*
X91251064Y-75819437D02*
X91670112Y-75819437D01*
X91670112Y-75819437D02*
X91670112Y-76162294D01*
X91327255Y-75248008D02*
X91251064Y-75438484D01*
X91251064Y-75438484D02*
X91136779Y-75552770D01*
X91289160Y-75400389D02*
X91327255Y-75552770D01*
X91327255Y-75552770D02*
X91555826Y-75781341D01*
X91555826Y-75781341D02*
X91708207Y-75819437D01*
X91289160Y-75362294D02*
X91593921Y-75362294D01*
X91593921Y-75362294D02*
X91517731Y-75552770D01*
X91517731Y-75552770D02*
X91289160Y-75743246D01*
X91289160Y-75743246D02*
X91098683Y-75819437D01*
X91974873Y-75438484D02*
X92012969Y-75400389D01*
X92012969Y-75400389D02*
X92089159Y-75362294D01*
X92089159Y-75362294D02*
X92279635Y-75362294D01*
X92279635Y-75362294D02*
X92355826Y-75400389D01*
X92355826Y-75400389D02*
X92393921Y-75438484D01*
X92393921Y-75438484D02*
X92432016Y-75514675D01*
X92432016Y-75514675D02*
X92432016Y-75590865D01*
X92432016Y-75590865D02*
X92393921Y-75705151D01*
X92393921Y-75705151D02*
X91936778Y-76162294D01*
X91936778Y-76162294D02*
X92432016Y-76162294D01*
X93155826Y-75438484D02*
X93117731Y-75667056D01*
X93117731Y-75667056D02*
X93003445Y-75895627D01*
X93003445Y-75895627D02*
X92736778Y-76162294D01*
X92889159Y-75362294D02*
X93155826Y-75362294D01*
X93155826Y-75362294D02*
X93232017Y-75590865D01*
X93232017Y-75590865D02*
X93346302Y-75895627D01*
X93346302Y-75895627D02*
X93612969Y-76162294D01*
X94451064Y-76162294D02*
X94717730Y-76162294D01*
X93879635Y-75514675D02*
X94832016Y-75514675D01*
X94832016Y-75514675D02*
X94832016Y-75743246D01*
X94832016Y-75743246D02*
X94755826Y-76124199D01*
X94298683Y-75248008D02*
X94298683Y-75590865D01*
X94298683Y-75590865D02*
X94222492Y-75781341D01*
X94222492Y-75781341D02*
X94108207Y-75971818D01*
X94108207Y-75971818D02*
X93879635Y-76162294D01*
X88889160Y-77362295D02*
X88889160Y-76562295D01*
X88889160Y-76562295D02*
X89346303Y-77362295D01*
X89346303Y-77362295D02*
X89346303Y-76562295D01*
X89689159Y-77133723D02*
X90070112Y-77133723D01*
X89612969Y-77362295D02*
X89879636Y-76562295D01*
X89879636Y-76562295D02*
X90146302Y-77362295D01*
X90412969Y-77362295D02*
X90412969Y-76562295D01*
X90412969Y-76562295D02*
X90870112Y-77362295D01*
X90870112Y-77362295D02*
X90870112Y-76562295D01*
X91251064Y-77362295D02*
X91251064Y-76562295D01*
X91251064Y-76562295D02*
X91441540Y-76562295D01*
X91441540Y-76562295D02*
X91555826Y-76600390D01*
X91555826Y-76600390D02*
X91632016Y-76676580D01*
X91632016Y-76676580D02*
X91670111Y-76752771D01*
X91670111Y-76752771D02*
X91708207Y-76905152D01*
X91708207Y-76905152D02*
X91708207Y-77019438D01*
X91708207Y-77019438D02*
X91670111Y-77171819D01*
X91670111Y-77171819D02*
X91632016Y-77248009D01*
X91632016Y-77248009D02*
X91555826Y-77324200D01*
X91555826Y-77324200D02*
X91441540Y-77362295D01*
X91441540Y-77362295D02*
X91251064Y-77362295D01*
X92127254Y-76752771D02*
X92546302Y-76752771D01*
X92393921Y-76600390D02*
X92470111Y-76676580D01*
X92508207Y-76562295D02*
X92584397Y-76638485D01*
X92165349Y-76486104D02*
X92127254Y-76638485D01*
X92127254Y-76638485D02*
X92051064Y-76828961D01*
X92051064Y-76828961D02*
X92012968Y-76981342D01*
X92355826Y-76752771D02*
X92355826Y-76943247D01*
X92355826Y-76943247D02*
X92317730Y-77057533D01*
X92317730Y-77057533D02*
X92241540Y-77171819D01*
X92241540Y-77171819D02*
X92127254Y-77324200D01*
X92812968Y-76943247D02*
X93422492Y-76943247D01*
X93955825Y-76828961D02*
X94184397Y-77019438D01*
X93955825Y-76486104D02*
X93955825Y-77324200D01*
X88774874Y-122562295D02*
X89232017Y-122562295D01*
X89003445Y-123362295D02*
X89003445Y-122562295D01*
X89498684Y-123362295D02*
X89498684Y-122828961D01*
X89498684Y-122981342D02*
X89536779Y-122905152D01*
X89536779Y-122905152D02*
X89574874Y-122867057D01*
X89574874Y-122867057D02*
X89651065Y-122828961D01*
X89651065Y-122828961D02*
X89727255Y-122828961D01*
X89993922Y-123362295D02*
X89993922Y-122828961D01*
X89993922Y-122562295D02*
X89955826Y-122600390D01*
X89955826Y-122600390D02*
X89993922Y-122638485D01*
X89993922Y-122638485D02*
X90032017Y-122600390D01*
X90032017Y-122600390D02*
X89993922Y-122562295D01*
X89993922Y-122562295D02*
X89993922Y-122638485D01*
X90374874Y-122828961D02*
X90374874Y-123628961D01*
X90374874Y-122867057D02*
X90451064Y-122828961D01*
X90451064Y-122828961D02*
X90603445Y-122828961D01*
X90603445Y-122828961D02*
X90679636Y-122867057D01*
X90679636Y-122867057D02*
X90717731Y-122905152D01*
X90717731Y-122905152D02*
X90755826Y-122981342D01*
X90755826Y-122981342D02*
X90755826Y-123209914D01*
X90755826Y-123209914D02*
X90717731Y-123286104D01*
X90717731Y-123286104D02*
X90679636Y-123324200D01*
X90679636Y-123324200D02*
X90603445Y-123362295D01*
X90603445Y-123362295D02*
X90451064Y-123362295D01*
X90451064Y-123362295D02*
X90374874Y-123324200D01*
X91212969Y-123362295D02*
X91136779Y-123324200D01*
X91136779Y-123324200D02*
X91098684Y-123248009D01*
X91098684Y-123248009D02*
X91098684Y-122562295D01*
X91822494Y-123324200D02*
X91746303Y-123362295D01*
X91746303Y-123362295D02*
X91593922Y-123362295D01*
X91593922Y-123362295D02*
X91517732Y-123324200D01*
X91517732Y-123324200D02*
X91479636Y-123248009D01*
X91479636Y-123248009D02*
X91479636Y-122943247D01*
X91479636Y-122943247D02*
X91517732Y-122867057D01*
X91517732Y-122867057D02*
X91593922Y-122828961D01*
X91593922Y-122828961D02*
X91746303Y-122828961D01*
X91746303Y-122828961D02*
X91822494Y-122867057D01*
X91822494Y-122867057D02*
X91860589Y-122943247D01*
X91860589Y-122943247D02*
X91860589Y-123019438D01*
X91860589Y-123019438D02*
X91479636Y-123095628D01*
X92736779Y-122562295D02*
X93232017Y-122562295D01*
X93232017Y-122562295D02*
X92965351Y-122867057D01*
X92965351Y-122867057D02*
X93079636Y-122867057D01*
X93079636Y-122867057D02*
X93155827Y-122905152D01*
X93155827Y-122905152D02*
X93193922Y-122943247D01*
X93193922Y-122943247D02*
X93232017Y-123019438D01*
X93232017Y-123019438D02*
X93232017Y-123209914D01*
X93232017Y-123209914D02*
X93193922Y-123286104D01*
X93193922Y-123286104D02*
X93155827Y-123324200D01*
X93155827Y-123324200D02*
X93079636Y-123362295D01*
X93079636Y-123362295D02*
X92851065Y-123362295D01*
X92851065Y-123362295D02*
X92774874Y-123324200D01*
X92774874Y-123324200D02*
X92736779Y-123286104D01*
X93574875Y-123057533D02*
X94184399Y-123057533D01*
X94565351Y-123362295D02*
X94565351Y-122828961D01*
X94565351Y-122562295D02*
X94527255Y-122600390D01*
X94527255Y-122600390D02*
X94565351Y-122638485D01*
X94565351Y-122638485D02*
X94603446Y-122600390D01*
X94603446Y-122600390D02*
X94565351Y-122562295D01*
X94565351Y-122562295D02*
X94565351Y-122638485D01*
X94946303Y-122828961D02*
X94946303Y-123362295D01*
X94946303Y-122905152D02*
X94984398Y-122867057D01*
X94984398Y-122867057D02*
X95060588Y-122828961D01*
X95060588Y-122828961D02*
X95174874Y-122828961D01*
X95174874Y-122828961D02*
X95251065Y-122867057D01*
X95251065Y-122867057D02*
X95289160Y-122943247D01*
X95289160Y-122943247D02*
X95289160Y-123362295D01*
X95670113Y-122828961D02*
X95670113Y-123628961D01*
X95670113Y-122867057D02*
X95746303Y-122828961D01*
X95746303Y-122828961D02*
X95898684Y-122828961D01*
X95898684Y-122828961D02*
X95974875Y-122867057D01*
X95974875Y-122867057D02*
X96012970Y-122905152D01*
X96012970Y-122905152D02*
X96051065Y-122981342D01*
X96051065Y-122981342D02*
X96051065Y-123209914D01*
X96051065Y-123209914D02*
X96012970Y-123286104D01*
X96012970Y-123286104D02*
X95974875Y-123324200D01*
X95974875Y-123324200D02*
X95898684Y-123362295D01*
X95898684Y-123362295D02*
X95746303Y-123362295D01*
X95746303Y-123362295D02*
X95670113Y-123324200D01*
X96736780Y-122828961D02*
X96736780Y-123362295D01*
X96393923Y-122828961D02*
X96393923Y-123248009D01*
X96393923Y-123248009D02*
X96432018Y-123324200D01*
X96432018Y-123324200D02*
X96508208Y-123362295D01*
X96508208Y-123362295D02*
X96622494Y-123362295D01*
X96622494Y-123362295D02*
X96698685Y-123324200D01*
X96698685Y-123324200D02*
X96736780Y-123286104D01*
X97003447Y-122828961D02*
X97308209Y-122828961D01*
X97117733Y-122562295D02*
X97117733Y-123248009D01*
X97117733Y-123248009D02*
X97155828Y-123324200D01*
X97155828Y-123324200D02*
X97232018Y-123362295D01*
X97232018Y-123362295D02*
X97308209Y-123362295D01*
X88889160Y-124562295D02*
X88889160Y-123762295D01*
X88889160Y-123762295D02*
X89346303Y-124562295D01*
X89346303Y-124562295D02*
X89346303Y-123762295D01*
X89689159Y-124333723D02*
X90070112Y-124333723D01*
X89612969Y-124562295D02*
X89879636Y-123762295D01*
X89879636Y-123762295D02*
X90146302Y-124562295D01*
X90412969Y-124562295D02*
X90412969Y-123762295D01*
X90412969Y-123762295D02*
X90870112Y-124562295D01*
X90870112Y-124562295D02*
X90870112Y-123762295D01*
X91251064Y-124562295D02*
X91251064Y-123762295D01*
X91251064Y-123762295D02*
X91441540Y-123762295D01*
X91441540Y-123762295D02*
X91555826Y-123800390D01*
X91555826Y-123800390D02*
X91632016Y-123876580D01*
X91632016Y-123876580D02*
X91670111Y-123952771D01*
X91670111Y-123952771D02*
X91708207Y-124105152D01*
X91708207Y-124105152D02*
X91708207Y-124219438D01*
X91708207Y-124219438D02*
X91670111Y-124371819D01*
X91670111Y-124371819D02*
X91632016Y-124448009D01*
X91632016Y-124448009D02*
X91555826Y-124524200D01*
X91555826Y-124524200D02*
X91441540Y-124562295D01*
X91441540Y-124562295D02*
X91251064Y-124562295D01*
X93003445Y-124028961D02*
X93003445Y-124676580D01*
X93003445Y-124676580D02*
X92965350Y-124752771D01*
X92965350Y-124752771D02*
X92927254Y-124790866D01*
X92927254Y-124790866D02*
X92851064Y-124828961D01*
X92851064Y-124828961D02*
X92736778Y-124828961D01*
X92736778Y-124828961D02*
X92660588Y-124790866D01*
X93003445Y-124524200D02*
X92927254Y-124562295D01*
X92927254Y-124562295D02*
X92774873Y-124562295D01*
X92774873Y-124562295D02*
X92698683Y-124524200D01*
X92698683Y-124524200D02*
X92660588Y-124486104D01*
X92660588Y-124486104D02*
X92622492Y-124409914D01*
X92622492Y-124409914D02*
X92622492Y-124181342D01*
X92622492Y-124181342D02*
X92660588Y-124105152D01*
X92660588Y-124105152D02*
X92698683Y-124067057D01*
X92698683Y-124067057D02*
X92774873Y-124028961D01*
X92774873Y-124028961D02*
X92927254Y-124028961D01*
X92927254Y-124028961D02*
X93003445Y-124067057D01*
X93727255Y-124562295D02*
X93727255Y-124143247D01*
X93727255Y-124143247D02*
X93689160Y-124067057D01*
X93689160Y-124067057D02*
X93612969Y-124028961D01*
X93612969Y-124028961D02*
X93460588Y-124028961D01*
X93460588Y-124028961D02*
X93384398Y-124067057D01*
X93727255Y-124524200D02*
X93651064Y-124562295D01*
X93651064Y-124562295D02*
X93460588Y-124562295D01*
X93460588Y-124562295D02*
X93384398Y-124524200D01*
X93384398Y-124524200D02*
X93346302Y-124448009D01*
X93346302Y-124448009D02*
X93346302Y-124371819D01*
X93346302Y-124371819D02*
X93384398Y-124295628D01*
X93384398Y-124295628D02*
X93460588Y-124257533D01*
X93460588Y-124257533D02*
X93651064Y-124257533D01*
X93651064Y-124257533D02*
X93727255Y-124219438D01*
X93993922Y-124028961D02*
X94298684Y-124028961D01*
X94108208Y-123762295D02*
X94108208Y-124448009D01*
X94108208Y-124448009D02*
X94146303Y-124524200D01*
X94146303Y-124524200D02*
X94222493Y-124562295D01*
X94222493Y-124562295D02*
X94298684Y-124562295D01*
X94870113Y-124524200D02*
X94793922Y-124562295D01*
X94793922Y-124562295D02*
X94641541Y-124562295D01*
X94641541Y-124562295D02*
X94565351Y-124524200D01*
X94565351Y-124524200D02*
X94527255Y-124448009D01*
X94527255Y-124448009D02*
X94527255Y-124143247D01*
X94527255Y-124143247D02*
X94565351Y-124067057D01*
X94565351Y-124067057D02*
X94641541Y-124028961D01*
X94641541Y-124028961D02*
X94793922Y-124028961D01*
X94793922Y-124028961D02*
X94870113Y-124067057D01*
X94870113Y-124067057D02*
X94908208Y-124143247D01*
X94908208Y-124143247D02*
X94908208Y-124219438D01*
X94908208Y-124219438D02*
X94527255Y-124295628D01*
X88812969Y-125362294D02*
X89308207Y-125362294D01*
X89308207Y-125362294D02*
X89041541Y-125667056D01*
X89041541Y-125667056D02*
X89155826Y-125667056D01*
X89155826Y-125667056D02*
X89232017Y-125705151D01*
X89232017Y-125705151D02*
X89270112Y-125743246D01*
X89270112Y-125743246D02*
X89308207Y-125819437D01*
X89308207Y-125819437D02*
X89308207Y-126009913D01*
X89308207Y-126009913D02*
X89270112Y-126086103D01*
X89270112Y-126086103D02*
X89232017Y-126124199D01*
X89232017Y-126124199D02*
X89155826Y-126162294D01*
X89155826Y-126162294D02*
X88927255Y-126162294D01*
X88927255Y-126162294D02*
X88851064Y-126124199D01*
X88851064Y-126124199D02*
X88812969Y-126086103D01*
X89536779Y-126124199D02*
X90527255Y-126124199D01*
X89536779Y-125324199D02*
X89536779Y-126162294D01*
X89803446Y-125857532D02*
X90260589Y-125857532D01*
X89803446Y-125552770D02*
X89803446Y-125857532D01*
X89536779Y-125324199D02*
X90527255Y-125324199D01*
X90527255Y-125324199D02*
X90527255Y-126162294D01*
X89803446Y-125552770D02*
X90260589Y-125552770D01*
X90260589Y-125552770D02*
X90260589Y-125857532D01*
X90793921Y-125590865D02*
X91098683Y-125590865D01*
X90793921Y-125324199D02*
X90793921Y-125590865D01*
X90793921Y-125743246D02*
X90793921Y-126086103D01*
X90946302Y-125781341D02*
X91098683Y-125781341D01*
X90946302Y-125552770D02*
X90946302Y-126048008D01*
X91098683Y-126048008D02*
X90717731Y-126086103D01*
X91251064Y-125819437D02*
X91251064Y-126162294D01*
X91251064Y-126124199D02*
X91670112Y-126124199D01*
X90793921Y-125324199D02*
X91098683Y-125324199D01*
X91098683Y-125324199D02*
X91098683Y-125590865D01*
X91251064Y-125819437D02*
X91670112Y-125819437D01*
X91670112Y-125819437D02*
X91670112Y-126162294D01*
X91327255Y-125248008D02*
X91251064Y-125438484D01*
X91251064Y-125438484D02*
X91136779Y-125552770D01*
X91289160Y-125400389D02*
X91327255Y-125552770D01*
X91327255Y-125552770D02*
X91555826Y-125781341D01*
X91555826Y-125781341D02*
X91708207Y-125819437D01*
X91289160Y-125362294D02*
X91593921Y-125362294D01*
X91593921Y-125362294D02*
X91517731Y-125552770D01*
X91517731Y-125552770D02*
X91289160Y-125743246D01*
X91289160Y-125743246D02*
X91098683Y-125819437D01*
X91936778Y-125362294D02*
X92432016Y-125362294D01*
X92432016Y-125362294D02*
X92165350Y-125667056D01*
X92165350Y-125667056D02*
X92279635Y-125667056D01*
X92279635Y-125667056D02*
X92355826Y-125705151D01*
X92355826Y-125705151D02*
X92393921Y-125743246D01*
X92393921Y-125743246D02*
X92432016Y-125819437D01*
X92432016Y-125819437D02*
X92432016Y-126009913D01*
X92432016Y-126009913D02*
X92393921Y-126086103D01*
X92393921Y-126086103D02*
X92355826Y-126124199D01*
X92355826Y-126124199D02*
X92279635Y-126162294D01*
X92279635Y-126162294D02*
X92051064Y-126162294D01*
X92051064Y-126162294D02*
X91974873Y-126124199D01*
X91974873Y-126124199D02*
X91936778Y-126086103D01*
X93155826Y-125438484D02*
X93117731Y-125667056D01*
X93117731Y-125667056D02*
X93003445Y-125895627D01*
X93003445Y-125895627D02*
X92736778Y-126162294D01*
X92889159Y-125362294D02*
X93155826Y-125362294D01*
X93155826Y-125362294D02*
X93232017Y-125590865D01*
X93232017Y-125590865D02*
X93346302Y-125895627D01*
X93346302Y-125895627D02*
X93612969Y-126162294D01*
X94451064Y-126162294D02*
X94717730Y-126162294D01*
X93879635Y-125514675D02*
X94832016Y-125514675D01*
X94832016Y-125514675D02*
X94832016Y-125743246D01*
X94832016Y-125743246D02*
X94755826Y-126124199D01*
X94298683Y-125248008D02*
X94298683Y-125590865D01*
X94298683Y-125590865D02*
X94222492Y-125781341D01*
X94222492Y-125781341D02*
X94108207Y-125971818D01*
X94108207Y-125971818D02*
X93879635Y-126162294D01*
X88889160Y-127362295D02*
X88889160Y-126562295D01*
X88889160Y-126562295D02*
X89346303Y-127362295D01*
X89346303Y-127362295D02*
X89346303Y-126562295D01*
X89689159Y-127133723D02*
X90070112Y-127133723D01*
X89612969Y-127362295D02*
X89879636Y-126562295D01*
X89879636Y-126562295D02*
X90146302Y-127362295D01*
X90412969Y-127362295D02*
X90412969Y-126562295D01*
X90412969Y-126562295D02*
X90870112Y-127362295D01*
X90870112Y-127362295D02*
X90870112Y-126562295D01*
X91251064Y-127362295D02*
X91251064Y-126562295D01*
X91251064Y-126562295D02*
X91441540Y-126562295D01*
X91441540Y-126562295D02*
X91555826Y-126600390D01*
X91555826Y-126600390D02*
X91632016Y-126676580D01*
X91632016Y-126676580D02*
X91670111Y-126752771D01*
X91670111Y-126752771D02*
X91708207Y-126905152D01*
X91708207Y-126905152D02*
X91708207Y-127019438D01*
X91708207Y-127019438D02*
X91670111Y-127171819D01*
X91670111Y-127171819D02*
X91632016Y-127248009D01*
X91632016Y-127248009D02*
X91555826Y-127324200D01*
X91555826Y-127324200D02*
X91441540Y-127362295D01*
X91441540Y-127362295D02*
X91251064Y-127362295D01*
X92127254Y-126752771D02*
X92546302Y-126752771D01*
X92393921Y-126600390D02*
X92470111Y-126676580D01*
X92508207Y-126562295D02*
X92584397Y-126638485D01*
X92165349Y-126486104D02*
X92127254Y-126638485D01*
X92127254Y-126638485D02*
X92051064Y-126828961D01*
X92051064Y-126828961D02*
X92012968Y-126981342D01*
X92355826Y-126752771D02*
X92355826Y-126943247D01*
X92355826Y-126943247D02*
X92317730Y-127057533D01*
X92317730Y-127057533D02*
X92241540Y-127171819D01*
X92241540Y-127171819D02*
X92127254Y-127324200D01*
X92812968Y-126943247D02*
X93422492Y-126943247D01*
X93955825Y-126828961D02*
X94184397Y-127019438D01*
X93955825Y-126486104D02*
X93955825Y-127324200D01*
X139422493Y-73438485D02*
X139346303Y-73400390D01*
X139346303Y-73400390D02*
X139270112Y-73324200D01*
X139270112Y-73324200D02*
X139155826Y-73209914D01*
X139155826Y-73209914D02*
X139079636Y-73171819D01*
X139079636Y-73171819D02*
X139003445Y-73171819D01*
X139041541Y-73362295D02*
X138965350Y-73324200D01*
X138965350Y-73324200D02*
X138889160Y-73248009D01*
X138889160Y-73248009D02*
X138851064Y-73095628D01*
X138851064Y-73095628D02*
X138851064Y-72828961D01*
X138851064Y-72828961D02*
X138889160Y-72676580D01*
X138889160Y-72676580D02*
X138965350Y-72600390D01*
X138965350Y-72600390D02*
X139041541Y-72562295D01*
X139041541Y-72562295D02*
X139193922Y-72562295D01*
X139193922Y-72562295D02*
X139270112Y-72600390D01*
X139270112Y-72600390D02*
X139346303Y-72676580D01*
X139346303Y-72676580D02*
X139384398Y-72828961D01*
X139384398Y-72828961D02*
X139384398Y-73095628D01*
X139384398Y-73095628D02*
X139346303Y-73248009D01*
X139346303Y-73248009D02*
X139270112Y-73324200D01*
X139270112Y-73324200D02*
X139193922Y-73362295D01*
X139193922Y-73362295D02*
X139041541Y-73362295D01*
X140070112Y-72828961D02*
X140070112Y-73362295D01*
X139727255Y-72828961D02*
X139727255Y-73248009D01*
X139727255Y-73248009D02*
X139765350Y-73324200D01*
X139765350Y-73324200D02*
X139841540Y-73362295D01*
X139841540Y-73362295D02*
X139955826Y-73362295D01*
X139955826Y-73362295D02*
X140032017Y-73324200D01*
X140032017Y-73324200D02*
X140070112Y-73286104D01*
X140793922Y-73362295D02*
X140793922Y-72943247D01*
X140793922Y-72943247D02*
X140755827Y-72867057D01*
X140755827Y-72867057D02*
X140679636Y-72828961D01*
X140679636Y-72828961D02*
X140527255Y-72828961D01*
X140527255Y-72828961D02*
X140451065Y-72867057D01*
X140793922Y-73324200D02*
X140717731Y-73362295D01*
X140717731Y-73362295D02*
X140527255Y-73362295D01*
X140527255Y-73362295D02*
X140451065Y-73324200D01*
X140451065Y-73324200D02*
X140412969Y-73248009D01*
X140412969Y-73248009D02*
X140412969Y-73171819D01*
X140412969Y-73171819D02*
X140451065Y-73095628D01*
X140451065Y-73095628D02*
X140527255Y-73057533D01*
X140527255Y-73057533D02*
X140717731Y-73057533D01*
X140717731Y-73057533D02*
X140793922Y-73019438D01*
X141517732Y-73362295D02*
X141517732Y-72562295D01*
X141517732Y-73324200D02*
X141441541Y-73362295D01*
X141441541Y-73362295D02*
X141289160Y-73362295D01*
X141289160Y-73362295D02*
X141212970Y-73324200D01*
X141212970Y-73324200D02*
X141174875Y-73286104D01*
X141174875Y-73286104D02*
X141136779Y-73209914D01*
X141136779Y-73209914D02*
X141136779Y-72981342D01*
X141136779Y-72981342D02*
X141174875Y-72905152D01*
X141174875Y-72905152D02*
X141212970Y-72867057D01*
X141212970Y-72867057D02*
X141289160Y-72828961D01*
X141289160Y-72828961D02*
X141441541Y-72828961D01*
X141441541Y-72828961D02*
X141517732Y-72867057D01*
X142470113Y-72638485D02*
X142508209Y-72600390D01*
X142508209Y-72600390D02*
X142584399Y-72562295D01*
X142584399Y-72562295D02*
X142774875Y-72562295D01*
X142774875Y-72562295D02*
X142851066Y-72600390D01*
X142851066Y-72600390D02*
X142889161Y-72638485D01*
X142889161Y-72638485D02*
X142927256Y-72714676D01*
X142927256Y-72714676D02*
X142927256Y-72790866D01*
X142927256Y-72790866D02*
X142889161Y-72905152D01*
X142889161Y-72905152D02*
X142432018Y-73362295D01*
X142432018Y-73362295D02*
X142927256Y-73362295D01*
X143270114Y-73057533D02*
X143879638Y-73057533D01*
X144260590Y-73362295D02*
X144260590Y-72828961D01*
X144260590Y-72562295D02*
X144222494Y-72600390D01*
X144222494Y-72600390D02*
X144260590Y-72638485D01*
X144260590Y-72638485D02*
X144298685Y-72600390D01*
X144298685Y-72600390D02*
X144260590Y-72562295D01*
X144260590Y-72562295D02*
X144260590Y-72638485D01*
X144641542Y-72828961D02*
X144641542Y-73362295D01*
X144641542Y-72905152D02*
X144679637Y-72867057D01*
X144679637Y-72867057D02*
X144755827Y-72828961D01*
X144755827Y-72828961D02*
X144870113Y-72828961D01*
X144870113Y-72828961D02*
X144946304Y-72867057D01*
X144946304Y-72867057D02*
X144984399Y-72943247D01*
X144984399Y-72943247D02*
X144984399Y-73362295D01*
X145365352Y-72828961D02*
X145365352Y-73628961D01*
X145365352Y-72867057D02*
X145441542Y-72828961D01*
X145441542Y-72828961D02*
X145593923Y-72828961D01*
X145593923Y-72828961D02*
X145670114Y-72867057D01*
X145670114Y-72867057D02*
X145708209Y-72905152D01*
X145708209Y-72905152D02*
X145746304Y-72981342D01*
X145746304Y-72981342D02*
X145746304Y-73209914D01*
X145746304Y-73209914D02*
X145708209Y-73286104D01*
X145708209Y-73286104D02*
X145670114Y-73324200D01*
X145670114Y-73324200D02*
X145593923Y-73362295D01*
X145593923Y-73362295D02*
X145441542Y-73362295D01*
X145441542Y-73362295D02*
X145365352Y-73324200D01*
X146432019Y-72828961D02*
X146432019Y-73362295D01*
X146089162Y-72828961D02*
X146089162Y-73248009D01*
X146089162Y-73248009D02*
X146127257Y-73324200D01*
X146127257Y-73324200D02*
X146203447Y-73362295D01*
X146203447Y-73362295D02*
X146317733Y-73362295D01*
X146317733Y-73362295D02*
X146393924Y-73324200D01*
X146393924Y-73324200D02*
X146432019Y-73286104D01*
X146698686Y-72828961D02*
X147003448Y-72828961D01*
X146812972Y-72562295D02*
X146812972Y-73248009D01*
X146812972Y-73248009D02*
X146851067Y-73324200D01*
X146851067Y-73324200D02*
X146927257Y-73362295D01*
X146927257Y-73362295D02*
X147003448Y-73362295D01*
X138851064Y-74333723D02*
X139232017Y-74333723D01*
X138774874Y-74562295D02*
X139041541Y-73762295D01*
X139041541Y-73762295D02*
X139308207Y-74562295D01*
X139574874Y-74562295D02*
X139574874Y-73762295D01*
X139574874Y-73762295D02*
X140032017Y-74562295D01*
X140032017Y-74562295D02*
X140032017Y-73762295D01*
X140412969Y-74562295D02*
X140412969Y-73762295D01*
X140412969Y-73762295D02*
X140603445Y-73762295D01*
X140603445Y-73762295D02*
X140717731Y-73800390D01*
X140717731Y-73800390D02*
X140793921Y-73876580D01*
X140793921Y-73876580D02*
X140832016Y-73952771D01*
X140832016Y-73952771D02*
X140870112Y-74105152D01*
X140870112Y-74105152D02*
X140870112Y-74219438D01*
X140870112Y-74219438D02*
X140832016Y-74371819D01*
X140832016Y-74371819D02*
X140793921Y-74448009D01*
X140793921Y-74448009D02*
X140717731Y-74524200D01*
X140717731Y-74524200D02*
X140603445Y-74562295D01*
X140603445Y-74562295D02*
X140412969Y-74562295D01*
X142165350Y-74028961D02*
X142165350Y-74676580D01*
X142165350Y-74676580D02*
X142127255Y-74752771D01*
X142127255Y-74752771D02*
X142089159Y-74790866D01*
X142089159Y-74790866D02*
X142012969Y-74828961D01*
X142012969Y-74828961D02*
X141898683Y-74828961D01*
X141898683Y-74828961D02*
X141822493Y-74790866D01*
X142165350Y-74524200D02*
X142089159Y-74562295D01*
X142089159Y-74562295D02*
X141936778Y-74562295D01*
X141936778Y-74562295D02*
X141860588Y-74524200D01*
X141860588Y-74524200D02*
X141822493Y-74486104D01*
X141822493Y-74486104D02*
X141784397Y-74409914D01*
X141784397Y-74409914D02*
X141784397Y-74181342D01*
X141784397Y-74181342D02*
X141822493Y-74105152D01*
X141822493Y-74105152D02*
X141860588Y-74067057D01*
X141860588Y-74067057D02*
X141936778Y-74028961D01*
X141936778Y-74028961D02*
X142089159Y-74028961D01*
X142089159Y-74028961D02*
X142165350Y-74067057D01*
X142889160Y-74562295D02*
X142889160Y-74143247D01*
X142889160Y-74143247D02*
X142851065Y-74067057D01*
X142851065Y-74067057D02*
X142774874Y-74028961D01*
X142774874Y-74028961D02*
X142622493Y-74028961D01*
X142622493Y-74028961D02*
X142546303Y-74067057D01*
X142889160Y-74524200D02*
X142812969Y-74562295D01*
X142812969Y-74562295D02*
X142622493Y-74562295D01*
X142622493Y-74562295D02*
X142546303Y-74524200D01*
X142546303Y-74524200D02*
X142508207Y-74448009D01*
X142508207Y-74448009D02*
X142508207Y-74371819D01*
X142508207Y-74371819D02*
X142546303Y-74295628D01*
X142546303Y-74295628D02*
X142622493Y-74257533D01*
X142622493Y-74257533D02*
X142812969Y-74257533D01*
X142812969Y-74257533D02*
X142889160Y-74219438D01*
X143155827Y-74028961D02*
X143460589Y-74028961D01*
X143270113Y-73762295D02*
X143270113Y-74448009D01*
X143270113Y-74448009D02*
X143308208Y-74524200D01*
X143308208Y-74524200D02*
X143384398Y-74562295D01*
X143384398Y-74562295D02*
X143460589Y-74562295D01*
X144032018Y-74524200D02*
X143955827Y-74562295D01*
X143955827Y-74562295D02*
X143803446Y-74562295D01*
X143803446Y-74562295D02*
X143727256Y-74524200D01*
X143727256Y-74524200D02*
X143689160Y-74448009D01*
X143689160Y-74448009D02*
X143689160Y-74143247D01*
X143689160Y-74143247D02*
X143727256Y-74067057D01*
X143727256Y-74067057D02*
X143803446Y-74028961D01*
X143803446Y-74028961D02*
X143955827Y-74028961D01*
X143955827Y-74028961D02*
X144032018Y-74067057D01*
X144032018Y-74067057D02*
X144070113Y-74143247D01*
X144070113Y-74143247D02*
X144070113Y-74219438D01*
X144070113Y-74219438D02*
X143689160Y-74295628D01*
X139232017Y-75628960D02*
X139232017Y-76162294D01*
X139041541Y-75324199D02*
X138851064Y-75895627D01*
X138851064Y-75895627D02*
X139346303Y-75895627D01*
X139536779Y-76124199D02*
X140527255Y-76124199D01*
X139536779Y-75324199D02*
X139536779Y-76162294D01*
X139803446Y-75857532D02*
X140260589Y-75857532D01*
X139803446Y-75552770D02*
X139803446Y-75857532D01*
X139536779Y-75324199D02*
X140527255Y-75324199D01*
X140527255Y-75324199D02*
X140527255Y-76162294D01*
X139803446Y-75552770D02*
X140260589Y-75552770D01*
X140260589Y-75552770D02*
X140260589Y-75857532D01*
X140793921Y-75590865D02*
X141098683Y-75590865D01*
X140793921Y-75324199D02*
X140793921Y-75590865D01*
X140793921Y-75743246D02*
X140793921Y-76086103D01*
X140946302Y-75781341D02*
X141098683Y-75781341D01*
X140946302Y-75552770D02*
X140946302Y-76048008D01*
X141098683Y-76048008D02*
X140717731Y-76086103D01*
X141251064Y-75819437D02*
X141251064Y-76162294D01*
X141251064Y-76124199D02*
X141670112Y-76124199D01*
X140793921Y-75324199D02*
X141098683Y-75324199D01*
X141098683Y-75324199D02*
X141098683Y-75590865D01*
X141251064Y-75819437D02*
X141670112Y-75819437D01*
X141670112Y-75819437D02*
X141670112Y-76162294D01*
X141327255Y-75248008D02*
X141251064Y-75438484D01*
X141251064Y-75438484D02*
X141136779Y-75552770D01*
X141289160Y-75400389D02*
X141327255Y-75552770D01*
X141327255Y-75552770D02*
X141555826Y-75781341D01*
X141555826Y-75781341D02*
X141708207Y-75819437D01*
X141289160Y-75362294D02*
X141593921Y-75362294D01*
X141593921Y-75362294D02*
X141517731Y-75552770D01*
X141517731Y-75552770D02*
X141289160Y-75743246D01*
X141289160Y-75743246D02*
X141098683Y-75819437D01*
X141974873Y-75438484D02*
X142012969Y-75400389D01*
X142012969Y-75400389D02*
X142089159Y-75362294D01*
X142089159Y-75362294D02*
X142279635Y-75362294D01*
X142279635Y-75362294D02*
X142355826Y-75400389D01*
X142355826Y-75400389D02*
X142393921Y-75438484D01*
X142393921Y-75438484D02*
X142432016Y-75514675D01*
X142432016Y-75514675D02*
X142432016Y-75590865D01*
X142432016Y-75590865D02*
X142393921Y-75705151D01*
X142393921Y-75705151D02*
X141936778Y-76162294D01*
X141936778Y-76162294D02*
X142432016Y-76162294D01*
X143155826Y-75438484D02*
X143117731Y-75667056D01*
X143117731Y-75667056D02*
X143003445Y-75895627D01*
X143003445Y-75895627D02*
X142736778Y-76162294D01*
X142889159Y-75362294D02*
X143155826Y-75362294D01*
X143155826Y-75362294D02*
X143232017Y-75590865D01*
X143232017Y-75590865D02*
X143346302Y-75895627D01*
X143346302Y-75895627D02*
X143612969Y-76162294D01*
X144451064Y-76162294D02*
X144717730Y-76162294D01*
X143879635Y-75514675D02*
X144832016Y-75514675D01*
X144832016Y-75514675D02*
X144832016Y-75743246D01*
X144832016Y-75743246D02*
X144755826Y-76124199D01*
X144298683Y-75248008D02*
X144298683Y-75590865D01*
X144298683Y-75590865D02*
X144222492Y-75781341D01*
X144222492Y-75781341D02*
X144108207Y-75971818D01*
X144108207Y-75971818D02*
X143879635Y-76162294D01*
X145098682Y-75933722D02*
X145479635Y-75933722D01*
X145022492Y-76162294D02*
X145289159Y-75362294D01*
X145289159Y-75362294D02*
X145555825Y-76162294D01*
X145822492Y-76162294D02*
X145822492Y-75362294D01*
X145822492Y-75362294D02*
X146279635Y-76162294D01*
X146279635Y-76162294D02*
X146279635Y-75362294D01*
X146660587Y-76162294D02*
X146660587Y-75362294D01*
X146660587Y-75362294D02*
X146851063Y-75362294D01*
X146851063Y-75362294D02*
X146965349Y-75400389D01*
X146965349Y-75400389D02*
X147041539Y-75476579D01*
X147041539Y-75476579D02*
X147079634Y-75552770D01*
X147079634Y-75552770D02*
X147117730Y-75705151D01*
X147117730Y-75705151D02*
X147117730Y-75819437D01*
X147117730Y-75819437D02*
X147079634Y-75971818D01*
X147079634Y-75971818D02*
X147041539Y-76048008D01*
X147041539Y-76048008D02*
X146965349Y-76124199D01*
X146965349Y-76124199D02*
X146851063Y-76162294D01*
X146851063Y-76162294D02*
X146660587Y-76162294D01*
X138965350Y-76752771D02*
X139384398Y-76752771D01*
X139232017Y-76600390D02*
X139308207Y-76676580D01*
X139346303Y-76562295D02*
X139422493Y-76638485D01*
X139003445Y-76486104D02*
X138965350Y-76638485D01*
X138965350Y-76638485D02*
X138889160Y-76828961D01*
X138889160Y-76828961D02*
X138851064Y-76981342D01*
X139193922Y-76752771D02*
X139193922Y-76943247D01*
X139193922Y-76943247D02*
X139155826Y-77057533D01*
X139155826Y-77057533D02*
X139079636Y-77171819D01*
X139079636Y-77171819D02*
X138965350Y-77324200D01*
X139651064Y-76943247D02*
X140260588Y-76943247D01*
X140793921Y-76828961D02*
X141022493Y-77019438D01*
X140793921Y-76486104D02*
X140793921Y-77324200D01*
X138889160Y-123362295D02*
X138889160Y-122562295D01*
X138889160Y-122562295D02*
X139079636Y-122562295D01*
X139079636Y-122562295D02*
X139193922Y-122600390D01*
X139193922Y-122600390D02*
X139270112Y-122676580D01*
X139270112Y-122676580D02*
X139308207Y-122752771D01*
X139308207Y-122752771D02*
X139346303Y-122905152D01*
X139346303Y-122905152D02*
X139346303Y-123019438D01*
X139346303Y-123019438D02*
X139308207Y-123171819D01*
X139308207Y-123171819D02*
X139270112Y-123248009D01*
X139270112Y-123248009D02*
X139193922Y-123324200D01*
X139193922Y-123324200D02*
X139079636Y-123362295D01*
X139079636Y-123362295D02*
X138889160Y-123362295D01*
X140032017Y-122828961D02*
X140032017Y-123362295D01*
X139689160Y-122828961D02*
X139689160Y-123248009D01*
X139689160Y-123248009D02*
X139727255Y-123324200D01*
X139727255Y-123324200D02*
X139803445Y-123362295D01*
X139803445Y-123362295D02*
X139917731Y-123362295D01*
X139917731Y-123362295D02*
X139993922Y-123324200D01*
X139993922Y-123324200D02*
X140032017Y-123286104D01*
X140755827Y-123362295D02*
X140755827Y-122943247D01*
X140755827Y-122943247D02*
X140717732Y-122867057D01*
X140717732Y-122867057D02*
X140641541Y-122828961D01*
X140641541Y-122828961D02*
X140489160Y-122828961D01*
X140489160Y-122828961D02*
X140412970Y-122867057D01*
X140755827Y-123324200D02*
X140679636Y-123362295D01*
X140679636Y-123362295D02*
X140489160Y-123362295D01*
X140489160Y-123362295D02*
X140412970Y-123324200D01*
X140412970Y-123324200D02*
X140374874Y-123248009D01*
X140374874Y-123248009D02*
X140374874Y-123171819D01*
X140374874Y-123171819D02*
X140412970Y-123095628D01*
X140412970Y-123095628D02*
X140489160Y-123057533D01*
X140489160Y-123057533D02*
X140679636Y-123057533D01*
X140679636Y-123057533D02*
X140755827Y-123019438D01*
X141251065Y-123362295D02*
X141174875Y-123324200D01*
X141174875Y-123324200D02*
X141136780Y-123248009D01*
X141136780Y-123248009D02*
X141136780Y-122562295D01*
X142508209Y-122828961D02*
X142508209Y-123362295D01*
X142317733Y-122524200D02*
X142127256Y-123095628D01*
X142127256Y-123095628D02*
X142622495Y-123095628D01*
X142927257Y-123057533D02*
X143536781Y-123057533D01*
X143917733Y-123362295D02*
X143917733Y-122828961D01*
X143917733Y-122562295D02*
X143879637Y-122600390D01*
X143879637Y-122600390D02*
X143917733Y-122638485D01*
X143917733Y-122638485D02*
X143955828Y-122600390D01*
X143955828Y-122600390D02*
X143917733Y-122562295D01*
X143917733Y-122562295D02*
X143917733Y-122638485D01*
X144298685Y-122828961D02*
X144298685Y-123362295D01*
X144298685Y-122905152D02*
X144336780Y-122867057D01*
X144336780Y-122867057D02*
X144412970Y-122828961D01*
X144412970Y-122828961D02*
X144527256Y-122828961D01*
X144527256Y-122828961D02*
X144603447Y-122867057D01*
X144603447Y-122867057D02*
X144641542Y-122943247D01*
X144641542Y-122943247D02*
X144641542Y-123362295D01*
X145022495Y-122828961D02*
X145022495Y-123628961D01*
X145022495Y-122867057D02*
X145098685Y-122828961D01*
X145098685Y-122828961D02*
X145251066Y-122828961D01*
X145251066Y-122828961D02*
X145327257Y-122867057D01*
X145327257Y-122867057D02*
X145365352Y-122905152D01*
X145365352Y-122905152D02*
X145403447Y-122981342D01*
X145403447Y-122981342D02*
X145403447Y-123209914D01*
X145403447Y-123209914D02*
X145365352Y-123286104D01*
X145365352Y-123286104D02*
X145327257Y-123324200D01*
X145327257Y-123324200D02*
X145251066Y-123362295D01*
X145251066Y-123362295D02*
X145098685Y-123362295D01*
X145098685Y-123362295D02*
X145022495Y-123324200D01*
X146089162Y-122828961D02*
X146089162Y-123362295D01*
X145746305Y-122828961D02*
X145746305Y-123248009D01*
X145746305Y-123248009D02*
X145784400Y-123324200D01*
X145784400Y-123324200D02*
X145860590Y-123362295D01*
X145860590Y-123362295D02*
X145974876Y-123362295D01*
X145974876Y-123362295D02*
X146051067Y-123324200D01*
X146051067Y-123324200D02*
X146089162Y-123286104D01*
X146355829Y-122828961D02*
X146660591Y-122828961D01*
X146470115Y-122562295D02*
X146470115Y-123248009D01*
X146470115Y-123248009D02*
X146508210Y-123324200D01*
X146508210Y-123324200D02*
X146584400Y-123362295D01*
X146584400Y-123362295D02*
X146660591Y-123362295D01*
X138851064Y-124333723D02*
X139232017Y-124333723D01*
X138774874Y-124562295D02*
X139041541Y-123762295D01*
X139041541Y-123762295D02*
X139308207Y-124562295D01*
X139574874Y-124562295D02*
X139574874Y-123762295D01*
X139574874Y-123762295D02*
X140032017Y-124562295D01*
X140032017Y-124562295D02*
X140032017Y-123762295D01*
X140412969Y-124562295D02*
X140412969Y-123762295D01*
X140412969Y-123762295D02*
X140603445Y-123762295D01*
X140603445Y-123762295D02*
X140717731Y-123800390D01*
X140717731Y-123800390D02*
X140793921Y-123876580D01*
X140793921Y-123876580D02*
X140832016Y-123952771D01*
X140832016Y-123952771D02*
X140870112Y-124105152D01*
X140870112Y-124105152D02*
X140870112Y-124219438D01*
X140870112Y-124219438D02*
X140832016Y-124371819D01*
X140832016Y-124371819D02*
X140793921Y-124448009D01*
X140793921Y-124448009D02*
X140717731Y-124524200D01*
X140717731Y-124524200D02*
X140603445Y-124562295D01*
X140603445Y-124562295D02*
X140412969Y-124562295D01*
X142165350Y-124028961D02*
X142165350Y-124676580D01*
X142165350Y-124676580D02*
X142127255Y-124752771D01*
X142127255Y-124752771D02*
X142089159Y-124790866D01*
X142089159Y-124790866D02*
X142012969Y-124828961D01*
X142012969Y-124828961D02*
X141898683Y-124828961D01*
X141898683Y-124828961D02*
X141822493Y-124790866D01*
X142165350Y-124524200D02*
X142089159Y-124562295D01*
X142089159Y-124562295D02*
X141936778Y-124562295D01*
X141936778Y-124562295D02*
X141860588Y-124524200D01*
X141860588Y-124524200D02*
X141822493Y-124486104D01*
X141822493Y-124486104D02*
X141784397Y-124409914D01*
X141784397Y-124409914D02*
X141784397Y-124181342D01*
X141784397Y-124181342D02*
X141822493Y-124105152D01*
X141822493Y-124105152D02*
X141860588Y-124067057D01*
X141860588Y-124067057D02*
X141936778Y-124028961D01*
X141936778Y-124028961D02*
X142089159Y-124028961D01*
X142089159Y-124028961D02*
X142165350Y-124067057D01*
X142889160Y-124562295D02*
X142889160Y-124143247D01*
X142889160Y-124143247D02*
X142851065Y-124067057D01*
X142851065Y-124067057D02*
X142774874Y-124028961D01*
X142774874Y-124028961D02*
X142622493Y-124028961D01*
X142622493Y-124028961D02*
X142546303Y-124067057D01*
X142889160Y-124524200D02*
X142812969Y-124562295D01*
X142812969Y-124562295D02*
X142622493Y-124562295D01*
X142622493Y-124562295D02*
X142546303Y-124524200D01*
X142546303Y-124524200D02*
X142508207Y-124448009D01*
X142508207Y-124448009D02*
X142508207Y-124371819D01*
X142508207Y-124371819D02*
X142546303Y-124295628D01*
X142546303Y-124295628D02*
X142622493Y-124257533D01*
X142622493Y-124257533D02*
X142812969Y-124257533D01*
X142812969Y-124257533D02*
X142889160Y-124219438D01*
X143155827Y-124028961D02*
X143460589Y-124028961D01*
X143270113Y-123762295D02*
X143270113Y-124448009D01*
X143270113Y-124448009D02*
X143308208Y-124524200D01*
X143308208Y-124524200D02*
X143384398Y-124562295D01*
X143384398Y-124562295D02*
X143460589Y-124562295D01*
X144032018Y-124524200D02*
X143955827Y-124562295D01*
X143955827Y-124562295D02*
X143803446Y-124562295D01*
X143803446Y-124562295D02*
X143727256Y-124524200D01*
X143727256Y-124524200D02*
X143689160Y-124448009D01*
X143689160Y-124448009D02*
X143689160Y-124143247D01*
X143689160Y-124143247D02*
X143727256Y-124067057D01*
X143727256Y-124067057D02*
X143803446Y-124028961D01*
X143803446Y-124028961D02*
X143955827Y-124028961D01*
X143955827Y-124028961D02*
X144032018Y-124067057D01*
X144032018Y-124067057D02*
X144070113Y-124143247D01*
X144070113Y-124143247D02*
X144070113Y-124219438D01*
X144070113Y-124219438D02*
X143689160Y-124295628D01*
X138851064Y-125438484D02*
X138889160Y-125400389D01*
X138889160Y-125400389D02*
X138965350Y-125362294D01*
X138965350Y-125362294D02*
X139155826Y-125362294D01*
X139155826Y-125362294D02*
X139232017Y-125400389D01*
X139232017Y-125400389D02*
X139270112Y-125438484D01*
X139270112Y-125438484D02*
X139308207Y-125514675D01*
X139308207Y-125514675D02*
X139308207Y-125590865D01*
X139308207Y-125590865D02*
X139270112Y-125705151D01*
X139270112Y-125705151D02*
X138812969Y-126162294D01*
X138812969Y-126162294D02*
X139308207Y-126162294D01*
X139536779Y-126124199D02*
X140527255Y-126124199D01*
X139536779Y-125324199D02*
X139536779Y-126162294D01*
X139803446Y-125857532D02*
X140260589Y-125857532D01*
X139803446Y-125552770D02*
X139803446Y-125857532D01*
X139536779Y-125324199D02*
X140527255Y-125324199D01*
X140527255Y-125324199D02*
X140527255Y-126162294D01*
X139803446Y-125552770D02*
X140260589Y-125552770D01*
X140260589Y-125552770D02*
X140260589Y-125857532D01*
X140793921Y-125590865D02*
X141098683Y-125590865D01*
X140793921Y-125324199D02*
X140793921Y-125590865D01*
X140793921Y-125743246D02*
X140793921Y-126086103D01*
X140946302Y-125781341D02*
X141098683Y-125781341D01*
X140946302Y-125552770D02*
X140946302Y-126048008D01*
X141098683Y-126048008D02*
X140717731Y-126086103D01*
X141251064Y-125819437D02*
X141251064Y-126162294D01*
X141251064Y-126124199D02*
X141670112Y-126124199D01*
X140793921Y-125324199D02*
X141098683Y-125324199D01*
X141098683Y-125324199D02*
X141098683Y-125590865D01*
X141251064Y-125819437D02*
X141670112Y-125819437D01*
X141670112Y-125819437D02*
X141670112Y-126162294D01*
X141327255Y-125248008D02*
X141251064Y-125438484D01*
X141251064Y-125438484D02*
X141136779Y-125552770D01*
X141289160Y-125400389D02*
X141327255Y-125552770D01*
X141327255Y-125552770D02*
X141555826Y-125781341D01*
X141555826Y-125781341D02*
X141708207Y-125819437D01*
X141289160Y-125362294D02*
X141593921Y-125362294D01*
X141593921Y-125362294D02*
X141517731Y-125552770D01*
X141517731Y-125552770D02*
X141289160Y-125743246D01*
X141289160Y-125743246D02*
X141098683Y-125819437D01*
X142355826Y-125628960D02*
X142355826Y-126162294D01*
X142165350Y-125324199D02*
X141974873Y-125895627D01*
X141974873Y-125895627D02*
X142470112Y-125895627D01*
X143155826Y-125438484D02*
X143117731Y-125667056D01*
X143117731Y-125667056D02*
X143003445Y-125895627D01*
X143003445Y-125895627D02*
X142736778Y-126162294D01*
X142889159Y-125362294D02*
X143155826Y-125362294D01*
X143155826Y-125362294D02*
X143232017Y-125590865D01*
X143232017Y-125590865D02*
X143346302Y-125895627D01*
X143346302Y-125895627D02*
X143612969Y-126162294D01*
X144451064Y-126162294D02*
X144717730Y-126162294D01*
X143879635Y-125514675D02*
X144832016Y-125514675D01*
X144832016Y-125514675D02*
X144832016Y-125743246D01*
X144832016Y-125743246D02*
X144755826Y-126124199D01*
X144298683Y-125248008D02*
X144298683Y-125590865D01*
X144298683Y-125590865D02*
X144222492Y-125781341D01*
X144222492Y-125781341D02*
X144108207Y-125971818D01*
X144108207Y-125971818D02*
X143879635Y-126162294D01*
X145098682Y-125933722D02*
X145479635Y-125933722D01*
X145022492Y-126162294D02*
X145289159Y-125362294D01*
X145289159Y-125362294D02*
X145555825Y-126162294D01*
X145822492Y-126162294D02*
X145822492Y-125362294D01*
X145822492Y-125362294D02*
X146279635Y-126162294D01*
X146279635Y-126162294D02*
X146279635Y-125362294D01*
X146660587Y-126162294D02*
X146660587Y-125362294D01*
X146660587Y-125362294D02*
X146851063Y-125362294D01*
X146851063Y-125362294D02*
X146965349Y-125400389D01*
X146965349Y-125400389D02*
X147041539Y-125476579D01*
X147041539Y-125476579D02*
X147079634Y-125552770D01*
X147079634Y-125552770D02*
X147117730Y-125705151D01*
X147117730Y-125705151D02*
X147117730Y-125819437D01*
X147117730Y-125819437D02*
X147079634Y-125971818D01*
X147079634Y-125971818D02*
X147041539Y-126048008D01*
X147041539Y-126048008D02*
X146965349Y-126124199D01*
X146965349Y-126124199D02*
X146851063Y-126162294D01*
X146851063Y-126162294D02*
X146660587Y-126162294D01*
X138965350Y-126752771D02*
X139384398Y-126752771D01*
X139232017Y-126600390D02*
X139308207Y-126676580D01*
X139346303Y-126562295D02*
X139422493Y-126638485D01*
X139003445Y-126486104D02*
X138965350Y-126638485D01*
X138965350Y-126638485D02*
X138889160Y-126828961D01*
X138889160Y-126828961D02*
X138851064Y-126981342D01*
X139193922Y-126752771D02*
X139193922Y-126943247D01*
X139193922Y-126943247D02*
X139155826Y-127057533D01*
X139155826Y-127057533D02*
X139079636Y-127171819D01*
X139079636Y-127171819D02*
X138965350Y-127324200D01*
X139651064Y-126943247D02*
X140260588Y-126943247D01*
X140793921Y-126828961D02*
X141022493Y-127019438D01*
X140793921Y-126486104D02*
X140793921Y-127324200D01*
X53233333Y-50562295D02*
X53500000Y-51362295D01*
X53500000Y-51362295D02*
X53766666Y-50562295D01*
X54490476Y-51286104D02*
X54452380Y-51324200D01*
X54452380Y-51324200D02*
X54338095Y-51362295D01*
X54338095Y-51362295D02*
X54261904Y-51362295D01*
X54261904Y-51362295D02*
X54147618Y-51324200D01*
X54147618Y-51324200D02*
X54071428Y-51248009D01*
X54071428Y-51248009D02*
X54033333Y-51171819D01*
X54033333Y-51171819D02*
X53995237Y-51019438D01*
X53995237Y-51019438D02*
X53995237Y-50905152D01*
X53995237Y-50905152D02*
X54033333Y-50752771D01*
X54033333Y-50752771D02*
X54071428Y-50676580D01*
X54071428Y-50676580D02*
X54147618Y-50600390D01*
X54147618Y-50600390D02*
X54261904Y-50562295D01*
X54261904Y-50562295D02*
X54338095Y-50562295D01*
X54338095Y-50562295D02*
X54452380Y-50600390D01*
X54452380Y-50600390D02*
X54490476Y-50638485D01*
X55290476Y-51286104D02*
X55252380Y-51324200D01*
X55252380Y-51324200D02*
X55138095Y-51362295D01*
X55138095Y-51362295D02*
X55061904Y-51362295D01*
X55061904Y-51362295D02*
X54947618Y-51324200D01*
X54947618Y-51324200D02*
X54871428Y-51248009D01*
X54871428Y-51248009D02*
X54833333Y-51171819D01*
X54833333Y-51171819D02*
X54795237Y-51019438D01*
X54795237Y-51019438D02*
X54795237Y-50905152D01*
X54795237Y-50905152D02*
X54833333Y-50752771D01*
X54833333Y-50752771D02*
X54871428Y-50676580D01*
X54871428Y-50676580D02*
X54947618Y-50600390D01*
X54947618Y-50600390D02*
X55061904Y-50562295D01*
X55061904Y-50562295D02*
X55138095Y-50562295D01*
X55138095Y-50562295D02*
X55252380Y-50600390D01*
X55252380Y-50600390D02*
X55290476Y-50638485D01*
X54185714Y-99362295D02*
X53728571Y-99362295D01*
X53957143Y-99362295D02*
X53957143Y-98562295D01*
X53957143Y-98562295D02*
X53880952Y-98676580D01*
X53880952Y-98676580D02*
X53804762Y-98752771D01*
X53804762Y-98752771D02*
X53728571Y-98790866D01*
X54490476Y-99133723D02*
X54871429Y-99133723D01*
X54414286Y-99362295D02*
X54680953Y-98562295D01*
X54680953Y-98562295D02*
X54947619Y-99362295D01*
X53233333Y-100562295D02*
X53500000Y-101362295D01*
X53500000Y-101362295D02*
X53766666Y-100562295D01*
X54490476Y-101286104D02*
X54452380Y-101324200D01*
X54452380Y-101324200D02*
X54338095Y-101362295D01*
X54338095Y-101362295D02*
X54261904Y-101362295D01*
X54261904Y-101362295D02*
X54147618Y-101324200D01*
X54147618Y-101324200D02*
X54071428Y-101248009D01*
X54071428Y-101248009D02*
X54033333Y-101171819D01*
X54033333Y-101171819D02*
X53995237Y-101019438D01*
X53995237Y-101019438D02*
X53995237Y-100905152D01*
X53995237Y-100905152D02*
X54033333Y-100752771D01*
X54033333Y-100752771D02*
X54071428Y-100676580D01*
X54071428Y-100676580D02*
X54147618Y-100600390D01*
X54147618Y-100600390D02*
X54261904Y-100562295D01*
X54261904Y-100562295D02*
X54338095Y-100562295D01*
X54338095Y-100562295D02*
X54452380Y-100600390D01*
X54452380Y-100600390D02*
X54490476Y-100638485D01*
X55290476Y-101286104D02*
X55252380Y-101324200D01*
X55252380Y-101324200D02*
X55138095Y-101362295D01*
X55138095Y-101362295D02*
X55061904Y-101362295D01*
X55061904Y-101362295D02*
X54947618Y-101324200D01*
X54947618Y-101324200D02*
X54871428Y-101248009D01*
X54871428Y-101248009D02*
X54833333Y-101171819D01*
X54833333Y-101171819D02*
X54795237Y-101019438D01*
X54795237Y-101019438D02*
X54795237Y-100905152D01*
X54795237Y-100905152D02*
X54833333Y-100752771D01*
X54833333Y-100752771D02*
X54871428Y-100676580D01*
X54871428Y-100676580D02*
X54947618Y-100600390D01*
X54947618Y-100600390D02*
X55061904Y-100562295D01*
X55061904Y-100562295D02*
X55138095Y-100562295D01*
X55138095Y-100562295D02*
X55252380Y-100600390D01*
X55252380Y-100600390D02*
X55290476Y-100638485D01*
X54185714Y-149362295D02*
X53728571Y-149362295D01*
X53957143Y-149362295D02*
X53957143Y-148562295D01*
X53957143Y-148562295D02*
X53880952Y-148676580D01*
X53880952Y-148676580D02*
X53804762Y-148752771D01*
X53804762Y-148752771D02*
X53728571Y-148790866D01*
X54490476Y-149133723D02*
X54871429Y-149133723D01*
X54414286Y-149362295D02*
X54680953Y-148562295D01*
X54680953Y-148562295D02*
X54947619Y-149362295D01*
X54471429Y-72057533D02*
X55080953Y-72057533D01*
X54776191Y-72362295D02*
X54776191Y-71752771D01*
X55842857Y-71562295D02*
X55461905Y-71562295D01*
X55461905Y-71562295D02*
X55423809Y-71943247D01*
X55423809Y-71943247D02*
X55461905Y-71905152D01*
X55461905Y-71905152D02*
X55538095Y-71867057D01*
X55538095Y-71867057D02*
X55728571Y-71867057D01*
X55728571Y-71867057D02*
X55804762Y-71905152D01*
X55804762Y-71905152D02*
X55842857Y-71943247D01*
X55842857Y-71943247D02*
X55880952Y-72019438D01*
X55880952Y-72019438D02*
X55880952Y-72209914D01*
X55880952Y-72209914D02*
X55842857Y-72286104D01*
X55842857Y-72286104D02*
X55804762Y-72324200D01*
X55804762Y-72324200D02*
X55728571Y-72362295D01*
X55728571Y-72362295D02*
X55538095Y-72362295D01*
X55538095Y-72362295D02*
X55461905Y-72324200D01*
X55461905Y-72324200D02*
X55423809Y-72286104D01*
X56109524Y-71562295D02*
X56376191Y-72362295D01*
X56376191Y-72362295D02*
X56642857Y-71562295D01*
X54890476Y-78500390D02*
X54814286Y-78462295D01*
X54814286Y-78462295D02*
X54700000Y-78462295D01*
X54700000Y-78462295D02*
X54585714Y-78500390D01*
X54585714Y-78500390D02*
X54509524Y-78576580D01*
X54509524Y-78576580D02*
X54471429Y-78652771D01*
X54471429Y-78652771D02*
X54433333Y-78805152D01*
X54433333Y-78805152D02*
X54433333Y-78919438D01*
X54433333Y-78919438D02*
X54471429Y-79071819D01*
X54471429Y-79071819D02*
X54509524Y-79148009D01*
X54509524Y-79148009D02*
X54585714Y-79224200D01*
X54585714Y-79224200D02*
X54700000Y-79262295D01*
X54700000Y-79262295D02*
X54776191Y-79262295D01*
X54776191Y-79262295D02*
X54890476Y-79224200D01*
X54890476Y-79224200D02*
X54928572Y-79186104D01*
X54928572Y-79186104D02*
X54928572Y-78919438D01*
X54928572Y-78919438D02*
X54776191Y-78919438D01*
X55271429Y-79262295D02*
X55271429Y-78462295D01*
X55271429Y-78462295D02*
X55728572Y-79262295D01*
X55728572Y-79262295D02*
X55728572Y-78462295D01*
X56109524Y-79262295D02*
X56109524Y-78462295D01*
X56109524Y-78462295D02*
X56300000Y-78462295D01*
X56300000Y-78462295D02*
X56414286Y-78500390D01*
X56414286Y-78500390D02*
X56490476Y-78576580D01*
X56490476Y-78576580D02*
X56528571Y-78652771D01*
X56528571Y-78652771D02*
X56566667Y-78805152D01*
X56566667Y-78805152D02*
X56566667Y-78919438D01*
X56566667Y-78919438D02*
X56528571Y-79071819D01*
X56528571Y-79071819D02*
X56490476Y-79148009D01*
X56490476Y-79148009D02*
X56414286Y-79224200D01*
X56414286Y-79224200D02*
X56300000Y-79262295D01*
X56300000Y-79262295D02*
X56109524Y-79262295D01*
X54471429Y-122057533D02*
X55080953Y-122057533D01*
X54776191Y-122362295D02*
X54776191Y-121752771D01*
X55842857Y-121562295D02*
X55461905Y-121562295D01*
X55461905Y-121562295D02*
X55423809Y-121943247D01*
X55423809Y-121943247D02*
X55461905Y-121905152D01*
X55461905Y-121905152D02*
X55538095Y-121867057D01*
X55538095Y-121867057D02*
X55728571Y-121867057D01*
X55728571Y-121867057D02*
X55804762Y-121905152D01*
X55804762Y-121905152D02*
X55842857Y-121943247D01*
X55842857Y-121943247D02*
X55880952Y-122019438D01*
X55880952Y-122019438D02*
X55880952Y-122209914D01*
X55880952Y-122209914D02*
X55842857Y-122286104D01*
X55842857Y-122286104D02*
X55804762Y-122324200D01*
X55804762Y-122324200D02*
X55728571Y-122362295D01*
X55728571Y-122362295D02*
X55538095Y-122362295D01*
X55538095Y-122362295D02*
X55461905Y-122324200D01*
X55461905Y-122324200D02*
X55423809Y-122286104D01*
X56109524Y-121562295D02*
X56376191Y-122362295D01*
X56376191Y-122362295D02*
X56642857Y-121562295D01*
X54890476Y-128500390D02*
X54814286Y-128462295D01*
X54814286Y-128462295D02*
X54700000Y-128462295D01*
X54700000Y-128462295D02*
X54585714Y-128500390D01*
X54585714Y-128500390D02*
X54509524Y-128576580D01*
X54509524Y-128576580D02*
X54471429Y-128652771D01*
X54471429Y-128652771D02*
X54433333Y-128805152D01*
X54433333Y-128805152D02*
X54433333Y-128919438D01*
X54433333Y-128919438D02*
X54471429Y-129071819D01*
X54471429Y-129071819D02*
X54509524Y-129148009D01*
X54509524Y-129148009D02*
X54585714Y-129224200D01*
X54585714Y-129224200D02*
X54700000Y-129262295D01*
X54700000Y-129262295D02*
X54776191Y-129262295D01*
X54776191Y-129262295D02*
X54890476Y-129224200D01*
X54890476Y-129224200D02*
X54928572Y-129186104D01*
X54928572Y-129186104D02*
X54928572Y-128919438D01*
X54928572Y-128919438D02*
X54776191Y-128919438D01*
X55271429Y-129262295D02*
X55271429Y-128462295D01*
X55271429Y-128462295D02*
X55728572Y-129262295D01*
X55728572Y-129262295D02*
X55728572Y-128462295D01*
X56109524Y-129262295D02*
X56109524Y-128462295D01*
X56109524Y-128462295D02*
X56300000Y-128462295D01*
X56300000Y-128462295D02*
X56414286Y-128500390D01*
X56414286Y-128500390D02*
X56490476Y-128576580D01*
X56490476Y-128576580D02*
X56528571Y-128652771D01*
X56528571Y-128652771D02*
X56566667Y-128805152D01*
X56566667Y-128805152D02*
X56566667Y-128919438D01*
X56566667Y-128919438D02*
X56528571Y-129071819D01*
X56528571Y-129071819D02*
X56490476Y-129148009D01*
X56490476Y-129148009D02*
X56414286Y-129224200D01*
X56414286Y-129224200D02*
X56300000Y-129262295D01*
X56300000Y-129262295D02*
X56109524Y-129262295D01*
X58652381Y-50828961D02*
X58652381Y-51362295D01*
X58461905Y-50524200D02*
X58271428Y-51095628D01*
X58271428Y-51095628D02*
X58766667Y-51095628D01*
X59338095Y-50943247D02*
X59452381Y-50981342D01*
X59452381Y-50981342D02*
X59490476Y-51019438D01*
X59490476Y-51019438D02*
X59528572Y-51095628D01*
X59528572Y-51095628D02*
X59528572Y-51209914D01*
X59528572Y-51209914D02*
X59490476Y-51286104D01*
X59490476Y-51286104D02*
X59452381Y-51324200D01*
X59452381Y-51324200D02*
X59376191Y-51362295D01*
X59376191Y-51362295D02*
X59071429Y-51362295D01*
X59071429Y-51362295D02*
X59071429Y-50562295D01*
X59071429Y-50562295D02*
X59338095Y-50562295D01*
X59338095Y-50562295D02*
X59414286Y-50600390D01*
X59414286Y-50600390D02*
X59452381Y-50638485D01*
X59452381Y-50638485D02*
X59490476Y-50714676D01*
X59490476Y-50714676D02*
X59490476Y-50790866D01*
X59490476Y-50790866D02*
X59452381Y-50867057D01*
X59452381Y-50867057D02*
X59414286Y-50905152D01*
X59414286Y-50905152D02*
X59338095Y-50943247D01*
X59338095Y-50943247D02*
X59071429Y-50943247D01*
X58728571Y-99362295D02*
X58271428Y-99362295D01*
X58500000Y-99362295D02*
X58500000Y-98562295D01*
X58500000Y-98562295D02*
X58423809Y-98676580D01*
X58423809Y-98676580D02*
X58347619Y-98752771D01*
X58347619Y-98752771D02*
X58271428Y-98790866D01*
X59338095Y-98943247D02*
X59452381Y-98981342D01*
X59452381Y-98981342D02*
X59490476Y-99019438D01*
X59490476Y-99019438D02*
X59528572Y-99095628D01*
X59528572Y-99095628D02*
X59528572Y-99209914D01*
X59528572Y-99209914D02*
X59490476Y-99286104D01*
X59490476Y-99286104D02*
X59452381Y-99324200D01*
X59452381Y-99324200D02*
X59376191Y-99362295D01*
X59376191Y-99362295D02*
X59071429Y-99362295D01*
X59071429Y-99362295D02*
X59071429Y-98562295D01*
X59071429Y-98562295D02*
X59338095Y-98562295D01*
X59338095Y-98562295D02*
X59414286Y-98600390D01*
X59414286Y-98600390D02*
X59452381Y-98638485D01*
X59452381Y-98638485D02*
X59490476Y-98714676D01*
X59490476Y-98714676D02*
X59490476Y-98790866D01*
X59490476Y-98790866D02*
X59452381Y-98867057D01*
X59452381Y-98867057D02*
X59414286Y-98905152D01*
X59414286Y-98905152D02*
X59338095Y-98943247D01*
X59338095Y-98943247D02*
X59071429Y-98943247D01*
X58728571Y-101362295D02*
X58271428Y-101362295D01*
X58500000Y-101362295D02*
X58500000Y-100562295D01*
X58500000Y-100562295D02*
X58423809Y-100676580D01*
X58423809Y-100676580D02*
X58347619Y-100752771D01*
X58347619Y-100752771D02*
X58271428Y-100790866D01*
X59528572Y-101286104D02*
X59490476Y-101324200D01*
X59490476Y-101324200D02*
X59376191Y-101362295D01*
X59376191Y-101362295D02*
X59300000Y-101362295D01*
X59300000Y-101362295D02*
X59185714Y-101324200D01*
X59185714Y-101324200D02*
X59109524Y-101248009D01*
X59109524Y-101248009D02*
X59071429Y-101171819D01*
X59071429Y-101171819D02*
X59033333Y-101019438D01*
X59033333Y-101019438D02*
X59033333Y-100905152D01*
X59033333Y-100905152D02*
X59071429Y-100752771D01*
X59071429Y-100752771D02*
X59109524Y-100676580D01*
X59109524Y-100676580D02*
X59185714Y-100600390D01*
X59185714Y-100600390D02*
X59300000Y-100562295D01*
X59300000Y-100562295D02*
X59376191Y-100562295D01*
X59376191Y-100562295D02*
X59490476Y-100600390D01*
X59490476Y-100600390D02*
X59528572Y-100638485D01*
X58728571Y-149362295D02*
X58271428Y-149362295D01*
X58500000Y-149362295D02*
X58500000Y-148562295D01*
X58500000Y-148562295D02*
X58423809Y-148676580D01*
X58423809Y-148676580D02*
X58347619Y-148752771D01*
X58347619Y-148752771D02*
X58271428Y-148790866D01*
X59338095Y-148943247D02*
X59452381Y-148981342D01*
X59452381Y-148981342D02*
X59490476Y-149019438D01*
X59490476Y-149019438D02*
X59528572Y-149095628D01*
X59528572Y-149095628D02*
X59528572Y-149209914D01*
X59528572Y-149209914D02*
X59490476Y-149286104D01*
X59490476Y-149286104D02*
X59452381Y-149324200D01*
X59452381Y-149324200D02*
X59376191Y-149362295D01*
X59376191Y-149362295D02*
X59071429Y-149362295D01*
X59071429Y-149362295D02*
X59071429Y-148562295D01*
X59071429Y-148562295D02*
X59338095Y-148562295D01*
X59338095Y-148562295D02*
X59414286Y-148600390D01*
X59414286Y-148600390D02*
X59452381Y-148638485D01*
X59452381Y-148638485D02*
X59490476Y-148714676D01*
X59490476Y-148714676D02*
X59490476Y-148790866D01*
X59490476Y-148790866D02*
X59452381Y-148867057D01*
X59452381Y-148867057D02*
X59414286Y-148905152D01*
X59414286Y-148905152D02*
X59338095Y-148943247D01*
X59338095Y-148943247D02*
X59071429Y-148943247D01*
X63309524Y-50828961D02*
X63309524Y-51362295D01*
X63119048Y-50524200D02*
X62928571Y-51095628D01*
X62928571Y-51095628D02*
X63423810Y-51095628D01*
X63690476Y-51133723D02*
X64071429Y-51133723D01*
X63614286Y-51362295D02*
X63880953Y-50562295D01*
X63880953Y-50562295D02*
X64147619Y-51362295D01*
X63385714Y-99362295D02*
X62928571Y-99362295D01*
X63157143Y-99362295D02*
X63157143Y-98562295D01*
X63157143Y-98562295D02*
X63080952Y-98676580D01*
X63080952Y-98676580D02*
X63004762Y-98752771D01*
X63004762Y-98752771D02*
X62928571Y-98790866D01*
X63880953Y-98981342D02*
X63880953Y-99362295D01*
X63614286Y-98562295D02*
X63880953Y-98981342D01*
X63880953Y-98981342D02*
X64147619Y-98562295D01*
X63385714Y-101362295D02*
X62928571Y-101362295D01*
X63157143Y-101362295D02*
X63157143Y-100562295D01*
X63157143Y-100562295D02*
X63080952Y-100676580D01*
X63080952Y-100676580D02*
X63004762Y-100752771D01*
X63004762Y-100752771D02*
X62928571Y-100790866D01*
X63880953Y-100981342D02*
X63880953Y-101362295D01*
X63614286Y-100562295D02*
X63880953Y-100981342D01*
X63880953Y-100981342D02*
X64147619Y-100562295D01*
X62928571Y-148638485D02*
X62966667Y-148600390D01*
X62966667Y-148600390D02*
X63042857Y-148562295D01*
X63042857Y-148562295D02*
X63233333Y-148562295D01*
X63233333Y-148562295D02*
X63309524Y-148600390D01*
X63309524Y-148600390D02*
X63347619Y-148638485D01*
X63347619Y-148638485D02*
X63385714Y-148714676D01*
X63385714Y-148714676D02*
X63385714Y-148790866D01*
X63385714Y-148790866D02*
X63347619Y-148905152D01*
X63347619Y-148905152D02*
X62890476Y-149362295D01*
X62890476Y-149362295D02*
X63385714Y-149362295D01*
X63690476Y-149133723D02*
X64071429Y-149133723D01*
X63614286Y-149362295D02*
X63880953Y-148562295D01*
X63880953Y-148562295D02*
X64147619Y-149362295D01*
X67909524Y-50828961D02*
X67909524Y-51362295D01*
X67719048Y-50524200D02*
X67528571Y-51095628D01*
X67528571Y-51095628D02*
X68023810Y-51095628D01*
X68480953Y-50981342D02*
X68480953Y-51362295D01*
X68214286Y-50562295D02*
X68480953Y-50981342D01*
X68480953Y-50981342D02*
X68747619Y-50562295D01*
X67528571Y-98638485D02*
X67566667Y-98600390D01*
X67566667Y-98600390D02*
X67642857Y-98562295D01*
X67642857Y-98562295D02*
X67833333Y-98562295D01*
X67833333Y-98562295D02*
X67909524Y-98600390D01*
X67909524Y-98600390D02*
X67947619Y-98638485D01*
X67947619Y-98638485D02*
X67985714Y-98714676D01*
X67985714Y-98714676D02*
X67985714Y-98790866D01*
X67985714Y-98790866D02*
X67947619Y-98905152D01*
X67947619Y-98905152D02*
X67490476Y-99362295D01*
X67490476Y-99362295D02*
X67985714Y-99362295D01*
X68290476Y-99133723D02*
X68671429Y-99133723D01*
X68214286Y-99362295D02*
X68480953Y-98562295D01*
X68480953Y-98562295D02*
X68747619Y-99362295D01*
X67433333Y-100562295D02*
X67928571Y-100562295D01*
X67928571Y-100562295D02*
X67661905Y-100867057D01*
X67661905Y-100867057D02*
X67776190Y-100867057D01*
X67776190Y-100867057D02*
X67852381Y-100905152D01*
X67852381Y-100905152D02*
X67890476Y-100943247D01*
X67890476Y-100943247D02*
X67928571Y-101019438D01*
X67928571Y-101019438D02*
X67928571Y-101209914D01*
X67928571Y-101209914D02*
X67890476Y-101286104D01*
X67890476Y-101286104D02*
X67852381Y-101324200D01*
X67852381Y-101324200D02*
X67776190Y-101362295D01*
X67776190Y-101362295D02*
X67547619Y-101362295D01*
X67547619Y-101362295D02*
X67471428Y-101324200D01*
X67471428Y-101324200D02*
X67433333Y-101286104D01*
X68728572Y-101286104D02*
X68690476Y-101324200D01*
X68690476Y-101324200D02*
X68576191Y-101362295D01*
X68576191Y-101362295D02*
X68500000Y-101362295D01*
X68500000Y-101362295D02*
X68385714Y-101324200D01*
X68385714Y-101324200D02*
X68309524Y-101248009D01*
X68309524Y-101248009D02*
X68271429Y-101171819D01*
X68271429Y-101171819D02*
X68233333Y-101019438D01*
X68233333Y-101019438D02*
X68233333Y-100905152D01*
X68233333Y-100905152D02*
X68271429Y-100752771D01*
X68271429Y-100752771D02*
X68309524Y-100676580D01*
X68309524Y-100676580D02*
X68385714Y-100600390D01*
X68385714Y-100600390D02*
X68500000Y-100562295D01*
X68500000Y-100562295D02*
X68576191Y-100562295D01*
X68576191Y-100562295D02*
X68690476Y-100600390D01*
X68690476Y-100600390D02*
X68728572Y-100638485D01*
X67471428Y-148638485D02*
X67509524Y-148600390D01*
X67509524Y-148600390D02*
X67585714Y-148562295D01*
X67585714Y-148562295D02*
X67776190Y-148562295D01*
X67776190Y-148562295D02*
X67852381Y-148600390D01*
X67852381Y-148600390D02*
X67890476Y-148638485D01*
X67890476Y-148638485D02*
X67928571Y-148714676D01*
X67928571Y-148714676D02*
X67928571Y-148790866D01*
X67928571Y-148790866D02*
X67890476Y-148905152D01*
X67890476Y-148905152D02*
X67433333Y-149362295D01*
X67433333Y-149362295D02*
X67928571Y-149362295D01*
X68538095Y-148943247D02*
X68652381Y-148981342D01*
X68652381Y-148981342D02*
X68690476Y-149019438D01*
X68690476Y-149019438D02*
X68728572Y-149095628D01*
X68728572Y-149095628D02*
X68728572Y-149209914D01*
X68728572Y-149209914D02*
X68690476Y-149286104D01*
X68690476Y-149286104D02*
X68652381Y-149324200D01*
X68652381Y-149324200D02*
X68576191Y-149362295D01*
X68576191Y-149362295D02*
X68271429Y-149362295D01*
X68271429Y-149362295D02*
X68271429Y-148562295D01*
X68271429Y-148562295D02*
X68538095Y-148562295D01*
X68538095Y-148562295D02*
X68614286Y-148600390D01*
X68614286Y-148600390D02*
X68652381Y-148638485D01*
X68652381Y-148638485D02*
X68690476Y-148714676D01*
X68690476Y-148714676D02*
X68690476Y-148790866D01*
X68690476Y-148790866D02*
X68652381Y-148867057D01*
X68652381Y-148867057D02*
X68614286Y-148905152D01*
X68614286Y-148905152D02*
X68538095Y-148943247D01*
X68538095Y-148943247D02*
X68271429Y-148943247D01*
X72033333Y-50562295D02*
X72528571Y-50562295D01*
X72528571Y-50562295D02*
X72261905Y-50867057D01*
X72261905Y-50867057D02*
X72376190Y-50867057D01*
X72376190Y-50867057D02*
X72452381Y-50905152D01*
X72452381Y-50905152D02*
X72490476Y-50943247D01*
X72490476Y-50943247D02*
X72528571Y-51019438D01*
X72528571Y-51019438D02*
X72528571Y-51209914D01*
X72528571Y-51209914D02*
X72490476Y-51286104D01*
X72490476Y-51286104D02*
X72452381Y-51324200D01*
X72452381Y-51324200D02*
X72376190Y-51362295D01*
X72376190Y-51362295D02*
X72147619Y-51362295D01*
X72147619Y-51362295D02*
X72071428Y-51324200D01*
X72071428Y-51324200D02*
X72033333Y-51286104D01*
X73138095Y-50943247D02*
X73252381Y-50981342D01*
X73252381Y-50981342D02*
X73290476Y-51019438D01*
X73290476Y-51019438D02*
X73328572Y-51095628D01*
X73328572Y-51095628D02*
X73328572Y-51209914D01*
X73328572Y-51209914D02*
X73290476Y-51286104D01*
X73290476Y-51286104D02*
X73252381Y-51324200D01*
X73252381Y-51324200D02*
X73176191Y-51362295D01*
X73176191Y-51362295D02*
X72871429Y-51362295D01*
X72871429Y-51362295D02*
X72871429Y-50562295D01*
X72871429Y-50562295D02*
X73138095Y-50562295D01*
X73138095Y-50562295D02*
X73214286Y-50600390D01*
X73214286Y-50600390D02*
X73252381Y-50638485D01*
X73252381Y-50638485D02*
X73290476Y-50714676D01*
X73290476Y-50714676D02*
X73290476Y-50790866D01*
X73290476Y-50790866D02*
X73252381Y-50867057D01*
X73252381Y-50867057D02*
X73214286Y-50905152D01*
X73214286Y-50905152D02*
X73138095Y-50943247D01*
X73138095Y-50943247D02*
X72871429Y-50943247D01*
X72071428Y-98638485D02*
X72109524Y-98600390D01*
X72109524Y-98600390D02*
X72185714Y-98562295D01*
X72185714Y-98562295D02*
X72376190Y-98562295D01*
X72376190Y-98562295D02*
X72452381Y-98600390D01*
X72452381Y-98600390D02*
X72490476Y-98638485D01*
X72490476Y-98638485D02*
X72528571Y-98714676D01*
X72528571Y-98714676D02*
X72528571Y-98790866D01*
X72528571Y-98790866D02*
X72490476Y-98905152D01*
X72490476Y-98905152D02*
X72033333Y-99362295D01*
X72033333Y-99362295D02*
X72528571Y-99362295D01*
X73138095Y-98943247D02*
X73252381Y-98981342D01*
X73252381Y-98981342D02*
X73290476Y-99019438D01*
X73290476Y-99019438D02*
X73328572Y-99095628D01*
X73328572Y-99095628D02*
X73328572Y-99209914D01*
X73328572Y-99209914D02*
X73290476Y-99286104D01*
X73290476Y-99286104D02*
X73252381Y-99324200D01*
X73252381Y-99324200D02*
X73176191Y-99362295D01*
X73176191Y-99362295D02*
X72871429Y-99362295D01*
X72871429Y-99362295D02*
X72871429Y-98562295D01*
X72871429Y-98562295D02*
X73138095Y-98562295D01*
X73138095Y-98562295D02*
X73214286Y-98600390D01*
X73214286Y-98600390D02*
X73252381Y-98638485D01*
X73252381Y-98638485D02*
X73290476Y-98714676D01*
X73290476Y-98714676D02*
X73290476Y-98790866D01*
X73290476Y-98790866D02*
X73252381Y-98867057D01*
X73252381Y-98867057D02*
X73214286Y-98905152D01*
X73214286Y-98905152D02*
X73138095Y-98943247D01*
X73138095Y-98943247D02*
X72871429Y-98943247D01*
X72033333Y-100562295D02*
X72528571Y-100562295D01*
X72528571Y-100562295D02*
X72261905Y-100867057D01*
X72261905Y-100867057D02*
X72376190Y-100867057D01*
X72376190Y-100867057D02*
X72452381Y-100905152D01*
X72452381Y-100905152D02*
X72490476Y-100943247D01*
X72490476Y-100943247D02*
X72528571Y-101019438D01*
X72528571Y-101019438D02*
X72528571Y-101209914D01*
X72528571Y-101209914D02*
X72490476Y-101286104D01*
X72490476Y-101286104D02*
X72452381Y-101324200D01*
X72452381Y-101324200D02*
X72376190Y-101362295D01*
X72376190Y-101362295D02*
X72147619Y-101362295D01*
X72147619Y-101362295D02*
X72071428Y-101324200D01*
X72071428Y-101324200D02*
X72033333Y-101286104D01*
X73138095Y-100943247D02*
X73252381Y-100981342D01*
X73252381Y-100981342D02*
X73290476Y-101019438D01*
X73290476Y-101019438D02*
X73328572Y-101095628D01*
X73328572Y-101095628D02*
X73328572Y-101209914D01*
X73328572Y-101209914D02*
X73290476Y-101286104D01*
X73290476Y-101286104D02*
X73252381Y-101324200D01*
X73252381Y-101324200D02*
X73176191Y-101362295D01*
X73176191Y-101362295D02*
X72871429Y-101362295D01*
X72871429Y-101362295D02*
X72871429Y-100562295D01*
X72871429Y-100562295D02*
X73138095Y-100562295D01*
X73138095Y-100562295D02*
X73214286Y-100600390D01*
X73214286Y-100600390D02*
X73252381Y-100638485D01*
X73252381Y-100638485D02*
X73290476Y-100714676D01*
X73290476Y-100714676D02*
X73290476Y-100790866D01*
X73290476Y-100790866D02*
X73252381Y-100867057D01*
X73252381Y-100867057D02*
X73214286Y-100905152D01*
X73214286Y-100905152D02*
X73138095Y-100943247D01*
X73138095Y-100943247D02*
X72871429Y-100943247D01*
X72071428Y-148638485D02*
X72109524Y-148600390D01*
X72109524Y-148600390D02*
X72185714Y-148562295D01*
X72185714Y-148562295D02*
X72376190Y-148562295D01*
X72376190Y-148562295D02*
X72452381Y-148600390D01*
X72452381Y-148600390D02*
X72490476Y-148638485D01*
X72490476Y-148638485D02*
X72528571Y-148714676D01*
X72528571Y-148714676D02*
X72528571Y-148790866D01*
X72528571Y-148790866D02*
X72490476Y-148905152D01*
X72490476Y-148905152D02*
X72033333Y-149362295D01*
X72033333Y-149362295D02*
X72528571Y-149362295D01*
X73328572Y-149286104D02*
X73290476Y-149324200D01*
X73290476Y-149324200D02*
X73176191Y-149362295D01*
X73176191Y-149362295D02*
X73100000Y-149362295D01*
X73100000Y-149362295D02*
X72985714Y-149324200D01*
X72985714Y-149324200D02*
X72909524Y-149248009D01*
X72909524Y-149248009D02*
X72871429Y-149171819D01*
X72871429Y-149171819D02*
X72833333Y-149019438D01*
X72833333Y-149019438D02*
X72833333Y-148905152D01*
X72833333Y-148905152D02*
X72871429Y-148752771D01*
X72871429Y-148752771D02*
X72909524Y-148676580D01*
X72909524Y-148676580D02*
X72985714Y-148600390D01*
X72985714Y-148600390D02*
X73100000Y-148562295D01*
X73100000Y-148562295D02*
X73176191Y-148562295D01*
X73176191Y-148562295D02*
X73290476Y-148600390D01*
X73290476Y-148600390D02*
X73328572Y-148638485D01*
X76690476Y-50562295D02*
X77185714Y-50562295D01*
X77185714Y-50562295D02*
X76919048Y-50867057D01*
X76919048Y-50867057D02*
X77033333Y-50867057D01*
X77033333Y-50867057D02*
X77109524Y-50905152D01*
X77109524Y-50905152D02*
X77147619Y-50943247D01*
X77147619Y-50943247D02*
X77185714Y-51019438D01*
X77185714Y-51019438D02*
X77185714Y-51209914D01*
X77185714Y-51209914D02*
X77147619Y-51286104D01*
X77147619Y-51286104D02*
X77109524Y-51324200D01*
X77109524Y-51324200D02*
X77033333Y-51362295D01*
X77033333Y-51362295D02*
X76804762Y-51362295D01*
X76804762Y-51362295D02*
X76728571Y-51324200D01*
X76728571Y-51324200D02*
X76690476Y-51286104D01*
X77490476Y-51133723D02*
X77871429Y-51133723D01*
X77414286Y-51362295D02*
X77680953Y-50562295D01*
X77680953Y-50562295D02*
X77947619Y-51362295D01*
X76728571Y-98638485D02*
X76766667Y-98600390D01*
X76766667Y-98600390D02*
X76842857Y-98562295D01*
X76842857Y-98562295D02*
X77033333Y-98562295D01*
X77033333Y-98562295D02*
X77109524Y-98600390D01*
X77109524Y-98600390D02*
X77147619Y-98638485D01*
X77147619Y-98638485D02*
X77185714Y-98714676D01*
X77185714Y-98714676D02*
X77185714Y-98790866D01*
X77185714Y-98790866D02*
X77147619Y-98905152D01*
X77147619Y-98905152D02*
X76690476Y-99362295D01*
X76690476Y-99362295D02*
X77185714Y-99362295D01*
X77680953Y-98981342D02*
X77680953Y-99362295D01*
X77414286Y-98562295D02*
X77680953Y-98981342D01*
X77680953Y-98981342D02*
X77947619Y-98562295D01*
X76690476Y-100562295D02*
X77185714Y-100562295D01*
X77185714Y-100562295D02*
X76919048Y-100867057D01*
X76919048Y-100867057D02*
X77033333Y-100867057D01*
X77033333Y-100867057D02*
X77109524Y-100905152D01*
X77109524Y-100905152D02*
X77147619Y-100943247D01*
X77147619Y-100943247D02*
X77185714Y-101019438D01*
X77185714Y-101019438D02*
X77185714Y-101209914D01*
X77185714Y-101209914D02*
X77147619Y-101286104D01*
X77147619Y-101286104D02*
X77109524Y-101324200D01*
X77109524Y-101324200D02*
X77033333Y-101362295D01*
X77033333Y-101362295D02*
X76804762Y-101362295D01*
X76804762Y-101362295D02*
X76728571Y-101324200D01*
X76728571Y-101324200D02*
X76690476Y-101286104D01*
X77490476Y-101133723D02*
X77871429Y-101133723D01*
X77414286Y-101362295D02*
X77680953Y-100562295D01*
X77680953Y-100562295D02*
X77947619Y-101362295D01*
X76728571Y-148638485D02*
X76766667Y-148600390D01*
X76766667Y-148600390D02*
X76842857Y-148562295D01*
X76842857Y-148562295D02*
X77033333Y-148562295D01*
X77033333Y-148562295D02*
X77109524Y-148600390D01*
X77109524Y-148600390D02*
X77147619Y-148638485D01*
X77147619Y-148638485D02*
X77185714Y-148714676D01*
X77185714Y-148714676D02*
X77185714Y-148790866D01*
X77185714Y-148790866D02*
X77147619Y-148905152D01*
X77147619Y-148905152D02*
X76690476Y-149362295D01*
X76690476Y-149362295D02*
X77185714Y-149362295D01*
X77680953Y-148981342D02*
X77680953Y-149362295D01*
X77414286Y-148562295D02*
X77680953Y-148981342D01*
X77680953Y-148981342D02*
X77947619Y-148562295D01*
X81290476Y-50562295D02*
X81785714Y-50562295D01*
X81785714Y-50562295D02*
X81519048Y-50867057D01*
X81519048Y-50867057D02*
X81633333Y-50867057D01*
X81633333Y-50867057D02*
X81709524Y-50905152D01*
X81709524Y-50905152D02*
X81747619Y-50943247D01*
X81747619Y-50943247D02*
X81785714Y-51019438D01*
X81785714Y-51019438D02*
X81785714Y-51209914D01*
X81785714Y-51209914D02*
X81747619Y-51286104D01*
X81747619Y-51286104D02*
X81709524Y-51324200D01*
X81709524Y-51324200D02*
X81633333Y-51362295D01*
X81633333Y-51362295D02*
X81404762Y-51362295D01*
X81404762Y-51362295D02*
X81328571Y-51324200D01*
X81328571Y-51324200D02*
X81290476Y-51286104D01*
X82280953Y-50981342D02*
X82280953Y-51362295D01*
X82014286Y-50562295D02*
X82280953Y-50981342D01*
X82280953Y-50981342D02*
X82547619Y-50562295D01*
X81290476Y-98600390D02*
X81214286Y-98562295D01*
X81214286Y-98562295D02*
X81100000Y-98562295D01*
X81100000Y-98562295D02*
X80985714Y-98600390D01*
X80985714Y-98600390D02*
X80909524Y-98676580D01*
X80909524Y-98676580D02*
X80871429Y-98752771D01*
X80871429Y-98752771D02*
X80833333Y-98905152D01*
X80833333Y-98905152D02*
X80833333Y-99019438D01*
X80833333Y-99019438D02*
X80871429Y-99171819D01*
X80871429Y-99171819D02*
X80909524Y-99248009D01*
X80909524Y-99248009D02*
X80985714Y-99324200D01*
X80985714Y-99324200D02*
X81100000Y-99362295D01*
X81100000Y-99362295D02*
X81176191Y-99362295D01*
X81176191Y-99362295D02*
X81290476Y-99324200D01*
X81290476Y-99324200D02*
X81328572Y-99286104D01*
X81328572Y-99286104D02*
X81328572Y-99019438D01*
X81328572Y-99019438D02*
X81176191Y-99019438D01*
X81671429Y-99362295D02*
X81671429Y-98562295D01*
X81671429Y-98562295D02*
X82128572Y-99362295D01*
X82128572Y-99362295D02*
X82128572Y-98562295D01*
X82509524Y-99362295D02*
X82509524Y-98562295D01*
X82509524Y-98562295D02*
X82700000Y-98562295D01*
X82700000Y-98562295D02*
X82814286Y-98600390D01*
X82814286Y-98600390D02*
X82890476Y-98676580D01*
X82890476Y-98676580D02*
X82928571Y-98752771D01*
X82928571Y-98752771D02*
X82966667Y-98905152D01*
X82966667Y-98905152D02*
X82966667Y-99019438D01*
X82966667Y-99019438D02*
X82928571Y-99171819D01*
X82928571Y-99171819D02*
X82890476Y-99248009D01*
X82890476Y-99248009D02*
X82814286Y-99324200D01*
X82814286Y-99324200D02*
X82700000Y-99362295D01*
X82700000Y-99362295D02*
X82509524Y-99362295D01*
X81290476Y-100562295D02*
X81785714Y-100562295D01*
X81785714Y-100562295D02*
X81519048Y-100867057D01*
X81519048Y-100867057D02*
X81633333Y-100867057D01*
X81633333Y-100867057D02*
X81709524Y-100905152D01*
X81709524Y-100905152D02*
X81747619Y-100943247D01*
X81747619Y-100943247D02*
X81785714Y-101019438D01*
X81785714Y-101019438D02*
X81785714Y-101209914D01*
X81785714Y-101209914D02*
X81747619Y-101286104D01*
X81747619Y-101286104D02*
X81709524Y-101324200D01*
X81709524Y-101324200D02*
X81633333Y-101362295D01*
X81633333Y-101362295D02*
X81404762Y-101362295D01*
X81404762Y-101362295D02*
X81328571Y-101324200D01*
X81328571Y-101324200D02*
X81290476Y-101286104D01*
X82280953Y-100981342D02*
X82280953Y-101362295D01*
X82014286Y-100562295D02*
X82280953Y-100981342D01*
X82280953Y-100981342D02*
X82547619Y-100562295D01*
X81290476Y-148600390D02*
X81214286Y-148562295D01*
X81214286Y-148562295D02*
X81100000Y-148562295D01*
X81100000Y-148562295D02*
X80985714Y-148600390D01*
X80985714Y-148600390D02*
X80909524Y-148676580D01*
X80909524Y-148676580D02*
X80871429Y-148752771D01*
X80871429Y-148752771D02*
X80833333Y-148905152D01*
X80833333Y-148905152D02*
X80833333Y-149019438D01*
X80833333Y-149019438D02*
X80871429Y-149171819D01*
X80871429Y-149171819D02*
X80909524Y-149248009D01*
X80909524Y-149248009D02*
X80985714Y-149324200D01*
X80985714Y-149324200D02*
X81100000Y-149362295D01*
X81100000Y-149362295D02*
X81176191Y-149362295D01*
X81176191Y-149362295D02*
X81290476Y-149324200D01*
X81290476Y-149324200D02*
X81328572Y-149286104D01*
X81328572Y-149286104D02*
X81328572Y-149019438D01*
X81328572Y-149019438D02*
X81176191Y-149019438D01*
X81671429Y-149362295D02*
X81671429Y-148562295D01*
X81671429Y-148562295D02*
X82128572Y-149362295D01*
X82128572Y-149362295D02*
X82128572Y-148562295D01*
X82509524Y-149362295D02*
X82509524Y-148562295D01*
X82509524Y-148562295D02*
X82700000Y-148562295D01*
X82700000Y-148562295D02*
X82814286Y-148600390D01*
X82814286Y-148600390D02*
X82890476Y-148676580D01*
X82890476Y-148676580D02*
X82928571Y-148752771D01*
X82928571Y-148752771D02*
X82966667Y-148905152D01*
X82966667Y-148905152D02*
X82966667Y-149019438D01*
X82966667Y-149019438D02*
X82928571Y-149171819D01*
X82928571Y-149171819D02*
X82890476Y-149248009D01*
X82890476Y-149248009D02*
X82814286Y-149324200D01*
X82814286Y-149324200D02*
X82700000Y-149362295D01*
X82700000Y-149362295D02*
X82509524Y-149362295D01*
X103233333Y-50562295D02*
X103500000Y-51362295D01*
X103500000Y-51362295D02*
X103766666Y-50562295D01*
X104490476Y-51286104D02*
X104452380Y-51324200D01*
X104452380Y-51324200D02*
X104338095Y-51362295D01*
X104338095Y-51362295D02*
X104261904Y-51362295D01*
X104261904Y-51362295D02*
X104147618Y-51324200D01*
X104147618Y-51324200D02*
X104071428Y-51248009D01*
X104071428Y-51248009D02*
X104033333Y-51171819D01*
X104033333Y-51171819D02*
X103995237Y-51019438D01*
X103995237Y-51019438D02*
X103995237Y-50905152D01*
X103995237Y-50905152D02*
X104033333Y-50752771D01*
X104033333Y-50752771D02*
X104071428Y-50676580D01*
X104071428Y-50676580D02*
X104147618Y-50600390D01*
X104147618Y-50600390D02*
X104261904Y-50562295D01*
X104261904Y-50562295D02*
X104338095Y-50562295D01*
X104338095Y-50562295D02*
X104452380Y-50600390D01*
X104452380Y-50600390D02*
X104490476Y-50638485D01*
X105290476Y-51286104D02*
X105252380Y-51324200D01*
X105252380Y-51324200D02*
X105138095Y-51362295D01*
X105138095Y-51362295D02*
X105061904Y-51362295D01*
X105061904Y-51362295D02*
X104947618Y-51324200D01*
X104947618Y-51324200D02*
X104871428Y-51248009D01*
X104871428Y-51248009D02*
X104833333Y-51171819D01*
X104833333Y-51171819D02*
X104795237Y-51019438D01*
X104795237Y-51019438D02*
X104795237Y-50905152D01*
X104795237Y-50905152D02*
X104833333Y-50752771D01*
X104833333Y-50752771D02*
X104871428Y-50676580D01*
X104871428Y-50676580D02*
X104947618Y-50600390D01*
X104947618Y-50600390D02*
X105061904Y-50562295D01*
X105061904Y-50562295D02*
X105138095Y-50562295D01*
X105138095Y-50562295D02*
X105252380Y-50600390D01*
X105252380Y-50600390D02*
X105290476Y-50638485D01*
X104185714Y-99362295D02*
X103728571Y-99362295D01*
X103957143Y-99362295D02*
X103957143Y-98562295D01*
X103957143Y-98562295D02*
X103880952Y-98676580D01*
X103880952Y-98676580D02*
X103804762Y-98752771D01*
X103804762Y-98752771D02*
X103728571Y-98790866D01*
X104490476Y-99133723D02*
X104871429Y-99133723D01*
X104414286Y-99362295D02*
X104680953Y-98562295D01*
X104680953Y-98562295D02*
X104947619Y-99362295D01*
X103233333Y-100562295D02*
X103500000Y-101362295D01*
X103500000Y-101362295D02*
X103766666Y-100562295D01*
X104490476Y-101286104D02*
X104452380Y-101324200D01*
X104452380Y-101324200D02*
X104338095Y-101362295D01*
X104338095Y-101362295D02*
X104261904Y-101362295D01*
X104261904Y-101362295D02*
X104147618Y-101324200D01*
X104147618Y-101324200D02*
X104071428Y-101248009D01*
X104071428Y-101248009D02*
X104033333Y-101171819D01*
X104033333Y-101171819D02*
X103995237Y-101019438D01*
X103995237Y-101019438D02*
X103995237Y-100905152D01*
X103995237Y-100905152D02*
X104033333Y-100752771D01*
X104033333Y-100752771D02*
X104071428Y-100676580D01*
X104071428Y-100676580D02*
X104147618Y-100600390D01*
X104147618Y-100600390D02*
X104261904Y-100562295D01*
X104261904Y-100562295D02*
X104338095Y-100562295D01*
X104338095Y-100562295D02*
X104452380Y-100600390D01*
X104452380Y-100600390D02*
X104490476Y-100638485D01*
X105290476Y-101286104D02*
X105252380Y-101324200D01*
X105252380Y-101324200D02*
X105138095Y-101362295D01*
X105138095Y-101362295D02*
X105061904Y-101362295D01*
X105061904Y-101362295D02*
X104947618Y-101324200D01*
X104947618Y-101324200D02*
X104871428Y-101248009D01*
X104871428Y-101248009D02*
X104833333Y-101171819D01*
X104833333Y-101171819D02*
X104795237Y-101019438D01*
X104795237Y-101019438D02*
X104795237Y-100905152D01*
X104795237Y-100905152D02*
X104833333Y-100752771D01*
X104833333Y-100752771D02*
X104871428Y-100676580D01*
X104871428Y-100676580D02*
X104947618Y-100600390D01*
X104947618Y-100600390D02*
X105061904Y-100562295D01*
X105061904Y-100562295D02*
X105138095Y-100562295D01*
X105138095Y-100562295D02*
X105252380Y-100600390D01*
X105252380Y-100600390D02*
X105290476Y-100638485D01*
X104185714Y-149362295D02*
X103728571Y-149362295D01*
X103957143Y-149362295D02*
X103957143Y-148562295D01*
X103957143Y-148562295D02*
X103880952Y-148676580D01*
X103880952Y-148676580D02*
X103804762Y-148752771D01*
X103804762Y-148752771D02*
X103728571Y-148790866D01*
X104490476Y-149133723D02*
X104871429Y-149133723D01*
X104414286Y-149362295D02*
X104680953Y-148562295D01*
X104680953Y-148562295D02*
X104947619Y-149362295D01*
X104471429Y-72057533D02*
X105080953Y-72057533D01*
X104776191Y-72362295D02*
X104776191Y-71752771D01*
X105842857Y-71562295D02*
X105461905Y-71562295D01*
X105461905Y-71562295D02*
X105423809Y-71943247D01*
X105423809Y-71943247D02*
X105461905Y-71905152D01*
X105461905Y-71905152D02*
X105538095Y-71867057D01*
X105538095Y-71867057D02*
X105728571Y-71867057D01*
X105728571Y-71867057D02*
X105804762Y-71905152D01*
X105804762Y-71905152D02*
X105842857Y-71943247D01*
X105842857Y-71943247D02*
X105880952Y-72019438D01*
X105880952Y-72019438D02*
X105880952Y-72209914D01*
X105880952Y-72209914D02*
X105842857Y-72286104D01*
X105842857Y-72286104D02*
X105804762Y-72324200D01*
X105804762Y-72324200D02*
X105728571Y-72362295D01*
X105728571Y-72362295D02*
X105538095Y-72362295D01*
X105538095Y-72362295D02*
X105461905Y-72324200D01*
X105461905Y-72324200D02*
X105423809Y-72286104D01*
X106109524Y-71562295D02*
X106376191Y-72362295D01*
X106376191Y-72362295D02*
X106642857Y-71562295D01*
X104890476Y-78500390D02*
X104814286Y-78462295D01*
X104814286Y-78462295D02*
X104700000Y-78462295D01*
X104700000Y-78462295D02*
X104585714Y-78500390D01*
X104585714Y-78500390D02*
X104509524Y-78576580D01*
X104509524Y-78576580D02*
X104471429Y-78652771D01*
X104471429Y-78652771D02*
X104433333Y-78805152D01*
X104433333Y-78805152D02*
X104433333Y-78919438D01*
X104433333Y-78919438D02*
X104471429Y-79071819D01*
X104471429Y-79071819D02*
X104509524Y-79148009D01*
X104509524Y-79148009D02*
X104585714Y-79224200D01*
X104585714Y-79224200D02*
X104700000Y-79262295D01*
X104700000Y-79262295D02*
X104776191Y-79262295D01*
X104776191Y-79262295D02*
X104890476Y-79224200D01*
X104890476Y-79224200D02*
X104928572Y-79186104D01*
X104928572Y-79186104D02*
X104928572Y-78919438D01*
X104928572Y-78919438D02*
X104776191Y-78919438D01*
X105271429Y-79262295D02*
X105271429Y-78462295D01*
X105271429Y-78462295D02*
X105728572Y-79262295D01*
X105728572Y-79262295D02*
X105728572Y-78462295D01*
X106109524Y-79262295D02*
X106109524Y-78462295D01*
X106109524Y-78462295D02*
X106300000Y-78462295D01*
X106300000Y-78462295D02*
X106414286Y-78500390D01*
X106414286Y-78500390D02*
X106490476Y-78576580D01*
X106490476Y-78576580D02*
X106528571Y-78652771D01*
X106528571Y-78652771D02*
X106566667Y-78805152D01*
X106566667Y-78805152D02*
X106566667Y-78919438D01*
X106566667Y-78919438D02*
X106528571Y-79071819D01*
X106528571Y-79071819D02*
X106490476Y-79148009D01*
X106490476Y-79148009D02*
X106414286Y-79224200D01*
X106414286Y-79224200D02*
X106300000Y-79262295D01*
X106300000Y-79262295D02*
X106109524Y-79262295D01*
X104471429Y-122057533D02*
X105080953Y-122057533D01*
X104776191Y-122362295D02*
X104776191Y-121752771D01*
X105842857Y-121562295D02*
X105461905Y-121562295D01*
X105461905Y-121562295D02*
X105423809Y-121943247D01*
X105423809Y-121943247D02*
X105461905Y-121905152D01*
X105461905Y-121905152D02*
X105538095Y-121867057D01*
X105538095Y-121867057D02*
X105728571Y-121867057D01*
X105728571Y-121867057D02*
X105804762Y-121905152D01*
X105804762Y-121905152D02*
X105842857Y-121943247D01*
X105842857Y-121943247D02*
X105880952Y-122019438D01*
X105880952Y-122019438D02*
X105880952Y-122209914D01*
X105880952Y-122209914D02*
X105842857Y-122286104D01*
X105842857Y-122286104D02*
X105804762Y-122324200D01*
X105804762Y-122324200D02*
X105728571Y-122362295D01*
X105728571Y-122362295D02*
X105538095Y-122362295D01*
X105538095Y-122362295D02*
X105461905Y-122324200D01*
X105461905Y-122324200D02*
X105423809Y-122286104D01*
X106109524Y-121562295D02*
X106376191Y-122362295D01*
X106376191Y-122362295D02*
X106642857Y-121562295D01*
X104890476Y-128500390D02*
X104814286Y-128462295D01*
X104814286Y-128462295D02*
X104700000Y-128462295D01*
X104700000Y-128462295D02*
X104585714Y-128500390D01*
X104585714Y-128500390D02*
X104509524Y-128576580D01*
X104509524Y-128576580D02*
X104471429Y-128652771D01*
X104471429Y-128652771D02*
X104433333Y-128805152D01*
X104433333Y-128805152D02*
X104433333Y-128919438D01*
X104433333Y-128919438D02*
X104471429Y-129071819D01*
X104471429Y-129071819D02*
X104509524Y-129148009D01*
X104509524Y-129148009D02*
X104585714Y-129224200D01*
X104585714Y-129224200D02*
X104700000Y-129262295D01*
X104700000Y-129262295D02*
X104776191Y-129262295D01*
X104776191Y-129262295D02*
X104890476Y-129224200D01*
X104890476Y-129224200D02*
X104928572Y-129186104D01*
X104928572Y-129186104D02*
X104928572Y-128919438D01*
X104928572Y-128919438D02*
X104776191Y-128919438D01*
X105271429Y-129262295D02*
X105271429Y-128462295D01*
X105271429Y-128462295D02*
X105728572Y-129262295D01*
X105728572Y-129262295D02*
X105728572Y-128462295D01*
X106109524Y-129262295D02*
X106109524Y-128462295D01*
X106109524Y-128462295D02*
X106300000Y-128462295D01*
X106300000Y-128462295D02*
X106414286Y-128500390D01*
X106414286Y-128500390D02*
X106490476Y-128576580D01*
X106490476Y-128576580D02*
X106528571Y-128652771D01*
X106528571Y-128652771D02*
X106566667Y-128805152D01*
X106566667Y-128805152D02*
X106566667Y-128919438D01*
X106566667Y-128919438D02*
X106528571Y-129071819D01*
X106528571Y-129071819D02*
X106490476Y-129148009D01*
X106490476Y-129148009D02*
X106414286Y-129224200D01*
X106414286Y-129224200D02*
X106300000Y-129262295D01*
X106300000Y-129262295D02*
X106109524Y-129262295D01*
X108652381Y-50828961D02*
X108652381Y-51362295D01*
X108461905Y-50524200D02*
X108271428Y-51095628D01*
X108271428Y-51095628D02*
X108766667Y-51095628D01*
X109338095Y-50943247D02*
X109452381Y-50981342D01*
X109452381Y-50981342D02*
X109490476Y-51019438D01*
X109490476Y-51019438D02*
X109528572Y-51095628D01*
X109528572Y-51095628D02*
X109528572Y-51209914D01*
X109528572Y-51209914D02*
X109490476Y-51286104D01*
X109490476Y-51286104D02*
X109452381Y-51324200D01*
X109452381Y-51324200D02*
X109376191Y-51362295D01*
X109376191Y-51362295D02*
X109071429Y-51362295D01*
X109071429Y-51362295D02*
X109071429Y-50562295D01*
X109071429Y-50562295D02*
X109338095Y-50562295D01*
X109338095Y-50562295D02*
X109414286Y-50600390D01*
X109414286Y-50600390D02*
X109452381Y-50638485D01*
X109452381Y-50638485D02*
X109490476Y-50714676D01*
X109490476Y-50714676D02*
X109490476Y-50790866D01*
X109490476Y-50790866D02*
X109452381Y-50867057D01*
X109452381Y-50867057D02*
X109414286Y-50905152D01*
X109414286Y-50905152D02*
X109338095Y-50943247D01*
X109338095Y-50943247D02*
X109071429Y-50943247D01*
X108728571Y-99362295D02*
X108271428Y-99362295D01*
X108500000Y-99362295D02*
X108500000Y-98562295D01*
X108500000Y-98562295D02*
X108423809Y-98676580D01*
X108423809Y-98676580D02*
X108347619Y-98752771D01*
X108347619Y-98752771D02*
X108271428Y-98790866D01*
X109338095Y-98943247D02*
X109452381Y-98981342D01*
X109452381Y-98981342D02*
X109490476Y-99019438D01*
X109490476Y-99019438D02*
X109528572Y-99095628D01*
X109528572Y-99095628D02*
X109528572Y-99209914D01*
X109528572Y-99209914D02*
X109490476Y-99286104D01*
X109490476Y-99286104D02*
X109452381Y-99324200D01*
X109452381Y-99324200D02*
X109376191Y-99362295D01*
X109376191Y-99362295D02*
X109071429Y-99362295D01*
X109071429Y-99362295D02*
X109071429Y-98562295D01*
X109071429Y-98562295D02*
X109338095Y-98562295D01*
X109338095Y-98562295D02*
X109414286Y-98600390D01*
X109414286Y-98600390D02*
X109452381Y-98638485D01*
X109452381Y-98638485D02*
X109490476Y-98714676D01*
X109490476Y-98714676D02*
X109490476Y-98790866D01*
X109490476Y-98790866D02*
X109452381Y-98867057D01*
X109452381Y-98867057D02*
X109414286Y-98905152D01*
X109414286Y-98905152D02*
X109338095Y-98943247D01*
X109338095Y-98943247D02*
X109071429Y-98943247D01*
X108271428Y-100638485D02*
X108309524Y-100600390D01*
X108309524Y-100600390D02*
X108385714Y-100562295D01*
X108385714Y-100562295D02*
X108576190Y-100562295D01*
X108576190Y-100562295D02*
X108652381Y-100600390D01*
X108652381Y-100600390D02*
X108690476Y-100638485D01*
X108690476Y-100638485D02*
X108728571Y-100714676D01*
X108728571Y-100714676D02*
X108728571Y-100790866D01*
X108728571Y-100790866D02*
X108690476Y-100905152D01*
X108690476Y-100905152D02*
X108233333Y-101362295D01*
X108233333Y-101362295D02*
X108728571Y-101362295D01*
X109071429Y-101362295D02*
X109071429Y-100562295D01*
X109071429Y-100562295D02*
X109261905Y-100562295D01*
X109261905Y-100562295D02*
X109376191Y-100600390D01*
X109376191Y-100600390D02*
X109452381Y-100676580D01*
X109452381Y-100676580D02*
X109490476Y-100752771D01*
X109490476Y-100752771D02*
X109528572Y-100905152D01*
X109528572Y-100905152D02*
X109528572Y-101019438D01*
X109528572Y-101019438D02*
X109490476Y-101171819D01*
X109490476Y-101171819D02*
X109452381Y-101248009D01*
X109452381Y-101248009D02*
X109376191Y-101324200D01*
X109376191Y-101324200D02*
X109261905Y-101362295D01*
X109261905Y-101362295D02*
X109071429Y-101362295D01*
X108728571Y-149362295D02*
X108271428Y-149362295D01*
X108500000Y-149362295D02*
X108500000Y-148562295D01*
X108500000Y-148562295D02*
X108423809Y-148676580D01*
X108423809Y-148676580D02*
X108347619Y-148752771D01*
X108347619Y-148752771D02*
X108271428Y-148790866D01*
X109338095Y-148943247D02*
X109452381Y-148981342D01*
X109452381Y-148981342D02*
X109490476Y-149019438D01*
X109490476Y-149019438D02*
X109528572Y-149095628D01*
X109528572Y-149095628D02*
X109528572Y-149209914D01*
X109528572Y-149209914D02*
X109490476Y-149286104D01*
X109490476Y-149286104D02*
X109452381Y-149324200D01*
X109452381Y-149324200D02*
X109376191Y-149362295D01*
X109376191Y-149362295D02*
X109071429Y-149362295D01*
X109071429Y-149362295D02*
X109071429Y-148562295D01*
X109071429Y-148562295D02*
X109338095Y-148562295D01*
X109338095Y-148562295D02*
X109414286Y-148600390D01*
X109414286Y-148600390D02*
X109452381Y-148638485D01*
X109452381Y-148638485D02*
X109490476Y-148714676D01*
X109490476Y-148714676D02*
X109490476Y-148790866D01*
X109490476Y-148790866D02*
X109452381Y-148867057D01*
X109452381Y-148867057D02*
X109414286Y-148905152D01*
X109414286Y-148905152D02*
X109338095Y-148943247D01*
X109338095Y-148943247D02*
X109071429Y-148943247D01*
X113309524Y-50828961D02*
X113309524Y-51362295D01*
X113119048Y-50524200D02*
X112928571Y-51095628D01*
X112928571Y-51095628D02*
X113423810Y-51095628D01*
X113690476Y-51133723D02*
X114071429Y-51133723D01*
X113614286Y-51362295D02*
X113880953Y-50562295D01*
X113880953Y-50562295D02*
X114147619Y-51362295D01*
X113385714Y-99362295D02*
X112928571Y-99362295D01*
X113157143Y-99362295D02*
X113157143Y-98562295D01*
X113157143Y-98562295D02*
X113080952Y-98676580D01*
X113080952Y-98676580D02*
X113004762Y-98752771D01*
X113004762Y-98752771D02*
X112928571Y-98790866D01*
X113880953Y-98981342D02*
X113880953Y-99362295D01*
X113614286Y-98562295D02*
X113880953Y-98981342D01*
X113880953Y-98981342D02*
X114147619Y-98562295D01*
X112871428Y-100638485D02*
X112909524Y-100600390D01*
X112909524Y-100600390D02*
X112985714Y-100562295D01*
X112985714Y-100562295D02*
X113176190Y-100562295D01*
X113176190Y-100562295D02*
X113252381Y-100600390D01*
X113252381Y-100600390D02*
X113290476Y-100638485D01*
X113290476Y-100638485D02*
X113328571Y-100714676D01*
X113328571Y-100714676D02*
X113328571Y-100790866D01*
X113328571Y-100790866D02*
X113290476Y-100905152D01*
X113290476Y-100905152D02*
X112833333Y-101362295D01*
X112833333Y-101362295D02*
X113328571Y-101362295D01*
X114128572Y-101286104D02*
X114090476Y-101324200D01*
X114090476Y-101324200D02*
X113976191Y-101362295D01*
X113976191Y-101362295D02*
X113900000Y-101362295D01*
X113900000Y-101362295D02*
X113785714Y-101324200D01*
X113785714Y-101324200D02*
X113709524Y-101248009D01*
X113709524Y-101248009D02*
X113671429Y-101171819D01*
X113671429Y-101171819D02*
X113633333Y-101019438D01*
X113633333Y-101019438D02*
X113633333Y-100905152D01*
X113633333Y-100905152D02*
X113671429Y-100752771D01*
X113671429Y-100752771D02*
X113709524Y-100676580D01*
X113709524Y-100676580D02*
X113785714Y-100600390D01*
X113785714Y-100600390D02*
X113900000Y-100562295D01*
X113900000Y-100562295D02*
X113976191Y-100562295D01*
X113976191Y-100562295D02*
X114090476Y-100600390D01*
X114090476Y-100600390D02*
X114128572Y-100638485D01*
X112871429Y-149362295D02*
X112871429Y-148562295D01*
X112871429Y-148562295D02*
X113328572Y-149362295D01*
X113328572Y-149362295D02*
X113328572Y-148562295D01*
X114166667Y-149286104D02*
X114128571Y-149324200D01*
X114128571Y-149324200D02*
X114014286Y-149362295D01*
X114014286Y-149362295D02*
X113938095Y-149362295D01*
X113938095Y-149362295D02*
X113823809Y-149324200D01*
X113823809Y-149324200D02*
X113747619Y-149248009D01*
X113747619Y-149248009D02*
X113709524Y-149171819D01*
X113709524Y-149171819D02*
X113671428Y-149019438D01*
X113671428Y-149019438D02*
X113671428Y-148905152D01*
X113671428Y-148905152D02*
X113709524Y-148752771D01*
X113709524Y-148752771D02*
X113747619Y-148676580D01*
X113747619Y-148676580D02*
X113823809Y-148600390D01*
X113823809Y-148600390D02*
X113938095Y-148562295D01*
X113938095Y-148562295D02*
X114014286Y-148562295D01*
X114014286Y-148562295D02*
X114128571Y-148600390D01*
X114128571Y-148600390D02*
X114166667Y-148638485D01*
X117909524Y-50828961D02*
X117909524Y-51362295D01*
X117719048Y-50524200D02*
X117528571Y-51095628D01*
X117528571Y-51095628D02*
X118023810Y-51095628D01*
X118480953Y-50981342D02*
X118480953Y-51362295D01*
X118214286Y-50562295D02*
X118480953Y-50981342D01*
X118480953Y-50981342D02*
X118747619Y-50562295D01*
X117528571Y-98638485D02*
X117566667Y-98600390D01*
X117566667Y-98600390D02*
X117642857Y-98562295D01*
X117642857Y-98562295D02*
X117833333Y-98562295D01*
X117833333Y-98562295D02*
X117909524Y-98600390D01*
X117909524Y-98600390D02*
X117947619Y-98638485D01*
X117947619Y-98638485D02*
X117985714Y-98714676D01*
X117985714Y-98714676D02*
X117985714Y-98790866D01*
X117985714Y-98790866D02*
X117947619Y-98905152D01*
X117947619Y-98905152D02*
X117490476Y-99362295D01*
X117490476Y-99362295D02*
X117985714Y-99362295D01*
X118290476Y-99133723D02*
X118671429Y-99133723D01*
X118214286Y-99362295D02*
X118480953Y-98562295D01*
X118480953Y-98562295D02*
X118747619Y-99362295D01*
X117471429Y-101362295D02*
X117471429Y-100562295D01*
X117471429Y-100562295D02*
X117928572Y-101362295D01*
X117928572Y-101362295D02*
X117928572Y-100562295D01*
X118766667Y-101286104D02*
X118728571Y-101324200D01*
X118728571Y-101324200D02*
X118614286Y-101362295D01*
X118614286Y-101362295D02*
X118538095Y-101362295D01*
X118538095Y-101362295D02*
X118423809Y-101324200D01*
X118423809Y-101324200D02*
X118347619Y-101248009D01*
X118347619Y-101248009D02*
X118309524Y-101171819D01*
X118309524Y-101171819D02*
X118271428Y-101019438D01*
X118271428Y-101019438D02*
X118271428Y-100905152D01*
X118271428Y-100905152D02*
X118309524Y-100752771D01*
X118309524Y-100752771D02*
X118347619Y-100676580D01*
X118347619Y-100676580D02*
X118423809Y-100600390D01*
X118423809Y-100600390D02*
X118538095Y-100562295D01*
X118538095Y-100562295D02*
X118614286Y-100562295D01*
X118614286Y-100562295D02*
X118728571Y-100600390D01*
X118728571Y-100600390D02*
X118766667Y-100638485D01*
X117928571Y-149362295D02*
X117471428Y-149362295D01*
X117700000Y-149362295D02*
X117700000Y-148562295D01*
X117700000Y-148562295D02*
X117623809Y-148676580D01*
X117623809Y-148676580D02*
X117547619Y-148752771D01*
X117547619Y-148752771D02*
X117471428Y-148790866D01*
X118728572Y-149286104D02*
X118690476Y-149324200D01*
X118690476Y-149324200D02*
X118576191Y-149362295D01*
X118576191Y-149362295D02*
X118500000Y-149362295D01*
X118500000Y-149362295D02*
X118385714Y-149324200D01*
X118385714Y-149324200D02*
X118309524Y-149248009D01*
X118309524Y-149248009D02*
X118271429Y-149171819D01*
X118271429Y-149171819D02*
X118233333Y-149019438D01*
X118233333Y-149019438D02*
X118233333Y-148905152D01*
X118233333Y-148905152D02*
X118271429Y-148752771D01*
X118271429Y-148752771D02*
X118309524Y-148676580D01*
X118309524Y-148676580D02*
X118385714Y-148600390D01*
X118385714Y-148600390D02*
X118500000Y-148562295D01*
X118500000Y-148562295D02*
X118576191Y-148562295D01*
X118576191Y-148562295D02*
X118690476Y-148600390D01*
X118690476Y-148600390D02*
X118728572Y-148638485D01*
X122033333Y-50562295D02*
X122528571Y-50562295D01*
X122528571Y-50562295D02*
X122261905Y-50867057D01*
X122261905Y-50867057D02*
X122376190Y-50867057D01*
X122376190Y-50867057D02*
X122452381Y-50905152D01*
X122452381Y-50905152D02*
X122490476Y-50943247D01*
X122490476Y-50943247D02*
X122528571Y-51019438D01*
X122528571Y-51019438D02*
X122528571Y-51209914D01*
X122528571Y-51209914D02*
X122490476Y-51286104D01*
X122490476Y-51286104D02*
X122452381Y-51324200D01*
X122452381Y-51324200D02*
X122376190Y-51362295D01*
X122376190Y-51362295D02*
X122147619Y-51362295D01*
X122147619Y-51362295D02*
X122071428Y-51324200D01*
X122071428Y-51324200D02*
X122033333Y-51286104D01*
X123138095Y-50943247D02*
X123252381Y-50981342D01*
X123252381Y-50981342D02*
X123290476Y-51019438D01*
X123290476Y-51019438D02*
X123328572Y-51095628D01*
X123328572Y-51095628D02*
X123328572Y-51209914D01*
X123328572Y-51209914D02*
X123290476Y-51286104D01*
X123290476Y-51286104D02*
X123252381Y-51324200D01*
X123252381Y-51324200D02*
X123176191Y-51362295D01*
X123176191Y-51362295D02*
X122871429Y-51362295D01*
X122871429Y-51362295D02*
X122871429Y-50562295D01*
X122871429Y-50562295D02*
X123138095Y-50562295D01*
X123138095Y-50562295D02*
X123214286Y-50600390D01*
X123214286Y-50600390D02*
X123252381Y-50638485D01*
X123252381Y-50638485D02*
X123290476Y-50714676D01*
X123290476Y-50714676D02*
X123290476Y-50790866D01*
X123290476Y-50790866D02*
X123252381Y-50867057D01*
X123252381Y-50867057D02*
X123214286Y-50905152D01*
X123214286Y-50905152D02*
X123138095Y-50943247D01*
X123138095Y-50943247D02*
X122871429Y-50943247D01*
X122071428Y-98638485D02*
X122109524Y-98600390D01*
X122109524Y-98600390D02*
X122185714Y-98562295D01*
X122185714Y-98562295D02*
X122376190Y-98562295D01*
X122376190Y-98562295D02*
X122452381Y-98600390D01*
X122452381Y-98600390D02*
X122490476Y-98638485D01*
X122490476Y-98638485D02*
X122528571Y-98714676D01*
X122528571Y-98714676D02*
X122528571Y-98790866D01*
X122528571Y-98790866D02*
X122490476Y-98905152D01*
X122490476Y-98905152D02*
X122033333Y-99362295D01*
X122033333Y-99362295D02*
X122528571Y-99362295D01*
X123138095Y-98943247D02*
X123252381Y-98981342D01*
X123252381Y-98981342D02*
X123290476Y-99019438D01*
X123290476Y-99019438D02*
X123328572Y-99095628D01*
X123328572Y-99095628D02*
X123328572Y-99209914D01*
X123328572Y-99209914D02*
X123290476Y-99286104D01*
X123290476Y-99286104D02*
X123252381Y-99324200D01*
X123252381Y-99324200D02*
X123176191Y-99362295D01*
X123176191Y-99362295D02*
X122871429Y-99362295D01*
X122871429Y-99362295D02*
X122871429Y-98562295D01*
X122871429Y-98562295D02*
X123138095Y-98562295D01*
X123138095Y-98562295D02*
X123214286Y-98600390D01*
X123214286Y-98600390D02*
X123252381Y-98638485D01*
X123252381Y-98638485D02*
X123290476Y-98714676D01*
X123290476Y-98714676D02*
X123290476Y-98790866D01*
X123290476Y-98790866D02*
X123252381Y-98867057D01*
X123252381Y-98867057D02*
X123214286Y-98905152D01*
X123214286Y-98905152D02*
X123138095Y-98943247D01*
X123138095Y-98943247D02*
X122871429Y-98943247D01*
X122071428Y-100638485D02*
X122109524Y-100600390D01*
X122109524Y-100600390D02*
X122185714Y-100562295D01*
X122185714Y-100562295D02*
X122376190Y-100562295D01*
X122376190Y-100562295D02*
X122452381Y-100600390D01*
X122452381Y-100600390D02*
X122490476Y-100638485D01*
X122490476Y-100638485D02*
X122528571Y-100714676D01*
X122528571Y-100714676D02*
X122528571Y-100790866D01*
X122528571Y-100790866D02*
X122490476Y-100905152D01*
X122490476Y-100905152D02*
X122033333Y-101362295D01*
X122033333Y-101362295D02*
X122528571Y-101362295D01*
X123138095Y-100943247D02*
X123252381Y-100981342D01*
X123252381Y-100981342D02*
X123290476Y-101019438D01*
X123290476Y-101019438D02*
X123328572Y-101095628D01*
X123328572Y-101095628D02*
X123328572Y-101209914D01*
X123328572Y-101209914D02*
X123290476Y-101286104D01*
X123290476Y-101286104D02*
X123252381Y-101324200D01*
X123252381Y-101324200D02*
X123176191Y-101362295D01*
X123176191Y-101362295D02*
X122871429Y-101362295D01*
X122871429Y-101362295D02*
X122871429Y-100562295D01*
X122871429Y-100562295D02*
X123138095Y-100562295D01*
X123138095Y-100562295D02*
X123214286Y-100600390D01*
X123214286Y-100600390D02*
X123252381Y-100638485D01*
X123252381Y-100638485D02*
X123290476Y-100714676D01*
X123290476Y-100714676D02*
X123290476Y-100790866D01*
X123290476Y-100790866D02*
X123252381Y-100867057D01*
X123252381Y-100867057D02*
X123214286Y-100905152D01*
X123214286Y-100905152D02*
X123138095Y-100943247D01*
X123138095Y-100943247D02*
X122871429Y-100943247D01*
X122528571Y-149362295D02*
X122071428Y-149362295D01*
X122300000Y-149362295D02*
X122300000Y-148562295D01*
X122300000Y-148562295D02*
X122223809Y-148676580D01*
X122223809Y-148676580D02*
X122147619Y-148752771D01*
X122147619Y-148752771D02*
X122071428Y-148790866D01*
X122871429Y-149362295D02*
X122871429Y-148562295D01*
X122871429Y-148562295D02*
X123061905Y-148562295D01*
X123061905Y-148562295D02*
X123176191Y-148600390D01*
X123176191Y-148600390D02*
X123252381Y-148676580D01*
X123252381Y-148676580D02*
X123290476Y-148752771D01*
X123290476Y-148752771D02*
X123328572Y-148905152D01*
X123328572Y-148905152D02*
X123328572Y-149019438D01*
X123328572Y-149019438D02*
X123290476Y-149171819D01*
X123290476Y-149171819D02*
X123252381Y-149248009D01*
X123252381Y-149248009D02*
X123176191Y-149324200D01*
X123176191Y-149324200D02*
X123061905Y-149362295D01*
X123061905Y-149362295D02*
X122871429Y-149362295D01*
X126690476Y-50562295D02*
X127185714Y-50562295D01*
X127185714Y-50562295D02*
X126919048Y-50867057D01*
X126919048Y-50867057D02*
X127033333Y-50867057D01*
X127033333Y-50867057D02*
X127109524Y-50905152D01*
X127109524Y-50905152D02*
X127147619Y-50943247D01*
X127147619Y-50943247D02*
X127185714Y-51019438D01*
X127185714Y-51019438D02*
X127185714Y-51209914D01*
X127185714Y-51209914D02*
X127147619Y-51286104D01*
X127147619Y-51286104D02*
X127109524Y-51324200D01*
X127109524Y-51324200D02*
X127033333Y-51362295D01*
X127033333Y-51362295D02*
X126804762Y-51362295D01*
X126804762Y-51362295D02*
X126728571Y-51324200D01*
X126728571Y-51324200D02*
X126690476Y-51286104D01*
X127490476Y-51133723D02*
X127871429Y-51133723D01*
X127414286Y-51362295D02*
X127680953Y-50562295D01*
X127680953Y-50562295D02*
X127947619Y-51362295D01*
X126728571Y-98638485D02*
X126766667Y-98600390D01*
X126766667Y-98600390D02*
X126842857Y-98562295D01*
X126842857Y-98562295D02*
X127033333Y-98562295D01*
X127033333Y-98562295D02*
X127109524Y-98600390D01*
X127109524Y-98600390D02*
X127147619Y-98638485D01*
X127147619Y-98638485D02*
X127185714Y-98714676D01*
X127185714Y-98714676D02*
X127185714Y-98790866D01*
X127185714Y-98790866D02*
X127147619Y-98905152D01*
X127147619Y-98905152D02*
X126690476Y-99362295D01*
X126690476Y-99362295D02*
X127185714Y-99362295D01*
X127680953Y-98981342D02*
X127680953Y-99362295D01*
X127414286Y-98562295D02*
X127680953Y-98981342D01*
X127680953Y-98981342D02*
X127947619Y-98562295D01*
X126728571Y-100638485D02*
X126766667Y-100600390D01*
X126766667Y-100600390D02*
X126842857Y-100562295D01*
X126842857Y-100562295D02*
X127033333Y-100562295D01*
X127033333Y-100562295D02*
X127109524Y-100600390D01*
X127109524Y-100600390D02*
X127147619Y-100638485D01*
X127147619Y-100638485D02*
X127185714Y-100714676D01*
X127185714Y-100714676D02*
X127185714Y-100790866D01*
X127185714Y-100790866D02*
X127147619Y-100905152D01*
X127147619Y-100905152D02*
X126690476Y-101362295D01*
X126690476Y-101362295D02*
X127185714Y-101362295D01*
X127490476Y-101133723D02*
X127871429Y-101133723D01*
X127414286Y-101362295D02*
X127680953Y-100562295D01*
X127680953Y-100562295D02*
X127947619Y-101362295D01*
X127185714Y-149362295D02*
X126728571Y-149362295D01*
X126957143Y-149362295D02*
X126957143Y-148562295D01*
X126957143Y-148562295D02*
X126880952Y-148676580D01*
X126880952Y-148676580D02*
X126804762Y-148752771D01*
X126804762Y-148752771D02*
X126728571Y-148790866D01*
X127680953Y-148981342D02*
X127680953Y-149362295D01*
X127414286Y-148562295D02*
X127680953Y-148981342D01*
X127680953Y-148981342D02*
X127947619Y-148562295D01*
X131290476Y-50562295D02*
X131785714Y-50562295D01*
X131785714Y-50562295D02*
X131519048Y-50867057D01*
X131519048Y-50867057D02*
X131633333Y-50867057D01*
X131633333Y-50867057D02*
X131709524Y-50905152D01*
X131709524Y-50905152D02*
X131747619Y-50943247D01*
X131747619Y-50943247D02*
X131785714Y-51019438D01*
X131785714Y-51019438D02*
X131785714Y-51209914D01*
X131785714Y-51209914D02*
X131747619Y-51286104D01*
X131747619Y-51286104D02*
X131709524Y-51324200D01*
X131709524Y-51324200D02*
X131633333Y-51362295D01*
X131633333Y-51362295D02*
X131404762Y-51362295D01*
X131404762Y-51362295D02*
X131328571Y-51324200D01*
X131328571Y-51324200D02*
X131290476Y-51286104D01*
X132280953Y-50981342D02*
X132280953Y-51362295D01*
X132014286Y-50562295D02*
X132280953Y-50981342D01*
X132280953Y-50981342D02*
X132547619Y-50562295D01*
X131290476Y-98600390D02*
X131214286Y-98562295D01*
X131214286Y-98562295D02*
X131100000Y-98562295D01*
X131100000Y-98562295D02*
X130985714Y-98600390D01*
X130985714Y-98600390D02*
X130909524Y-98676580D01*
X130909524Y-98676580D02*
X130871429Y-98752771D01*
X130871429Y-98752771D02*
X130833333Y-98905152D01*
X130833333Y-98905152D02*
X130833333Y-99019438D01*
X130833333Y-99019438D02*
X130871429Y-99171819D01*
X130871429Y-99171819D02*
X130909524Y-99248009D01*
X130909524Y-99248009D02*
X130985714Y-99324200D01*
X130985714Y-99324200D02*
X131100000Y-99362295D01*
X131100000Y-99362295D02*
X131176191Y-99362295D01*
X131176191Y-99362295D02*
X131290476Y-99324200D01*
X131290476Y-99324200D02*
X131328572Y-99286104D01*
X131328572Y-99286104D02*
X131328572Y-99019438D01*
X131328572Y-99019438D02*
X131176191Y-99019438D01*
X131671429Y-99362295D02*
X131671429Y-98562295D01*
X131671429Y-98562295D02*
X132128572Y-99362295D01*
X132128572Y-99362295D02*
X132128572Y-98562295D01*
X132509524Y-99362295D02*
X132509524Y-98562295D01*
X132509524Y-98562295D02*
X132700000Y-98562295D01*
X132700000Y-98562295D02*
X132814286Y-98600390D01*
X132814286Y-98600390D02*
X132890476Y-98676580D01*
X132890476Y-98676580D02*
X132928571Y-98752771D01*
X132928571Y-98752771D02*
X132966667Y-98905152D01*
X132966667Y-98905152D02*
X132966667Y-99019438D01*
X132966667Y-99019438D02*
X132928571Y-99171819D01*
X132928571Y-99171819D02*
X132890476Y-99248009D01*
X132890476Y-99248009D02*
X132814286Y-99324200D01*
X132814286Y-99324200D02*
X132700000Y-99362295D01*
X132700000Y-99362295D02*
X132509524Y-99362295D01*
X131328571Y-100638485D02*
X131366667Y-100600390D01*
X131366667Y-100600390D02*
X131442857Y-100562295D01*
X131442857Y-100562295D02*
X131633333Y-100562295D01*
X131633333Y-100562295D02*
X131709524Y-100600390D01*
X131709524Y-100600390D02*
X131747619Y-100638485D01*
X131747619Y-100638485D02*
X131785714Y-100714676D01*
X131785714Y-100714676D02*
X131785714Y-100790866D01*
X131785714Y-100790866D02*
X131747619Y-100905152D01*
X131747619Y-100905152D02*
X131290476Y-101362295D01*
X131290476Y-101362295D02*
X131785714Y-101362295D01*
X132280953Y-100981342D02*
X132280953Y-101362295D01*
X132014286Y-100562295D02*
X132280953Y-100981342D01*
X132280953Y-100981342D02*
X132547619Y-100562295D01*
X131290476Y-148600390D02*
X131214286Y-148562295D01*
X131214286Y-148562295D02*
X131100000Y-148562295D01*
X131100000Y-148562295D02*
X130985714Y-148600390D01*
X130985714Y-148600390D02*
X130909524Y-148676580D01*
X130909524Y-148676580D02*
X130871429Y-148752771D01*
X130871429Y-148752771D02*
X130833333Y-148905152D01*
X130833333Y-148905152D02*
X130833333Y-149019438D01*
X130833333Y-149019438D02*
X130871429Y-149171819D01*
X130871429Y-149171819D02*
X130909524Y-149248009D01*
X130909524Y-149248009D02*
X130985714Y-149324200D01*
X130985714Y-149324200D02*
X131100000Y-149362295D01*
X131100000Y-149362295D02*
X131176191Y-149362295D01*
X131176191Y-149362295D02*
X131290476Y-149324200D01*
X131290476Y-149324200D02*
X131328572Y-149286104D01*
X131328572Y-149286104D02*
X131328572Y-149019438D01*
X131328572Y-149019438D02*
X131176191Y-149019438D01*
X131671429Y-149362295D02*
X131671429Y-148562295D01*
X131671429Y-148562295D02*
X132128572Y-149362295D01*
X132128572Y-149362295D02*
X132128572Y-148562295D01*
X132509524Y-149362295D02*
X132509524Y-148562295D01*
X132509524Y-148562295D02*
X132700000Y-148562295D01*
X132700000Y-148562295D02*
X132814286Y-148600390D01*
X132814286Y-148600390D02*
X132890476Y-148676580D01*
X132890476Y-148676580D02*
X132928571Y-148752771D01*
X132928571Y-148752771D02*
X132966667Y-148905152D01*
X132966667Y-148905152D02*
X132966667Y-149019438D01*
X132966667Y-149019438D02*
X132928571Y-149171819D01*
X132928571Y-149171819D02*
X132890476Y-149248009D01*
X132890476Y-149248009D02*
X132814286Y-149324200D01*
X132814286Y-149324200D02*
X132700000Y-149362295D01*
X132700000Y-149362295D02*
X132509524Y-149362295D01*
X90333332Y-70332390D02*
X91399999Y-70332390D01*
X91399999Y-70332390D02*
X90714284Y-71932390D01*
X92695237Y-70865723D02*
X92695237Y-71932390D01*
X92314285Y-70256200D02*
X91933332Y-71399057D01*
X91933332Y-71399057D02*
X92923809Y-71399057D01*
X93380952Y-71932390D02*
X94219047Y-70865723D01*
X93380952Y-70865723D02*
X94219047Y-71932390D01*
X95133333Y-70332390D02*
X95285714Y-70332390D01*
X95285714Y-70332390D02*
X95438095Y-70408580D01*
X95438095Y-70408580D02*
X95514285Y-70484771D01*
X95514285Y-70484771D02*
X95590476Y-70637152D01*
X95590476Y-70637152D02*
X95666666Y-70941914D01*
X95666666Y-70941914D02*
X95666666Y-71322866D01*
X95666666Y-71322866D02*
X95590476Y-71627628D01*
X95590476Y-71627628D02*
X95514285Y-71780009D01*
X95514285Y-71780009D02*
X95438095Y-71856200D01*
X95438095Y-71856200D02*
X95285714Y-71932390D01*
X95285714Y-71932390D02*
X95133333Y-71932390D01*
X95133333Y-71932390D02*
X94980952Y-71856200D01*
X94980952Y-71856200D02*
X94904761Y-71780009D01*
X94904761Y-71780009D02*
X94828571Y-71627628D01*
X94828571Y-71627628D02*
X94752380Y-71322866D01*
X94752380Y-71322866D02*
X94752380Y-70941914D01*
X94752380Y-70941914D02*
X94828571Y-70637152D01*
X94828571Y-70637152D02*
X94904761Y-70484771D01*
X94904761Y-70484771D02*
X94980952Y-70408580D01*
X94980952Y-70408580D02*
X95133333Y-70332390D01*
X96657143Y-70332390D02*
X96809524Y-70332390D01*
X96809524Y-70332390D02*
X96961905Y-70408580D01*
X96961905Y-70408580D02*
X97038095Y-70484771D01*
X97038095Y-70484771D02*
X97114286Y-70637152D01*
X97114286Y-70637152D02*
X97190476Y-70941914D01*
X97190476Y-70941914D02*
X97190476Y-71322866D01*
X97190476Y-71322866D02*
X97114286Y-71627628D01*
X97114286Y-71627628D02*
X97038095Y-71780009D01*
X97038095Y-71780009D02*
X96961905Y-71856200D01*
X96961905Y-71856200D02*
X96809524Y-71932390D01*
X96809524Y-71932390D02*
X96657143Y-71932390D01*
X96657143Y-71932390D02*
X96504762Y-71856200D01*
X96504762Y-71856200D02*
X96428571Y-71780009D01*
X96428571Y-71780009D02*
X96352381Y-71627628D01*
X96352381Y-71627628D02*
X96276190Y-71322866D01*
X96276190Y-71322866D02*
X96276190Y-70941914D01*
X96276190Y-70941914D02*
X96352381Y-70637152D01*
X96352381Y-70637152D02*
X96428571Y-70484771D01*
X96428571Y-70484771D02*
X96504762Y-70408580D01*
X96504762Y-70408580D02*
X96657143Y-70332390D01*
X90333332Y-120332390D02*
X91399999Y-120332390D01*
X91399999Y-120332390D02*
X90714284Y-121932390D01*
X92695237Y-120865723D02*
X92695237Y-121932390D01*
X92314285Y-120256200D02*
X91933332Y-121399057D01*
X91933332Y-121399057D02*
X92923809Y-121399057D01*
X93380952Y-121932390D02*
X94219047Y-120865723D01*
X93380952Y-120865723D02*
X94219047Y-121932390D01*
X95666666Y-121932390D02*
X94752380Y-121932390D01*
X95209523Y-121932390D02*
X95209523Y-120332390D01*
X95209523Y-120332390D02*
X95057142Y-120560961D01*
X95057142Y-120560961D02*
X94904761Y-120713342D01*
X94904761Y-120713342D02*
X94752380Y-120789533D01*
X96657143Y-120332390D02*
X96809524Y-120332390D01*
X96809524Y-120332390D02*
X96961905Y-120408580D01*
X96961905Y-120408580D02*
X97038095Y-120484771D01*
X97038095Y-120484771D02*
X97114286Y-120637152D01*
X97114286Y-120637152D02*
X97190476Y-120941914D01*
X97190476Y-120941914D02*
X97190476Y-121322866D01*
X97190476Y-121322866D02*
X97114286Y-121627628D01*
X97114286Y-121627628D02*
X97038095Y-121780009D01*
X97038095Y-121780009D02*
X96961905Y-121856200D01*
X96961905Y-121856200D02*
X96809524Y-121932390D01*
X96809524Y-121932390D02*
X96657143Y-121932390D01*
X96657143Y-121932390D02*
X96504762Y-121856200D01*
X96504762Y-121856200D02*
X96428571Y-121780009D01*
X96428571Y-121780009D02*
X96352381Y-121627628D01*
X96352381Y-121627628D02*
X96276190Y-121322866D01*
X96276190Y-121322866D02*
X96276190Y-120941914D01*
X96276190Y-120941914D02*
X96352381Y-120637152D01*
X96352381Y-120637152D02*
X96428571Y-120484771D01*
X96428571Y-120484771D02*
X96504762Y-120408580D01*
X96504762Y-120408580D02*
X96657143Y-120332390D01*
X140333332Y-70332390D02*
X141399999Y-70332390D01*
X141399999Y-70332390D02*
X140714284Y-71932390D01*
X142695237Y-70865723D02*
X142695237Y-71932390D01*
X142314285Y-70256200D02*
X141933332Y-71399057D01*
X141933332Y-71399057D02*
X142923809Y-71399057D01*
X143380952Y-71932390D02*
X144219047Y-70865723D01*
X143380952Y-70865723D02*
X144219047Y-71932390D01*
X145133333Y-70332390D02*
X145285714Y-70332390D01*
X145285714Y-70332390D02*
X145438095Y-70408580D01*
X145438095Y-70408580D02*
X145514285Y-70484771D01*
X145514285Y-70484771D02*
X145590476Y-70637152D01*
X145590476Y-70637152D02*
X145666666Y-70941914D01*
X145666666Y-70941914D02*
X145666666Y-71322866D01*
X145666666Y-71322866D02*
X145590476Y-71627628D01*
X145590476Y-71627628D02*
X145514285Y-71780009D01*
X145514285Y-71780009D02*
X145438095Y-71856200D01*
X145438095Y-71856200D02*
X145285714Y-71932390D01*
X145285714Y-71932390D02*
X145133333Y-71932390D01*
X145133333Y-71932390D02*
X144980952Y-71856200D01*
X144980952Y-71856200D02*
X144904761Y-71780009D01*
X144904761Y-71780009D02*
X144828571Y-71627628D01*
X144828571Y-71627628D02*
X144752380Y-71322866D01*
X144752380Y-71322866D02*
X144752380Y-70941914D01*
X144752380Y-70941914D02*
X144828571Y-70637152D01*
X144828571Y-70637152D02*
X144904761Y-70484771D01*
X144904761Y-70484771D02*
X144980952Y-70408580D01*
X144980952Y-70408580D02*
X145133333Y-70332390D01*
X146580952Y-71018104D02*
X146428571Y-70941914D01*
X146428571Y-70941914D02*
X146352381Y-70865723D01*
X146352381Y-70865723D02*
X146276190Y-70713342D01*
X146276190Y-70713342D02*
X146276190Y-70637152D01*
X146276190Y-70637152D02*
X146352381Y-70484771D01*
X146352381Y-70484771D02*
X146428571Y-70408580D01*
X146428571Y-70408580D02*
X146580952Y-70332390D01*
X146580952Y-70332390D02*
X146885714Y-70332390D01*
X146885714Y-70332390D02*
X147038095Y-70408580D01*
X147038095Y-70408580D02*
X147114286Y-70484771D01*
X147114286Y-70484771D02*
X147190476Y-70637152D01*
X147190476Y-70637152D02*
X147190476Y-70713342D01*
X147190476Y-70713342D02*
X147114286Y-70865723D01*
X147114286Y-70865723D02*
X147038095Y-70941914D01*
X147038095Y-70941914D02*
X146885714Y-71018104D01*
X146885714Y-71018104D02*
X146580952Y-71018104D01*
X146580952Y-71018104D02*
X146428571Y-71094295D01*
X146428571Y-71094295D02*
X146352381Y-71170485D01*
X146352381Y-71170485D02*
X146276190Y-71322866D01*
X146276190Y-71322866D02*
X146276190Y-71627628D01*
X146276190Y-71627628D02*
X146352381Y-71780009D01*
X146352381Y-71780009D02*
X146428571Y-71856200D01*
X146428571Y-71856200D02*
X146580952Y-71932390D01*
X146580952Y-71932390D02*
X146885714Y-71932390D01*
X146885714Y-71932390D02*
X147038095Y-71856200D01*
X147038095Y-71856200D02*
X147114286Y-71780009D01*
X147114286Y-71780009D02*
X147190476Y-71627628D01*
X147190476Y-71627628D02*
X147190476Y-71322866D01*
X147190476Y-71322866D02*
X147114286Y-71170485D01*
X147114286Y-71170485D02*
X147038095Y-71094295D01*
X147038095Y-71094295D02*
X146885714Y-71018104D01*
X140333332Y-120332390D02*
X141399999Y-120332390D01*
X141399999Y-120332390D02*
X140714284Y-121932390D01*
X142695237Y-120865723D02*
X142695237Y-121932390D01*
X142314285Y-120256200D02*
X141933332Y-121399057D01*
X141933332Y-121399057D02*
X142923809Y-121399057D01*
X143380952Y-121932390D02*
X144219047Y-120865723D01*
X143380952Y-120865723D02*
X144219047Y-121932390D01*
X144752380Y-120484771D02*
X144828571Y-120408580D01*
X144828571Y-120408580D02*
X144980952Y-120332390D01*
X144980952Y-120332390D02*
X145361904Y-120332390D01*
X145361904Y-120332390D02*
X145514285Y-120408580D01*
X145514285Y-120408580D02*
X145590476Y-120484771D01*
X145590476Y-120484771D02*
X145666666Y-120637152D01*
X145666666Y-120637152D02*
X145666666Y-120789533D01*
X145666666Y-120789533D02*
X145590476Y-121018104D01*
X145590476Y-121018104D02*
X144676190Y-121932390D01*
X144676190Y-121932390D02*
X145666666Y-121932390D01*
X147190476Y-121932390D02*
X146276190Y-121932390D01*
X146733333Y-121932390D02*
X146733333Y-120332390D01*
X146733333Y-120332390D02*
X146580952Y-120560961D01*
X146580952Y-120560961D02*
X146428571Y-120713342D01*
X146428571Y-120713342D02*
X146276190Y-120789533D01*
%TO.C,B_R26*%
D11*
X126777500Y-85037258D02*
X126777500Y-84562742D01*
X127822500Y-85037258D02*
X127822500Y-84562742D01*
%TO.C,C_R39*%
X58377500Y-114962742D02*
X58377500Y-115437258D01*
X59422500Y-114962742D02*
X59422500Y-115437258D01*
%TO.C,C_R4*%
X65977500Y-135037258D02*
X65977500Y-134562742D01*
X67022500Y-135037258D02*
X67022500Y-134562742D01*
%TO.C,A_D3*%
X61165000Y-87100000D02*
X61165000Y-89385000D01*
X61165000Y-89385000D02*
X62635000Y-89385000D01*
X62635000Y-89385000D02*
X62635000Y-87100000D01*
%TO.C,B_R38*%
X112977500Y-64962742D02*
X112977500Y-65437258D01*
X114022500Y-64962742D02*
X114022500Y-65437258D01*
%TO.C,D_D8*%
X134165000Y-137100000D02*
X134165000Y-139385000D01*
X134165000Y-139385000D02*
X135635000Y-139385000D01*
X135635000Y-139385000D02*
X135635000Y-137100000D01*
%TO.C,C_D10*%
X93365000Y-137100000D02*
X93365000Y-139385000D01*
X93365000Y-139385000D02*
X94835000Y-139385000D01*
X94835000Y-139385000D02*
X94835000Y-137100000D01*
%TO.C,B_D16*%
X123565000Y-60615000D02*
X123565000Y-62900000D01*
X125035000Y-60615000D02*
X123565000Y-60615000D01*
X125035000Y-62900000D02*
X125035000Y-60615000D01*
%TO.C,B_R34*%
X131377500Y-64962742D02*
X131377500Y-65437258D01*
X132422500Y-64962742D02*
X132422500Y-65437258D01*
%TO.C,A_D16*%
X73565000Y-60615000D02*
X73565000Y-62900000D01*
X75035000Y-60615000D02*
X73565000Y-60615000D01*
X75035000Y-62900000D02*
X75035000Y-60615000D01*
%TO.C,A_R2*%
X56777500Y-85037258D02*
X56777500Y-84562742D01*
X57822500Y-85037258D02*
X57822500Y-84562742D01*
%TO.C,A_R28*%
X85977500Y-85037258D02*
X85977500Y-84562742D01*
X87022500Y-85037258D02*
X87022500Y-84562742D01*
%TO.C,C_R14*%
X82977500Y-114962742D02*
X82977500Y-115437258D01*
X84022500Y-114962742D02*
X84022500Y-115437258D01*
%TO.C,B_R11*%
X146777500Y-64962742D02*
X146777500Y-65437258D01*
X147822500Y-64962742D02*
X147822500Y-65437258D01*
%TO.C,D_D12*%
X141964999Y-110615000D02*
X141964999Y-112900000D01*
X143434999Y-110615000D02*
X141964999Y-110615000D01*
X143434999Y-112900000D02*
X143434999Y-110615000D01*
%TO.C,D_R9*%
X138977499Y-135037258D02*
X138977499Y-134562742D01*
X140022499Y-135037258D02*
X140022499Y-134562742D01*
%TO.C,D_R28*%
X135977500Y-135037258D02*
X135977500Y-134562742D01*
X137022500Y-135037258D02*
X137022500Y-134562742D01*
%TO.C,C_R3*%
X61377500Y-135037258D02*
X61377500Y-134562742D01*
X62422500Y-135037258D02*
X62422500Y-134562742D01*
%TO.C,A_D18*%
X64365000Y-60615000D02*
X64365000Y-62900000D01*
X65835000Y-60615000D02*
X64365000Y-60615000D01*
X65835000Y-62900000D02*
X65835000Y-60615000D01*
%TO.C,B_R4*%
X115977500Y-85037258D02*
X115977500Y-84562742D01*
X117022500Y-85037258D02*
X117022500Y-84562742D01*
%TO.C,D_R24*%
X117577500Y-135037258D02*
X117577500Y-134562742D01*
X118622500Y-135037258D02*
X118622500Y-134562742D01*
%TO.C,B_R35*%
X126777500Y-64962742D02*
X126777500Y-65437258D01*
X127822500Y-64962742D02*
X127822500Y-65437258D01*
%TO.C,D_U1*%
X112240000Y-122350000D02*
X112240000Y-124000000D01*
X112240000Y-126000000D02*
X112240000Y-127650000D01*
X112240000Y-127650000D02*
X137760000Y-127650000D01*
X137760000Y-122350000D02*
X112240000Y-122350000D01*
X137760000Y-127650000D02*
X137760000Y-122350000D01*
X112180000Y-119860000D02*
X137820000Y-119860000D01*
X137820000Y-130140000D01*
X112180000Y-130140000D01*
X112180000Y-119860000D01*
X112240000Y-124000000D02*
G75*
G02*
X112240000Y-126000000I0J-1000000D01*
G01*
%TO.C,D_R6*%
X125177500Y-135037258D02*
X125177500Y-134562742D01*
X126222500Y-135037258D02*
X126222500Y-134562742D01*
%TO.C,D_D4*%
X115765000Y-137100000D02*
X115765000Y-139385000D01*
X115765000Y-139385000D02*
X117235000Y-139385000D01*
X117235000Y-139385000D02*
X117235000Y-137100000D01*
%TO.C,B_R33*%
X135977500Y-64962742D02*
X135977500Y-65437258D01*
X137022500Y-64962742D02*
X137022500Y-65437258D01*
%TO.C,B_R30*%
X145177500Y-85037258D02*
X145177500Y-84562742D01*
X146222500Y-85037258D02*
X146222500Y-84562742D01*
%TO.C,A_R29*%
X90577499Y-85037258D02*
X90577499Y-84562742D01*
X91622499Y-85037258D02*
X91622499Y-84562742D01*
%TO.C,A_R24*%
X67577500Y-85037258D02*
X67577500Y-84562742D01*
X68622500Y-85037258D02*
X68622500Y-84562742D01*
%TO.C,C_D4*%
X65765000Y-137100000D02*
X65765000Y-139385000D01*
X65765000Y-139385000D02*
X67235000Y-139385000D01*
X67235000Y-139385000D02*
X67235000Y-137100000D01*
%TO.C,B_R28*%
X135977500Y-85037258D02*
X135977500Y-84562742D01*
X137022500Y-85037258D02*
X137022500Y-84562742D01*
%TO.C,A_R12*%
X92177499Y-64962742D02*
X92177499Y-65437258D01*
X93222499Y-64962742D02*
X93222499Y-65437258D01*
%TO.C,C_R24*%
X67577500Y-135037258D02*
X67577500Y-134562742D01*
X68622500Y-135037258D02*
X68622500Y-134562742D01*
%TO.C,C_R9*%
X88977499Y-135037258D02*
X88977499Y-134562742D01*
X90022499Y-135037258D02*
X90022499Y-134562742D01*
%TO.C,D_R19*%
X109977500Y-114962742D02*
X109977500Y-115437258D01*
X111022500Y-114962742D02*
X111022500Y-115437258D01*
%TO.C,C_D5*%
X70364999Y-137100000D02*
X70364999Y-139385000D01*
X70364999Y-139385000D02*
X71834999Y-139385000D01*
X71834999Y-139385000D02*
X71834999Y-137100000D01*
%TO.C,A_R37*%
X67577500Y-64962742D02*
X67577500Y-65437258D01*
X68622500Y-64962742D02*
X68622500Y-65437258D01*
%TO.C,B_R10*%
X143577500Y-85037258D02*
X143577500Y-84562742D01*
X144622500Y-85037258D02*
X144622500Y-84562742D01*
%TO.C,B_D13*%
X137365000Y-60615000D02*
X137365000Y-62900000D01*
X138835000Y-60615000D02*
X137365000Y-60615000D01*
X138835000Y-62900000D02*
X138835000Y-60615000D01*
%TO.C,B_D8*%
X134165000Y-87100000D02*
X134165000Y-89385000D01*
X134165000Y-89385000D02*
X135635000Y-89385000D01*
X135635000Y-89385000D02*
X135635000Y-87100000D01*
%TO.C,D_R21*%
X103777500Y-135037258D02*
X103777500Y-134562742D01*
X104822500Y-135037258D02*
X104822500Y-134562742D01*
%TO.C,B_D14*%
X132765000Y-60615000D02*
X132765000Y-62900000D01*
X134235000Y-60615000D02*
X132765000Y-60615000D01*
X134235000Y-62900000D02*
X134235000Y-60615000D01*
%TO.C,C_R33*%
X85977500Y-114962742D02*
X85977500Y-115437258D01*
X87022500Y-114962742D02*
X87022500Y-115437258D01*
%TO.C,D_C1*%
X110690000Y-124859420D02*
X110690000Y-125140580D01*
X111710000Y-124859420D02*
X111710000Y-125140580D01*
%TO.C,C_R35*%
X76777500Y-114962742D02*
X76777500Y-115437258D01*
X77822500Y-114962742D02*
X77822500Y-115437258D01*
%TO.C,A_C1*%
X60690000Y-74859420D02*
X60690000Y-75140580D01*
X61710000Y-74859420D02*
X61710000Y-75140580D01*
%TO.C,B_R29*%
X140577499Y-85037258D02*
X140577499Y-84562742D01*
X141622499Y-85037258D02*
X141622499Y-84562742D01*
%TO.C,B_R6*%
X125177500Y-85037258D02*
X125177500Y-84562742D01*
X126222500Y-85037258D02*
X126222500Y-84562742D01*
%TO.C,D_R22*%
X108377500Y-135037258D02*
X108377500Y-134562742D01*
X109422500Y-135037258D02*
X109422500Y-134562742D01*
%TO.C,A_D2*%
X56565000Y-87100000D02*
X56565000Y-89385000D01*
X56565000Y-89385000D02*
X58035000Y-89385000D01*
X58035000Y-89385000D02*
X58035000Y-87100000D01*
%TO.C,C_R10*%
X93577500Y-135037258D02*
X93577500Y-134562742D01*
X94622500Y-135037258D02*
X94622500Y-134562742D01*
%TO.C,C_R17*%
X69177500Y-114962742D02*
X69177500Y-115437258D01*
X70222500Y-114962742D02*
X70222500Y-115437258D01*
%TO.C,B_R24*%
X117577500Y-85037258D02*
X117577500Y-84562742D01*
X118622500Y-85037258D02*
X118622500Y-84562742D01*
%TO.C,B_R15*%
X128377500Y-64962742D02*
X128377500Y-65437258D01*
X129422500Y-64962742D02*
X129422500Y-65437258D01*
%TO.C,D_R36*%
X122177500Y-114962742D02*
X122177500Y-115437258D01*
X123222500Y-114962742D02*
X123222500Y-115437258D01*
%TO.C,C_D19*%
X59765000Y-110615000D02*
X59765000Y-112900000D01*
X61235000Y-110615000D02*
X59765000Y-110615000D01*
X61235000Y-112900000D02*
X61235000Y-110615000D01*
%TO.C,B_U1*%
X112240000Y-72350000D02*
X112240000Y-74000000D01*
X112240000Y-76000000D02*
X112240000Y-77650000D01*
X112240000Y-77650000D02*
X137760000Y-77650000D01*
X137760000Y-72350000D02*
X112240000Y-72350000D01*
X137760000Y-77650000D02*
X137760000Y-72350000D01*
X112180000Y-69860000D02*
X137820000Y-69860000D01*
X137820000Y-80140000D01*
X112180000Y-80140000D01*
X112180000Y-69860000D01*
X112240000Y-74000000D02*
G75*
G02*
X112240000Y-76000000I0J-1000000D01*
G01*
%TO.C,D_R29*%
X140577499Y-135037258D02*
X140577499Y-134562742D01*
X141622499Y-135037258D02*
X141622499Y-134562742D01*
%TO.C,D_R2*%
X106777500Y-135037258D02*
X106777500Y-134562742D01*
X107822500Y-135037258D02*
X107822500Y-134562742D01*
%TO.C,B_R18*%
X114577500Y-64962742D02*
X114577500Y-65437258D01*
X115622500Y-64962742D02*
X115622500Y-65437258D01*
%TO.C,A_R32*%
X90577499Y-64962742D02*
X90577499Y-65437258D01*
X91622499Y-64962742D02*
X91622499Y-65437258D01*
%TO.C,C_C1*%
X60690000Y-124859420D02*
X60690000Y-125140580D01*
X61710000Y-124859420D02*
X61710000Y-125140580D01*
%TO.C,D_R23*%
X112977500Y-135037258D02*
X112977500Y-134562742D01*
X114022500Y-135037258D02*
X114022500Y-134562742D01*
%TO.C,A_R22*%
X58377500Y-85037258D02*
X58377500Y-84562742D01*
X59422500Y-85037258D02*
X59422500Y-84562742D01*
%TO.C,C_D18*%
X64365000Y-110615000D02*
X64365000Y-112900000D01*
X65835000Y-110615000D02*
X64365000Y-110615000D01*
X65835000Y-112900000D02*
X65835000Y-110615000D01*
%TO.C,B_D15*%
X128165000Y-60615000D02*
X128165000Y-62900000D01*
X129635000Y-60615000D02*
X128165000Y-60615000D01*
X129635000Y-62900000D02*
X129635000Y-60615000D01*
%TO.C,C_R5*%
X70577499Y-135037258D02*
X70577499Y-134562742D01*
X71622499Y-135037258D02*
X71622499Y-134562742D01*
%TO.C,C_R31*%
X95177500Y-114962742D02*
X95177500Y-115437258D01*
X96222500Y-114962742D02*
X96222500Y-115437258D01*
%TO.C,B_D6*%
X124965000Y-87100000D02*
X124965000Y-89385000D01*
X124965000Y-89385000D02*
X126435000Y-89385000D01*
X126435000Y-89385000D02*
X126435000Y-87100000D01*
%TO.C,D_J1*%
X106920000Y-122795000D02*
X108300000Y-122795000D01*
X106920000Y-124175000D02*
X106920000Y-122795000D01*
X106920000Y-125445000D02*
X106920000Y-128095000D01*
X106920000Y-125445000D02*
X109680000Y-125445000D01*
X106920000Y-128095000D02*
X109680000Y-128095000D01*
X109680000Y-125445000D02*
X109680000Y-128095000D01*
%TO.C,D_R33*%
X135977500Y-114962742D02*
X135977500Y-115437258D01*
X137022500Y-114962742D02*
X137022500Y-115437258D01*
%TO.C,D_R25*%
X122177500Y-135037258D02*
X122177500Y-134562742D01*
X123222500Y-135037258D02*
X123222500Y-134562742D01*
%TO.C,D_R35*%
X126777500Y-114962742D02*
X126777500Y-115437258D01*
X127822500Y-114962742D02*
X127822500Y-115437258D01*
%TO.C,C_R1*%
X52177500Y-135037258D02*
X52177500Y-134562742D01*
X53222500Y-135037258D02*
X53222500Y-134562742D01*
%TO.C,C_R26*%
X76777500Y-135037258D02*
X76777500Y-134562742D01*
X77822500Y-135037258D02*
X77822500Y-134562742D01*
%TO.C,D_R37*%
X117577500Y-114962742D02*
X117577500Y-115437258D01*
X118622500Y-114962742D02*
X118622500Y-115437258D01*
%TO.C,A_R21*%
X53777500Y-85037258D02*
X53777500Y-84562742D01*
X54822500Y-85037258D02*
X54822500Y-84562742D01*
%TO.C,A_D12*%
X91964999Y-60615000D02*
X91964999Y-62900000D01*
X93434999Y-60615000D02*
X91964999Y-60615000D01*
X93434999Y-62900000D02*
X93434999Y-60615000D01*
%TO.C,A_R14*%
X82977500Y-64962742D02*
X82977500Y-65437258D01*
X84022500Y-64962742D02*
X84022500Y-65437258D01*
%TO.C,A_D6*%
X74965000Y-87100000D02*
X74965000Y-89385000D01*
X74965000Y-89385000D02*
X76435000Y-89385000D01*
X76435000Y-89385000D02*
X76435000Y-87100000D01*
%TO.C,B_D2*%
X106565000Y-87100000D02*
X106565000Y-89385000D01*
X106565000Y-89385000D02*
X108035000Y-89385000D01*
X108035000Y-89385000D02*
X108035000Y-87100000D01*
%TO.C,C_D3*%
X61165000Y-137100000D02*
X61165000Y-139385000D01*
X61165000Y-139385000D02*
X62635000Y-139385000D01*
X62635000Y-139385000D02*
X62635000Y-137100000D01*
%TO.C,A_R5*%
X70577499Y-85037258D02*
X70577499Y-84562742D01*
X71622499Y-85037258D02*
X71622499Y-84562742D01*
%TO.C,C_R2*%
X56777500Y-135037258D02*
X56777500Y-134562742D01*
X57822500Y-135037258D02*
X57822500Y-134562742D01*
%TO.C,C_D8*%
X84165000Y-137100000D02*
X84165000Y-139385000D01*
X84165000Y-139385000D02*
X85635000Y-139385000D01*
X85635000Y-139385000D02*
X85635000Y-137100000D01*
%TO.C,D_D1*%
X101965000Y-137100000D02*
X101965000Y-139385000D01*
X101965000Y-139385000D02*
X103435000Y-139385000D01*
X103435000Y-139385000D02*
X103435000Y-137100000D01*
%TO.C,A_R16*%
X73777500Y-64962742D02*
X73777500Y-65437258D01*
X74822500Y-64962742D02*
X74822500Y-65437258D01*
%TO.C,C_R15*%
X78377500Y-114962742D02*
X78377500Y-115437258D01*
X79422500Y-114962742D02*
X79422500Y-115437258D01*
%TO.C,A_D5*%
X70364999Y-87100000D02*
X70364999Y-89385000D01*
X70364999Y-89385000D02*
X71834999Y-89385000D01*
X71834999Y-89385000D02*
X71834999Y-87100000D01*
%TO.C,C_R22*%
X58377500Y-135037258D02*
X58377500Y-134562742D01*
X59422500Y-135037258D02*
X59422500Y-134562742D01*
%TO.C,B_C1*%
X110690000Y-74859420D02*
X110690000Y-75140580D01*
X111710000Y-74859420D02*
X111710000Y-75140580D01*
%TO.C,A_R15*%
X78377500Y-64962742D02*
X78377500Y-65437258D01*
X79422500Y-64962742D02*
X79422500Y-65437258D01*
%TO.C,C_R37*%
X67577500Y-114962742D02*
X67577500Y-115437258D01*
X68622500Y-114962742D02*
X68622500Y-115437258D01*
%TO.C,B_R36*%
X122177500Y-64962742D02*
X122177500Y-65437258D01*
X123222500Y-64962742D02*
X123222500Y-65437258D01*
%TO.C,C_J1*%
X56920000Y-122795000D02*
X58300000Y-122795000D01*
X56920000Y-124175000D02*
X56920000Y-122795000D01*
X56920000Y-125445000D02*
X56920000Y-128095000D01*
X56920000Y-125445000D02*
X59680000Y-125445000D01*
X56920000Y-128095000D02*
X59680000Y-128095000D01*
X59680000Y-125445000D02*
X59680000Y-128095000D01*
%TO.C,D_R38*%
X112977500Y-114962742D02*
X112977500Y-115437258D01*
X114022500Y-114962742D02*
X114022500Y-115437258D01*
%TO.C,B_R3*%
X111377500Y-85037258D02*
X111377500Y-84562742D01*
X112422500Y-85037258D02*
X112422500Y-84562742D01*
%TO.C,D_R13*%
X137577500Y-114962742D02*
X137577500Y-115437258D01*
X138622500Y-114962742D02*
X138622500Y-115437258D01*
%TO.C,D_R11*%
X146777500Y-114962742D02*
X146777500Y-115437258D01*
X147822500Y-114962742D02*
X147822500Y-115437258D01*
%TO.C,A_R10*%
X93577500Y-85037258D02*
X93577500Y-84562742D01*
X94622500Y-85037258D02*
X94622500Y-84562742D01*
%TO.C,D_D19*%
X109765000Y-110615000D02*
X109765000Y-112900000D01*
X111235000Y-110615000D02*
X109765000Y-110615000D01*
X111235000Y-112900000D02*
X111235000Y-110615000D01*
%TO.C,A_D13*%
X87365000Y-60615000D02*
X87365000Y-62900000D01*
X88835000Y-60615000D02*
X87365000Y-60615000D01*
X88835000Y-62900000D02*
X88835000Y-60615000D01*
%TO.C,A_D8*%
X84165000Y-87100000D02*
X84165000Y-89385000D01*
X84165000Y-89385000D02*
X85635000Y-89385000D01*
X85635000Y-89385000D02*
X85635000Y-87100000D01*
%TO.C,A_R38*%
X62977500Y-64962742D02*
X62977500Y-65437258D01*
X64022500Y-64962742D02*
X64022500Y-65437258D01*
%TO.C,A_R1*%
X52177500Y-85037258D02*
X52177500Y-84562742D01*
X53222500Y-85037258D02*
X53222500Y-84562742D01*
%TO.C,A_R31*%
X95177500Y-64962742D02*
X95177500Y-65437258D01*
X96222500Y-64962742D02*
X96222500Y-65437258D01*
%TO.C,B_R25*%
X122177500Y-85037258D02*
X122177500Y-84562742D01*
X123222500Y-85037258D02*
X123222500Y-84562742D01*
%TO.C,C_D15*%
X78165000Y-110615000D02*
X78165000Y-112900000D01*
X79635000Y-110615000D02*
X78165000Y-110615000D01*
X79635000Y-112900000D02*
X79635000Y-110615000D01*
%TO.C,A_R26*%
X76777500Y-85037258D02*
X76777500Y-84562742D01*
X77822500Y-85037258D02*
X77822500Y-84562742D01*
%TO.C,B_R22*%
X108377500Y-85037258D02*
X108377500Y-84562742D01*
X109422500Y-85037258D02*
X109422500Y-84562742D01*
%TO.C,C_R21*%
X53777500Y-135037258D02*
X53777500Y-134562742D01*
X54822500Y-135037258D02*
X54822500Y-134562742D01*
%TO.C,D_D3*%
X111165000Y-137100000D02*
X111165000Y-139385000D01*
X111165000Y-139385000D02*
X112635000Y-139385000D01*
X112635000Y-139385000D02*
X112635000Y-137100000D01*
%TO.C,D_R30*%
X145177500Y-135037258D02*
X145177500Y-134562742D01*
X146222500Y-135037258D02*
X146222500Y-134562742D01*
%TO.C,D_R8*%
X134377500Y-135037258D02*
X134377500Y-134562742D01*
X135422500Y-135037258D02*
X135422500Y-134562742D01*
%TO.C,D_D10*%
X143365000Y-137100000D02*
X143365000Y-139385000D01*
X143365000Y-139385000D02*
X144835000Y-139385000D01*
X144835000Y-139385000D02*
X144835000Y-137100000D01*
%TO.C,D_D17*%
X118965000Y-110615000D02*
X118965000Y-112900000D01*
X120435000Y-110615000D02*
X118965000Y-110615000D01*
X120435000Y-112900000D02*
X120435000Y-110615000D01*
%TO.C,C_D13*%
X87365000Y-110615000D02*
X87365000Y-112900000D01*
X88835000Y-110615000D02*
X87365000Y-110615000D01*
X88835000Y-112900000D02*
X88835000Y-110615000D01*
%TO.C,D_R12*%
X142177499Y-114962742D02*
X142177499Y-115437258D01*
X143222499Y-114962742D02*
X143222499Y-115437258D01*
%TO.C,B_D9*%
X138764999Y-87100000D02*
X138764999Y-89385000D01*
X138764999Y-89385000D02*
X140234999Y-89385000D01*
X140234999Y-89385000D02*
X140234999Y-87100000D01*
%TO.C,A_D11*%
X96565000Y-60615000D02*
X96565000Y-62900000D01*
X98035000Y-60615000D02*
X96565000Y-60615000D01*
X98035000Y-62900000D02*
X98035000Y-60615000D01*
%TO.C,A_R17*%
X69177500Y-64962742D02*
X69177500Y-65437258D01*
X70222500Y-64962742D02*
X70222500Y-65437258D01*
%TO.C,C_R28*%
X85977500Y-135037258D02*
X85977500Y-134562742D01*
X87022500Y-135037258D02*
X87022500Y-134562742D01*
%TO.C,C_D2*%
X56565000Y-137100000D02*
X56565000Y-139385000D01*
X56565000Y-139385000D02*
X58035000Y-139385000D01*
X58035000Y-139385000D02*
X58035000Y-137100000D01*
%TO.C,D_R3*%
X111377500Y-135037258D02*
X111377500Y-134562742D01*
X112422500Y-135037258D02*
X112422500Y-134562742D01*
%TO.C,D_R18*%
X114577500Y-114962742D02*
X114577500Y-115437258D01*
X115622500Y-114962742D02*
X115622500Y-115437258D01*
%TO.C,B_R39*%
X108377500Y-64962742D02*
X108377500Y-65437258D01*
X109422500Y-64962742D02*
X109422500Y-65437258D01*
%TO.C,B_R31*%
X145177500Y-64962742D02*
X145177500Y-65437258D01*
X146222500Y-64962742D02*
X146222500Y-65437258D01*
%TO.C,D_R16*%
X123777500Y-114962742D02*
X123777500Y-115437258D01*
X124822500Y-114962742D02*
X124822500Y-115437258D01*
%TO.C,A_R3*%
X61377500Y-85037258D02*
X61377500Y-84562742D01*
X62422500Y-85037258D02*
X62422500Y-84562742D01*
%TO.C,A_R23*%
X62977500Y-85037258D02*
X62977500Y-84562742D01*
X64022500Y-85037258D02*
X64022500Y-84562742D01*
%TO.C,D_R15*%
X128377500Y-114962742D02*
X128377500Y-115437258D01*
X129422500Y-114962742D02*
X129422500Y-115437258D01*
%TO.C,D_D6*%
X124965000Y-137100000D02*
X124965000Y-139385000D01*
X124965000Y-139385000D02*
X126435000Y-139385000D01*
X126435000Y-139385000D02*
X126435000Y-137100000D01*
%TO.C,D_R14*%
X132977500Y-114962742D02*
X132977500Y-115437258D01*
X134022500Y-114962742D02*
X134022500Y-115437258D01*
%TO.C,A_D4*%
X65765000Y-87100000D02*
X65765000Y-89385000D01*
X65765000Y-89385000D02*
X67235000Y-89385000D01*
X67235000Y-89385000D02*
X67235000Y-87100000D01*
%TO.C,C_D12*%
X91964999Y-110615000D02*
X91964999Y-112900000D01*
X93434999Y-110615000D02*
X91964999Y-110615000D01*
X93434999Y-112900000D02*
X93434999Y-110615000D01*
%TO.C,A_D17*%
X68965000Y-60615000D02*
X68965000Y-62900000D01*
X70435000Y-60615000D02*
X68965000Y-60615000D01*
X70435000Y-62900000D02*
X70435000Y-60615000D01*
%TO.C,A_R36*%
X72177500Y-64962742D02*
X72177500Y-65437258D01*
X73222500Y-64962742D02*
X73222500Y-65437258D01*
%TO.C,C_R12*%
X92177499Y-114962742D02*
X92177499Y-115437258D01*
X93222499Y-114962742D02*
X93222499Y-115437258D01*
%TO.C,B_R13*%
X137577500Y-64962742D02*
X137577500Y-65437258D01*
X138622500Y-64962742D02*
X138622500Y-65437258D01*
%TO.C,D_D9*%
X138764999Y-137100000D02*
X138764999Y-139385000D01*
X138764999Y-139385000D02*
X140234999Y-139385000D01*
X140234999Y-139385000D02*
X140234999Y-137100000D01*
%TO.C,C_R16*%
X73777500Y-114962742D02*
X73777500Y-115437258D01*
X74822500Y-114962742D02*
X74822500Y-115437258D01*
%TO.C,C_R32*%
X90577499Y-114962742D02*
X90577499Y-115437258D01*
X91622499Y-114962742D02*
X91622499Y-115437258D01*
%TO.C,D_R39*%
X108377500Y-114962742D02*
X108377500Y-115437258D01*
X109422500Y-114962742D02*
X109422500Y-115437258D01*
%TO.C,A_R39*%
X58377500Y-64962742D02*
X58377500Y-65437258D01*
X59422500Y-64962742D02*
X59422500Y-65437258D01*
%TO.C,C_D9*%
X88764999Y-137100000D02*
X88764999Y-139385000D01*
X88764999Y-139385000D02*
X90234999Y-139385000D01*
X90234999Y-139385000D02*
X90234999Y-137100000D01*
%TO.C,A_R19*%
X59977500Y-64962742D02*
X59977500Y-65437258D01*
X61022500Y-64962742D02*
X61022500Y-65437258D01*
%TO.C,A_U1*%
X62240000Y-72350000D02*
X62240000Y-74000000D01*
X62240000Y-76000000D02*
X62240000Y-77650000D01*
X62240000Y-77650000D02*
X87760000Y-77650000D01*
X87760000Y-72350000D02*
X62240000Y-72350000D01*
X87760000Y-77650000D02*
X87760000Y-72350000D01*
X62180000Y-69860000D02*
X87820000Y-69860000D01*
X87820000Y-80140000D01*
X62180000Y-80140000D01*
X62180000Y-69860000D01*
X62240000Y-74000000D02*
G75*
G02*
X62240000Y-76000000I0J-1000000D01*
G01*
%TO.C,D_R26*%
X126777500Y-135037258D02*
X126777500Y-134562742D01*
X127822500Y-135037258D02*
X127822500Y-134562742D01*
%TO.C,B_R37*%
X117577500Y-64962742D02*
X117577500Y-65437258D01*
X118622500Y-64962742D02*
X118622500Y-65437258D01*
%TO.C,A_D14*%
X82765000Y-60615000D02*
X82765000Y-62900000D01*
X84235000Y-60615000D02*
X82765000Y-60615000D01*
X84235000Y-62900000D02*
X84235000Y-60615000D01*
%TO.C,D_D18*%
X114365000Y-110615000D02*
X114365000Y-112900000D01*
X115835000Y-110615000D02*
X114365000Y-110615000D01*
X115835000Y-112900000D02*
X115835000Y-110615000D01*
%TO.C,D_R34*%
X131377500Y-114962742D02*
X131377500Y-115437258D01*
X132422500Y-114962742D02*
X132422500Y-115437258D01*
%TO.C,A_D19*%
X59765000Y-60615000D02*
X59765000Y-62900000D01*
X61235000Y-60615000D02*
X59765000Y-60615000D01*
X61235000Y-62900000D02*
X61235000Y-60615000D01*
%TO.C,C_R38*%
X62977500Y-114962742D02*
X62977500Y-115437258D01*
X64022500Y-114962742D02*
X64022500Y-115437258D01*
%TO.C,A_R34*%
X81377500Y-64962742D02*
X81377500Y-65437258D01*
X82422500Y-64962742D02*
X82422500Y-65437258D01*
%TO.C,D_R31*%
X145177500Y-114962742D02*
X145177500Y-115437258D01*
X146222500Y-114962742D02*
X146222500Y-115437258D01*
%TO.C,A_R11*%
X96777500Y-64962742D02*
X96777500Y-65437258D01*
X97822500Y-64962742D02*
X97822500Y-65437258D01*
%TO.C,C_D16*%
X73565000Y-110615000D02*
X73565000Y-112900000D01*
X75035000Y-110615000D02*
X73565000Y-110615000D01*
X75035000Y-112900000D02*
X75035000Y-110615000D01*
%TO.C,B_D1*%
X101965000Y-87100000D02*
X101965000Y-89385000D01*
X101965000Y-89385000D02*
X103435000Y-89385000D01*
X103435000Y-89385000D02*
X103435000Y-87100000D01*
%TO.C,A_R8*%
X84377500Y-85037258D02*
X84377500Y-84562742D01*
X85422500Y-85037258D02*
X85422500Y-84562742D01*
%TO.C,B_R19*%
X109977500Y-64962742D02*
X109977500Y-65437258D01*
X111022500Y-64962742D02*
X111022500Y-65437258D01*
%TO.C,B_R8*%
X134377500Y-85037258D02*
X134377500Y-84562742D01*
X135422500Y-85037258D02*
X135422500Y-84562742D01*
%TO.C,D_R4*%
X115977500Y-135037258D02*
X115977500Y-134562742D01*
X117022500Y-135037258D02*
X117022500Y-134562742D01*
%TO.C,B_R9*%
X138977499Y-85037258D02*
X138977499Y-84562742D01*
X140022499Y-85037258D02*
X140022499Y-84562742D01*
%TO.C,C_U1*%
X62240000Y-122350000D02*
X62240000Y-124000000D01*
X62240000Y-126000000D02*
X62240000Y-127650000D01*
X62240000Y-127650000D02*
X87760000Y-127650000D01*
X87760000Y-122350000D02*
X62240000Y-122350000D01*
X87760000Y-127650000D02*
X87760000Y-122350000D01*
X62180000Y-119860000D02*
X87820000Y-119860000D01*
X87820000Y-130140000D01*
X62180000Y-130140000D01*
X62180000Y-119860000D01*
X62240000Y-124000000D02*
G75*
G02*
X62240000Y-126000000I0J-1000000D01*
G01*
%TO.C,B_D11*%
X146565000Y-60615000D02*
X146565000Y-62900000D01*
X148035000Y-60615000D02*
X146565000Y-60615000D01*
X148035000Y-62900000D02*
X148035000Y-60615000D01*
%TO.C,D_D2*%
X106565000Y-137100000D02*
X106565000Y-139385000D01*
X106565000Y-139385000D02*
X108035000Y-139385000D01*
X108035000Y-139385000D02*
X108035000Y-137100000D01*
%TO.C,C_R30*%
X95177500Y-135037258D02*
X95177500Y-134562742D01*
X96222500Y-135037258D02*
X96222500Y-134562742D01*
%TO.C,D_R32*%
X140577499Y-114962742D02*
X140577499Y-115437258D01*
X141622499Y-114962742D02*
X141622499Y-115437258D01*
%TO.C,C_D6*%
X74965000Y-137100000D02*
X74965000Y-139385000D01*
X74965000Y-139385000D02*
X76435000Y-139385000D01*
X76435000Y-139385000D02*
X76435000Y-137100000D01*
%TO.C,B_R14*%
X132977500Y-64962742D02*
X132977500Y-65437258D01*
X134022500Y-64962742D02*
X134022500Y-65437258D01*
%TO.C,D_R17*%
X119177500Y-114962742D02*
X119177500Y-115437258D01*
X120222500Y-114962742D02*
X120222500Y-115437258D01*
%TO.C,B_R17*%
X119177500Y-64962742D02*
X119177500Y-65437258D01*
X120222500Y-64962742D02*
X120222500Y-65437258D01*
%TO.C,B_J1*%
X106920000Y-72795000D02*
X108300000Y-72795000D01*
X106920000Y-74175000D02*
X106920000Y-72795000D01*
X106920000Y-75445000D02*
X106920000Y-78095000D01*
X106920000Y-75445000D02*
X109680000Y-75445000D01*
X106920000Y-78095000D02*
X109680000Y-78095000D01*
X109680000Y-75445000D02*
X109680000Y-78095000D01*
%TO.C,C_R25*%
X72177500Y-135037258D02*
X72177500Y-134562742D01*
X73222500Y-135037258D02*
X73222500Y-134562742D01*
%TO.C,A_D9*%
X88764999Y-87100000D02*
X88764999Y-89385000D01*
X88764999Y-89385000D02*
X90234999Y-89385000D01*
X90234999Y-89385000D02*
X90234999Y-87100000D01*
%TO.C,A_R13*%
X87577500Y-64962742D02*
X87577500Y-65437258D01*
X88622500Y-64962742D02*
X88622500Y-65437258D01*
%TO.C,C_D11*%
X96565000Y-110615000D02*
X96565000Y-112900000D01*
X98035000Y-110615000D02*
X96565000Y-110615000D01*
X98035000Y-112900000D02*
X98035000Y-110615000D01*
%TO.C,A_R30*%
X95177500Y-85037258D02*
X95177500Y-84562742D01*
X96222500Y-85037258D02*
X96222500Y-84562742D01*
%TO.C,B_D3*%
X111165000Y-87100000D02*
X111165000Y-89385000D01*
X111165000Y-89385000D02*
X112635000Y-89385000D01*
X112635000Y-89385000D02*
X112635000Y-87100000D01*
%TO.C,B_D12*%
X141964999Y-60615000D02*
X141964999Y-62900000D01*
X143434999Y-60615000D02*
X141964999Y-60615000D01*
X143434999Y-62900000D02*
X143434999Y-60615000D01*
%TO.C,C_R11*%
X96777500Y-114962742D02*
X96777500Y-115437258D01*
X97822500Y-114962742D02*
X97822500Y-115437258D01*
%TO.C,B_D10*%
X143365000Y-87100000D02*
X143365000Y-89385000D01*
X143365000Y-89385000D02*
X144835000Y-89385000D01*
X144835000Y-89385000D02*
X144835000Y-87100000D01*
%TO.C,A_R33*%
X85977500Y-64962742D02*
X85977500Y-65437258D01*
X87022500Y-64962742D02*
X87022500Y-65437258D01*
%TO.C,C_R36*%
X72177500Y-114962742D02*
X72177500Y-115437258D01*
X73222500Y-114962742D02*
X73222500Y-115437258D01*
%TO.C,A_R4*%
X65977500Y-85037258D02*
X65977500Y-84562742D01*
X67022500Y-85037258D02*
X67022500Y-84562742D01*
%TO.C,D_R10*%
X143577500Y-135037258D02*
X143577500Y-134562742D01*
X144622500Y-135037258D02*
X144622500Y-134562742D01*
%TO.C,A_R6*%
X75177500Y-85037258D02*
X75177500Y-84562742D01*
X76222500Y-85037258D02*
X76222500Y-84562742D01*
%TO.C,C_D17*%
X68965000Y-110615000D02*
X68965000Y-112900000D01*
X70435000Y-110615000D02*
X68965000Y-110615000D01*
X70435000Y-112900000D02*
X70435000Y-110615000D01*
%TO.C,C_D1*%
X51965000Y-137100000D02*
X51965000Y-139385000D01*
X51965000Y-139385000D02*
X53435000Y-139385000D01*
X53435000Y-139385000D02*
X53435000Y-137100000D01*
%TO.C,A_J1*%
X56920000Y-72795000D02*
X58300000Y-72795000D01*
X56920000Y-74175000D02*
X56920000Y-72795000D01*
X56920000Y-75445000D02*
X56920000Y-78095000D01*
X56920000Y-75445000D02*
X59680000Y-75445000D01*
X56920000Y-78095000D02*
X59680000Y-78095000D01*
X59680000Y-75445000D02*
X59680000Y-78095000D01*
%TO.C,C_R13*%
X87577500Y-114962742D02*
X87577500Y-115437258D01*
X88622500Y-114962742D02*
X88622500Y-115437258D01*
%TO.C,C_R18*%
X64577500Y-114962742D02*
X64577500Y-115437258D01*
X65622500Y-114962742D02*
X65622500Y-115437258D01*
%TO.C,B_R12*%
X142177499Y-64962742D02*
X142177499Y-65437258D01*
X143222499Y-64962742D02*
X143222499Y-65437258D01*
%TO.C,C_R34*%
X81377500Y-114962742D02*
X81377500Y-115437258D01*
X82422500Y-114962742D02*
X82422500Y-115437258D01*
%TO.C,C_R6*%
X75177500Y-135037258D02*
X75177500Y-134562742D01*
X76222500Y-135037258D02*
X76222500Y-134562742D01*
%TO.C,B_D17*%
X118965000Y-60615000D02*
X118965000Y-62900000D01*
X120435000Y-60615000D02*
X118965000Y-60615000D01*
X120435000Y-62900000D02*
X120435000Y-60615000D01*
%TO.C,A_D10*%
X93365000Y-87100000D02*
X93365000Y-89385000D01*
X93365000Y-89385000D02*
X94835000Y-89385000D01*
X94835000Y-89385000D02*
X94835000Y-87100000D01*
%TO.C,C_R8*%
X84377500Y-135037258D02*
X84377500Y-134562742D01*
X85422500Y-135037258D02*
X85422500Y-134562742D01*
%TO.C,D_D5*%
X120364999Y-137100000D02*
X120364999Y-139385000D01*
X120364999Y-139385000D02*
X121834999Y-139385000D01*
X121834999Y-139385000D02*
X121834999Y-137100000D01*
%TO.C,B_R32*%
X140577499Y-64962742D02*
X140577499Y-65437258D01*
X141622499Y-64962742D02*
X141622499Y-65437258D01*
%TO.C,A_R35*%
X76777500Y-64962742D02*
X76777500Y-65437258D01*
X77822500Y-64962742D02*
X77822500Y-65437258D01*
%TO.C,D_R5*%
X120577499Y-135037258D02*
X120577499Y-134562742D01*
X121622499Y-135037258D02*
X121622499Y-134562742D01*
%TO.C,D_D11*%
X146565000Y-110615000D02*
X146565000Y-112900000D01*
X148035000Y-110615000D02*
X146565000Y-110615000D01*
X148035000Y-112900000D02*
X148035000Y-110615000D01*
%TO.C,B_D19*%
X109765000Y-60615000D02*
X109765000Y-62900000D01*
X111235000Y-60615000D02*
X109765000Y-60615000D01*
X111235000Y-62900000D02*
X111235000Y-60615000D01*
%TO.C,C_D14*%
X82765000Y-110615000D02*
X82765000Y-112900000D01*
X84235000Y-110615000D02*
X82765000Y-110615000D01*
X84235000Y-112900000D02*
X84235000Y-110615000D01*
%TO.C,B_D5*%
X120364999Y-87100000D02*
X120364999Y-89385000D01*
X120364999Y-89385000D02*
X121834999Y-89385000D01*
X121834999Y-89385000D02*
X121834999Y-87100000D01*
%TO.C,D_D15*%
X128165000Y-110615000D02*
X128165000Y-112900000D01*
X129635000Y-110615000D02*
X128165000Y-110615000D01*
X129635000Y-112900000D02*
X129635000Y-110615000D01*
%TO.C,A_R9*%
X88977499Y-85037258D02*
X88977499Y-84562742D01*
X90022499Y-85037258D02*
X90022499Y-84562742D01*
%TO.C,B_R2*%
X106777500Y-85037258D02*
X106777500Y-84562742D01*
X107822500Y-85037258D02*
X107822500Y-84562742D01*
%TO.C,A_D15*%
X78165000Y-60615000D02*
X78165000Y-62900000D01*
X79635000Y-60615000D02*
X78165000Y-60615000D01*
X79635000Y-62900000D02*
X79635000Y-60615000D01*
%TO.C,B_D18*%
X114365000Y-60615000D02*
X114365000Y-62900000D01*
X115835000Y-60615000D02*
X114365000Y-60615000D01*
X115835000Y-62900000D02*
X115835000Y-60615000D01*
%TO.C,C_R19*%
X59977500Y-114962742D02*
X59977500Y-115437258D01*
X61022500Y-114962742D02*
X61022500Y-115437258D01*
%TO.C,B_R5*%
X120577499Y-85037258D02*
X120577499Y-84562742D01*
X121622499Y-85037258D02*
X121622499Y-84562742D01*
%TO.C,A_R25*%
X72177500Y-85037258D02*
X72177500Y-84562742D01*
X73222500Y-85037258D02*
X73222500Y-84562742D01*
%TO.C,A_D1*%
X51965000Y-87100000D02*
X51965000Y-89385000D01*
X51965000Y-89385000D02*
X53435000Y-89385000D01*
X53435000Y-89385000D02*
X53435000Y-87100000D01*
%TO.C,B_R16*%
X123777500Y-64962742D02*
X123777500Y-65437258D01*
X124822500Y-64962742D02*
X124822500Y-65437258D01*
%TO.C,C_R29*%
X90577499Y-135037258D02*
X90577499Y-134562742D01*
X91622499Y-135037258D02*
X91622499Y-134562742D01*
%TO.C,B_D4*%
X115765000Y-87100000D02*
X115765000Y-89385000D01*
X115765000Y-89385000D02*
X117235000Y-89385000D01*
X117235000Y-89385000D02*
X117235000Y-87100000D01*
%TO.C,C_R23*%
X62977500Y-135037258D02*
X62977500Y-134562742D01*
X64022500Y-135037258D02*
X64022500Y-134562742D01*
%TO.C,D_D14*%
X132765000Y-110615000D02*
X132765000Y-112900000D01*
X134235000Y-110615000D02*
X132765000Y-110615000D01*
X134235000Y-112900000D02*
X134235000Y-110615000D01*
%TO.C,D_R1*%
X102177500Y-135037258D02*
X102177500Y-134562742D01*
X103222500Y-135037258D02*
X103222500Y-134562742D01*
%TO.C,B_R23*%
X112977500Y-85037258D02*
X112977500Y-84562742D01*
X114022500Y-85037258D02*
X114022500Y-84562742D01*
%TO.C,A_R18*%
X64577500Y-64962742D02*
X64577500Y-65437258D01*
X65622500Y-64962742D02*
X65622500Y-65437258D01*
%TO.C,D_D16*%
X123565000Y-110615000D02*
X123565000Y-112900000D01*
X125035000Y-110615000D02*
X123565000Y-110615000D01*
X125035000Y-112900000D02*
X125035000Y-110615000D01*
%TO.C,D_D13*%
X137365000Y-110615000D02*
X137365000Y-112900000D01*
X138835000Y-110615000D02*
X137365000Y-110615000D01*
X138835000Y-112900000D02*
X138835000Y-110615000D01*
%TO.C,B_R21*%
X103777500Y-85037258D02*
X103777500Y-84562742D01*
X104822500Y-85037258D02*
X104822500Y-84562742D01*
%TO.C,B_R1*%
X102177500Y-85037258D02*
X102177500Y-84562742D01*
X103222500Y-85037258D02*
X103222500Y-84562742D01*
%TD*%
M02*
