%TF.GenerationSoftware,KiCad,Pcbnew,10.0.3*%
%TF.CreationDate,2026-09-25T12:44:30+09:00*%
%TF.ProjectId,commons_gates_panel,636f6d6d-6f6e-4735-9f67-617465735f70,rev?*%
%TF.SameCoordinates,Original*%
%TF.FileFunction,Legend,Top*%
%TF.FilePolarity,Positive*%
%FSLAX46Y46*%
G04 Gerber Fmt 4.6, Leading zero omitted, Abs format (unit mm)*
G04 Created by KiCad (PCBNEW 10.0.3) date 2026-09-25 12:44:30*
%MOMM*%
%LPD*%
G01*
G04 APERTURE LIST*
%ADD10C,0.150000*%
%ADD11C,0.120000*%
G04 APERTURE END LIST*
D10*
X53233333Y-50562295D02*
X53500000Y-51362295D01*
X53500000Y-51362295D02*
X53766666Y-50562295D01*
X54490476Y-51286104D02*
X54452380Y-51324200D01*
X54452380Y-51324200D02*
X54338095Y-51362295D01*
X54338095Y-51362295D02*
X54261904Y-51362295D01*
X54261904Y-51362295D02*
X54147618Y-51324200D01*
X54147618Y-51324200D02*
X54071428Y-51248009D01*
X54071428Y-51248009D02*
X54033333Y-51171819D01*
X54033333Y-51171819D02*
X53995237Y-51019438D01*
X53995237Y-51019438D02*
X53995237Y-50905152D01*
X53995237Y-50905152D02*
X54033333Y-50752771D01*
X54033333Y-50752771D02*
X54071428Y-50676580D01*
X54071428Y-50676580D02*
X54147618Y-50600390D01*
X54147618Y-50600390D02*
X54261904Y-50562295D01*
X54261904Y-50562295D02*
X54338095Y-50562295D01*
X54338095Y-50562295D02*
X54452380Y-50600390D01*
X54452380Y-50600390D02*
X54490476Y-50638485D01*
X55290476Y-51286104D02*
X55252380Y-51324200D01*
X55252380Y-51324200D02*
X55138095Y-51362295D01*
X55138095Y-51362295D02*
X55061904Y-51362295D01*
X55061904Y-51362295D02*
X54947618Y-51324200D01*
X54947618Y-51324200D02*
X54871428Y-51248009D01*
X54871428Y-51248009D02*
X54833333Y-51171819D01*
X54833333Y-51171819D02*
X54795237Y-51019438D01*
X54795237Y-51019438D02*
X54795237Y-50905152D01*
X54795237Y-50905152D02*
X54833333Y-50752771D01*
X54833333Y-50752771D02*
X54871428Y-50676580D01*
X54871428Y-50676580D02*
X54947618Y-50600390D01*
X54947618Y-50600390D02*
X55061904Y-50562295D01*
X55061904Y-50562295D02*
X55138095Y-50562295D01*
X55138095Y-50562295D02*
X55252380Y-50600390D01*
X55252380Y-50600390D02*
X55290476Y-50638485D01*
X54185714Y-99362295D02*
X53728571Y-99362295D01*
X53957143Y-99362295D02*
X53957143Y-98562295D01*
X53957143Y-98562295D02*
X53880952Y-98676580D01*
X53880952Y-98676580D02*
X53804762Y-98752771D01*
X53804762Y-98752771D02*
X53728571Y-98790866D01*
X54490476Y-99133723D02*
X54871429Y-99133723D01*
X54414286Y-99362295D02*
X54680953Y-98562295D01*
X54680953Y-98562295D02*
X54947619Y-99362295D01*
X53233333Y-100562295D02*
X53500000Y-101362295D01*
X53500000Y-101362295D02*
X53766666Y-100562295D01*
X54490476Y-101286104D02*
X54452380Y-101324200D01*
X54452380Y-101324200D02*
X54338095Y-101362295D01*
X54338095Y-101362295D02*
X54261904Y-101362295D01*
X54261904Y-101362295D02*
X54147618Y-101324200D01*
X54147618Y-101324200D02*
X54071428Y-101248009D01*
X54071428Y-101248009D02*
X54033333Y-101171819D01*
X54033333Y-101171819D02*
X53995237Y-101019438D01*
X53995237Y-101019438D02*
X53995237Y-100905152D01*
X53995237Y-100905152D02*
X54033333Y-100752771D01*
X54033333Y-100752771D02*
X54071428Y-100676580D01*
X54071428Y-100676580D02*
X54147618Y-100600390D01*
X54147618Y-100600390D02*
X54261904Y-100562295D01*
X54261904Y-100562295D02*
X54338095Y-100562295D01*
X54338095Y-100562295D02*
X54452380Y-100600390D01*
X54452380Y-100600390D02*
X54490476Y-100638485D01*
X55290476Y-101286104D02*
X55252380Y-101324200D01*
X55252380Y-101324200D02*
X55138095Y-101362295D01*
X55138095Y-101362295D02*
X55061904Y-101362295D01*
X55061904Y-101362295D02*
X54947618Y-101324200D01*
X54947618Y-101324200D02*
X54871428Y-101248009D01*
X54871428Y-101248009D02*
X54833333Y-101171819D01*
X54833333Y-101171819D02*
X54795237Y-101019438D01*
X54795237Y-101019438D02*
X54795237Y-100905152D01*
X54795237Y-100905152D02*
X54833333Y-100752771D01*
X54833333Y-100752771D02*
X54871428Y-100676580D01*
X54871428Y-100676580D02*
X54947618Y-100600390D01*
X54947618Y-100600390D02*
X55061904Y-100562295D01*
X55061904Y-100562295D02*
X55138095Y-100562295D01*
X55138095Y-100562295D02*
X55252380Y-100600390D01*
X55252380Y-100600390D02*
X55290476Y-100638485D01*
X54185714Y-149362295D02*
X53728571Y-149362295D01*
X53957143Y-149362295D02*
X53957143Y-148562295D01*
X53957143Y-148562295D02*
X53880952Y-148676580D01*
X53880952Y-148676580D02*
X53804762Y-148752771D01*
X53804762Y-148752771D02*
X53728571Y-148790866D01*
X54490476Y-149133723D02*
X54871429Y-149133723D01*
X54414286Y-149362295D02*
X54680953Y-148562295D01*
X54680953Y-148562295D02*
X54947619Y-149362295D01*
X54471429Y-72057533D02*
X55080953Y-72057533D01*
X54776191Y-72362295D02*
X54776191Y-71752771D01*
X55842857Y-71562295D02*
X55461905Y-71562295D01*
X55461905Y-71562295D02*
X55423809Y-71943247D01*
X55423809Y-71943247D02*
X55461905Y-71905152D01*
X55461905Y-71905152D02*
X55538095Y-71867057D01*
X55538095Y-71867057D02*
X55728571Y-71867057D01*
X55728571Y-71867057D02*
X55804762Y-71905152D01*
X55804762Y-71905152D02*
X55842857Y-71943247D01*
X55842857Y-71943247D02*
X55880952Y-72019438D01*
X55880952Y-72019438D02*
X55880952Y-72209914D01*
X55880952Y-72209914D02*
X55842857Y-72286104D01*
X55842857Y-72286104D02*
X55804762Y-72324200D01*
X55804762Y-72324200D02*
X55728571Y-72362295D01*
X55728571Y-72362295D02*
X55538095Y-72362295D01*
X55538095Y-72362295D02*
X55461905Y-72324200D01*
X55461905Y-72324200D02*
X55423809Y-72286104D01*
X56109524Y-71562295D02*
X56376191Y-72362295D01*
X56376191Y-72362295D02*
X56642857Y-71562295D01*
X54890476Y-78500390D02*
X54814286Y-78462295D01*
X54814286Y-78462295D02*
X54700000Y-78462295D01*
X54700000Y-78462295D02*
X54585714Y-78500390D01*
X54585714Y-78500390D02*
X54509524Y-78576580D01*
X54509524Y-78576580D02*
X54471429Y-78652771D01*
X54471429Y-78652771D02*
X54433333Y-78805152D01*
X54433333Y-78805152D02*
X54433333Y-78919438D01*
X54433333Y-78919438D02*
X54471429Y-79071819D01*
X54471429Y-79071819D02*
X54509524Y-79148009D01*
X54509524Y-79148009D02*
X54585714Y-79224200D01*
X54585714Y-79224200D02*
X54700000Y-79262295D01*
X54700000Y-79262295D02*
X54776191Y-79262295D01*
X54776191Y-79262295D02*
X54890476Y-79224200D01*
X54890476Y-79224200D02*
X54928572Y-79186104D01*
X54928572Y-79186104D02*
X54928572Y-78919438D01*
X54928572Y-78919438D02*
X54776191Y-78919438D01*
X55271429Y-79262295D02*
X55271429Y-78462295D01*
X55271429Y-78462295D02*
X55728572Y-79262295D01*
X55728572Y-79262295D02*
X55728572Y-78462295D01*
X56109524Y-79262295D02*
X56109524Y-78462295D01*
X56109524Y-78462295D02*
X56300000Y-78462295D01*
X56300000Y-78462295D02*
X56414286Y-78500390D01*
X56414286Y-78500390D02*
X56490476Y-78576580D01*
X56490476Y-78576580D02*
X56528571Y-78652771D01*
X56528571Y-78652771D02*
X56566667Y-78805152D01*
X56566667Y-78805152D02*
X56566667Y-78919438D01*
X56566667Y-78919438D02*
X56528571Y-79071819D01*
X56528571Y-79071819D02*
X56490476Y-79148009D01*
X56490476Y-79148009D02*
X56414286Y-79224200D01*
X56414286Y-79224200D02*
X56300000Y-79262295D01*
X56300000Y-79262295D02*
X56109524Y-79262295D01*
X54471429Y-122057533D02*
X55080953Y-122057533D01*
X54776191Y-122362295D02*
X54776191Y-121752771D01*
X55842857Y-121562295D02*
X55461905Y-121562295D01*
X55461905Y-121562295D02*
X55423809Y-121943247D01*
X55423809Y-121943247D02*
X55461905Y-121905152D01*
X55461905Y-121905152D02*
X55538095Y-121867057D01*
X55538095Y-121867057D02*
X55728571Y-121867057D01*
X55728571Y-121867057D02*
X55804762Y-121905152D01*
X55804762Y-121905152D02*
X55842857Y-121943247D01*
X55842857Y-121943247D02*
X55880952Y-122019438D01*
X55880952Y-122019438D02*
X55880952Y-122209914D01*
X55880952Y-122209914D02*
X55842857Y-122286104D01*
X55842857Y-122286104D02*
X55804762Y-122324200D01*
X55804762Y-122324200D02*
X55728571Y-122362295D01*
X55728571Y-122362295D02*
X55538095Y-122362295D01*
X55538095Y-122362295D02*
X55461905Y-122324200D01*
X55461905Y-122324200D02*
X55423809Y-122286104D01*
X56109524Y-121562295D02*
X56376191Y-122362295D01*
X56376191Y-122362295D02*
X56642857Y-121562295D01*
X54890476Y-128500390D02*
X54814286Y-128462295D01*
X54814286Y-128462295D02*
X54700000Y-128462295D01*
X54700000Y-128462295D02*
X54585714Y-128500390D01*
X54585714Y-128500390D02*
X54509524Y-128576580D01*
X54509524Y-128576580D02*
X54471429Y-128652771D01*
X54471429Y-128652771D02*
X54433333Y-128805152D01*
X54433333Y-128805152D02*
X54433333Y-128919438D01*
X54433333Y-128919438D02*
X54471429Y-129071819D01*
X54471429Y-129071819D02*
X54509524Y-129148009D01*
X54509524Y-129148009D02*
X54585714Y-129224200D01*
X54585714Y-129224200D02*
X54700000Y-129262295D01*
X54700000Y-129262295D02*
X54776191Y-129262295D01*
X54776191Y-129262295D02*
X54890476Y-129224200D01*
X54890476Y-129224200D02*
X54928572Y-129186104D01*
X54928572Y-129186104D02*
X54928572Y-128919438D01*
X54928572Y-128919438D02*
X54776191Y-128919438D01*
X55271429Y-129262295D02*
X55271429Y-128462295D01*
X55271429Y-128462295D02*
X55728572Y-129262295D01*
X55728572Y-129262295D02*
X55728572Y-128462295D01*
X56109524Y-129262295D02*
X56109524Y-128462295D01*
X56109524Y-128462295D02*
X56300000Y-128462295D01*
X56300000Y-128462295D02*
X56414286Y-128500390D01*
X56414286Y-128500390D02*
X56490476Y-128576580D01*
X56490476Y-128576580D02*
X56528571Y-128652771D01*
X56528571Y-128652771D02*
X56566667Y-128805152D01*
X56566667Y-128805152D02*
X56566667Y-128919438D01*
X56566667Y-128919438D02*
X56528571Y-129071819D01*
X56528571Y-129071819D02*
X56490476Y-129148009D01*
X56490476Y-129148009D02*
X56414286Y-129224200D01*
X56414286Y-129224200D02*
X56300000Y-129262295D01*
X56300000Y-129262295D02*
X56109524Y-129262295D01*
X58652381Y-50828961D02*
X58652381Y-51362295D01*
X58461905Y-50524200D02*
X58271428Y-51095628D01*
X58271428Y-51095628D02*
X58766667Y-51095628D01*
X59338095Y-50943247D02*
X59452381Y-50981342D01*
X59452381Y-50981342D02*
X59490476Y-51019438D01*
X59490476Y-51019438D02*
X59528572Y-51095628D01*
X59528572Y-51095628D02*
X59528572Y-51209914D01*
X59528572Y-51209914D02*
X59490476Y-51286104D01*
X59490476Y-51286104D02*
X59452381Y-51324200D01*
X59452381Y-51324200D02*
X59376191Y-51362295D01*
X59376191Y-51362295D02*
X59071429Y-51362295D01*
X59071429Y-51362295D02*
X59071429Y-50562295D01*
X59071429Y-50562295D02*
X59338095Y-50562295D01*
X59338095Y-50562295D02*
X59414286Y-50600390D01*
X59414286Y-50600390D02*
X59452381Y-50638485D01*
X59452381Y-50638485D02*
X59490476Y-50714676D01*
X59490476Y-50714676D02*
X59490476Y-50790866D01*
X59490476Y-50790866D02*
X59452381Y-50867057D01*
X59452381Y-50867057D02*
X59414286Y-50905152D01*
X59414286Y-50905152D02*
X59338095Y-50943247D01*
X59338095Y-50943247D02*
X59071429Y-50943247D01*
X58728571Y-99362295D02*
X58271428Y-99362295D01*
X58500000Y-99362295D02*
X58500000Y-98562295D01*
X58500000Y-98562295D02*
X58423809Y-98676580D01*
X58423809Y-98676580D02*
X58347619Y-98752771D01*
X58347619Y-98752771D02*
X58271428Y-98790866D01*
X59338095Y-98943247D02*
X59452381Y-98981342D01*
X59452381Y-98981342D02*
X59490476Y-99019438D01*
X59490476Y-99019438D02*
X59528572Y-99095628D01*
X59528572Y-99095628D02*
X59528572Y-99209914D01*
X59528572Y-99209914D02*
X59490476Y-99286104D01*
X59490476Y-99286104D02*
X59452381Y-99324200D01*
X59452381Y-99324200D02*
X59376191Y-99362295D01*
X59376191Y-99362295D02*
X59071429Y-99362295D01*
X59071429Y-99362295D02*
X59071429Y-98562295D01*
X59071429Y-98562295D02*
X59338095Y-98562295D01*
X59338095Y-98562295D02*
X59414286Y-98600390D01*
X59414286Y-98600390D02*
X59452381Y-98638485D01*
X59452381Y-98638485D02*
X59490476Y-98714676D01*
X59490476Y-98714676D02*
X59490476Y-98790866D01*
X59490476Y-98790866D02*
X59452381Y-98867057D01*
X59452381Y-98867057D02*
X59414286Y-98905152D01*
X59414286Y-98905152D02*
X59338095Y-98943247D01*
X59338095Y-98943247D02*
X59071429Y-98943247D01*
X58728571Y-101362295D02*
X58271428Y-101362295D01*
X58500000Y-101362295D02*
X58500000Y-100562295D01*
X58500000Y-100562295D02*
X58423809Y-100676580D01*
X58423809Y-100676580D02*
X58347619Y-100752771D01*
X58347619Y-100752771D02*
X58271428Y-100790866D01*
X59528572Y-101286104D02*
X59490476Y-101324200D01*
X59490476Y-101324200D02*
X59376191Y-101362295D01*
X59376191Y-101362295D02*
X59300000Y-101362295D01*
X59300000Y-101362295D02*
X59185714Y-101324200D01*
X59185714Y-101324200D02*
X59109524Y-101248009D01*
X59109524Y-101248009D02*
X59071429Y-101171819D01*
X59071429Y-101171819D02*
X59033333Y-101019438D01*
X59033333Y-101019438D02*
X59033333Y-100905152D01*
X59033333Y-100905152D02*
X59071429Y-100752771D01*
X59071429Y-100752771D02*
X59109524Y-100676580D01*
X59109524Y-100676580D02*
X59185714Y-100600390D01*
X59185714Y-100600390D02*
X59300000Y-100562295D01*
X59300000Y-100562295D02*
X59376191Y-100562295D01*
X59376191Y-100562295D02*
X59490476Y-100600390D01*
X59490476Y-100600390D02*
X59528572Y-100638485D01*
X58728571Y-149362295D02*
X58271428Y-149362295D01*
X58500000Y-149362295D02*
X58500000Y-148562295D01*
X58500000Y-148562295D02*
X58423809Y-148676580D01*
X58423809Y-148676580D02*
X58347619Y-148752771D01*
X58347619Y-148752771D02*
X58271428Y-148790866D01*
X59338095Y-148943247D02*
X59452381Y-148981342D01*
X59452381Y-148981342D02*
X59490476Y-149019438D01*
X59490476Y-149019438D02*
X59528572Y-149095628D01*
X59528572Y-149095628D02*
X59528572Y-149209914D01*
X59528572Y-149209914D02*
X59490476Y-149286104D01*
X59490476Y-149286104D02*
X59452381Y-149324200D01*
X59452381Y-149324200D02*
X59376191Y-149362295D01*
X59376191Y-149362295D02*
X59071429Y-149362295D01*
X59071429Y-149362295D02*
X59071429Y-148562295D01*
X59071429Y-148562295D02*
X59338095Y-148562295D01*
X59338095Y-148562295D02*
X59414286Y-148600390D01*
X59414286Y-148600390D02*
X59452381Y-148638485D01*
X59452381Y-148638485D02*
X59490476Y-148714676D01*
X59490476Y-148714676D02*
X59490476Y-148790866D01*
X59490476Y-148790866D02*
X59452381Y-148867057D01*
X59452381Y-148867057D02*
X59414286Y-148905152D01*
X59414286Y-148905152D02*
X59338095Y-148943247D01*
X59338095Y-148943247D02*
X59071429Y-148943247D01*
X63309524Y-50828961D02*
X63309524Y-51362295D01*
X63119048Y-50524200D02*
X62928571Y-51095628D01*
X62928571Y-51095628D02*
X63423810Y-51095628D01*
X63690476Y-51133723D02*
X64071429Y-51133723D01*
X63614286Y-51362295D02*
X63880953Y-50562295D01*
X63880953Y-50562295D02*
X64147619Y-51362295D01*
X63385714Y-99362295D02*
X62928571Y-99362295D01*
X63157143Y-99362295D02*
X63157143Y-98562295D01*
X63157143Y-98562295D02*
X63080952Y-98676580D01*
X63080952Y-98676580D02*
X63004762Y-98752771D01*
X63004762Y-98752771D02*
X62928571Y-98790866D01*
X63880953Y-98981342D02*
X63880953Y-99362295D01*
X63614286Y-98562295D02*
X63880953Y-98981342D01*
X63880953Y-98981342D02*
X64147619Y-98562295D01*
X63385714Y-101362295D02*
X62928571Y-101362295D01*
X63157143Y-101362295D02*
X63157143Y-100562295D01*
X63157143Y-100562295D02*
X63080952Y-100676580D01*
X63080952Y-100676580D02*
X63004762Y-100752771D01*
X63004762Y-100752771D02*
X62928571Y-100790866D01*
X63880953Y-100981342D02*
X63880953Y-101362295D01*
X63614286Y-100562295D02*
X63880953Y-100981342D01*
X63880953Y-100981342D02*
X64147619Y-100562295D01*
X62928571Y-148638485D02*
X62966667Y-148600390D01*
X62966667Y-148600390D02*
X63042857Y-148562295D01*
X63042857Y-148562295D02*
X63233333Y-148562295D01*
X63233333Y-148562295D02*
X63309524Y-148600390D01*
X63309524Y-148600390D02*
X63347619Y-148638485D01*
X63347619Y-148638485D02*
X63385714Y-148714676D01*
X63385714Y-148714676D02*
X63385714Y-148790866D01*
X63385714Y-148790866D02*
X63347619Y-148905152D01*
X63347619Y-148905152D02*
X62890476Y-149362295D01*
X62890476Y-149362295D02*
X63385714Y-149362295D01*
X63690476Y-149133723D02*
X64071429Y-149133723D01*
X63614286Y-149362295D02*
X63880953Y-148562295D01*
X63880953Y-148562295D02*
X64147619Y-149362295D01*
X67909524Y-50828961D02*
X67909524Y-51362295D01*
X67719048Y-50524200D02*
X67528571Y-51095628D01*
X67528571Y-51095628D02*
X68023810Y-51095628D01*
X68480953Y-50981342D02*
X68480953Y-51362295D01*
X68214286Y-50562295D02*
X68480953Y-50981342D01*
X68480953Y-50981342D02*
X68747619Y-50562295D01*
X67528571Y-98638485D02*
X67566667Y-98600390D01*
X67566667Y-98600390D02*
X67642857Y-98562295D01*
X67642857Y-98562295D02*
X67833333Y-98562295D01*
X67833333Y-98562295D02*
X67909524Y-98600390D01*
X67909524Y-98600390D02*
X67947619Y-98638485D01*
X67947619Y-98638485D02*
X67985714Y-98714676D01*
X67985714Y-98714676D02*
X67985714Y-98790866D01*
X67985714Y-98790866D02*
X67947619Y-98905152D01*
X67947619Y-98905152D02*
X67490476Y-99362295D01*
X67490476Y-99362295D02*
X67985714Y-99362295D01*
X68290476Y-99133723D02*
X68671429Y-99133723D01*
X68214286Y-99362295D02*
X68480953Y-98562295D01*
X68480953Y-98562295D02*
X68747619Y-99362295D01*
X67433333Y-100562295D02*
X67928571Y-100562295D01*
X67928571Y-100562295D02*
X67661905Y-100867057D01*
X67661905Y-100867057D02*
X67776190Y-100867057D01*
X67776190Y-100867057D02*
X67852381Y-100905152D01*
X67852381Y-100905152D02*
X67890476Y-100943247D01*
X67890476Y-100943247D02*
X67928571Y-101019438D01*
X67928571Y-101019438D02*
X67928571Y-101209914D01*
X67928571Y-101209914D02*
X67890476Y-101286104D01*
X67890476Y-101286104D02*
X67852381Y-101324200D01*
X67852381Y-101324200D02*
X67776190Y-101362295D01*
X67776190Y-101362295D02*
X67547619Y-101362295D01*
X67547619Y-101362295D02*
X67471428Y-101324200D01*
X67471428Y-101324200D02*
X67433333Y-101286104D01*
X68728572Y-101286104D02*
X68690476Y-101324200D01*
X68690476Y-101324200D02*
X68576191Y-101362295D01*
X68576191Y-101362295D02*
X68500000Y-101362295D01*
X68500000Y-101362295D02*
X68385714Y-101324200D01*
X68385714Y-101324200D02*
X68309524Y-101248009D01*
X68309524Y-101248009D02*
X68271429Y-101171819D01*
X68271429Y-101171819D02*
X68233333Y-101019438D01*
X68233333Y-101019438D02*
X68233333Y-100905152D01*
X68233333Y-100905152D02*
X68271429Y-100752771D01*
X68271429Y-100752771D02*
X68309524Y-100676580D01*
X68309524Y-100676580D02*
X68385714Y-100600390D01*
X68385714Y-100600390D02*
X68500000Y-100562295D01*
X68500000Y-100562295D02*
X68576191Y-100562295D01*
X68576191Y-100562295D02*
X68690476Y-100600390D01*
X68690476Y-100600390D02*
X68728572Y-100638485D01*
X67471428Y-148638485D02*
X67509524Y-148600390D01*
X67509524Y-148600390D02*
X67585714Y-148562295D01*
X67585714Y-148562295D02*
X67776190Y-148562295D01*
X67776190Y-148562295D02*
X67852381Y-148600390D01*
X67852381Y-148600390D02*
X67890476Y-148638485D01*
X67890476Y-148638485D02*
X67928571Y-148714676D01*
X67928571Y-148714676D02*
X67928571Y-148790866D01*
X67928571Y-148790866D02*
X67890476Y-148905152D01*
X67890476Y-148905152D02*
X67433333Y-149362295D01*
X67433333Y-149362295D02*
X67928571Y-149362295D01*
X68538095Y-148943247D02*
X68652381Y-148981342D01*
X68652381Y-148981342D02*
X68690476Y-149019438D01*
X68690476Y-149019438D02*
X68728572Y-149095628D01*
X68728572Y-149095628D02*
X68728572Y-149209914D01*
X68728572Y-149209914D02*
X68690476Y-149286104D01*
X68690476Y-149286104D02*
X68652381Y-149324200D01*
X68652381Y-149324200D02*
X68576191Y-149362295D01*
X68576191Y-149362295D02*
X68271429Y-149362295D01*
X68271429Y-149362295D02*
X68271429Y-148562295D01*
X68271429Y-148562295D02*
X68538095Y-148562295D01*
X68538095Y-148562295D02*
X68614286Y-148600390D01*
X68614286Y-148600390D02*
X68652381Y-148638485D01*
X68652381Y-148638485D02*
X68690476Y-148714676D01*
X68690476Y-148714676D02*
X68690476Y-148790866D01*
X68690476Y-148790866D02*
X68652381Y-148867057D01*
X68652381Y-148867057D02*
X68614286Y-148905152D01*
X68614286Y-148905152D02*
X68538095Y-148943247D01*
X68538095Y-148943247D02*
X68271429Y-148943247D01*
X72033333Y-50562295D02*
X72528571Y-50562295D01*
X72528571Y-50562295D02*
X72261905Y-50867057D01*
X72261905Y-50867057D02*
X72376190Y-50867057D01*
X72376190Y-50867057D02*
X72452381Y-50905152D01*
X72452381Y-50905152D02*
X72490476Y-50943247D01*
X72490476Y-50943247D02*
X72528571Y-51019438D01*
X72528571Y-51019438D02*
X72528571Y-51209914D01*
X72528571Y-51209914D02*
X72490476Y-51286104D01*
X72490476Y-51286104D02*
X72452381Y-51324200D01*
X72452381Y-51324200D02*
X72376190Y-51362295D01*
X72376190Y-51362295D02*
X72147619Y-51362295D01*
X72147619Y-51362295D02*
X72071428Y-51324200D01*
X72071428Y-51324200D02*
X72033333Y-51286104D01*
X73138095Y-50943247D02*
X73252381Y-50981342D01*
X73252381Y-50981342D02*
X73290476Y-51019438D01*
X73290476Y-51019438D02*
X73328572Y-51095628D01*
X73328572Y-51095628D02*
X73328572Y-51209914D01*
X73328572Y-51209914D02*
X73290476Y-51286104D01*
X73290476Y-51286104D02*
X73252381Y-51324200D01*
X73252381Y-51324200D02*
X73176191Y-51362295D01*
X73176191Y-51362295D02*
X72871429Y-51362295D01*
X72871429Y-51362295D02*
X72871429Y-50562295D01*
X72871429Y-50562295D02*
X73138095Y-50562295D01*
X73138095Y-50562295D02*
X73214286Y-50600390D01*
X73214286Y-50600390D02*
X73252381Y-50638485D01*
X73252381Y-50638485D02*
X73290476Y-50714676D01*
X73290476Y-50714676D02*
X73290476Y-50790866D01*
X73290476Y-50790866D02*
X73252381Y-50867057D01*
X73252381Y-50867057D02*
X73214286Y-50905152D01*
X73214286Y-50905152D02*
X73138095Y-50943247D01*
X73138095Y-50943247D02*
X72871429Y-50943247D01*
X72071428Y-98638485D02*
X72109524Y-98600390D01*
X72109524Y-98600390D02*
X72185714Y-98562295D01*
X72185714Y-98562295D02*
X72376190Y-98562295D01*
X72376190Y-98562295D02*
X72452381Y-98600390D01*
X72452381Y-98600390D02*
X72490476Y-98638485D01*
X72490476Y-98638485D02*
X72528571Y-98714676D01*
X72528571Y-98714676D02*
X72528571Y-98790866D01*
X72528571Y-98790866D02*
X72490476Y-98905152D01*
X72490476Y-98905152D02*
X72033333Y-99362295D01*
X72033333Y-99362295D02*
X72528571Y-99362295D01*
X73138095Y-98943247D02*
X73252381Y-98981342D01*
X73252381Y-98981342D02*
X73290476Y-99019438D01*
X73290476Y-99019438D02*
X73328572Y-99095628D01*
X73328572Y-99095628D02*
X73328572Y-99209914D01*
X73328572Y-99209914D02*
X73290476Y-99286104D01*
X73290476Y-99286104D02*
X73252381Y-99324200D01*
X73252381Y-99324200D02*
X73176191Y-99362295D01*
X73176191Y-99362295D02*
X72871429Y-99362295D01*
X72871429Y-99362295D02*
X72871429Y-98562295D01*
X72871429Y-98562295D02*
X73138095Y-98562295D01*
X73138095Y-98562295D02*
X73214286Y-98600390D01*
X73214286Y-98600390D02*
X73252381Y-98638485D01*
X73252381Y-98638485D02*
X73290476Y-98714676D01*
X73290476Y-98714676D02*
X73290476Y-98790866D01*
X73290476Y-98790866D02*
X73252381Y-98867057D01*
X73252381Y-98867057D02*
X73214286Y-98905152D01*
X73214286Y-98905152D02*
X73138095Y-98943247D01*
X73138095Y-98943247D02*
X72871429Y-98943247D01*
X72033333Y-100562295D02*
X72528571Y-100562295D01*
X72528571Y-100562295D02*
X72261905Y-100867057D01*
X72261905Y-100867057D02*
X72376190Y-100867057D01*
X72376190Y-100867057D02*
X72452381Y-100905152D01*
X72452381Y-100905152D02*
X72490476Y-100943247D01*
X72490476Y-100943247D02*
X72528571Y-101019438D01*
X72528571Y-101019438D02*
X72528571Y-101209914D01*
X72528571Y-101209914D02*
X72490476Y-101286104D01*
X72490476Y-101286104D02*
X72452381Y-101324200D01*
X72452381Y-101324200D02*
X72376190Y-101362295D01*
X72376190Y-101362295D02*
X72147619Y-101362295D01*
X72147619Y-101362295D02*
X72071428Y-101324200D01*
X72071428Y-101324200D02*
X72033333Y-101286104D01*
X73138095Y-100943247D02*
X73252381Y-100981342D01*
X73252381Y-100981342D02*
X73290476Y-101019438D01*
X73290476Y-101019438D02*
X73328572Y-101095628D01*
X73328572Y-101095628D02*
X73328572Y-101209914D01*
X73328572Y-101209914D02*
X73290476Y-101286104D01*
X73290476Y-101286104D02*
X73252381Y-101324200D01*
X73252381Y-101324200D02*
X73176191Y-101362295D01*
X73176191Y-101362295D02*
X72871429Y-101362295D01*
X72871429Y-101362295D02*
X72871429Y-100562295D01*
X72871429Y-100562295D02*
X73138095Y-100562295D01*
X73138095Y-100562295D02*
X73214286Y-100600390D01*
X73214286Y-100600390D02*
X73252381Y-100638485D01*
X73252381Y-100638485D02*
X73290476Y-100714676D01*
X73290476Y-100714676D02*
X73290476Y-100790866D01*
X73290476Y-100790866D02*
X73252381Y-100867057D01*
X73252381Y-100867057D02*
X73214286Y-100905152D01*
X73214286Y-100905152D02*
X73138095Y-100943247D01*
X73138095Y-100943247D02*
X72871429Y-100943247D01*
X72071428Y-148638485D02*
X72109524Y-148600390D01*
X72109524Y-148600390D02*
X72185714Y-148562295D01*
X72185714Y-148562295D02*
X72376190Y-148562295D01*
X72376190Y-148562295D02*
X72452381Y-148600390D01*
X72452381Y-148600390D02*
X72490476Y-148638485D01*
X72490476Y-148638485D02*
X72528571Y-148714676D01*
X72528571Y-148714676D02*
X72528571Y-148790866D01*
X72528571Y-148790866D02*
X72490476Y-148905152D01*
X72490476Y-148905152D02*
X72033333Y-149362295D01*
X72033333Y-149362295D02*
X72528571Y-149362295D01*
X73328572Y-149286104D02*
X73290476Y-149324200D01*
X73290476Y-149324200D02*
X73176191Y-149362295D01*
X73176191Y-149362295D02*
X73100000Y-149362295D01*
X73100000Y-149362295D02*
X72985714Y-149324200D01*
X72985714Y-149324200D02*
X72909524Y-149248009D01*
X72909524Y-149248009D02*
X72871429Y-149171819D01*
X72871429Y-149171819D02*
X72833333Y-149019438D01*
X72833333Y-149019438D02*
X72833333Y-148905152D01*
X72833333Y-148905152D02*
X72871429Y-148752771D01*
X72871429Y-148752771D02*
X72909524Y-148676580D01*
X72909524Y-148676580D02*
X72985714Y-148600390D01*
X72985714Y-148600390D02*
X73100000Y-148562295D01*
X73100000Y-148562295D02*
X73176191Y-148562295D01*
X73176191Y-148562295D02*
X73290476Y-148600390D01*
X73290476Y-148600390D02*
X73328572Y-148638485D01*
X68047617Y-67638485D02*
X67971427Y-67600390D01*
X67971427Y-67600390D02*
X67895236Y-67524200D01*
X67895236Y-67524200D02*
X67780950Y-67409914D01*
X67780950Y-67409914D02*
X67704760Y-67371819D01*
X67704760Y-67371819D02*
X67628569Y-67371819D01*
X67666665Y-67562295D02*
X67590474Y-67524200D01*
X67590474Y-67524200D02*
X67514284Y-67448009D01*
X67514284Y-67448009D02*
X67476188Y-67295628D01*
X67476188Y-67295628D02*
X67476188Y-67028961D01*
X67476188Y-67028961D02*
X67514284Y-66876580D01*
X67514284Y-66876580D02*
X67590474Y-66800390D01*
X67590474Y-66800390D02*
X67666665Y-66762295D01*
X67666665Y-66762295D02*
X67819046Y-66762295D01*
X67819046Y-66762295D02*
X67895236Y-66800390D01*
X67895236Y-66800390D02*
X67971427Y-66876580D01*
X67971427Y-66876580D02*
X68009522Y-67028961D01*
X68009522Y-67028961D02*
X68009522Y-67295628D01*
X68009522Y-67295628D02*
X67971427Y-67448009D01*
X67971427Y-67448009D02*
X67895236Y-67524200D01*
X67895236Y-67524200D02*
X67819046Y-67562295D01*
X67819046Y-67562295D02*
X67666665Y-67562295D01*
X68695236Y-67028961D02*
X68695236Y-67562295D01*
X68352379Y-67028961D02*
X68352379Y-67448009D01*
X68352379Y-67448009D02*
X68390474Y-67524200D01*
X68390474Y-67524200D02*
X68466664Y-67562295D01*
X68466664Y-67562295D02*
X68580950Y-67562295D01*
X68580950Y-67562295D02*
X68657141Y-67524200D01*
X68657141Y-67524200D02*
X68695236Y-67486104D01*
X69419046Y-67562295D02*
X69419046Y-67143247D01*
X69419046Y-67143247D02*
X69380951Y-67067057D01*
X69380951Y-67067057D02*
X69304760Y-67028961D01*
X69304760Y-67028961D02*
X69152379Y-67028961D01*
X69152379Y-67028961D02*
X69076189Y-67067057D01*
X69419046Y-67524200D02*
X69342855Y-67562295D01*
X69342855Y-67562295D02*
X69152379Y-67562295D01*
X69152379Y-67562295D02*
X69076189Y-67524200D01*
X69076189Y-67524200D02*
X69038093Y-67448009D01*
X69038093Y-67448009D02*
X69038093Y-67371819D01*
X69038093Y-67371819D02*
X69076189Y-67295628D01*
X69076189Y-67295628D02*
X69152379Y-67257533D01*
X69152379Y-67257533D02*
X69342855Y-67257533D01*
X69342855Y-67257533D02*
X69419046Y-67219438D01*
X70142856Y-67562295D02*
X70142856Y-66762295D01*
X70142856Y-67524200D02*
X70066665Y-67562295D01*
X70066665Y-67562295D02*
X69914284Y-67562295D01*
X69914284Y-67562295D02*
X69838094Y-67524200D01*
X69838094Y-67524200D02*
X69799999Y-67486104D01*
X69799999Y-67486104D02*
X69761903Y-67409914D01*
X69761903Y-67409914D02*
X69761903Y-67181342D01*
X69761903Y-67181342D02*
X69799999Y-67105152D01*
X69799999Y-67105152D02*
X69838094Y-67067057D01*
X69838094Y-67067057D02*
X69914284Y-67028961D01*
X69914284Y-67028961D02*
X70066665Y-67028961D01*
X70066665Y-67028961D02*
X70142856Y-67067057D01*
X71095237Y-66838485D02*
X71133333Y-66800390D01*
X71133333Y-66800390D02*
X71209523Y-66762295D01*
X71209523Y-66762295D02*
X71399999Y-66762295D01*
X71399999Y-66762295D02*
X71476190Y-66800390D01*
X71476190Y-66800390D02*
X71514285Y-66838485D01*
X71514285Y-66838485D02*
X71552380Y-66914676D01*
X71552380Y-66914676D02*
X71552380Y-66990866D01*
X71552380Y-66990866D02*
X71514285Y-67105152D01*
X71514285Y-67105152D02*
X71057142Y-67562295D01*
X71057142Y-67562295D02*
X71552380Y-67562295D01*
X71895238Y-67257533D02*
X72504762Y-67257533D01*
X72885714Y-67562295D02*
X72885714Y-67028961D01*
X72885714Y-66762295D02*
X72847618Y-66800390D01*
X72847618Y-66800390D02*
X72885714Y-66838485D01*
X72885714Y-66838485D02*
X72923809Y-66800390D01*
X72923809Y-66800390D02*
X72885714Y-66762295D01*
X72885714Y-66762295D02*
X72885714Y-66838485D01*
X73266666Y-67028961D02*
X73266666Y-67562295D01*
X73266666Y-67105152D02*
X73304761Y-67067057D01*
X73304761Y-67067057D02*
X73380951Y-67028961D01*
X73380951Y-67028961D02*
X73495237Y-67028961D01*
X73495237Y-67028961D02*
X73571428Y-67067057D01*
X73571428Y-67067057D02*
X73609523Y-67143247D01*
X73609523Y-67143247D02*
X73609523Y-67562295D01*
X73990476Y-67028961D02*
X73990476Y-67828961D01*
X73990476Y-67067057D02*
X74066666Y-67028961D01*
X74066666Y-67028961D02*
X74219047Y-67028961D01*
X74219047Y-67028961D02*
X74295238Y-67067057D01*
X74295238Y-67067057D02*
X74333333Y-67105152D01*
X74333333Y-67105152D02*
X74371428Y-67181342D01*
X74371428Y-67181342D02*
X74371428Y-67409914D01*
X74371428Y-67409914D02*
X74333333Y-67486104D01*
X74333333Y-67486104D02*
X74295238Y-67524200D01*
X74295238Y-67524200D02*
X74219047Y-67562295D01*
X74219047Y-67562295D02*
X74066666Y-67562295D01*
X74066666Y-67562295D02*
X73990476Y-67524200D01*
X75057143Y-67028961D02*
X75057143Y-67562295D01*
X74714286Y-67028961D02*
X74714286Y-67448009D01*
X74714286Y-67448009D02*
X74752381Y-67524200D01*
X74752381Y-67524200D02*
X74828571Y-67562295D01*
X74828571Y-67562295D02*
X74942857Y-67562295D01*
X74942857Y-67562295D02*
X75019048Y-67524200D01*
X75019048Y-67524200D02*
X75057143Y-67486104D01*
X75323810Y-67028961D02*
X75628572Y-67028961D01*
X75438096Y-66762295D02*
X75438096Y-67448009D01*
X75438096Y-67448009D02*
X75476191Y-67524200D01*
X75476191Y-67524200D02*
X75552381Y-67562295D01*
X75552381Y-67562295D02*
X75628572Y-67562295D01*
X76504763Y-67562295D02*
X76504763Y-66762295D01*
X76504763Y-66762295D02*
X76961906Y-67562295D01*
X76961906Y-67562295D02*
X76961906Y-66762295D01*
X77304762Y-67333723D02*
X77685715Y-67333723D01*
X77228572Y-67562295D02*
X77495239Y-66762295D01*
X77495239Y-66762295D02*
X77761905Y-67562295D01*
X78028572Y-67562295D02*
X78028572Y-66762295D01*
X78028572Y-66762295D02*
X78485715Y-67562295D01*
X78485715Y-67562295D02*
X78485715Y-66762295D01*
X78866667Y-67562295D02*
X78866667Y-66762295D01*
X78866667Y-66762295D02*
X79057143Y-66762295D01*
X79057143Y-66762295D02*
X79171429Y-66800390D01*
X79171429Y-66800390D02*
X79247619Y-66876580D01*
X79247619Y-66876580D02*
X79285714Y-66952771D01*
X79285714Y-66952771D02*
X79323810Y-67105152D01*
X79323810Y-67105152D02*
X79323810Y-67219438D01*
X79323810Y-67219438D02*
X79285714Y-67371819D01*
X79285714Y-67371819D02*
X79247619Y-67448009D01*
X79247619Y-67448009D02*
X79171429Y-67524200D01*
X79171429Y-67524200D02*
X79057143Y-67562295D01*
X79057143Y-67562295D02*
X78866667Y-67562295D01*
X80619048Y-67028961D02*
X80619048Y-67676580D01*
X80619048Y-67676580D02*
X80580953Y-67752771D01*
X80580953Y-67752771D02*
X80542857Y-67790866D01*
X80542857Y-67790866D02*
X80466667Y-67828961D01*
X80466667Y-67828961D02*
X80352381Y-67828961D01*
X80352381Y-67828961D02*
X80276191Y-67790866D01*
X80619048Y-67524200D02*
X80542857Y-67562295D01*
X80542857Y-67562295D02*
X80390476Y-67562295D01*
X80390476Y-67562295D02*
X80314286Y-67524200D01*
X80314286Y-67524200D02*
X80276191Y-67486104D01*
X80276191Y-67486104D02*
X80238095Y-67409914D01*
X80238095Y-67409914D02*
X80238095Y-67181342D01*
X80238095Y-67181342D02*
X80276191Y-67105152D01*
X80276191Y-67105152D02*
X80314286Y-67067057D01*
X80314286Y-67067057D02*
X80390476Y-67028961D01*
X80390476Y-67028961D02*
X80542857Y-67028961D01*
X80542857Y-67028961D02*
X80619048Y-67067057D01*
X81342858Y-67562295D02*
X81342858Y-67143247D01*
X81342858Y-67143247D02*
X81304763Y-67067057D01*
X81304763Y-67067057D02*
X81228572Y-67028961D01*
X81228572Y-67028961D02*
X81076191Y-67028961D01*
X81076191Y-67028961D02*
X81000001Y-67067057D01*
X81342858Y-67524200D02*
X81266667Y-67562295D01*
X81266667Y-67562295D02*
X81076191Y-67562295D01*
X81076191Y-67562295D02*
X81000001Y-67524200D01*
X81000001Y-67524200D02*
X80961905Y-67448009D01*
X80961905Y-67448009D02*
X80961905Y-67371819D01*
X80961905Y-67371819D02*
X81000001Y-67295628D01*
X81000001Y-67295628D02*
X81076191Y-67257533D01*
X81076191Y-67257533D02*
X81266667Y-67257533D01*
X81266667Y-67257533D02*
X81342858Y-67219438D01*
X81609525Y-67028961D02*
X81914287Y-67028961D01*
X81723811Y-66762295D02*
X81723811Y-67448009D01*
X81723811Y-67448009D02*
X81761906Y-67524200D01*
X81761906Y-67524200D02*
X81838096Y-67562295D01*
X81838096Y-67562295D02*
X81914287Y-67562295D01*
X82485716Y-67524200D02*
X82409525Y-67562295D01*
X82409525Y-67562295D02*
X82257144Y-67562295D01*
X82257144Y-67562295D02*
X82180954Y-67524200D01*
X82180954Y-67524200D02*
X82142858Y-67448009D01*
X82142858Y-67448009D02*
X82142858Y-67143247D01*
X82142858Y-67143247D02*
X82180954Y-67067057D01*
X82180954Y-67067057D02*
X82257144Y-67028961D01*
X82257144Y-67028961D02*
X82409525Y-67028961D01*
X82409525Y-67028961D02*
X82485716Y-67067057D01*
X82485716Y-67067057D02*
X82523811Y-67143247D01*
X82523811Y-67143247D02*
X82523811Y-67219438D01*
X82523811Y-67219438D02*
X82142858Y-67295628D01*
X69571430Y-68478961D02*
X69571430Y-69012295D01*
X69380954Y-68174200D02*
X69190477Y-68745628D01*
X69190477Y-68745628D02*
X69685716Y-68745628D01*
X69876192Y-68974200D02*
X70866668Y-68974200D01*
X69876192Y-68174200D02*
X69876192Y-69012295D01*
X70142859Y-68707533D02*
X70600002Y-68707533D01*
X70142859Y-68402771D02*
X70142859Y-68707533D01*
X69876192Y-68174200D02*
X70866668Y-68174200D01*
X70866668Y-68174200D02*
X70866668Y-69012295D01*
X70142859Y-68402771D02*
X70600002Y-68402771D01*
X70600002Y-68402771D02*
X70600002Y-68707533D01*
X71133334Y-68440866D02*
X71438096Y-68440866D01*
X71133334Y-68174200D02*
X71133334Y-68440866D01*
X71133334Y-68593247D02*
X71133334Y-68936104D01*
X71285715Y-68631342D02*
X71438096Y-68631342D01*
X71285715Y-68402771D02*
X71285715Y-68898009D01*
X71438096Y-68898009D02*
X71057144Y-68936104D01*
X71590477Y-68669438D02*
X71590477Y-69012295D01*
X71590477Y-68974200D02*
X72009525Y-68974200D01*
X71133334Y-68174200D02*
X71438096Y-68174200D01*
X71438096Y-68174200D02*
X71438096Y-68440866D01*
X71590477Y-68669438D02*
X72009525Y-68669438D01*
X72009525Y-68669438D02*
X72009525Y-69012295D01*
X71666668Y-68098009D02*
X71590477Y-68288485D01*
X71590477Y-68288485D02*
X71476192Y-68402771D01*
X71628573Y-68250390D02*
X71666668Y-68402771D01*
X71666668Y-68402771D02*
X71895239Y-68631342D01*
X71895239Y-68631342D02*
X72047620Y-68669438D01*
X71628573Y-68212295D02*
X71933334Y-68212295D01*
X71933334Y-68212295D02*
X71857144Y-68402771D01*
X71857144Y-68402771D02*
X71628573Y-68593247D01*
X71628573Y-68593247D02*
X71438096Y-68669438D01*
X72314286Y-68288485D02*
X72352382Y-68250390D01*
X72352382Y-68250390D02*
X72428572Y-68212295D01*
X72428572Y-68212295D02*
X72619048Y-68212295D01*
X72619048Y-68212295D02*
X72695239Y-68250390D01*
X72695239Y-68250390D02*
X72733334Y-68288485D01*
X72733334Y-68288485D02*
X72771429Y-68364676D01*
X72771429Y-68364676D02*
X72771429Y-68440866D01*
X72771429Y-68440866D02*
X72733334Y-68555152D01*
X72733334Y-68555152D02*
X72276191Y-69012295D01*
X72276191Y-69012295D02*
X72771429Y-69012295D01*
X73495239Y-68288485D02*
X73457144Y-68517057D01*
X73457144Y-68517057D02*
X73342858Y-68745628D01*
X73342858Y-68745628D02*
X73076191Y-69012295D01*
X73228572Y-68212295D02*
X73495239Y-68212295D01*
X73495239Y-68212295D02*
X73571430Y-68440866D01*
X73571430Y-68440866D02*
X73685715Y-68745628D01*
X73685715Y-68745628D02*
X73952382Y-69012295D01*
X74790477Y-69012295D02*
X75057143Y-69012295D01*
X74219048Y-68364676D02*
X75171429Y-68364676D01*
X75171429Y-68364676D02*
X75171429Y-68593247D01*
X75171429Y-68593247D02*
X75095239Y-68974200D01*
X74638096Y-68098009D02*
X74638096Y-68440866D01*
X74638096Y-68440866D02*
X74561905Y-68631342D01*
X74561905Y-68631342D02*
X74447620Y-68821819D01*
X74447620Y-68821819D02*
X74219048Y-69012295D01*
X75476191Y-69012295D02*
X75476191Y-68212295D01*
X75476191Y-68212295D02*
X75933334Y-69012295D01*
X75933334Y-69012295D02*
X75933334Y-68212295D01*
X76276190Y-68783723D02*
X76657143Y-68783723D01*
X76200000Y-69012295D02*
X76466667Y-68212295D01*
X76466667Y-68212295D02*
X76733333Y-69012295D01*
X77000000Y-69012295D02*
X77000000Y-68212295D01*
X77000000Y-68212295D02*
X77457143Y-69012295D01*
X77457143Y-69012295D02*
X77457143Y-68212295D01*
X77838095Y-69012295D02*
X77838095Y-68212295D01*
X77838095Y-68212295D02*
X78028571Y-68212295D01*
X78028571Y-68212295D02*
X78142857Y-68250390D01*
X78142857Y-68250390D02*
X78219047Y-68326580D01*
X78219047Y-68326580D02*
X78257142Y-68402771D01*
X78257142Y-68402771D02*
X78295238Y-68555152D01*
X78295238Y-68555152D02*
X78295238Y-68669438D01*
X78295238Y-68669438D02*
X78257142Y-68821819D01*
X78257142Y-68821819D02*
X78219047Y-68898009D01*
X78219047Y-68898009D02*
X78142857Y-68974200D01*
X78142857Y-68974200D02*
X78028571Y-69012295D01*
X78028571Y-69012295D02*
X77838095Y-69012295D01*
X78714285Y-68402771D02*
X79133333Y-68402771D01*
X78980952Y-68250390D02*
X79057142Y-68326580D01*
X79095238Y-68212295D02*
X79171428Y-68288485D01*
X78752380Y-68136104D02*
X78714285Y-68288485D01*
X78714285Y-68288485D02*
X78638095Y-68478961D01*
X78638095Y-68478961D02*
X78599999Y-68631342D01*
X78942857Y-68402771D02*
X78942857Y-68593247D01*
X78942857Y-68593247D02*
X78904761Y-68707533D01*
X78904761Y-68707533D02*
X78828571Y-68821819D01*
X78828571Y-68821819D02*
X78714285Y-68974200D01*
X79399999Y-68593247D02*
X80009523Y-68593247D01*
X80542856Y-68478961D02*
X80771428Y-68669438D01*
X80542856Y-68136104D02*
X80542856Y-68974200D01*
X67247618Y-116762295D02*
X67704761Y-116762295D01*
X67476189Y-117562295D02*
X67476189Y-116762295D01*
X67971428Y-117562295D02*
X67971428Y-117028961D01*
X67971428Y-117181342D02*
X68009523Y-117105152D01*
X68009523Y-117105152D02*
X68047618Y-117067057D01*
X68047618Y-117067057D02*
X68123809Y-117028961D01*
X68123809Y-117028961D02*
X68199999Y-117028961D01*
X68466666Y-117562295D02*
X68466666Y-117028961D01*
X68466666Y-116762295D02*
X68428570Y-116800390D01*
X68428570Y-116800390D02*
X68466666Y-116838485D01*
X68466666Y-116838485D02*
X68504761Y-116800390D01*
X68504761Y-116800390D02*
X68466666Y-116762295D01*
X68466666Y-116762295D02*
X68466666Y-116838485D01*
X68847618Y-117028961D02*
X68847618Y-117828961D01*
X68847618Y-117067057D02*
X68923808Y-117028961D01*
X68923808Y-117028961D02*
X69076189Y-117028961D01*
X69076189Y-117028961D02*
X69152380Y-117067057D01*
X69152380Y-117067057D02*
X69190475Y-117105152D01*
X69190475Y-117105152D02*
X69228570Y-117181342D01*
X69228570Y-117181342D02*
X69228570Y-117409914D01*
X69228570Y-117409914D02*
X69190475Y-117486104D01*
X69190475Y-117486104D02*
X69152380Y-117524200D01*
X69152380Y-117524200D02*
X69076189Y-117562295D01*
X69076189Y-117562295D02*
X68923808Y-117562295D01*
X68923808Y-117562295D02*
X68847618Y-117524200D01*
X69685713Y-117562295D02*
X69609523Y-117524200D01*
X69609523Y-117524200D02*
X69571428Y-117448009D01*
X69571428Y-117448009D02*
X69571428Y-116762295D01*
X70295238Y-117524200D02*
X70219047Y-117562295D01*
X70219047Y-117562295D02*
X70066666Y-117562295D01*
X70066666Y-117562295D02*
X69990476Y-117524200D01*
X69990476Y-117524200D02*
X69952380Y-117448009D01*
X69952380Y-117448009D02*
X69952380Y-117143247D01*
X69952380Y-117143247D02*
X69990476Y-117067057D01*
X69990476Y-117067057D02*
X70066666Y-117028961D01*
X70066666Y-117028961D02*
X70219047Y-117028961D01*
X70219047Y-117028961D02*
X70295238Y-117067057D01*
X70295238Y-117067057D02*
X70333333Y-117143247D01*
X70333333Y-117143247D02*
X70333333Y-117219438D01*
X70333333Y-117219438D02*
X69952380Y-117295628D01*
X71209523Y-116762295D02*
X71704761Y-116762295D01*
X71704761Y-116762295D02*
X71438095Y-117067057D01*
X71438095Y-117067057D02*
X71552380Y-117067057D01*
X71552380Y-117067057D02*
X71628571Y-117105152D01*
X71628571Y-117105152D02*
X71666666Y-117143247D01*
X71666666Y-117143247D02*
X71704761Y-117219438D01*
X71704761Y-117219438D02*
X71704761Y-117409914D01*
X71704761Y-117409914D02*
X71666666Y-117486104D01*
X71666666Y-117486104D02*
X71628571Y-117524200D01*
X71628571Y-117524200D02*
X71552380Y-117562295D01*
X71552380Y-117562295D02*
X71323809Y-117562295D01*
X71323809Y-117562295D02*
X71247618Y-117524200D01*
X71247618Y-117524200D02*
X71209523Y-117486104D01*
X72047619Y-117257533D02*
X72657143Y-117257533D01*
X73038095Y-117562295D02*
X73038095Y-117028961D01*
X73038095Y-116762295D02*
X72999999Y-116800390D01*
X72999999Y-116800390D02*
X73038095Y-116838485D01*
X73038095Y-116838485D02*
X73076190Y-116800390D01*
X73076190Y-116800390D02*
X73038095Y-116762295D01*
X73038095Y-116762295D02*
X73038095Y-116838485D01*
X73419047Y-117028961D02*
X73419047Y-117562295D01*
X73419047Y-117105152D02*
X73457142Y-117067057D01*
X73457142Y-117067057D02*
X73533332Y-117028961D01*
X73533332Y-117028961D02*
X73647618Y-117028961D01*
X73647618Y-117028961D02*
X73723809Y-117067057D01*
X73723809Y-117067057D02*
X73761904Y-117143247D01*
X73761904Y-117143247D02*
X73761904Y-117562295D01*
X74142857Y-117028961D02*
X74142857Y-117828961D01*
X74142857Y-117067057D02*
X74219047Y-117028961D01*
X74219047Y-117028961D02*
X74371428Y-117028961D01*
X74371428Y-117028961D02*
X74447619Y-117067057D01*
X74447619Y-117067057D02*
X74485714Y-117105152D01*
X74485714Y-117105152D02*
X74523809Y-117181342D01*
X74523809Y-117181342D02*
X74523809Y-117409914D01*
X74523809Y-117409914D02*
X74485714Y-117486104D01*
X74485714Y-117486104D02*
X74447619Y-117524200D01*
X74447619Y-117524200D02*
X74371428Y-117562295D01*
X74371428Y-117562295D02*
X74219047Y-117562295D01*
X74219047Y-117562295D02*
X74142857Y-117524200D01*
X75209524Y-117028961D02*
X75209524Y-117562295D01*
X74866667Y-117028961D02*
X74866667Y-117448009D01*
X74866667Y-117448009D02*
X74904762Y-117524200D01*
X74904762Y-117524200D02*
X74980952Y-117562295D01*
X74980952Y-117562295D02*
X75095238Y-117562295D01*
X75095238Y-117562295D02*
X75171429Y-117524200D01*
X75171429Y-117524200D02*
X75209524Y-117486104D01*
X75476191Y-117028961D02*
X75780953Y-117028961D01*
X75590477Y-116762295D02*
X75590477Y-117448009D01*
X75590477Y-117448009D02*
X75628572Y-117524200D01*
X75628572Y-117524200D02*
X75704762Y-117562295D01*
X75704762Y-117562295D02*
X75780953Y-117562295D01*
X76657144Y-117562295D02*
X76657144Y-116762295D01*
X76657144Y-116762295D02*
X77114287Y-117562295D01*
X77114287Y-117562295D02*
X77114287Y-116762295D01*
X77457143Y-117333723D02*
X77838096Y-117333723D01*
X77380953Y-117562295D02*
X77647620Y-116762295D01*
X77647620Y-116762295D02*
X77914286Y-117562295D01*
X78180953Y-117562295D02*
X78180953Y-116762295D01*
X78180953Y-116762295D02*
X78638096Y-117562295D01*
X78638096Y-117562295D02*
X78638096Y-116762295D01*
X79019048Y-117562295D02*
X79019048Y-116762295D01*
X79019048Y-116762295D02*
X79209524Y-116762295D01*
X79209524Y-116762295D02*
X79323810Y-116800390D01*
X79323810Y-116800390D02*
X79400000Y-116876580D01*
X79400000Y-116876580D02*
X79438095Y-116952771D01*
X79438095Y-116952771D02*
X79476191Y-117105152D01*
X79476191Y-117105152D02*
X79476191Y-117219438D01*
X79476191Y-117219438D02*
X79438095Y-117371819D01*
X79438095Y-117371819D02*
X79400000Y-117448009D01*
X79400000Y-117448009D02*
X79323810Y-117524200D01*
X79323810Y-117524200D02*
X79209524Y-117562295D01*
X79209524Y-117562295D02*
X79019048Y-117562295D01*
X80771429Y-117028961D02*
X80771429Y-117676580D01*
X80771429Y-117676580D02*
X80733334Y-117752771D01*
X80733334Y-117752771D02*
X80695238Y-117790866D01*
X80695238Y-117790866D02*
X80619048Y-117828961D01*
X80619048Y-117828961D02*
X80504762Y-117828961D01*
X80504762Y-117828961D02*
X80428572Y-117790866D01*
X80771429Y-117524200D02*
X80695238Y-117562295D01*
X80695238Y-117562295D02*
X80542857Y-117562295D01*
X80542857Y-117562295D02*
X80466667Y-117524200D01*
X80466667Y-117524200D02*
X80428572Y-117486104D01*
X80428572Y-117486104D02*
X80390476Y-117409914D01*
X80390476Y-117409914D02*
X80390476Y-117181342D01*
X80390476Y-117181342D02*
X80428572Y-117105152D01*
X80428572Y-117105152D02*
X80466667Y-117067057D01*
X80466667Y-117067057D02*
X80542857Y-117028961D01*
X80542857Y-117028961D02*
X80695238Y-117028961D01*
X80695238Y-117028961D02*
X80771429Y-117067057D01*
X81495239Y-117562295D02*
X81495239Y-117143247D01*
X81495239Y-117143247D02*
X81457144Y-117067057D01*
X81457144Y-117067057D02*
X81380953Y-117028961D01*
X81380953Y-117028961D02*
X81228572Y-117028961D01*
X81228572Y-117028961D02*
X81152382Y-117067057D01*
X81495239Y-117524200D02*
X81419048Y-117562295D01*
X81419048Y-117562295D02*
X81228572Y-117562295D01*
X81228572Y-117562295D02*
X81152382Y-117524200D01*
X81152382Y-117524200D02*
X81114286Y-117448009D01*
X81114286Y-117448009D02*
X81114286Y-117371819D01*
X81114286Y-117371819D02*
X81152382Y-117295628D01*
X81152382Y-117295628D02*
X81228572Y-117257533D01*
X81228572Y-117257533D02*
X81419048Y-117257533D01*
X81419048Y-117257533D02*
X81495239Y-117219438D01*
X81761906Y-117028961D02*
X82066668Y-117028961D01*
X81876192Y-116762295D02*
X81876192Y-117448009D01*
X81876192Y-117448009D02*
X81914287Y-117524200D01*
X81914287Y-117524200D02*
X81990477Y-117562295D01*
X81990477Y-117562295D02*
X82066668Y-117562295D01*
X82638097Y-117524200D02*
X82561906Y-117562295D01*
X82561906Y-117562295D02*
X82409525Y-117562295D01*
X82409525Y-117562295D02*
X82333335Y-117524200D01*
X82333335Y-117524200D02*
X82295239Y-117448009D01*
X82295239Y-117448009D02*
X82295239Y-117143247D01*
X82295239Y-117143247D02*
X82333335Y-117067057D01*
X82333335Y-117067057D02*
X82409525Y-117028961D01*
X82409525Y-117028961D02*
X82561906Y-117028961D01*
X82561906Y-117028961D02*
X82638097Y-117067057D01*
X82638097Y-117067057D02*
X82676192Y-117143247D01*
X82676192Y-117143247D02*
X82676192Y-117219438D01*
X82676192Y-117219438D02*
X82295239Y-117295628D01*
X69152382Y-118212295D02*
X69647620Y-118212295D01*
X69647620Y-118212295D02*
X69380954Y-118517057D01*
X69380954Y-118517057D02*
X69495239Y-118517057D01*
X69495239Y-118517057D02*
X69571430Y-118555152D01*
X69571430Y-118555152D02*
X69609525Y-118593247D01*
X69609525Y-118593247D02*
X69647620Y-118669438D01*
X69647620Y-118669438D02*
X69647620Y-118859914D01*
X69647620Y-118859914D02*
X69609525Y-118936104D01*
X69609525Y-118936104D02*
X69571430Y-118974200D01*
X69571430Y-118974200D02*
X69495239Y-119012295D01*
X69495239Y-119012295D02*
X69266668Y-119012295D01*
X69266668Y-119012295D02*
X69190477Y-118974200D01*
X69190477Y-118974200D02*
X69152382Y-118936104D01*
X69876192Y-118974200D02*
X70866668Y-118974200D01*
X69876192Y-118174200D02*
X69876192Y-119012295D01*
X70142859Y-118707533D02*
X70600002Y-118707533D01*
X70142859Y-118402771D02*
X70142859Y-118707533D01*
X69876192Y-118174200D02*
X70866668Y-118174200D01*
X70866668Y-118174200D02*
X70866668Y-119012295D01*
X70142859Y-118402771D02*
X70600002Y-118402771D01*
X70600002Y-118402771D02*
X70600002Y-118707533D01*
X71133334Y-118440866D02*
X71438096Y-118440866D01*
X71133334Y-118174200D02*
X71133334Y-118440866D01*
X71133334Y-118593247D02*
X71133334Y-118936104D01*
X71285715Y-118631342D02*
X71438096Y-118631342D01*
X71285715Y-118402771D02*
X71285715Y-118898009D01*
X71438096Y-118898009D02*
X71057144Y-118936104D01*
X71590477Y-118669438D02*
X71590477Y-119012295D01*
X71590477Y-118974200D02*
X72009525Y-118974200D01*
X71133334Y-118174200D02*
X71438096Y-118174200D01*
X71438096Y-118174200D02*
X71438096Y-118440866D01*
X71590477Y-118669438D02*
X72009525Y-118669438D01*
X72009525Y-118669438D02*
X72009525Y-119012295D01*
X71666668Y-118098009D02*
X71590477Y-118288485D01*
X71590477Y-118288485D02*
X71476192Y-118402771D01*
X71628573Y-118250390D02*
X71666668Y-118402771D01*
X71666668Y-118402771D02*
X71895239Y-118631342D01*
X71895239Y-118631342D02*
X72047620Y-118669438D01*
X71628573Y-118212295D02*
X71933334Y-118212295D01*
X71933334Y-118212295D02*
X71857144Y-118402771D01*
X71857144Y-118402771D02*
X71628573Y-118593247D01*
X71628573Y-118593247D02*
X71438096Y-118669438D01*
X72276191Y-118212295D02*
X72771429Y-118212295D01*
X72771429Y-118212295D02*
X72504763Y-118517057D01*
X72504763Y-118517057D02*
X72619048Y-118517057D01*
X72619048Y-118517057D02*
X72695239Y-118555152D01*
X72695239Y-118555152D02*
X72733334Y-118593247D01*
X72733334Y-118593247D02*
X72771429Y-118669438D01*
X72771429Y-118669438D02*
X72771429Y-118859914D01*
X72771429Y-118859914D02*
X72733334Y-118936104D01*
X72733334Y-118936104D02*
X72695239Y-118974200D01*
X72695239Y-118974200D02*
X72619048Y-119012295D01*
X72619048Y-119012295D02*
X72390477Y-119012295D01*
X72390477Y-119012295D02*
X72314286Y-118974200D01*
X72314286Y-118974200D02*
X72276191Y-118936104D01*
X73495239Y-118288485D02*
X73457144Y-118517057D01*
X73457144Y-118517057D02*
X73342858Y-118745628D01*
X73342858Y-118745628D02*
X73076191Y-119012295D01*
X73228572Y-118212295D02*
X73495239Y-118212295D01*
X73495239Y-118212295D02*
X73571430Y-118440866D01*
X73571430Y-118440866D02*
X73685715Y-118745628D01*
X73685715Y-118745628D02*
X73952382Y-119012295D01*
X74790477Y-119012295D02*
X75057143Y-119012295D01*
X74219048Y-118364676D02*
X75171429Y-118364676D01*
X75171429Y-118364676D02*
X75171429Y-118593247D01*
X75171429Y-118593247D02*
X75095239Y-118974200D01*
X74638096Y-118098009D02*
X74638096Y-118440866D01*
X74638096Y-118440866D02*
X74561905Y-118631342D01*
X74561905Y-118631342D02*
X74447620Y-118821819D01*
X74447620Y-118821819D02*
X74219048Y-119012295D01*
X75476191Y-119012295D02*
X75476191Y-118212295D01*
X75476191Y-118212295D02*
X75933334Y-119012295D01*
X75933334Y-119012295D02*
X75933334Y-118212295D01*
X76276190Y-118783723D02*
X76657143Y-118783723D01*
X76200000Y-119012295D02*
X76466667Y-118212295D01*
X76466667Y-118212295D02*
X76733333Y-119012295D01*
X77000000Y-119012295D02*
X77000000Y-118212295D01*
X77000000Y-118212295D02*
X77457143Y-119012295D01*
X77457143Y-119012295D02*
X77457143Y-118212295D01*
X77838095Y-119012295D02*
X77838095Y-118212295D01*
X77838095Y-118212295D02*
X78028571Y-118212295D01*
X78028571Y-118212295D02*
X78142857Y-118250390D01*
X78142857Y-118250390D02*
X78219047Y-118326580D01*
X78219047Y-118326580D02*
X78257142Y-118402771D01*
X78257142Y-118402771D02*
X78295238Y-118555152D01*
X78295238Y-118555152D02*
X78295238Y-118669438D01*
X78295238Y-118669438D02*
X78257142Y-118821819D01*
X78257142Y-118821819D02*
X78219047Y-118898009D01*
X78219047Y-118898009D02*
X78142857Y-118974200D01*
X78142857Y-118974200D02*
X78028571Y-119012295D01*
X78028571Y-119012295D02*
X77838095Y-119012295D01*
X78714285Y-118402771D02*
X79133333Y-118402771D01*
X78980952Y-118250390D02*
X79057142Y-118326580D01*
X79095238Y-118212295D02*
X79171428Y-118288485D01*
X78752380Y-118136104D02*
X78714285Y-118288485D01*
X78714285Y-118288485D02*
X78638095Y-118478961D01*
X78638095Y-118478961D02*
X78599999Y-118631342D01*
X78942857Y-118402771D02*
X78942857Y-118593247D01*
X78942857Y-118593247D02*
X78904761Y-118707533D01*
X78904761Y-118707533D02*
X78828571Y-118821819D01*
X78828571Y-118821819D02*
X78714285Y-118974200D01*
X79399999Y-118593247D02*
X80009523Y-118593247D01*
X80542856Y-118478961D02*
X80771428Y-118669438D01*
X80542856Y-118136104D02*
X80542856Y-118974200D01*
X76690476Y-50562295D02*
X77185714Y-50562295D01*
X77185714Y-50562295D02*
X76919048Y-50867057D01*
X76919048Y-50867057D02*
X77033333Y-50867057D01*
X77033333Y-50867057D02*
X77109524Y-50905152D01*
X77109524Y-50905152D02*
X77147619Y-50943247D01*
X77147619Y-50943247D02*
X77185714Y-51019438D01*
X77185714Y-51019438D02*
X77185714Y-51209914D01*
X77185714Y-51209914D02*
X77147619Y-51286104D01*
X77147619Y-51286104D02*
X77109524Y-51324200D01*
X77109524Y-51324200D02*
X77033333Y-51362295D01*
X77033333Y-51362295D02*
X76804762Y-51362295D01*
X76804762Y-51362295D02*
X76728571Y-51324200D01*
X76728571Y-51324200D02*
X76690476Y-51286104D01*
X77490476Y-51133723D02*
X77871429Y-51133723D01*
X77414286Y-51362295D02*
X77680953Y-50562295D01*
X77680953Y-50562295D02*
X77947619Y-51362295D01*
X76728571Y-98638485D02*
X76766667Y-98600390D01*
X76766667Y-98600390D02*
X76842857Y-98562295D01*
X76842857Y-98562295D02*
X77033333Y-98562295D01*
X77033333Y-98562295D02*
X77109524Y-98600390D01*
X77109524Y-98600390D02*
X77147619Y-98638485D01*
X77147619Y-98638485D02*
X77185714Y-98714676D01*
X77185714Y-98714676D02*
X77185714Y-98790866D01*
X77185714Y-98790866D02*
X77147619Y-98905152D01*
X77147619Y-98905152D02*
X76690476Y-99362295D01*
X76690476Y-99362295D02*
X77185714Y-99362295D01*
X77680953Y-98981342D02*
X77680953Y-99362295D01*
X77414286Y-98562295D02*
X77680953Y-98981342D01*
X77680953Y-98981342D02*
X77947619Y-98562295D01*
X76690476Y-100562295D02*
X77185714Y-100562295D01*
X77185714Y-100562295D02*
X76919048Y-100867057D01*
X76919048Y-100867057D02*
X77033333Y-100867057D01*
X77033333Y-100867057D02*
X77109524Y-100905152D01*
X77109524Y-100905152D02*
X77147619Y-100943247D01*
X77147619Y-100943247D02*
X77185714Y-101019438D01*
X77185714Y-101019438D02*
X77185714Y-101209914D01*
X77185714Y-101209914D02*
X77147619Y-101286104D01*
X77147619Y-101286104D02*
X77109524Y-101324200D01*
X77109524Y-101324200D02*
X77033333Y-101362295D01*
X77033333Y-101362295D02*
X76804762Y-101362295D01*
X76804762Y-101362295D02*
X76728571Y-101324200D01*
X76728571Y-101324200D02*
X76690476Y-101286104D01*
X77490476Y-101133723D02*
X77871429Y-101133723D01*
X77414286Y-101362295D02*
X77680953Y-100562295D01*
X77680953Y-100562295D02*
X77947619Y-101362295D01*
X76728571Y-148638485D02*
X76766667Y-148600390D01*
X76766667Y-148600390D02*
X76842857Y-148562295D01*
X76842857Y-148562295D02*
X77033333Y-148562295D01*
X77033333Y-148562295D02*
X77109524Y-148600390D01*
X77109524Y-148600390D02*
X77147619Y-148638485D01*
X77147619Y-148638485D02*
X77185714Y-148714676D01*
X77185714Y-148714676D02*
X77185714Y-148790866D01*
X77185714Y-148790866D02*
X77147619Y-148905152D01*
X77147619Y-148905152D02*
X76690476Y-149362295D01*
X76690476Y-149362295D02*
X77185714Y-149362295D01*
X77680953Y-148981342D02*
X77680953Y-149362295D01*
X77414286Y-148562295D02*
X77680953Y-148981342D01*
X77680953Y-148981342D02*
X77947619Y-148562295D01*
X81290476Y-50562295D02*
X81785714Y-50562295D01*
X81785714Y-50562295D02*
X81519048Y-50867057D01*
X81519048Y-50867057D02*
X81633333Y-50867057D01*
X81633333Y-50867057D02*
X81709524Y-50905152D01*
X81709524Y-50905152D02*
X81747619Y-50943247D01*
X81747619Y-50943247D02*
X81785714Y-51019438D01*
X81785714Y-51019438D02*
X81785714Y-51209914D01*
X81785714Y-51209914D02*
X81747619Y-51286104D01*
X81747619Y-51286104D02*
X81709524Y-51324200D01*
X81709524Y-51324200D02*
X81633333Y-51362295D01*
X81633333Y-51362295D02*
X81404762Y-51362295D01*
X81404762Y-51362295D02*
X81328571Y-51324200D01*
X81328571Y-51324200D02*
X81290476Y-51286104D01*
X82280953Y-50981342D02*
X82280953Y-51362295D01*
X82014286Y-50562295D02*
X82280953Y-50981342D01*
X82280953Y-50981342D02*
X82547619Y-50562295D01*
X81290476Y-98600390D02*
X81214286Y-98562295D01*
X81214286Y-98562295D02*
X81100000Y-98562295D01*
X81100000Y-98562295D02*
X80985714Y-98600390D01*
X80985714Y-98600390D02*
X80909524Y-98676580D01*
X80909524Y-98676580D02*
X80871429Y-98752771D01*
X80871429Y-98752771D02*
X80833333Y-98905152D01*
X80833333Y-98905152D02*
X80833333Y-99019438D01*
X80833333Y-99019438D02*
X80871429Y-99171819D01*
X80871429Y-99171819D02*
X80909524Y-99248009D01*
X80909524Y-99248009D02*
X80985714Y-99324200D01*
X80985714Y-99324200D02*
X81100000Y-99362295D01*
X81100000Y-99362295D02*
X81176191Y-99362295D01*
X81176191Y-99362295D02*
X81290476Y-99324200D01*
X81290476Y-99324200D02*
X81328572Y-99286104D01*
X81328572Y-99286104D02*
X81328572Y-99019438D01*
X81328572Y-99019438D02*
X81176191Y-99019438D01*
X81671429Y-99362295D02*
X81671429Y-98562295D01*
X81671429Y-98562295D02*
X82128572Y-99362295D01*
X82128572Y-99362295D02*
X82128572Y-98562295D01*
X82509524Y-99362295D02*
X82509524Y-98562295D01*
X82509524Y-98562295D02*
X82700000Y-98562295D01*
X82700000Y-98562295D02*
X82814286Y-98600390D01*
X82814286Y-98600390D02*
X82890476Y-98676580D01*
X82890476Y-98676580D02*
X82928571Y-98752771D01*
X82928571Y-98752771D02*
X82966667Y-98905152D01*
X82966667Y-98905152D02*
X82966667Y-99019438D01*
X82966667Y-99019438D02*
X82928571Y-99171819D01*
X82928571Y-99171819D02*
X82890476Y-99248009D01*
X82890476Y-99248009D02*
X82814286Y-99324200D01*
X82814286Y-99324200D02*
X82700000Y-99362295D01*
X82700000Y-99362295D02*
X82509524Y-99362295D01*
X81290476Y-100562295D02*
X81785714Y-100562295D01*
X81785714Y-100562295D02*
X81519048Y-100867057D01*
X81519048Y-100867057D02*
X81633333Y-100867057D01*
X81633333Y-100867057D02*
X81709524Y-100905152D01*
X81709524Y-100905152D02*
X81747619Y-100943247D01*
X81747619Y-100943247D02*
X81785714Y-101019438D01*
X81785714Y-101019438D02*
X81785714Y-101209914D01*
X81785714Y-101209914D02*
X81747619Y-101286104D01*
X81747619Y-101286104D02*
X81709524Y-101324200D01*
X81709524Y-101324200D02*
X81633333Y-101362295D01*
X81633333Y-101362295D02*
X81404762Y-101362295D01*
X81404762Y-101362295D02*
X81328571Y-101324200D01*
X81328571Y-101324200D02*
X81290476Y-101286104D01*
X82280953Y-100981342D02*
X82280953Y-101362295D01*
X82014286Y-100562295D02*
X82280953Y-100981342D01*
X82280953Y-100981342D02*
X82547619Y-100562295D01*
X81290476Y-148600390D02*
X81214286Y-148562295D01*
X81214286Y-148562295D02*
X81100000Y-148562295D01*
X81100000Y-148562295D02*
X80985714Y-148600390D01*
X80985714Y-148600390D02*
X80909524Y-148676580D01*
X80909524Y-148676580D02*
X80871429Y-148752771D01*
X80871429Y-148752771D02*
X80833333Y-148905152D01*
X80833333Y-148905152D02*
X80833333Y-149019438D01*
X80833333Y-149019438D02*
X80871429Y-149171819D01*
X80871429Y-149171819D02*
X80909524Y-149248009D01*
X80909524Y-149248009D02*
X80985714Y-149324200D01*
X80985714Y-149324200D02*
X81100000Y-149362295D01*
X81100000Y-149362295D02*
X81176191Y-149362295D01*
X81176191Y-149362295D02*
X81290476Y-149324200D01*
X81290476Y-149324200D02*
X81328572Y-149286104D01*
X81328572Y-149286104D02*
X81328572Y-149019438D01*
X81328572Y-149019438D02*
X81176191Y-149019438D01*
X81671429Y-149362295D02*
X81671429Y-148562295D01*
X81671429Y-148562295D02*
X82128572Y-149362295D01*
X82128572Y-149362295D02*
X82128572Y-148562295D01*
X82509524Y-149362295D02*
X82509524Y-148562295D01*
X82509524Y-148562295D02*
X82700000Y-148562295D01*
X82700000Y-148562295D02*
X82814286Y-148600390D01*
X82814286Y-148600390D02*
X82890476Y-148676580D01*
X82890476Y-148676580D02*
X82928571Y-148752771D01*
X82928571Y-148752771D02*
X82966667Y-148905152D01*
X82966667Y-148905152D02*
X82966667Y-149019438D01*
X82966667Y-149019438D02*
X82928571Y-149171819D01*
X82928571Y-149171819D02*
X82890476Y-149248009D01*
X82890476Y-149248009D02*
X82814286Y-149324200D01*
X82814286Y-149324200D02*
X82700000Y-149362295D01*
X82700000Y-149362295D02*
X82509524Y-149362295D01*
X103233333Y-50562295D02*
X103500000Y-51362295D01*
X103500000Y-51362295D02*
X103766666Y-50562295D01*
X104490476Y-51286104D02*
X104452380Y-51324200D01*
X104452380Y-51324200D02*
X104338095Y-51362295D01*
X104338095Y-51362295D02*
X104261904Y-51362295D01*
X104261904Y-51362295D02*
X104147618Y-51324200D01*
X104147618Y-51324200D02*
X104071428Y-51248009D01*
X104071428Y-51248009D02*
X104033333Y-51171819D01*
X104033333Y-51171819D02*
X103995237Y-51019438D01*
X103995237Y-51019438D02*
X103995237Y-50905152D01*
X103995237Y-50905152D02*
X104033333Y-50752771D01*
X104033333Y-50752771D02*
X104071428Y-50676580D01*
X104071428Y-50676580D02*
X104147618Y-50600390D01*
X104147618Y-50600390D02*
X104261904Y-50562295D01*
X104261904Y-50562295D02*
X104338095Y-50562295D01*
X104338095Y-50562295D02*
X104452380Y-50600390D01*
X104452380Y-50600390D02*
X104490476Y-50638485D01*
X105290476Y-51286104D02*
X105252380Y-51324200D01*
X105252380Y-51324200D02*
X105138095Y-51362295D01*
X105138095Y-51362295D02*
X105061904Y-51362295D01*
X105061904Y-51362295D02*
X104947618Y-51324200D01*
X104947618Y-51324200D02*
X104871428Y-51248009D01*
X104871428Y-51248009D02*
X104833333Y-51171819D01*
X104833333Y-51171819D02*
X104795237Y-51019438D01*
X104795237Y-51019438D02*
X104795237Y-50905152D01*
X104795237Y-50905152D02*
X104833333Y-50752771D01*
X104833333Y-50752771D02*
X104871428Y-50676580D01*
X104871428Y-50676580D02*
X104947618Y-50600390D01*
X104947618Y-50600390D02*
X105061904Y-50562295D01*
X105061904Y-50562295D02*
X105138095Y-50562295D01*
X105138095Y-50562295D02*
X105252380Y-50600390D01*
X105252380Y-50600390D02*
X105290476Y-50638485D01*
X104185714Y-99362295D02*
X103728571Y-99362295D01*
X103957143Y-99362295D02*
X103957143Y-98562295D01*
X103957143Y-98562295D02*
X103880952Y-98676580D01*
X103880952Y-98676580D02*
X103804762Y-98752771D01*
X103804762Y-98752771D02*
X103728571Y-98790866D01*
X104490476Y-99133723D02*
X104871429Y-99133723D01*
X104414286Y-99362295D02*
X104680953Y-98562295D01*
X104680953Y-98562295D02*
X104947619Y-99362295D01*
X103233333Y-100562295D02*
X103500000Y-101362295D01*
X103500000Y-101362295D02*
X103766666Y-100562295D01*
X104490476Y-101286104D02*
X104452380Y-101324200D01*
X104452380Y-101324200D02*
X104338095Y-101362295D01*
X104338095Y-101362295D02*
X104261904Y-101362295D01*
X104261904Y-101362295D02*
X104147618Y-101324200D01*
X104147618Y-101324200D02*
X104071428Y-101248009D01*
X104071428Y-101248009D02*
X104033333Y-101171819D01*
X104033333Y-101171819D02*
X103995237Y-101019438D01*
X103995237Y-101019438D02*
X103995237Y-100905152D01*
X103995237Y-100905152D02*
X104033333Y-100752771D01*
X104033333Y-100752771D02*
X104071428Y-100676580D01*
X104071428Y-100676580D02*
X104147618Y-100600390D01*
X104147618Y-100600390D02*
X104261904Y-100562295D01*
X104261904Y-100562295D02*
X104338095Y-100562295D01*
X104338095Y-100562295D02*
X104452380Y-100600390D01*
X104452380Y-100600390D02*
X104490476Y-100638485D01*
X105290476Y-101286104D02*
X105252380Y-101324200D01*
X105252380Y-101324200D02*
X105138095Y-101362295D01*
X105138095Y-101362295D02*
X105061904Y-101362295D01*
X105061904Y-101362295D02*
X104947618Y-101324200D01*
X104947618Y-101324200D02*
X104871428Y-101248009D01*
X104871428Y-101248009D02*
X104833333Y-101171819D01*
X104833333Y-101171819D02*
X104795237Y-101019438D01*
X104795237Y-101019438D02*
X104795237Y-100905152D01*
X104795237Y-100905152D02*
X104833333Y-100752771D01*
X104833333Y-100752771D02*
X104871428Y-100676580D01*
X104871428Y-100676580D02*
X104947618Y-100600390D01*
X104947618Y-100600390D02*
X105061904Y-100562295D01*
X105061904Y-100562295D02*
X105138095Y-100562295D01*
X105138095Y-100562295D02*
X105252380Y-100600390D01*
X105252380Y-100600390D02*
X105290476Y-100638485D01*
X104185714Y-149362295D02*
X103728571Y-149362295D01*
X103957143Y-149362295D02*
X103957143Y-148562295D01*
X103957143Y-148562295D02*
X103880952Y-148676580D01*
X103880952Y-148676580D02*
X103804762Y-148752771D01*
X103804762Y-148752771D02*
X103728571Y-148790866D01*
X104490476Y-149133723D02*
X104871429Y-149133723D01*
X104414286Y-149362295D02*
X104680953Y-148562295D01*
X104680953Y-148562295D02*
X104947619Y-149362295D01*
X104471429Y-72057533D02*
X105080953Y-72057533D01*
X104776191Y-72362295D02*
X104776191Y-71752771D01*
X105842857Y-71562295D02*
X105461905Y-71562295D01*
X105461905Y-71562295D02*
X105423809Y-71943247D01*
X105423809Y-71943247D02*
X105461905Y-71905152D01*
X105461905Y-71905152D02*
X105538095Y-71867057D01*
X105538095Y-71867057D02*
X105728571Y-71867057D01*
X105728571Y-71867057D02*
X105804762Y-71905152D01*
X105804762Y-71905152D02*
X105842857Y-71943247D01*
X105842857Y-71943247D02*
X105880952Y-72019438D01*
X105880952Y-72019438D02*
X105880952Y-72209914D01*
X105880952Y-72209914D02*
X105842857Y-72286104D01*
X105842857Y-72286104D02*
X105804762Y-72324200D01*
X105804762Y-72324200D02*
X105728571Y-72362295D01*
X105728571Y-72362295D02*
X105538095Y-72362295D01*
X105538095Y-72362295D02*
X105461905Y-72324200D01*
X105461905Y-72324200D02*
X105423809Y-72286104D01*
X106109524Y-71562295D02*
X106376191Y-72362295D01*
X106376191Y-72362295D02*
X106642857Y-71562295D01*
X104890476Y-78500390D02*
X104814286Y-78462295D01*
X104814286Y-78462295D02*
X104700000Y-78462295D01*
X104700000Y-78462295D02*
X104585714Y-78500390D01*
X104585714Y-78500390D02*
X104509524Y-78576580D01*
X104509524Y-78576580D02*
X104471429Y-78652771D01*
X104471429Y-78652771D02*
X104433333Y-78805152D01*
X104433333Y-78805152D02*
X104433333Y-78919438D01*
X104433333Y-78919438D02*
X104471429Y-79071819D01*
X104471429Y-79071819D02*
X104509524Y-79148009D01*
X104509524Y-79148009D02*
X104585714Y-79224200D01*
X104585714Y-79224200D02*
X104700000Y-79262295D01*
X104700000Y-79262295D02*
X104776191Y-79262295D01*
X104776191Y-79262295D02*
X104890476Y-79224200D01*
X104890476Y-79224200D02*
X104928572Y-79186104D01*
X104928572Y-79186104D02*
X104928572Y-78919438D01*
X104928572Y-78919438D02*
X104776191Y-78919438D01*
X105271429Y-79262295D02*
X105271429Y-78462295D01*
X105271429Y-78462295D02*
X105728572Y-79262295D01*
X105728572Y-79262295D02*
X105728572Y-78462295D01*
X106109524Y-79262295D02*
X106109524Y-78462295D01*
X106109524Y-78462295D02*
X106300000Y-78462295D01*
X106300000Y-78462295D02*
X106414286Y-78500390D01*
X106414286Y-78500390D02*
X106490476Y-78576580D01*
X106490476Y-78576580D02*
X106528571Y-78652771D01*
X106528571Y-78652771D02*
X106566667Y-78805152D01*
X106566667Y-78805152D02*
X106566667Y-78919438D01*
X106566667Y-78919438D02*
X106528571Y-79071819D01*
X106528571Y-79071819D02*
X106490476Y-79148009D01*
X106490476Y-79148009D02*
X106414286Y-79224200D01*
X106414286Y-79224200D02*
X106300000Y-79262295D01*
X106300000Y-79262295D02*
X106109524Y-79262295D01*
X104471429Y-122057533D02*
X105080953Y-122057533D01*
X104776191Y-122362295D02*
X104776191Y-121752771D01*
X105842857Y-121562295D02*
X105461905Y-121562295D01*
X105461905Y-121562295D02*
X105423809Y-121943247D01*
X105423809Y-121943247D02*
X105461905Y-121905152D01*
X105461905Y-121905152D02*
X105538095Y-121867057D01*
X105538095Y-121867057D02*
X105728571Y-121867057D01*
X105728571Y-121867057D02*
X105804762Y-121905152D01*
X105804762Y-121905152D02*
X105842857Y-121943247D01*
X105842857Y-121943247D02*
X105880952Y-122019438D01*
X105880952Y-122019438D02*
X105880952Y-122209914D01*
X105880952Y-122209914D02*
X105842857Y-122286104D01*
X105842857Y-122286104D02*
X105804762Y-122324200D01*
X105804762Y-122324200D02*
X105728571Y-122362295D01*
X105728571Y-122362295D02*
X105538095Y-122362295D01*
X105538095Y-122362295D02*
X105461905Y-122324200D01*
X105461905Y-122324200D02*
X105423809Y-122286104D01*
X106109524Y-121562295D02*
X106376191Y-122362295D01*
X106376191Y-122362295D02*
X106642857Y-121562295D01*
X104890476Y-128500390D02*
X104814286Y-128462295D01*
X104814286Y-128462295D02*
X104700000Y-128462295D01*
X104700000Y-128462295D02*
X104585714Y-128500390D01*
X104585714Y-128500390D02*
X104509524Y-128576580D01*
X104509524Y-128576580D02*
X104471429Y-128652771D01*
X104471429Y-128652771D02*
X104433333Y-128805152D01*
X104433333Y-128805152D02*
X104433333Y-128919438D01*
X104433333Y-128919438D02*
X104471429Y-129071819D01*
X104471429Y-129071819D02*
X104509524Y-129148009D01*
X104509524Y-129148009D02*
X104585714Y-129224200D01*
X104585714Y-129224200D02*
X104700000Y-129262295D01*
X104700000Y-129262295D02*
X104776191Y-129262295D01*
X104776191Y-129262295D02*
X104890476Y-129224200D01*
X104890476Y-129224200D02*
X104928572Y-129186104D01*
X104928572Y-129186104D02*
X104928572Y-128919438D01*
X104928572Y-128919438D02*
X104776191Y-128919438D01*
X105271429Y-129262295D02*
X105271429Y-128462295D01*
X105271429Y-128462295D02*
X105728572Y-129262295D01*
X105728572Y-129262295D02*
X105728572Y-128462295D01*
X106109524Y-129262295D02*
X106109524Y-128462295D01*
X106109524Y-128462295D02*
X106300000Y-128462295D01*
X106300000Y-128462295D02*
X106414286Y-128500390D01*
X106414286Y-128500390D02*
X106490476Y-128576580D01*
X106490476Y-128576580D02*
X106528571Y-128652771D01*
X106528571Y-128652771D02*
X106566667Y-128805152D01*
X106566667Y-128805152D02*
X106566667Y-128919438D01*
X106566667Y-128919438D02*
X106528571Y-129071819D01*
X106528571Y-129071819D02*
X106490476Y-129148009D01*
X106490476Y-129148009D02*
X106414286Y-129224200D01*
X106414286Y-129224200D02*
X106300000Y-129262295D01*
X106300000Y-129262295D02*
X106109524Y-129262295D01*
X108652381Y-50828961D02*
X108652381Y-51362295D01*
X108461905Y-50524200D02*
X108271428Y-51095628D01*
X108271428Y-51095628D02*
X108766667Y-51095628D01*
X109338095Y-50943247D02*
X109452381Y-50981342D01*
X109452381Y-50981342D02*
X109490476Y-51019438D01*
X109490476Y-51019438D02*
X109528572Y-51095628D01*
X109528572Y-51095628D02*
X109528572Y-51209914D01*
X109528572Y-51209914D02*
X109490476Y-51286104D01*
X109490476Y-51286104D02*
X109452381Y-51324200D01*
X109452381Y-51324200D02*
X109376191Y-51362295D01*
X109376191Y-51362295D02*
X109071429Y-51362295D01*
X109071429Y-51362295D02*
X109071429Y-50562295D01*
X109071429Y-50562295D02*
X109338095Y-50562295D01*
X109338095Y-50562295D02*
X109414286Y-50600390D01*
X109414286Y-50600390D02*
X109452381Y-50638485D01*
X109452381Y-50638485D02*
X109490476Y-50714676D01*
X109490476Y-50714676D02*
X109490476Y-50790866D01*
X109490476Y-50790866D02*
X109452381Y-50867057D01*
X109452381Y-50867057D02*
X109414286Y-50905152D01*
X109414286Y-50905152D02*
X109338095Y-50943247D01*
X109338095Y-50943247D02*
X109071429Y-50943247D01*
X108728571Y-99362295D02*
X108271428Y-99362295D01*
X108500000Y-99362295D02*
X108500000Y-98562295D01*
X108500000Y-98562295D02*
X108423809Y-98676580D01*
X108423809Y-98676580D02*
X108347619Y-98752771D01*
X108347619Y-98752771D02*
X108271428Y-98790866D01*
X109338095Y-98943247D02*
X109452381Y-98981342D01*
X109452381Y-98981342D02*
X109490476Y-99019438D01*
X109490476Y-99019438D02*
X109528572Y-99095628D01*
X109528572Y-99095628D02*
X109528572Y-99209914D01*
X109528572Y-99209914D02*
X109490476Y-99286104D01*
X109490476Y-99286104D02*
X109452381Y-99324200D01*
X109452381Y-99324200D02*
X109376191Y-99362295D01*
X109376191Y-99362295D02*
X109071429Y-99362295D01*
X109071429Y-99362295D02*
X109071429Y-98562295D01*
X109071429Y-98562295D02*
X109338095Y-98562295D01*
X109338095Y-98562295D02*
X109414286Y-98600390D01*
X109414286Y-98600390D02*
X109452381Y-98638485D01*
X109452381Y-98638485D02*
X109490476Y-98714676D01*
X109490476Y-98714676D02*
X109490476Y-98790866D01*
X109490476Y-98790866D02*
X109452381Y-98867057D01*
X109452381Y-98867057D02*
X109414286Y-98905152D01*
X109414286Y-98905152D02*
X109338095Y-98943247D01*
X109338095Y-98943247D02*
X109071429Y-98943247D01*
X108271428Y-100638485D02*
X108309524Y-100600390D01*
X108309524Y-100600390D02*
X108385714Y-100562295D01*
X108385714Y-100562295D02*
X108576190Y-100562295D01*
X108576190Y-100562295D02*
X108652381Y-100600390D01*
X108652381Y-100600390D02*
X108690476Y-100638485D01*
X108690476Y-100638485D02*
X108728571Y-100714676D01*
X108728571Y-100714676D02*
X108728571Y-100790866D01*
X108728571Y-100790866D02*
X108690476Y-100905152D01*
X108690476Y-100905152D02*
X108233333Y-101362295D01*
X108233333Y-101362295D02*
X108728571Y-101362295D01*
X109071429Y-101362295D02*
X109071429Y-100562295D01*
X109071429Y-100562295D02*
X109261905Y-100562295D01*
X109261905Y-100562295D02*
X109376191Y-100600390D01*
X109376191Y-100600390D02*
X109452381Y-100676580D01*
X109452381Y-100676580D02*
X109490476Y-100752771D01*
X109490476Y-100752771D02*
X109528572Y-100905152D01*
X109528572Y-100905152D02*
X109528572Y-101019438D01*
X109528572Y-101019438D02*
X109490476Y-101171819D01*
X109490476Y-101171819D02*
X109452381Y-101248009D01*
X109452381Y-101248009D02*
X109376191Y-101324200D01*
X109376191Y-101324200D02*
X109261905Y-101362295D01*
X109261905Y-101362295D02*
X109071429Y-101362295D01*
X108728571Y-149362295D02*
X108271428Y-149362295D01*
X108500000Y-149362295D02*
X108500000Y-148562295D01*
X108500000Y-148562295D02*
X108423809Y-148676580D01*
X108423809Y-148676580D02*
X108347619Y-148752771D01*
X108347619Y-148752771D02*
X108271428Y-148790866D01*
X109338095Y-148943247D02*
X109452381Y-148981342D01*
X109452381Y-148981342D02*
X109490476Y-149019438D01*
X109490476Y-149019438D02*
X109528572Y-149095628D01*
X109528572Y-149095628D02*
X109528572Y-149209914D01*
X109528572Y-149209914D02*
X109490476Y-149286104D01*
X109490476Y-149286104D02*
X109452381Y-149324200D01*
X109452381Y-149324200D02*
X109376191Y-149362295D01*
X109376191Y-149362295D02*
X109071429Y-149362295D01*
X109071429Y-149362295D02*
X109071429Y-148562295D01*
X109071429Y-148562295D02*
X109338095Y-148562295D01*
X109338095Y-148562295D02*
X109414286Y-148600390D01*
X109414286Y-148600390D02*
X109452381Y-148638485D01*
X109452381Y-148638485D02*
X109490476Y-148714676D01*
X109490476Y-148714676D02*
X109490476Y-148790866D01*
X109490476Y-148790866D02*
X109452381Y-148867057D01*
X109452381Y-148867057D02*
X109414286Y-148905152D01*
X109414286Y-148905152D02*
X109338095Y-148943247D01*
X109338095Y-148943247D02*
X109071429Y-148943247D01*
X113309524Y-50828961D02*
X113309524Y-51362295D01*
X113119048Y-50524200D02*
X112928571Y-51095628D01*
X112928571Y-51095628D02*
X113423810Y-51095628D01*
X113690476Y-51133723D02*
X114071429Y-51133723D01*
X113614286Y-51362295D02*
X113880953Y-50562295D01*
X113880953Y-50562295D02*
X114147619Y-51362295D01*
X113385714Y-99362295D02*
X112928571Y-99362295D01*
X113157143Y-99362295D02*
X113157143Y-98562295D01*
X113157143Y-98562295D02*
X113080952Y-98676580D01*
X113080952Y-98676580D02*
X113004762Y-98752771D01*
X113004762Y-98752771D02*
X112928571Y-98790866D01*
X113880953Y-98981342D02*
X113880953Y-99362295D01*
X113614286Y-98562295D02*
X113880953Y-98981342D01*
X113880953Y-98981342D02*
X114147619Y-98562295D01*
X112871428Y-100638485D02*
X112909524Y-100600390D01*
X112909524Y-100600390D02*
X112985714Y-100562295D01*
X112985714Y-100562295D02*
X113176190Y-100562295D01*
X113176190Y-100562295D02*
X113252381Y-100600390D01*
X113252381Y-100600390D02*
X113290476Y-100638485D01*
X113290476Y-100638485D02*
X113328571Y-100714676D01*
X113328571Y-100714676D02*
X113328571Y-100790866D01*
X113328571Y-100790866D02*
X113290476Y-100905152D01*
X113290476Y-100905152D02*
X112833333Y-101362295D01*
X112833333Y-101362295D02*
X113328571Y-101362295D01*
X114128572Y-101286104D02*
X114090476Y-101324200D01*
X114090476Y-101324200D02*
X113976191Y-101362295D01*
X113976191Y-101362295D02*
X113900000Y-101362295D01*
X113900000Y-101362295D02*
X113785714Y-101324200D01*
X113785714Y-101324200D02*
X113709524Y-101248009D01*
X113709524Y-101248009D02*
X113671429Y-101171819D01*
X113671429Y-101171819D02*
X113633333Y-101019438D01*
X113633333Y-101019438D02*
X113633333Y-100905152D01*
X113633333Y-100905152D02*
X113671429Y-100752771D01*
X113671429Y-100752771D02*
X113709524Y-100676580D01*
X113709524Y-100676580D02*
X113785714Y-100600390D01*
X113785714Y-100600390D02*
X113900000Y-100562295D01*
X113900000Y-100562295D02*
X113976191Y-100562295D01*
X113976191Y-100562295D02*
X114090476Y-100600390D01*
X114090476Y-100600390D02*
X114128572Y-100638485D01*
X112871429Y-149362295D02*
X112871429Y-148562295D01*
X112871429Y-148562295D02*
X113328572Y-149362295D01*
X113328572Y-149362295D02*
X113328572Y-148562295D01*
X114166667Y-149286104D02*
X114128571Y-149324200D01*
X114128571Y-149324200D02*
X114014286Y-149362295D01*
X114014286Y-149362295D02*
X113938095Y-149362295D01*
X113938095Y-149362295D02*
X113823809Y-149324200D01*
X113823809Y-149324200D02*
X113747619Y-149248009D01*
X113747619Y-149248009D02*
X113709524Y-149171819D01*
X113709524Y-149171819D02*
X113671428Y-149019438D01*
X113671428Y-149019438D02*
X113671428Y-148905152D01*
X113671428Y-148905152D02*
X113709524Y-148752771D01*
X113709524Y-148752771D02*
X113747619Y-148676580D01*
X113747619Y-148676580D02*
X113823809Y-148600390D01*
X113823809Y-148600390D02*
X113938095Y-148562295D01*
X113938095Y-148562295D02*
X114014286Y-148562295D01*
X114014286Y-148562295D02*
X114128571Y-148600390D01*
X114128571Y-148600390D02*
X114166667Y-148638485D01*
X117909524Y-50828961D02*
X117909524Y-51362295D01*
X117719048Y-50524200D02*
X117528571Y-51095628D01*
X117528571Y-51095628D02*
X118023810Y-51095628D01*
X118480953Y-50981342D02*
X118480953Y-51362295D01*
X118214286Y-50562295D02*
X118480953Y-50981342D01*
X118480953Y-50981342D02*
X118747619Y-50562295D01*
X117528571Y-98638485D02*
X117566667Y-98600390D01*
X117566667Y-98600390D02*
X117642857Y-98562295D01*
X117642857Y-98562295D02*
X117833333Y-98562295D01*
X117833333Y-98562295D02*
X117909524Y-98600390D01*
X117909524Y-98600390D02*
X117947619Y-98638485D01*
X117947619Y-98638485D02*
X117985714Y-98714676D01*
X117985714Y-98714676D02*
X117985714Y-98790866D01*
X117985714Y-98790866D02*
X117947619Y-98905152D01*
X117947619Y-98905152D02*
X117490476Y-99362295D01*
X117490476Y-99362295D02*
X117985714Y-99362295D01*
X118290476Y-99133723D02*
X118671429Y-99133723D01*
X118214286Y-99362295D02*
X118480953Y-98562295D01*
X118480953Y-98562295D02*
X118747619Y-99362295D01*
X117471429Y-101362295D02*
X117471429Y-100562295D01*
X117471429Y-100562295D02*
X117928572Y-101362295D01*
X117928572Y-101362295D02*
X117928572Y-100562295D01*
X118766667Y-101286104D02*
X118728571Y-101324200D01*
X118728571Y-101324200D02*
X118614286Y-101362295D01*
X118614286Y-101362295D02*
X118538095Y-101362295D01*
X118538095Y-101362295D02*
X118423809Y-101324200D01*
X118423809Y-101324200D02*
X118347619Y-101248009D01*
X118347619Y-101248009D02*
X118309524Y-101171819D01*
X118309524Y-101171819D02*
X118271428Y-101019438D01*
X118271428Y-101019438D02*
X118271428Y-100905152D01*
X118271428Y-100905152D02*
X118309524Y-100752771D01*
X118309524Y-100752771D02*
X118347619Y-100676580D01*
X118347619Y-100676580D02*
X118423809Y-100600390D01*
X118423809Y-100600390D02*
X118538095Y-100562295D01*
X118538095Y-100562295D02*
X118614286Y-100562295D01*
X118614286Y-100562295D02*
X118728571Y-100600390D01*
X118728571Y-100600390D02*
X118766667Y-100638485D01*
X117928571Y-149362295D02*
X117471428Y-149362295D01*
X117700000Y-149362295D02*
X117700000Y-148562295D01*
X117700000Y-148562295D02*
X117623809Y-148676580D01*
X117623809Y-148676580D02*
X117547619Y-148752771D01*
X117547619Y-148752771D02*
X117471428Y-148790866D01*
X118728572Y-149286104D02*
X118690476Y-149324200D01*
X118690476Y-149324200D02*
X118576191Y-149362295D01*
X118576191Y-149362295D02*
X118500000Y-149362295D01*
X118500000Y-149362295D02*
X118385714Y-149324200D01*
X118385714Y-149324200D02*
X118309524Y-149248009D01*
X118309524Y-149248009D02*
X118271429Y-149171819D01*
X118271429Y-149171819D02*
X118233333Y-149019438D01*
X118233333Y-149019438D02*
X118233333Y-148905152D01*
X118233333Y-148905152D02*
X118271429Y-148752771D01*
X118271429Y-148752771D02*
X118309524Y-148676580D01*
X118309524Y-148676580D02*
X118385714Y-148600390D01*
X118385714Y-148600390D02*
X118500000Y-148562295D01*
X118500000Y-148562295D02*
X118576191Y-148562295D01*
X118576191Y-148562295D02*
X118690476Y-148600390D01*
X118690476Y-148600390D02*
X118728572Y-148638485D01*
X122033333Y-50562295D02*
X122528571Y-50562295D01*
X122528571Y-50562295D02*
X122261905Y-50867057D01*
X122261905Y-50867057D02*
X122376190Y-50867057D01*
X122376190Y-50867057D02*
X122452381Y-50905152D01*
X122452381Y-50905152D02*
X122490476Y-50943247D01*
X122490476Y-50943247D02*
X122528571Y-51019438D01*
X122528571Y-51019438D02*
X122528571Y-51209914D01*
X122528571Y-51209914D02*
X122490476Y-51286104D01*
X122490476Y-51286104D02*
X122452381Y-51324200D01*
X122452381Y-51324200D02*
X122376190Y-51362295D01*
X122376190Y-51362295D02*
X122147619Y-51362295D01*
X122147619Y-51362295D02*
X122071428Y-51324200D01*
X122071428Y-51324200D02*
X122033333Y-51286104D01*
X123138095Y-50943247D02*
X123252381Y-50981342D01*
X123252381Y-50981342D02*
X123290476Y-51019438D01*
X123290476Y-51019438D02*
X123328572Y-51095628D01*
X123328572Y-51095628D02*
X123328572Y-51209914D01*
X123328572Y-51209914D02*
X123290476Y-51286104D01*
X123290476Y-51286104D02*
X123252381Y-51324200D01*
X123252381Y-51324200D02*
X123176191Y-51362295D01*
X123176191Y-51362295D02*
X122871429Y-51362295D01*
X122871429Y-51362295D02*
X122871429Y-50562295D01*
X122871429Y-50562295D02*
X123138095Y-50562295D01*
X123138095Y-50562295D02*
X123214286Y-50600390D01*
X123214286Y-50600390D02*
X123252381Y-50638485D01*
X123252381Y-50638485D02*
X123290476Y-50714676D01*
X123290476Y-50714676D02*
X123290476Y-50790866D01*
X123290476Y-50790866D02*
X123252381Y-50867057D01*
X123252381Y-50867057D02*
X123214286Y-50905152D01*
X123214286Y-50905152D02*
X123138095Y-50943247D01*
X123138095Y-50943247D02*
X122871429Y-50943247D01*
X122071428Y-98638485D02*
X122109524Y-98600390D01*
X122109524Y-98600390D02*
X122185714Y-98562295D01*
X122185714Y-98562295D02*
X122376190Y-98562295D01*
X122376190Y-98562295D02*
X122452381Y-98600390D01*
X122452381Y-98600390D02*
X122490476Y-98638485D01*
X122490476Y-98638485D02*
X122528571Y-98714676D01*
X122528571Y-98714676D02*
X122528571Y-98790866D01*
X122528571Y-98790866D02*
X122490476Y-98905152D01*
X122490476Y-98905152D02*
X122033333Y-99362295D01*
X122033333Y-99362295D02*
X122528571Y-99362295D01*
X123138095Y-98943247D02*
X123252381Y-98981342D01*
X123252381Y-98981342D02*
X123290476Y-99019438D01*
X123290476Y-99019438D02*
X123328572Y-99095628D01*
X123328572Y-99095628D02*
X123328572Y-99209914D01*
X123328572Y-99209914D02*
X123290476Y-99286104D01*
X123290476Y-99286104D02*
X123252381Y-99324200D01*
X123252381Y-99324200D02*
X123176191Y-99362295D01*
X123176191Y-99362295D02*
X122871429Y-99362295D01*
X122871429Y-99362295D02*
X122871429Y-98562295D01*
X122871429Y-98562295D02*
X123138095Y-98562295D01*
X123138095Y-98562295D02*
X123214286Y-98600390D01*
X123214286Y-98600390D02*
X123252381Y-98638485D01*
X123252381Y-98638485D02*
X123290476Y-98714676D01*
X123290476Y-98714676D02*
X123290476Y-98790866D01*
X123290476Y-98790866D02*
X123252381Y-98867057D01*
X123252381Y-98867057D02*
X123214286Y-98905152D01*
X123214286Y-98905152D02*
X123138095Y-98943247D01*
X123138095Y-98943247D02*
X122871429Y-98943247D01*
X122071428Y-100638485D02*
X122109524Y-100600390D01*
X122109524Y-100600390D02*
X122185714Y-100562295D01*
X122185714Y-100562295D02*
X122376190Y-100562295D01*
X122376190Y-100562295D02*
X122452381Y-100600390D01*
X122452381Y-100600390D02*
X122490476Y-100638485D01*
X122490476Y-100638485D02*
X122528571Y-100714676D01*
X122528571Y-100714676D02*
X122528571Y-100790866D01*
X122528571Y-100790866D02*
X122490476Y-100905152D01*
X122490476Y-100905152D02*
X122033333Y-101362295D01*
X122033333Y-101362295D02*
X122528571Y-101362295D01*
X123138095Y-100943247D02*
X123252381Y-100981342D01*
X123252381Y-100981342D02*
X123290476Y-101019438D01*
X123290476Y-101019438D02*
X123328572Y-101095628D01*
X123328572Y-101095628D02*
X123328572Y-101209914D01*
X123328572Y-101209914D02*
X123290476Y-101286104D01*
X123290476Y-101286104D02*
X123252381Y-101324200D01*
X123252381Y-101324200D02*
X123176191Y-101362295D01*
X123176191Y-101362295D02*
X122871429Y-101362295D01*
X122871429Y-101362295D02*
X122871429Y-100562295D01*
X122871429Y-100562295D02*
X123138095Y-100562295D01*
X123138095Y-100562295D02*
X123214286Y-100600390D01*
X123214286Y-100600390D02*
X123252381Y-100638485D01*
X123252381Y-100638485D02*
X123290476Y-100714676D01*
X123290476Y-100714676D02*
X123290476Y-100790866D01*
X123290476Y-100790866D02*
X123252381Y-100867057D01*
X123252381Y-100867057D02*
X123214286Y-100905152D01*
X123214286Y-100905152D02*
X123138095Y-100943247D01*
X123138095Y-100943247D02*
X122871429Y-100943247D01*
X122528571Y-149362295D02*
X122071428Y-149362295D01*
X122300000Y-149362295D02*
X122300000Y-148562295D01*
X122300000Y-148562295D02*
X122223809Y-148676580D01*
X122223809Y-148676580D02*
X122147619Y-148752771D01*
X122147619Y-148752771D02*
X122071428Y-148790866D01*
X122871429Y-149362295D02*
X122871429Y-148562295D01*
X122871429Y-148562295D02*
X123061905Y-148562295D01*
X123061905Y-148562295D02*
X123176191Y-148600390D01*
X123176191Y-148600390D02*
X123252381Y-148676580D01*
X123252381Y-148676580D02*
X123290476Y-148752771D01*
X123290476Y-148752771D02*
X123328572Y-148905152D01*
X123328572Y-148905152D02*
X123328572Y-149019438D01*
X123328572Y-149019438D02*
X123290476Y-149171819D01*
X123290476Y-149171819D02*
X123252381Y-149248009D01*
X123252381Y-149248009D02*
X123176191Y-149324200D01*
X123176191Y-149324200D02*
X123061905Y-149362295D01*
X123061905Y-149362295D02*
X122871429Y-149362295D01*
X118466665Y-67638485D02*
X118390475Y-67600390D01*
X118390475Y-67600390D02*
X118314284Y-67524200D01*
X118314284Y-67524200D02*
X118199998Y-67409914D01*
X118199998Y-67409914D02*
X118123808Y-67371819D01*
X118123808Y-67371819D02*
X118047617Y-67371819D01*
X118085713Y-67562295D02*
X118009522Y-67524200D01*
X118009522Y-67524200D02*
X117933332Y-67448009D01*
X117933332Y-67448009D02*
X117895236Y-67295628D01*
X117895236Y-67295628D02*
X117895236Y-67028961D01*
X117895236Y-67028961D02*
X117933332Y-66876580D01*
X117933332Y-66876580D02*
X118009522Y-66800390D01*
X118009522Y-66800390D02*
X118085713Y-66762295D01*
X118085713Y-66762295D02*
X118238094Y-66762295D01*
X118238094Y-66762295D02*
X118314284Y-66800390D01*
X118314284Y-66800390D02*
X118390475Y-66876580D01*
X118390475Y-66876580D02*
X118428570Y-67028961D01*
X118428570Y-67028961D02*
X118428570Y-67295628D01*
X118428570Y-67295628D02*
X118390475Y-67448009D01*
X118390475Y-67448009D02*
X118314284Y-67524200D01*
X118314284Y-67524200D02*
X118238094Y-67562295D01*
X118238094Y-67562295D02*
X118085713Y-67562295D01*
X119114284Y-67028961D02*
X119114284Y-67562295D01*
X118771427Y-67028961D02*
X118771427Y-67448009D01*
X118771427Y-67448009D02*
X118809522Y-67524200D01*
X118809522Y-67524200D02*
X118885712Y-67562295D01*
X118885712Y-67562295D02*
X118999998Y-67562295D01*
X118999998Y-67562295D02*
X119076189Y-67524200D01*
X119076189Y-67524200D02*
X119114284Y-67486104D01*
X119838094Y-67562295D02*
X119838094Y-67143247D01*
X119838094Y-67143247D02*
X119799999Y-67067057D01*
X119799999Y-67067057D02*
X119723808Y-67028961D01*
X119723808Y-67028961D02*
X119571427Y-67028961D01*
X119571427Y-67028961D02*
X119495237Y-67067057D01*
X119838094Y-67524200D02*
X119761903Y-67562295D01*
X119761903Y-67562295D02*
X119571427Y-67562295D01*
X119571427Y-67562295D02*
X119495237Y-67524200D01*
X119495237Y-67524200D02*
X119457141Y-67448009D01*
X119457141Y-67448009D02*
X119457141Y-67371819D01*
X119457141Y-67371819D02*
X119495237Y-67295628D01*
X119495237Y-67295628D02*
X119571427Y-67257533D01*
X119571427Y-67257533D02*
X119761903Y-67257533D01*
X119761903Y-67257533D02*
X119838094Y-67219438D01*
X120561904Y-67562295D02*
X120561904Y-66762295D01*
X120561904Y-67524200D02*
X120485713Y-67562295D01*
X120485713Y-67562295D02*
X120333332Y-67562295D01*
X120333332Y-67562295D02*
X120257142Y-67524200D01*
X120257142Y-67524200D02*
X120219047Y-67486104D01*
X120219047Y-67486104D02*
X120180951Y-67409914D01*
X120180951Y-67409914D02*
X120180951Y-67181342D01*
X120180951Y-67181342D02*
X120219047Y-67105152D01*
X120219047Y-67105152D02*
X120257142Y-67067057D01*
X120257142Y-67067057D02*
X120333332Y-67028961D01*
X120333332Y-67028961D02*
X120485713Y-67028961D01*
X120485713Y-67028961D02*
X120561904Y-67067057D01*
X121514285Y-66838485D02*
X121552381Y-66800390D01*
X121552381Y-66800390D02*
X121628571Y-66762295D01*
X121628571Y-66762295D02*
X121819047Y-66762295D01*
X121819047Y-66762295D02*
X121895238Y-66800390D01*
X121895238Y-66800390D02*
X121933333Y-66838485D01*
X121933333Y-66838485D02*
X121971428Y-66914676D01*
X121971428Y-66914676D02*
X121971428Y-66990866D01*
X121971428Y-66990866D02*
X121933333Y-67105152D01*
X121933333Y-67105152D02*
X121476190Y-67562295D01*
X121476190Y-67562295D02*
X121971428Y-67562295D01*
X122314286Y-67257533D02*
X122923810Y-67257533D01*
X123304762Y-67562295D02*
X123304762Y-67028961D01*
X123304762Y-66762295D02*
X123266666Y-66800390D01*
X123266666Y-66800390D02*
X123304762Y-66838485D01*
X123304762Y-66838485D02*
X123342857Y-66800390D01*
X123342857Y-66800390D02*
X123304762Y-66762295D01*
X123304762Y-66762295D02*
X123304762Y-66838485D01*
X123685714Y-67028961D02*
X123685714Y-67562295D01*
X123685714Y-67105152D02*
X123723809Y-67067057D01*
X123723809Y-67067057D02*
X123799999Y-67028961D01*
X123799999Y-67028961D02*
X123914285Y-67028961D01*
X123914285Y-67028961D02*
X123990476Y-67067057D01*
X123990476Y-67067057D02*
X124028571Y-67143247D01*
X124028571Y-67143247D02*
X124028571Y-67562295D01*
X124409524Y-67028961D02*
X124409524Y-67828961D01*
X124409524Y-67067057D02*
X124485714Y-67028961D01*
X124485714Y-67028961D02*
X124638095Y-67028961D01*
X124638095Y-67028961D02*
X124714286Y-67067057D01*
X124714286Y-67067057D02*
X124752381Y-67105152D01*
X124752381Y-67105152D02*
X124790476Y-67181342D01*
X124790476Y-67181342D02*
X124790476Y-67409914D01*
X124790476Y-67409914D02*
X124752381Y-67486104D01*
X124752381Y-67486104D02*
X124714286Y-67524200D01*
X124714286Y-67524200D02*
X124638095Y-67562295D01*
X124638095Y-67562295D02*
X124485714Y-67562295D01*
X124485714Y-67562295D02*
X124409524Y-67524200D01*
X125476191Y-67028961D02*
X125476191Y-67562295D01*
X125133334Y-67028961D02*
X125133334Y-67448009D01*
X125133334Y-67448009D02*
X125171429Y-67524200D01*
X125171429Y-67524200D02*
X125247619Y-67562295D01*
X125247619Y-67562295D02*
X125361905Y-67562295D01*
X125361905Y-67562295D02*
X125438096Y-67524200D01*
X125438096Y-67524200D02*
X125476191Y-67486104D01*
X125742858Y-67028961D02*
X126047620Y-67028961D01*
X125857144Y-66762295D02*
X125857144Y-67448009D01*
X125857144Y-67448009D02*
X125895239Y-67524200D01*
X125895239Y-67524200D02*
X125971429Y-67562295D01*
X125971429Y-67562295D02*
X126047620Y-67562295D01*
X126885715Y-67333723D02*
X127266668Y-67333723D01*
X126809525Y-67562295D02*
X127076192Y-66762295D01*
X127076192Y-66762295D02*
X127342858Y-67562295D01*
X127609525Y-67562295D02*
X127609525Y-66762295D01*
X127609525Y-66762295D02*
X128066668Y-67562295D01*
X128066668Y-67562295D02*
X128066668Y-66762295D01*
X128447620Y-67562295D02*
X128447620Y-66762295D01*
X128447620Y-66762295D02*
X128638096Y-66762295D01*
X128638096Y-66762295D02*
X128752382Y-66800390D01*
X128752382Y-66800390D02*
X128828572Y-66876580D01*
X128828572Y-66876580D02*
X128866667Y-66952771D01*
X128866667Y-66952771D02*
X128904763Y-67105152D01*
X128904763Y-67105152D02*
X128904763Y-67219438D01*
X128904763Y-67219438D02*
X128866667Y-67371819D01*
X128866667Y-67371819D02*
X128828572Y-67448009D01*
X128828572Y-67448009D02*
X128752382Y-67524200D01*
X128752382Y-67524200D02*
X128638096Y-67562295D01*
X128638096Y-67562295D02*
X128447620Y-67562295D01*
X130200001Y-67028961D02*
X130200001Y-67676580D01*
X130200001Y-67676580D02*
X130161906Y-67752771D01*
X130161906Y-67752771D02*
X130123810Y-67790866D01*
X130123810Y-67790866D02*
X130047620Y-67828961D01*
X130047620Y-67828961D02*
X129933334Y-67828961D01*
X129933334Y-67828961D02*
X129857144Y-67790866D01*
X130200001Y-67524200D02*
X130123810Y-67562295D01*
X130123810Y-67562295D02*
X129971429Y-67562295D01*
X129971429Y-67562295D02*
X129895239Y-67524200D01*
X129895239Y-67524200D02*
X129857144Y-67486104D01*
X129857144Y-67486104D02*
X129819048Y-67409914D01*
X129819048Y-67409914D02*
X129819048Y-67181342D01*
X129819048Y-67181342D02*
X129857144Y-67105152D01*
X129857144Y-67105152D02*
X129895239Y-67067057D01*
X129895239Y-67067057D02*
X129971429Y-67028961D01*
X129971429Y-67028961D02*
X130123810Y-67028961D01*
X130123810Y-67028961D02*
X130200001Y-67067057D01*
X130923811Y-67562295D02*
X130923811Y-67143247D01*
X130923811Y-67143247D02*
X130885716Y-67067057D01*
X130885716Y-67067057D02*
X130809525Y-67028961D01*
X130809525Y-67028961D02*
X130657144Y-67028961D01*
X130657144Y-67028961D02*
X130580954Y-67067057D01*
X130923811Y-67524200D02*
X130847620Y-67562295D01*
X130847620Y-67562295D02*
X130657144Y-67562295D01*
X130657144Y-67562295D02*
X130580954Y-67524200D01*
X130580954Y-67524200D02*
X130542858Y-67448009D01*
X130542858Y-67448009D02*
X130542858Y-67371819D01*
X130542858Y-67371819D02*
X130580954Y-67295628D01*
X130580954Y-67295628D02*
X130657144Y-67257533D01*
X130657144Y-67257533D02*
X130847620Y-67257533D01*
X130847620Y-67257533D02*
X130923811Y-67219438D01*
X131190478Y-67028961D02*
X131495240Y-67028961D01*
X131304764Y-66762295D02*
X131304764Y-67448009D01*
X131304764Y-67448009D02*
X131342859Y-67524200D01*
X131342859Y-67524200D02*
X131419049Y-67562295D01*
X131419049Y-67562295D02*
X131495240Y-67562295D01*
X132066669Y-67524200D02*
X131990478Y-67562295D01*
X131990478Y-67562295D02*
X131838097Y-67562295D01*
X131838097Y-67562295D02*
X131761907Y-67524200D01*
X131761907Y-67524200D02*
X131723811Y-67448009D01*
X131723811Y-67448009D02*
X131723811Y-67143247D01*
X131723811Y-67143247D02*
X131761907Y-67067057D01*
X131761907Y-67067057D02*
X131838097Y-67028961D01*
X131838097Y-67028961D02*
X131990478Y-67028961D01*
X131990478Y-67028961D02*
X132066669Y-67067057D01*
X132066669Y-67067057D02*
X132104764Y-67143247D01*
X132104764Y-67143247D02*
X132104764Y-67219438D01*
X132104764Y-67219438D02*
X131723811Y-67295628D01*
X119990477Y-68478961D02*
X119990477Y-69012295D01*
X119800001Y-68174200D02*
X119609524Y-68745628D01*
X119609524Y-68745628D02*
X120104763Y-68745628D01*
X120295239Y-68974200D02*
X121285715Y-68974200D01*
X120295239Y-68174200D02*
X120295239Y-69012295D01*
X120561906Y-68707533D02*
X121019049Y-68707533D01*
X120561906Y-68402771D02*
X120561906Y-68707533D01*
X120295239Y-68174200D02*
X121285715Y-68174200D01*
X121285715Y-68174200D02*
X121285715Y-69012295D01*
X120561906Y-68402771D02*
X121019049Y-68402771D01*
X121019049Y-68402771D02*
X121019049Y-68707533D01*
X121552381Y-68440866D02*
X121857143Y-68440866D01*
X121552381Y-68174200D02*
X121552381Y-68440866D01*
X121552381Y-68593247D02*
X121552381Y-68936104D01*
X121704762Y-68631342D02*
X121857143Y-68631342D01*
X121704762Y-68402771D02*
X121704762Y-68898009D01*
X121857143Y-68898009D02*
X121476191Y-68936104D01*
X122009524Y-68669438D02*
X122009524Y-69012295D01*
X122009524Y-68974200D02*
X122428572Y-68974200D01*
X121552381Y-68174200D02*
X121857143Y-68174200D01*
X121857143Y-68174200D02*
X121857143Y-68440866D01*
X122009524Y-68669438D02*
X122428572Y-68669438D01*
X122428572Y-68669438D02*
X122428572Y-69012295D01*
X122085715Y-68098009D02*
X122009524Y-68288485D01*
X122009524Y-68288485D02*
X121895239Y-68402771D01*
X122047620Y-68250390D02*
X122085715Y-68402771D01*
X122085715Y-68402771D02*
X122314286Y-68631342D01*
X122314286Y-68631342D02*
X122466667Y-68669438D01*
X122047620Y-68212295D02*
X122352381Y-68212295D01*
X122352381Y-68212295D02*
X122276191Y-68402771D01*
X122276191Y-68402771D02*
X122047620Y-68593247D01*
X122047620Y-68593247D02*
X121857143Y-68669438D01*
X122733333Y-68288485D02*
X122771429Y-68250390D01*
X122771429Y-68250390D02*
X122847619Y-68212295D01*
X122847619Y-68212295D02*
X123038095Y-68212295D01*
X123038095Y-68212295D02*
X123114286Y-68250390D01*
X123114286Y-68250390D02*
X123152381Y-68288485D01*
X123152381Y-68288485D02*
X123190476Y-68364676D01*
X123190476Y-68364676D02*
X123190476Y-68440866D01*
X123190476Y-68440866D02*
X123152381Y-68555152D01*
X123152381Y-68555152D02*
X122695238Y-69012295D01*
X122695238Y-69012295D02*
X123190476Y-69012295D01*
X123914286Y-68288485D02*
X123876191Y-68517057D01*
X123876191Y-68517057D02*
X123761905Y-68745628D01*
X123761905Y-68745628D02*
X123495238Y-69012295D01*
X123647619Y-68212295D02*
X123914286Y-68212295D01*
X123914286Y-68212295D02*
X123990477Y-68440866D01*
X123990477Y-68440866D02*
X124104762Y-68745628D01*
X124104762Y-68745628D02*
X124371429Y-69012295D01*
X125209524Y-69012295D02*
X125476190Y-69012295D01*
X124638095Y-68364676D02*
X125590476Y-68364676D01*
X125590476Y-68364676D02*
X125590476Y-68593247D01*
X125590476Y-68593247D02*
X125514286Y-68974200D01*
X125057143Y-68098009D02*
X125057143Y-68440866D01*
X125057143Y-68440866D02*
X124980952Y-68631342D01*
X124980952Y-68631342D02*
X124866667Y-68821819D01*
X124866667Y-68821819D02*
X124638095Y-69012295D01*
X125857142Y-68783723D02*
X126238095Y-68783723D01*
X125780952Y-69012295D02*
X126047619Y-68212295D01*
X126047619Y-68212295D02*
X126314285Y-69012295D01*
X126580952Y-69012295D02*
X126580952Y-68212295D01*
X126580952Y-68212295D02*
X127038095Y-69012295D01*
X127038095Y-69012295D02*
X127038095Y-68212295D01*
X127419047Y-69012295D02*
X127419047Y-68212295D01*
X127419047Y-68212295D02*
X127609523Y-68212295D01*
X127609523Y-68212295D02*
X127723809Y-68250390D01*
X127723809Y-68250390D02*
X127799999Y-68326580D01*
X127799999Y-68326580D02*
X127838094Y-68402771D01*
X127838094Y-68402771D02*
X127876190Y-68555152D01*
X127876190Y-68555152D02*
X127876190Y-68669438D01*
X127876190Y-68669438D02*
X127838094Y-68821819D01*
X127838094Y-68821819D02*
X127799999Y-68898009D01*
X127799999Y-68898009D02*
X127723809Y-68974200D01*
X127723809Y-68974200D02*
X127609523Y-69012295D01*
X127609523Y-69012295D02*
X127419047Y-69012295D01*
X128295237Y-68402771D02*
X128714285Y-68402771D01*
X128561904Y-68250390D02*
X128638094Y-68326580D01*
X128676190Y-68212295D02*
X128752380Y-68288485D01*
X128333332Y-68136104D02*
X128295237Y-68288485D01*
X128295237Y-68288485D02*
X128219047Y-68478961D01*
X128219047Y-68478961D02*
X128180951Y-68631342D01*
X128523809Y-68402771D02*
X128523809Y-68593247D01*
X128523809Y-68593247D02*
X128485713Y-68707533D01*
X128485713Y-68707533D02*
X128409523Y-68821819D01*
X128409523Y-68821819D02*
X128295237Y-68974200D01*
X128980951Y-68593247D02*
X129590475Y-68593247D01*
X130123808Y-68478961D02*
X130352380Y-68669438D01*
X130123808Y-68136104D02*
X130123808Y-68974200D01*
X118104760Y-117562295D02*
X118104760Y-116762295D01*
X118104760Y-116762295D02*
X118295236Y-116762295D01*
X118295236Y-116762295D02*
X118409522Y-116800390D01*
X118409522Y-116800390D02*
X118485712Y-116876580D01*
X118485712Y-116876580D02*
X118523807Y-116952771D01*
X118523807Y-116952771D02*
X118561903Y-117105152D01*
X118561903Y-117105152D02*
X118561903Y-117219438D01*
X118561903Y-117219438D02*
X118523807Y-117371819D01*
X118523807Y-117371819D02*
X118485712Y-117448009D01*
X118485712Y-117448009D02*
X118409522Y-117524200D01*
X118409522Y-117524200D02*
X118295236Y-117562295D01*
X118295236Y-117562295D02*
X118104760Y-117562295D01*
X119247617Y-117028961D02*
X119247617Y-117562295D01*
X118904760Y-117028961D02*
X118904760Y-117448009D01*
X118904760Y-117448009D02*
X118942855Y-117524200D01*
X118942855Y-117524200D02*
X119019045Y-117562295D01*
X119019045Y-117562295D02*
X119133331Y-117562295D01*
X119133331Y-117562295D02*
X119209522Y-117524200D01*
X119209522Y-117524200D02*
X119247617Y-117486104D01*
X119971427Y-117562295D02*
X119971427Y-117143247D01*
X119971427Y-117143247D02*
X119933332Y-117067057D01*
X119933332Y-117067057D02*
X119857141Y-117028961D01*
X119857141Y-117028961D02*
X119704760Y-117028961D01*
X119704760Y-117028961D02*
X119628570Y-117067057D01*
X119971427Y-117524200D02*
X119895236Y-117562295D01*
X119895236Y-117562295D02*
X119704760Y-117562295D01*
X119704760Y-117562295D02*
X119628570Y-117524200D01*
X119628570Y-117524200D02*
X119590474Y-117448009D01*
X119590474Y-117448009D02*
X119590474Y-117371819D01*
X119590474Y-117371819D02*
X119628570Y-117295628D01*
X119628570Y-117295628D02*
X119704760Y-117257533D01*
X119704760Y-117257533D02*
X119895236Y-117257533D01*
X119895236Y-117257533D02*
X119971427Y-117219438D01*
X120466665Y-117562295D02*
X120390475Y-117524200D01*
X120390475Y-117524200D02*
X120352380Y-117448009D01*
X120352380Y-117448009D02*
X120352380Y-116762295D01*
X121723809Y-117028961D02*
X121723809Y-117562295D01*
X121533333Y-116724200D02*
X121342856Y-117295628D01*
X121342856Y-117295628D02*
X121838095Y-117295628D01*
X122142857Y-117257533D02*
X122752381Y-117257533D01*
X123133333Y-117562295D02*
X123133333Y-117028961D01*
X123133333Y-116762295D02*
X123095237Y-116800390D01*
X123095237Y-116800390D02*
X123133333Y-116838485D01*
X123133333Y-116838485D02*
X123171428Y-116800390D01*
X123171428Y-116800390D02*
X123133333Y-116762295D01*
X123133333Y-116762295D02*
X123133333Y-116838485D01*
X123514285Y-117028961D02*
X123514285Y-117562295D01*
X123514285Y-117105152D02*
X123552380Y-117067057D01*
X123552380Y-117067057D02*
X123628570Y-117028961D01*
X123628570Y-117028961D02*
X123742856Y-117028961D01*
X123742856Y-117028961D02*
X123819047Y-117067057D01*
X123819047Y-117067057D02*
X123857142Y-117143247D01*
X123857142Y-117143247D02*
X123857142Y-117562295D01*
X124238095Y-117028961D02*
X124238095Y-117828961D01*
X124238095Y-117067057D02*
X124314285Y-117028961D01*
X124314285Y-117028961D02*
X124466666Y-117028961D01*
X124466666Y-117028961D02*
X124542857Y-117067057D01*
X124542857Y-117067057D02*
X124580952Y-117105152D01*
X124580952Y-117105152D02*
X124619047Y-117181342D01*
X124619047Y-117181342D02*
X124619047Y-117409914D01*
X124619047Y-117409914D02*
X124580952Y-117486104D01*
X124580952Y-117486104D02*
X124542857Y-117524200D01*
X124542857Y-117524200D02*
X124466666Y-117562295D01*
X124466666Y-117562295D02*
X124314285Y-117562295D01*
X124314285Y-117562295D02*
X124238095Y-117524200D01*
X125304762Y-117028961D02*
X125304762Y-117562295D01*
X124961905Y-117028961D02*
X124961905Y-117448009D01*
X124961905Y-117448009D02*
X125000000Y-117524200D01*
X125000000Y-117524200D02*
X125076190Y-117562295D01*
X125076190Y-117562295D02*
X125190476Y-117562295D01*
X125190476Y-117562295D02*
X125266667Y-117524200D01*
X125266667Y-117524200D02*
X125304762Y-117486104D01*
X125571429Y-117028961D02*
X125876191Y-117028961D01*
X125685715Y-116762295D02*
X125685715Y-117448009D01*
X125685715Y-117448009D02*
X125723810Y-117524200D01*
X125723810Y-117524200D02*
X125800000Y-117562295D01*
X125800000Y-117562295D02*
X125876191Y-117562295D01*
X126714286Y-117333723D02*
X127095239Y-117333723D01*
X126638096Y-117562295D02*
X126904763Y-116762295D01*
X126904763Y-116762295D02*
X127171429Y-117562295D01*
X127438096Y-117562295D02*
X127438096Y-116762295D01*
X127438096Y-116762295D02*
X127895239Y-117562295D01*
X127895239Y-117562295D02*
X127895239Y-116762295D01*
X128276191Y-117562295D02*
X128276191Y-116762295D01*
X128276191Y-116762295D02*
X128466667Y-116762295D01*
X128466667Y-116762295D02*
X128580953Y-116800390D01*
X128580953Y-116800390D02*
X128657143Y-116876580D01*
X128657143Y-116876580D02*
X128695238Y-116952771D01*
X128695238Y-116952771D02*
X128733334Y-117105152D01*
X128733334Y-117105152D02*
X128733334Y-117219438D01*
X128733334Y-117219438D02*
X128695238Y-117371819D01*
X128695238Y-117371819D02*
X128657143Y-117448009D01*
X128657143Y-117448009D02*
X128580953Y-117524200D01*
X128580953Y-117524200D02*
X128466667Y-117562295D01*
X128466667Y-117562295D02*
X128276191Y-117562295D01*
X130028572Y-117028961D02*
X130028572Y-117676580D01*
X130028572Y-117676580D02*
X129990477Y-117752771D01*
X129990477Y-117752771D02*
X129952381Y-117790866D01*
X129952381Y-117790866D02*
X129876191Y-117828961D01*
X129876191Y-117828961D02*
X129761905Y-117828961D01*
X129761905Y-117828961D02*
X129685715Y-117790866D01*
X130028572Y-117524200D02*
X129952381Y-117562295D01*
X129952381Y-117562295D02*
X129800000Y-117562295D01*
X129800000Y-117562295D02*
X129723810Y-117524200D01*
X129723810Y-117524200D02*
X129685715Y-117486104D01*
X129685715Y-117486104D02*
X129647619Y-117409914D01*
X129647619Y-117409914D02*
X129647619Y-117181342D01*
X129647619Y-117181342D02*
X129685715Y-117105152D01*
X129685715Y-117105152D02*
X129723810Y-117067057D01*
X129723810Y-117067057D02*
X129800000Y-117028961D01*
X129800000Y-117028961D02*
X129952381Y-117028961D01*
X129952381Y-117028961D02*
X130028572Y-117067057D01*
X130752382Y-117562295D02*
X130752382Y-117143247D01*
X130752382Y-117143247D02*
X130714287Y-117067057D01*
X130714287Y-117067057D02*
X130638096Y-117028961D01*
X130638096Y-117028961D02*
X130485715Y-117028961D01*
X130485715Y-117028961D02*
X130409525Y-117067057D01*
X130752382Y-117524200D02*
X130676191Y-117562295D01*
X130676191Y-117562295D02*
X130485715Y-117562295D01*
X130485715Y-117562295D02*
X130409525Y-117524200D01*
X130409525Y-117524200D02*
X130371429Y-117448009D01*
X130371429Y-117448009D02*
X130371429Y-117371819D01*
X130371429Y-117371819D02*
X130409525Y-117295628D01*
X130409525Y-117295628D02*
X130485715Y-117257533D01*
X130485715Y-117257533D02*
X130676191Y-117257533D01*
X130676191Y-117257533D02*
X130752382Y-117219438D01*
X131019049Y-117028961D02*
X131323811Y-117028961D01*
X131133335Y-116762295D02*
X131133335Y-117448009D01*
X131133335Y-117448009D02*
X131171430Y-117524200D01*
X131171430Y-117524200D02*
X131247620Y-117562295D01*
X131247620Y-117562295D02*
X131323811Y-117562295D01*
X131895240Y-117524200D02*
X131819049Y-117562295D01*
X131819049Y-117562295D02*
X131666668Y-117562295D01*
X131666668Y-117562295D02*
X131590478Y-117524200D01*
X131590478Y-117524200D02*
X131552382Y-117448009D01*
X131552382Y-117448009D02*
X131552382Y-117143247D01*
X131552382Y-117143247D02*
X131590478Y-117067057D01*
X131590478Y-117067057D02*
X131666668Y-117028961D01*
X131666668Y-117028961D02*
X131819049Y-117028961D01*
X131819049Y-117028961D02*
X131895240Y-117067057D01*
X131895240Y-117067057D02*
X131933335Y-117143247D01*
X131933335Y-117143247D02*
X131933335Y-117219438D01*
X131933335Y-117219438D02*
X131552382Y-117295628D01*
X119609524Y-118288485D02*
X119647620Y-118250390D01*
X119647620Y-118250390D02*
X119723810Y-118212295D01*
X119723810Y-118212295D02*
X119914286Y-118212295D01*
X119914286Y-118212295D02*
X119990477Y-118250390D01*
X119990477Y-118250390D02*
X120028572Y-118288485D01*
X120028572Y-118288485D02*
X120066667Y-118364676D01*
X120066667Y-118364676D02*
X120066667Y-118440866D01*
X120066667Y-118440866D02*
X120028572Y-118555152D01*
X120028572Y-118555152D02*
X119571429Y-119012295D01*
X119571429Y-119012295D02*
X120066667Y-119012295D01*
X120295239Y-118974200D02*
X121285715Y-118974200D01*
X120295239Y-118174200D02*
X120295239Y-119012295D01*
X120561906Y-118707533D02*
X121019049Y-118707533D01*
X120561906Y-118402771D02*
X120561906Y-118707533D01*
X120295239Y-118174200D02*
X121285715Y-118174200D01*
X121285715Y-118174200D02*
X121285715Y-119012295D01*
X120561906Y-118402771D02*
X121019049Y-118402771D01*
X121019049Y-118402771D02*
X121019049Y-118707533D01*
X121552381Y-118440866D02*
X121857143Y-118440866D01*
X121552381Y-118174200D02*
X121552381Y-118440866D01*
X121552381Y-118593247D02*
X121552381Y-118936104D01*
X121704762Y-118631342D02*
X121857143Y-118631342D01*
X121704762Y-118402771D02*
X121704762Y-118898009D01*
X121857143Y-118898009D02*
X121476191Y-118936104D01*
X122009524Y-118669438D02*
X122009524Y-119012295D01*
X122009524Y-118974200D02*
X122428572Y-118974200D01*
X121552381Y-118174200D02*
X121857143Y-118174200D01*
X121857143Y-118174200D02*
X121857143Y-118440866D01*
X122009524Y-118669438D02*
X122428572Y-118669438D01*
X122428572Y-118669438D02*
X122428572Y-119012295D01*
X122085715Y-118098009D02*
X122009524Y-118288485D01*
X122009524Y-118288485D02*
X121895239Y-118402771D01*
X122047620Y-118250390D02*
X122085715Y-118402771D01*
X122085715Y-118402771D02*
X122314286Y-118631342D01*
X122314286Y-118631342D02*
X122466667Y-118669438D01*
X122047620Y-118212295D02*
X122352381Y-118212295D01*
X122352381Y-118212295D02*
X122276191Y-118402771D01*
X122276191Y-118402771D02*
X122047620Y-118593247D01*
X122047620Y-118593247D02*
X121857143Y-118669438D01*
X123114286Y-118478961D02*
X123114286Y-119012295D01*
X122923810Y-118174200D02*
X122733333Y-118745628D01*
X122733333Y-118745628D02*
X123228572Y-118745628D01*
X123914286Y-118288485D02*
X123876191Y-118517057D01*
X123876191Y-118517057D02*
X123761905Y-118745628D01*
X123761905Y-118745628D02*
X123495238Y-119012295D01*
X123647619Y-118212295D02*
X123914286Y-118212295D01*
X123914286Y-118212295D02*
X123990477Y-118440866D01*
X123990477Y-118440866D02*
X124104762Y-118745628D01*
X124104762Y-118745628D02*
X124371429Y-119012295D01*
X125209524Y-119012295D02*
X125476190Y-119012295D01*
X124638095Y-118364676D02*
X125590476Y-118364676D01*
X125590476Y-118364676D02*
X125590476Y-118593247D01*
X125590476Y-118593247D02*
X125514286Y-118974200D01*
X125057143Y-118098009D02*
X125057143Y-118440866D01*
X125057143Y-118440866D02*
X124980952Y-118631342D01*
X124980952Y-118631342D02*
X124866667Y-118821819D01*
X124866667Y-118821819D02*
X124638095Y-119012295D01*
X125857142Y-118783723D02*
X126238095Y-118783723D01*
X125780952Y-119012295D02*
X126047619Y-118212295D01*
X126047619Y-118212295D02*
X126314285Y-119012295D01*
X126580952Y-119012295D02*
X126580952Y-118212295D01*
X126580952Y-118212295D02*
X127038095Y-119012295D01*
X127038095Y-119012295D02*
X127038095Y-118212295D01*
X127419047Y-119012295D02*
X127419047Y-118212295D01*
X127419047Y-118212295D02*
X127609523Y-118212295D01*
X127609523Y-118212295D02*
X127723809Y-118250390D01*
X127723809Y-118250390D02*
X127799999Y-118326580D01*
X127799999Y-118326580D02*
X127838094Y-118402771D01*
X127838094Y-118402771D02*
X127876190Y-118555152D01*
X127876190Y-118555152D02*
X127876190Y-118669438D01*
X127876190Y-118669438D02*
X127838094Y-118821819D01*
X127838094Y-118821819D02*
X127799999Y-118898009D01*
X127799999Y-118898009D02*
X127723809Y-118974200D01*
X127723809Y-118974200D02*
X127609523Y-119012295D01*
X127609523Y-119012295D02*
X127419047Y-119012295D01*
X128295237Y-118402771D02*
X128714285Y-118402771D01*
X128561904Y-118250390D02*
X128638094Y-118326580D01*
X128676190Y-118212295D02*
X128752380Y-118288485D01*
X128333332Y-118136104D02*
X128295237Y-118288485D01*
X128295237Y-118288485D02*
X128219047Y-118478961D01*
X128219047Y-118478961D02*
X128180951Y-118631342D01*
X128523809Y-118402771D02*
X128523809Y-118593247D01*
X128523809Y-118593247D02*
X128485713Y-118707533D01*
X128485713Y-118707533D02*
X128409523Y-118821819D01*
X128409523Y-118821819D02*
X128295237Y-118974200D01*
X128980951Y-118593247D02*
X129590475Y-118593247D01*
X130123808Y-118478961D02*
X130352380Y-118669438D01*
X130123808Y-118136104D02*
X130123808Y-118974200D01*
X126690476Y-50562295D02*
X127185714Y-50562295D01*
X127185714Y-50562295D02*
X126919048Y-50867057D01*
X126919048Y-50867057D02*
X127033333Y-50867057D01*
X127033333Y-50867057D02*
X127109524Y-50905152D01*
X127109524Y-50905152D02*
X127147619Y-50943247D01*
X127147619Y-50943247D02*
X127185714Y-51019438D01*
X127185714Y-51019438D02*
X127185714Y-51209914D01*
X127185714Y-51209914D02*
X127147619Y-51286104D01*
X127147619Y-51286104D02*
X127109524Y-51324200D01*
X127109524Y-51324200D02*
X127033333Y-51362295D01*
X127033333Y-51362295D02*
X126804762Y-51362295D01*
X126804762Y-51362295D02*
X126728571Y-51324200D01*
X126728571Y-51324200D02*
X126690476Y-51286104D01*
X127490476Y-51133723D02*
X127871429Y-51133723D01*
X127414286Y-51362295D02*
X127680953Y-50562295D01*
X127680953Y-50562295D02*
X127947619Y-51362295D01*
X126728571Y-98638485D02*
X126766667Y-98600390D01*
X126766667Y-98600390D02*
X126842857Y-98562295D01*
X126842857Y-98562295D02*
X127033333Y-98562295D01*
X127033333Y-98562295D02*
X127109524Y-98600390D01*
X127109524Y-98600390D02*
X127147619Y-98638485D01*
X127147619Y-98638485D02*
X127185714Y-98714676D01*
X127185714Y-98714676D02*
X127185714Y-98790866D01*
X127185714Y-98790866D02*
X127147619Y-98905152D01*
X127147619Y-98905152D02*
X126690476Y-99362295D01*
X126690476Y-99362295D02*
X127185714Y-99362295D01*
X127680953Y-98981342D02*
X127680953Y-99362295D01*
X127414286Y-98562295D02*
X127680953Y-98981342D01*
X127680953Y-98981342D02*
X127947619Y-98562295D01*
X126728571Y-100638485D02*
X126766667Y-100600390D01*
X126766667Y-100600390D02*
X126842857Y-100562295D01*
X126842857Y-100562295D02*
X127033333Y-100562295D01*
X127033333Y-100562295D02*
X127109524Y-100600390D01*
X127109524Y-100600390D02*
X127147619Y-100638485D01*
X127147619Y-100638485D02*
X127185714Y-100714676D01*
X127185714Y-100714676D02*
X127185714Y-100790866D01*
X127185714Y-100790866D02*
X127147619Y-100905152D01*
X127147619Y-100905152D02*
X126690476Y-101362295D01*
X126690476Y-101362295D02*
X127185714Y-101362295D01*
X127490476Y-101133723D02*
X127871429Y-101133723D01*
X127414286Y-101362295D02*
X127680953Y-100562295D01*
X127680953Y-100562295D02*
X127947619Y-101362295D01*
X127185714Y-149362295D02*
X126728571Y-149362295D01*
X126957143Y-149362295D02*
X126957143Y-148562295D01*
X126957143Y-148562295D02*
X126880952Y-148676580D01*
X126880952Y-148676580D02*
X126804762Y-148752771D01*
X126804762Y-148752771D02*
X126728571Y-148790866D01*
X127680953Y-148981342D02*
X127680953Y-149362295D01*
X127414286Y-148562295D02*
X127680953Y-148981342D01*
X127680953Y-148981342D02*
X127947619Y-148562295D01*
X131290476Y-50562295D02*
X131785714Y-50562295D01*
X131785714Y-50562295D02*
X131519048Y-50867057D01*
X131519048Y-50867057D02*
X131633333Y-50867057D01*
X131633333Y-50867057D02*
X131709524Y-50905152D01*
X131709524Y-50905152D02*
X131747619Y-50943247D01*
X131747619Y-50943247D02*
X131785714Y-51019438D01*
X131785714Y-51019438D02*
X131785714Y-51209914D01*
X131785714Y-51209914D02*
X131747619Y-51286104D01*
X131747619Y-51286104D02*
X131709524Y-51324200D01*
X131709524Y-51324200D02*
X131633333Y-51362295D01*
X131633333Y-51362295D02*
X131404762Y-51362295D01*
X131404762Y-51362295D02*
X131328571Y-51324200D01*
X131328571Y-51324200D02*
X131290476Y-51286104D01*
X132280953Y-50981342D02*
X132280953Y-51362295D01*
X132014286Y-50562295D02*
X132280953Y-50981342D01*
X132280953Y-50981342D02*
X132547619Y-50562295D01*
X131290476Y-98600390D02*
X131214286Y-98562295D01*
X131214286Y-98562295D02*
X131100000Y-98562295D01*
X131100000Y-98562295D02*
X130985714Y-98600390D01*
X130985714Y-98600390D02*
X130909524Y-98676580D01*
X130909524Y-98676580D02*
X130871429Y-98752771D01*
X130871429Y-98752771D02*
X130833333Y-98905152D01*
X130833333Y-98905152D02*
X130833333Y-99019438D01*
X130833333Y-99019438D02*
X130871429Y-99171819D01*
X130871429Y-99171819D02*
X130909524Y-99248009D01*
X130909524Y-99248009D02*
X130985714Y-99324200D01*
X130985714Y-99324200D02*
X131100000Y-99362295D01*
X131100000Y-99362295D02*
X131176191Y-99362295D01*
X131176191Y-99362295D02*
X131290476Y-99324200D01*
X131290476Y-99324200D02*
X131328572Y-99286104D01*
X131328572Y-99286104D02*
X131328572Y-99019438D01*
X131328572Y-99019438D02*
X131176191Y-99019438D01*
X131671429Y-99362295D02*
X131671429Y-98562295D01*
X131671429Y-98562295D02*
X132128572Y-99362295D01*
X132128572Y-99362295D02*
X132128572Y-98562295D01*
X132509524Y-99362295D02*
X132509524Y-98562295D01*
X132509524Y-98562295D02*
X132700000Y-98562295D01*
X132700000Y-98562295D02*
X132814286Y-98600390D01*
X132814286Y-98600390D02*
X132890476Y-98676580D01*
X132890476Y-98676580D02*
X132928571Y-98752771D01*
X132928571Y-98752771D02*
X132966667Y-98905152D01*
X132966667Y-98905152D02*
X132966667Y-99019438D01*
X132966667Y-99019438D02*
X132928571Y-99171819D01*
X132928571Y-99171819D02*
X132890476Y-99248009D01*
X132890476Y-99248009D02*
X132814286Y-99324200D01*
X132814286Y-99324200D02*
X132700000Y-99362295D01*
X132700000Y-99362295D02*
X132509524Y-99362295D01*
X131328571Y-100638485D02*
X131366667Y-100600390D01*
X131366667Y-100600390D02*
X131442857Y-100562295D01*
X131442857Y-100562295D02*
X131633333Y-100562295D01*
X131633333Y-100562295D02*
X131709524Y-100600390D01*
X131709524Y-100600390D02*
X131747619Y-100638485D01*
X131747619Y-100638485D02*
X131785714Y-100714676D01*
X131785714Y-100714676D02*
X131785714Y-100790866D01*
X131785714Y-100790866D02*
X131747619Y-100905152D01*
X131747619Y-100905152D02*
X131290476Y-101362295D01*
X131290476Y-101362295D02*
X131785714Y-101362295D01*
X132280953Y-100981342D02*
X132280953Y-101362295D01*
X132014286Y-100562295D02*
X132280953Y-100981342D01*
X132280953Y-100981342D02*
X132547619Y-100562295D01*
X131290476Y-148600390D02*
X131214286Y-148562295D01*
X131214286Y-148562295D02*
X131100000Y-148562295D01*
X131100000Y-148562295D02*
X130985714Y-148600390D01*
X130985714Y-148600390D02*
X130909524Y-148676580D01*
X130909524Y-148676580D02*
X130871429Y-148752771D01*
X130871429Y-148752771D02*
X130833333Y-148905152D01*
X130833333Y-148905152D02*
X130833333Y-149019438D01*
X130833333Y-149019438D02*
X130871429Y-149171819D01*
X130871429Y-149171819D02*
X130909524Y-149248009D01*
X130909524Y-149248009D02*
X130985714Y-149324200D01*
X130985714Y-149324200D02*
X131100000Y-149362295D01*
X131100000Y-149362295D02*
X131176191Y-149362295D01*
X131176191Y-149362295D02*
X131290476Y-149324200D01*
X131290476Y-149324200D02*
X131328572Y-149286104D01*
X131328572Y-149286104D02*
X131328572Y-149019438D01*
X131328572Y-149019438D02*
X131176191Y-149019438D01*
X131671429Y-149362295D02*
X131671429Y-148562295D01*
X131671429Y-148562295D02*
X132128572Y-149362295D01*
X132128572Y-149362295D02*
X132128572Y-148562295D01*
X132509524Y-149362295D02*
X132509524Y-148562295D01*
X132509524Y-148562295D02*
X132700000Y-148562295D01*
X132700000Y-148562295D02*
X132814286Y-148600390D01*
X132814286Y-148600390D02*
X132890476Y-148676580D01*
X132890476Y-148676580D02*
X132928571Y-148752771D01*
X132928571Y-148752771D02*
X132966667Y-148905152D01*
X132966667Y-148905152D02*
X132966667Y-149019438D01*
X132966667Y-149019438D02*
X132928571Y-149171819D01*
X132928571Y-149171819D02*
X132890476Y-149248009D01*
X132890476Y-149248009D02*
X132814286Y-149324200D01*
X132814286Y-149324200D02*
X132700000Y-149362295D01*
X132700000Y-149362295D02*
X132509524Y-149362295D01*
X90333332Y-70332390D02*
X91399999Y-70332390D01*
X91399999Y-70332390D02*
X90714284Y-71932390D01*
X92695237Y-70865723D02*
X92695237Y-71932390D01*
X92314285Y-70256200D02*
X91933332Y-71399057D01*
X91933332Y-71399057D02*
X92923809Y-71399057D01*
X93380952Y-71932390D02*
X94219047Y-70865723D01*
X93380952Y-70865723D02*
X94219047Y-71932390D01*
X95133333Y-70332390D02*
X95285714Y-70332390D01*
X95285714Y-70332390D02*
X95438095Y-70408580D01*
X95438095Y-70408580D02*
X95514285Y-70484771D01*
X95514285Y-70484771D02*
X95590476Y-70637152D01*
X95590476Y-70637152D02*
X95666666Y-70941914D01*
X95666666Y-70941914D02*
X95666666Y-71322866D01*
X95666666Y-71322866D02*
X95590476Y-71627628D01*
X95590476Y-71627628D02*
X95514285Y-71780009D01*
X95514285Y-71780009D02*
X95438095Y-71856200D01*
X95438095Y-71856200D02*
X95285714Y-71932390D01*
X95285714Y-71932390D02*
X95133333Y-71932390D01*
X95133333Y-71932390D02*
X94980952Y-71856200D01*
X94980952Y-71856200D02*
X94904761Y-71780009D01*
X94904761Y-71780009D02*
X94828571Y-71627628D01*
X94828571Y-71627628D02*
X94752380Y-71322866D01*
X94752380Y-71322866D02*
X94752380Y-70941914D01*
X94752380Y-70941914D02*
X94828571Y-70637152D01*
X94828571Y-70637152D02*
X94904761Y-70484771D01*
X94904761Y-70484771D02*
X94980952Y-70408580D01*
X94980952Y-70408580D02*
X95133333Y-70332390D01*
X96657143Y-70332390D02*
X96809524Y-70332390D01*
X96809524Y-70332390D02*
X96961905Y-70408580D01*
X96961905Y-70408580D02*
X97038095Y-70484771D01*
X97038095Y-70484771D02*
X97114286Y-70637152D01*
X97114286Y-70637152D02*
X97190476Y-70941914D01*
X97190476Y-70941914D02*
X97190476Y-71322866D01*
X97190476Y-71322866D02*
X97114286Y-71627628D01*
X97114286Y-71627628D02*
X97038095Y-71780009D01*
X97038095Y-71780009D02*
X96961905Y-71856200D01*
X96961905Y-71856200D02*
X96809524Y-71932390D01*
X96809524Y-71932390D02*
X96657143Y-71932390D01*
X96657143Y-71932390D02*
X96504762Y-71856200D01*
X96504762Y-71856200D02*
X96428571Y-71780009D01*
X96428571Y-71780009D02*
X96352381Y-71627628D01*
X96352381Y-71627628D02*
X96276190Y-71322866D01*
X96276190Y-71322866D02*
X96276190Y-70941914D01*
X96276190Y-70941914D02*
X96352381Y-70637152D01*
X96352381Y-70637152D02*
X96428571Y-70484771D01*
X96428571Y-70484771D02*
X96504762Y-70408580D01*
X96504762Y-70408580D02*
X96657143Y-70332390D01*
X90333332Y-120332390D02*
X91399999Y-120332390D01*
X91399999Y-120332390D02*
X90714284Y-121932390D01*
X92695237Y-120865723D02*
X92695237Y-121932390D01*
X92314285Y-120256200D02*
X91933332Y-121399057D01*
X91933332Y-121399057D02*
X92923809Y-121399057D01*
X93380952Y-121932390D02*
X94219047Y-120865723D01*
X93380952Y-120865723D02*
X94219047Y-121932390D01*
X95666666Y-121932390D02*
X94752380Y-121932390D01*
X95209523Y-121932390D02*
X95209523Y-120332390D01*
X95209523Y-120332390D02*
X95057142Y-120560961D01*
X95057142Y-120560961D02*
X94904761Y-120713342D01*
X94904761Y-120713342D02*
X94752380Y-120789533D01*
X96657143Y-120332390D02*
X96809524Y-120332390D01*
X96809524Y-120332390D02*
X96961905Y-120408580D01*
X96961905Y-120408580D02*
X97038095Y-120484771D01*
X97038095Y-120484771D02*
X97114286Y-120637152D01*
X97114286Y-120637152D02*
X97190476Y-120941914D01*
X97190476Y-120941914D02*
X97190476Y-121322866D01*
X97190476Y-121322866D02*
X97114286Y-121627628D01*
X97114286Y-121627628D02*
X97038095Y-121780009D01*
X97038095Y-121780009D02*
X96961905Y-121856200D01*
X96961905Y-121856200D02*
X96809524Y-121932390D01*
X96809524Y-121932390D02*
X96657143Y-121932390D01*
X96657143Y-121932390D02*
X96504762Y-121856200D01*
X96504762Y-121856200D02*
X96428571Y-121780009D01*
X96428571Y-121780009D02*
X96352381Y-121627628D01*
X96352381Y-121627628D02*
X96276190Y-121322866D01*
X96276190Y-121322866D02*
X96276190Y-120941914D01*
X96276190Y-120941914D02*
X96352381Y-120637152D01*
X96352381Y-120637152D02*
X96428571Y-120484771D01*
X96428571Y-120484771D02*
X96504762Y-120408580D01*
X96504762Y-120408580D02*
X96657143Y-120332390D01*
X140333332Y-70332390D02*
X141399999Y-70332390D01*
X141399999Y-70332390D02*
X140714284Y-71932390D01*
X142695237Y-70865723D02*
X142695237Y-71932390D01*
X142314285Y-70256200D02*
X141933332Y-71399057D01*
X141933332Y-71399057D02*
X142923809Y-71399057D01*
X143380952Y-71932390D02*
X144219047Y-70865723D01*
X143380952Y-70865723D02*
X144219047Y-71932390D01*
X145133333Y-70332390D02*
X145285714Y-70332390D01*
X145285714Y-70332390D02*
X145438095Y-70408580D01*
X145438095Y-70408580D02*
X145514285Y-70484771D01*
X145514285Y-70484771D02*
X145590476Y-70637152D01*
X145590476Y-70637152D02*
X145666666Y-70941914D01*
X145666666Y-70941914D02*
X145666666Y-71322866D01*
X145666666Y-71322866D02*
X145590476Y-71627628D01*
X145590476Y-71627628D02*
X145514285Y-71780009D01*
X145514285Y-71780009D02*
X145438095Y-71856200D01*
X145438095Y-71856200D02*
X145285714Y-71932390D01*
X145285714Y-71932390D02*
X145133333Y-71932390D01*
X145133333Y-71932390D02*
X144980952Y-71856200D01*
X144980952Y-71856200D02*
X144904761Y-71780009D01*
X144904761Y-71780009D02*
X144828571Y-71627628D01*
X144828571Y-71627628D02*
X144752380Y-71322866D01*
X144752380Y-71322866D02*
X144752380Y-70941914D01*
X144752380Y-70941914D02*
X144828571Y-70637152D01*
X144828571Y-70637152D02*
X144904761Y-70484771D01*
X144904761Y-70484771D02*
X144980952Y-70408580D01*
X144980952Y-70408580D02*
X145133333Y-70332390D01*
X146580952Y-71018104D02*
X146428571Y-70941914D01*
X146428571Y-70941914D02*
X146352381Y-70865723D01*
X146352381Y-70865723D02*
X146276190Y-70713342D01*
X146276190Y-70713342D02*
X146276190Y-70637152D01*
X146276190Y-70637152D02*
X146352381Y-70484771D01*
X146352381Y-70484771D02*
X146428571Y-70408580D01*
X146428571Y-70408580D02*
X146580952Y-70332390D01*
X146580952Y-70332390D02*
X146885714Y-70332390D01*
X146885714Y-70332390D02*
X147038095Y-70408580D01*
X147038095Y-70408580D02*
X147114286Y-70484771D01*
X147114286Y-70484771D02*
X147190476Y-70637152D01*
X147190476Y-70637152D02*
X147190476Y-70713342D01*
X147190476Y-70713342D02*
X147114286Y-70865723D01*
X147114286Y-70865723D02*
X147038095Y-70941914D01*
X147038095Y-70941914D02*
X146885714Y-71018104D01*
X146885714Y-71018104D02*
X146580952Y-71018104D01*
X146580952Y-71018104D02*
X146428571Y-71094295D01*
X146428571Y-71094295D02*
X146352381Y-71170485D01*
X146352381Y-71170485D02*
X146276190Y-71322866D01*
X146276190Y-71322866D02*
X146276190Y-71627628D01*
X146276190Y-71627628D02*
X146352381Y-71780009D01*
X146352381Y-71780009D02*
X146428571Y-71856200D01*
X146428571Y-71856200D02*
X146580952Y-71932390D01*
X146580952Y-71932390D02*
X146885714Y-71932390D01*
X146885714Y-71932390D02*
X147038095Y-71856200D01*
X147038095Y-71856200D02*
X147114286Y-71780009D01*
X147114286Y-71780009D02*
X147190476Y-71627628D01*
X147190476Y-71627628D02*
X147190476Y-71322866D01*
X147190476Y-71322866D02*
X147114286Y-71170485D01*
X147114286Y-71170485D02*
X147038095Y-71094295D01*
X147038095Y-71094295D02*
X146885714Y-71018104D01*
X140333332Y-120332390D02*
X141399999Y-120332390D01*
X141399999Y-120332390D02*
X140714284Y-121932390D01*
X142695237Y-120865723D02*
X142695237Y-121932390D01*
X142314285Y-120256200D02*
X141933332Y-121399057D01*
X141933332Y-121399057D02*
X142923809Y-121399057D01*
X143380952Y-121932390D02*
X144219047Y-120865723D01*
X143380952Y-120865723D02*
X144219047Y-121932390D01*
X144752380Y-120484771D02*
X144828571Y-120408580D01*
X144828571Y-120408580D02*
X144980952Y-120332390D01*
X144980952Y-120332390D02*
X145361904Y-120332390D01*
X145361904Y-120332390D02*
X145514285Y-120408580D01*
X145514285Y-120408580D02*
X145590476Y-120484771D01*
X145590476Y-120484771D02*
X145666666Y-120637152D01*
X145666666Y-120637152D02*
X145666666Y-120789533D01*
X145666666Y-120789533D02*
X145590476Y-121018104D01*
X145590476Y-121018104D02*
X144676190Y-121932390D01*
X144676190Y-121932390D02*
X145666666Y-121932390D01*
X147190476Y-121932390D02*
X146276190Y-121932390D01*
X146733333Y-121932390D02*
X146733333Y-120332390D01*
X146733333Y-120332390D02*
X146580952Y-120560961D01*
X146580952Y-120560961D02*
X146428571Y-120713342D01*
X146428571Y-120713342D02*
X146276190Y-120789533D01*
%TO.C,D_R17*%
D11*
X119177500Y-114962742D02*
X119177500Y-115437258D01*
X120222500Y-114962742D02*
X120222500Y-115437258D01*
%TO.C,A_D8*%
X84165000Y-87100000D02*
X84165000Y-89385000D01*
X84165000Y-89385000D02*
X85635000Y-89385000D01*
X85635000Y-89385000D02*
X85635000Y-87100000D01*
%TO.C,A_R25*%
X72177500Y-85037258D02*
X72177500Y-84562742D01*
X73222500Y-85037258D02*
X73222500Y-84562742D01*
%TO.C,D_D9*%
X138764999Y-137100000D02*
X138764999Y-139385000D01*
X138764999Y-139385000D02*
X140234999Y-139385000D01*
X140234999Y-139385000D02*
X140234999Y-137100000D01*
%TO.C,B_R28*%
X135977500Y-85037258D02*
X135977500Y-84562742D01*
X137022500Y-85037258D02*
X137022500Y-84562742D01*
%TO.C,D_D3*%
X111165000Y-137100000D02*
X111165000Y-139385000D01*
X111165000Y-139385000D02*
X112635000Y-139385000D01*
X112635000Y-139385000D02*
X112635000Y-137100000D01*
%TO.C,C_D16*%
X73565000Y-110615000D02*
X73565000Y-112900000D01*
X75035000Y-110615000D02*
X73565000Y-110615000D01*
X75035000Y-112900000D02*
X75035000Y-110615000D01*
%TO.C,B_D17*%
X118965000Y-60615000D02*
X118965000Y-62900000D01*
X120435000Y-60615000D02*
X118965000Y-60615000D01*
X120435000Y-62900000D02*
X120435000Y-60615000D01*
%TO.C,B_R30*%
X145177500Y-85037258D02*
X145177500Y-84562742D01*
X146222500Y-85037258D02*
X146222500Y-84562742D01*
%TO.C,B_R11*%
X146777500Y-64962742D02*
X146777500Y-65437258D01*
X147822500Y-64962742D02*
X147822500Y-65437258D01*
%TO.C,D_R25*%
X122177500Y-135037258D02*
X122177500Y-134562742D01*
X123222500Y-135037258D02*
X123222500Y-134562742D01*
%TO.C,B_D14*%
X132765000Y-60615000D02*
X132765000Y-62900000D01*
X134235000Y-60615000D02*
X132765000Y-60615000D01*
X134235000Y-62900000D02*
X134235000Y-60615000D01*
%TO.C,B_D5*%
X120364999Y-87100000D02*
X120364999Y-89385000D01*
X120364999Y-89385000D02*
X121834999Y-89385000D01*
X121834999Y-89385000D02*
X121834999Y-87100000D01*
%TO.C,A_R21*%
X53777500Y-85037258D02*
X53777500Y-84562742D01*
X54822500Y-85037258D02*
X54822500Y-84562742D01*
%TO.C,C_D17*%
X68965000Y-110615000D02*
X68965000Y-112900000D01*
X70435000Y-110615000D02*
X68965000Y-110615000D01*
X70435000Y-112900000D02*
X70435000Y-110615000D01*
%TO.C,C_R8*%
X84377500Y-135037258D02*
X84377500Y-134562742D01*
X85422500Y-135037258D02*
X85422500Y-134562742D01*
%TO.C,D_D2*%
X106565000Y-137100000D02*
X106565000Y-139385000D01*
X106565000Y-139385000D02*
X108035000Y-139385000D01*
X108035000Y-139385000D02*
X108035000Y-137100000D01*
%TO.C,D_D14*%
X132765000Y-110615000D02*
X132765000Y-112900000D01*
X134235000Y-110615000D02*
X132765000Y-110615000D01*
X134235000Y-112900000D02*
X134235000Y-110615000D01*
%TO.C,D_R36*%
X122177500Y-114962742D02*
X122177500Y-115437258D01*
X123222500Y-114962742D02*
X123222500Y-115437258D01*
%TO.C,D_R34*%
X131377500Y-114962742D02*
X131377500Y-115437258D01*
X132422500Y-114962742D02*
X132422500Y-115437258D01*
%TO.C,B_D2*%
X106565000Y-87100000D02*
X106565000Y-89385000D01*
X106565000Y-89385000D02*
X108035000Y-89385000D01*
X108035000Y-89385000D02*
X108035000Y-87100000D01*
%TO.C,D_D11*%
X146565000Y-110615000D02*
X146565000Y-112900000D01*
X148035000Y-110615000D02*
X146565000Y-110615000D01*
X148035000Y-112900000D02*
X148035000Y-110615000D01*
%TO.C,B_R19*%
X109977500Y-64962742D02*
X109977500Y-65437258D01*
X111022500Y-64962742D02*
X111022500Y-65437258D01*
%TO.C,A_R36*%
X72177500Y-64962742D02*
X72177500Y-65437258D01*
X73222500Y-64962742D02*
X73222500Y-65437258D01*
%TO.C,B_D15*%
X128165000Y-60615000D02*
X128165000Y-62900000D01*
X129635000Y-60615000D02*
X128165000Y-60615000D01*
X129635000Y-62900000D02*
X129635000Y-60615000D01*
%TO.C,D_R24*%
X117577500Y-135037258D02*
X117577500Y-134562742D01*
X118622500Y-135037258D02*
X118622500Y-134562742D01*
%TO.C,C_R4*%
X65977500Y-135037258D02*
X65977500Y-134562742D01*
X67022500Y-135037258D02*
X67022500Y-134562742D01*
%TO.C,C_R26*%
X76777500Y-135037258D02*
X76777500Y-134562742D01*
X77822500Y-135037258D02*
X77822500Y-134562742D01*
%TO.C,B_C1*%
X110690000Y-74859420D02*
X110690000Y-75140580D01*
X111710000Y-74859420D02*
X111710000Y-75140580D01*
%TO.C,A_D10*%
X93365000Y-87100000D02*
X93365000Y-89385000D01*
X93365000Y-89385000D02*
X94835000Y-89385000D01*
X94835000Y-89385000D02*
X94835000Y-87100000D01*
%TO.C,A_D2*%
X56565000Y-87100000D02*
X56565000Y-89385000D01*
X56565000Y-89385000D02*
X58035000Y-89385000D01*
X58035000Y-89385000D02*
X58035000Y-87100000D01*
%TO.C,D_R2*%
X106777500Y-135037258D02*
X106777500Y-134562742D01*
X107822500Y-135037258D02*
X107822500Y-134562742D01*
%TO.C,B_D13*%
X137365000Y-60615000D02*
X137365000Y-62900000D01*
X138835000Y-60615000D02*
X137365000Y-60615000D01*
X138835000Y-62900000D02*
X138835000Y-60615000D01*
%TO.C,C_R16*%
X73777500Y-114962742D02*
X73777500Y-115437258D01*
X74822500Y-114962742D02*
X74822500Y-115437258D01*
%TO.C,C_D3*%
X61165000Y-137100000D02*
X61165000Y-139385000D01*
X61165000Y-139385000D02*
X62635000Y-139385000D01*
X62635000Y-139385000D02*
X62635000Y-137100000D01*
%TO.C,C_D5*%
X70364999Y-137100000D02*
X70364999Y-139385000D01*
X70364999Y-139385000D02*
X71834999Y-139385000D01*
X71834999Y-139385000D02*
X71834999Y-137100000D01*
%TO.C,A_U1*%
X62240000Y-72350000D02*
X62240000Y-74000000D01*
X62240000Y-76000000D02*
X62240000Y-77650000D01*
X62240000Y-77650000D02*
X87760000Y-77650000D01*
X87760000Y-72350000D02*
X62240000Y-72350000D01*
X87760000Y-77650000D02*
X87760000Y-72350000D01*
X62180000Y-69860000D02*
X87820000Y-69860000D01*
X87820000Y-80140000D01*
X62180000Y-80140000D01*
X62180000Y-69860000D01*
X62240000Y-74000000D02*
G75*
G02*
X62240000Y-76000000I0J-1000000D01*
G01*
%TO.C,D_R13*%
X137577500Y-114962742D02*
X137577500Y-115437258D01*
X138622500Y-114962742D02*
X138622500Y-115437258D01*
%TO.C,A_R34*%
X81377500Y-64962742D02*
X81377500Y-65437258D01*
X82422500Y-64962742D02*
X82422500Y-65437258D01*
%TO.C,A_D13*%
X87365000Y-60615000D02*
X87365000Y-62900000D01*
X88835000Y-60615000D02*
X87365000Y-60615000D01*
X88835000Y-62900000D02*
X88835000Y-60615000D01*
%TO.C,A_R35*%
X76777500Y-64962742D02*
X76777500Y-65437258D01*
X77822500Y-64962742D02*
X77822500Y-65437258D01*
%TO.C,A_R4*%
X65977500Y-85037258D02*
X65977500Y-84562742D01*
X67022500Y-85037258D02*
X67022500Y-84562742D01*
%TO.C,C_R17*%
X69177500Y-114962742D02*
X69177500Y-115437258D01*
X70222500Y-114962742D02*
X70222500Y-115437258D01*
%TO.C,B_R25*%
X122177500Y-85037258D02*
X122177500Y-84562742D01*
X123222500Y-85037258D02*
X123222500Y-84562742D01*
%TO.C,A_R10*%
X93577500Y-85037258D02*
X93577500Y-84562742D01*
X94622500Y-85037258D02*
X94622500Y-84562742D01*
%TO.C,C_R25*%
X72177500Y-135037258D02*
X72177500Y-134562742D01*
X73222500Y-135037258D02*
X73222500Y-134562742D01*
%TO.C,C_R32*%
X90577499Y-114962742D02*
X90577499Y-115437258D01*
X91622499Y-114962742D02*
X91622499Y-115437258D01*
%TO.C,D_R33*%
X135977500Y-114962742D02*
X135977500Y-115437258D01*
X137022500Y-114962742D02*
X137022500Y-115437258D01*
%TO.C,B_D1*%
X101965000Y-87100000D02*
X101965000Y-89385000D01*
X101965000Y-89385000D02*
X103435000Y-89385000D01*
X103435000Y-89385000D02*
X103435000Y-87100000D01*
%TO.C,B_U1*%
X112240000Y-72350000D02*
X112240000Y-74000000D01*
X112240000Y-76000000D02*
X112240000Y-77650000D01*
X112240000Y-77650000D02*
X137760000Y-77650000D01*
X137760000Y-72350000D02*
X112240000Y-72350000D01*
X137760000Y-77650000D02*
X137760000Y-72350000D01*
X112180000Y-69860000D02*
X137820000Y-69860000D01*
X137820000Y-80140000D01*
X112180000Y-80140000D01*
X112180000Y-69860000D01*
X112240000Y-74000000D02*
G75*
G02*
X112240000Y-76000000I0J-1000000D01*
G01*
%TO.C,A_D9*%
X88764999Y-87100000D02*
X88764999Y-89385000D01*
X88764999Y-89385000D02*
X90234999Y-89385000D01*
X90234999Y-89385000D02*
X90234999Y-87100000D01*
%TO.C,B_D18*%
X114365000Y-60615000D02*
X114365000Y-62900000D01*
X115835000Y-60615000D02*
X114365000Y-60615000D01*
X115835000Y-62900000D02*
X115835000Y-60615000D01*
%TO.C,D_U1*%
X112240000Y-122350000D02*
X112240000Y-124000000D01*
X112240000Y-126000000D02*
X112240000Y-127650000D01*
X112240000Y-127650000D02*
X137760000Y-127650000D01*
X137760000Y-122350000D02*
X112240000Y-122350000D01*
X137760000Y-127650000D02*
X137760000Y-122350000D01*
X112180000Y-119860000D02*
X137820000Y-119860000D01*
X137820000Y-130140000D01*
X112180000Y-130140000D01*
X112180000Y-119860000D01*
X112240000Y-124000000D02*
G75*
G02*
X112240000Y-126000000I0J-1000000D01*
G01*
%TO.C,B_R4*%
X115977500Y-85037258D02*
X115977500Y-84562742D01*
X117022500Y-85037258D02*
X117022500Y-84562742D01*
%TO.C,C_D10*%
X93365000Y-137100000D02*
X93365000Y-139385000D01*
X93365000Y-139385000D02*
X94835000Y-139385000D01*
X94835000Y-139385000D02*
X94835000Y-137100000D01*
%TO.C,B_R24*%
X117577500Y-85037258D02*
X117577500Y-84562742D01*
X118622500Y-85037258D02*
X118622500Y-84562742D01*
%TO.C,A_R17*%
X69177500Y-64962742D02*
X69177500Y-65437258D01*
X70222500Y-64962742D02*
X70222500Y-65437258D01*
%TO.C,C_R36*%
X72177500Y-114962742D02*
X72177500Y-115437258D01*
X73222500Y-114962742D02*
X73222500Y-115437258D01*
%TO.C,A_D3*%
X61165000Y-87100000D02*
X61165000Y-89385000D01*
X61165000Y-89385000D02*
X62635000Y-89385000D01*
X62635000Y-89385000D02*
X62635000Y-87100000D01*
%TO.C,C_D13*%
X87365000Y-110615000D02*
X87365000Y-112900000D01*
X88835000Y-110615000D02*
X87365000Y-110615000D01*
X88835000Y-112900000D02*
X88835000Y-110615000D01*
%TO.C,B_D11*%
X146565000Y-60615000D02*
X146565000Y-62900000D01*
X148035000Y-60615000D02*
X146565000Y-60615000D01*
X148035000Y-62900000D02*
X148035000Y-60615000D01*
%TO.C,A_D5*%
X70364999Y-87100000D02*
X70364999Y-89385000D01*
X70364999Y-89385000D02*
X71834999Y-89385000D01*
X71834999Y-89385000D02*
X71834999Y-87100000D01*
%TO.C,D_R6*%
X125177500Y-135037258D02*
X125177500Y-134562742D01*
X126222500Y-135037258D02*
X126222500Y-134562742D01*
%TO.C,D_R23*%
X112977500Y-135037258D02*
X112977500Y-134562742D01*
X114022500Y-135037258D02*
X114022500Y-134562742D01*
%TO.C,C_R33*%
X85977500Y-114962742D02*
X85977500Y-115437258D01*
X87022500Y-114962742D02*
X87022500Y-115437258D01*
%TO.C,A_R6*%
X75177500Y-85037258D02*
X75177500Y-84562742D01*
X76222500Y-85037258D02*
X76222500Y-84562742D01*
%TO.C,A_D11*%
X96565000Y-60615000D02*
X96565000Y-62900000D01*
X98035000Y-60615000D02*
X96565000Y-60615000D01*
X98035000Y-62900000D02*
X98035000Y-60615000D01*
%TO.C,A_R2*%
X56777500Y-85037258D02*
X56777500Y-84562742D01*
X57822500Y-85037258D02*
X57822500Y-84562742D01*
%TO.C,D_R8*%
X134377500Y-135037258D02*
X134377500Y-134562742D01*
X135422500Y-135037258D02*
X135422500Y-134562742D01*
%TO.C,A_R38*%
X62977500Y-64962742D02*
X62977500Y-65437258D01*
X64022500Y-64962742D02*
X64022500Y-65437258D01*
%TO.C,D_D6*%
X124965000Y-137100000D02*
X124965000Y-139385000D01*
X124965000Y-139385000D02*
X126435000Y-139385000D01*
X126435000Y-139385000D02*
X126435000Y-137100000D01*
%TO.C,C_U1*%
X62240000Y-122350000D02*
X62240000Y-124000000D01*
X62240000Y-126000000D02*
X62240000Y-127650000D01*
X62240000Y-127650000D02*
X87760000Y-127650000D01*
X87760000Y-122350000D02*
X62240000Y-122350000D01*
X87760000Y-127650000D02*
X87760000Y-122350000D01*
X62180000Y-119860000D02*
X87820000Y-119860000D01*
X87820000Y-130140000D01*
X62180000Y-130140000D01*
X62180000Y-119860000D01*
X62240000Y-124000000D02*
G75*
G02*
X62240000Y-126000000I0J-1000000D01*
G01*
%TO.C,A_R13*%
X87577500Y-64962742D02*
X87577500Y-65437258D01*
X88622500Y-64962742D02*
X88622500Y-65437258D01*
%TO.C,C_R13*%
X87577500Y-114962742D02*
X87577500Y-115437258D01*
X88622500Y-114962742D02*
X88622500Y-115437258D01*
%TO.C,A_R37*%
X67577500Y-64962742D02*
X67577500Y-65437258D01*
X68622500Y-64962742D02*
X68622500Y-65437258D01*
%TO.C,D_R18*%
X114577500Y-114962742D02*
X114577500Y-115437258D01*
X115622500Y-114962742D02*
X115622500Y-115437258D01*
%TO.C,D_R39*%
X108377500Y-114962742D02*
X108377500Y-115437258D01*
X109422500Y-114962742D02*
X109422500Y-115437258D01*
%TO.C,B_R1*%
X102177500Y-85037258D02*
X102177500Y-84562742D01*
X103222500Y-85037258D02*
X103222500Y-84562742D01*
%TO.C,D_D10*%
X143365000Y-137100000D02*
X143365000Y-139385000D01*
X143365000Y-139385000D02*
X144835000Y-139385000D01*
X144835000Y-139385000D02*
X144835000Y-137100000D01*
%TO.C,A_D1*%
X51965000Y-87100000D02*
X51965000Y-89385000D01*
X51965000Y-89385000D02*
X53435000Y-89385000D01*
X53435000Y-89385000D02*
X53435000Y-87100000D01*
%TO.C,D_D19*%
X109765000Y-110615000D02*
X109765000Y-112900000D01*
X111235000Y-110615000D02*
X109765000Y-110615000D01*
X111235000Y-112900000D02*
X111235000Y-110615000D01*
%TO.C,A_D19*%
X59765000Y-60615000D02*
X59765000Y-62900000D01*
X61235000Y-60615000D02*
X59765000Y-60615000D01*
X61235000Y-62900000D02*
X61235000Y-60615000D01*
%TO.C,D_D13*%
X137365000Y-110615000D02*
X137365000Y-112900000D01*
X138835000Y-110615000D02*
X137365000Y-110615000D01*
X138835000Y-112900000D02*
X138835000Y-110615000D01*
%TO.C,D_R9*%
X138977499Y-135037258D02*
X138977499Y-134562742D01*
X140022499Y-135037258D02*
X140022499Y-134562742D01*
%TO.C,A_R11*%
X96777500Y-64962742D02*
X96777500Y-65437258D01*
X97822500Y-64962742D02*
X97822500Y-65437258D01*
%TO.C,A_J1*%
X56920000Y-72795000D02*
X58300000Y-72795000D01*
X56920000Y-74175000D02*
X56920000Y-72795000D01*
X56920000Y-75445000D02*
X56920000Y-78095000D01*
X56920000Y-75445000D02*
X59680000Y-75445000D01*
X56920000Y-78095000D02*
X59680000Y-78095000D01*
X59680000Y-75445000D02*
X59680000Y-78095000D01*
%TO.C,D_R30*%
X145177500Y-135037258D02*
X145177500Y-134562742D01*
X146222500Y-135037258D02*
X146222500Y-134562742D01*
%TO.C,C_D14*%
X82765000Y-110615000D02*
X82765000Y-112900000D01*
X84235000Y-110615000D02*
X82765000Y-110615000D01*
X84235000Y-112900000D02*
X84235000Y-110615000D01*
%TO.C,C_D1*%
X51965000Y-137100000D02*
X51965000Y-139385000D01*
X51965000Y-139385000D02*
X53435000Y-139385000D01*
X53435000Y-139385000D02*
X53435000Y-137100000D01*
%TO.C,B_R14*%
X132977500Y-64962742D02*
X132977500Y-65437258D01*
X134022500Y-64962742D02*
X134022500Y-65437258D01*
%TO.C,D_D15*%
X128165000Y-110615000D02*
X128165000Y-112900000D01*
X129635000Y-110615000D02*
X128165000Y-110615000D01*
X129635000Y-112900000D02*
X129635000Y-110615000D01*
%TO.C,C_R22*%
X58377500Y-135037258D02*
X58377500Y-134562742D01*
X59422500Y-135037258D02*
X59422500Y-134562742D01*
%TO.C,A_R31*%
X95177500Y-64962742D02*
X95177500Y-65437258D01*
X96222500Y-64962742D02*
X96222500Y-65437258D01*
%TO.C,B_D19*%
X109765000Y-60615000D02*
X109765000Y-62900000D01*
X111235000Y-60615000D02*
X109765000Y-60615000D01*
X111235000Y-62900000D02*
X111235000Y-60615000D01*
%TO.C,B_J1*%
X106920000Y-72795000D02*
X108300000Y-72795000D01*
X106920000Y-74175000D02*
X106920000Y-72795000D01*
X106920000Y-75445000D02*
X106920000Y-78095000D01*
X106920000Y-75445000D02*
X109680000Y-75445000D01*
X106920000Y-78095000D02*
X109680000Y-78095000D01*
X109680000Y-75445000D02*
X109680000Y-78095000D01*
%TO.C,D_D12*%
X141964999Y-110615000D02*
X141964999Y-112900000D01*
X143434999Y-110615000D02*
X141964999Y-110615000D01*
X143434999Y-112900000D02*
X143434999Y-110615000D01*
%TO.C,D_D1*%
X101965000Y-137100000D02*
X101965000Y-139385000D01*
X101965000Y-139385000D02*
X103435000Y-139385000D01*
X103435000Y-139385000D02*
X103435000Y-137100000D01*
%TO.C,A_R30*%
X95177500Y-85037258D02*
X95177500Y-84562742D01*
X96222500Y-85037258D02*
X96222500Y-84562742D01*
%TO.C,C_R3*%
X61377500Y-135037258D02*
X61377500Y-134562742D01*
X62422500Y-135037258D02*
X62422500Y-134562742D01*
%TO.C,D_R28*%
X135977500Y-135037258D02*
X135977500Y-134562742D01*
X137022500Y-135037258D02*
X137022500Y-134562742D01*
%TO.C,C_R35*%
X76777500Y-114962742D02*
X76777500Y-115437258D01*
X77822500Y-114962742D02*
X77822500Y-115437258D01*
%TO.C,A_R22*%
X58377500Y-85037258D02*
X58377500Y-84562742D01*
X59422500Y-85037258D02*
X59422500Y-84562742D01*
%TO.C,D_D5*%
X120364999Y-137100000D02*
X120364999Y-139385000D01*
X120364999Y-139385000D02*
X121834999Y-139385000D01*
X121834999Y-139385000D02*
X121834999Y-137100000D01*
%TO.C,A_R32*%
X90577499Y-64962742D02*
X90577499Y-65437258D01*
X91622499Y-64962742D02*
X91622499Y-65437258D01*
%TO.C,B_R12*%
X142177499Y-64962742D02*
X142177499Y-65437258D01*
X143222499Y-64962742D02*
X143222499Y-65437258D01*
%TO.C,A_R14*%
X82977500Y-64962742D02*
X82977500Y-65437258D01*
X84022500Y-64962742D02*
X84022500Y-65437258D01*
%TO.C,A_R24*%
X67577500Y-85037258D02*
X67577500Y-84562742D01*
X68622500Y-85037258D02*
X68622500Y-84562742D01*
%TO.C,D_R3*%
X111377500Y-135037258D02*
X111377500Y-134562742D01*
X112422500Y-135037258D02*
X112422500Y-134562742D01*
%TO.C,B_R10*%
X143577500Y-85037258D02*
X143577500Y-84562742D01*
X144622500Y-85037258D02*
X144622500Y-84562742D01*
%TO.C,A_R3*%
X61377500Y-85037258D02*
X61377500Y-84562742D01*
X62422500Y-85037258D02*
X62422500Y-84562742D01*
%TO.C,A_R39*%
X58377500Y-64962742D02*
X58377500Y-65437258D01*
X59422500Y-64962742D02*
X59422500Y-65437258D01*
%TO.C,D_D17*%
X118965000Y-110615000D02*
X118965000Y-112900000D01*
X120435000Y-110615000D02*
X118965000Y-110615000D01*
X120435000Y-112900000D02*
X120435000Y-110615000D01*
%TO.C,A_R33*%
X85977500Y-64962742D02*
X85977500Y-65437258D01*
X87022500Y-64962742D02*
X87022500Y-65437258D01*
%TO.C,C_R15*%
X78377500Y-114962742D02*
X78377500Y-115437258D01*
X79422500Y-114962742D02*
X79422500Y-115437258D01*
%TO.C,A_C1*%
X60690000Y-74859420D02*
X60690000Y-75140580D01*
X61710000Y-74859420D02*
X61710000Y-75140580D01*
%TO.C,C_D18*%
X64365000Y-110615000D02*
X64365000Y-112900000D01*
X65835000Y-110615000D02*
X64365000Y-110615000D01*
X65835000Y-112900000D02*
X65835000Y-110615000D01*
%TO.C,D_R31*%
X145177500Y-114962742D02*
X145177500Y-115437258D01*
X146222500Y-114962742D02*
X146222500Y-115437258D01*
%TO.C,A_D12*%
X91964999Y-60615000D02*
X91964999Y-62900000D01*
X93434999Y-60615000D02*
X91964999Y-60615000D01*
X93434999Y-62900000D02*
X93434999Y-60615000D01*
%TO.C,D_D16*%
X123565000Y-110615000D02*
X123565000Y-112900000D01*
X125035000Y-110615000D02*
X123565000Y-110615000D01*
X125035000Y-112900000D02*
X125035000Y-110615000D01*
%TO.C,D_R38*%
X112977500Y-114962742D02*
X112977500Y-115437258D01*
X114022500Y-114962742D02*
X114022500Y-115437258D01*
%TO.C,B_R37*%
X117577500Y-64962742D02*
X117577500Y-65437258D01*
X118622500Y-64962742D02*
X118622500Y-65437258D01*
%TO.C,B_R22*%
X108377500Y-85037258D02*
X108377500Y-84562742D01*
X109422500Y-85037258D02*
X109422500Y-84562742D01*
%TO.C,C_R9*%
X88977499Y-135037258D02*
X88977499Y-134562742D01*
X90022499Y-135037258D02*
X90022499Y-134562742D01*
%TO.C,B_R9*%
X138977499Y-85037258D02*
X138977499Y-84562742D01*
X140022499Y-85037258D02*
X140022499Y-84562742D01*
%TO.C,C_D12*%
X91964999Y-110615000D02*
X91964999Y-112900000D01*
X93434999Y-110615000D02*
X91964999Y-110615000D01*
X93434999Y-112900000D02*
X93434999Y-110615000D01*
%TO.C,C_R5*%
X70577499Y-135037258D02*
X70577499Y-134562742D01*
X71622499Y-135037258D02*
X71622499Y-134562742D01*
%TO.C,B_R5*%
X120577499Y-85037258D02*
X120577499Y-84562742D01*
X121622499Y-85037258D02*
X121622499Y-84562742D01*
%TO.C,C_R12*%
X92177499Y-114962742D02*
X92177499Y-115437258D01*
X93222499Y-114962742D02*
X93222499Y-115437258D01*
%TO.C,C_D2*%
X56565000Y-137100000D02*
X56565000Y-139385000D01*
X56565000Y-139385000D02*
X58035000Y-139385000D01*
X58035000Y-139385000D02*
X58035000Y-137100000D01*
%TO.C,C_D6*%
X74965000Y-137100000D02*
X74965000Y-139385000D01*
X74965000Y-139385000D02*
X76435000Y-139385000D01*
X76435000Y-139385000D02*
X76435000Y-137100000D01*
%TO.C,C_R1*%
X52177500Y-135037258D02*
X52177500Y-134562742D01*
X53222500Y-135037258D02*
X53222500Y-134562742D01*
%TO.C,B_D9*%
X138764999Y-87100000D02*
X138764999Y-89385000D01*
X138764999Y-89385000D02*
X140234999Y-89385000D01*
X140234999Y-89385000D02*
X140234999Y-87100000D01*
%TO.C,B_R8*%
X134377500Y-85037258D02*
X134377500Y-84562742D01*
X135422500Y-85037258D02*
X135422500Y-84562742D01*
%TO.C,B_R23*%
X112977500Y-85037258D02*
X112977500Y-84562742D01*
X114022500Y-85037258D02*
X114022500Y-84562742D01*
%TO.C,C_R28*%
X85977500Y-135037258D02*
X85977500Y-134562742D01*
X87022500Y-135037258D02*
X87022500Y-134562742D01*
%TO.C,C_R31*%
X95177500Y-114962742D02*
X95177500Y-115437258D01*
X96222500Y-114962742D02*
X96222500Y-115437258D01*
%TO.C,A_R8*%
X84377500Y-85037258D02*
X84377500Y-84562742D01*
X85422500Y-85037258D02*
X85422500Y-84562742D01*
%TO.C,A_R15*%
X78377500Y-64962742D02*
X78377500Y-65437258D01*
X79422500Y-64962742D02*
X79422500Y-65437258D01*
%TO.C,D_R16*%
X123777500Y-114962742D02*
X123777500Y-115437258D01*
X124822500Y-114962742D02*
X124822500Y-115437258D01*
%TO.C,D_R10*%
X143577500Y-135037258D02*
X143577500Y-134562742D01*
X144622500Y-135037258D02*
X144622500Y-134562742D01*
%TO.C,C_D4*%
X65765000Y-137100000D02*
X65765000Y-139385000D01*
X65765000Y-139385000D02*
X67235000Y-139385000D01*
X67235000Y-139385000D02*
X67235000Y-137100000D01*
%TO.C,C_R6*%
X75177500Y-135037258D02*
X75177500Y-134562742D01*
X76222500Y-135037258D02*
X76222500Y-134562742D01*
%TO.C,B_D16*%
X123565000Y-60615000D02*
X123565000Y-62900000D01*
X125035000Y-60615000D02*
X123565000Y-60615000D01*
X125035000Y-62900000D02*
X125035000Y-60615000D01*
%TO.C,C_R24*%
X67577500Y-135037258D02*
X67577500Y-134562742D01*
X68622500Y-135037258D02*
X68622500Y-134562742D01*
%TO.C,C_D19*%
X59765000Y-110615000D02*
X59765000Y-112900000D01*
X61235000Y-110615000D02*
X59765000Y-110615000D01*
X61235000Y-112900000D02*
X61235000Y-110615000D01*
%TO.C,B_D4*%
X115765000Y-87100000D02*
X115765000Y-89385000D01*
X115765000Y-89385000D02*
X117235000Y-89385000D01*
X117235000Y-89385000D02*
X117235000Y-87100000D01*
%TO.C,B_R31*%
X145177500Y-64962742D02*
X145177500Y-65437258D01*
X146222500Y-64962742D02*
X146222500Y-65437258D01*
%TO.C,B_D3*%
X111165000Y-87100000D02*
X111165000Y-89385000D01*
X111165000Y-89385000D02*
X112635000Y-89385000D01*
X112635000Y-89385000D02*
X112635000Y-87100000D01*
%TO.C,B_R34*%
X131377500Y-64962742D02*
X131377500Y-65437258D01*
X132422500Y-64962742D02*
X132422500Y-65437258D01*
%TO.C,D_D4*%
X115765000Y-137100000D02*
X115765000Y-139385000D01*
X115765000Y-139385000D02*
X117235000Y-139385000D01*
X117235000Y-139385000D02*
X117235000Y-137100000D01*
%TO.C,A_D16*%
X73565000Y-60615000D02*
X73565000Y-62900000D01*
X75035000Y-60615000D02*
X73565000Y-60615000D01*
X75035000Y-62900000D02*
X75035000Y-60615000D01*
%TO.C,B_R15*%
X128377500Y-64962742D02*
X128377500Y-65437258D01*
X129422500Y-64962742D02*
X129422500Y-65437258D01*
%TO.C,B_R16*%
X123777500Y-64962742D02*
X123777500Y-65437258D01*
X124822500Y-64962742D02*
X124822500Y-65437258D01*
%TO.C,B_R17*%
X119177500Y-64962742D02*
X119177500Y-65437258D01*
X120222500Y-64962742D02*
X120222500Y-65437258D01*
%TO.C,D_R26*%
X126777500Y-135037258D02*
X126777500Y-134562742D01*
X127822500Y-135037258D02*
X127822500Y-134562742D01*
%TO.C,B_R33*%
X135977500Y-64962742D02*
X135977500Y-65437258D01*
X137022500Y-64962742D02*
X137022500Y-65437258D01*
%TO.C,B_D10*%
X143365000Y-87100000D02*
X143365000Y-89385000D01*
X143365000Y-89385000D02*
X144835000Y-89385000D01*
X144835000Y-89385000D02*
X144835000Y-87100000D01*
%TO.C,A_D6*%
X74965000Y-87100000D02*
X74965000Y-89385000D01*
X74965000Y-89385000D02*
X76435000Y-89385000D01*
X76435000Y-89385000D02*
X76435000Y-87100000D01*
%TO.C,C_R34*%
X81377500Y-114962742D02*
X81377500Y-115437258D01*
X82422500Y-114962742D02*
X82422500Y-115437258D01*
%TO.C,A_D15*%
X78165000Y-60615000D02*
X78165000Y-62900000D01*
X79635000Y-60615000D02*
X78165000Y-60615000D01*
X79635000Y-62900000D02*
X79635000Y-60615000D01*
%TO.C,D_R19*%
X109977500Y-114962742D02*
X109977500Y-115437258D01*
X111022500Y-114962742D02*
X111022500Y-115437258D01*
%TO.C,A_D4*%
X65765000Y-87100000D02*
X65765000Y-89385000D01*
X65765000Y-89385000D02*
X67235000Y-89385000D01*
X67235000Y-89385000D02*
X67235000Y-87100000D01*
%TO.C,A_R28*%
X85977500Y-85037258D02*
X85977500Y-84562742D01*
X87022500Y-85037258D02*
X87022500Y-84562742D01*
%TO.C,C_D9*%
X88764999Y-137100000D02*
X88764999Y-139385000D01*
X88764999Y-139385000D02*
X90234999Y-139385000D01*
X90234999Y-139385000D02*
X90234999Y-137100000D01*
%TO.C,D_R12*%
X142177499Y-114962742D02*
X142177499Y-115437258D01*
X143222499Y-114962742D02*
X143222499Y-115437258D01*
%TO.C,C_R21*%
X53777500Y-135037258D02*
X53777500Y-134562742D01*
X54822500Y-135037258D02*
X54822500Y-134562742D01*
%TO.C,A_D18*%
X64365000Y-60615000D02*
X64365000Y-62900000D01*
X65835000Y-60615000D02*
X64365000Y-60615000D01*
X65835000Y-62900000D02*
X65835000Y-60615000D01*
%TO.C,D_R21*%
X103777500Y-135037258D02*
X103777500Y-134562742D01*
X104822500Y-135037258D02*
X104822500Y-134562742D01*
%TO.C,C_R10*%
X93577500Y-135037258D02*
X93577500Y-134562742D01*
X94622500Y-135037258D02*
X94622500Y-134562742D01*
%TO.C,B_R2*%
X106777500Y-85037258D02*
X106777500Y-84562742D01*
X107822500Y-85037258D02*
X107822500Y-84562742D01*
%TO.C,C_R29*%
X90577499Y-135037258D02*
X90577499Y-134562742D01*
X91622499Y-135037258D02*
X91622499Y-134562742D01*
%TO.C,C_D8*%
X84165000Y-137100000D02*
X84165000Y-139385000D01*
X84165000Y-139385000D02*
X85635000Y-139385000D01*
X85635000Y-139385000D02*
X85635000Y-137100000D01*
%TO.C,D_R15*%
X128377500Y-114962742D02*
X128377500Y-115437258D01*
X129422500Y-114962742D02*
X129422500Y-115437258D01*
%TO.C,C_R39*%
X58377500Y-114962742D02*
X58377500Y-115437258D01*
X59422500Y-114962742D02*
X59422500Y-115437258D01*
%TO.C,C_C1*%
X60690000Y-124859420D02*
X60690000Y-125140580D01*
X61710000Y-124859420D02*
X61710000Y-125140580D01*
%TO.C,D_C1*%
X110690000Y-124859420D02*
X110690000Y-125140580D01*
X111710000Y-124859420D02*
X111710000Y-125140580D01*
%TO.C,B_D6*%
X124965000Y-87100000D02*
X124965000Y-89385000D01*
X124965000Y-89385000D02*
X126435000Y-89385000D01*
X126435000Y-89385000D02*
X126435000Y-87100000D01*
%TO.C,D_R14*%
X132977500Y-114962742D02*
X132977500Y-115437258D01*
X134022500Y-114962742D02*
X134022500Y-115437258D01*
%TO.C,B_R38*%
X112977500Y-64962742D02*
X112977500Y-65437258D01*
X114022500Y-64962742D02*
X114022500Y-65437258D01*
%TO.C,A_D17*%
X68965000Y-60615000D02*
X68965000Y-62900000D01*
X70435000Y-60615000D02*
X68965000Y-60615000D01*
X70435000Y-62900000D02*
X70435000Y-60615000D01*
%TO.C,D_R29*%
X140577499Y-135037258D02*
X140577499Y-134562742D01*
X141622499Y-135037258D02*
X141622499Y-134562742D01*
%TO.C,D_J1*%
X106920000Y-122795000D02*
X108300000Y-122795000D01*
X106920000Y-124175000D02*
X106920000Y-122795000D01*
X106920000Y-125445000D02*
X106920000Y-128095000D01*
X106920000Y-125445000D02*
X109680000Y-125445000D01*
X106920000Y-128095000D02*
X109680000Y-128095000D01*
X109680000Y-125445000D02*
X109680000Y-128095000D01*
%TO.C,C_D11*%
X96565000Y-110615000D02*
X96565000Y-112900000D01*
X98035000Y-110615000D02*
X96565000Y-110615000D01*
X98035000Y-112900000D02*
X98035000Y-110615000D01*
%TO.C,B_R32*%
X140577499Y-64962742D02*
X140577499Y-65437258D01*
X141622499Y-64962742D02*
X141622499Y-65437258D01*
%TO.C,B_R39*%
X108377500Y-64962742D02*
X108377500Y-65437258D01*
X109422500Y-64962742D02*
X109422500Y-65437258D01*
%TO.C,D_R11*%
X146777500Y-114962742D02*
X146777500Y-115437258D01*
X147822500Y-114962742D02*
X147822500Y-115437258D01*
%TO.C,D_R4*%
X115977500Y-135037258D02*
X115977500Y-134562742D01*
X117022500Y-135037258D02*
X117022500Y-134562742D01*
%TO.C,C_R38*%
X62977500Y-114962742D02*
X62977500Y-115437258D01*
X64022500Y-114962742D02*
X64022500Y-115437258D01*
%TO.C,A_R1*%
X52177500Y-85037258D02*
X52177500Y-84562742D01*
X53222500Y-85037258D02*
X53222500Y-84562742D01*
%TO.C,C_J1*%
X56920000Y-122795000D02*
X58300000Y-122795000D01*
X56920000Y-124175000D02*
X56920000Y-122795000D01*
X56920000Y-125445000D02*
X56920000Y-128095000D01*
X56920000Y-125445000D02*
X59680000Y-125445000D01*
X56920000Y-128095000D02*
X59680000Y-128095000D01*
X59680000Y-125445000D02*
X59680000Y-128095000D01*
%TO.C,A_R29*%
X90577499Y-85037258D02*
X90577499Y-84562742D01*
X91622499Y-85037258D02*
X91622499Y-84562742D01*
%TO.C,B_D8*%
X134165000Y-87100000D02*
X134165000Y-89385000D01*
X134165000Y-89385000D02*
X135635000Y-89385000D01*
X135635000Y-89385000D02*
X135635000Y-87100000D01*
%TO.C,D_R32*%
X140577499Y-114962742D02*
X140577499Y-115437258D01*
X141622499Y-114962742D02*
X141622499Y-115437258D01*
%TO.C,C_R18*%
X64577500Y-114962742D02*
X64577500Y-115437258D01*
X65622500Y-114962742D02*
X65622500Y-115437258D01*
%TO.C,A_R16*%
X73777500Y-64962742D02*
X73777500Y-65437258D01*
X74822500Y-64962742D02*
X74822500Y-65437258D01*
%TO.C,D_R37*%
X117577500Y-114962742D02*
X117577500Y-115437258D01*
X118622500Y-114962742D02*
X118622500Y-115437258D01*
%TO.C,D_D8*%
X134165000Y-137100000D02*
X134165000Y-139385000D01*
X134165000Y-139385000D02*
X135635000Y-139385000D01*
X135635000Y-139385000D02*
X135635000Y-137100000D01*
%TO.C,A_R5*%
X70577499Y-85037258D02*
X70577499Y-84562742D01*
X71622499Y-85037258D02*
X71622499Y-84562742D01*
%TO.C,B_R3*%
X111377500Y-85037258D02*
X111377500Y-84562742D01*
X112422500Y-85037258D02*
X112422500Y-84562742D01*
%TO.C,A_R23*%
X62977500Y-85037258D02*
X62977500Y-84562742D01*
X64022500Y-85037258D02*
X64022500Y-84562742D01*
%TO.C,B_R35*%
X126777500Y-64962742D02*
X126777500Y-65437258D01*
X127822500Y-64962742D02*
X127822500Y-65437258D01*
%TO.C,B_R26*%
X126777500Y-85037258D02*
X126777500Y-84562742D01*
X127822500Y-85037258D02*
X127822500Y-84562742D01*
%TO.C,D_R1*%
X102177500Y-135037258D02*
X102177500Y-134562742D01*
X103222500Y-135037258D02*
X103222500Y-134562742D01*
%TO.C,D_R5*%
X120577499Y-135037258D02*
X120577499Y-134562742D01*
X121622499Y-135037258D02*
X121622499Y-134562742D01*
%TO.C,A_R19*%
X59977500Y-64962742D02*
X59977500Y-65437258D01*
X61022500Y-64962742D02*
X61022500Y-65437258D01*
%TO.C,C_D15*%
X78165000Y-110615000D02*
X78165000Y-112900000D01*
X79635000Y-110615000D02*
X78165000Y-110615000D01*
X79635000Y-112900000D02*
X79635000Y-110615000D01*
%TO.C,C_R30*%
X95177500Y-135037258D02*
X95177500Y-134562742D01*
X96222500Y-135037258D02*
X96222500Y-134562742D01*
%TO.C,B_R13*%
X137577500Y-64962742D02*
X137577500Y-65437258D01*
X138622500Y-64962742D02*
X138622500Y-65437258D01*
%TO.C,A_R18*%
X64577500Y-64962742D02*
X64577500Y-65437258D01*
X65622500Y-64962742D02*
X65622500Y-65437258D01*
%TO.C,D_R22*%
X108377500Y-135037258D02*
X108377500Y-134562742D01*
X109422500Y-135037258D02*
X109422500Y-134562742D01*
%TO.C,B_R21*%
X103777500Y-85037258D02*
X103777500Y-84562742D01*
X104822500Y-85037258D02*
X104822500Y-84562742D01*
%TO.C,D_R35*%
X126777500Y-114962742D02*
X126777500Y-115437258D01*
X127822500Y-114962742D02*
X127822500Y-115437258D01*
%TO.C,C_R37*%
X67577500Y-114962742D02*
X67577500Y-115437258D01*
X68622500Y-114962742D02*
X68622500Y-115437258D01*
%TO.C,A_R9*%
X88977499Y-85037258D02*
X88977499Y-84562742D01*
X90022499Y-85037258D02*
X90022499Y-84562742D01*
%TO.C,C_R2*%
X56777500Y-135037258D02*
X56777500Y-134562742D01*
X57822500Y-135037258D02*
X57822500Y-134562742D01*
%TO.C,B_R18*%
X114577500Y-64962742D02*
X114577500Y-65437258D01*
X115622500Y-64962742D02*
X115622500Y-65437258D01*
%TO.C,C_R14*%
X82977500Y-114962742D02*
X82977500Y-115437258D01*
X84022500Y-114962742D02*
X84022500Y-115437258D01*
%TO.C,B_D12*%
X141964999Y-60615000D02*
X141964999Y-62900000D01*
X143434999Y-60615000D02*
X141964999Y-60615000D01*
X143434999Y-62900000D02*
X143434999Y-60615000D01*
%TO.C,C_R11*%
X96777500Y-114962742D02*
X96777500Y-115437258D01*
X97822500Y-114962742D02*
X97822500Y-115437258D01*
%TO.C,B_R36*%
X122177500Y-64962742D02*
X122177500Y-65437258D01*
X123222500Y-64962742D02*
X123222500Y-65437258D01*
%TO.C,C_R23*%
X62977500Y-135037258D02*
X62977500Y-134562742D01*
X64022500Y-135037258D02*
X64022500Y-134562742D01*
%TO.C,B_R29*%
X140577499Y-85037258D02*
X140577499Y-84562742D01*
X141622499Y-85037258D02*
X141622499Y-84562742D01*
%TO.C,A_R26*%
X76777500Y-85037258D02*
X76777500Y-84562742D01*
X77822500Y-85037258D02*
X77822500Y-84562742D01*
%TO.C,A_D14*%
X82765000Y-60615000D02*
X82765000Y-62900000D01*
X84235000Y-60615000D02*
X82765000Y-60615000D01*
X84235000Y-62900000D02*
X84235000Y-60615000D01*
%TO.C,C_R19*%
X59977500Y-114962742D02*
X59977500Y-115437258D01*
X61022500Y-114962742D02*
X61022500Y-115437258D01*
%TO.C,D_D18*%
X114365000Y-110615000D02*
X114365000Y-112900000D01*
X115835000Y-110615000D02*
X114365000Y-110615000D01*
X115835000Y-112900000D02*
X115835000Y-110615000D01*
%TO.C,A_R12*%
X92177499Y-64962742D02*
X92177499Y-65437258D01*
X93222499Y-64962742D02*
X93222499Y-65437258D01*
%TO.C,B_R6*%
X125177500Y-85037258D02*
X125177500Y-84562742D01*
X126222500Y-85037258D02*
X126222500Y-84562742D01*
%TD*%
M02*
