M48
; DRILL file KiCad 10.0.3 date 2026-09-25T12:44:31
; FORMAT={-:-/ absolute / metric / decimal}
; #@! TF.CreationDate,2026-09-25T12:44:31+09:00
; #@! TF.GenerationSoftware,Kicad,Pcbnew,10.0.3
; #@! TF.FileFunction,MixedPlating,1,2
FMAT,2
METRIC
; #@! TA.AperFunction,Plated,PTH,ViaDrill
T1C0.300
; #@! TA.AperFunction,Plated,PTH,ComponentDrill
T2C0.800
; #@! TA.AperFunction,Plated,PTH,ComponentDrill
T3C1.000
; #@! TA.AperFunction,NonPlated,NPTH,ComponentDrill
T4C0.800
; #@! TA.AperFunction,NonPlated,NPTH,ComponentDrill
T5C1.152
; #@! TA.AperFunction,NonPlated,NPTH,ComponentDrill
T6C2.200
%
G90
G05
T1
X52.2Y-90.7
X52.2Y-140.7
X56.8Y-90.7
X56.8Y-140.7
X61.0Y-59.3
X61.0Y-109.3
X61.2Y-76.775
X61.2Y-126.775
X61.4Y-90.7
X61.4Y-140.7
X65.6Y-59.3
X65.6Y-109.3
X66.0Y-90.7
X66.0Y-140.7
X70.2Y-59.3
X70.2Y-109.3
X70.6Y-90.7
X70.6Y-140.7
X74.8Y-59.3
X74.8Y-109.3
X75.2Y-90.7
X75.2Y-140.7
X79.4Y-59.3
X79.4Y-109.3
X84.0Y-59.3
X84.0Y-109.3
X84.4Y-90.7
X84.4Y-140.7
X88.6Y-59.3
X88.6Y-109.3
X89.0Y-90.7
X89.0Y-140.7
X93.2Y-59.3
X93.2Y-109.3
X93.6Y-90.7
X93.6Y-140.7
X97.8Y-59.3
X97.8Y-109.3
X102.2Y-90.7
X102.2Y-140.7
X106.8Y-90.7
X106.8Y-140.7
X111.0Y-59.3
X111.0Y-109.3
X111.2Y-76.775
X111.2Y-126.775
X111.4Y-90.7
X111.4Y-140.7
X115.6Y-59.3
X115.6Y-109.3
X116.0Y-90.7
X116.0Y-140.7
X120.2Y-59.3
X120.2Y-109.3
X120.6Y-90.7
X120.6Y-140.7
X124.8Y-59.3
X124.8Y-109.3
X125.2Y-90.7
X125.2Y-140.7
X129.4Y-59.3
X129.4Y-109.3
X134.0Y-59.3
X134.0Y-109.3
X134.4Y-90.7
X134.4Y-140.7
X138.6Y-59.3
X138.6Y-109.3
X139.0Y-90.7
X139.0Y-140.7
X143.2Y-59.3
X143.2Y-109.3
X143.6Y-90.7
X143.6Y-140.7
X147.8Y-59.3
X147.8Y-109.3
T2
X63.57Y-71.19
X63.57Y-78.81
X63.57Y-121.19
X63.57Y-128.81
X66.11Y-71.19
X66.11Y-78.81
X66.11Y-121.19
X66.11Y-128.81
X68.65Y-71.19
X68.65Y-78.81
X68.65Y-121.19
X68.65Y-128.81
X71.19Y-71.19
X71.19Y-78.81
X71.19Y-121.19
X71.19Y-128.81
X73.73Y-71.19
X73.73Y-78.81
X73.73Y-121.19
X73.73Y-128.81
X76.27Y-71.19
X76.27Y-78.81
X76.27Y-121.19
X76.27Y-128.81
X78.81Y-71.19
X78.81Y-78.81
X78.81Y-121.19
X78.81Y-128.81
X81.35Y-71.19
X81.35Y-78.81
X81.35Y-121.19
X81.35Y-128.81
X83.89Y-71.19
X83.89Y-78.81
X83.89Y-121.19
X83.89Y-128.81
X86.43Y-71.19
X86.43Y-78.81
X86.43Y-121.19
X86.43Y-128.81
X113.57Y-71.19
X113.57Y-78.81
X113.57Y-121.19
X113.57Y-128.81
X116.11Y-71.19
X116.11Y-78.81
X116.11Y-121.19
X116.11Y-128.81
X118.65Y-71.19
X118.65Y-78.81
X118.65Y-121.19
X118.65Y-128.81
X121.19Y-71.19
X121.19Y-78.81
X121.19Y-121.19
X121.19Y-128.81
X123.73Y-71.19
X123.73Y-78.81
X123.73Y-121.19
X123.73Y-128.81
X126.27Y-71.19
X126.27Y-78.81
X126.27Y-121.19
X126.27Y-128.81
X128.81Y-71.19
X128.81Y-78.81
X128.81Y-121.19
X128.81Y-128.81
X131.35Y-71.19
X131.35Y-78.81
X131.35Y-121.19
X131.35Y-128.81
X133.89Y-71.19
X133.89Y-78.81
X133.89Y-121.19
X133.89Y-128.81
X136.43Y-71.19
X136.43Y-78.81
X136.43Y-121.19
X136.43Y-128.81
T3
X58.3Y-74.175
X58.3Y-76.715
X58.3Y-124.175
X58.3Y-126.715
X108.3Y-74.175
X108.3Y-76.715
X108.3Y-124.175
X108.3Y-126.715
T4
X54.3Y-92.5
X54.3Y-95.5
X54.3Y-142.5
X54.3Y-145.5
X58.9Y-54.5
X58.9Y-57.5
X58.9Y-92.5
X58.9Y-95.5
X58.9Y-104.5
X58.9Y-107.5
X58.9Y-142.5
X58.9Y-145.5
X63.5Y-54.5
X63.5Y-57.5
X63.5Y-92.5
X63.5Y-95.5
X63.5Y-104.5
X63.5Y-107.5
X63.5Y-142.5
X63.5Y-145.5
X68.1Y-54.5
X68.1Y-57.5
X68.1Y-92.5
X68.1Y-95.5
X68.1Y-104.5
X68.1Y-107.5
X68.1Y-142.5
X68.1Y-145.5
X72.7Y-54.5
X72.7Y-57.5
X72.7Y-92.5
X72.7Y-95.5
X72.7Y-104.5
X72.7Y-107.5
X72.7Y-142.5
X72.7Y-145.5
X77.3Y-54.5
X77.3Y-57.5
X77.3Y-92.5
X77.3Y-95.5
X77.3Y-104.5
X77.3Y-107.5
X77.3Y-142.5
X77.3Y-145.5
X81.9Y-54.5
X81.9Y-57.5
X81.9Y-104.5
X81.9Y-107.5
X86.5Y-54.5
X86.5Y-57.5
X86.5Y-92.5
X86.5Y-95.5
X86.5Y-104.5
X86.5Y-107.5
X86.5Y-142.5
X86.5Y-145.5
X91.1Y-54.5
X91.1Y-57.5
X91.1Y-92.5
X91.1Y-95.5
X91.1Y-104.5
X91.1Y-107.5
X91.1Y-142.5
X91.1Y-145.5
X95.7Y-54.5
X95.7Y-57.5
X95.7Y-92.5
X95.7Y-95.5
X95.7Y-104.5
X95.7Y-107.5
X95.7Y-142.5
X95.7Y-145.5
X104.3Y-92.5
X104.3Y-95.5
X104.3Y-142.5
X104.3Y-145.5
X108.9Y-54.5
X108.9Y-57.5
X108.9Y-92.5
X108.9Y-95.5
X108.9Y-104.5
X108.9Y-107.5
X108.9Y-142.5
X108.9Y-145.5
X113.5Y-54.5
X113.5Y-57.5
X113.5Y-92.5
X113.5Y-95.5
X113.5Y-104.5
X113.5Y-107.5
X113.5Y-142.5
X113.5Y-145.5
X118.1Y-54.5
X118.1Y-57.5
X118.1Y-92.5
X118.1Y-95.5
X118.1Y-104.5
X118.1Y-107.5
X118.1Y-142.5
X118.1Y-145.5
X122.7Y-54.5
X122.7Y-57.5
X122.7Y-92.5
X122.7Y-95.5
X122.7Y-104.5
X122.7Y-107.5
X122.7Y-142.5
X122.7Y-145.5
X127.3Y-54.5
X127.3Y-57.5
X127.3Y-92.5
X127.3Y-95.5
X127.3Y-104.5
X127.3Y-107.5
X127.3Y-142.5
X127.3Y-145.5
X131.9Y-54.5
X131.9Y-57.5
X131.9Y-104.5
X131.9Y-107.5
X136.5Y-54.5
X136.5Y-57.5
X136.5Y-92.5
X136.5Y-95.5
X136.5Y-104.5
X136.5Y-107.5
X136.5Y-142.5
X136.5Y-145.5
X141.1Y-54.5
X141.1Y-57.5
X141.1Y-92.5
X141.1Y-95.5
X141.1Y-104.5
X141.1Y-107.5
X141.1Y-142.5
X141.1Y-145.5
X145.7Y-54.5
X145.7Y-57.5
X145.7Y-92.5
X145.7Y-95.5
X145.7Y-104.5
X145.7Y-107.5
X145.7Y-142.5
X145.7Y-145.5
T5
X52.5Y-52.5
X52.5Y-102.5
X98.5Y-98.5
X98.5Y-148.5
X102.5Y-52.5
X102.5Y-102.5
X148.5Y-98.5
X148.5Y-148.5
T6
X53.5Y-75.0
X53.5Y-125.0
X96.5Y-75.0
X96.5Y-125.0
X103.5Y-75.0
X103.5Y-125.0
X146.5Y-75.0
X146.5Y-125.0
M30
