%TF.GenerationSoftware,KiCad,Pcbnew,10.0.3*%
%TF.CreationDate,2026-09-25T08:47:11+09:00*%
%TF.ProjectId,commons_gates_panel,636f6d6d-6f6e-4735-9f67-617465735f70,rev?*%
%TF.SameCoordinates,Original*%
%TF.FileFunction,Copper,L2,Bot*%
%TF.FilePolarity,Positive*%
%FSLAX46Y46*%
G04 Gerber Fmt 4.6, Leading zero omitted, Abs format (unit mm)*
G04 Created by KiCad (PCBNEW 10.0.3) date 2026-09-25 08:47:11*
%MOMM*%
%LPD*%
G01*
G04 APERTURE LIST*
G04 Aperture macros list*
%AMRoundRect*
0 Rectangle with rounded corners*
0 $1 Rounding radius*
0 $2 $3 $4 $5 $6 $7 $8 $9 X,Y pos of 4 corners*
0 Add a 4 corners polygon primitive as box body*
4,1,4,$2,$3,$4,$5,$6,$7,$8,$9,$2,$3,0*
0 Add four circle primitives for the rounded corners*
1,1,$1+$1,$2,$3*
1,1,$1+$1,$4,$5*
1,1,$1+$1,$6,$7*
1,1,$1+$1,$8,$9*
0 Add four rect primitives between the rounded corners*
20,1,$1+$1,$2,$3,$4,$5,0*
20,1,$1+$1,$4,$5,$6,$7,0*
20,1,$1+$1,$6,$7,$8,$9,0*
20,1,$1+$1,$8,$9,$2,$3,0*%
G04 Aperture macros list end*
%TA.AperFunction,ComponentPad*%
%ADD10RoundRect,0.250000X0.550000X-0.550000X0.550000X0.550000X-0.550000X0.550000X-0.550000X-0.550000X0*%
%TD*%
%TA.AperFunction,ComponentPad*%
%ADD11C,1.600000*%
%TD*%
%TA.AperFunction,ComponentPad*%
%ADD12R,1.700000X1.700000*%
%TD*%
%TA.AperFunction,ComponentPad*%
%ADD13C,1.700000*%
%TD*%
%TA.AperFunction,ViaPad*%
%ADD14C,0.600000*%
%TD*%
G04 APERTURE END LIST*
D10*
%TO.P,D_U1,1*%
%TO.N,D_/P1*%
X113570000Y-128810000D03*
D11*
%TO.P,D_U1,2*%
%TO.N,D_/P2*%
X116110000Y-128810000D03*
%TO.P,D_U1,3*%
%TO.N,D_/P3*%
X118650000Y-128810000D03*
%TO.P,D_U1,4*%
%TO.N,D_/P4*%
X121190000Y-128810000D03*
%TO.P,D_U1,5*%
%TO.N,D_/P5*%
X123730000Y-128810000D03*
%TO.P,D_U1,6*%
%TO.N,D_/P6*%
X126270000Y-128810000D03*
%TO.P,D_U1,7*%
%TO.N,D_GND*%
X128810000Y-128810000D03*
%TO.P,D_U1,8*%
%TO.N,D_/P8*%
X131350000Y-128810000D03*
%TO.P,D_U1,9*%
%TO.N,D_/P9*%
X133890000Y-128810000D03*
%TO.P,D_U1,10*%
%TO.N,D_/P10*%
X136430000Y-128810000D03*
%TO.P,D_U1,11*%
%TO.N,D_/P11*%
X136430000Y-121190000D03*
%TO.P,D_U1,12*%
%TO.N,D_/P12*%
X133890000Y-121190000D03*
%TO.P,D_U1,13*%
%TO.N,D_/P13*%
X131350000Y-121190000D03*
%TO.P,D_U1,14*%
%TO.N,D_/P14*%
X128810000Y-121190000D03*
%TO.P,D_U1,15*%
%TO.N,D_/P15*%
X126270000Y-121190000D03*
%TO.P,D_U1,16*%
%TO.N,D_/P16*%
X123730000Y-121190000D03*
%TO.P,D_U1,17*%
%TO.N,D_/P17*%
X121190000Y-121190000D03*
%TO.P,D_U1,18*%
%TO.N,D_/P18*%
X118650000Y-121190000D03*
%TO.P,D_U1,19*%
%TO.N,D_/P19*%
X116110000Y-121190000D03*
%TO.P,D_U1,20*%
%TO.N,D_+5V*%
X113570000Y-121190000D03*
%TD*%
D10*
%TO.P,B_U1,1*%
%TO.N,B_/P1*%
X113570000Y-78810000D03*
D11*
%TO.P,B_U1,2*%
%TO.N,B_/P2*%
X116110000Y-78810000D03*
%TO.P,B_U1,3*%
%TO.N,B_/P3*%
X118650000Y-78810000D03*
%TO.P,B_U1,4*%
%TO.N,B_/P4*%
X121190000Y-78810000D03*
%TO.P,B_U1,5*%
%TO.N,B_/P5*%
X123730000Y-78810000D03*
%TO.P,B_U1,6*%
%TO.N,B_/P6*%
X126270000Y-78810000D03*
%TO.P,B_U1,7*%
%TO.N,B_GND*%
X128810000Y-78810000D03*
%TO.P,B_U1,8*%
%TO.N,B_/P8*%
X131350000Y-78810000D03*
%TO.P,B_U1,9*%
%TO.N,B_/P9*%
X133890000Y-78810000D03*
%TO.P,B_U1,10*%
%TO.N,B_/P10*%
X136430000Y-78810000D03*
%TO.P,B_U1,11*%
%TO.N,B_/P11*%
X136430000Y-71190000D03*
%TO.P,B_U1,12*%
%TO.N,B_/P12*%
X133890000Y-71190000D03*
%TO.P,B_U1,13*%
%TO.N,B_/P13*%
X131350000Y-71190000D03*
%TO.P,B_U1,14*%
%TO.N,B_/P14*%
X128810000Y-71190000D03*
%TO.P,B_U1,15*%
%TO.N,B_/P15*%
X126270000Y-71190000D03*
%TO.P,B_U1,16*%
%TO.N,B_/P16*%
X123730000Y-71190000D03*
%TO.P,B_U1,17*%
%TO.N,B_/P17*%
X121190000Y-71190000D03*
%TO.P,B_U1,18*%
%TO.N,B_/P18*%
X118650000Y-71190000D03*
%TO.P,B_U1,19*%
%TO.N,B_/P19*%
X116110000Y-71190000D03*
%TO.P,B_U1,20*%
%TO.N,B_+5V*%
X113570000Y-71190000D03*
%TD*%
D12*
%TO.P,D_J1,1*%
%TO.N,D_+5V*%
X108300000Y-124175000D03*
D13*
%TO.P,D_J1,2*%
%TO.N,D_GND*%
X108300000Y-126715000D03*
%TD*%
D12*
%TO.P,C_J1,1*%
%TO.N,C_+5V*%
X58300000Y-124175000D03*
D13*
%TO.P,C_J1,2*%
%TO.N,C_GND*%
X58300000Y-126715000D03*
%TD*%
D10*
%TO.P,A_U1,1*%
%TO.N,A_/P1*%
X63570000Y-78810000D03*
D11*
%TO.P,A_U1,2*%
%TO.N,A_/P2*%
X66110000Y-78810000D03*
%TO.P,A_U1,3*%
%TO.N,A_/P3*%
X68650000Y-78810000D03*
%TO.P,A_U1,4*%
%TO.N,A_/P4*%
X71190000Y-78810000D03*
%TO.P,A_U1,5*%
%TO.N,A_/P5*%
X73730000Y-78810000D03*
%TO.P,A_U1,6*%
%TO.N,A_/P6*%
X76270000Y-78810000D03*
%TO.P,A_U1,7*%
%TO.N,A_GND*%
X78810000Y-78810000D03*
%TO.P,A_U1,8*%
%TO.N,A_/P8*%
X81350000Y-78810000D03*
%TO.P,A_U1,9*%
%TO.N,A_/P9*%
X83890000Y-78810000D03*
%TO.P,A_U1,10*%
%TO.N,A_/P10*%
X86430000Y-78810000D03*
%TO.P,A_U1,11*%
%TO.N,A_/P11*%
X86430000Y-71190000D03*
%TO.P,A_U1,12*%
%TO.N,A_/P12*%
X83890000Y-71190000D03*
%TO.P,A_U1,13*%
%TO.N,A_/P13*%
X81350000Y-71190000D03*
%TO.P,A_U1,14*%
%TO.N,A_/P14*%
X78810000Y-71190000D03*
%TO.P,A_U1,15*%
%TO.N,A_/P15*%
X76270000Y-71190000D03*
%TO.P,A_U1,16*%
%TO.N,A_/P16*%
X73730000Y-71190000D03*
%TO.P,A_U1,17*%
%TO.N,A_/P17*%
X71190000Y-71190000D03*
%TO.P,A_U1,18*%
%TO.N,A_/P18*%
X68650000Y-71190000D03*
%TO.P,A_U1,19*%
%TO.N,A_/P19*%
X66110000Y-71190000D03*
%TO.P,A_U1,20*%
%TO.N,A_+5V*%
X63570000Y-71190000D03*
%TD*%
D10*
%TO.P,C_U1,1*%
%TO.N,C_/P1*%
X63570000Y-128810000D03*
D11*
%TO.P,C_U1,2*%
%TO.N,C_/P2*%
X66110000Y-128810000D03*
%TO.P,C_U1,3*%
%TO.N,C_/P3*%
X68650000Y-128810000D03*
%TO.P,C_U1,4*%
%TO.N,C_/P4*%
X71190000Y-128810000D03*
%TO.P,C_U1,5*%
%TO.N,C_/P5*%
X73730000Y-128810000D03*
%TO.P,C_U1,6*%
%TO.N,C_/P6*%
X76270000Y-128810000D03*
%TO.P,C_U1,7*%
%TO.N,C_GND*%
X78810000Y-128810000D03*
%TO.P,C_U1,8*%
%TO.N,C_/P8*%
X81350000Y-128810000D03*
%TO.P,C_U1,9*%
%TO.N,C_/P9*%
X83890000Y-128810000D03*
%TO.P,C_U1,10*%
%TO.N,C_/P10*%
X86430000Y-128810000D03*
%TO.P,C_U1,11*%
%TO.N,C_/P11*%
X86430000Y-121190000D03*
%TO.P,C_U1,12*%
%TO.N,C_/P12*%
X83890000Y-121190000D03*
%TO.P,C_U1,13*%
%TO.N,C_/P13*%
X81350000Y-121190000D03*
%TO.P,C_U1,14*%
%TO.N,C_/P14*%
X78810000Y-121190000D03*
%TO.P,C_U1,15*%
%TO.N,C_/P15*%
X76270000Y-121190000D03*
%TO.P,C_U1,16*%
%TO.N,C_/P16*%
X73730000Y-121190000D03*
%TO.P,C_U1,17*%
%TO.N,C_/P17*%
X71190000Y-121190000D03*
%TO.P,C_U1,18*%
%TO.N,C_/P18*%
X68650000Y-121190000D03*
%TO.P,C_U1,19*%
%TO.N,C_/P19*%
X66110000Y-121190000D03*
%TO.P,C_U1,20*%
%TO.N,C_+5V*%
X63570000Y-121190000D03*
%TD*%
D12*
%TO.P,B_J1,1*%
%TO.N,B_+5V*%
X108300000Y-74175000D03*
D13*
%TO.P,B_J1,2*%
%TO.N,B_GND*%
X108300000Y-76715000D03*
%TD*%
D12*
%TO.P,A_J1,1*%
%TO.N,A_+5V*%
X58300000Y-74175000D03*
D13*
%TO.P,A_J1,2*%
%TO.N,A_GND*%
X58300000Y-76715000D03*
%TD*%
D14*
%TO.N,D_GND*%
X147800000Y-109300000D03*
X111400000Y-140700000D03*
X134000000Y-109300000D03*
X102200000Y-140700000D03*
X106800000Y-140700000D03*
X120200000Y-109300000D03*
X129400000Y-109300000D03*
X138600000Y-109300000D03*
X134400000Y-140700000D03*
X124800000Y-109300000D03*
X120599999Y-140700000D03*
X143600000Y-140700000D03*
X111200000Y-126775000D03*
X111000000Y-109300000D03*
X138999999Y-140700000D03*
X143199999Y-109300000D03*
X125200000Y-140700000D03*
X115600000Y-109300000D03*
X116000000Y-140700000D03*
%TO.N,A_GND*%
X70599999Y-90700000D03*
X61200000Y-76775000D03*
X66000000Y-90700000D03*
X75200000Y-90700000D03*
X74800000Y-59300000D03*
X88999999Y-90700000D03*
X84000000Y-59300000D03*
X93600000Y-90700000D03*
X65600000Y-59300000D03*
X61400000Y-90700000D03*
X88600000Y-59300000D03*
X84400000Y-90700000D03*
X56800000Y-90700000D03*
X79400000Y-59300000D03*
X70200000Y-59300000D03*
X97800000Y-59300000D03*
X52200000Y-90700000D03*
X93199999Y-59300000D03*
X61000000Y-59300000D03*
%TO.N,C_GND*%
X88600000Y-109300000D03*
X97800000Y-109300000D03*
X75200000Y-140700000D03*
X70200000Y-109300000D03*
X93600000Y-140700000D03*
X65600000Y-109300000D03*
X61400000Y-140700000D03*
X84000000Y-109300000D03*
X61000000Y-109300000D03*
X84400000Y-140700000D03*
X79400000Y-109300000D03*
X93199999Y-109300000D03*
X70599999Y-140700000D03*
X56800000Y-140700000D03*
X61200000Y-126775000D03*
X66000000Y-140700000D03*
X88999999Y-140700000D03*
X74800000Y-109300000D03*
X52200000Y-140700000D03*
%TO.N,B_GND*%
X143600000Y-90700000D03*
X115600000Y-59300000D03*
X147800000Y-59300000D03*
X120599999Y-90700000D03*
X116000000Y-90700000D03*
X124800000Y-59300000D03*
X120200000Y-59300000D03*
X102200000Y-90700000D03*
X143199999Y-59300000D03*
X138999999Y-90700000D03*
X134000000Y-59300000D03*
X129400000Y-59300000D03*
X134400000Y-90700000D03*
X111000000Y-59300000D03*
X125200000Y-90700000D03*
X111200000Y-76775000D03*
X138600000Y-59300000D03*
X106800000Y-90700000D03*
X111400000Y-90700000D03*
%TD*%
%TA.AperFunction,Conductor*%
%TO.N,A_GND*%
G36*
X99443039Y-50519685D02*
G01*
X99488794Y-50572489D01*
X99500000Y-50624000D01*
X99500000Y-99376000D01*
X99480315Y-99443039D01*
X99427511Y-99488794D01*
X99376000Y-99500000D01*
X50624000Y-99500000D01*
X50556961Y-99480315D01*
X50511206Y-99427511D01*
X50500000Y-99376000D01*
X50500000Y-78209983D01*
X62269500Y-78209983D01*
X62269500Y-79410001D01*
X62269501Y-79410018D01*
X62280000Y-79512796D01*
X62280001Y-79512799D01*
X62296818Y-79563548D01*
X62335186Y-79679334D01*
X62427288Y-79828656D01*
X62551344Y-79952712D01*
X62700666Y-80044814D01*
X62867203Y-80099999D01*
X62969991Y-80110500D01*
X64170008Y-80110499D01*
X64272797Y-80099999D01*
X64439334Y-80044814D01*
X64588656Y-79952712D01*
X64712712Y-79828656D01*
X64804814Y-79679334D01*
X64831955Y-79597427D01*
X64871726Y-79539984D01*
X64936242Y-79513161D01*
X65005018Y-79525476D01*
X65049977Y-79563547D01*
X65118030Y-79657213D01*
X65118034Y-79657219D01*
X65262786Y-79801971D01*
X65383226Y-79889474D01*
X65428390Y-79922287D01*
X65544607Y-79981503D01*
X65610776Y-80015218D01*
X65610778Y-80015218D01*
X65610781Y-80015220D01*
X65701856Y-80044812D01*
X65805465Y-80078477D01*
X65906557Y-80094488D01*
X66007648Y-80110500D01*
X66007649Y-80110500D01*
X66212351Y-80110500D01*
X66212352Y-80110500D01*
X66414534Y-80078477D01*
X66609219Y-80015220D01*
X66791610Y-79922287D01*
X66920482Y-79828657D01*
X66957213Y-79801971D01*
X66957215Y-79801968D01*
X66957219Y-79801966D01*
X67101966Y-79657219D01*
X67101968Y-79657215D01*
X67101971Y-79657213D01*
X67222284Y-79491614D01*
X67222286Y-79491611D01*
X67222287Y-79491610D01*
X67269516Y-79398917D01*
X67317489Y-79348123D01*
X67385310Y-79331328D01*
X67451445Y-79353865D01*
X67490483Y-79398917D01*
X67496140Y-79410018D01*
X67537715Y-79491614D01*
X67658028Y-79657213D01*
X67802786Y-79801971D01*
X67923226Y-79889474D01*
X67968390Y-79922287D01*
X68084607Y-79981503D01*
X68150776Y-80015218D01*
X68150778Y-80015218D01*
X68150781Y-80015220D01*
X68241856Y-80044812D01*
X68345465Y-80078477D01*
X68446557Y-80094488D01*
X68547648Y-80110500D01*
X68547649Y-80110500D01*
X68752351Y-80110500D01*
X68752352Y-80110500D01*
X68954534Y-80078477D01*
X69149219Y-80015220D01*
X69331610Y-79922287D01*
X69460482Y-79828657D01*
X69497213Y-79801971D01*
X69497215Y-79801968D01*
X69497219Y-79801966D01*
X69641966Y-79657219D01*
X69641968Y-79657215D01*
X69641971Y-79657213D01*
X69762284Y-79491614D01*
X69762286Y-79491611D01*
X69762287Y-79491610D01*
X69809516Y-79398917D01*
X69857489Y-79348123D01*
X69925310Y-79331328D01*
X69991445Y-79353865D01*
X70030483Y-79398917D01*
X70036140Y-79410018D01*
X70077715Y-79491614D01*
X70198028Y-79657213D01*
X70342786Y-79801971D01*
X70463226Y-79889474D01*
X70508390Y-79922287D01*
X70624607Y-79981503D01*
X70690776Y-80015218D01*
X70690778Y-80015218D01*
X70690781Y-80015220D01*
X70781856Y-80044812D01*
X70885465Y-80078477D01*
X70986557Y-80094488D01*
X71087648Y-80110500D01*
X71087649Y-80110500D01*
X71292351Y-80110500D01*
X71292352Y-80110500D01*
X71494534Y-80078477D01*
X71689219Y-80015220D01*
X71871610Y-79922287D01*
X72000482Y-79828657D01*
X72037213Y-79801971D01*
X72037215Y-79801968D01*
X72037219Y-79801966D01*
X72181966Y-79657219D01*
X72181968Y-79657215D01*
X72181971Y-79657213D01*
X72302284Y-79491614D01*
X72302286Y-79491611D01*
X72302287Y-79491610D01*
X72349516Y-79398917D01*
X72397489Y-79348123D01*
X72465310Y-79331328D01*
X72531445Y-79353865D01*
X72570483Y-79398917D01*
X72576140Y-79410018D01*
X72617715Y-79491614D01*
X72738028Y-79657213D01*
X72882786Y-79801971D01*
X73003226Y-79889474D01*
X73048390Y-79922287D01*
X73164607Y-79981503D01*
X73230776Y-80015218D01*
X73230778Y-80015218D01*
X73230781Y-80015220D01*
X73321856Y-80044812D01*
X73425465Y-80078477D01*
X73526557Y-80094488D01*
X73627648Y-80110500D01*
X73627649Y-80110500D01*
X73832351Y-80110500D01*
X73832352Y-80110500D01*
X74034534Y-80078477D01*
X74229219Y-80015220D01*
X74411610Y-79922287D01*
X74540482Y-79828657D01*
X74577213Y-79801971D01*
X74577215Y-79801968D01*
X74577219Y-79801966D01*
X74721966Y-79657219D01*
X74721968Y-79657215D01*
X74721971Y-79657213D01*
X74842284Y-79491614D01*
X74842286Y-79491611D01*
X74842287Y-79491610D01*
X74889516Y-79398917D01*
X74937489Y-79348123D01*
X75005310Y-79331328D01*
X75071445Y-79353865D01*
X75110483Y-79398917D01*
X75116140Y-79410018D01*
X75157715Y-79491614D01*
X75278028Y-79657213D01*
X75422786Y-79801971D01*
X75543226Y-79889474D01*
X75588390Y-79922287D01*
X75704607Y-79981503D01*
X75770776Y-80015218D01*
X75770778Y-80015218D01*
X75770781Y-80015220D01*
X75861856Y-80044812D01*
X75965465Y-80078477D01*
X76066557Y-80094488D01*
X76167648Y-80110500D01*
X76167649Y-80110500D01*
X76372351Y-80110500D01*
X76372352Y-80110500D01*
X76574534Y-80078477D01*
X76769219Y-80015220D01*
X76951610Y-79922287D01*
X77080482Y-79828657D01*
X77117213Y-79801971D01*
X77117215Y-79801968D01*
X77117219Y-79801966D01*
X77261966Y-79657219D01*
X77261968Y-79657215D01*
X77261971Y-79657213D01*
X77366894Y-79512797D01*
X77382287Y-79491610D01*
X77429795Y-79398369D01*
X77477769Y-79347573D01*
X77545590Y-79330778D01*
X77611725Y-79353315D01*
X77650765Y-79398369D01*
X77698141Y-79491350D01*
X77698147Y-79491359D01*
X77730523Y-79535921D01*
X77730524Y-79535922D01*
X78410000Y-78856446D01*
X78410000Y-78862661D01*
X78437259Y-78964394D01*
X78489920Y-79055606D01*
X78564394Y-79130080D01*
X78655606Y-79182741D01*
X78757339Y-79210000D01*
X78763553Y-79210000D01*
X78084076Y-79889474D01*
X78128650Y-79921859D01*
X78310968Y-80014755D01*
X78505582Y-80077990D01*
X78707683Y-80110000D01*
X78912317Y-80110000D01*
X79114417Y-80077990D01*
X79309031Y-80014755D01*
X79491349Y-79921859D01*
X79535921Y-79889474D01*
X78856447Y-79210000D01*
X78862661Y-79210000D01*
X78964394Y-79182741D01*
X79055606Y-79130080D01*
X79130080Y-79055606D01*
X79182741Y-78964394D01*
X79210000Y-78862661D01*
X79210000Y-78856447D01*
X79889474Y-79535921D01*
X79921861Y-79491347D01*
X79921861Y-79491346D01*
X79969234Y-79398371D01*
X80017208Y-79347575D01*
X80085028Y-79330779D01*
X80151164Y-79353316D01*
X80190203Y-79398369D01*
X80237713Y-79491611D01*
X80358028Y-79657213D01*
X80502786Y-79801971D01*
X80623226Y-79889474D01*
X80668390Y-79922287D01*
X80784607Y-79981503D01*
X80850776Y-80015218D01*
X80850778Y-80015218D01*
X80850781Y-80015220D01*
X80941856Y-80044812D01*
X81045465Y-80078477D01*
X81146557Y-80094488D01*
X81247648Y-80110500D01*
X81247649Y-80110500D01*
X81452351Y-80110500D01*
X81452352Y-80110500D01*
X81654534Y-80078477D01*
X81849219Y-80015220D01*
X82031610Y-79922287D01*
X82160482Y-79828657D01*
X82197213Y-79801971D01*
X82197215Y-79801968D01*
X82197219Y-79801966D01*
X82341966Y-79657219D01*
X82341968Y-79657215D01*
X82341971Y-79657213D01*
X82462284Y-79491614D01*
X82462286Y-79491611D01*
X82462287Y-79491610D01*
X82509516Y-79398917D01*
X82557489Y-79348123D01*
X82625310Y-79331328D01*
X82691445Y-79353865D01*
X82730483Y-79398917D01*
X82736140Y-79410018D01*
X82777715Y-79491614D01*
X82898028Y-79657213D01*
X83042786Y-79801971D01*
X83163226Y-79889474D01*
X83208390Y-79922287D01*
X83324607Y-79981503D01*
X83390776Y-80015218D01*
X83390778Y-80015218D01*
X83390781Y-80015220D01*
X83481856Y-80044812D01*
X83585465Y-80078477D01*
X83686557Y-80094488D01*
X83787648Y-80110500D01*
X83787649Y-80110500D01*
X83992351Y-80110500D01*
X83992352Y-80110500D01*
X84194534Y-80078477D01*
X84389219Y-80015220D01*
X84571610Y-79922287D01*
X84700482Y-79828657D01*
X84737213Y-79801971D01*
X84737215Y-79801968D01*
X84737219Y-79801966D01*
X84881966Y-79657219D01*
X84881968Y-79657215D01*
X84881971Y-79657213D01*
X85002284Y-79491614D01*
X85002286Y-79491611D01*
X85002287Y-79491610D01*
X85049516Y-79398917D01*
X85097489Y-79348123D01*
X85165310Y-79331328D01*
X85231445Y-79353865D01*
X85270483Y-79398917D01*
X85276140Y-79410018D01*
X85317715Y-79491614D01*
X85438028Y-79657213D01*
X85582786Y-79801971D01*
X85703226Y-79889474D01*
X85748390Y-79922287D01*
X85864607Y-79981503D01*
X85930776Y-80015218D01*
X85930778Y-80015218D01*
X85930781Y-80015220D01*
X86021856Y-80044812D01*
X86125465Y-80078477D01*
X86226557Y-80094488D01*
X86327648Y-80110500D01*
X86327649Y-80110500D01*
X86532351Y-80110500D01*
X86532352Y-80110500D01*
X86734534Y-80078477D01*
X86929219Y-80015220D01*
X87111610Y-79922287D01*
X87240482Y-79828657D01*
X87277213Y-79801971D01*
X87277215Y-79801968D01*
X87277219Y-79801966D01*
X87421966Y-79657219D01*
X87421968Y-79657215D01*
X87421971Y-79657213D01*
X87490021Y-79563548D01*
X87542287Y-79491610D01*
X87635220Y-79309219D01*
X87698477Y-79114534D01*
X87730500Y-78912352D01*
X87730500Y-78707648D01*
X87722257Y-78655606D01*
X87698477Y-78505465D01*
X87635218Y-78310776D01*
X87583865Y-78209991D01*
X87542287Y-78128390D01*
X87510092Y-78084077D01*
X87421971Y-77962786D01*
X87277213Y-77818028D01*
X87111613Y-77697715D01*
X87111612Y-77697714D01*
X87111610Y-77697713D01*
X87051898Y-77667288D01*
X86929223Y-77604781D01*
X86734534Y-77541522D01*
X86559995Y-77513878D01*
X86532352Y-77509500D01*
X86327648Y-77509500D01*
X86303329Y-77513351D01*
X86125465Y-77541522D01*
X85930776Y-77604781D01*
X85748386Y-77697715D01*
X85582786Y-77818028D01*
X85438028Y-77962786D01*
X85317715Y-78128386D01*
X85270485Y-78221080D01*
X85222510Y-78271876D01*
X85154689Y-78288671D01*
X85088554Y-78266134D01*
X85049515Y-78221080D01*
X85002420Y-78128652D01*
X85002287Y-78128390D01*
X84970092Y-78084077D01*
X84881971Y-77962786D01*
X84737213Y-77818028D01*
X84571613Y-77697715D01*
X84571612Y-77697714D01*
X84571610Y-77697713D01*
X84511898Y-77667288D01*
X84389223Y-77604781D01*
X84194534Y-77541522D01*
X84019995Y-77513878D01*
X83992352Y-77509500D01*
X83787648Y-77509500D01*
X83763329Y-77513351D01*
X83585465Y-77541522D01*
X83390776Y-77604781D01*
X83208386Y-77697715D01*
X83042786Y-77818028D01*
X82898028Y-77962786D01*
X82777715Y-78128386D01*
X82730485Y-78221080D01*
X82682510Y-78271876D01*
X82614689Y-78288671D01*
X82548554Y-78266134D01*
X82509515Y-78221080D01*
X82462420Y-78128652D01*
X82462287Y-78128390D01*
X82430092Y-78084077D01*
X82341971Y-77962786D01*
X82197213Y-77818028D01*
X82031613Y-77697715D01*
X82031612Y-77697714D01*
X82031610Y-77697713D01*
X81971898Y-77667288D01*
X81849223Y-77604781D01*
X81654534Y-77541522D01*
X81479995Y-77513878D01*
X81452352Y-77509500D01*
X81247648Y-77509500D01*
X81223329Y-77513351D01*
X81045465Y-77541522D01*
X80850776Y-77604781D01*
X80668386Y-77697715D01*
X80502786Y-77818028D01*
X80358028Y-77962786D01*
X80237713Y-78128388D01*
X80190203Y-78221630D01*
X80142228Y-78272426D01*
X80074407Y-78289220D01*
X80008272Y-78266682D01*
X79969234Y-78221628D01*
X79921861Y-78128652D01*
X79889474Y-78084077D01*
X79889474Y-78084076D01*
X79210000Y-78763551D01*
X79210000Y-78757339D01*
X79182741Y-78655606D01*
X79130080Y-78564394D01*
X79055606Y-78489920D01*
X78964394Y-78437259D01*
X78862661Y-78410000D01*
X78856446Y-78410000D01*
X79535922Y-77730524D01*
X79535921Y-77730523D01*
X79491359Y-77698147D01*
X79491350Y-77698141D01*
X79309031Y-77605244D01*
X79114417Y-77542009D01*
X78912317Y-77510000D01*
X78707683Y-77510000D01*
X78505582Y-77542009D01*
X78310968Y-77605244D01*
X78128644Y-77698143D01*
X78084077Y-77730523D01*
X78084077Y-77730524D01*
X78763554Y-78410000D01*
X78757339Y-78410000D01*
X78655606Y-78437259D01*
X78564394Y-78489920D01*
X78489920Y-78564394D01*
X78437259Y-78655606D01*
X78410000Y-78757339D01*
X78410000Y-78763553D01*
X77730524Y-78084077D01*
X77730523Y-78084077D01*
X77698143Y-78128644D01*
X77650765Y-78221630D01*
X77602790Y-78272426D01*
X77534969Y-78289221D01*
X77468834Y-78266683D01*
X77429795Y-78221630D01*
X77382284Y-78128385D01*
X77261971Y-77962786D01*
X77117213Y-77818028D01*
X76951613Y-77697715D01*
X76951612Y-77697714D01*
X76951610Y-77697713D01*
X76891898Y-77667288D01*
X76769223Y-77604781D01*
X76574534Y-77541522D01*
X76399995Y-77513878D01*
X76372352Y-77509500D01*
X76167648Y-77509500D01*
X76143329Y-77513351D01*
X75965465Y-77541522D01*
X75770776Y-77604781D01*
X75588386Y-77697715D01*
X75422786Y-77818028D01*
X75278028Y-77962786D01*
X75157715Y-78128386D01*
X75110485Y-78221080D01*
X75062510Y-78271876D01*
X74994689Y-78288671D01*
X74928554Y-78266134D01*
X74889515Y-78221080D01*
X74842420Y-78128652D01*
X74842287Y-78128390D01*
X74810092Y-78084077D01*
X74721971Y-77962786D01*
X74577213Y-77818028D01*
X74411613Y-77697715D01*
X74411612Y-77697714D01*
X74411610Y-77697713D01*
X74351898Y-77667288D01*
X74229223Y-77604781D01*
X74034534Y-77541522D01*
X73859995Y-77513878D01*
X73832352Y-77509500D01*
X73627648Y-77509500D01*
X73603329Y-77513351D01*
X73425465Y-77541522D01*
X73230776Y-77604781D01*
X73048386Y-77697715D01*
X72882786Y-77818028D01*
X72738028Y-77962786D01*
X72617715Y-78128386D01*
X72570485Y-78221080D01*
X72522510Y-78271876D01*
X72454689Y-78288671D01*
X72388554Y-78266134D01*
X72349515Y-78221080D01*
X72302420Y-78128652D01*
X72302287Y-78128390D01*
X72270092Y-78084077D01*
X72181971Y-77962786D01*
X72037213Y-77818028D01*
X71871613Y-77697715D01*
X71871612Y-77697714D01*
X71871610Y-77697713D01*
X71811898Y-77667288D01*
X71689223Y-77604781D01*
X71494534Y-77541522D01*
X71319995Y-77513878D01*
X71292352Y-77509500D01*
X71087648Y-77509500D01*
X71063329Y-77513351D01*
X70885465Y-77541522D01*
X70690776Y-77604781D01*
X70508386Y-77697715D01*
X70342786Y-77818028D01*
X70198028Y-77962786D01*
X70077715Y-78128386D01*
X70030485Y-78221080D01*
X69982510Y-78271876D01*
X69914689Y-78288671D01*
X69848554Y-78266134D01*
X69809515Y-78221080D01*
X69762420Y-78128652D01*
X69762287Y-78128390D01*
X69730092Y-78084077D01*
X69641971Y-77962786D01*
X69497213Y-77818028D01*
X69331613Y-77697715D01*
X69331612Y-77697714D01*
X69331610Y-77697713D01*
X69271898Y-77667288D01*
X69149223Y-77604781D01*
X68954534Y-77541522D01*
X68779995Y-77513878D01*
X68752352Y-77509500D01*
X68547648Y-77509500D01*
X68523329Y-77513351D01*
X68345465Y-77541522D01*
X68150776Y-77604781D01*
X67968386Y-77697715D01*
X67802786Y-77818028D01*
X67658028Y-77962786D01*
X67537715Y-78128386D01*
X67490485Y-78221080D01*
X67442510Y-78271876D01*
X67374689Y-78288671D01*
X67308554Y-78266134D01*
X67269515Y-78221080D01*
X67222420Y-78128652D01*
X67222287Y-78128390D01*
X67190092Y-78084077D01*
X67101971Y-77962786D01*
X66957213Y-77818028D01*
X66791613Y-77697715D01*
X66791612Y-77697714D01*
X66791610Y-77697713D01*
X66731898Y-77667288D01*
X66609223Y-77604781D01*
X66414534Y-77541522D01*
X66239995Y-77513878D01*
X66212352Y-77509500D01*
X66007648Y-77509500D01*
X65983329Y-77513351D01*
X65805465Y-77541522D01*
X65610776Y-77604781D01*
X65428386Y-77697715D01*
X65262786Y-77818028D01*
X65118032Y-77962782D01*
X65118028Y-77962787D01*
X65049978Y-78056451D01*
X64994648Y-78099117D01*
X64925035Y-78105096D01*
X64863240Y-78072490D01*
X64831954Y-78022570D01*
X64812144Y-77962787D01*
X64804814Y-77940666D01*
X64712712Y-77791344D01*
X64588656Y-77667288D01*
X64439334Y-77575186D01*
X64272797Y-77520001D01*
X64272795Y-77520000D01*
X64170010Y-77509500D01*
X62969998Y-77509500D01*
X62969981Y-77509501D01*
X62867203Y-77520000D01*
X62867200Y-77520001D01*
X62700668Y-77575185D01*
X62700663Y-77575187D01*
X62551342Y-77667289D01*
X62427289Y-77791342D01*
X62335187Y-77940663D01*
X62335185Y-77940668D01*
X62308046Y-78022570D01*
X62280001Y-78107203D01*
X62280001Y-78107204D01*
X62280000Y-78107204D01*
X62269500Y-78209983D01*
X50500000Y-78209983D01*
X50500000Y-76550000D01*
X51950000Y-76550000D01*
X55050000Y-76550000D01*
X55050000Y-73450000D01*
X51950000Y-73450000D01*
X51950000Y-76550000D01*
X50500000Y-76550000D01*
X50500000Y-73277135D01*
X56949500Y-73277135D01*
X56949500Y-75072870D01*
X56949501Y-75072876D01*
X56955908Y-75132483D01*
X57006202Y-75267328D01*
X57006206Y-75267335D01*
X57092452Y-75382544D01*
X57092455Y-75382547D01*
X57207664Y-75468793D01*
X57207671Y-75468797D01*
X57252618Y-75485561D01*
X57342517Y-75519091D01*
X57402127Y-75525500D01*
X57412685Y-75525499D01*
X57479723Y-75545179D01*
X57500372Y-75561818D01*
X58170591Y-76232037D01*
X58107007Y-76249075D01*
X57992993Y-76314901D01*
X57899901Y-76407993D01*
X57834075Y-76522007D01*
X57817037Y-76585591D01*
X57184728Y-75953282D01*
X57184727Y-75953282D01*
X57145380Y-76007439D01*
X57048904Y-76196782D01*
X56983242Y-76398869D01*
X56983242Y-76398872D01*
X56950000Y-76608753D01*
X56950000Y-76821246D01*
X56983242Y-77031127D01*
X56983242Y-77031130D01*
X57048904Y-77233217D01*
X57145375Y-77422550D01*
X57184728Y-77476716D01*
X57817037Y-76844408D01*
X57834075Y-76907993D01*
X57899901Y-77022007D01*
X57992993Y-77115099D01*
X58107007Y-77180925D01*
X58170590Y-77197962D01*
X57538282Y-77830269D01*
X57538282Y-77830270D01*
X57592449Y-77869624D01*
X57781782Y-77966095D01*
X57983870Y-78031757D01*
X58193754Y-78065000D01*
X58406246Y-78065000D01*
X58616127Y-78031757D01*
X58616130Y-78031757D01*
X58818217Y-77966095D01*
X59007554Y-77869622D01*
X59061716Y-77830270D01*
X59061717Y-77830270D01*
X58429408Y-77197962D01*
X58492993Y-77180925D01*
X58607007Y-77115099D01*
X58700099Y-77022007D01*
X58765925Y-76907993D01*
X58782962Y-76844408D01*
X59415270Y-77476717D01*
X59415270Y-77476716D01*
X59454622Y-77422554D01*
X59551095Y-77233217D01*
X59616757Y-77031130D01*
X59616757Y-77031127D01*
X59650000Y-76821246D01*
X59650000Y-76608753D01*
X59616757Y-76398872D01*
X59616757Y-76398869D01*
X59551095Y-76196782D01*
X59454624Y-76007449D01*
X59415270Y-75953282D01*
X59415269Y-75953282D01*
X58782962Y-76585590D01*
X58765925Y-76522007D01*
X58700099Y-76407993D01*
X58607007Y-76314901D01*
X58492993Y-76249075D01*
X58429409Y-76232037D01*
X59099627Y-75561818D01*
X59160950Y-75528333D01*
X59187307Y-75525499D01*
X59197872Y-75525499D01*
X59257483Y-75519091D01*
X59392331Y-75468796D01*
X59507546Y-75382546D01*
X59593796Y-75267331D01*
X59644091Y-75132483D01*
X59650500Y-75072873D01*
X59650499Y-73277128D01*
X59644091Y-73217517D01*
X59593796Y-73082669D01*
X59593795Y-73082668D01*
X59593793Y-73082664D01*
X59507547Y-72967455D01*
X59507544Y-72967452D01*
X59392335Y-72881206D01*
X59392328Y-72881202D01*
X59257482Y-72830908D01*
X59257483Y-72830908D01*
X59197883Y-72824501D01*
X59197881Y-72824500D01*
X59197873Y-72824500D01*
X59197864Y-72824500D01*
X57402129Y-72824500D01*
X57402123Y-72824501D01*
X57342516Y-72830908D01*
X57207671Y-72881202D01*
X57207664Y-72881206D01*
X57092455Y-72967452D01*
X57092452Y-72967455D01*
X57006206Y-73082664D01*
X57006202Y-73082671D01*
X56955908Y-73217517D01*
X56949501Y-73277116D01*
X56949501Y-73277123D01*
X56949500Y-73277135D01*
X50500000Y-73277135D01*
X50500000Y-71087648D01*
X62269500Y-71087648D01*
X62269500Y-71292351D01*
X62301522Y-71494534D01*
X62364781Y-71689223D01*
X62457715Y-71871613D01*
X62578028Y-72037213D01*
X62722786Y-72181971D01*
X62877749Y-72294556D01*
X62888390Y-72302287D01*
X63004607Y-72361503D01*
X63070776Y-72395218D01*
X63070778Y-72395218D01*
X63070781Y-72395220D01*
X63175137Y-72429127D01*
X63265465Y-72458477D01*
X63366557Y-72474488D01*
X63467648Y-72490500D01*
X63467649Y-72490500D01*
X63672351Y-72490500D01*
X63672352Y-72490500D01*
X63874534Y-72458477D01*
X64069219Y-72395220D01*
X64251610Y-72302287D01*
X64344590Y-72234732D01*
X64417213Y-72181971D01*
X64417215Y-72181968D01*
X64417219Y-72181966D01*
X64561966Y-72037219D01*
X64561968Y-72037215D01*
X64561971Y-72037213D01*
X64682284Y-71871614D01*
X64682285Y-71871613D01*
X64682287Y-71871610D01*
X64729516Y-71778917D01*
X64777489Y-71728123D01*
X64845310Y-71711328D01*
X64911445Y-71733865D01*
X64950485Y-71778919D01*
X64997715Y-71871614D01*
X65118028Y-72037213D01*
X65262786Y-72181971D01*
X65417749Y-72294556D01*
X65428390Y-72302287D01*
X65544607Y-72361503D01*
X65610776Y-72395218D01*
X65610778Y-72395218D01*
X65610781Y-72395220D01*
X65715137Y-72429127D01*
X65805465Y-72458477D01*
X65906557Y-72474488D01*
X66007648Y-72490500D01*
X66007649Y-72490500D01*
X66212351Y-72490500D01*
X66212352Y-72490500D01*
X66414534Y-72458477D01*
X66609219Y-72395220D01*
X66791610Y-72302287D01*
X66884590Y-72234732D01*
X66957213Y-72181971D01*
X66957215Y-72181968D01*
X66957219Y-72181966D01*
X67101966Y-72037219D01*
X67101968Y-72037215D01*
X67101971Y-72037213D01*
X67222284Y-71871614D01*
X67222285Y-71871613D01*
X67222287Y-71871610D01*
X67269516Y-71778917D01*
X67317489Y-71728123D01*
X67385310Y-71711328D01*
X67451445Y-71733865D01*
X67490485Y-71778919D01*
X67537715Y-71871614D01*
X67658028Y-72037213D01*
X67802786Y-72181971D01*
X67957749Y-72294556D01*
X67968390Y-72302287D01*
X68084607Y-72361503D01*
X68150776Y-72395218D01*
X68150778Y-72395218D01*
X68150781Y-72395220D01*
X68255137Y-72429127D01*
X68345465Y-72458477D01*
X68446557Y-72474488D01*
X68547648Y-72490500D01*
X68547649Y-72490500D01*
X68752351Y-72490500D01*
X68752352Y-72490500D01*
X68954534Y-72458477D01*
X69149219Y-72395220D01*
X69331610Y-72302287D01*
X69424590Y-72234732D01*
X69497213Y-72181971D01*
X69497215Y-72181968D01*
X69497219Y-72181966D01*
X69641966Y-72037219D01*
X69641968Y-72037215D01*
X69641971Y-72037213D01*
X69762284Y-71871614D01*
X69762285Y-71871613D01*
X69762287Y-71871610D01*
X69809516Y-71778917D01*
X69857489Y-71728123D01*
X69925310Y-71711328D01*
X69991445Y-71733865D01*
X70030485Y-71778919D01*
X70077715Y-71871614D01*
X70198028Y-72037213D01*
X70342786Y-72181971D01*
X70497749Y-72294556D01*
X70508390Y-72302287D01*
X70624607Y-72361503D01*
X70690776Y-72395218D01*
X70690778Y-72395218D01*
X70690781Y-72395220D01*
X70795137Y-72429127D01*
X70885465Y-72458477D01*
X70986557Y-72474488D01*
X71087648Y-72490500D01*
X71087649Y-72490500D01*
X71292351Y-72490500D01*
X71292352Y-72490500D01*
X71494534Y-72458477D01*
X71689219Y-72395220D01*
X71871610Y-72302287D01*
X71964590Y-72234732D01*
X72037213Y-72181971D01*
X72037215Y-72181968D01*
X72037219Y-72181966D01*
X72181966Y-72037219D01*
X72181968Y-72037215D01*
X72181971Y-72037213D01*
X72302284Y-71871614D01*
X72302285Y-71871613D01*
X72302287Y-71871610D01*
X72349516Y-71778917D01*
X72397489Y-71728123D01*
X72465310Y-71711328D01*
X72531445Y-71733865D01*
X72570485Y-71778919D01*
X72617715Y-71871614D01*
X72738028Y-72037213D01*
X72882786Y-72181971D01*
X73037749Y-72294556D01*
X73048390Y-72302287D01*
X73164607Y-72361503D01*
X73230776Y-72395218D01*
X73230778Y-72395218D01*
X73230781Y-72395220D01*
X73335137Y-72429127D01*
X73425465Y-72458477D01*
X73526557Y-72474488D01*
X73627648Y-72490500D01*
X73627649Y-72490500D01*
X73832351Y-72490500D01*
X73832352Y-72490500D01*
X74034534Y-72458477D01*
X74229219Y-72395220D01*
X74411610Y-72302287D01*
X74504590Y-72234732D01*
X74577213Y-72181971D01*
X74577215Y-72181968D01*
X74577219Y-72181966D01*
X74721966Y-72037219D01*
X74721968Y-72037215D01*
X74721971Y-72037213D01*
X74842284Y-71871614D01*
X74842285Y-71871613D01*
X74842287Y-71871610D01*
X74889516Y-71778917D01*
X74937489Y-71728123D01*
X75005310Y-71711328D01*
X75071445Y-71733865D01*
X75110485Y-71778919D01*
X75157715Y-71871614D01*
X75278028Y-72037213D01*
X75422786Y-72181971D01*
X75577749Y-72294556D01*
X75588390Y-72302287D01*
X75704607Y-72361503D01*
X75770776Y-72395218D01*
X75770778Y-72395218D01*
X75770781Y-72395220D01*
X75875137Y-72429127D01*
X75965465Y-72458477D01*
X76066557Y-72474488D01*
X76167648Y-72490500D01*
X76167649Y-72490500D01*
X76372351Y-72490500D01*
X76372352Y-72490500D01*
X76574534Y-72458477D01*
X76769219Y-72395220D01*
X76951610Y-72302287D01*
X77044590Y-72234732D01*
X77117213Y-72181971D01*
X77117215Y-72181968D01*
X77117219Y-72181966D01*
X77261966Y-72037219D01*
X77261968Y-72037215D01*
X77261971Y-72037213D01*
X77382284Y-71871614D01*
X77382285Y-71871613D01*
X77382287Y-71871610D01*
X77429516Y-71778917D01*
X77477489Y-71728123D01*
X77545310Y-71711328D01*
X77611445Y-71733865D01*
X77650485Y-71778919D01*
X77697715Y-71871614D01*
X77818028Y-72037213D01*
X77962786Y-72181971D01*
X78117749Y-72294556D01*
X78128390Y-72302287D01*
X78244607Y-72361503D01*
X78310776Y-72395218D01*
X78310778Y-72395218D01*
X78310781Y-72395220D01*
X78415137Y-72429127D01*
X78505465Y-72458477D01*
X78606557Y-72474488D01*
X78707648Y-72490500D01*
X78707649Y-72490500D01*
X78912351Y-72490500D01*
X78912352Y-72490500D01*
X79114534Y-72458477D01*
X79309219Y-72395220D01*
X79491610Y-72302287D01*
X79584590Y-72234732D01*
X79657213Y-72181971D01*
X79657215Y-72181968D01*
X79657219Y-72181966D01*
X79801966Y-72037219D01*
X79801968Y-72037215D01*
X79801971Y-72037213D01*
X79922284Y-71871614D01*
X79922285Y-71871613D01*
X79922287Y-71871610D01*
X79969516Y-71778917D01*
X80017489Y-71728123D01*
X80085310Y-71711328D01*
X80151445Y-71733865D01*
X80190485Y-71778919D01*
X80237715Y-71871614D01*
X80358028Y-72037213D01*
X80502786Y-72181971D01*
X80657749Y-72294556D01*
X80668390Y-72302287D01*
X80784607Y-72361503D01*
X80850776Y-72395218D01*
X80850778Y-72395218D01*
X80850781Y-72395220D01*
X80955137Y-72429127D01*
X81045465Y-72458477D01*
X81146557Y-72474488D01*
X81247648Y-72490500D01*
X81247649Y-72490500D01*
X81452351Y-72490500D01*
X81452352Y-72490500D01*
X81654534Y-72458477D01*
X81849219Y-72395220D01*
X82031610Y-72302287D01*
X82124590Y-72234732D01*
X82197213Y-72181971D01*
X82197215Y-72181968D01*
X82197219Y-72181966D01*
X82341966Y-72037219D01*
X82341968Y-72037215D01*
X82341971Y-72037213D01*
X82462284Y-71871614D01*
X82462285Y-71871613D01*
X82462287Y-71871610D01*
X82509516Y-71778917D01*
X82557489Y-71728123D01*
X82625310Y-71711328D01*
X82691445Y-71733865D01*
X82730485Y-71778919D01*
X82777715Y-71871614D01*
X82898028Y-72037213D01*
X83042786Y-72181971D01*
X83197749Y-72294556D01*
X83208390Y-72302287D01*
X83324607Y-72361503D01*
X83390776Y-72395218D01*
X83390778Y-72395218D01*
X83390781Y-72395220D01*
X83495137Y-72429127D01*
X83585465Y-72458477D01*
X83686557Y-72474488D01*
X83787648Y-72490500D01*
X83787649Y-72490500D01*
X83992351Y-72490500D01*
X83992352Y-72490500D01*
X84194534Y-72458477D01*
X84389219Y-72395220D01*
X84571610Y-72302287D01*
X84664590Y-72234732D01*
X84737213Y-72181971D01*
X84737215Y-72181968D01*
X84737219Y-72181966D01*
X84881966Y-72037219D01*
X84881968Y-72037215D01*
X84881971Y-72037213D01*
X85002284Y-71871614D01*
X85002285Y-71871613D01*
X85002287Y-71871610D01*
X85049516Y-71778917D01*
X85097489Y-71728123D01*
X85165310Y-71711328D01*
X85231445Y-71733865D01*
X85270485Y-71778919D01*
X85317715Y-71871614D01*
X85438028Y-72037213D01*
X85582786Y-72181971D01*
X85737749Y-72294556D01*
X85748390Y-72302287D01*
X85864607Y-72361503D01*
X85930776Y-72395218D01*
X85930778Y-72395218D01*
X85930781Y-72395220D01*
X86035137Y-72429127D01*
X86125465Y-72458477D01*
X86226557Y-72474488D01*
X86327648Y-72490500D01*
X86327649Y-72490500D01*
X86532351Y-72490500D01*
X86532352Y-72490500D01*
X86734534Y-72458477D01*
X86929219Y-72395220D01*
X87111610Y-72302287D01*
X87204590Y-72234732D01*
X87277213Y-72181971D01*
X87277215Y-72181968D01*
X87277219Y-72181966D01*
X87421966Y-72037219D01*
X87421968Y-72037215D01*
X87421971Y-72037213D01*
X87474732Y-71964590D01*
X87542287Y-71871610D01*
X87635220Y-71689219D01*
X87698477Y-71494534D01*
X87730500Y-71292352D01*
X87730500Y-71087648D01*
X87698477Y-70885466D01*
X87635220Y-70690781D01*
X87635218Y-70690778D01*
X87635218Y-70690776D01*
X87589515Y-70601080D01*
X87542287Y-70508390D01*
X87534556Y-70497749D01*
X87421971Y-70342786D01*
X87277213Y-70198028D01*
X87111613Y-70077715D01*
X87111612Y-70077714D01*
X87111610Y-70077713D01*
X87054653Y-70048691D01*
X86929223Y-69984781D01*
X86734534Y-69921522D01*
X86559995Y-69893878D01*
X86532352Y-69889500D01*
X86327648Y-69889500D01*
X86303329Y-69893351D01*
X86125465Y-69921522D01*
X85930776Y-69984781D01*
X85748386Y-70077715D01*
X85582786Y-70198028D01*
X85438028Y-70342786D01*
X85317715Y-70508386D01*
X85270485Y-70601080D01*
X85222510Y-70651876D01*
X85154689Y-70668671D01*
X85088554Y-70646134D01*
X85049515Y-70601080D01*
X85048883Y-70599840D01*
X85002287Y-70508390D01*
X84994556Y-70497749D01*
X84881971Y-70342786D01*
X84737213Y-70198028D01*
X84571613Y-70077715D01*
X84571612Y-70077714D01*
X84571610Y-70077713D01*
X84514653Y-70048691D01*
X84389223Y-69984781D01*
X84194534Y-69921522D01*
X84019995Y-69893878D01*
X83992352Y-69889500D01*
X83787648Y-69889500D01*
X83763329Y-69893351D01*
X83585465Y-69921522D01*
X83390776Y-69984781D01*
X83208386Y-70077715D01*
X83042786Y-70198028D01*
X82898028Y-70342786D01*
X82777715Y-70508386D01*
X82730485Y-70601080D01*
X82682510Y-70651876D01*
X82614689Y-70668671D01*
X82548554Y-70646134D01*
X82509515Y-70601080D01*
X82508883Y-70599840D01*
X82462287Y-70508390D01*
X82454556Y-70497749D01*
X82341971Y-70342786D01*
X82197213Y-70198028D01*
X82031613Y-70077715D01*
X82031612Y-70077714D01*
X82031610Y-70077713D01*
X81974653Y-70048691D01*
X81849223Y-69984781D01*
X81654534Y-69921522D01*
X81479995Y-69893878D01*
X81452352Y-69889500D01*
X81247648Y-69889500D01*
X81223329Y-69893351D01*
X81045465Y-69921522D01*
X80850776Y-69984781D01*
X80668386Y-70077715D01*
X80502786Y-70198028D01*
X80358028Y-70342786D01*
X80237715Y-70508386D01*
X80190485Y-70601080D01*
X80142510Y-70651876D01*
X80074689Y-70668671D01*
X80008554Y-70646134D01*
X79969515Y-70601080D01*
X79968883Y-70599840D01*
X79922287Y-70508390D01*
X79914556Y-70497749D01*
X79801971Y-70342786D01*
X79657213Y-70198028D01*
X79491613Y-70077715D01*
X79491612Y-70077714D01*
X79491610Y-70077713D01*
X79434653Y-70048691D01*
X79309223Y-69984781D01*
X79114534Y-69921522D01*
X78939995Y-69893878D01*
X78912352Y-69889500D01*
X78707648Y-69889500D01*
X78683329Y-69893351D01*
X78505465Y-69921522D01*
X78310776Y-69984781D01*
X78128386Y-70077715D01*
X77962786Y-70198028D01*
X77818028Y-70342786D01*
X77697715Y-70508386D01*
X77650485Y-70601080D01*
X77602510Y-70651876D01*
X77534689Y-70668671D01*
X77468554Y-70646134D01*
X77429515Y-70601080D01*
X77428883Y-70599840D01*
X77382287Y-70508390D01*
X77374556Y-70497749D01*
X77261971Y-70342786D01*
X77117213Y-70198028D01*
X76951613Y-70077715D01*
X76951612Y-70077714D01*
X76951610Y-70077713D01*
X76894653Y-70048691D01*
X76769223Y-69984781D01*
X76574534Y-69921522D01*
X76399995Y-69893878D01*
X76372352Y-69889500D01*
X76167648Y-69889500D01*
X76143329Y-69893351D01*
X75965465Y-69921522D01*
X75770776Y-69984781D01*
X75588386Y-70077715D01*
X75422786Y-70198028D01*
X75278028Y-70342786D01*
X75157715Y-70508386D01*
X75110485Y-70601080D01*
X75062510Y-70651876D01*
X74994689Y-70668671D01*
X74928554Y-70646134D01*
X74889515Y-70601080D01*
X74888883Y-70599840D01*
X74842287Y-70508390D01*
X74834556Y-70497749D01*
X74721971Y-70342786D01*
X74577213Y-70198028D01*
X74411613Y-70077715D01*
X74411612Y-70077714D01*
X74411610Y-70077713D01*
X74354653Y-70048691D01*
X74229223Y-69984781D01*
X74034534Y-69921522D01*
X73859995Y-69893878D01*
X73832352Y-69889500D01*
X73627648Y-69889500D01*
X73603329Y-69893351D01*
X73425465Y-69921522D01*
X73230776Y-69984781D01*
X73048386Y-70077715D01*
X72882786Y-70198028D01*
X72738028Y-70342786D01*
X72617715Y-70508386D01*
X72570485Y-70601080D01*
X72522510Y-70651876D01*
X72454689Y-70668671D01*
X72388554Y-70646134D01*
X72349515Y-70601080D01*
X72348883Y-70599840D01*
X72302287Y-70508390D01*
X72294556Y-70497749D01*
X72181971Y-70342786D01*
X72037213Y-70198028D01*
X71871613Y-70077715D01*
X71871612Y-70077714D01*
X71871610Y-70077713D01*
X71814653Y-70048691D01*
X71689223Y-69984781D01*
X71494534Y-69921522D01*
X71319995Y-69893878D01*
X71292352Y-69889500D01*
X71087648Y-69889500D01*
X71063329Y-69893351D01*
X70885465Y-69921522D01*
X70690776Y-69984781D01*
X70508386Y-70077715D01*
X70342786Y-70198028D01*
X70198028Y-70342786D01*
X70077715Y-70508386D01*
X70030485Y-70601080D01*
X69982510Y-70651876D01*
X69914689Y-70668671D01*
X69848554Y-70646134D01*
X69809515Y-70601080D01*
X69808883Y-70599840D01*
X69762287Y-70508390D01*
X69754556Y-70497749D01*
X69641971Y-70342786D01*
X69497213Y-70198028D01*
X69331613Y-70077715D01*
X69331612Y-70077714D01*
X69331610Y-70077713D01*
X69274653Y-70048691D01*
X69149223Y-69984781D01*
X68954534Y-69921522D01*
X68779995Y-69893878D01*
X68752352Y-69889500D01*
X68547648Y-69889500D01*
X68523329Y-69893351D01*
X68345465Y-69921522D01*
X68150776Y-69984781D01*
X67968386Y-70077715D01*
X67802786Y-70198028D01*
X67658028Y-70342786D01*
X67537715Y-70508386D01*
X67490485Y-70601080D01*
X67442510Y-70651876D01*
X67374689Y-70668671D01*
X67308554Y-70646134D01*
X67269515Y-70601080D01*
X67268883Y-70599840D01*
X67222287Y-70508390D01*
X67214556Y-70497749D01*
X67101971Y-70342786D01*
X66957213Y-70198028D01*
X66791613Y-70077715D01*
X66791612Y-70077714D01*
X66791610Y-70077713D01*
X66734653Y-70048691D01*
X66609223Y-69984781D01*
X66414534Y-69921522D01*
X66239995Y-69893878D01*
X66212352Y-69889500D01*
X66007648Y-69889500D01*
X65983329Y-69893351D01*
X65805465Y-69921522D01*
X65610776Y-69984781D01*
X65428386Y-70077715D01*
X65262786Y-70198028D01*
X65118028Y-70342786D01*
X64997715Y-70508386D01*
X64950485Y-70601080D01*
X64902510Y-70651876D01*
X64834689Y-70668671D01*
X64768554Y-70646134D01*
X64729515Y-70601080D01*
X64728883Y-70599840D01*
X64682287Y-70508390D01*
X64674556Y-70497749D01*
X64561971Y-70342786D01*
X64417213Y-70198028D01*
X64251613Y-70077715D01*
X64251612Y-70077714D01*
X64251610Y-70077713D01*
X64194653Y-70048691D01*
X64069223Y-69984781D01*
X63874534Y-69921522D01*
X63699995Y-69893878D01*
X63672352Y-69889500D01*
X63467648Y-69889500D01*
X63443329Y-69893351D01*
X63265465Y-69921522D01*
X63070776Y-69984781D01*
X62888386Y-70077715D01*
X62722786Y-70198028D01*
X62578028Y-70342786D01*
X62457715Y-70508386D01*
X62364781Y-70690776D01*
X62301522Y-70885465D01*
X62269500Y-71087648D01*
X50500000Y-71087648D01*
X50500000Y-50624000D01*
X50519685Y-50556961D01*
X50572489Y-50511206D01*
X50624000Y-50500000D01*
X99376000Y-50500000D01*
X99443039Y-50519685D01*
G37*
%TD.AperFunction*%
%TD*%
%TA.AperFunction,Conductor*%
%TO.N,D_GND*%
G36*
X149443039Y-100519685D02*
G01*
X149488794Y-100572489D01*
X149500000Y-100624000D01*
X149500000Y-149376000D01*
X149480315Y-149443039D01*
X149427511Y-149488794D01*
X149376000Y-149500000D01*
X100624000Y-149500000D01*
X100556961Y-149480315D01*
X100511206Y-149427511D01*
X100500000Y-149376000D01*
X100500000Y-128209983D01*
X112269500Y-128209983D01*
X112269500Y-129410001D01*
X112269501Y-129410018D01*
X112280000Y-129512796D01*
X112280001Y-129512799D01*
X112296818Y-129563548D01*
X112335186Y-129679334D01*
X112427288Y-129828656D01*
X112551344Y-129952712D01*
X112700666Y-130044814D01*
X112867203Y-130099999D01*
X112969991Y-130110500D01*
X114170008Y-130110499D01*
X114272797Y-130099999D01*
X114439334Y-130044814D01*
X114588656Y-129952712D01*
X114712712Y-129828656D01*
X114804814Y-129679334D01*
X114831955Y-129597427D01*
X114871726Y-129539984D01*
X114936242Y-129513161D01*
X115005018Y-129525476D01*
X115049977Y-129563547D01*
X115118030Y-129657213D01*
X115118034Y-129657219D01*
X115262786Y-129801971D01*
X115383226Y-129889474D01*
X115428390Y-129922287D01*
X115544607Y-129981503D01*
X115610776Y-130015218D01*
X115610778Y-130015218D01*
X115610781Y-130015220D01*
X115701856Y-130044812D01*
X115805465Y-130078477D01*
X115906557Y-130094488D01*
X116007648Y-130110500D01*
X116007649Y-130110500D01*
X116212351Y-130110500D01*
X116212352Y-130110500D01*
X116414534Y-130078477D01*
X116609219Y-130015220D01*
X116791610Y-129922287D01*
X116920482Y-129828657D01*
X116957213Y-129801971D01*
X116957215Y-129801968D01*
X116957219Y-129801966D01*
X117101966Y-129657219D01*
X117101968Y-129657215D01*
X117101971Y-129657213D01*
X117222284Y-129491614D01*
X117222286Y-129491611D01*
X117222287Y-129491610D01*
X117269516Y-129398917D01*
X117317489Y-129348123D01*
X117385310Y-129331328D01*
X117451445Y-129353865D01*
X117490483Y-129398917D01*
X117496140Y-129410018D01*
X117537715Y-129491614D01*
X117658028Y-129657213D01*
X117802786Y-129801971D01*
X117923226Y-129889474D01*
X117968390Y-129922287D01*
X118084607Y-129981503D01*
X118150776Y-130015218D01*
X118150778Y-130015218D01*
X118150781Y-130015220D01*
X118241856Y-130044812D01*
X118345465Y-130078477D01*
X118446557Y-130094488D01*
X118547648Y-130110500D01*
X118547649Y-130110500D01*
X118752351Y-130110500D01*
X118752352Y-130110500D01*
X118954534Y-130078477D01*
X119149219Y-130015220D01*
X119331610Y-129922287D01*
X119460482Y-129828657D01*
X119497213Y-129801971D01*
X119497215Y-129801968D01*
X119497219Y-129801966D01*
X119641966Y-129657219D01*
X119641968Y-129657215D01*
X119641971Y-129657213D01*
X119762284Y-129491614D01*
X119762286Y-129491611D01*
X119762287Y-129491610D01*
X119809516Y-129398917D01*
X119857489Y-129348123D01*
X119925310Y-129331328D01*
X119991445Y-129353865D01*
X120030483Y-129398917D01*
X120036140Y-129410018D01*
X120077715Y-129491614D01*
X120198028Y-129657213D01*
X120342786Y-129801971D01*
X120463226Y-129889474D01*
X120508390Y-129922287D01*
X120624607Y-129981503D01*
X120690776Y-130015218D01*
X120690778Y-130015218D01*
X120690781Y-130015220D01*
X120781856Y-130044812D01*
X120885465Y-130078477D01*
X120986557Y-130094488D01*
X121087648Y-130110500D01*
X121087649Y-130110500D01*
X121292351Y-130110500D01*
X121292352Y-130110500D01*
X121494534Y-130078477D01*
X121689219Y-130015220D01*
X121871610Y-129922287D01*
X122000482Y-129828657D01*
X122037213Y-129801971D01*
X122037215Y-129801968D01*
X122037219Y-129801966D01*
X122181966Y-129657219D01*
X122181968Y-129657215D01*
X122181971Y-129657213D01*
X122302284Y-129491614D01*
X122302286Y-129491611D01*
X122302287Y-129491610D01*
X122349516Y-129398917D01*
X122397489Y-129348123D01*
X122465310Y-129331328D01*
X122531445Y-129353865D01*
X122570483Y-129398917D01*
X122576140Y-129410018D01*
X122617715Y-129491614D01*
X122738028Y-129657213D01*
X122882786Y-129801971D01*
X123003226Y-129889474D01*
X123048390Y-129922287D01*
X123164607Y-129981503D01*
X123230776Y-130015218D01*
X123230778Y-130015218D01*
X123230781Y-130015220D01*
X123321856Y-130044812D01*
X123425465Y-130078477D01*
X123526557Y-130094488D01*
X123627648Y-130110500D01*
X123627649Y-130110500D01*
X123832351Y-130110500D01*
X123832352Y-130110500D01*
X124034534Y-130078477D01*
X124229219Y-130015220D01*
X124411610Y-129922287D01*
X124540482Y-129828657D01*
X124577213Y-129801971D01*
X124577215Y-129801968D01*
X124577219Y-129801966D01*
X124721966Y-129657219D01*
X124721968Y-129657215D01*
X124721971Y-129657213D01*
X124842284Y-129491614D01*
X124842286Y-129491611D01*
X124842287Y-129491610D01*
X124889516Y-129398917D01*
X124937489Y-129348123D01*
X125005310Y-129331328D01*
X125071445Y-129353865D01*
X125110483Y-129398917D01*
X125116140Y-129410018D01*
X125157715Y-129491614D01*
X125278028Y-129657213D01*
X125422786Y-129801971D01*
X125543226Y-129889474D01*
X125588390Y-129922287D01*
X125704607Y-129981503D01*
X125770776Y-130015218D01*
X125770778Y-130015218D01*
X125770781Y-130015220D01*
X125861856Y-130044812D01*
X125965465Y-130078477D01*
X126066557Y-130094488D01*
X126167648Y-130110500D01*
X126167649Y-130110500D01*
X126372351Y-130110500D01*
X126372352Y-130110500D01*
X126574534Y-130078477D01*
X126769219Y-130015220D01*
X126951610Y-129922287D01*
X127080482Y-129828657D01*
X127117213Y-129801971D01*
X127117215Y-129801968D01*
X127117219Y-129801966D01*
X127261966Y-129657219D01*
X127261968Y-129657215D01*
X127261971Y-129657213D01*
X127366894Y-129512797D01*
X127382287Y-129491610D01*
X127429795Y-129398369D01*
X127477769Y-129347573D01*
X127545590Y-129330778D01*
X127611725Y-129353315D01*
X127650765Y-129398369D01*
X127698141Y-129491350D01*
X127698147Y-129491359D01*
X127730523Y-129535921D01*
X127730524Y-129535922D01*
X128410000Y-128856446D01*
X128410000Y-128862661D01*
X128437259Y-128964394D01*
X128489920Y-129055606D01*
X128564394Y-129130080D01*
X128655606Y-129182741D01*
X128757339Y-129210000D01*
X128763553Y-129210000D01*
X128084076Y-129889474D01*
X128128650Y-129921859D01*
X128310968Y-130014755D01*
X128505582Y-130077990D01*
X128707683Y-130110000D01*
X128912317Y-130110000D01*
X129114417Y-130077990D01*
X129309031Y-130014755D01*
X129491349Y-129921859D01*
X129535921Y-129889474D01*
X128856447Y-129210000D01*
X128862661Y-129210000D01*
X128964394Y-129182741D01*
X129055606Y-129130080D01*
X129130080Y-129055606D01*
X129182741Y-128964394D01*
X129210000Y-128862661D01*
X129210000Y-128856447D01*
X129889474Y-129535921D01*
X129921861Y-129491347D01*
X129921861Y-129491346D01*
X129969234Y-129398371D01*
X130017208Y-129347575D01*
X130085028Y-129330779D01*
X130151164Y-129353316D01*
X130190203Y-129398369D01*
X130237713Y-129491611D01*
X130358028Y-129657213D01*
X130502786Y-129801971D01*
X130623226Y-129889474D01*
X130668390Y-129922287D01*
X130784607Y-129981503D01*
X130850776Y-130015218D01*
X130850778Y-130015218D01*
X130850781Y-130015220D01*
X130941856Y-130044812D01*
X131045465Y-130078477D01*
X131146557Y-130094488D01*
X131247648Y-130110500D01*
X131247649Y-130110500D01*
X131452351Y-130110500D01*
X131452352Y-130110500D01*
X131654534Y-130078477D01*
X131849219Y-130015220D01*
X132031610Y-129922287D01*
X132160482Y-129828657D01*
X132197213Y-129801971D01*
X132197215Y-129801968D01*
X132197219Y-129801966D01*
X132341966Y-129657219D01*
X132341968Y-129657215D01*
X132341971Y-129657213D01*
X132462284Y-129491614D01*
X132462286Y-129491611D01*
X132462287Y-129491610D01*
X132509516Y-129398917D01*
X132557489Y-129348123D01*
X132625310Y-129331328D01*
X132691445Y-129353865D01*
X132730483Y-129398917D01*
X132736140Y-129410018D01*
X132777715Y-129491614D01*
X132898028Y-129657213D01*
X133042786Y-129801971D01*
X133163226Y-129889474D01*
X133208390Y-129922287D01*
X133324607Y-129981503D01*
X133390776Y-130015218D01*
X133390778Y-130015218D01*
X133390781Y-130015220D01*
X133481856Y-130044812D01*
X133585465Y-130078477D01*
X133686557Y-130094488D01*
X133787648Y-130110500D01*
X133787649Y-130110500D01*
X133992351Y-130110500D01*
X133992352Y-130110500D01*
X134194534Y-130078477D01*
X134389219Y-130015220D01*
X134571610Y-129922287D01*
X134700482Y-129828657D01*
X134737213Y-129801971D01*
X134737215Y-129801968D01*
X134737219Y-129801966D01*
X134881966Y-129657219D01*
X134881968Y-129657215D01*
X134881971Y-129657213D01*
X135002284Y-129491614D01*
X135002286Y-129491611D01*
X135002287Y-129491610D01*
X135049516Y-129398917D01*
X135097489Y-129348123D01*
X135165310Y-129331328D01*
X135231445Y-129353865D01*
X135270483Y-129398917D01*
X135276140Y-129410018D01*
X135317715Y-129491614D01*
X135438028Y-129657213D01*
X135582786Y-129801971D01*
X135703226Y-129889474D01*
X135748390Y-129922287D01*
X135864607Y-129981503D01*
X135930776Y-130015218D01*
X135930778Y-130015218D01*
X135930781Y-130015220D01*
X136021856Y-130044812D01*
X136125465Y-130078477D01*
X136226557Y-130094488D01*
X136327648Y-130110500D01*
X136327649Y-130110500D01*
X136532351Y-130110500D01*
X136532352Y-130110500D01*
X136734534Y-130078477D01*
X136929219Y-130015220D01*
X137111610Y-129922287D01*
X137240482Y-129828657D01*
X137277213Y-129801971D01*
X137277215Y-129801968D01*
X137277219Y-129801966D01*
X137421966Y-129657219D01*
X137421968Y-129657215D01*
X137421971Y-129657213D01*
X137490021Y-129563548D01*
X137542287Y-129491610D01*
X137635220Y-129309219D01*
X137698477Y-129114534D01*
X137730500Y-128912352D01*
X137730500Y-128707648D01*
X137722257Y-128655606D01*
X137698477Y-128505465D01*
X137635218Y-128310776D01*
X137583865Y-128209991D01*
X137542287Y-128128390D01*
X137510092Y-128084077D01*
X137421971Y-127962786D01*
X137277213Y-127818028D01*
X137111613Y-127697715D01*
X137111612Y-127697714D01*
X137111610Y-127697713D01*
X137051898Y-127667288D01*
X136929223Y-127604781D01*
X136734534Y-127541522D01*
X136559995Y-127513878D01*
X136532352Y-127509500D01*
X136327648Y-127509500D01*
X136303329Y-127513351D01*
X136125465Y-127541522D01*
X135930776Y-127604781D01*
X135748386Y-127697715D01*
X135582786Y-127818028D01*
X135438028Y-127962786D01*
X135317715Y-128128386D01*
X135270485Y-128221080D01*
X135222510Y-128271876D01*
X135154689Y-128288671D01*
X135088554Y-128266134D01*
X135049515Y-128221080D01*
X135002420Y-128128652D01*
X135002287Y-128128390D01*
X134970092Y-128084077D01*
X134881971Y-127962786D01*
X134737213Y-127818028D01*
X134571613Y-127697715D01*
X134571612Y-127697714D01*
X134571610Y-127697713D01*
X134511898Y-127667288D01*
X134389223Y-127604781D01*
X134194534Y-127541522D01*
X134019995Y-127513878D01*
X133992352Y-127509500D01*
X133787648Y-127509500D01*
X133763329Y-127513351D01*
X133585465Y-127541522D01*
X133390776Y-127604781D01*
X133208386Y-127697715D01*
X133042786Y-127818028D01*
X132898028Y-127962786D01*
X132777715Y-128128386D01*
X132730485Y-128221080D01*
X132682510Y-128271876D01*
X132614689Y-128288671D01*
X132548554Y-128266134D01*
X132509515Y-128221080D01*
X132462420Y-128128652D01*
X132462287Y-128128390D01*
X132430092Y-128084077D01*
X132341971Y-127962786D01*
X132197213Y-127818028D01*
X132031613Y-127697715D01*
X132031612Y-127697714D01*
X132031610Y-127697713D01*
X131971898Y-127667288D01*
X131849223Y-127604781D01*
X131654534Y-127541522D01*
X131479995Y-127513878D01*
X131452352Y-127509500D01*
X131247648Y-127509500D01*
X131223329Y-127513351D01*
X131045465Y-127541522D01*
X130850776Y-127604781D01*
X130668386Y-127697715D01*
X130502786Y-127818028D01*
X130358028Y-127962786D01*
X130237713Y-128128388D01*
X130190203Y-128221630D01*
X130142228Y-128272426D01*
X130074407Y-128289220D01*
X130008272Y-128266682D01*
X129969234Y-128221628D01*
X129921861Y-128128652D01*
X129889474Y-128084077D01*
X129889474Y-128084076D01*
X129210000Y-128763551D01*
X129210000Y-128757339D01*
X129182741Y-128655606D01*
X129130080Y-128564394D01*
X129055606Y-128489920D01*
X128964394Y-128437259D01*
X128862661Y-128410000D01*
X128856446Y-128410000D01*
X129535922Y-127730524D01*
X129535921Y-127730523D01*
X129491359Y-127698147D01*
X129491350Y-127698141D01*
X129309031Y-127605244D01*
X129114417Y-127542009D01*
X128912317Y-127510000D01*
X128707683Y-127510000D01*
X128505582Y-127542009D01*
X128310968Y-127605244D01*
X128128644Y-127698143D01*
X128084077Y-127730523D01*
X128084077Y-127730524D01*
X128763554Y-128410000D01*
X128757339Y-128410000D01*
X128655606Y-128437259D01*
X128564394Y-128489920D01*
X128489920Y-128564394D01*
X128437259Y-128655606D01*
X128410000Y-128757339D01*
X128410000Y-128763553D01*
X127730524Y-128084077D01*
X127730523Y-128084077D01*
X127698143Y-128128644D01*
X127650765Y-128221630D01*
X127602790Y-128272426D01*
X127534969Y-128289221D01*
X127468834Y-128266683D01*
X127429795Y-128221630D01*
X127382284Y-128128385D01*
X127261971Y-127962786D01*
X127117213Y-127818028D01*
X126951613Y-127697715D01*
X126951612Y-127697714D01*
X126951610Y-127697713D01*
X126891898Y-127667288D01*
X126769223Y-127604781D01*
X126574534Y-127541522D01*
X126399995Y-127513878D01*
X126372352Y-127509500D01*
X126167648Y-127509500D01*
X126143329Y-127513351D01*
X125965465Y-127541522D01*
X125770776Y-127604781D01*
X125588386Y-127697715D01*
X125422786Y-127818028D01*
X125278028Y-127962786D01*
X125157715Y-128128386D01*
X125110485Y-128221080D01*
X125062510Y-128271876D01*
X124994689Y-128288671D01*
X124928554Y-128266134D01*
X124889515Y-128221080D01*
X124842420Y-128128652D01*
X124842287Y-128128390D01*
X124810092Y-128084077D01*
X124721971Y-127962786D01*
X124577213Y-127818028D01*
X124411613Y-127697715D01*
X124411612Y-127697714D01*
X124411610Y-127697713D01*
X124351898Y-127667288D01*
X124229223Y-127604781D01*
X124034534Y-127541522D01*
X123859995Y-127513878D01*
X123832352Y-127509500D01*
X123627648Y-127509500D01*
X123603329Y-127513351D01*
X123425465Y-127541522D01*
X123230776Y-127604781D01*
X123048386Y-127697715D01*
X122882786Y-127818028D01*
X122738028Y-127962786D01*
X122617715Y-128128386D01*
X122570485Y-128221080D01*
X122522510Y-128271876D01*
X122454689Y-128288671D01*
X122388554Y-128266134D01*
X122349515Y-128221080D01*
X122302420Y-128128652D01*
X122302287Y-128128390D01*
X122270092Y-128084077D01*
X122181971Y-127962786D01*
X122037213Y-127818028D01*
X121871613Y-127697715D01*
X121871612Y-127697714D01*
X121871610Y-127697713D01*
X121811898Y-127667288D01*
X121689223Y-127604781D01*
X121494534Y-127541522D01*
X121319995Y-127513878D01*
X121292352Y-127509500D01*
X121087648Y-127509500D01*
X121063329Y-127513351D01*
X120885465Y-127541522D01*
X120690776Y-127604781D01*
X120508386Y-127697715D01*
X120342786Y-127818028D01*
X120198028Y-127962786D01*
X120077715Y-128128386D01*
X120030485Y-128221080D01*
X119982510Y-128271876D01*
X119914689Y-128288671D01*
X119848554Y-128266134D01*
X119809515Y-128221080D01*
X119762420Y-128128652D01*
X119762287Y-128128390D01*
X119730092Y-128084077D01*
X119641971Y-127962786D01*
X119497213Y-127818028D01*
X119331613Y-127697715D01*
X119331612Y-127697714D01*
X119331610Y-127697713D01*
X119271898Y-127667288D01*
X119149223Y-127604781D01*
X118954534Y-127541522D01*
X118779995Y-127513878D01*
X118752352Y-127509500D01*
X118547648Y-127509500D01*
X118523329Y-127513351D01*
X118345465Y-127541522D01*
X118150776Y-127604781D01*
X117968386Y-127697715D01*
X117802786Y-127818028D01*
X117658028Y-127962786D01*
X117537715Y-128128386D01*
X117490485Y-128221080D01*
X117442510Y-128271876D01*
X117374689Y-128288671D01*
X117308554Y-128266134D01*
X117269515Y-128221080D01*
X117222420Y-128128652D01*
X117222287Y-128128390D01*
X117190092Y-128084077D01*
X117101971Y-127962786D01*
X116957213Y-127818028D01*
X116791613Y-127697715D01*
X116791612Y-127697714D01*
X116791610Y-127697713D01*
X116731898Y-127667288D01*
X116609223Y-127604781D01*
X116414534Y-127541522D01*
X116239995Y-127513878D01*
X116212352Y-127509500D01*
X116007648Y-127509500D01*
X115983329Y-127513351D01*
X115805465Y-127541522D01*
X115610776Y-127604781D01*
X115428386Y-127697715D01*
X115262786Y-127818028D01*
X115118032Y-127962782D01*
X115118028Y-127962787D01*
X115049978Y-128056451D01*
X114994648Y-128099117D01*
X114925035Y-128105096D01*
X114863240Y-128072490D01*
X114831954Y-128022570D01*
X114812144Y-127962787D01*
X114804814Y-127940666D01*
X114712712Y-127791344D01*
X114588656Y-127667288D01*
X114439334Y-127575186D01*
X114272797Y-127520001D01*
X114272795Y-127520000D01*
X114170010Y-127509500D01*
X112969998Y-127509500D01*
X112969981Y-127509501D01*
X112867203Y-127520000D01*
X112867200Y-127520001D01*
X112700668Y-127575185D01*
X112700663Y-127575187D01*
X112551342Y-127667289D01*
X112427289Y-127791342D01*
X112335187Y-127940663D01*
X112335185Y-127940668D01*
X112308046Y-128022570D01*
X112280001Y-128107203D01*
X112280001Y-128107204D01*
X112280000Y-128107204D01*
X112269500Y-128209983D01*
X100500000Y-128209983D01*
X100500000Y-126550000D01*
X101950000Y-126550000D01*
X105050000Y-126550000D01*
X105050000Y-123450000D01*
X101950000Y-123450000D01*
X101950000Y-126550000D01*
X100500000Y-126550000D01*
X100500000Y-123277135D01*
X106949500Y-123277135D01*
X106949500Y-125072870D01*
X106949501Y-125072876D01*
X106955908Y-125132483D01*
X107006202Y-125267328D01*
X107006206Y-125267335D01*
X107092452Y-125382544D01*
X107092455Y-125382547D01*
X107207664Y-125468793D01*
X107207671Y-125468797D01*
X107252618Y-125485561D01*
X107342517Y-125519091D01*
X107402127Y-125525500D01*
X107412685Y-125525499D01*
X107479723Y-125545179D01*
X107500372Y-125561818D01*
X108170591Y-126232037D01*
X108107007Y-126249075D01*
X107992993Y-126314901D01*
X107899901Y-126407993D01*
X107834075Y-126522007D01*
X107817037Y-126585591D01*
X107184728Y-125953282D01*
X107184727Y-125953282D01*
X107145380Y-126007439D01*
X107048904Y-126196782D01*
X106983242Y-126398869D01*
X106983242Y-126398872D01*
X106950000Y-126608753D01*
X106950000Y-126821246D01*
X106983242Y-127031127D01*
X106983242Y-127031130D01*
X107048904Y-127233217D01*
X107145375Y-127422550D01*
X107184728Y-127476716D01*
X107817037Y-126844408D01*
X107834075Y-126907993D01*
X107899901Y-127022007D01*
X107992993Y-127115099D01*
X108107007Y-127180925D01*
X108170590Y-127197962D01*
X107538282Y-127830269D01*
X107538282Y-127830270D01*
X107592449Y-127869624D01*
X107781782Y-127966095D01*
X107983870Y-128031757D01*
X108193754Y-128065000D01*
X108406246Y-128065000D01*
X108616127Y-128031757D01*
X108616130Y-128031757D01*
X108818217Y-127966095D01*
X109007554Y-127869622D01*
X109061716Y-127830270D01*
X109061717Y-127830270D01*
X108429408Y-127197962D01*
X108492993Y-127180925D01*
X108607007Y-127115099D01*
X108700099Y-127022007D01*
X108765925Y-126907993D01*
X108782962Y-126844408D01*
X109415270Y-127476717D01*
X109415270Y-127476716D01*
X109454622Y-127422554D01*
X109551095Y-127233217D01*
X109616757Y-127031130D01*
X109616757Y-127031127D01*
X109650000Y-126821246D01*
X109650000Y-126608753D01*
X109616757Y-126398872D01*
X109616757Y-126398869D01*
X109551095Y-126196782D01*
X109454624Y-126007449D01*
X109415270Y-125953282D01*
X109415269Y-125953282D01*
X108782962Y-126585590D01*
X108765925Y-126522007D01*
X108700099Y-126407993D01*
X108607007Y-126314901D01*
X108492993Y-126249075D01*
X108429409Y-126232037D01*
X109099627Y-125561818D01*
X109160950Y-125528333D01*
X109187307Y-125525499D01*
X109197872Y-125525499D01*
X109257483Y-125519091D01*
X109392331Y-125468796D01*
X109507546Y-125382546D01*
X109593796Y-125267331D01*
X109644091Y-125132483D01*
X109650500Y-125072873D01*
X109650499Y-123277128D01*
X109644091Y-123217517D01*
X109593796Y-123082669D01*
X109593795Y-123082668D01*
X109593793Y-123082664D01*
X109507547Y-122967455D01*
X109507544Y-122967452D01*
X109392335Y-122881206D01*
X109392328Y-122881202D01*
X109257482Y-122830908D01*
X109257483Y-122830908D01*
X109197883Y-122824501D01*
X109197881Y-122824500D01*
X109197873Y-122824500D01*
X109197864Y-122824500D01*
X107402129Y-122824500D01*
X107402123Y-122824501D01*
X107342516Y-122830908D01*
X107207671Y-122881202D01*
X107207664Y-122881206D01*
X107092455Y-122967452D01*
X107092452Y-122967455D01*
X107006206Y-123082664D01*
X107006202Y-123082671D01*
X106955908Y-123217517D01*
X106949501Y-123277116D01*
X106949501Y-123277123D01*
X106949500Y-123277135D01*
X100500000Y-123277135D01*
X100500000Y-121087648D01*
X112269500Y-121087648D01*
X112269500Y-121292351D01*
X112301522Y-121494534D01*
X112364781Y-121689223D01*
X112457715Y-121871613D01*
X112578028Y-122037213D01*
X112722786Y-122181971D01*
X112877749Y-122294556D01*
X112888390Y-122302287D01*
X113004607Y-122361503D01*
X113070776Y-122395218D01*
X113070778Y-122395218D01*
X113070781Y-122395220D01*
X113175137Y-122429127D01*
X113265465Y-122458477D01*
X113366557Y-122474488D01*
X113467648Y-122490500D01*
X113467649Y-122490500D01*
X113672351Y-122490500D01*
X113672352Y-122490500D01*
X113874534Y-122458477D01*
X114069219Y-122395220D01*
X114251610Y-122302287D01*
X114344590Y-122234732D01*
X114417213Y-122181971D01*
X114417215Y-122181968D01*
X114417219Y-122181966D01*
X114561966Y-122037219D01*
X114561968Y-122037215D01*
X114561971Y-122037213D01*
X114682284Y-121871614D01*
X114682285Y-121871613D01*
X114682287Y-121871610D01*
X114729516Y-121778917D01*
X114777489Y-121728123D01*
X114845310Y-121711328D01*
X114911445Y-121733865D01*
X114950485Y-121778919D01*
X114997715Y-121871614D01*
X115118028Y-122037213D01*
X115262786Y-122181971D01*
X115417749Y-122294556D01*
X115428390Y-122302287D01*
X115544607Y-122361503D01*
X115610776Y-122395218D01*
X115610778Y-122395218D01*
X115610781Y-122395220D01*
X115715137Y-122429127D01*
X115805465Y-122458477D01*
X115906557Y-122474488D01*
X116007648Y-122490500D01*
X116007649Y-122490500D01*
X116212351Y-122490500D01*
X116212352Y-122490500D01*
X116414534Y-122458477D01*
X116609219Y-122395220D01*
X116791610Y-122302287D01*
X116884590Y-122234732D01*
X116957213Y-122181971D01*
X116957215Y-122181968D01*
X116957219Y-122181966D01*
X117101966Y-122037219D01*
X117101968Y-122037215D01*
X117101971Y-122037213D01*
X117222284Y-121871614D01*
X117222285Y-121871613D01*
X117222287Y-121871610D01*
X117269516Y-121778917D01*
X117317489Y-121728123D01*
X117385310Y-121711328D01*
X117451445Y-121733865D01*
X117490485Y-121778919D01*
X117537715Y-121871614D01*
X117658028Y-122037213D01*
X117802786Y-122181971D01*
X117957749Y-122294556D01*
X117968390Y-122302287D01*
X118084607Y-122361503D01*
X118150776Y-122395218D01*
X118150778Y-122395218D01*
X118150781Y-122395220D01*
X118255137Y-122429127D01*
X118345465Y-122458477D01*
X118446557Y-122474488D01*
X118547648Y-122490500D01*
X118547649Y-122490500D01*
X118752351Y-122490500D01*
X118752352Y-122490500D01*
X118954534Y-122458477D01*
X119149219Y-122395220D01*
X119331610Y-122302287D01*
X119424590Y-122234732D01*
X119497213Y-122181971D01*
X119497215Y-122181968D01*
X119497219Y-122181966D01*
X119641966Y-122037219D01*
X119641968Y-122037215D01*
X119641971Y-122037213D01*
X119762284Y-121871614D01*
X119762285Y-121871613D01*
X119762287Y-121871610D01*
X119809516Y-121778917D01*
X119857489Y-121728123D01*
X119925310Y-121711328D01*
X119991445Y-121733865D01*
X120030485Y-121778919D01*
X120077715Y-121871614D01*
X120198028Y-122037213D01*
X120342786Y-122181971D01*
X120497749Y-122294556D01*
X120508390Y-122302287D01*
X120624607Y-122361503D01*
X120690776Y-122395218D01*
X120690778Y-122395218D01*
X120690781Y-122395220D01*
X120795137Y-122429127D01*
X120885465Y-122458477D01*
X120986557Y-122474488D01*
X121087648Y-122490500D01*
X121087649Y-122490500D01*
X121292351Y-122490500D01*
X121292352Y-122490500D01*
X121494534Y-122458477D01*
X121689219Y-122395220D01*
X121871610Y-122302287D01*
X121964590Y-122234732D01*
X122037213Y-122181971D01*
X122037215Y-122181968D01*
X122037219Y-122181966D01*
X122181966Y-122037219D01*
X122181968Y-122037215D01*
X122181971Y-122037213D01*
X122302284Y-121871614D01*
X122302285Y-121871613D01*
X122302287Y-121871610D01*
X122349516Y-121778917D01*
X122397489Y-121728123D01*
X122465310Y-121711328D01*
X122531445Y-121733865D01*
X122570485Y-121778919D01*
X122617715Y-121871614D01*
X122738028Y-122037213D01*
X122882786Y-122181971D01*
X123037749Y-122294556D01*
X123048390Y-122302287D01*
X123164607Y-122361503D01*
X123230776Y-122395218D01*
X123230778Y-122395218D01*
X123230781Y-122395220D01*
X123335137Y-122429127D01*
X123425465Y-122458477D01*
X123526557Y-122474488D01*
X123627648Y-122490500D01*
X123627649Y-122490500D01*
X123832351Y-122490500D01*
X123832352Y-122490500D01*
X124034534Y-122458477D01*
X124229219Y-122395220D01*
X124411610Y-122302287D01*
X124504590Y-122234732D01*
X124577213Y-122181971D01*
X124577215Y-122181968D01*
X124577219Y-122181966D01*
X124721966Y-122037219D01*
X124721968Y-122037215D01*
X124721971Y-122037213D01*
X124842284Y-121871614D01*
X124842285Y-121871613D01*
X124842287Y-121871610D01*
X124889516Y-121778917D01*
X124937489Y-121728123D01*
X125005310Y-121711328D01*
X125071445Y-121733865D01*
X125110485Y-121778919D01*
X125157715Y-121871614D01*
X125278028Y-122037213D01*
X125422786Y-122181971D01*
X125577749Y-122294556D01*
X125588390Y-122302287D01*
X125704607Y-122361503D01*
X125770776Y-122395218D01*
X125770778Y-122395218D01*
X125770781Y-122395220D01*
X125875137Y-122429127D01*
X125965465Y-122458477D01*
X126066557Y-122474488D01*
X126167648Y-122490500D01*
X126167649Y-122490500D01*
X126372351Y-122490500D01*
X126372352Y-122490500D01*
X126574534Y-122458477D01*
X126769219Y-122395220D01*
X126951610Y-122302287D01*
X127044590Y-122234732D01*
X127117213Y-122181971D01*
X127117215Y-122181968D01*
X127117219Y-122181966D01*
X127261966Y-122037219D01*
X127261968Y-122037215D01*
X127261971Y-122037213D01*
X127382284Y-121871614D01*
X127382285Y-121871613D01*
X127382287Y-121871610D01*
X127429516Y-121778917D01*
X127477489Y-121728123D01*
X127545310Y-121711328D01*
X127611445Y-121733865D01*
X127650485Y-121778919D01*
X127697715Y-121871614D01*
X127818028Y-122037213D01*
X127962786Y-122181971D01*
X128117749Y-122294556D01*
X128128390Y-122302287D01*
X128244607Y-122361503D01*
X128310776Y-122395218D01*
X128310778Y-122395218D01*
X128310781Y-122395220D01*
X128415137Y-122429127D01*
X128505465Y-122458477D01*
X128606557Y-122474488D01*
X128707648Y-122490500D01*
X128707649Y-122490500D01*
X128912351Y-122490500D01*
X128912352Y-122490500D01*
X129114534Y-122458477D01*
X129309219Y-122395220D01*
X129491610Y-122302287D01*
X129584590Y-122234732D01*
X129657213Y-122181971D01*
X129657215Y-122181968D01*
X129657219Y-122181966D01*
X129801966Y-122037219D01*
X129801968Y-122037215D01*
X129801971Y-122037213D01*
X129922284Y-121871614D01*
X129922285Y-121871613D01*
X129922287Y-121871610D01*
X129969516Y-121778917D01*
X130017489Y-121728123D01*
X130085310Y-121711328D01*
X130151445Y-121733865D01*
X130190485Y-121778919D01*
X130237715Y-121871614D01*
X130358028Y-122037213D01*
X130502786Y-122181971D01*
X130657749Y-122294556D01*
X130668390Y-122302287D01*
X130784607Y-122361503D01*
X130850776Y-122395218D01*
X130850778Y-122395218D01*
X130850781Y-122395220D01*
X130955137Y-122429127D01*
X131045465Y-122458477D01*
X131146557Y-122474488D01*
X131247648Y-122490500D01*
X131247649Y-122490500D01*
X131452351Y-122490500D01*
X131452352Y-122490500D01*
X131654534Y-122458477D01*
X131849219Y-122395220D01*
X132031610Y-122302287D01*
X132124590Y-122234732D01*
X132197213Y-122181971D01*
X132197215Y-122181968D01*
X132197219Y-122181966D01*
X132341966Y-122037219D01*
X132341968Y-122037215D01*
X132341971Y-122037213D01*
X132462284Y-121871614D01*
X132462285Y-121871613D01*
X132462287Y-121871610D01*
X132509516Y-121778917D01*
X132557489Y-121728123D01*
X132625310Y-121711328D01*
X132691445Y-121733865D01*
X132730485Y-121778919D01*
X132777715Y-121871614D01*
X132898028Y-122037213D01*
X133042786Y-122181971D01*
X133197749Y-122294556D01*
X133208390Y-122302287D01*
X133324607Y-122361503D01*
X133390776Y-122395218D01*
X133390778Y-122395218D01*
X133390781Y-122395220D01*
X133495137Y-122429127D01*
X133585465Y-122458477D01*
X133686557Y-122474488D01*
X133787648Y-122490500D01*
X133787649Y-122490500D01*
X133992351Y-122490500D01*
X133992352Y-122490500D01*
X134194534Y-122458477D01*
X134389219Y-122395220D01*
X134571610Y-122302287D01*
X134664590Y-122234732D01*
X134737213Y-122181971D01*
X134737215Y-122181968D01*
X134737219Y-122181966D01*
X134881966Y-122037219D01*
X134881968Y-122037215D01*
X134881971Y-122037213D01*
X135002284Y-121871614D01*
X135002285Y-121871613D01*
X135002287Y-121871610D01*
X135049516Y-121778917D01*
X135097489Y-121728123D01*
X135165310Y-121711328D01*
X135231445Y-121733865D01*
X135270485Y-121778919D01*
X135317715Y-121871614D01*
X135438028Y-122037213D01*
X135582786Y-122181971D01*
X135737749Y-122294556D01*
X135748390Y-122302287D01*
X135864607Y-122361503D01*
X135930776Y-122395218D01*
X135930778Y-122395218D01*
X135930781Y-122395220D01*
X136035137Y-122429127D01*
X136125465Y-122458477D01*
X136226557Y-122474488D01*
X136327648Y-122490500D01*
X136327649Y-122490500D01*
X136532351Y-122490500D01*
X136532352Y-122490500D01*
X136734534Y-122458477D01*
X136929219Y-122395220D01*
X137111610Y-122302287D01*
X137204590Y-122234732D01*
X137277213Y-122181971D01*
X137277215Y-122181968D01*
X137277219Y-122181966D01*
X137421966Y-122037219D01*
X137421968Y-122037215D01*
X137421971Y-122037213D01*
X137474732Y-121964590D01*
X137542287Y-121871610D01*
X137635220Y-121689219D01*
X137698477Y-121494534D01*
X137730500Y-121292352D01*
X137730500Y-121087648D01*
X137698477Y-120885466D01*
X137635220Y-120690781D01*
X137635218Y-120690778D01*
X137635218Y-120690776D01*
X137589515Y-120601080D01*
X137542287Y-120508390D01*
X137534556Y-120497749D01*
X137421971Y-120342786D01*
X137277213Y-120198028D01*
X137111613Y-120077715D01*
X137111612Y-120077714D01*
X137111610Y-120077713D01*
X137054653Y-120048691D01*
X136929223Y-119984781D01*
X136734534Y-119921522D01*
X136559995Y-119893878D01*
X136532352Y-119889500D01*
X136327648Y-119889500D01*
X136303329Y-119893351D01*
X136125465Y-119921522D01*
X135930776Y-119984781D01*
X135748386Y-120077715D01*
X135582786Y-120198028D01*
X135438028Y-120342786D01*
X135317715Y-120508386D01*
X135270485Y-120601080D01*
X135222510Y-120651876D01*
X135154689Y-120668671D01*
X135088554Y-120646134D01*
X135049515Y-120601080D01*
X135048883Y-120599840D01*
X135002287Y-120508390D01*
X134994556Y-120497749D01*
X134881971Y-120342786D01*
X134737213Y-120198028D01*
X134571613Y-120077715D01*
X134571612Y-120077714D01*
X134571610Y-120077713D01*
X134514653Y-120048691D01*
X134389223Y-119984781D01*
X134194534Y-119921522D01*
X134019995Y-119893878D01*
X133992352Y-119889500D01*
X133787648Y-119889500D01*
X133763329Y-119893351D01*
X133585465Y-119921522D01*
X133390776Y-119984781D01*
X133208386Y-120077715D01*
X133042786Y-120198028D01*
X132898028Y-120342786D01*
X132777715Y-120508386D01*
X132730485Y-120601080D01*
X132682510Y-120651876D01*
X132614689Y-120668671D01*
X132548554Y-120646134D01*
X132509515Y-120601080D01*
X132508883Y-120599840D01*
X132462287Y-120508390D01*
X132454556Y-120497749D01*
X132341971Y-120342786D01*
X132197213Y-120198028D01*
X132031613Y-120077715D01*
X132031612Y-120077714D01*
X132031610Y-120077713D01*
X131974653Y-120048691D01*
X131849223Y-119984781D01*
X131654534Y-119921522D01*
X131479995Y-119893878D01*
X131452352Y-119889500D01*
X131247648Y-119889500D01*
X131223329Y-119893351D01*
X131045465Y-119921522D01*
X130850776Y-119984781D01*
X130668386Y-120077715D01*
X130502786Y-120198028D01*
X130358028Y-120342786D01*
X130237715Y-120508386D01*
X130190485Y-120601080D01*
X130142510Y-120651876D01*
X130074689Y-120668671D01*
X130008554Y-120646134D01*
X129969515Y-120601080D01*
X129968883Y-120599840D01*
X129922287Y-120508390D01*
X129914556Y-120497749D01*
X129801971Y-120342786D01*
X129657213Y-120198028D01*
X129491613Y-120077715D01*
X129491612Y-120077714D01*
X129491610Y-120077713D01*
X129434653Y-120048691D01*
X129309223Y-119984781D01*
X129114534Y-119921522D01*
X128939995Y-119893878D01*
X128912352Y-119889500D01*
X128707648Y-119889500D01*
X128683329Y-119893351D01*
X128505465Y-119921522D01*
X128310776Y-119984781D01*
X128128386Y-120077715D01*
X127962786Y-120198028D01*
X127818028Y-120342786D01*
X127697715Y-120508386D01*
X127650485Y-120601080D01*
X127602510Y-120651876D01*
X127534689Y-120668671D01*
X127468554Y-120646134D01*
X127429515Y-120601080D01*
X127428883Y-120599840D01*
X127382287Y-120508390D01*
X127374556Y-120497749D01*
X127261971Y-120342786D01*
X127117213Y-120198028D01*
X126951613Y-120077715D01*
X126951612Y-120077714D01*
X126951610Y-120077713D01*
X126894653Y-120048691D01*
X126769223Y-119984781D01*
X126574534Y-119921522D01*
X126399995Y-119893878D01*
X126372352Y-119889500D01*
X126167648Y-119889500D01*
X126143329Y-119893351D01*
X125965465Y-119921522D01*
X125770776Y-119984781D01*
X125588386Y-120077715D01*
X125422786Y-120198028D01*
X125278028Y-120342786D01*
X125157715Y-120508386D01*
X125110485Y-120601080D01*
X125062510Y-120651876D01*
X124994689Y-120668671D01*
X124928554Y-120646134D01*
X124889515Y-120601080D01*
X124888883Y-120599840D01*
X124842287Y-120508390D01*
X124834556Y-120497749D01*
X124721971Y-120342786D01*
X124577213Y-120198028D01*
X124411613Y-120077715D01*
X124411612Y-120077714D01*
X124411610Y-120077713D01*
X124354653Y-120048691D01*
X124229223Y-119984781D01*
X124034534Y-119921522D01*
X123859995Y-119893878D01*
X123832352Y-119889500D01*
X123627648Y-119889500D01*
X123603329Y-119893351D01*
X123425465Y-119921522D01*
X123230776Y-119984781D01*
X123048386Y-120077715D01*
X122882786Y-120198028D01*
X122738028Y-120342786D01*
X122617715Y-120508386D01*
X122570485Y-120601080D01*
X122522510Y-120651876D01*
X122454689Y-120668671D01*
X122388554Y-120646134D01*
X122349515Y-120601080D01*
X122348883Y-120599840D01*
X122302287Y-120508390D01*
X122294556Y-120497749D01*
X122181971Y-120342786D01*
X122037213Y-120198028D01*
X121871613Y-120077715D01*
X121871612Y-120077714D01*
X121871610Y-120077713D01*
X121814653Y-120048691D01*
X121689223Y-119984781D01*
X121494534Y-119921522D01*
X121319995Y-119893878D01*
X121292352Y-119889500D01*
X121087648Y-119889500D01*
X121063329Y-119893351D01*
X120885465Y-119921522D01*
X120690776Y-119984781D01*
X120508386Y-120077715D01*
X120342786Y-120198028D01*
X120198028Y-120342786D01*
X120077715Y-120508386D01*
X120030485Y-120601080D01*
X119982510Y-120651876D01*
X119914689Y-120668671D01*
X119848554Y-120646134D01*
X119809515Y-120601080D01*
X119808883Y-120599840D01*
X119762287Y-120508390D01*
X119754556Y-120497749D01*
X119641971Y-120342786D01*
X119497213Y-120198028D01*
X119331613Y-120077715D01*
X119331612Y-120077714D01*
X119331610Y-120077713D01*
X119274653Y-120048691D01*
X119149223Y-119984781D01*
X118954534Y-119921522D01*
X118779995Y-119893878D01*
X118752352Y-119889500D01*
X118547648Y-119889500D01*
X118523329Y-119893351D01*
X118345465Y-119921522D01*
X118150776Y-119984781D01*
X117968386Y-120077715D01*
X117802786Y-120198028D01*
X117658028Y-120342786D01*
X117537715Y-120508386D01*
X117490485Y-120601080D01*
X117442510Y-120651876D01*
X117374689Y-120668671D01*
X117308554Y-120646134D01*
X117269515Y-120601080D01*
X117268883Y-120599840D01*
X117222287Y-120508390D01*
X117214556Y-120497749D01*
X117101971Y-120342786D01*
X116957213Y-120198028D01*
X116791613Y-120077715D01*
X116791612Y-120077714D01*
X116791610Y-120077713D01*
X116734653Y-120048691D01*
X116609223Y-119984781D01*
X116414534Y-119921522D01*
X116239995Y-119893878D01*
X116212352Y-119889500D01*
X116007648Y-119889500D01*
X115983329Y-119893351D01*
X115805465Y-119921522D01*
X115610776Y-119984781D01*
X115428386Y-120077715D01*
X115262786Y-120198028D01*
X115118028Y-120342786D01*
X114997715Y-120508386D01*
X114950485Y-120601080D01*
X114902510Y-120651876D01*
X114834689Y-120668671D01*
X114768554Y-120646134D01*
X114729515Y-120601080D01*
X114728883Y-120599840D01*
X114682287Y-120508390D01*
X114674556Y-120497749D01*
X114561971Y-120342786D01*
X114417213Y-120198028D01*
X114251613Y-120077715D01*
X114251612Y-120077714D01*
X114251610Y-120077713D01*
X114194653Y-120048691D01*
X114069223Y-119984781D01*
X113874534Y-119921522D01*
X113699995Y-119893878D01*
X113672352Y-119889500D01*
X113467648Y-119889500D01*
X113443329Y-119893351D01*
X113265465Y-119921522D01*
X113070776Y-119984781D01*
X112888386Y-120077715D01*
X112722786Y-120198028D01*
X112578028Y-120342786D01*
X112457715Y-120508386D01*
X112364781Y-120690776D01*
X112301522Y-120885465D01*
X112269500Y-121087648D01*
X100500000Y-121087648D01*
X100500000Y-100624000D01*
X100519685Y-100556961D01*
X100572489Y-100511206D01*
X100624000Y-100500000D01*
X149376000Y-100500000D01*
X149443039Y-100519685D01*
G37*
%TD.AperFunction*%
%TD*%
%TA.AperFunction,Conductor*%
%TO.N,B_GND*%
G36*
X149443039Y-50519685D02*
G01*
X149488794Y-50572489D01*
X149500000Y-50624000D01*
X149500000Y-99376000D01*
X149480315Y-99443039D01*
X149427511Y-99488794D01*
X149376000Y-99500000D01*
X100624000Y-99500000D01*
X100556961Y-99480315D01*
X100511206Y-99427511D01*
X100500000Y-99376000D01*
X100500000Y-78209983D01*
X112269500Y-78209983D01*
X112269500Y-79410001D01*
X112269501Y-79410018D01*
X112280000Y-79512796D01*
X112280001Y-79512799D01*
X112296818Y-79563548D01*
X112335186Y-79679334D01*
X112427288Y-79828656D01*
X112551344Y-79952712D01*
X112700666Y-80044814D01*
X112867203Y-80099999D01*
X112969991Y-80110500D01*
X114170008Y-80110499D01*
X114272797Y-80099999D01*
X114439334Y-80044814D01*
X114588656Y-79952712D01*
X114712712Y-79828656D01*
X114804814Y-79679334D01*
X114831955Y-79597427D01*
X114871726Y-79539984D01*
X114936242Y-79513161D01*
X115005018Y-79525476D01*
X115049977Y-79563547D01*
X115118030Y-79657213D01*
X115118034Y-79657219D01*
X115262786Y-79801971D01*
X115383226Y-79889474D01*
X115428390Y-79922287D01*
X115544607Y-79981503D01*
X115610776Y-80015218D01*
X115610778Y-80015218D01*
X115610781Y-80015220D01*
X115701856Y-80044812D01*
X115805465Y-80078477D01*
X115906557Y-80094488D01*
X116007648Y-80110500D01*
X116007649Y-80110500D01*
X116212351Y-80110500D01*
X116212352Y-80110500D01*
X116414534Y-80078477D01*
X116609219Y-80015220D01*
X116791610Y-79922287D01*
X116920482Y-79828657D01*
X116957213Y-79801971D01*
X116957215Y-79801968D01*
X116957219Y-79801966D01*
X117101966Y-79657219D01*
X117101968Y-79657215D01*
X117101971Y-79657213D01*
X117222284Y-79491614D01*
X117222286Y-79491611D01*
X117222287Y-79491610D01*
X117269516Y-79398917D01*
X117317489Y-79348123D01*
X117385310Y-79331328D01*
X117451445Y-79353865D01*
X117490483Y-79398917D01*
X117496140Y-79410018D01*
X117537715Y-79491614D01*
X117658028Y-79657213D01*
X117802786Y-79801971D01*
X117923226Y-79889474D01*
X117968390Y-79922287D01*
X118084607Y-79981503D01*
X118150776Y-80015218D01*
X118150778Y-80015218D01*
X118150781Y-80015220D01*
X118241856Y-80044812D01*
X118345465Y-80078477D01*
X118446557Y-80094488D01*
X118547648Y-80110500D01*
X118547649Y-80110500D01*
X118752351Y-80110500D01*
X118752352Y-80110500D01*
X118954534Y-80078477D01*
X119149219Y-80015220D01*
X119331610Y-79922287D01*
X119460482Y-79828657D01*
X119497213Y-79801971D01*
X119497215Y-79801968D01*
X119497219Y-79801966D01*
X119641966Y-79657219D01*
X119641968Y-79657215D01*
X119641971Y-79657213D01*
X119762284Y-79491614D01*
X119762286Y-79491611D01*
X119762287Y-79491610D01*
X119809516Y-79398917D01*
X119857489Y-79348123D01*
X119925310Y-79331328D01*
X119991445Y-79353865D01*
X120030483Y-79398917D01*
X120036140Y-79410018D01*
X120077715Y-79491614D01*
X120198028Y-79657213D01*
X120342786Y-79801971D01*
X120463226Y-79889474D01*
X120508390Y-79922287D01*
X120624607Y-79981503D01*
X120690776Y-80015218D01*
X120690778Y-80015218D01*
X120690781Y-80015220D01*
X120781856Y-80044812D01*
X120885465Y-80078477D01*
X120986557Y-80094488D01*
X121087648Y-80110500D01*
X121087649Y-80110500D01*
X121292351Y-80110500D01*
X121292352Y-80110500D01*
X121494534Y-80078477D01*
X121689219Y-80015220D01*
X121871610Y-79922287D01*
X122000482Y-79828657D01*
X122037213Y-79801971D01*
X122037215Y-79801968D01*
X122037219Y-79801966D01*
X122181966Y-79657219D01*
X122181968Y-79657215D01*
X122181971Y-79657213D01*
X122302284Y-79491614D01*
X122302286Y-79491611D01*
X122302287Y-79491610D01*
X122349516Y-79398917D01*
X122397489Y-79348123D01*
X122465310Y-79331328D01*
X122531445Y-79353865D01*
X122570483Y-79398917D01*
X122576140Y-79410018D01*
X122617715Y-79491614D01*
X122738028Y-79657213D01*
X122882786Y-79801971D01*
X123003226Y-79889474D01*
X123048390Y-79922287D01*
X123164607Y-79981503D01*
X123230776Y-80015218D01*
X123230778Y-80015218D01*
X123230781Y-80015220D01*
X123321856Y-80044812D01*
X123425465Y-80078477D01*
X123526557Y-80094488D01*
X123627648Y-80110500D01*
X123627649Y-80110500D01*
X123832351Y-80110500D01*
X123832352Y-80110500D01*
X124034534Y-80078477D01*
X124229219Y-80015220D01*
X124411610Y-79922287D01*
X124540482Y-79828657D01*
X124577213Y-79801971D01*
X124577215Y-79801968D01*
X124577219Y-79801966D01*
X124721966Y-79657219D01*
X124721968Y-79657215D01*
X124721971Y-79657213D01*
X124842284Y-79491614D01*
X124842286Y-79491611D01*
X124842287Y-79491610D01*
X124889516Y-79398917D01*
X124937489Y-79348123D01*
X125005310Y-79331328D01*
X125071445Y-79353865D01*
X125110483Y-79398917D01*
X125116140Y-79410018D01*
X125157715Y-79491614D01*
X125278028Y-79657213D01*
X125422786Y-79801971D01*
X125543226Y-79889474D01*
X125588390Y-79922287D01*
X125704607Y-79981503D01*
X125770776Y-80015218D01*
X125770778Y-80015218D01*
X125770781Y-80015220D01*
X125861856Y-80044812D01*
X125965465Y-80078477D01*
X126066557Y-80094488D01*
X126167648Y-80110500D01*
X126167649Y-80110500D01*
X126372351Y-80110500D01*
X126372352Y-80110500D01*
X126574534Y-80078477D01*
X126769219Y-80015220D01*
X126951610Y-79922287D01*
X127080482Y-79828657D01*
X127117213Y-79801971D01*
X127117215Y-79801968D01*
X127117219Y-79801966D01*
X127261966Y-79657219D01*
X127261968Y-79657215D01*
X127261971Y-79657213D01*
X127366894Y-79512797D01*
X127382287Y-79491610D01*
X127429795Y-79398369D01*
X127477769Y-79347573D01*
X127545590Y-79330778D01*
X127611725Y-79353315D01*
X127650765Y-79398369D01*
X127698141Y-79491350D01*
X127698147Y-79491359D01*
X127730523Y-79535921D01*
X127730524Y-79535922D01*
X128410000Y-78856446D01*
X128410000Y-78862661D01*
X128437259Y-78964394D01*
X128489920Y-79055606D01*
X128564394Y-79130080D01*
X128655606Y-79182741D01*
X128757339Y-79210000D01*
X128763553Y-79210000D01*
X128084076Y-79889474D01*
X128128650Y-79921859D01*
X128310968Y-80014755D01*
X128505582Y-80077990D01*
X128707683Y-80110000D01*
X128912317Y-80110000D01*
X129114417Y-80077990D01*
X129309031Y-80014755D01*
X129491349Y-79921859D01*
X129535921Y-79889474D01*
X128856447Y-79210000D01*
X128862661Y-79210000D01*
X128964394Y-79182741D01*
X129055606Y-79130080D01*
X129130080Y-79055606D01*
X129182741Y-78964394D01*
X129210000Y-78862661D01*
X129210000Y-78856447D01*
X129889474Y-79535921D01*
X129921861Y-79491347D01*
X129921861Y-79491346D01*
X129969234Y-79398371D01*
X130017208Y-79347575D01*
X130085028Y-79330779D01*
X130151164Y-79353316D01*
X130190203Y-79398369D01*
X130237713Y-79491611D01*
X130358028Y-79657213D01*
X130502786Y-79801971D01*
X130623226Y-79889474D01*
X130668390Y-79922287D01*
X130784607Y-79981503D01*
X130850776Y-80015218D01*
X130850778Y-80015218D01*
X130850781Y-80015220D01*
X130941856Y-80044812D01*
X131045465Y-80078477D01*
X131146557Y-80094488D01*
X131247648Y-80110500D01*
X131247649Y-80110500D01*
X131452351Y-80110500D01*
X131452352Y-80110500D01*
X131654534Y-80078477D01*
X131849219Y-80015220D01*
X132031610Y-79922287D01*
X132160482Y-79828657D01*
X132197213Y-79801971D01*
X132197215Y-79801968D01*
X132197219Y-79801966D01*
X132341966Y-79657219D01*
X132341968Y-79657215D01*
X132341971Y-79657213D01*
X132462284Y-79491614D01*
X132462286Y-79491611D01*
X132462287Y-79491610D01*
X132509516Y-79398917D01*
X132557489Y-79348123D01*
X132625310Y-79331328D01*
X132691445Y-79353865D01*
X132730483Y-79398917D01*
X132736140Y-79410018D01*
X132777715Y-79491614D01*
X132898028Y-79657213D01*
X133042786Y-79801971D01*
X133163226Y-79889474D01*
X133208390Y-79922287D01*
X133324607Y-79981503D01*
X133390776Y-80015218D01*
X133390778Y-80015218D01*
X133390781Y-80015220D01*
X133481856Y-80044812D01*
X133585465Y-80078477D01*
X133686557Y-80094488D01*
X133787648Y-80110500D01*
X133787649Y-80110500D01*
X133992351Y-80110500D01*
X133992352Y-80110500D01*
X134194534Y-80078477D01*
X134389219Y-80015220D01*
X134571610Y-79922287D01*
X134700482Y-79828657D01*
X134737213Y-79801971D01*
X134737215Y-79801968D01*
X134737219Y-79801966D01*
X134881966Y-79657219D01*
X134881968Y-79657215D01*
X134881971Y-79657213D01*
X135002284Y-79491614D01*
X135002286Y-79491611D01*
X135002287Y-79491610D01*
X135049516Y-79398917D01*
X135097489Y-79348123D01*
X135165310Y-79331328D01*
X135231445Y-79353865D01*
X135270483Y-79398917D01*
X135276140Y-79410018D01*
X135317715Y-79491614D01*
X135438028Y-79657213D01*
X135582786Y-79801971D01*
X135703226Y-79889474D01*
X135748390Y-79922287D01*
X135864607Y-79981503D01*
X135930776Y-80015218D01*
X135930778Y-80015218D01*
X135930781Y-80015220D01*
X136021856Y-80044812D01*
X136125465Y-80078477D01*
X136226557Y-80094488D01*
X136327648Y-80110500D01*
X136327649Y-80110500D01*
X136532351Y-80110500D01*
X136532352Y-80110500D01*
X136734534Y-80078477D01*
X136929219Y-80015220D01*
X137111610Y-79922287D01*
X137240482Y-79828657D01*
X137277213Y-79801971D01*
X137277215Y-79801968D01*
X137277219Y-79801966D01*
X137421966Y-79657219D01*
X137421968Y-79657215D01*
X137421971Y-79657213D01*
X137490021Y-79563548D01*
X137542287Y-79491610D01*
X137635220Y-79309219D01*
X137698477Y-79114534D01*
X137730500Y-78912352D01*
X137730500Y-78707648D01*
X137722257Y-78655606D01*
X137698477Y-78505465D01*
X137635218Y-78310776D01*
X137583865Y-78209991D01*
X137542287Y-78128390D01*
X137510092Y-78084077D01*
X137421971Y-77962786D01*
X137277213Y-77818028D01*
X137111613Y-77697715D01*
X137111612Y-77697714D01*
X137111610Y-77697713D01*
X137051898Y-77667288D01*
X136929223Y-77604781D01*
X136734534Y-77541522D01*
X136559995Y-77513878D01*
X136532352Y-77509500D01*
X136327648Y-77509500D01*
X136303329Y-77513351D01*
X136125465Y-77541522D01*
X135930776Y-77604781D01*
X135748386Y-77697715D01*
X135582786Y-77818028D01*
X135438028Y-77962786D01*
X135317715Y-78128386D01*
X135270485Y-78221080D01*
X135222510Y-78271876D01*
X135154689Y-78288671D01*
X135088554Y-78266134D01*
X135049515Y-78221080D01*
X135002420Y-78128652D01*
X135002287Y-78128390D01*
X134970092Y-78084077D01*
X134881971Y-77962786D01*
X134737213Y-77818028D01*
X134571613Y-77697715D01*
X134571612Y-77697714D01*
X134571610Y-77697713D01*
X134511898Y-77667288D01*
X134389223Y-77604781D01*
X134194534Y-77541522D01*
X134019995Y-77513878D01*
X133992352Y-77509500D01*
X133787648Y-77509500D01*
X133763329Y-77513351D01*
X133585465Y-77541522D01*
X133390776Y-77604781D01*
X133208386Y-77697715D01*
X133042786Y-77818028D01*
X132898028Y-77962786D01*
X132777715Y-78128386D01*
X132730485Y-78221080D01*
X132682510Y-78271876D01*
X132614689Y-78288671D01*
X132548554Y-78266134D01*
X132509515Y-78221080D01*
X132462420Y-78128652D01*
X132462287Y-78128390D01*
X132430092Y-78084077D01*
X132341971Y-77962786D01*
X132197213Y-77818028D01*
X132031613Y-77697715D01*
X132031612Y-77697714D01*
X132031610Y-77697713D01*
X131971898Y-77667288D01*
X131849223Y-77604781D01*
X131654534Y-77541522D01*
X131479995Y-77513878D01*
X131452352Y-77509500D01*
X131247648Y-77509500D01*
X131223329Y-77513351D01*
X131045465Y-77541522D01*
X130850776Y-77604781D01*
X130668386Y-77697715D01*
X130502786Y-77818028D01*
X130358028Y-77962786D01*
X130237713Y-78128388D01*
X130190203Y-78221630D01*
X130142228Y-78272426D01*
X130074407Y-78289220D01*
X130008272Y-78266682D01*
X129969234Y-78221628D01*
X129921861Y-78128652D01*
X129889474Y-78084077D01*
X129889474Y-78084076D01*
X129210000Y-78763551D01*
X129210000Y-78757339D01*
X129182741Y-78655606D01*
X129130080Y-78564394D01*
X129055606Y-78489920D01*
X128964394Y-78437259D01*
X128862661Y-78410000D01*
X128856446Y-78410000D01*
X129535922Y-77730524D01*
X129535921Y-77730523D01*
X129491359Y-77698147D01*
X129491350Y-77698141D01*
X129309031Y-77605244D01*
X129114417Y-77542009D01*
X128912317Y-77510000D01*
X128707683Y-77510000D01*
X128505582Y-77542009D01*
X128310968Y-77605244D01*
X128128644Y-77698143D01*
X128084077Y-77730523D01*
X128084077Y-77730524D01*
X128763554Y-78410000D01*
X128757339Y-78410000D01*
X128655606Y-78437259D01*
X128564394Y-78489920D01*
X128489920Y-78564394D01*
X128437259Y-78655606D01*
X128410000Y-78757339D01*
X128410000Y-78763553D01*
X127730524Y-78084077D01*
X127730523Y-78084077D01*
X127698143Y-78128644D01*
X127650765Y-78221630D01*
X127602790Y-78272426D01*
X127534969Y-78289221D01*
X127468834Y-78266683D01*
X127429795Y-78221630D01*
X127382284Y-78128385D01*
X127261971Y-77962786D01*
X127117213Y-77818028D01*
X126951613Y-77697715D01*
X126951612Y-77697714D01*
X126951610Y-77697713D01*
X126891898Y-77667288D01*
X126769223Y-77604781D01*
X126574534Y-77541522D01*
X126399995Y-77513878D01*
X126372352Y-77509500D01*
X126167648Y-77509500D01*
X126143329Y-77513351D01*
X125965465Y-77541522D01*
X125770776Y-77604781D01*
X125588386Y-77697715D01*
X125422786Y-77818028D01*
X125278028Y-77962786D01*
X125157715Y-78128386D01*
X125110485Y-78221080D01*
X125062510Y-78271876D01*
X124994689Y-78288671D01*
X124928554Y-78266134D01*
X124889515Y-78221080D01*
X124842420Y-78128652D01*
X124842287Y-78128390D01*
X124810092Y-78084077D01*
X124721971Y-77962786D01*
X124577213Y-77818028D01*
X124411613Y-77697715D01*
X124411612Y-77697714D01*
X124411610Y-77697713D01*
X124351898Y-77667288D01*
X124229223Y-77604781D01*
X124034534Y-77541522D01*
X123859995Y-77513878D01*
X123832352Y-77509500D01*
X123627648Y-77509500D01*
X123603329Y-77513351D01*
X123425465Y-77541522D01*
X123230776Y-77604781D01*
X123048386Y-77697715D01*
X122882786Y-77818028D01*
X122738028Y-77962786D01*
X122617715Y-78128386D01*
X122570485Y-78221080D01*
X122522510Y-78271876D01*
X122454689Y-78288671D01*
X122388554Y-78266134D01*
X122349515Y-78221080D01*
X122302420Y-78128652D01*
X122302287Y-78128390D01*
X122270092Y-78084077D01*
X122181971Y-77962786D01*
X122037213Y-77818028D01*
X121871613Y-77697715D01*
X121871612Y-77697714D01*
X121871610Y-77697713D01*
X121811898Y-77667288D01*
X121689223Y-77604781D01*
X121494534Y-77541522D01*
X121319995Y-77513878D01*
X121292352Y-77509500D01*
X121087648Y-77509500D01*
X121063329Y-77513351D01*
X120885465Y-77541522D01*
X120690776Y-77604781D01*
X120508386Y-77697715D01*
X120342786Y-77818028D01*
X120198028Y-77962786D01*
X120077715Y-78128386D01*
X120030485Y-78221080D01*
X119982510Y-78271876D01*
X119914689Y-78288671D01*
X119848554Y-78266134D01*
X119809515Y-78221080D01*
X119762420Y-78128652D01*
X119762287Y-78128390D01*
X119730092Y-78084077D01*
X119641971Y-77962786D01*
X119497213Y-77818028D01*
X119331613Y-77697715D01*
X119331612Y-77697714D01*
X119331610Y-77697713D01*
X119271898Y-77667288D01*
X119149223Y-77604781D01*
X118954534Y-77541522D01*
X118779995Y-77513878D01*
X118752352Y-77509500D01*
X118547648Y-77509500D01*
X118523329Y-77513351D01*
X118345465Y-77541522D01*
X118150776Y-77604781D01*
X117968386Y-77697715D01*
X117802786Y-77818028D01*
X117658028Y-77962786D01*
X117537715Y-78128386D01*
X117490485Y-78221080D01*
X117442510Y-78271876D01*
X117374689Y-78288671D01*
X117308554Y-78266134D01*
X117269515Y-78221080D01*
X117222420Y-78128652D01*
X117222287Y-78128390D01*
X117190092Y-78084077D01*
X117101971Y-77962786D01*
X116957213Y-77818028D01*
X116791613Y-77697715D01*
X116791612Y-77697714D01*
X116791610Y-77697713D01*
X116731898Y-77667288D01*
X116609223Y-77604781D01*
X116414534Y-77541522D01*
X116239995Y-77513878D01*
X116212352Y-77509500D01*
X116007648Y-77509500D01*
X115983329Y-77513351D01*
X115805465Y-77541522D01*
X115610776Y-77604781D01*
X115428386Y-77697715D01*
X115262786Y-77818028D01*
X115118032Y-77962782D01*
X115118028Y-77962787D01*
X115049978Y-78056451D01*
X114994648Y-78099117D01*
X114925035Y-78105096D01*
X114863240Y-78072490D01*
X114831954Y-78022570D01*
X114812144Y-77962787D01*
X114804814Y-77940666D01*
X114712712Y-77791344D01*
X114588656Y-77667288D01*
X114439334Y-77575186D01*
X114272797Y-77520001D01*
X114272795Y-77520000D01*
X114170010Y-77509500D01*
X112969998Y-77509500D01*
X112969981Y-77509501D01*
X112867203Y-77520000D01*
X112867200Y-77520001D01*
X112700668Y-77575185D01*
X112700663Y-77575187D01*
X112551342Y-77667289D01*
X112427289Y-77791342D01*
X112335187Y-77940663D01*
X112335185Y-77940668D01*
X112308046Y-78022570D01*
X112280001Y-78107203D01*
X112280001Y-78107204D01*
X112280000Y-78107204D01*
X112269500Y-78209983D01*
X100500000Y-78209983D01*
X100500000Y-76550000D01*
X101950000Y-76550000D01*
X105050000Y-76550000D01*
X105050000Y-73450000D01*
X101950000Y-73450000D01*
X101950000Y-76550000D01*
X100500000Y-76550000D01*
X100500000Y-73277135D01*
X106949500Y-73277135D01*
X106949500Y-75072870D01*
X106949501Y-75072876D01*
X106955908Y-75132483D01*
X107006202Y-75267328D01*
X107006206Y-75267335D01*
X107092452Y-75382544D01*
X107092455Y-75382547D01*
X107207664Y-75468793D01*
X107207671Y-75468797D01*
X107252618Y-75485561D01*
X107342517Y-75519091D01*
X107402127Y-75525500D01*
X107412685Y-75525499D01*
X107479723Y-75545179D01*
X107500372Y-75561818D01*
X108170591Y-76232037D01*
X108107007Y-76249075D01*
X107992993Y-76314901D01*
X107899901Y-76407993D01*
X107834075Y-76522007D01*
X107817037Y-76585591D01*
X107184728Y-75953282D01*
X107184727Y-75953282D01*
X107145380Y-76007439D01*
X107048904Y-76196782D01*
X106983242Y-76398869D01*
X106983242Y-76398872D01*
X106950000Y-76608753D01*
X106950000Y-76821246D01*
X106983242Y-77031127D01*
X106983242Y-77031130D01*
X107048904Y-77233217D01*
X107145375Y-77422550D01*
X107184728Y-77476716D01*
X107817037Y-76844408D01*
X107834075Y-76907993D01*
X107899901Y-77022007D01*
X107992993Y-77115099D01*
X108107007Y-77180925D01*
X108170590Y-77197962D01*
X107538282Y-77830269D01*
X107538282Y-77830270D01*
X107592449Y-77869624D01*
X107781782Y-77966095D01*
X107983870Y-78031757D01*
X108193754Y-78065000D01*
X108406246Y-78065000D01*
X108616127Y-78031757D01*
X108616130Y-78031757D01*
X108818217Y-77966095D01*
X109007554Y-77869622D01*
X109061716Y-77830270D01*
X109061717Y-77830270D01*
X108429408Y-77197962D01*
X108492993Y-77180925D01*
X108607007Y-77115099D01*
X108700099Y-77022007D01*
X108765925Y-76907993D01*
X108782962Y-76844408D01*
X109415270Y-77476717D01*
X109415270Y-77476716D01*
X109454622Y-77422554D01*
X109551095Y-77233217D01*
X109616757Y-77031130D01*
X109616757Y-77031127D01*
X109650000Y-76821246D01*
X109650000Y-76608753D01*
X109616757Y-76398872D01*
X109616757Y-76398869D01*
X109551095Y-76196782D01*
X109454624Y-76007449D01*
X109415270Y-75953282D01*
X109415269Y-75953282D01*
X108782962Y-76585590D01*
X108765925Y-76522007D01*
X108700099Y-76407993D01*
X108607007Y-76314901D01*
X108492993Y-76249075D01*
X108429409Y-76232037D01*
X109099627Y-75561818D01*
X109160950Y-75528333D01*
X109187307Y-75525499D01*
X109197872Y-75525499D01*
X109257483Y-75519091D01*
X109392331Y-75468796D01*
X109507546Y-75382546D01*
X109593796Y-75267331D01*
X109644091Y-75132483D01*
X109650500Y-75072873D01*
X109650499Y-73277128D01*
X109644091Y-73217517D01*
X109593796Y-73082669D01*
X109593795Y-73082668D01*
X109593793Y-73082664D01*
X109507547Y-72967455D01*
X109507544Y-72967452D01*
X109392335Y-72881206D01*
X109392328Y-72881202D01*
X109257482Y-72830908D01*
X109257483Y-72830908D01*
X109197883Y-72824501D01*
X109197881Y-72824500D01*
X109197873Y-72824500D01*
X109197864Y-72824500D01*
X107402129Y-72824500D01*
X107402123Y-72824501D01*
X107342516Y-72830908D01*
X107207671Y-72881202D01*
X107207664Y-72881206D01*
X107092455Y-72967452D01*
X107092452Y-72967455D01*
X107006206Y-73082664D01*
X107006202Y-73082671D01*
X106955908Y-73217517D01*
X106949501Y-73277116D01*
X106949501Y-73277123D01*
X106949500Y-73277135D01*
X100500000Y-73277135D01*
X100500000Y-71087648D01*
X112269500Y-71087648D01*
X112269500Y-71292351D01*
X112301522Y-71494534D01*
X112364781Y-71689223D01*
X112457715Y-71871613D01*
X112578028Y-72037213D01*
X112722786Y-72181971D01*
X112877749Y-72294556D01*
X112888390Y-72302287D01*
X113004607Y-72361503D01*
X113070776Y-72395218D01*
X113070778Y-72395218D01*
X113070781Y-72395220D01*
X113175137Y-72429127D01*
X113265465Y-72458477D01*
X113366557Y-72474488D01*
X113467648Y-72490500D01*
X113467649Y-72490500D01*
X113672351Y-72490500D01*
X113672352Y-72490500D01*
X113874534Y-72458477D01*
X114069219Y-72395220D01*
X114251610Y-72302287D01*
X114344590Y-72234732D01*
X114417213Y-72181971D01*
X114417215Y-72181968D01*
X114417219Y-72181966D01*
X114561966Y-72037219D01*
X114561968Y-72037215D01*
X114561971Y-72037213D01*
X114682284Y-71871614D01*
X114682285Y-71871613D01*
X114682287Y-71871610D01*
X114729516Y-71778917D01*
X114777489Y-71728123D01*
X114845310Y-71711328D01*
X114911445Y-71733865D01*
X114950485Y-71778919D01*
X114997715Y-71871614D01*
X115118028Y-72037213D01*
X115262786Y-72181971D01*
X115417749Y-72294556D01*
X115428390Y-72302287D01*
X115544607Y-72361503D01*
X115610776Y-72395218D01*
X115610778Y-72395218D01*
X115610781Y-72395220D01*
X115715137Y-72429127D01*
X115805465Y-72458477D01*
X115906557Y-72474488D01*
X116007648Y-72490500D01*
X116007649Y-72490500D01*
X116212351Y-72490500D01*
X116212352Y-72490500D01*
X116414534Y-72458477D01*
X116609219Y-72395220D01*
X116791610Y-72302287D01*
X116884590Y-72234732D01*
X116957213Y-72181971D01*
X116957215Y-72181968D01*
X116957219Y-72181966D01*
X117101966Y-72037219D01*
X117101968Y-72037215D01*
X117101971Y-72037213D01*
X117222284Y-71871614D01*
X117222285Y-71871613D01*
X117222287Y-71871610D01*
X117269516Y-71778917D01*
X117317489Y-71728123D01*
X117385310Y-71711328D01*
X117451445Y-71733865D01*
X117490485Y-71778919D01*
X117537715Y-71871614D01*
X117658028Y-72037213D01*
X117802786Y-72181971D01*
X117957749Y-72294556D01*
X117968390Y-72302287D01*
X118084607Y-72361503D01*
X118150776Y-72395218D01*
X118150778Y-72395218D01*
X118150781Y-72395220D01*
X118255137Y-72429127D01*
X118345465Y-72458477D01*
X118446557Y-72474488D01*
X118547648Y-72490500D01*
X118547649Y-72490500D01*
X118752351Y-72490500D01*
X118752352Y-72490500D01*
X118954534Y-72458477D01*
X119149219Y-72395220D01*
X119331610Y-72302287D01*
X119424590Y-72234732D01*
X119497213Y-72181971D01*
X119497215Y-72181968D01*
X119497219Y-72181966D01*
X119641966Y-72037219D01*
X119641968Y-72037215D01*
X119641971Y-72037213D01*
X119762284Y-71871614D01*
X119762285Y-71871613D01*
X119762287Y-71871610D01*
X119809516Y-71778917D01*
X119857489Y-71728123D01*
X119925310Y-71711328D01*
X119991445Y-71733865D01*
X120030485Y-71778919D01*
X120077715Y-71871614D01*
X120198028Y-72037213D01*
X120342786Y-72181971D01*
X120497749Y-72294556D01*
X120508390Y-72302287D01*
X120624607Y-72361503D01*
X120690776Y-72395218D01*
X120690778Y-72395218D01*
X120690781Y-72395220D01*
X120795137Y-72429127D01*
X120885465Y-72458477D01*
X120986557Y-72474488D01*
X121087648Y-72490500D01*
X121087649Y-72490500D01*
X121292351Y-72490500D01*
X121292352Y-72490500D01*
X121494534Y-72458477D01*
X121689219Y-72395220D01*
X121871610Y-72302287D01*
X121964590Y-72234732D01*
X122037213Y-72181971D01*
X122037215Y-72181968D01*
X122037219Y-72181966D01*
X122181966Y-72037219D01*
X122181968Y-72037215D01*
X122181971Y-72037213D01*
X122302284Y-71871614D01*
X122302285Y-71871613D01*
X122302287Y-71871610D01*
X122349516Y-71778917D01*
X122397489Y-71728123D01*
X122465310Y-71711328D01*
X122531445Y-71733865D01*
X122570485Y-71778919D01*
X122617715Y-71871614D01*
X122738028Y-72037213D01*
X122882786Y-72181971D01*
X123037749Y-72294556D01*
X123048390Y-72302287D01*
X123164607Y-72361503D01*
X123230776Y-72395218D01*
X123230778Y-72395218D01*
X123230781Y-72395220D01*
X123335137Y-72429127D01*
X123425465Y-72458477D01*
X123526557Y-72474488D01*
X123627648Y-72490500D01*
X123627649Y-72490500D01*
X123832351Y-72490500D01*
X123832352Y-72490500D01*
X124034534Y-72458477D01*
X124229219Y-72395220D01*
X124411610Y-72302287D01*
X124504590Y-72234732D01*
X124577213Y-72181971D01*
X124577215Y-72181968D01*
X124577219Y-72181966D01*
X124721966Y-72037219D01*
X124721968Y-72037215D01*
X124721971Y-72037213D01*
X124842284Y-71871614D01*
X124842285Y-71871613D01*
X124842287Y-71871610D01*
X124889516Y-71778917D01*
X124937489Y-71728123D01*
X125005310Y-71711328D01*
X125071445Y-71733865D01*
X125110485Y-71778919D01*
X125157715Y-71871614D01*
X125278028Y-72037213D01*
X125422786Y-72181971D01*
X125577749Y-72294556D01*
X125588390Y-72302287D01*
X125704607Y-72361503D01*
X125770776Y-72395218D01*
X125770778Y-72395218D01*
X125770781Y-72395220D01*
X125875137Y-72429127D01*
X125965465Y-72458477D01*
X126066557Y-72474488D01*
X126167648Y-72490500D01*
X126167649Y-72490500D01*
X126372351Y-72490500D01*
X126372352Y-72490500D01*
X126574534Y-72458477D01*
X126769219Y-72395220D01*
X126951610Y-72302287D01*
X127044590Y-72234732D01*
X127117213Y-72181971D01*
X127117215Y-72181968D01*
X127117219Y-72181966D01*
X127261966Y-72037219D01*
X127261968Y-72037215D01*
X127261971Y-72037213D01*
X127382284Y-71871614D01*
X127382285Y-71871613D01*
X127382287Y-71871610D01*
X127429516Y-71778917D01*
X127477489Y-71728123D01*
X127545310Y-71711328D01*
X127611445Y-71733865D01*
X127650485Y-71778919D01*
X127697715Y-71871614D01*
X127818028Y-72037213D01*
X127962786Y-72181971D01*
X128117749Y-72294556D01*
X128128390Y-72302287D01*
X128244607Y-72361503D01*
X128310776Y-72395218D01*
X128310778Y-72395218D01*
X128310781Y-72395220D01*
X128415137Y-72429127D01*
X128505465Y-72458477D01*
X128606557Y-72474488D01*
X128707648Y-72490500D01*
X128707649Y-72490500D01*
X128912351Y-72490500D01*
X128912352Y-72490500D01*
X129114534Y-72458477D01*
X129309219Y-72395220D01*
X129491610Y-72302287D01*
X129584590Y-72234732D01*
X129657213Y-72181971D01*
X129657215Y-72181968D01*
X129657219Y-72181966D01*
X129801966Y-72037219D01*
X129801968Y-72037215D01*
X129801971Y-72037213D01*
X129922284Y-71871614D01*
X129922285Y-71871613D01*
X129922287Y-71871610D01*
X129969516Y-71778917D01*
X130017489Y-71728123D01*
X130085310Y-71711328D01*
X130151445Y-71733865D01*
X130190485Y-71778919D01*
X130237715Y-71871614D01*
X130358028Y-72037213D01*
X130502786Y-72181971D01*
X130657749Y-72294556D01*
X130668390Y-72302287D01*
X130784607Y-72361503D01*
X130850776Y-72395218D01*
X130850778Y-72395218D01*
X130850781Y-72395220D01*
X130955137Y-72429127D01*
X131045465Y-72458477D01*
X131146557Y-72474488D01*
X131247648Y-72490500D01*
X131247649Y-72490500D01*
X131452351Y-72490500D01*
X131452352Y-72490500D01*
X131654534Y-72458477D01*
X131849219Y-72395220D01*
X132031610Y-72302287D01*
X132124590Y-72234732D01*
X132197213Y-72181971D01*
X132197215Y-72181968D01*
X132197219Y-72181966D01*
X132341966Y-72037219D01*
X132341968Y-72037215D01*
X132341971Y-72037213D01*
X132462284Y-71871614D01*
X132462285Y-71871613D01*
X132462287Y-71871610D01*
X132509516Y-71778917D01*
X132557489Y-71728123D01*
X132625310Y-71711328D01*
X132691445Y-71733865D01*
X132730485Y-71778919D01*
X132777715Y-71871614D01*
X132898028Y-72037213D01*
X133042786Y-72181971D01*
X133197749Y-72294556D01*
X133208390Y-72302287D01*
X133324607Y-72361503D01*
X133390776Y-72395218D01*
X133390778Y-72395218D01*
X133390781Y-72395220D01*
X133495137Y-72429127D01*
X133585465Y-72458477D01*
X133686557Y-72474488D01*
X133787648Y-72490500D01*
X133787649Y-72490500D01*
X133992351Y-72490500D01*
X133992352Y-72490500D01*
X134194534Y-72458477D01*
X134389219Y-72395220D01*
X134571610Y-72302287D01*
X134664590Y-72234732D01*
X134737213Y-72181971D01*
X134737215Y-72181968D01*
X134737219Y-72181966D01*
X134881966Y-72037219D01*
X134881968Y-72037215D01*
X134881971Y-72037213D01*
X135002284Y-71871614D01*
X135002285Y-71871613D01*
X135002287Y-71871610D01*
X135049516Y-71778917D01*
X135097489Y-71728123D01*
X135165310Y-71711328D01*
X135231445Y-71733865D01*
X135270485Y-71778919D01*
X135317715Y-71871614D01*
X135438028Y-72037213D01*
X135582786Y-72181971D01*
X135737749Y-72294556D01*
X135748390Y-72302287D01*
X135864607Y-72361503D01*
X135930776Y-72395218D01*
X135930778Y-72395218D01*
X135930781Y-72395220D01*
X136035137Y-72429127D01*
X136125465Y-72458477D01*
X136226557Y-72474488D01*
X136327648Y-72490500D01*
X136327649Y-72490500D01*
X136532351Y-72490500D01*
X136532352Y-72490500D01*
X136734534Y-72458477D01*
X136929219Y-72395220D01*
X137111610Y-72302287D01*
X137204590Y-72234732D01*
X137277213Y-72181971D01*
X137277215Y-72181968D01*
X137277219Y-72181966D01*
X137421966Y-72037219D01*
X137421968Y-72037215D01*
X137421971Y-72037213D01*
X137474732Y-71964590D01*
X137542287Y-71871610D01*
X137635220Y-71689219D01*
X137698477Y-71494534D01*
X137730500Y-71292352D01*
X137730500Y-71087648D01*
X137698477Y-70885466D01*
X137635220Y-70690781D01*
X137635218Y-70690778D01*
X137635218Y-70690776D01*
X137589515Y-70601080D01*
X137542287Y-70508390D01*
X137534556Y-70497749D01*
X137421971Y-70342786D01*
X137277213Y-70198028D01*
X137111613Y-70077715D01*
X137111612Y-70077714D01*
X137111610Y-70077713D01*
X137054653Y-70048691D01*
X136929223Y-69984781D01*
X136734534Y-69921522D01*
X136559995Y-69893878D01*
X136532352Y-69889500D01*
X136327648Y-69889500D01*
X136303329Y-69893351D01*
X136125465Y-69921522D01*
X135930776Y-69984781D01*
X135748386Y-70077715D01*
X135582786Y-70198028D01*
X135438028Y-70342786D01*
X135317715Y-70508386D01*
X135270485Y-70601080D01*
X135222510Y-70651876D01*
X135154689Y-70668671D01*
X135088554Y-70646134D01*
X135049515Y-70601080D01*
X135048883Y-70599840D01*
X135002287Y-70508390D01*
X134994556Y-70497749D01*
X134881971Y-70342786D01*
X134737213Y-70198028D01*
X134571613Y-70077715D01*
X134571612Y-70077714D01*
X134571610Y-70077713D01*
X134514653Y-70048691D01*
X134389223Y-69984781D01*
X134194534Y-69921522D01*
X134019995Y-69893878D01*
X133992352Y-69889500D01*
X133787648Y-69889500D01*
X133763329Y-69893351D01*
X133585465Y-69921522D01*
X133390776Y-69984781D01*
X133208386Y-70077715D01*
X133042786Y-70198028D01*
X132898028Y-70342786D01*
X132777715Y-70508386D01*
X132730485Y-70601080D01*
X132682510Y-70651876D01*
X132614689Y-70668671D01*
X132548554Y-70646134D01*
X132509515Y-70601080D01*
X132508883Y-70599840D01*
X132462287Y-70508390D01*
X132454556Y-70497749D01*
X132341971Y-70342786D01*
X132197213Y-70198028D01*
X132031613Y-70077715D01*
X132031612Y-70077714D01*
X132031610Y-70077713D01*
X131974653Y-70048691D01*
X131849223Y-69984781D01*
X131654534Y-69921522D01*
X131479995Y-69893878D01*
X131452352Y-69889500D01*
X131247648Y-69889500D01*
X131223329Y-69893351D01*
X131045465Y-69921522D01*
X130850776Y-69984781D01*
X130668386Y-70077715D01*
X130502786Y-70198028D01*
X130358028Y-70342786D01*
X130237715Y-70508386D01*
X130190485Y-70601080D01*
X130142510Y-70651876D01*
X130074689Y-70668671D01*
X130008554Y-70646134D01*
X129969515Y-70601080D01*
X129968883Y-70599840D01*
X129922287Y-70508390D01*
X129914556Y-70497749D01*
X129801971Y-70342786D01*
X129657213Y-70198028D01*
X129491613Y-70077715D01*
X129491612Y-70077714D01*
X129491610Y-70077713D01*
X129434653Y-70048691D01*
X129309223Y-69984781D01*
X129114534Y-69921522D01*
X128939995Y-69893878D01*
X128912352Y-69889500D01*
X128707648Y-69889500D01*
X128683329Y-69893351D01*
X128505465Y-69921522D01*
X128310776Y-69984781D01*
X128128386Y-70077715D01*
X127962786Y-70198028D01*
X127818028Y-70342786D01*
X127697715Y-70508386D01*
X127650485Y-70601080D01*
X127602510Y-70651876D01*
X127534689Y-70668671D01*
X127468554Y-70646134D01*
X127429515Y-70601080D01*
X127428883Y-70599840D01*
X127382287Y-70508390D01*
X127374556Y-70497749D01*
X127261971Y-70342786D01*
X127117213Y-70198028D01*
X126951613Y-70077715D01*
X126951612Y-70077714D01*
X126951610Y-70077713D01*
X126894653Y-70048691D01*
X126769223Y-69984781D01*
X126574534Y-69921522D01*
X126399995Y-69893878D01*
X126372352Y-69889500D01*
X126167648Y-69889500D01*
X126143329Y-69893351D01*
X125965465Y-69921522D01*
X125770776Y-69984781D01*
X125588386Y-70077715D01*
X125422786Y-70198028D01*
X125278028Y-70342786D01*
X125157715Y-70508386D01*
X125110485Y-70601080D01*
X125062510Y-70651876D01*
X124994689Y-70668671D01*
X124928554Y-70646134D01*
X124889515Y-70601080D01*
X124888883Y-70599840D01*
X124842287Y-70508390D01*
X124834556Y-70497749D01*
X124721971Y-70342786D01*
X124577213Y-70198028D01*
X124411613Y-70077715D01*
X124411612Y-70077714D01*
X124411610Y-70077713D01*
X124354653Y-70048691D01*
X124229223Y-69984781D01*
X124034534Y-69921522D01*
X123859995Y-69893878D01*
X123832352Y-69889500D01*
X123627648Y-69889500D01*
X123603329Y-69893351D01*
X123425465Y-69921522D01*
X123230776Y-69984781D01*
X123048386Y-70077715D01*
X122882786Y-70198028D01*
X122738028Y-70342786D01*
X122617715Y-70508386D01*
X122570485Y-70601080D01*
X122522510Y-70651876D01*
X122454689Y-70668671D01*
X122388554Y-70646134D01*
X122349515Y-70601080D01*
X122348883Y-70599840D01*
X122302287Y-70508390D01*
X122294556Y-70497749D01*
X122181971Y-70342786D01*
X122037213Y-70198028D01*
X121871613Y-70077715D01*
X121871612Y-70077714D01*
X121871610Y-70077713D01*
X121814653Y-70048691D01*
X121689223Y-69984781D01*
X121494534Y-69921522D01*
X121319995Y-69893878D01*
X121292352Y-69889500D01*
X121087648Y-69889500D01*
X121063329Y-69893351D01*
X120885465Y-69921522D01*
X120690776Y-69984781D01*
X120508386Y-70077715D01*
X120342786Y-70198028D01*
X120198028Y-70342786D01*
X120077715Y-70508386D01*
X120030485Y-70601080D01*
X119982510Y-70651876D01*
X119914689Y-70668671D01*
X119848554Y-70646134D01*
X119809515Y-70601080D01*
X119808883Y-70599840D01*
X119762287Y-70508390D01*
X119754556Y-70497749D01*
X119641971Y-70342786D01*
X119497213Y-70198028D01*
X119331613Y-70077715D01*
X119331612Y-70077714D01*
X119331610Y-70077713D01*
X119274653Y-70048691D01*
X119149223Y-69984781D01*
X118954534Y-69921522D01*
X118779995Y-69893878D01*
X118752352Y-69889500D01*
X118547648Y-69889500D01*
X118523329Y-69893351D01*
X118345465Y-69921522D01*
X118150776Y-69984781D01*
X117968386Y-70077715D01*
X117802786Y-70198028D01*
X117658028Y-70342786D01*
X117537715Y-70508386D01*
X117490485Y-70601080D01*
X117442510Y-70651876D01*
X117374689Y-70668671D01*
X117308554Y-70646134D01*
X117269515Y-70601080D01*
X117268883Y-70599840D01*
X117222287Y-70508390D01*
X117214556Y-70497749D01*
X117101971Y-70342786D01*
X116957213Y-70198028D01*
X116791613Y-70077715D01*
X116791612Y-70077714D01*
X116791610Y-70077713D01*
X116734653Y-70048691D01*
X116609223Y-69984781D01*
X116414534Y-69921522D01*
X116239995Y-69893878D01*
X116212352Y-69889500D01*
X116007648Y-69889500D01*
X115983329Y-69893351D01*
X115805465Y-69921522D01*
X115610776Y-69984781D01*
X115428386Y-70077715D01*
X115262786Y-70198028D01*
X115118028Y-70342786D01*
X114997715Y-70508386D01*
X114950485Y-70601080D01*
X114902510Y-70651876D01*
X114834689Y-70668671D01*
X114768554Y-70646134D01*
X114729515Y-70601080D01*
X114728883Y-70599840D01*
X114682287Y-70508390D01*
X114674556Y-70497749D01*
X114561971Y-70342786D01*
X114417213Y-70198028D01*
X114251613Y-70077715D01*
X114251612Y-70077714D01*
X114251610Y-70077713D01*
X114194653Y-70048691D01*
X114069223Y-69984781D01*
X113874534Y-69921522D01*
X113699995Y-69893878D01*
X113672352Y-69889500D01*
X113467648Y-69889500D01*
X113443329Y-69893351D01*
X113265465Y-69921522D01*
X113070776Y-69984781D01*
X112888386Y-70077715D01*
X112722786Y-70198028D01*
X112578028Y-70342786D01*
X112457715Y-70508386D01*
X112364781Y-70690776D01*
X112301522Y-70885465D01*
X112269500Y-71087648D01*
X100500000Y-71087648D01*
X100500000Y-50624000D01*
X100519685Y-50556961D01*
X100572489Y-50511206D01*
X100624000Y-50500000D01*
X149376000Y-50500000D01*
X149443039Y-50519685D01*
G37*
%TD.AperFunction*%
%TD*%
%TA.AperFunction,Conductor*%
%TO.N,C_GND*%
G36*
X99443039Y-100519685D02*
G01*
X99488794Y-100572489D01*
X99500000Y-100624000D01*
X99500000Y-149376000D01*
X99480315Y-149443039D01*
X99427511Y-149488794D01*
X99376000Y-149500000D01*
X50624000Y-149500000D01*
X50556961Y-149480315D01*
X50511206Y-149427511D01*
X50500000Y-149376000D01*
X50500000Y-128209983D01*
X62269500Y-128209983D01*
X62269500Y-129410001D01*
X62269501Y-129410018D01*
X62280000Y-129512796D01*
X62280001Y-129512799D01*
X62296818Y-129563548D01*
X62335186Y-129679334D01*
X62427288Y-129828656D01*
X62551344Y-129952712D01*
X62700666Y-130044814D01*
X62867203Y-130099999D01*
X62969991Y-130110500D01*
X64170008Y-130110499D01*
X64272797Y-130099999D01*
X64439334Y-130044814D01*
X64588656Y-129952712D01*
X64712712Y-129828656D01*
X64804814Y-129679334D01*
X64831955Y-129597427D01*
X64871726Y-129539984D01*
X64936242Y-129513161D01*
X65005018Y-129525476D01*
X65049977Y-129563547D01*
X65118030Y-129657213D01*
X65118034Y-129657219D01*
X65262786Y-129801971D01*
X65383226Y-129889474D01*
X65428390Y-129922287D01*
X65544607Y-129981503D01*
X65610776Y-130015218D01*
X65610778Y-130015218D01*
X65610781Y-130015220D01*
X65701856Y-130044812D01*
X65805465Y-130078477D01*
X65906557Y-130094488D01*
X66007648Y-130110500D01*
X66007649Y-130110500D01*
X66212351Y-130110500D01*
X66212352Y-130110500D01*
X66414534Y-130078477D01*
X66609219Y-130015220D01*
X66791610Y-129922287D01*
X66920482Y-129828657D01*
X66957213Y-129801971D01*
X66957215Y-129801968D01*
X66957219Y-129801966D01*
X67101966Y-129657219D01*
X67101968Y-129657215D01*
X67101971Y-129657213D01*
X67222284Y-129491614D01*
X67222286Y-129491611D01*
X67222287Y-129491610D01*
X67269516Y-129398917D01*
X67317489Y-129348123D01*
X67385310Y-129331328D01*
X67451445Y-129353865D01*
X67490483Y-129398917D01*
X67496140Y-129410018D01*
X67537715Y-129491614D01*
X67658028Y-129657213D01*
X67802786Y-129801971D01*
X67923226Y-129889474D01*
X67968390Y-129922287D01*
X68084607Y-129981503D01*
X68150776Y-130015218D01*
X68150778Y-130015218D01*
X68150781Y-130015220D01*
X68241856Y-130044812D01*
X68345465Y-130078477D01*
X68446557Y-130094488D01*
X68547648Y-130110500D01*
X68547649Y-130110500D01*
X68752351Y-130110500D01*
X68752352Y-130110500D01*
X68954534Y-130078477D01*
X69149219Y-130015220D01*
X69331610Y-129922287D01*
X69460482Y-129828657D01*
X69497213Y-129801971D01*
X69497215Y-129801968D01*
X69497219Y-129801966D01*
X69641966Y-129657219D01*
X69641968Y-129657215D01*
X69641971Y-129657213D01*
X69762284Y-129491614D01*
X69762286Y-129491611D01*
X69762287Y-129491610D01*
X69809516Y-129398917D01*
X69857489Y-129348123D01*
X69925310Y-129331328D01*
X69991445Y-129353865D01*
X70030483Y-129398917D01*
X70036140Y-129410018D01*
X70077715Y-129491614D01*
X70198028Y-129657213D01*
X70342786Y-129801971D01*
X70463226Y-129889474D01*
X70508390Y-129922287D01*
X70624607Y-129981503D01*
X70690776Y-130015218D01*
X70690778Y-130015218D01*
X70690781Y-130015220D01*
X70781856Y-130044812D01*
X70885465Y-130078477D01*
X70986557Y-130094488D01*
X71087648Y-130110500D01*
X71087649Y-130110500D01*
X71292351Y-130110500D01*
X71292352Y-130110500D01*
X71494534Y-130078477D01*
X71689219Y-130015220D01*
X71871610Y-129922287D01*
X72000482Y-129828657D01*
X72037213Y-129801971D01*
X72037215Y-129801968D01*
X72037219Y-129801966D01*
X72181966Y-129657219D01*
X72181968Y-129657215D01*
X72181971Y-129657213D01*
X72302284Y-129491614D01*
X72302286Y-129491611D01*
X72302287Y-129491610D01*
X72349516Y-129398917D01*
X72397489Y-129348123D01*
X72465310Y-129331328D01*
X72531445Y-129353865D01*
X72570483Y-129398917D01*
X72576140Y-129410018D01*
X72617715Y-129491614D01*
X72738028Y-129657213D01*
X72882786Y-129801971D01*
X73003226Y-129889474D01*
X73048390Y-129922287D01*
X73164607Y-129981503D01*
X73230776Y-130015218D01*
X73230778Y-130015218D01*
X73230781Y-130015220D01*
X73321856Y-130044812D01*
X73425465Y-130078477D01*
X73526557Y-130094488D01*
X73627648Y-130110500D01*
X73627649Y-130110500D01*
X73832351Y-130110500D01*
X73832352Y-130110500D01*
X74034534Y-130078477D01*
X74229219Y-130015220D01*
X74411610Y-129922287D01*
X74540482Y-129828657D01*
X74577213Y-129801971D01*
X74577215Y-129801968D01*
X74577219Y-129801966D01*
X74721966Y-129657219D01*
X74721968Y-129657215D01*
X74721971Y-129657213D01*
X74842284Y-129491614D01*
X74842286Y-129491611D01*
X74842287Y-129491610D01*
X74889516Y-129398917D01*
X74937489Y-129348123D01*
X75005310Y-129331328D01*
X75071445Y-129353865D01*
X75110483Y-129398917D01*
X75116140Y-129410018D01*
X75157715Y-129491614D01*
X75278028Y-129657213D01*
X75422786Y-129801971D01*
X75543226Y-129889474D01*
X75588390Y-129922287D01*
X75704607Y-129981503D01*
X75770776Y-130015218D01*
X75770778Y-130015218D01*
X75770781Y-130015220D01*
X75861856Y-130044812D01*
X75965465Y-130078477D01*
X76066557Y-130094488D01*
X76167648Y-130110500D01*
X76167649Y-130110500D01*
X76372351Y-130110500D01*
X76372352Y-130110500D01*
X76574534Y-130078477D01*
X76769219Y-130015220D01*
X76951610Y-129922287D01*
X77080482Y-129828657D01*
X77117213Y-129801971D01*
X77117215Y-129801968D01*
X77117219Y-129801966D01*
X77261966Y-129657219D01*
X77261968Y-129657215D01*
X77261971Y-129657213D01*
X77366894Y-129512797D01*
X77382287Y-129491610D01*
X77429795Y-129398369D01*
X77477769Y-129347573D01*
X77545590Y-129330778D01*
X77611725Y-129353315D01*
X77650765Y-129398369D01*
X77698141Y-129491350D01*
X77698147Y-129491359D01*
X77730523Y-129535921D01*
X77730524Y-129535922D01*
X78410000Y-128856446D01*
X78410000Y-128862661D01*
X78437259Y-128964394D01*
X78489920Y-129055606D01*
X78564394Y-129130080D01*
X78655606Y-129182741D01*
X78757339Y-129210000D01*
X78763553Y-129210000D01*
X78084076Y-129889474D01*
X78128650Y-129921859D01*
X78310968Y-130014755D01*
X78505582Y-130077990D01*
X78707683Y-130110000D01*
X78912317Y-130110000D01*
X79114417Y-130077990D01*
X79309031Y-130014755D01*
X79491349Y-129921859D01*
X79535921Y-129889474D01*
X78856447Y-129210000D01*
X78862661Y-129210000D01*
X78964394Y-129182741D01*
X79055606Y-129130080D01*
X79130080Y-129055606D01*
X79182741Y-128964394D01*
X79210000Y-128862661D01*
X79210000Y-128856447D01*
X79889474Y-129535921D01*
X79921861Y-129491347D01*
X79921861Y-129491346D01*
X79969234Y-129398371D01*
X80017208Y-129347575D01*
X80085028Y-129330779D01*
X80151164Y-129353316D01*
X80190203Y-129398369D01*
X80237713Y-129491611D01*
X80358028Y-129657213D01*
X80502786Y-129801971D01*
X80623226Y-129889474D01*
X80668390Y-129922287D01*
X80784607Y-129981503D01*
X80850776Y-130015218D01*
X80850778Y-130015218D01*
X80850781Y-130015220D01*
X80941856Y-130044812D01*
X81045465Y-130078477D01*
X81146557Y-130094488D01*
X81247648Y-130110500D01*
X81247649Y-130110500D01*
X81452351Y-130110500D01*
X81452352Y-130110500D01*
X81654534Y-130078477D01*
X81849219Y-130015220D01*
X82031610Y-129922287D01*
X82160482Y-129828657D01*
X82197213Y-129801971D01*
X82197215Y-129801968D01*
X82197219Y-129801966D01*
X82341966Y-129657219D01*
X82341968Y-129657215D01*
X82341971Y-129657213D01*
X82462284Y-129491614D01*
X82462286Y-129491611D01*
X82462287Y-129491610D01*
X82509516Y-129398917D01*
X82557489Y-129348123D01*
X82625310Y-129331328D01*
X82691445Y-129353865D01*
X82730483Y-129398917D01*
X82736140Y-129410018D01*
X82777715Y-129491614D01*
X82898028Y-129657213D01*
X83042786Y-129801971D01*
X83163226Y-129889474D01*
X83208390Y-129922287D01*
X83324607Y-129981503D01*
X83390776Y-130015218D01*
X83390778Y-130015218D01*
X83390781Y-130015220D01*
X83481856Y-130044812D01*
X83585465Y-130078477D01*
X83686557Y-130094488D01*
X83787648Y-130110500D01*
X83787649Y-130110500D01*
X83992351Y-130110500D01*
X83992352Y-130110500D01*
X84194534Y-130078477D01*
X84389219Y-130015220D01*
X84571610Y-129922287D01*
X84700482Y-129828657D01*
X84737213Y-129801971D01*
X84737215Y-129801968D01*
X84737219Y-129801966D01*
X84881966Y-129657219D01*
X84881968Y-129657215D01*
X84881971Y-129657213D01*
X85002284Y-129491614D01*
X85002286Y-129491611D01*
X85002287Y-129491610D01*
X85049516Y-129398917D01*
X85097489Y-129348123D01*
X85165310Y-129331328D01*
X85231445Y-129353865D01*
X85270483Y-129398917D01*
X85276140Y-129410018D01*
X85317715Y-129491614D01*
X85438028Y-129657213D01*
X85582786Y-129801971D01*
X85703226Y-129889474D01*
X85748390Y-129922287D01*
X85864607Y-129981503D01*
X85930776Y-130015218D01*
X85930778Y-130015218D01*
X85930781Y-130015220D01*
X86021856Y-130044812D01*
X86125465Y-130078477D01*
X86226557Y-130094488D01*
X86327648Y-130110500D01*
X86327649Y-130110500D01*
X86532351Y-130110500D01*
X86532352Y-130110500D01*
X86734534Y-130078477D01*
X86929219Y-130015220D01*
X87111610Y-129922287D01*
X87240482Y-129828657D01*
X87277213Y-129801971D01*
X87277215Y-129801968D01*
X87277219Y-129801966D01*
X87421966Y-129657219D01*
X87421968Y-129657215D01*
X87421971Y-129657213D01*
X87490021Y-129563548D01*
X87542287Y-129491610D01*
X87635220Y-129309219D01*
X87698477Y-129114534D01*
X87730500Y-128912352D01*
X87730500Y-128707648D01*
X87722257Y-128655606D01*
X87698477Y-128505465D01*
X87635218Y-128310776D01*
X87583865Y-128209991D01*
X87542287Y-128128390D01*
X87510092Y-128084077D01*
X87421971Y-127962786D01*
X87277213Y-127818028D01*
X87111613Y-127697715D01*
X87111612Y-127697714D01*
X87111610Y-127697713D01*
X87051898Y-127667288D01*
X86929223Y-127604781D01*
X86734534Y-127541522D01*
X86559995Y-127513878D01*
X86532352Y-127509500D01*
X86327648Y-127509500D01*
X86303329Y-127513351D01*
X86125465Y-127541522D01*
X85930776Y-127604781D01*
X85748386Y-127697715D01*
X85582786Y-127818028D01*
X85438028Y-127962786D01*
X85317715Y-128128386D01*
X85270485Y-128221080D01*
X85222510Y-128271876D01*
X85154689Y-128288671D01*
X85088554Y-128266134D01*
X85049515Y-128221080D01*
X85002420Y-128128652D01*
X85002287Y-128128390D01*
X84970092Y-128084077D01*
X84881971Y-127962786D01*
X84737213Y-127818028D01*
X84571613Y-127697715D01*
X84571612Y-127697714D01*
X84571610Y-127697713D01*
X84511898Y-127667288D01*
X84389223Y-127604781D01*
X84194534Y-127541522D01*
X84019995Y-127513878D01*
X83992352Y-127509500D01*
X83787648Y-127509500D01*
X83763329Y-127513351D01*
X83585465Y-127541522D01*
X83390776Y-127604781D01*
X83208386Y-127697715D01*
X83042786Y-127818028D01*
X82898028Y-127962786D01*
X82777715Y-128128386D01*
X82730485Y-128221080D01*
X82682510Y-128271876D01*
X82614689Y-128288671D01*
X82548554Y-128266134D01*
X82509515Y-128221080D01*
X82462420Y-128128652D01*
X82462287Y-128128390D01*
X82430092Y-128084077D01*
X82341971Y-127962786D01*
X82197213Y-127818028D01*
X82031613Y-127697715D01*
X82031612Y-127697714D01*
X82031610Y-127697713D01*
X81971898Y-127667288D01*
X81849223Y-127604781D01*
X81654534Y-127541522D01*
X81479995Y-127513878D01*
X81452352Y-127509500D01*
X81247648Y-127509500D01*
X81223329Y-127513351D01*
X81045465Y-127541522D01*
X80850776Y-127604781D01*
X80668386Y-127697715D01*
X80502786Y-127818028D01*
X80358028Y-127962786D01*
X80237713Y-128128388D01*
X80190203Y-128221630D01*
X80142228Y-128272426D01*
X80074407Y-128289220D01*
X80008272Y-128266682D01*
X79969234Y-128221628D01*
X79921861Y-128128652D01*
X79889474Y-128084077D01*
X79889474Y-128084076D01*
X79210000Y-128763551D01*
X79210000Y-128757339D01*
X79182741Y-128655606D01*
X79130080Y-128564394D01*
X79055606Y-128489920D01*
X78964394Y-128437259D01*
X78862661Y-128410000D01*
X78856446Y-128410000D01*
X79535922Y-127730524D01*
X79535921Y-127730523D01*
X79491359Y-127698147D01*
X79491350Y-127698141D01*
X79309031Y-127605244D01*
X79114417Y-127542009D01*
X78912317Y-127510000D01*
X78707683Y-127510000D01*
X78505582Y-127542009D01*
X78310968Y-127605244D01*
X78128644Y-127698143D01*
X78084077Y-127730523D01*
X78084077Y-127730524D01*
X78763554Y-128410000D01*
X78757339Y-128410000D01*
X78655606Y-128437259D01*
X78564394Y-128489920D01*
X78489920Y-128564394D01*
X78437259Y-128655606D01*
X78410000Y-128757339D01*
X78410000Y-128763553D01*
X77730524Y-128084077D01*
X77730523Y-128084077D01*
X77698143Y-128128644D01*
X77650765Y-128221630D01*
X77602790Y-128272426D01*
X77534969Y-128289221D01*
X77468834Y-128266683D01*
X77429795Y-128221630D01*
X77382284Y-128128385D01*
X77261971Y-127962786D01*
X77117213Y-127818028D01*
X76951613Y-127697715D01*
X76951612Y-127697714D01*
X76951610Y-127697713D01*
X76891898Y-127667288D01*
X76769223Y-127604781D01*
X76574534Y-127541522D01*
X76399995Y-127513878D01*
X76372352Y-127509500D01*
X76167648Y-127509500D01*
X76143329Y-127513351D01*
X75965465Y-127541522D01*
X75770776Y-127604781D01*
X75588386Y-127697715D01*
X75422786Y-127818028D01*
X75278028Y-127962786D01*
X75157715Y-128128386D01*
X75110485Y-128221080D01*
X75062510Y-128271876D01*
X74994689Y-128288671D01*
X74928554Y-128266134D01*
X74889515Y-128221080D01*
X74842420Y-128128652D01*
X74842287Y-128128390D01*
X74810092Y-128084077D01*
X74721971Y-127962786D01*
X74577213Y-127818028D01*
X74411613Y-127697715D01*
X74411612Y-127697714D01*
X74411610Y-127697713D01*
X74351898Y-127667288D01*
X74229223Y-127604781D01*
X74034534Y-127541522D01*
X73859995Y-127513878D01*
X73832352Y-127509500D01*
X73627648Y-127509500D01*
X73603329Y-127513351D01*
X73425465Y-127541522D01*
X73230776Y-127604781D01*
X73048386Y-127697715D01*
X72882786Y-127818028D01*
X72738028Y-127962786D01*
X72617715Y-128128386D01*
X72570485Y-128221080D01*
X72522510Y-128271876D01*
X72454689Y-128288671D01*
X72388554Y-128266134D01*
X72349515Y-128221080D01*
X72302420Y-128128652D01*
X72302287Y-128128390D01*
X72270092Y-128084077D01*
X72181971Y-127962786D01*
X72037213Y-127818028D01*
X71871613Y-127697715D01*
X71871612Y-127697714D01*
X71871610Y-127697713D01*
X71811898Y-127667288D01*
X71689223Y-127604781D01*
X71494534Y-127541522D01*
X71319995Y-127513878D01*
X71292352Y-127509500D01*
X71087648Y-127509500D01*
X71063329Y-127513351D01*
X70885465Y-127541522D01*
X70690776Y-127604781D01*
X70508386Y-127697715D01*
X70342786Y-127818028D01*
X70198028Y-127962786D01*
X70077715Y-128128386D01*
X70030485Y-128221080D01*
X69982510Y-128271876D01*
X69914689Y-128288671D01*
X69848554Y-128266134D01*
X69809515Y-128221080D01*
X69762420Y-128128652D01*
X69762287Y-128128390D01*
X69730092Y-128084077D01*
X69641971Y-127962786D01*
X69497213Y-127818028D01*
X69331613Y-127697715D01*
X69331612Y-127697714D01*
X69331610Y-127697713D01*
X69271898Y-127667288D01*
X69149223Y-127604781D01*
X68954534Y-127541522D01*
X68779995Y-127513878D01*
X68752352Y-127509500D01*
X68547648Y-127509500D01*
X68523329Y-127513351D01*
X68345465Y-127541522D01*
X68150776Y-127604781D01*
X67968386Y-127697715D01*
X67802786Y-127818028D01*
X67658028Y-127962786D01*
X67537715Y-128128386D01*
X67490485Y-128221080D01*
X67442510Y-128271876D01*
X67374689Y-128288671D01*
X67308554Y-128266134D01*
X67269515Y-128221080D01*
X67222420Y-128128652D01*
X67222287Y-128128390D01*
X67190092Y-128084077D01*
X67101971Y-127962786D01*
X66957213Y-127818028D01*
X66791613Y-127697715D01*
X66791612Y-127697714D01*
X66791610Y-127697713D01*
X66731898Y-127667288D01*
X66609223Y-127604781D01*
X66414534Y-127541522D01*
X66239995Y-127513878D01*
X66212352Y-127509500D01*
X66007648Y-127509500D01*
X65983329Y-127513351D01*
X65805465Y-127541522D01*
X65610776Y-127604781D01*
X65428386Y-127697715D01*
X65262786Y-127818028D01*
X65118032Y-127962782D01*
X65118028Y-127962787D01*
X65049978Y-128056451D01*
X64994648Y-128099117D01*
X64925035Y-128105096D01*
X64863240Y-128072490D01*
X64831954Y-128022570D01*
X64812144Y-127962787D01*
X64804814Y-127940666D01*
X64712712Y-127791344D01*
X64588656Y-127667288D01*
X64439334Y-127575186D01*
X64272797Y-127520001D01*
X64272795Y-127520000D01*
X64170010Y-127509500D01*
X62969998Y-127509500D01*
X62969981Y-127509501D01*
X62867203Y-127520000D01*
X62867200Y-127520001D01*
X62700668Y-127575185D01*
X62700663Y-127575187D01*
X62551342Y-127667289D01*
X62427289Y-127791342D01*
X62335187Y-127940663D01*
X62335185Y-127940668D01*
X62308046Y-128022570D01*
X62280001Y-128107203D01*
X62280001Y-128107204D01*
X62280000Y-128107204D01*
X62269500Y-128209983D01*
X50500000Y-128209983D01*
X50500000Y-126550000D01*
X51950000Y-126550000D01*
X55050000Y-126550000D01*
X55050000Y-123450000D01*
X51950000Y-123450000D01*
X51950000Y-126550000D01*
X50500000Y-126550000D01*
X50500000Y-123277135D01*
X56949500Y-123277135D01*
X56949500Y-125072870D01*
X56949501Y-125072876D01*
X56955908Y-125132483D01*
X57006202Y-125267328D01*
X57006206Y-125267335D01*
X57092452Y-125382544D01*
X57092455Y-125382547D01*
X57207664Y-125468793D01*
X57207671Y-125468797D01*
X57252618Y-125485561D01*
X57342517Y-125519091D01*
X57402127Y-125525500D01*
X57412685Y-125525499D01*
X57479723Y-125545179D01*
X57500372Y-125561818D01*
X58170591Y-126232037D01*
X58107007Y-126249075D01*
X57992993Y-126314901D01*
X57899901Y-126407993D01*
X57834075Y-126522007D01*
X57817037Y-126585591D01*
X57184728Y-125953282D01*
X57184727Y-125953282D01*
X57145380Y-126007439D01*
X57048904Y-126196782D01*
X56983242Y-126398869D01*
X56983242Y-126398872D01*
X56950000Y-126608753D01*
X56950000Y-126821246D01*
X56983242Y-127031127D01*
X56983242Y-127031130D01*
X57048904Y-127233217D01*
X57145375Y-127422550D01*
X57184728Y-127476716D01*
X57817037Y-126844408D01*
X57834075Y-126907993D01*
X57899901Y-127022007D01*
X57992993Y-127115099D01*
X58107007Y-127180925D01*
X58170590Y-127197962D01*
X57538282Y-127830269D01*
X57538282Y-127830270D01*
X57592449Y-127869624D01*
X57781782Y-127966095D01*
X57983870Y-128031757D01*
X58193754Y-128065000D01*
X58406246Y-128065000D01*
X58616127Y-128031757D01*
X58616130Y-128031757D01*
X58818217Y-127966095D01*
X59007554Y-127869622D01*
X59061716Y-127830270D01*
X59061717Y-127830270D01*
X58429408Y-127197962D01*
X58492993Y-127180925D01*
X58607007Y-127115099D01*
X58700099Y-127022007D01*
X58765925Y-126907993D01*
X58782962Y-126844408D01*
X59415270Y-127476717D01*
X59415270Y-127476716D01*
X59454622Y-127422554D01*
X59551095Y-127233217D01*
X59616757Y-127031130D01*
X59616757Y-127031127D01*
X59650000Y-126821246D01*
X59650000Y-126608753D01*
X59616757Y-126398872D01*
X59616757Y-126398869D01*
X59551095Y-126196782D01*
X59454624Y-126007449D01*
X59415270Y-125953282D01*
X59415269Y-125953282D01*
X58782962Y-126585590D01*
X58765925Y-126522007D01*
X58700099Y-126407993D01*
X58607007Y-126314901D01*
X58492993Y-126249075D01*
X58429409Y-126232037D01*
X59099627Y-125561818D01*
X59160950Y-125528333D01*
X59187307Y-125525499D01*
X59197872Y-125525499D01*
X59257483Y-125519091D01*
X59392331Y-125468796D01*
X59507546Y-125382546D01*
X59593796Y-125267331D01*
X59644091Y-125132483D01*
X59650500Y-125072873D01*
X59650499Y-123277128D01*
X59644091Y-123217517D01*
X59593796Y-123082669D01*
X59593795Y-123082668D01*
X59593793Y-123082664D01*
X59507547Y-122967455D01*
X59507544Y-122967452D01*
X59392335Y-122881206D01*
X59392328Y-122881202D01*
X59257482Y-122830908D01*
X59257483Y-122830908D01*
X59197883Y-122824501D01*
X59197881Y-122824500D01*
X59197873Y-122824500D01*
X59197864Y-122824500D01*
X57402129Y-122824500D01*
X57402123Y-122824501D01*
X57342516Y-122830908D01*
X57207671Y-122881202D01*
X57207664Y-122881206D01*
X57092455Y-122967452D01*
X57092452Y-122967455D01*
X57006206Y-123082664D01*
X57006202Y-123082671D01*
X56955908Y-123217517D01*
X56949501Y-123277116D01*
X56949501Y-123277123D01*
X56949500Y-123277135D01*
X50500000Y-123277135D01*
X50500000Y-121087648D01*
X62269500Y-121087648D01*
X62269500Y-121292351D01*
X62301522Y-121494534D01*
X62364781Y-121689223D01*
X62457715Y-121871613D01*
X62578028Y-122037213D01*
X62722786Y-122181971D01*
X62877749Y-122294556D01*
X62888390Y-122302287D01*
X63004607Y-122361503D01*
X63070776Y-122395218D01*
X63070778Y-122395218D01*
X63070781Y-122395220D01*
X63175137Y-122429127D01*
X63265465Y-122458477D01*
X63366557Y-122474488D01*
X63467648Y-122490500D01*
X63467649Y-122490500D01*
X63672351Y-122490500D01*
X63672352Y-122490500D01*
X63874534Y-122458477D01*
X64069219Y-122395220D01*
X64251610Y-122302287D01*
X64344590Y-122234732D01*
X64417213Y-122181971D01*
X64417215Y-122181968D01*
X64417219Y-122181966D01*
X64561966Y-122037219D01*
X64561968Y-122037215D01*
X64561971Y-122037213D01*
X64682284Y-121871614D01*
X64682285Y-121871613D01*
X64682287Y-121871610D01*
X64729516Y-121778917D01*
X64777489Y-121728123D01*
X64845310Y-121711328D01*
X64911445Y-121733865D01*
X64950485Y-121778919D01*
X64997715Y-121871614D01*
X65118028Y-122037213D01*
X65262786Y-122181971D01*
X65417749Y-122294556D01*
X65428390Y-122302287D01*
X65544607Y-122361503D01*
X65610776Y-122395218D01*
X65610778Y-122395218D01*
X65610781Y-122395220D01*
X65715137Y-122429127D01*
X65805465Y-122458477D01*
X65906557Y-122474488D01*
X66007648Y-122490500D01*
X66007649Y-122490500D01*
X66212351Y-122490500D01*
X66212352Y-122490500D01*
X66414534Y-122458477D01*
X66609219Y-122395220D01*
X66791610Y-122302287D01*
X66884590Y-122234732D01*
X66957213Y-122181971D01*
X66957215Y-122181968D01*
X66957219Y-122181966D01*
X67101966Y-122037219D01*
X67101968Y-122037215D01*
X67101971Y-122037213D01*
X67222284Y-121871614D01*
X67222285Y-121871613D01*
X67222287Y-121871610D01*
X67269516Y-121778917D01*
X67317489Y-121728123D01*
X67385310Y-121711328D01*
X67451445Y-121733865D01*
X67490485Y-121778919D01*
X67537715Y-121871614D01*
X67658028Y-122037213D01*
X67802786Y-122181971D01*
X67957749Y-122294556D01*
X67968390Y-122302287D01*
X68084607Y-122361503D01*
X68150776Y-122395218D01*
X68150778Y-122395218D01*
X68150781Y-122395220D01*
X68255137Y-122429127D01*
X68345465Y-122458477D01*
X68446557Y-122474488D01*
X68547648Y-122490500D01*
X68547649Y-122490500D01*
X68752351Y-122490500D01*
X68752352Y-122490500D01*
X68954534Y-122458477D01*
X69149219Y-122395220D01*
X69331610Y-122302287D01*
X69424590Y-122234732D01*
X69497213Y-122181971D01*
X69497215Y-122181968D01*
X69497219Y-122181966D01*
X69641966Y-122037219D01*
X69641968Y-122037215D01*
X69641971Y-122037213D01*
X69762284Y-121871614D01*
X69762285Y-121871613D01*
X69762287Y-121871610D01*
X69809516Y-121778917D01*
X69857489Y-121728123D01*
X69925310Y-121711328D01*
X69991445Y-121733865D01*
X70030485Y-121778919D01*
X70077715Y-121871614D01*
X70198028Y-122037213D01*
X70342786Y-122181971D01*
X70497749Y-122294556D01*
X70508390Y-122302287D01*
X70624607Y-122361503D01*
X70690776Y-122395218D01*
X70690778Y-122395218D01*
X70690781Y-122395220D01*
X70795137Y-122429127D01*
X70885465Y-122458477D01*
X70986557Y-122474488D01*
X71087648Y-122490500D01*
X71087649Y-122490500D01*
X71292351Y-122490500D01*
X71292352Y-122490500D01*
X71494534Y-122458477D01*
X71689219Y-122395220D01*
X71871610Y-122302287D01*
X71964590Y-122234732D01*
X72037213Y-122181971D01*
X72037215Y-122181968D01*
X72037219Y-122181966D01*
X72181966Y-122037219D01*
X72181968Y-122037215D01*
X72181971Y-122037213D01*
X72302284Y-121871614D01*
X72302285Y-121871613D01*
X72302287Y-121871610D01*
X72349516Y-121778917D01*
X72397489Y-121728123D01*
X72465310Y-121711328D01*
X72531445Y-121733865D01*
X72570485Y-121778919D01*
X72617715Y-121871614D01*
X72738028Y-122037213D01*
X72882786Y-122181971D01*
X73037749Y-122294556D01*
X73048390Y-122302287D01*
X73164607Y-122361503D01*
X73230776Y-122395218D01*
X73230778Y-122395218D01*
X73230781Y-122395220D01*
X73335137Y-122429127D01*
X73425465Y-122458477D01*
X73526557Y-122474488D01*
X73627648Y-122490500D01*
X73627649Y-122490500D01*
X73832351Y-122490500D01*
X73832352Y-122490500D01*
X74034534Y-122458477D01*
X74229219Y-122395220D01*
X74411610Y-122302287D01*
X74504590Y-122234732D01*
X74577213Y-122181971D01*
X74577215Y-122181968D01*
X74577219Y-122181966D01*
X74721966Y-122037219D01*
X74721968Y-122037215D01*
X74721971Y-122037213D01*
X74842284Y-121871614D01*
X74842285Y-121871613D01*
X74842287Y-121871610D01*
X74889516Y-121778917D01*
X74937489Y-121728123D01*
X75005310Y-121711328D01*
X75071445Y-121733865D01*
X75110485Y-121778919D01*
X75157715Y-121871614D01*
X75278028Y-122037213D01*
X75422786Y-122181971D01*
X75577749Y-122294556D01*
X75588390Y-122302287D01*
X75704607Y-122361503D01*
X75770776Y-122395218D01*
X75770778Y-122395218D01*
X75770781Y-122395220D01*
X75875137Y-122429127D01*
X75965465Y-122458477D01*
X76066557Y-122474488D01*
X76167648Y-122490500D01*
X76167649Y-122490500D01*
X76372351Y-122490500D01*
X76372352Y-122490500D01*
X76574534Y-122458477D01*
X76769219Y-122395220D01*
X76951610Y-122302287D01*
X77044590Y-122234732D01*
X77117213Y-122181971D01*
X77117215Y-122181968D01*
X77117219Y-122181966D01*
X77261966Y-122037219D01*
X77261968Y-122037215D01*
X77261971Y-122037213D01*
X77382284Y-121871614D01*
X77382285Y-121871613D01*
X77382287Y-121871610D01*
X77429516Y-121778917D01*
X77477489Y-121728123D01*
X77545310Y-121711328D01*
X77611445Y-121733865D01*
X77650485Y-121778919D01*
X77697715Y-121871614D01*
X77818028Y-122037213D01*
X77962786Y-122181971D01*
X78117749Y-122294556D01*
X78128390Y-122302287D01*
X78244607Y-122361503D01*
X78310776Y-122395218D01*
X78310778Y-122395218D01*
X78310781Y-122395220D01*
X78415137Y-122429127D01*
X78505465Y-122458477D01*
X78606557Y-122474488D01*
X78707648Y-122490500D01*
X78707649Y-122490500D01*
X78912351Y-122490500D01*
X78912352Y-122490500D01*
X79114534Y-122458477D01*
X79309219Y-122395220D01*
X79491610Y-122302287D01*
X79584590Y-122234732D01*
X79657213Y-122181971D01*
X79657215Y-122181968D01*
X79657219Y-122181966D01*
X79801966Y-122037219D01*
X79801968Y-122037215D01*
X79801971Y-122037213D01*
X79922284Y-121871614D01*
X79922285Y-121871613D01*
X79922287Y-121871610D01*
X79969516Y-121778917D01*
X80017489Y-121728123D01*
X80085310Y-121711328D01*
X80151445Y-121733865D01*
X80190485Y-121778919D01*
X80237715Y-121871614D01*
X80358028Y-122037213D01*
X80502786Y-122181971D01*
X80657749Y-122294556D01*
X80668390Y-122302287D01*
X80784607Y-122361503D01*
X80850776Y-122395218D01*
X80850778Y-122395218D01*
X80850781Y-122395220D01*
X80955137Y-122429127D01*
X81045465Y-122458477D01*
X81146557Y-122474488D01*
X81247648Y-122490500D01*
X81247649Y-122490500D01*
X81452351Y-122490500D01*
X81452352Y-122490500D01*
X81654534Y-122458477D01*
X81849219Y-122395220D01*
X82031610Y-122302287D01*
X82124590Y-122234732D01*
X82197213Y-122181971D01*
X82197215Y-122181968D01*
X82197219Y-122181966D01*
X82341966Y-122037219D01*
X82341968Y-122037215D01*
X82341971Y-122037213D01*
X82462284Y-121871614D01*
X82462285Y-121871613D01*
X82462287Y-121871610D01*
X82509516Y-121778917D01*
X82557489Y-121728123D01*
X82625310Y-121711328D01*
X82691445Y-121733865D01*
X82730485Y-121778919D01*
X82777715Y-121871614D01*
X82898028Y-122037213D01*
X83042786Y-122181971D01*
X83197749Y-122294556D01*
X83208390Y-122302287D01*
X83324607Y-122361503D01*
X83390776Y-122395218D01*
X83390778Y-122395218D01*
X83390781Y-122395220D01*
X83495137Y-122429127D01*
X83585465Y-122458477D01*
X83686557Y-122474488D01*
X83787648Y-122490500D01*
X83787649Y-122490500D01*
X83992351Y-122490500D01*
X83992352Y-122490500D01*
X84194534Y-122458477D01*
X84389219Y-122395220D01*
X84571610Y-122302287D01*
X84664590Y-122234732D01*
X84737213Y-122181971D01*
X84737215Y-122181968D01*
X84737219Y-122181966D01*
X84881966Y-122037219D01*
X84881968Y-122037215D01*
X84881971Y-122037213D01*
X85002284Y-121871614D01*
X85002285Y-121871613D01*
X85002287Y-121871610D01*
X85049516Y-121778917D01*
X85097489Y-121728123D01*
X85165310Y-121711328D01*
X85231445Y-121733865D01*
X85270485Y-121778919D01*
X85317715Y-121871614D01*
X85438028Y-122037213D01*
X85582786Y-122181971D01*
X85737749Y-122294556D01*
X85748390Y-122302287D01*
X85864607Y-122361503D01*
X85930776Y-122395218D01*
X85930778Y-122395218D01*
X85930781Y-122395220D01*
X86035137Y-122429127D01*
X86125465Y-122458477D01*
X86226557Y-122474488D01*
X86327648Y-122490500D01*
X86327649Y-122490500D01*
X86532351Y-122490500D01*
X86532352Y-122490500D01*
X86734534Y-122458477D01*
X86929219Y-122395220D01*
X87111610Y-122302287D01*
X87204590Y-122234732D01*
X87277213Y-122181971D01*
X87277215Y-122181968D01*
X87277219Y-122181966D01*
X87421966Y-122037219D01*
X87421968Y-122037215D01*
X87421971Y-122037213D01*
X87474732Y-121964590D01*
X87542287Y-121871610D01*
X87635220Y-121689219D01*
X87698477Y-121494534D01*
X87730500Y-121292352D01*
X87730500Y-121087648D01*
X87698477Y-120885466D01*
X87635220Y-120690781D01*
X87635218Y-120690778D01*
X87635218Y-120690776D01*
X87589515Y-120601080D01*
X87542287Y-120508390D01*
X87534556Y-120497749D01*
X87421971Y-120342786D01*
X87277213Y-120198028D01*
X87111613Y-120077715D01*
X87111612Y-120077714D01*
X87111610Y-120077713D01*
X87054653Y-120048691D01*
X86929223Y-119984781D01*
X86734534Y-119921522D01*
X86559995Y-119893878D01*
X86532352Y-119889500D01*
X86327648Y-119889500D01*
X86303329Y-119893351D01*
X86125465Y-119921522D01*
X85930776Y-119984781D01*
X85748386Y-120077715D01*
X85582786Y-120198028D01*
X85438028Y-120342786D01*
X85317715Y-120508386D01*
X85270485Y-120601080D01*
X85222510Y-120651876D01*
X85154689Y-120668671D01*
X85088554Y-120646134D01*
X85049515Y-120601080D01*
X85048883Y-120599840D01*
X85002287Y-120508390D01*
X84994556Y-120497749D01*
X84881971Y-120342786D01*
X84737213Y-120198028D01*
X84571613Y-120077715D01*
X84571612Y-120077714D01*
X84571610Y-120077713D01*
X84514653Y-120048691D01*
X84389223Y-119984781D01*
X84194534Y-119921522D01*
X84019995Y-119893878D01*
X83992352Y-119889500D01*
X83787648Y-119889500D01*
X83763329Y-119893351D01*
X83585465Y-119921522D01*
X83390776Y-119984781D01*
X83208386Y-120077715D01*
X83042786Y-120198028D01*
X82898028Y-120342786D01*
X82777715Y-120508386D01*
X82730485Y-120601080D01*
X82682510Y-120651876D01*
X82614689Y-120668671D01*
X82548554Y-120646134D01*
X82509515Y-120601080D01*
X82508883Y-120599840D01*
X82462287Y-120508390D01*
X82454556Y-120497749D01*
X82341971Y-120342786D01*
X82197213Y-120198028D01*
X82031613Y-120077715D01*
X82031612Y-120077714D01*
X82031610Y-120077713D01*
X81974653Y-120048691D01*
X81849223Y-119984781D01*
X81654534Y-119921522D01*
X81479995Y-119893878D01*
X81452352Y-119889500D01*
X81247648Y-119889500D01*
X81223329Y-119893351D01*
X81045465Y-119921522D01*
X80850776Y-119984781D01*
X80668386Y-120077715D01*
X80502786Y-120198028D01*
X80358028Y-120342786D01*
X80237715Y-120508386D01*
X80190485Y-120601080D01*
X80142510Y-120651876D01*
X80074689Y-120668671D01*
X80008554Y-120646134D01*
X79969515Y-120601080D01*
X79968883Y-120599840D01*
X79922287Y-120508390D01*
X79914556Y-120497749D01*
X79801971Y-120342786D01*
X79657213Y-120198028D01*
X79491613Y-120077715D01*
X79491612Y-120077714D01*
X79491610Y-120077713D01*
X79434653Y-120048691D01*
X79309223Y-119984781D01*
X79114534Y-119921522D01*
X78939995Y-119893878D01*
X78912352Y-119889500D01*
X78707648Y-119889500D01*
X78683329Y-119893351D01*
X78505465Y-119921522D01*
X78310776Y-119984781D01*
X78128386Y-120077715D01*
X77962786Y-120198028D01*
X77818028Y-120342786D01*
X77697715Y-120508386D01*
X77650485Y-120601080D01*
X77602510Y-120651876D01*
X77534689Y-120668671D01*
X77468554Y-120646134D01*
X77429515Y-120601080D01*
X77428883Y-120599840D01*
X77382287Y-120508390D01*
X77374556Y-120497749D01*
X77261971Y-120342786D01*
X77117213Y-120198028D01*
X76951613Y-120077715D01*
X76951612Y-120077714D01*
X76951610Y-120077713D01*
X76894653Y-120048691D01*
X76769223Y-119984781D01*
X76574534Y-119921522D01*
X76399995Y-119893878D01*
X76372352Y-119889500D01*
X76167648Y-119889500D01*
X76143329Y-119893351D01*
X75965465Y-119921522D01*
X75770776Y-119984781D01*
X75588386Y-120077715D01*
X75422786Y-120198028D01*
X75278028Y-120342786D01*
X75157715Y-120508386D01*
X75110485Y-120601080D01*
X75062510Y-120651876D01*
X74994689Y-120668671D01*
X74928554Y-120646134D01*
X74889515Y-120601080D01*
X74888883Y-120599840D01*
X74842287Y-120508390D01*
X74834556Y-120497749D01*
X74721971Y-120342786D01*
X74577213Y-120198028D01*
X74411613Y-120077715D01*
X74411612Y-120077714D01*
X74411610Y-120077713D01*
X74354653Y-120048691D01*
X74229223Y-119984781D01*
X74034534Y-119921522D01*
X73859995Y-119893878D01*
X73832352Y-119889500D01*
X73627648Y-119889500D01*
X73603329Y-119893351D01*
X73425465Y-119921522D01*
X73230776Y-119984781D01*
X73048386Y-120077715D01*
X72882786Y-120198028D01*
X72738028Y-120342786D01*
X72617715Y-120508386D01*
X72570485Y-120601080D01*
X72522510Y-120651876D01*
X72454689Y-120668671D01*
X72388554Y-120646134D01*
X72349515Y-120601080D01*
X72348883Y-120599840D01*
X72302287Y-120508390D01*
X72294556Y-120497749D01*
X72181971Y-120342786D01*
X72037213Y-120198028D01*
X71871613Y-120077715D01*
X71871612Y-120077714D01*
X71871610Y-120077713D01*
X71814653Y-120048691D01*
X71689223Y-119984781D01*
X71494534Y-119921522D01*
X71319995Y-119893878D01*
X71292352Y-119889500D01*
X71087648Y-119889500D01*
X71063329Y-119893351D01*
X70885465Y-119921522D01*
X70690776Y-119984781D01*
X70508386Y-120077715D01*
X70342786Y-120198028D01*
X70198028Y-120342786D01*
X70077715Y-120508386D01*
X70030485Y-120601080D01*
X69982510Y-120651876D01*
X69914689Y-120668671D01*
X69848554Y-120646134D01*
X69809515Y-120601080D01*
X69808883Y-120599840D01*
X69762287Y-120508390D01*
X69754556Y-120497749D01*
X69641971Y-120342786D01*
X69497213Y-120198028D01*
X69331613Y-120077715D01*
X69331612Y-120077714D01*
X69331610Y-120077713D01*
X69274653Y-120048691D01*
X69149223Y-119984781D01*
X68954534Y-119921522D01*
X68779995Y-119893878D01*
X68752352Y-119889500D01*
X68547648Y-119889500D01*
X68523329Y-119893351D01*
X68345465Y-119921522D01*
X68150776Y-119984781D01*
X67968386Y-120077715D01*
X67802786Y-120198028D01*
X67658028Y-120342786D01*
X67537715Y-120508386D01*
X67490485Y-120601080D01*
X67442510Y-120651876D01*
X67374689Y-120668671D01*
X67308554Y-120646134D01*
X67269515Y-120601080D01*
X67268883Y-120599840D01*
X67222287Y-120508390D01*
X67214556Y-120497749D01*
X67101971Y-120342786D01*
X66957213Y-120198028D01*
X66791613Y-120077715D01*
X66791612Y-120077714D01*
X66791610Y-120077713D01*
X66734653Y-120048691D01*
X66609223Y-119984781D01*
X66414534Y-119921522D01*
X66239995Y-119893878D01*
X66212352Y-119889500D01*
X66007648Y-119889500D01*
X65983329Y-119893351D01*
X65805465Y-119921522D01*
X65610776Y-119984781D01*
X65428386Y-120077715D01*
X65262786Y-120198028D01*
X65118028Y-120342786D01*
X64997715Y-120508386D01*
X64950485Y-120601080D01*
X64902510Y-120651876D01*
X64834689Y-120668671D01*
X64768554Y-120646134D01*
X64729515Y-120601080D01*
X64728883Y-120599840D01*
X64682287Y-120508390D01*
X64674556Y-120497749D01*
X64561971Y-120342786D01*
X64417213Y-120198028D01*
X64251613Y-120077715D01*
X64251612Y-120077714D01*
X64251610Y-120077713D01*
X64194653Y-120048691D01*
X64069223Y-119984781D01*
X63874534Y-119921522D01*
X63699995Y-119893878D01*
X63672352Y-119889500D01*
X63467648Y-119889500D01*
X63443329Y-119893351D01*
X63265465Y-119921522D01*
X63070776Y-119984781D01*
X62888386Y-120077715D01*
X62722786Y-120198028D01*
X62578028Y-120342786D01*
X62457715Y-120508386D01*
X62364781Y-120690776D01*
X62301522Y-120885465D01*
X62269500Y-121087648D01*
X50500000Y-121087648D01*
X50500000Y-100624000D01*
X50519685Y-100556961D01*
X50572489Y-100511206D01*
X50624000Y-100500000D01*
X99376000Y-100500000D01*
X99443039Y-100519685D01*
G37*
%TD.AperFunction*%
%TD*%
M02*
