%TF.GenerationSoftware,KiCad,Pcbnew,10.0.3*%
%TF.CreationDate,2026-09-25T12:59:15+09:00*%
%TF.ProjectId,buffers_drivers_panel,62756666-6572-4735-9f64-726976657273,rev?*%
%TF.SameCoordinates,Original*%
%TF.FileFunction,Legend,Top*%
%TF.FilePolarity,Positive*%
%FSLAX46Y46*%
G04 Gerber Fmt 4.6, Leading zero omitted, Abs format (unit mm)*
G04 Created by KiCad (PCBNEW 10.0.3) date 2026-09-25 12:59:15*
%MOMM*%
%LPD*%
G01*
G04 APERTURE LIST*
%ADD10C,0.150000*%
%ADD11C,0.120000*%
G04 APERTURE END LIST*
D10*
X53233333Y-50562295D02*
X53500000Y-51362295D01*
X53500000Y-51362295D02*
X53766666Y-50562295D01*
X54490476Y-51286104D02*
X54452380Y-51324200D01*
X54452380Y-51324200D02*
X54338095Y-51362295D01*
X54338095Y-51362295D02*
X54261904Y-51362295D01*
X54261904Y-51362295D02*
X54147618Y-51324200D01*
X54147618Y-51324200D02*
X54071428Y-51248009D01*
X54071428Y-51248009D02*
X54033333Y-51171819D01*
X54033333Y-51171819D02*
X53995237Y-51019438D01*
X53995237Y-51019438D02*
X53995237Y-50905152D01*
X53995237Y-50905152D02*
X54033333Y-50752771D01*
X54033333Y-50752771D02*
X54071428Y-50676580D01*
X54071428Y-50676580D02*
X54147618Y-50600390D01*
X54147618Y-50600390D02*
X54261904Y-50562295D01*
X54261904Y-50562295D02*
X54338095Y-50562295D01*
X54338095Y-50562295D02*
X54452380Y-50600390D01*
X54452380Y-50600390D02*
X54490476Y-50638485D01*
X55290476Y-51286104D02*
X55252380Y-51324200D01*
X55252380Y-51324200D02*
X55138095Y-51362295D01*
X55138095Y-51362295D02*
X55061904Y-51362295D01*
X55061904Y-51362295D02*
X54947618Y-51324200D01*
X54947618Y-51324200D02*
X54871428Y-51248009D01*
X54871428Y-51248009D02*
X54833333Y-51171819D01*
X54833333Y-51171819D02*
X54795237Y-51019438D01*
X54795237Y-51019438D02*
X54795237Y-50905152D01*
X54795237Y-50905152D02*
X54833333Y-50752771D01*
X54833333Y-50752771D02*
X54871428Y-50676580D01*
X54871428Y-50676580D02*
X54947618Y-50600390D01*
X54947618Y-50600390D02*
X55061904Y-50562295D01*
X55061904Y-50562295D02*
X55138095Y-50562295D01*
X55138095Y-50562295D02*
X55252380Y-50600390D01*
X55252380Y-50600390D02*
X55290476Y-50638485D01*
X53747618Y-99362295D02*
X53290475Y-99362295D01*
X53519047Y-99362295D02*
X53519047Y-98562295D01*
X53519047Y-98562295D02*
X53442856Y-98676580D01*
X53442856Y-98676580D02*
X53366666Y-98752771D01*
X53366666Y-98752771D02*
X53290475Y-98790866D01*
X54242857Y-98562295D02*
X54395238Y-98562295D01*
X54395238Y-98562295D02*
X54471428Y-98600390D01*
X54471428Y-98600390D02*
X54547619Y-98676580D01*
X54547619Y-98676580D02*
X54585714Y-98828961D01*
X54585714Y-98828961D02*
X54585714Y-99095628D01*
X54585714Y-99095628D02*
X54547619Y-99248009D01*
X54547619Y-99248009D02*
X54471428Y-99324200D01*
X54471428Y-99324200D02*
X54395238Y-99362295D01*
X54395238Y-99362295D02*
X54242857Y-99362295D01*
X54242857Y-99362295D02*
X54166666Y-99324200D01*
X54166666Y-99324200D02*
X54090476Y-99248009D01*
X54090476Y-99248009D02*
X54052380Y-99095628D01*
X54052380Y-99095628D02*
X54052380Y-98828961D01*
X54052380Y-98828961D02*
X54090476Y-98676580D01*
X54090476Y-98676580D02*
X54166666Y-98600390D01*
X54166666Y-98600390D02*
X54242857Y-98562295D01*
X54928571Y-98943247D02*
X55195237Y-98943247D01*
X55309523Y-99362295D02*
X54928571Y-99362295D01*
X54928571Y-99362295D02*
X54928571Y-98562295D01*
X54928571Y-98562295D02*
X55309523Y-98562295D01*
X53233333Y-100562295D02*
X53500000Y-101362295D01*
X53500000Y-101362295D02*
X53766666Y-100562295D01*
X54490476Y-101286104D02*
X54452380Y-101324200D01*
X54452380Y-101324200D02*
X54338095Y-101362295D01*
X54338095Y-101362295D02*
X54261904Y-101362295D01*
X54261904Y-101362295D02*
X54147618Y-101324200D01*
X54147618Y-101324200D02*
X54071428Y-101248009D01*
X54071428Y-101248009D02*
X54033333Y-101171819D01*
X54033333Y-101171819D02*
X53995237Y-101019438D01*
X53995237Y-101019438D02*
X53995237Y-100905152D01*
X53995237Y-100905152D02*
X54033333Y-100752771D01*
X54033333Y-100752771D02*
X54071428Y-100676580D01*
X54071428Y-100676580D02*
X54147618Y-100600390D01*
X54147618Y-100600390D02*
X54261904Y-100562295D01*
X54261904Y-100562295D02*
X54338095Y-100562295D01*
X54338095Y-100562295D02*
X54452380Y-100600390D01*
X54452380Y-100600390D02*
X54490476Y-100638485D01*
X55290476Y-101286104D02*
X55252380Y-101324200D01*
X55252380Y-101324200D02*
X55138095Y-101362295D01*
X55138095Y-101362295D02*
X55061904Y-101362295D01*
X55061904Y-101362295D02*
X54947618Y-101324200D01*
X54947618Y-101324200D02*
X54871428Y-101248009D01*
X54871428Y-101248009D02*
X54833333Y-101171819D01*
X54833333Y-101171819D02*
X54795237Y-101019438D01*
X54795237Y-101019438D02*
X54795237Y-100905152D01*
X54795237Y-100905152D02*
X54833333Y-100752771D01*
X54833333Y-100752771D02*
X54871428Y-100676580D01*
X54871428Y-100676580D02*
X54947618Y-100600390D01*
X54947618Y-100600390D02*
X55061904Y-100562295D01*
X55061904Y-100562295D02*
X55138095Y-100562295D01*
X55138095Y-100562295D02*
X55252380Y-100600390D01*
X55252380Y-100600390D02*
X55290476Y-100638485D01*
X54185714Y-149362295D02*
X53728571Y-149362295D01*
X53957143Y-149362295D02*
X53957143Y-148562295D01*
X53957143Y-148562295D02*
X53880952Y-148676580D01*
X53880952Y-148676580D02*
X53804762Y-148752771D01*
X53804762Y-148752771D02*
X53728571Y-148790866D01*
X54490476Y-149133723D02*
X54871429Y-149133723D01*
X54414286Y-149362295D02*
X54680953Y-148562295D01*
X54680953Y-148562295D02*
X54947619Y-149362295D01*
X54471429Y-72057533D02*
X55080953Y-72057533D01*
X54776191Y-72362295D02*
X54776191Y-71752771D01*
X55842857Y-71562295D02*
X55461905Y-71562295D01*
X55461905Y-71562295D02*
X55423809Y-71943247D01*
X55423809Y-71943247D02*
X55461905Y-71905152D01*
X55461905Y-71905152D02*
X55538095Y-71867057D01*
X55538095Y-71867057D02*
X55728571Y-71867057D01*
X55728571Y-71867057D02*
X55804762Y-71905152D01*
X55804762Y-71905152D02*
X55842857Y-71943247D01*
X55842857Y-71943247D02*
X55880952Y-72019438D01*
X55880952Y-72019438D02*
X55880952Y-72209914D01*
X55880952Y-72209914D02*
X55842857Y-72286104D01*
X55842857Y-72286104D02*
X55804762Y-72324200D01*
X55804762Y-72324200D02*
X55728571Y-72362295D01*
X55728571Y-72362295D02*
X55538095Y-72362295D01*
X55538095Y-72362295D02*
X55461905Y-72324200D01*
X55461905Y-72324200D02*
X55423809Y-72286104D01*
X56109524Y-71562295D02*
X56376191Y-72362295D01*
X56376191Y-72362295D02*
X56642857Y-71562295D01*
X54890476Y-78500390D02*
X54814286Y-78462295D01*
X54814286Y-78462295D02*
X54700000Y-78462295D01*
X54700000Y-78462295D02*
X54585714Y-78500390D01*
X54585714Y-78500390D02*
X54509524Y-78576580D01*
X54509524Y-78576580D02*
X54471429Y-78652771D01*
X54471429Y-78652771D02*
X54433333Y-78805152D01*
X54433333Y-78805152D02*
X54433333Y-78919438D01*
X54433333Y-78919438D02*
X54471429Y-79071819D01*
X54471429Y-79071819D02*
X54509524Y-79148009D01*
X54509524Y-79148009D02*
X54585714Y-79224200D01*
X54585714Y-79224200D02*
X54700000Y-79262295D01*
X54700000Y-79262295D02*
X54776191Y-79262295D01*
X54776191Y-79262295D02*
X54890476Y-79224200D01*
X54890476Y-79224200D02*
X54928572Y-79186104D01*
X54928572Y-79186104D02*
X54928572Y-78919438D01*
X54928572Y-78919438D02*
X54776191Y-78919438D01*
X55271429Y-79262295D02*
X55271429Y-78462295D01*
X55271429Y-78462295D02*
X55728572Y-79262295D01*
X55728572Y-79262295D02*
X55728572Y-78462295D01*
X56109524Y-79262295D02*
X56109524Y-78462295D01*
X56109524Y-78462295D02*
X56300000Y-78462295D01*
X56300000Y-78462295D02*
X56414286Y-78500390D01*
X56414286Y-78500390D02*
X56490476Y-78576580D01*
X56490476Y-78576580D02*
X56528571Y-78652771D01*
X56528571Y-78652771D02*
X56566667Y-78805152D01*
X56566667Y-78805152D02*
X56566667Y-78919438D01*
X56566667Y-78919438D02*
X56528571Y-79071819D01*
X56528571Y-79071819D02*
X56490476Y-79148009D01*
X56490476Y-79148009D02*
X56414286Y-79224200D01*
X56414286Y-79224200D02*
X56300000Y-79262295D01*
X56300000Y-79262295D02*
X56109524Y-79262295D01*
X54471429Y-122057533D02*
X55080953Y-122057533D01*
X54776191Y-122362295D02*
X54776191Y-121752771D01*
X55842857Y-121562295D02*
X55461905Y-121562295D01*
X55461905Y-121562295D02*
X55423809Y-121943247D01*
X55423809Y-121943247D02*
X55461905Y-121905152D01*
X55461905Y-121905152D02*
X55538095Y-121867057D01*
X55538095Y-121867057D02*
X55728571Y-121867057D01*
X55728571Y-121867057D02*
X55804762Y-121905152D01*
X55804762Y-121905152D02*
X55842857Y-121943247D01*
X55842857Y-121943247D02*
X55880952Y-122019438D01*
X55880952Y-122019438D02*
X55880952Y-122209914D01*
X55880952Y-122209914D02*
X55842857Y-122286104D01*
X55842857Y-122286104D02*
X55804762Y-122324200D01*
X55804762Y-122324200D02*
X55728571Y-122362295D01*
X55728571Y-122362295D02*
X55538095Y-122362295D01*
X55538095Y-122362295D02*
X55461905Y-122324200D01*
X55461905Y-122324200D02*
X55423809Y-122286104D01*
X56109524Y-121562295D02*
X56376191Y-122362295D01*
X56376191Y-122362295D02*
X56642857Y-121562295D01*
X54890476Y-128500390D02*
X54814286Y-128462295D01*
X54814286Y-128462295D02*
X54700000Y-128462295D01*
X54700000Y-128462295D02*
X54585714Y-128500390D01*
X54585714Y-128500390D02*
X54509524Y-128576580D01*
X54509524Y-128576580D02*
X54471429Y-128652771D01*
X54471429Y-128652771D02*
X54433333Y-128805152D01*
X54433333Y-128805152D02*
X54433333Y-128919438D01*
X54433333Y-128919438D02*
X54471429Y-129071819D01*
X54471429Y-129071819D02*
X54509524Y-129148009D01*
X54509524Y-129148009D02*
X54585714Y-129224200D01*
X54585714Y-129224200D02*
X54700000Y-129262295D01*
X54700000Y-129262295D02*
X54776191Y-129262295D01*
X54776191Y-129262295D02*
X54890476Y-129224200D01*
X54890476Y-129224200D02*
X54928572Y-129186104D01*
X54928572Y-129186104D02*
X54928572Y-128919438D01*
X54928572Y-128919438D02*
X54776191Y-128919438D01*
X55271429Y-129262295D02*
X55271429Y-128462295D01*
X55271429Y-128462295D02*
X55728572Y-129262295D01*
X55728572Y-129262295D02*
X55728572Y-128462295D01*
X56109524Y-129262295D02*
X56109524Y-128462295D01*
X56109524Y-128462295D02*
X56300000Y-128462295D01*
X56300000Y-128462295D02*
X56414286Y-128500390D01*
X56414286Y-128500390D02*
X56490476Y-128576580D01*
X56490476Y-128576580D02*
X56528571Y-128652771D01*
X56528571Y-128652771D02*
X56566667Y-128805152D01*
X56566667Y-128805152D02*
X56566667Y-128919438D01*
X56566667Y-128919438D02*
X56528571Y-129071819D01*
X56528571Y-129071819D02*
X56490476Y-129148009D01*
X56490476Y-129148009D02*
X56414286Y-129224200D01*
X56414286Y-129224200D02*
X56300000Y-129262295D01*
X56300000Y-129262295D02*
X56109524Y-129262295D01*
X57890475Y-50638485D02*
X57928571Y-50600390D01*
X57928571Y-50600390D02*
X58004761Y-50562295D01*
X58004761Y-50562295D02*
X58195237Y-50562295D01*
X58195237Y-50562295D02*
X58271428Y-50600390D01*
X58271428Y-50600390D02*
X58309523Y-50638485D01*
X58309523Y-50638485D02*
X58347618Y-50714676D01*
X58347618Y-50714676D02*
X58347618Y-50790866D01*
X58347618Y-50790866D02*
X58309523Y-50905152D01*
X58309523Y-50905152D02*
X57852380Y-51362295D01*
X57852380Y-51362295D02*
X58347618Y-51362295D01*
X58842857Y-50562295D02*
X58995238Y-50562295D01*
X58995238Y-50562295D02*
X59071428Y-50600390D01*
X59071428Y-50600390D02*
X59147619Y-50676580D01*
X59147619Y-50676580D02*
X59185714Y-50828961D01*
X59185714Y-50828961D02*
X59185714Y-51095628D01*
X59185714Y-51095628D02*
X59147619Y-51248009D01*
X59147619Y-51248009D02*
X59071428Y-51324200D01*
X59071428Y-51324200D02*
X58995238Y-51362295D01*
X58995238Y-51362295D02*
X58842857Y-51362295D01*
X58842857Y-51362295D02*
X58766666Y-51324200D01*
X58766666Y-51324200D02*
X58690476Y-51248009D01*
X58690476Y-51248009D02*
X58652380Y-51095628D01*
X58652380Y-51095628D02*
X58652380Y-50828961D01*
X58652380Y-50828961D02*
X58690476Y-50676580D01*
X58690476Y-50676580D02*
X58766666Y-50600390D01*
X58766666Y-50600390D02*
X58842857Y-50562295D01*
X59528571Y-50943247D02*
X59795237Y-50943247D01*
X59909523Y-51362295D02*
X59528571Y-51362295D01*
X59528571Y-51362295D02*
X59528571Y-50562295D01*
X59528571Y-50562295D02*
X59909523Y-50562295D01*
X58404761Y-99362295D02*
X57947618Y-99362295D01*
X58176190Y-99362295D02*
X58176190Y-98562295D01*
X58176190Y-98562295D02*
X58099999Y-98676580D01*
X58099999Y-98676580D02*
X58023809Y-98752771D01*
X58023809Y-98752771D02*
X57947618Y-98790866D01*
X58709523Y-99133723D02*
X59090476Y-99133723D01*
X58633333Y-99362295D02*
X58900000Y-98562295D01*
X58900000Y-98562295D02*
X59166666Y-99362295D01*
X59852380Y-99362295D02*
X59395237Y-99362295D01*
X59623809Y-99362295D02*
X59623809Y-98562295D01*
X59623809Y-98562295D02*
X59547618Y-98676580D01*
X59547618Y-98676580D02*
X59471428Y-98752771D01*
X59471428Y-98752771D02*
X59395237Y-98790866D01*
X58709524Y-100562295D02*
X58557143Y-100562295D01*
X58557143Y-100562295D02*
X58480952Y-100600390D01*
X58480952Y-100600390D02*
X58442857Y-100638485D01*
X58442857Y-100638485D02*
X58366667Y-100752771D01*
X58366667Y-100752771D02*
X58328571Y-100905152D01*
X58328571Y-100905152D02*
X58328571Y-101209914D01*
X58328571Y-101209914D02*
X58366667Y-101286104D01*
X58366667Y-101286104D02*
X58404762Y-101324200D01*
X58404762Y-101324200D02*
X58480952Y-101362295D01*
X58480952Y-101362295D02*
X58633333Y-101362295D01*
X58633333Y-101362295D02*
X58709524Y-101324200D01*
X58709524Y-101324200D02*
X58747619Y-101286104D01*
X58747619Y-101286104D02*
X58785714Y-101209914D01*
X58785714Y-101209914D02*
X58785714Y-101019438D01*
X58785714Y-101019438D02*
X58747619Y-100943247D01*
X58747619Y-100943247D02*
X58709524Y-100905152D01*
X58709524Y-100905152D02*
X58633333Y-100867057D01*
X58633333Y-100867057D02*
X58480952Y-100867057D01*
X58480952Y-100867057D02*
X58404762Y-100905152D01*
X58404762Y-100905152D02*
X58366667Y-100943247D01*
X58366667Y-100943247D02*
X58328571Y-101019438D01*
X59090476Y-101133723D02*
X59471429Y-101133723D01*
X59014286Y-101362295D02*
X59280953Y-100562295D01*
X59280953Y-100562295D02*
X59547619Y-101362295D01*
X58785714Y-149362295D02*
X58328571Y-149362295D01*
X58557143Y-149362295D02*
X58557143Y-148562295D01*
X58557143Y-148562295D02*
X58480952Y-148676580D01*
X58480952Y-148676580D02*
X58404762Y-148752771D01*
X58404762Y-148752771D02*
X58328571Y-148790866D01*
X59280953Y-148981342D02*
X59280953Y-149362295D01*
X59014286Y-148562295D02*
X59280953Y-148981342D01*
X59280953Y-148981342D02*
X59547619Y-148562295D01*
X63004761Y-51362295D02*
X62547618Y-51362295D01*
X62776190Y-51362295D02*
X62776190Y-50562295D01*
X62776190Y-50562295D02*
X62699999Y-50676580D01*
X62699999Y-50676580D02*
X62623809Y-50752771D01*
X62623809Y-50752771D02*
X62547618Y-50790866D01*
X63500000Y-50981342D02*
X63500000Y-51362295D01*
X63233333Y-50562295D02*
X63500000Y-50981342D01*
X63500000Y-50981342D02*
X63766666Y-50562295D01*
X64452380Y-51362295D02*
X63995237Y-51362295D01*
X64223809Y-51362295D02*
X64223809Y-50562295D01*
X64223809Y-50562295D02*
X64147618Y-50676580D01*
X64147618Y-50676580D02*
X64071428Y-50752771D01*
X64071428Y-50752771D02*
X63995237Y-50790866D01*
X62547618Y-98638485D02*
X62585714Y-98600390D01*
X62585714Y-98600390D02*
X62661904Y-98562295D01*
X62661904Y-98562295D02*
X62852380Y-98562295D01*
X62852380Y-98562295D02*
X62928571Y-98600390D01*
X62928571Y-98600390D02*
X62966666Y-98638485D01*
X62966666Y-98638485D02*
X63004761Y-98714676D01*
X63004761Y-98714676D02*
X63004761Y-98790866D01*
X63004761Y-98790866D02*
X62966666Y-98905152D01*
X62966666Y-98905152D02*
X62509523Y-99362295D01*
X62509523Y-99362295D02*
X63004761Y-99362295D01*
X63500000Y-98981342D02*
X63500000Y-99362295D01*
X63233333Y-98562295D02*
X63500000Y-98981342D01*
X63500000Y-98981342D02*
X63766666Y-98562295D01*
X64376190Y-98828961D02*
X64376190Y-99362295D01*
X64185714Y-98524200D02*
X63995237Y-99095628D01*
X63995237Y-99095628D02*
X64490476Y-99095628D01*
X63309524Y-100562295D02*
X63157143Y-100562295D01*
X63157143Y-100562295D02*
X63080952Y-100600390D01*
X63080952Y-100600390D02*
X63042857Y-100638485D01*
X63042857Y-100638485D02*
X62966667Y-100752771D01*
X62966667Y-100752771D02*
X62928571Y-100905152D01*
X62928571Y-100905152D02*
X62928571Y-101209914D01*
X62928571Y-101209914D02*
X62966667Y-101286104D01*
X62966667Y-101286104D02*
X63004762Y-101324200D01*
X63004762Y-101324200D02*
X63080952Y-101362295D01*
X63080952Y-101362295D02*
X63233333Y-101362295D01*
X63233333Y-101362295D02*
X63309524Y-101324200D01*
X63309524Y-101324200D02*
X63347619Y-101286104D01*
X63347619Y-101286104D02*
X63385714Y-101209914D01*
X63385714Y-101209914D02*
X63385714Y-101019438D01*
X63385714Y-101019438D02*
X63347619Y-100943247D01*
X63347619Y-100943247D02*
X63309524Y-100905152D01*
X63309524Y-100905152D02*
X63233333Y-100867057D01*
X63233333Y-100867057D02*
X63080952Y-100867057D01*
X63080952Y-100867057D02*
X63004762Y-100905152D01*
X63004762Y-100905152D02*
X62966667Y-100943247D01*
X62966667Y-100943247D02*
X62928571Y-101019438D01*
X63880953Y-100981342D02*
X63880953Y-101362295D01*
X63614286Y-100562295D02*
X63880953Y-100981342D01*
X63880953Y-100981342D02*
X64147619Y-100562295D01*
X62928571Y-148638485D02*
X62966667Y-148600390D01*
X62966667Y-148600390D02*
X63042857Y-148562295D01*
X63042857Y-148562295D02*
X63233333Y-148562295D01*
X63233333Y-148562295D02*
X63309524Y-148600390D01*
X63309524Y-148600390D02*
X63347619Y-148638485D01*
X63347619Y-148638485D02*
X63385714Y-148714676D01*
X63385714Y-148714676D02*
X63385714Y-148790866D01*
X63385714Y-148790866D02*
X63347619Y-148905152D01*
X63347619Y-148905152D02*
X62890476Y-149362295D01*
X62890476Y-149362295D02*
X63385714Y-149362295D01*
X63690476Y-149133723D02*
X64071429Y-149133723D01*
X63614286Y-149362295D02*
X63880953Y-148562295D01*
X63880953Y-148562295D02*
X64147619Y-149362295D01*
X67147618Y-50638485D02*
X67185714Y-50600390D01*
X67185714Y-50600390D02*
X67261904Y-50562295D01*
X67261904Y-50562295D02*
X67452380Y-50562295D01*
X67452380Y-50562295D02*
X67528571Y-50600390D01*
X67528571Y-50600390D02*
X67566666Y-50638485D01*
X67566666Y-50638485D02*
X67604761Y-50714676D01*
X67604761Y-50714676D02*
X67604761Y-50790866D01*
X67604761Y-50790866D02*
X67566666Y-50905152D01*
X67566666Y-50905152D02*
X67109523Y-51362295D01*
X67109523Y-51362295D02*
X67604761Y-51362295D01*
X67909523Y-51133723D02*
X68290476Y-51133723D01*
X67833333Y-51362295D02*
X68100000Y-50562295D01*
X68100000Y-50562295D02*
X68366666Y-51362295D01*
X68976190Y-50828961D02*
X68976190Y-51362295D01*
X68785714Y-50524200D02*
X68595237Y-51095628D01*
X68595237Y-51095628D02*
X69090476Y-51095628D01*
X67604761Y-99362295D02*
X67147618Y-99362295D01*
X67376190Y-99362295D02*
X67376190Y-98562295D01*
X67376190Y-98562295D02*
X67299999Y-98676580D01*
X67299999Y-98676580D02*
X67223809Y-98752771D01*
X67223809Y-98752771D02*
X67147618Y-98790866D01*
X67909523Y-99133723D02*
X68290476Y-99133723D01*
X67833333Y-99362295D02*
X68100000Y-98562295D01*
X68100000Y-98562295D02*
X68366666Y-99362295D01*
X68595237Y-98638485D02*
X68633333Y-98600390D01*
X68633333Y-98600390D02*
X68709523Y-98562295D01*
X68709523Y-98562295D02*
X68899999Y-98562295D01*
X68899999Y-98562295D02*
X68976190Y-98600390D01*
X68976190Y-98600390D02*
X69014285Y-98638485D01*
X69014285Y-98638485D02*
X69052380Y-98714676D01*
X69052380Y-98714676D02*
X69052380Y-98790866D01*
X69052380Y-98790866D02*
X69014285Y-98905152D01*
X69014285Y-98905152D02*
X68557142Y-99362295D01*
X68557142Y-99362295D02*
X69052380Y-99362295D01*
X67947619Y-100562295D02*
X67566667Y-100562295D01*
X67566667Y-100562295D02*
X67528571Y-100943247D01*
X67528571Y-100943247D02*
X67566667Y-100905152D01*
X67566667Y-100905152D02*
X67642857Y-100867057D01*
X67642857Y-100867057D02*
X67833333Y-100867057D01*
X67833333Y-100867057D02*
X67909524Y-100905152D01*
X67909524Y-100905152D02*
X67947619Y-100943247D01*
X67947619Y-100943247D02*
X67985714Y-101019438D01*
X67985714Y-101019438D02*
X67985714Y-101209914D01*
X67985714Y-101209914D02*
X67947619Y-101286104D01*
X67947619Y-101286104D02*
X67909524Y-101324200D01*
X67909524Y-101324200D02*
X67833333Y-101362295D01*
X67833333Y-101362295D02*
X67642857Y-101362295D01*
X67642857Y-101362295D02*
X67566667Y-101324200D01*
X67566667Y-101324200D02*
X67528571Y-101286104D01*
X68290476Y-101133723D02*
X68671429Y-101133723D01*
X68214286Y-101362295D02*
X68480953Y-100562295D01*
X68480953Y-100562295D02*
X68747619Y-101362295D01*
X67528571Y-148638485D02*
X67566667Y-148600390D01*
X67566667Y-148600390D02*
X67642857Y-148562295D01*
X67642857Y-148562295D02*
X67833333Y-148562295D01*
X67833333Y-148562295D02*
X67909524Y-148600390D01*
X67909524Y-148600390D02*
X67947619Y-148638485D01*
X67947619Y-148638485D02*
X67985714Y-148714676D01*
X67985714Y-148714676D02*
X67985714Y-148790866D01*
X67985714Y-148790866D02*
X67947619Y-148905152D01*
X67947619Y-148905152D02*
X67490476Y-149362295D01*
X67490476Y-149362295D02*
X67985714Y-149362295D01*
X68480953Y-148981342D02*
X68480953Y-149362295D01*
X68214286Y-148562295D02*
X68480953Y-148981342D01*
X68480953Y-148981342D02*
X68747619Y-148562295D01*
X72204761Y-51362295D02*
X71747618Y-51362295D01*
X71976190Y-51362295D02*
X71976190Y-50562295D01*
X71976190Y-50562295D02*
X71899999Y-50676580D01*
X71899999Y-50676580D02*
X71823809Y-50752771D01*
X71823809Y-50752771D02*
X71747618Y-50790866D01*
X72700000Y-50981342D02*
X72700000Y-51362295D01*
X72433333Y-50562295D02*
X72700000Y-50981342D01*
X72700000Y-50981342D02*
X72966666Y-50562295D01*
X73195237Y-50638485D02*
X73233333Y-50600390D01*
X73233333Y-50600390D02*
X73309523Y-50562295D01*
X73309523Y-50562295D02*
X73499999Y-50562295D01*
X73499999Y-50562295D02*
X73576190Y-50600390D01*
X73576190Y-50600390D02*
X73614285Y-50638485D01*
X73614285Y-50638485D02*
X73652380Y-50714676D01*
X73652380Y-50714676D02*
X73652380Y-50790866D01*
X73652380Y-50790866D02*
X73614285Y-50905152D01*
X73614285Y-50905152D02*
X73157142Y-51362295D01*
X73157142Y-51362295D02*
X73652380Y-51362295D01*
X71747618Y-98638485D02*
X71785714Y-98600390D01*
X71785714Y-98600390D02*
X71861904Y-98562295D01*
X71861904Y-98562295D02*
X72052380Y-98562295D01*
X72052380Y-98562295D02*
X72128571Y-98600390D01*
X72128571Y-98600390D02*
X72166666Y-98638485D01*
X72166666Y-98638485D02*
X72204761Y-98714676D01*
X72204761Y-98714676D02*
X72204761Y-98790866D01*
X72204761Y-98790866D02*
X72166666Y-98905152D01*
X72166666Y-98905152D02*
X71709523Y-99362295D01*
X71709523Y-99362295D02*
X72204761Y-99362295D01*
X72700000Y-98981342D02*
X72700000Y-99362295D01*
X72433333Y-98562295D02*
X72700000Y-98981342D01*
X72700000Y-98981342D02*
X72966666Y-98562295D01*
X73157142Y-98562295D02*
X73652380Y-98562295D01*
X73652380Y-98562295D02*
X73385714Y-98867057D01*
X73385714Y-98867057D02*
X73499999Y-98867057D01*
X73499999Y-98867057D02*
X73576190Y-98905152D01*
X73576190Y-98905152D02*
X73614285Y-98943247D01*
X73614285Y-98943247D02*
X73652380Y-99019438D01*
X73652380Y-99019438D02*
X73652380Y-99209914D01*
X73652380Y-99209914D02*
X73614285Y-99286104D01*
X73614285Y-99286104D02*
X73576190Y-99324200D01*
X73576190Y-99324200D02*
X73499999Y-99362295D01*
X73499999Y-99362295D02*
X73271428Y-99362295D01*
X73271428Y-99362295D02*
X73195237Y-99324200D01*
X73195237Y-99324200D02*
X73157142Y-99286104D01*
X72547619Y-100562295D02*
X72166667Y-100562295D01*
X72166667Y-100562295D02*
X72128571Y-100943247D01*
X72128571Y-100943247D02*
X72166667Y-100905152D01*
X72166667Y-100905152D02*
X72242857Y-100867057D01*
X72242857Y-100867057D02*
X72433333Y-100867057D01*
X72433333Y-100867057D02*
X72509524Y-100905152D01*
X72509524Y-100905152D02*
X72547619Y-100943247D01*
X72547619Y-100943247D02*
X72585714Y-101019438D01*
X72585714Y-101019438D02*
X72585714Y-101209914D01*
X72585714Y-101209914D02*
X72547619Y-101286104D01*
X72547619Y-101286104D02*
X72509524Y-101324200D01*
X72509524Y-101324200D02*
X72433333Y-101362295D01*
X72433333Y-101362295D02*
X72242857Y-101362295D01*
X72242857Y-101362295D02*
X72166667Y-101324200D01*
X72166667Y-101324200D02*
X72128571Y-101286104D01*
X73080953Y-100981342D02*
X73080953Y-101362295D01*
X72814286Y-100562295D02*
X73080953Y-100981342D01*
X73080953Y-100981342D02*
X73347619Y-100562295D01*
X72090476Y-148562295D02*
X72585714Y-148562295D01*
X72585714Y-148562295D02*
X72319048Y-148867057D01*
X72319048Y-148867057D02*
X72433333Y-148867057D01*
X72433333Y-148867057D02*
X72509524Y-148905152D01*
X72509524Y-148905152D02*
X72547619Y-148943247D01*
X72547619Y-148943247D02*
X72585714Y-149019438D01*
X72585714Y-149019438D02*
X72585714Y-149209914D01*
X72585714Y-149209914D02*
X72547619Y-149286104D01*
X72547619Y-149286104D02*
X72509524Y-149324200D01*
X72509524Y-149324200D02*
X72433333Y-149362295D01*
X72433333Y-149362295D02*
X72204762Y-149362295D01*
X72204762Y-149362295D02*
X72128571Y-149324200D01*
X72128571Y-149324200D02*
X72090476Y-149286104D01*
X72890476Y-149133723D02*
X73271429Y-149133723D01*
X72814286Y-149362295D02*
X73080953Y-148562295D01*
X73080953Y-148562295D02*
X73347619Y-149362295D01*
X58123807Y-66762295D02*
X58276188Y-66762295D01*
X58276188Y-66762295D02*
X58352378Y-66800390D01*
X58352378Y-66800390D02*
X58428569Y-66876580D01*
X58428569Y-66876580D02*
X58466664Y-67028961D01*
X58466664Y-67028961D02*
X58466664Y-67295628D01*
X58466664Y-67295628D02*
X58428569Y-67448009D01*
X58428569Y-67448009D02*
X58352378Y-67524200D01*
X58352378Y-67524200D02*
X58276188Y-67562295D01*
X58276188Y-67562295D02*
X58123807Y-67562295D01*
X58123807Y-67562295D02*
X58047616Y-67524200D01*
X58047616Y-67524200D02*
X57971426Y-67448009D01*
X57971426Y-67448009D02*
X57933330Y-67295628D01*
X57933330Y-67295628D02*
X57933330Y-67028961D01*
X57933330Y-67028961D02*
X57971426Y-66876580D01*
X57971426Y-66876580D02*
X58047616Y-66800390D01*
X58047616Y-66800390D02*
X58123807Y-66762295D01*
X59152378Y-67524200D02*
X59076187Y-67562295D01*
X59076187Y-67562295D02*
X58923806Y-67562295D01*
X58923806Y-67562295D02*
X58847616Y-67524200D01*
X58847616Y-67524200D02*
X58809521Y-67486104D01*
X58809521Y-67486104D02*
X58771425Y-67409914D01*
X58771425Y-67409914D02*
X58771425Y-67181342D01*
X58771425Y-67181342D02*
X58809521Y-67105152D01*
X58809521Y-67105152D02*
X58847616Y-67067057D01*
X58847616Y-67067057D02*
X58923806Y-67028961D01*
X58923806Y-67028961D02*
X59076187Y-67028961D01*
X59076187Y-67028961D02*
X59152378Y-67067057D01*
X59380949Y-67028961D02*
X59685711Y-67028961D01*
X59495235Y-66762295D02*
X59495235Y-67448009D01*
X59495235Y-67448009D02*
X59533330Y-67524200D01*
X59533330Y-67524200D02*
X59609520Y-67562295D01*
X59609520Y-67562295D02*
X59685711Y-67562295D01*
X60295235Y-67562295D02*
X60295235Y-67143247D01*
X60295235Y-67143247D02*
X60257140Y-67067057D01*
X60257140Y-67067057D02*
X60180949Y-67028961D01*
X60180949Y-67028961D02*
X60028568Y-67028961D01*
X60028568Y-67028961D02*
X59952378Y-67067057D01*
X60295235Y-67524200D02*
X60219044Y-67562295D01*
X60219044Y-67562295D02*
X60028568Y-67562295D01*
X60028568Y-67562295D02*
X59952378Y-67524200D01*
X59952378Y-67524200D02*
X59914282Y-67448009D01*
X59914282Y-67448009D02*
X59914282Y-67371819D01*
X59914282Y-67371819D02*
X59952378Y-67295628D01*
X59952378Y-67295628D02*
X60028568Y-67257533D01*
X60028568Y-67257533D02*
X60219044Y-67257533D01*
X60219044Y-67257533D02*
X60295235Y-67219438D01*
X60790473Y-67562295D02*
X60714283Y-67524200D01*
X60714283Y-67524200D02*
X60676188Y-67448009D01*
X60676188Y-67448009D02*
X60676188Y-66762295D01*
X61704760Y-67562295D02*
X61704760Y-66762295D01*
X61704760Y-67067057D02*
X61780950Y-67028961D01*
X61780950Y-67028961D02*
X61933331Y-67028961D01*
X61933331Y-67028961D02*
X62009522Y-67067057D01*
X62009522Y-67067057D02*
X62047617Y-67105152D01*
X62047617Y-67105152D02*
X62085712Y-67181342D01*
X62085712Y-67181342D02*
X62085712Y-67409914D01*
X62085712Y-67409914D02*
X62047617Y-67486104D01*
X62047617Y-67486104D02*
X62009522Y-67524200D01*
X62009522Y-67524200D02*
X61933331Y-67562295D01*
X61933331Y-67562295D02*
X61780950Y-67562295D01*
X61780950Y-67562295D02*
X61704760Y-67524200D01*
X62771427Y-67028961D02*
X62771427Y-67562295D01*
X62428570Y-67028961D02*
X62428570Y-67448009D01*
X62428570Y-67448009D02*
X62466665Y-67524200D01*
X62466665Y-67524200D02*
X62542855Y-67562295D01*
X62542855Y-67562295D02*
X62657141Y-67562295D01*
X62657141Y-67562295D02*
X62733332Y-67524200D01*
X62733332Y-67524200D02*
X62771427Y-67486104D01*
X63038094Y-67028961D02*
X63342856Y-67028961D01*
X63152380Y-67562295D02*
X63152380Y-66876580D01*
X63152380Y-66876580D02*
X63190475Y-66800390D01*
X63190475Y-66800390D02*
X63266665Y-66762295D01*
X63266665Y-66762295D02*
X63342856Y-66762295D01*
X63495237Y-67028961D02*
X63799999Y-67028961D01*
X63609523Y-67562295D02*
X63609523Y-66876580D01*
X63609523Y-66876580D02*
X63647618Y-66800390D01*
X63647618Y-66800390D02*
X63723808Y-66762295D01*
X63723808Y-66762295D02*
X63799999Y-66762295D01*
X64371428Y-67524200D02*
X64295237Y-67562295D01*
X64295237Y-67562295D02*
X64142856Y-67562295D01*
X64142856Y-67562295D02*
X64066666Y-67524200D01*
X64066666Y-67524200D02*
X64028570Y-67448009D01*
X64028570Y-67448009D02*
X64028570Y-67143247D01*
X64028570Y-67143247D02*
X64066666Y-67067057D01*
X64066666Y-67067057D02*
X64142856Y-67028961D01*
X64142856Y-67028961D02*
X64295237Y-67028961D01*
X64295237Y-67028961D02*
X64371428Y-67067057D01*
X64371428Y-67067057D02*
X64409523Y-67143247D01*
X64409523Y-67143247D02*
X64409523Y-67219438D01*
X64409523Y-67219438D02*
X64028570Y-67295628D01*
X64752380Y-67562295D02*
X64752380Y-67028961D01*
X64752380Y-67181342D02*
X64790475Y-67105152D01*
X64790475Y-67105152D02*
X64828570Y-67067057D01*
X64828570Y-67067057D02*
X64904761Y-67028961D01*
X64904761Y-67028961D02*
X64980951Y-67028961D01*
X65819046Y-66724200D02*
X65133332Y-67752771D01*
X66199998Y-67562295D02*
X66123808Y-67524200D01*
X66123808Y-67524200D02*
X66085713Y-67448009D01*
X66085713Y-67448009D02*
X66085713Y-66762295D01*
X66504761Y-67562295D02*
X66504761Y-67028961D01*
X66504761Y-66762295D02*
X66466665Y-66800390D01*
X66466665Y-66800390D02*
X66504761Y-66838485D01*
X66504761Y-66838485D02*
X66542856Y-66800390D01*
X66542856Y-66800390D02*
X66504761Y-66762295D01*
X66504761Y-66762295D02*
X66504761Y-66838485D01*
X66885713Y-67028961D02*
X66885713Y-67562295D01*
X66885713Y-67105152D02*
X66923808Y-67067057D01*
X66923808Y-67067057D02*
X66999998Y-67028961D01*
X66999998Y-67028961D02*
X67114284Y-67028961D01*
X67114284Y-67028961D02*
X67190475Y-67067057D01*
X67190475Y-67067057D02*
X67228570Y-67143247D01*
X67228570Y-67143247D02*
X67228570Y-67562295D01*
X67914285Y-67524200D02*
X67838094Y-67562295D01*
X67838094Y-67562295D02*
X67685713Y-67562295D01*
X67685713Y-67562295D02*
X67609523Y-67524200D01*
X67609523Y-67524200D02*
X67571427Y-67448009D01*
X67571427Y-67448009D02*
X67571427Y-67143247D01*
X67571427Y-67143247D02*
X67609523Y-67067057D01*
X67609523Y-67067057D02*
X67685713Y-67028961D01*
X67685713Y-67028961D02*
X67838094Y-67028961D01*
X67838094Y-67028961D02*
X67914285Y-67067057D01*
X67914285Y-67067057D02*
X67952380Y-67143247D01*
X67952380Y-67143247D02*
X67952380Y-67219438D01*
X67952380Y-67219438D02*
X67571427Y-67295628D01*
X69247618Y-67562295D02*
X69247618Y-66762295D01*
X69247618Y-67524200D02*
X69171427Y-67562295D01*
X69171427Y-67562295D02*
X69019046Y-67562295D01*
X69019046Y-67562295D02*
X68942856Y-67524200D01*
X68942856Y-67524200D02*
X68904761Y-67486104D01*
X68904761Y-67486104D02*
X68866665Y-67409914D01*
X68866665Y-67409914D02*
X68866665Y-67181342D01*
X68866665Y-67181342D02*
X68904761Y-67105152D01*
X68904761Y-67105152D02*
X68942856Y-67067057D01*
X68942856Y-67067057D02*
X69019046Y-67028961D01*
X69019046Y-67028961D02*
X69171427Y-67028961D01*
X69171427Y-67028961D02*
X69247618Y-67067057D01*
X69628571Y-67562295D02*
X69628571Y-67028961D01*
X69628571Y-67181342D02*
X69666666Y-67105152D01*
X69666666Y-67105152D02*
X69704761Y-67067057D01*
X69704761Y-67067057D02*
X69780952Y-67028961D01*
X69780952Y-67028961D02*
X69857142Y-67028961D01*
X70123809Y-67562295D02*
X70123809Y-67028961D01*
X70123809Y-66762295D02*
X70085713Y-66800390D01*
X70085713Y-66800390D02*
X70123809Y-66838485D01*
X70123809Y-66838485D02*
X70161904Y-66800390D01*
X70161904Y-66800390D02*
X70123809Y-66762295D01*
X70123809Y-66762295D02*
X70123809Y-66838485D01*
X70428570Y-67028961D02*
X70619046Y-67562295D01*
X70619046Y-67562295D02*
X70809523Y-67028961D01*
X71419047Y-67524200D02*
X71342856Y-67562295D01*
X71342856Y-67562295D02*
X71190475Y-67562295D01*
X71190475Y-67562295D02*
X71114285Y-67524200D01*
X71114285Y-67524200D02*
X71076189Y-67448009D01*
X71076189Y-67448009D02*
X71076189Y-67143247D01*
X71076189Y-67143247D02*
X71114285Y-67067057D01*
X71114285Y-67067057D02*
X71190475Y-67028961D01*
X71190475Y-67028961D02*
X71342856Y-67028961D01*
X71342856Y-67028961D02*
X71419047Y-67067057D01*
X71419047Y-67067057D02*
X71457142Y-67143247D01*
X71457142Y-67143247D02*
X71457142Y-67219438D01*
X71457142Y-67219438D02*
X71076189Y-67295628D01*
X71799999Y-67562295D02*
X71799999Y-67028961D01*
X71799999Y-67181342D02*
X71838094Y-67105152D01*
X71838094Y-67105152D02*
X71876189Y-67067057D01*
X71876189Y-67067057D02*
X71952380Y-67028961D01*
X71952380Y-67028961D02*
X72028570Y-67028961D01*
X72333332Y-67524200D02*
X72333332Y-67562295D01*
X72333332Y-67562295D02*
X72295237Y-67638485D01*
X72295237Y-67638485D02*
X72257141Y-67676580D01*
X73285713Y-67028961D02*
X73285713Y-67562295D01*
X73285713Y-67105152D02*
X73323808Y-67067057D01*
X73323808Y-67067057D02*
X73399998Y-67028961D01*
X73399998Y-67028961D02*
X73514284Y-67028961D01*
X73514284Y-67028961D02*
X73590475Y-67067057D01*
X73590475Y-67067057D02*
X73628570Y-67143247D01*
X73628570Y-67143247D02*
X73628570Y-67562295D01*
X74123808Y-67562295D02*
X74047618Y-67524200D01*
X74047618Y-67524200D02*
X74009523Y-67486104D01*
X74009523Y-67486104D02*
X73971427Y-67409914D01*
X73971427Y-67409914D02*
X73971427Y-67181342D01*
X73971427Y-67181342D02*
X74009523Y-67105152D01*
X74009523Y-67105152D02*
X74047618Y-67067057D01*
X74047618Y-67067057D02*
X74123808Y-67028961D01*
X74123808Y-67028961D02*
X74238094Y-67028961D01*
X74238094Y-67028961D02*
X74314285Y-67067057D01*
X74314285Y-67067057D02*
X74352380Y-67105152D01*
X74352380Y-67105152D02*
X74390475Y-67181342D01*
X74390475Y-67181342D02*
X74390475Y-67409914D01*
X74390475Y-67409914D02*
X74352380Y-67486104D01*
X74352380Y-67486104D02*
X74314285Y-67524200D01*
X74314285Y-67524200D02*
X74238094Y-67562295D01*
X74238094Y-67562295D02*
X74123808Y-67562295D01*
X74733333Y-67028961D02*
X74733333Y-67562295D01*
X74733333Y-67105152D02*
X74771428Y-67067057D01*
X74771428Y-67067057D02*
X74847618Y-67028961D01*
X74847618Y-67028961D02*
X74961904Y-67028961D01*
X74961904Y-67028961D02*
X75038095Y-67067057D01*
X75038095Y-67067057D02*
X75076190Y-67143247D01*
X75076190Y-67143247D02*
X75076190Y-67562295D01*
X75457143Y-67257533D02*
X76066667Y-67257533D01*
X76447619Y-67562295D02*
X76447619Y-67028961D01*
X76447619Y-66762295D02*
X76409523Y-66800390D01*
X76409523Y-66800390D02*
X76447619Y-66838485D01*
X76447619Y-66838485D02*
X76485714Y-66800390D01*
X76485714Y-66800390D02*
X76447619Y-66762295D01*
X76447619Y-66762295D02*
X76447619Y-66838485D01*
X76828571Y-67028961D02*
X76828571Y-67562295D01*
X76828571Y-67105152D02*
X76866666Y-67067057D01*
X76866666Y-67067057D02*
X76942856Y-67028961D01*
X76942856Y-67028961D02*
X77057142Y-67028961D01*
X77057142Y-67028961D02*
X77133333Y-67067057D01*
X77133333Y-67067057D02*
X77171428Y-67143247D01*
X77171428Y-67143247D02*
X77171428Y-67562295D01*
X77476190Y-67028961D02*
X77666666Y-67562295D01*
X77666666Y-67562295D02*
X77857143Y-67028961D01*
X78466667Y-67524200D02*
X78390476Y-67562295D01*
X78390476Y-67562295D02*
X78238095Y-67562295D01*
X78238095Y-67562295D02*
X78161905Y-67524200D01*
X78161905Y-67524200D02*
X78123809Y-67448009D01*
X78123809Y-67448009D02*
X78123809Y-67143247D01*
X78123809Y-67143247D02*
X78161905Y-67067057D01*
X78161905Y-67067057D02*
X78238095Y-67028961D01*
X78238095Y-67028961D02*
X78390476Y-67028961D01*
X78390476Y-67028961D02*
X78466667Y-67067057D01*
X78466667Y-67067057D02*
X78504762Y-67143247D01*
X78504762Y-67143247D02*
X78504762Y-67219438D01*
X78504762Y-67219438D02*
X78123809Y-67295628D01*
X78847619Y-67562295D02*
X78847619Y-67028961D01*
X78847619Y-67181342D02*
X78885714Y-67105152D01*
X78885714Y-67105152D02*
X78923809Y-67067057D01*
X78923809Y-67067057D02*
X79000000Y-67028961D01*
X79000000Y-67028961D02*
X79076190Y-67028961D01*
X79228571Y-67028961D02*
X79533333Y-67028961D01*
X79342857Y-66762295D02*
X79342857Y-67448009D01*
X79342857Y-67448009D02*
X79380952Y-67524200D01*
X79380952Y-67524200D02*
X79457142Y-67562295D01*
X79457142Y-67562295D02*
X79533333Y-67562295D01*
X79800000Y-67562295D02*
X79800000Y-67028961D01*
X79800000Y-66762295D02*
X79761904Y-66800390D01*
X79761904Y-66800390D02*
X79800000Y-66838485D01*
X79800000Y-66838485D02*
X79838095Y-66800390D01*
X79838095Y-66800390D02*
X79800000Y-66762295D01*
X79800000Y-66762295D02*
X79800000Y-66838485D01*
X80180952Y-67028961D02*
X80180952Y-67562295D01*
X80180952Y-67105152D02*
X80219047Y-67067057D01*
X80219047Y-67067057D02*
X80295237Y-67028961D01*
X80295237Y-67028961D02*
X80409523Y-67028961D01*
X80409523Y-67028961D02*
X80485714Y-67067057D01*
X80485714Y-67067057D02*
X80523809Y-67143247D01*
X80523809Y-67143247D02*
X80523809Y-67562295D01*
X81247619Y-67028961D02*
X81247619Y-67676580D01*
X81247619Y-67676580D02*
X81209524Y-67752771D01*
X81209524Y-67752771D02*
X81171428Y-67790866D01*
X81171428Y-67790866D02*
X81095238Y-67828961D01*
X81095238Y-67828961D02*
X80980952Y-67828961D01*
X80980952Y-67828961D02*
X80904762Y-67790866D01*
X81247619Y-67524200D02*
X81171428Y-67562295D01*
X81171428Y-67562295D02*
X81019047Y-67562295D01*
X81019047Y-67562295D02*
X80942857Y-67524200D01*
X80942857Y-67524200D02*
X80904762Y-67486104D01*
X80904762Y-67486104D02*
X80866666Y-67409914D01*
X80866666Y-67409914D02*
X80866666Y-67181342D01*
X80866666Y-67181342D02*
X80904762Y-67105152D01*
X80904762Y-67105152D02*
X80942857Y-67067057D01*
X80942857Y-67067057D02*
X81019047Y-67028961D01*
X81019047Y-67028961D02*
X81171428Y-67028961D01*
X81171428Y-67028961D02*
X81247619Y-67067057D01*
X81666667Y-67524200D02*
X81666667Y-67562295D01*
X81666667Y-67562295D02*
X81628572Y-67638485D01*
X81628572Y-67638485D02*
X81590476Y-67676580D01*
X82542857Y-66762295D02*
X83038095Y-66762295D01*
X83038095Y-66762295D02*
X82771429Y-67067057D01*
X82771429Y-67067057D02*
X82885714Y-67067057D01*
X82885714Y-67067057D02*
X82961905Y-67105152D01*
X82961905Y-67105152D02*
X83000000Y-67143247D01*
X83000000Y-67143247D02*
X83038095Y-67219438D01*
X83038095Y-67219438D02*
X83038095Y-67409914D01*
X83038095Y-67409914D02*
X83000000Y-67486104D01*
X83000000Y-67486104D02*
X82961905Y-67524200D01*
X82961905Y-67524200D02*
X82885714Y-67562295D01*
X82885714Y-67562295D02*
X82657143Y-67562295D01*
X82657143Y-67562295D02*
X82580952Y-67524200D01*
X82580952Y-67524200D02*
X82542857Y-67486104D01*
X83380953Y-67257533D02*
X83990477Y-67257533D01*
X84333333Y-67524200D02*
X84409524Y-67562295D01*
X84409524Y-67562295D02*
X84561905Y-67562295D01*
X84561905Y-67562295D02*
X84638095Y-67524200D01*
X84638095Y-67524200D02*
X84676191Y-67448009D01*
X84676191Y-67448009D02*
X84676191Y-67409914D01*
X84676191Y-67409914D02*
X84638095Y-67333723D01*
X84638095Y-67333723D02*
X84561905Y-67295628D01*
X84561905Y-67295628D02*
X84447619Y-67295628D01*
X84447619Y-67295628D02*
X84371429Y-67257533D01*
X84371429Y-67257533D02*
X84333333Y-67181342D01*
X84333333Y-67181342D02*
X84333333Y-67143247D01*
X84333333Y-67143247D02*
X84371429Y-67067057D01*
X84371429Y-67067057D02*
X84447619Y-67028961D01*
X84447619Y-67028961D02*
X84561905Y-67028961D01*
X84561905Y-67028961D02*
X84638095Y-67067057D01*
X84904762Y-67028961D02*
X85209524Y-67028961D01*
X85019048Y-66762295D02*
X85019048Y-67448009D01*
X85019048Y-67448009D02*
X85057143Y-67524200D01*
X85057143Y-67524200D02*
X85133333Y-67562295D01*
X85133333Y-67562295D02*
X85209524Y-67562295D01*
X85819048Y-67562295D02*
X85819048Y-67143247D01*
X85819048Y-67143247D02*
X85780953Y-67067057D01*
X85780953Y-67067057D02*
X85704762Y-67028961D01*
X85704762Y-67028961D02*
X85552381Y-67028961D01*
X85552381Y-67028961D02*
X85476191Y-67067057D01*
X85819048Y-67524200D02*
X85742857Y-67562295D01*
X85742857Y-67562295D02*
X85552381Y-67562295D01*
X85552381Y-67562295D02*
X85476191Y-67524200D01*
X85476191Y-67524200D02*
X85438095Y-67448009D01*
X85438095Y-67448009D02*
X85438095Y-67371819D01*
X85438095Y-67371819D02*
X85476191Y-67295628D01*
X85476191Y-67295628D02*
X85552381Y-67257533D01*
X85552381Y-67257533D02*
X85742857Y-67257533D01*
X85742857Y-67257533D02*
X85819048Y-67219438D01*
X86085715Y-67028961D02*
X86390477Y-67028961D01*
X86200001Y-66762295D02*
X86200001Y-67448009D01*
X86200001Y-67448009D02*
X86238096Y-67524200D01*
X86238096Y-67524200D02*
X86314286Y-67562295D01*
X86314286Y-67562295D02*
X86390477Y-67562295D01*
X86961906Y-67524200D02*
X86885715Y-67562295D01*
X86885715Y-67562295D02*
X86733334Y-67562295D01*
X86733334Y-67562295D02*
X86657144Y-67524200D01*
X86657144Y-67524200D02*
X86619048Y-67448009D01*
X86619048Y-67448009D02*
X86619048Y-67143247D01*
X86619048Y-67143247D02*
X86657144Y-67067057D01*
X86657144Y-67067057D02*
X86733334Y-67028961D01*
X86733334Y-67028961D02*
X86885715Y-67028961D01*
X86885715Y-67028961D02*
X86961906Y-67067057D01*
X86961906Y-67067057D02*
X87000001Y-67143247D01*
X87000001Y-67143247D02*
X87000001Y-67219438D01*
X87000001Y-67219438D02*
X86619048Y-67295628D01*
X88066667Y-67562295D02*
X87990477Y-67524200D01*
X87990477Y-67524200D02*
X87952382Y-67486104D01*
X87952382Y-67486104D02*
X87914286Y-67409914D01*
X87914286Y-67409914D02*
X87914286Y-67181342D01*
X87914286Y-67181342D02*
X87952382Y-67105152D01*
X87952382Y-67105152D02*
X87990477Y-67067057D01*
X87990477Y-67067057D02*
X88066667Y-67028961D01*
X88066667Y-67028961D02*
X88180953Y-67028961D01*
X88180953Y-67028961D02*
X88257144Y-67067057D01*
X88257144Y-67067057D02*
X88295239Y-67105152D01*
X88295239Y-67105152D02*
X88333334Y-67181342D01*
X88333334Y-67181342D02*
X88333334Y-67409914D01*
X88333334Y-67409914D02*
X88295239Y-67486104D01*
X88295239Y-67486104D02*
X88257144Y-67524200D01*
X88257144Y-67524200D02*
X88180953Y-67562295D01*
X88180953Y-67562295D02*
X88066667Y-67562295D01*
X89019049Y-67028961D02*
X89019049Y-67562295D01*
X88676192Y-67028961D02*
X88676192Y-67448009D01*
X88676192Y-67448009D02*
X88714287Y-67524200D01*
X88714287Y-67524200D02*
X88790477Y-67562295D01*
X88790477Y-67562295D02*
X88904763Y-67562295D01*
X88904763Y-67562295D02*
X88980954Y-67524200D01*
X88980954Y-67524200D02*
X89019049Y-67486104D01*
X89285716Y-67028961D02*
X89590478Y-67028961D01*
X89400002Y-66762295D02*
X89400002Y-67448009D01*
X89400002Y-67448009D02*
X89438097Y-67524200D01*
X89438097Y-67524200D02*
X89514287Y-67562295D01*
X89514287Y-67562295D02*
X89590478Y-67562295D01*
X89857145Y-67028961D02*
X89857145Y-67828961D01*
X89857145Y-67067057D02*
X89933335Y-67028961D01*
X89933335Y-67028961D02*
X90085716Y-67028961D01*
X90085716Y-67028961D02*
X90161907Y-67067057D01*
X90161907Y-67067057D02*
X90200002Y-67105152D01*
X90200002Y-67105152D02*
X90238097Y-67181342D01*
X90238097Y-67181342D02*
X90238097Y-67409914D01*
X90238097Y-67409914D02*
X90200002Y-67486104D01*
X90200002Y-67486104D02*
X90161907Y-67524200D01*
X90161907Y-67524200D02*
X90085716Y-67562295D01*
X90085716Y-67562295D02*
X89933335Y-67562295D01*
X89933335Y-67562295D02*
X89857145Y-67524200D01*
X90923812Y-67028961D02*
X90923812Y-67562295D01*
X90580955Y-67028961D02*
X90580955Y-67448009D01*
X90580955Y-67448009D02*
X90619050Y-67524200D01*
X90619050Y-67524200D02*
X90695240Y-67562295D01*
X90695240Y-67562295D02*
X90809526Y-67562295D01*
X90809526Y-67562295D02*
X90885717Y-67524200D01*
X90885717Y-67524200D02*
X90923812Y-67486104D01*
X91190479Y-67028961D02*
X91495241Y-67028961D01*
X91304765Y-66762295D02*
X91304765Y-67448009D01*
X91304765Y-67448009D02*
X91342860Y-67524200D01*
X91342860Y-67524200D02*
X91419050Y-67562295D01*
X91419050Y-67562295D02*
X91495241Y-67562295D01*
X91723812Y-67524200D02*
X91800003Y-67562295D01*
X91800003Y-67562295D02*
X91952384Y-67562295D01*
X91952384Y-67562295D02*
X92028574Y-67524200D01*
X92028574Y-67524200D02*
X92066670Y-67448009D01*
X92066670Y-67448009D02*
X92066670Y-67409914D01*
X92066670Y-67409914D02*
X92028574Y-67333723D01*
X92028574Y-67333723D02*
X91952384Y-67295628D01*
X91952384Y-67295628D02*
X91838098Y-67295628D01*
X91838098Y-67295628D02*
X91761908Y-67257533D01*
X91761908Y-67257533D02*
X91723812Y-67181342D01*
X91723812Y-67181342D02*
X91723812Y-67143247D01*
X91723812Y-67143247D02*
X91761908Y-67067057D01*
X91761908Y-67067057D02*
X91838098Y-67028961D01*
X91838098Y-67028961D02*
X91952384Y-67028961D01*
X91952384Y-67028961D02*
X92028574Y-67067057D01*
X62942860Y-68555152D02*
X62866670Y-68517057D01*
X62866670Y-68517057D02*
X62828575Y-68478961D01*
X62828575Y-68478961D02*
X62790479Y-68402771D01*
X62790479Y-68402771D02*
X62790479Y-68364676D01*
X62790479Y-68364676D02*
X62828575Y-68288485D01*
X62828575Y-68288485D02*
X62866670Y-68250390D01*
X62866670Y-68250390D02*
X62942860Y-68212295D01*
X62942860Y-68212295D02*
X63095241Y-68212295D01*
X63095241Y-68212295D02*
X63171432Y-68250390D01*
X63171432Y-68250390D02*
X63209527Y-68288485D01*
X63209527Y-68288485D02*
X63247622Y-68364676D01*
X63247622Y-68364676D02*
X63247622Y-68402771D01*
X63247622Y-68402771D02*
X63209527Y-68478961D01*
X63209527Y-68478961D02*
X63171432Y-68517057D01*
X63171432Y-68517057D02*
X63095241Y-68555152D01*
X63095241Y-68555152D02*
X62942860Y-68555152D01*
X62942860Y-68555152D02*
X62866670Y-68593247D01*
X62866670Y-68593247D02*
X62828575Y-68631342D01*
X62828575Y-68631342D02*
X62790479Y-68707533D01*
X62790479Y-68707533D02*
X62790479Y-68859914D01*
X62790479Y-68859914D02*
X62828575Y-68936104D01*
X62828575Y-68936104D02*
X62866670Y-68974200D01*
X62866670Y-68974200D02*
X62942860Y-69012295D01*
X62942860Y-69012295D02*
X63095241Y-69012295D01*
X63095241Y-69012295D02*
X63171432Y-68974200D01*
X63171432Y-68974200D02*
X63209527Y-68936104D01*
X63209527Y-68936104D02*
X63247622Y-68859914D01*
X63247622Y-68859914D02*
X63247622Y-68707533D01*
X63247622Y-68707533D02*
X63209527Y-68631342D01*
X63209527Y-68631342D02*
X63171432Y-68593247D01*
X63171432Y-68593247D02*
X63095241Y-68555152D01*
X63476194Y-68974200D02*
X64466670Y-68974200D01*
X63476194Y-68174200D02*
X63476194Y-69012295D01*
X63742861Y-68707533D02*
X64200004Y-68707533D01*
X63742861Y-68402771D02*
X63742861Y-68707533D01*
X63476194Y-68174200D02*
X64466670Y-68174200D01*
X64466670Y-68174200D02*
X64466670Y-69012295D01*
X63742861Y-68402771D02*
X64200004Y-68402771D01*
X64200004Y-68402771D02*
X64200004Y-68707533D01*
X64733336Y-68440866D02*
X65038098Y-68440866D01*
X64733336Y-68174200D02*
X64733336Y-68440866D01*
X64733336Y-68593247D02*
X64733336Y-68936104D01*
X64885717Y-68631342D02*
X65038098Y-68631342D01*
X64885717Y-68402771D02*
X64885717Y-68898009D01*
X65038098Y-68898009D02*
X64657146Y-68936104D01*
X65190479Y-68669438D02*
X65190479Y-69012295D01*
X65190479Y-68974200D02*
X65609527Y-68974200D01*
X64733336Y-68174200D02*
X65038098Y-68174200D01*
X65038098Y-68174200D02*
X65038098Y-68440866D01*
X65190479Y-68669438D02*
X65609527Y-68669438D01*
X65609527Y-68669438D02*
X65609527Y-69012295D01*
X65266670Y-68098009D02*
X65190479Y-68288485D01*
X65190479Y-68288485D02*
X65076194Y-68402771D01*
X65228575Y-68250390D02*
X65266670Y-68402771D01*
X65266670Y-68402771D02*
X65495241Y-68631342D01*
X65495241Y-68631342D02*
X65647622Y-68669438D01*
X65228575Y-68212295D02*
X65533336Y-68212295D01*
X65533336Y-68212295D02*
X65457146Y-68402771D01*
X65457146Y-68402771D02*
X65228575Y-68593247D01*
X65228575Y-68593247D02*
X65038098Y-68669438D01*
X66295241Y-68364676D02*
X66447622Y-68821819D01*
X66333336Y-68288485D02*
X66409527Y-68364676D01*
X66447622Y-68250390D02*
X66523812Y-68326580D01*
X66104765Y-68364676D02*
X66066669Y-68555152D01*
X66066669Y-68555152D02*
X65990479Y-68707533D01*
X65990479Y-68707533D02*
X65914288Y-68821819D01*
X66790479Y-68440866D02*
X66866669Y-68631342D01*
X66980955Y-68402771D02*
X67019050Y-68593247D01*
X67209526Y-68440866D02*
X67209526Y-68631342D01*
X67209526Y-68631342D02*
X67171431Y-68745628D01*
X67171431Y-68745628D02*
X67057145Y-68859914D01*
X67057145Y-68859914D02*
X66942860Y-68936104D01*
X67628574Y-68288485D02*
X68047621Y-68288485D01*
X68047621Y-68288485D02*
X68047621Y-68478961D01*
X68047621Y-68478961D02*
X68009526Y-68669438D01*
X68009526Y-68669438D02*
X67933336Y-68783723D01*
X67933336Y-68783723D02*
X67819050Y-68859914D01*
X67819050Y-68859914D02*
X67666669Y-68936104D01*
X68504764Y-68402771D02*
X68885716Y-68402771D01*
X68885716Y-68402771D02*
X68847621Y-68517057D01*
X68847621Y-68517057D02*
X68771431Y-68631342D01*
X68695240Y-68517057D02*
X68695240Y-68669438D01*
X68695240Y-68669438D02*
X68657145Y-68783723D01*
X68657145Y-68783723D02*
X68580954Y-68898009D01*
X69876192Y-68174200D02*
X69190478Y-69202771D01*
X70180954Y-68250390D02*
X70561906Y-68250390D01*
X70104763Y-68440866D02*
X70600002Y-68440866D01*
X70600002Y-68440866D02*
X70600002Y-68631342D01*
X70600002Y-68631342D02*
X70523811Y-68745628D01*
X70523811Y-68745628D02*
X70409525Y-68859914D01*
X70409525Y-68859914D02*
X70257144Y-68974200D01*
X71209525Y-68440866D02*
X71209525Y-69012295D01*
X71400001Y-68174200D02*
X71323811Y-68288485D01*
X71323811Y-68288485D02*
X71209525Y-68440866D01*
X71209525Y-68440866D02*
X71057144Y-68555152D01*
X71057144Y-68555152D02*
X70942858Y-68631342D01*
X71819049Y-68288485D02*
X71971430Y-68440866D01*
X71819049Y-68898009D02*
X72009525Y-68859914D01*
X72009525Y-68859914D02*
X72123811Y-68745628D01*
X72123811Y-68745628D02*
X72200001Y-68631342D01*
X72200001Y-68631342D02*
X72276192Y-68364676D01*
X72885715Y-68478961D02*
X73114287Y-68669438D01*
X72885715Y-68136104D02*
X72885715Y-68974200D01*
X73038096Y-68402771D02*
X73114287Y-68478961D01*
X73152382Y-68364676D02*
X73228572Y-68440866D01*
X73533334Y-68250390D02*
X73914286Y-68250390D01*
X73457143Y-68440866D02*
X73952382Y-68440866D01*
X73952382Y-68440866D02*
X73952382Y-68631342D01*
X73952382Y-68631342D02*
X73876191Y-68745628D01*
X73876191Y-68745628D02*
X73761905Y-68859914D01*
X73761905Y-68859914D02*
X73609524Y-68974200D01*
X74561905Y-68440866D02*
X74561905Y-69012295D01*
X74752381Y-68174200D02*
X74676191Y-68288485D01*
X74676191Y-68288485D02*
X74561905Y-68440866D01*
X74561905Y-68440866D02*
X74409524Y-68555152D01*
X74409524Y-68555152D02*
X74295238Y-68631342D01*
X75514286Y-68364676D02*
X75666667Y-68821819D01*
X75552381Y-68288485D02*
X75628572Y-68364676D01*
X75666667Y-68250390D02*
X75742857Y-68326580D01*
X75323810Y-68364676D02*
X75285714Y-68555152D01*
X75285714Y-68555152D02*
X75209524Y-68707533D01*
X75209524Y-68707533D02*
X75133333Y-68821819D01*
X76428571Y-68098009D02*
X76390476Y-68212295D01*
X76390476Y-68212295D02*
X76352381Y-68364676D01*
X76352381Y-68364676D02*
X76352381Y-68745628D01*
X76352381Y-68745628D02*
X76390476Y-68898009D01*
X76390476Y-68898009D02*
X76428571Y-68974200D01*
X76733333Y-68745628D02*
X77114285Y-68707533D01*
X76771428Y-68288485D02*
X77076190Y-68288485D01*
X76771428Y-68517057D02*
X77076190Y-68517057D01*
X77342857Y-68745628D02*
X77723809Y-68745628D01*
X77342857Y-68517057D02*
X77685714Y-68517057D01*
X77342857Y-68288485D02*
X77723809Y-68288485D01*
X77342857Y-68098009D02*
X77342857Y-69012295D01*
X77076190Y-68136104D02*
X77076190Y-68593247D01*
X77076190Y-68593247D02*
X77038095Y-68821819D01*
X77038095Y-68821819D02*
X76847619Y-69012295D01*
X78066666Y-68174200D02*
X78866666Y-68174200D01*
X78066666Y-68174200D02*
X78066666Y-68631342D01*
X78066666Y-68631342D02*
X77990475Y-68936104D01*
X78066666Y-68440866D02*
X78790475Y-68440866D01*
X78790475Y-68440866D02*
X78676190Y-68631342D01*
X78676190Y-68631342D02*
X78485714Y-68859914D01*
X78485714Y-68859914D02*
X78104761Y-69012295D01*
X78219047Y-68440866D02*
X78295237Y-68669438D01*
X78295237Y-68669438D02*
X78485714Y-68859914D01*
X78485714Y-68859914D02*
X78676190Y-68974200D01*
X78676190Y-68974200D02*
X78904761Y-69012295D01*
X79095237Y-68821819D02*
X79590475Y-68821819D01*
X79095237Y-68250390D02*
X79552380Y-68250390D01*
X79133332Y-68669438D02*
X79552380Y-68669438D01*
X79133332Y-68517057D02*
X79552380Y-68517057D01*
X79133332Y-68364676D02*
X79133332Y-68669438D01*
X79323808Y-68098009D02*
X79323808Y-69012295D01*
X79552380Y-68974200D02*
X79895237Y-68974200D01*
X79590475Y-68517057D02*
X80085713Y-68517057D01*
X79666666Y-68212295D02*
X80047618Y-68212295D01*
X79704761Y-68974200D02*
X80085713Y-68974200D01*
X79780951Y-68517057D02*
X79628570Y-68974200D01*
X79933332Y-68707533D02*
X80085713Y-69012295D01*
X79133332Y-68364676D02*
X79552380Y-68364676D01*
X79552380Y-68364676D02*
X79514285Y-68669438D01*
X80390475Y-68783723D02*
X80542856Y-68974200D01*
X81152379Y-68212295D02*
X81647617Y-68212295D01*
X81647617Y-68212295D02*
X81380951Y-68517057D01*
X81380951Y-68517057D02*
X81495236Y-68517057D01*
X81495236Y-68517057D02*
X81571427Y-68555152D01*
X81571427Y-68555152D02*
X81609522Y-68593247D01*
X81609522Y-68593247D02*
X81647617Y-68669438D01*
X81647617Y-68669438D02*
X81647617Y-68859914D01*
X81647617Y-68859914D02*
X81609522Y-68936104D01*
X81609522Y-68936104D02*
X81571427Y-68974200D01*
X81571427Y-68974200D02*
X81495236Y-69012295D01*
X81495236Y-69012295D02*
X81266665Y-69012295D01*
X81266665Y-69012295D02*
X81190474Y-68974200D01*
X81190474Y-68974200D02*
X81152379Y-68936104D01*
X81914284Y-68250390D02*
X82066665Y-68402771D01*
X82142856Y-68555152D02*
X81876189Y-68783723D01*
X82142856Y-68098009D02*
X82142856Y-69012295D01*
X82219046Y-68440866D02*
X82866665Y-68440866D01*
X82676189Y-68174200D02*
X82790475Y-68288485D01*
X82523808Y-68440866D02*
X82561903Y-68631342D01*
X82561903Y-68631342D02*
X82638094Y-68821819D01*
X82638094Y-68821819D02*
X82828570Y-69012295D01*
X82523808Y-68098009D02*
X82523808Y-68440866D01*
X82523808Y-68440866D02*
X82447618Y-68631342D01*
X82447618Y-68631342D02*
X82371427Y-68821819D01*
X82371427Y-68821819D02*
X82219046Y-69012295D01*
X83057141Y-68288485D02*
X83514284Y-68288485D01*
X83133331Y-68593247D02*
X83476189Y-68593247D01*
X83133331Y-68478961D02*
X83476189Y-68478961D01*
X83133331Y-68364676D02*
X83133331Y-68745628D01*
X83209522Y-68859914D02*
X83057141Y-69012295D01*
X83247617Y-68098009D02*
X83171427Y-68288485D01*
X83361903Y-69012295D02*
X83780951Y-69012295D01*
X83361903Y-68821819D02*
X83361903Y-69012295D01*
X83399998Y-68174200D02*
X83552379Y-68288485D01*
X83628570Y-68745628D02*
X84009522Y-68745628D01*
X83628570Y-68402771D02*
X84009522Y-68402771D01*
X83666665Y-68478961D02*
X83666665Y-68745628D01*
X83666665Y-68136104D02*
X83666665Y-68364676D01*
X83819046Y-68936104D02*
X83780951Y-69012295D01*
X83857141Y-68821819D02*
X84047617Y-69012295D01*
X83933331Y-68174200D02*
X83628570Y-68250390D01*
X83933331Y-68517057D02*
X83628570Y-68593247D01*
X84009522Y-68288485D02*
X84009522Y-68402771D01*
X84009522Y-68631342D02*
X84009522Y-68745628D01*
X83133331Y-68364676D02*
X83476189Y-68364676D01*
X83476189Y-68364676D02*
X83476189Y-68745628D01*
X83361903Y-68745628D02*
X83476189Y-68783723D01*
X83476189Y-68783723D02*
X83628570Y-68859914D01*
X84238093Y-68936104D02*
X85228569Y-68936104D01*
X84238093Y-68631342D02*
X84238093Y-69012295D01*
X84276188Y-68517057D02*
X85190474Y-68517057D01*
X84276188Y-68212295D02*
X84276188Y-68517057D01*
X84733331Y-68098009D02*
X84733331Y-68936104D01*
X85190474Y-68212295D02*
X85190474Y-68517057D01*
X85228569Y-68631342D02*
X85228569Y-69012295D01*
X86028569Y-69012295D02*
X86295235Y-69012295D01*
X85457140Y-68364676D02*
X86409521Y-68364676D01*
X86409521Y-68364676D02*
X86409521Y-68593247D01*
X86409521Y-68593247D02*
X86333331Y-68974200D01*
X85876188Y-68098009D02*
X85876188Y-68440866D01*
X85876188Y-68440866D02*
X85799997Y-68631342D01*
X85799997Y-68631342D02*
X85685712Y-68821819D01*
X85685712Y-68821819D02*
X85457140Y-69012295D01*
X86714283Y-68098009D02*
X86790473Y-68212295D01*
X86790473Y-68212295D02*
X86828568Y-68364676D01*
X86828568Y-68364676D02*
X86828568Y-68745628D01*
X86828568Y-68745628D02*
X86790473Y-68898009D01*
X86790473Y-68898009D02*
X86714283Y-68974200D01*
X66485714Y-117562295D02*
X66485714Y-116762295D01*
X66485714Y-117143247D02*
X66942857Y-117143247D01*
X66942857Y-117562295D02*
X66942857Y-116762295D01*
X67628571Y-117524200D02*
X67552380Y-117562295D01*
X67552380Y-117562295D02*
X67399999Y-117562295D01*
X67399999Y-117562295D02*
X67323809Y-117524200D01*
X67323809Y-117524200D02*
X67285713Y-117448009D01*
X67285713Y-117448009D02*
X67285713Y-117143247D01*
X67285713Y-117143247D02*
X67323809Y-117067057D01*
X67323809Y-117067057D02*
X67399999Y-117028961D01*
X67399999Y-117028961D02*
X67552380Y-117028961D01*
X67552380Y-117028961D02*
X67628571Y-117067057D01*
X67628571Y-117067057D02*
X67666666Y-117143247D01*
X67666666Y-117143247D02*
X67666666Y-117219438D01*
X67666666Y-117219438D02*
X67285713Y-117295628D01*
X67933332Y-117562295D02*
X68352380Y-117028961D01*
X67933332Y-117028961D02*
X68352380Y-117562295D01*
X69228570Y-117524200D02*
X69342856Y-117562295D01*
X69342856Y-117562295D02*
X69533332Y-117562295D01*
X69533332Y-117562295D02*
X69609523Y-117524200D01*
X69609523Y-117524200D02*
X69647618Y-117486104D01*
X69647618Y-117486104D02*
X69685713Y-117409914D01*
X69685713Y-117409914D02*
X69685713Y-117333723D01*
X69685713Y-117333723D02*
X69647618Y-117257533D01*
X69647618Y-117257533D02*
X69609523Y-117219438D01*
X69609523Y-117219438D02*
X69533332Y-117181342D01*
X69533332Y-117181342D02*
X69380951Y-117143247D01*
X69380951Y-117143247D02*
X69304761Y-117105152D01*
X69304761Y-117105152D02*
X69266666Y-117067057D01*
X69266666Y-117067057D02*
X69228570Y-116990866D01*
X69228570Y-116990866D02*
X69228570Y-116914676D01*
X69228570Y-116914676D02*
X69266666Y-116838485D01*
X69266666Y-116838485D02*
X69304761Y-116800390D01*
X69304761Y-116800390D02*
X69380951Y-116762295D01*
X69380951Y-116762295D02*
X69571428Y-116762295D01*
X69571428Y-116762295D02*
X69685713Y-116800390D01*
X70371428Y-117524200D02*
X70295237Y-117562295D01*
X70295237Y-117562295D02*
X70142856Y-117562295D01*
X70142856Y-117562295D02*
X70066666Y-117524200D01*
X70066666Y-117524200D02*
X70028571Y-117486104D01*
X70028571Y-117486104D02*
X69990475Y-117409914D01*
X69990475Y-117409914D02*
X69990475Y-117181342D01*
X69990475Y-117181342D02*
X70028571Y-117105152D01*
X70028571Y-117105152D02*
X70066666Y-117067057D01*
X70066666Y-117067057D02*
X70142856Y-117028961D01*
X70142856Y-117028961D02*
X70295237Y-117028961D01*
X70295237Y-117028961D02*
X70371428Y-117067057D01*
X70714285Y-117562295D02*
X70714285Y-116762295D01*
X71057142Y-117562295D02*
X71057142Y-117143247D01*
X71057142Y-117143247D02*
X71019047Y-117067057D01*
X71019047Y-117067057D02*
X70942856Y-117028961D01*
X70942856Y-117028961D02*
X70828570Y-117028961D01*
X70828570Y-117028961D02*
X70752380Y-117067057D01*
X70752380Y-117067057D02*
X70714285Y-117105152D01*
X71438095Y-117562295D02*
X71438095Y-117028961D01*
X71438095Y-117105152D02*
X71476190Y-117067057D01*
X71476190Y-117067057D02*
X71552380Y-117028961D01*
X71552380Y-117028961D02*
X71666666Y-117028961D01*
X71666666Y-117028961D02*
X71742857Y-117067057D01*
X71742857Y-117067057D02*
X71780952Y-117143247D01*
X71780952Y-117143247D02*
X71780952Y-117562295D01*
X71780952Y-117143247D02*
X71819047Y-117067057D01*
X71819047Y-117067057D02*
X71895238Y-117028961D01*
X71895238Y-117028961D02*
X72009523Y-117028961D01*
X72009523Y-117028961D02*
X72085714Y-117067057D01*
X72085714Y-117067057D02*
X72123809Y-117143247D01*
X72123809Y-117143247D02*
X72123809Y-117562295D01*
X72504762Y-117562295D02*
X72504762Y-117028961D01*
X72504762Y-116762295D02*
X72466666Y-116800390D01*
X72466666Y-116800390D02*
X72504762Y-116838485D01*
X72504762Y-116838485D02*
X72542857Y-116800390D01*
X72542857Y-116800390D02*
X72504762Y-116762295D01*
X72504762Y-116762295D02*
X72504762Y-116838485D01*
X72771428Y-117028961D02*
X73076190Y-117028961D01*
X72885714Y-116762295D02*
X72885714Y-117448009D01*
X72885714Y-117448009D02*
X72923809Y-117524200D01*
X72923809Y-117524200D02*
X72999999Y-117562295D01*
X72999999Y-117562295D02*
X73076190Y-117562295D01*
X73228571Y-117028961D02*
X73533333Y-117028961D01*
X73342857Y-116762295D02*
X73342857Y-117448009D01*
X73342857Y-117448009D02*
X73380952Y-117524200D01*
X73380952Y-117524200D02*
X73457142Y-117562295D01*
X73457142Y-117562295D02*
X73533333Y-117562295D01*
X73800000Y-117257533D02*
X74409524Y-117257533D01*
X74676190Y-117028961D02*
X74980952Y-117028961D01*
X74790476Y-116762295D02*
X74790476Y-117448009D01*
X74790476Y-117448009D02*
X74828571Y-117524200D01*
X74828571Y-117524200D02*
X74904761Y-117562295D01*
X74904761Y-117562295D02*
X74980952Y-117562295D01*
X75247619Y-117562295D02*
X75247619Y-117028961D01*
X75247619Y-117181342D02*
X75285714Y-117105152D01*
X75285714Y-117105152D02*
X75323809Y-117067057D01*
X75323809Y-117067057D02*
X75400000Y-117028961D01*
X75400000Y-117028961D02*
X75476190Y-117028961D01*
X75742857Y-117562295D02*
X75742857Y-117028961D01*
X75742857Y-116762295D02*
X75704761Y-116800390D01*
X75704761Y-116800390D02*
X75742857Y-116838485D01*
X75742857Y-116838485D02*
X75780952Y-116800390D01*
X75780952Y-116800390D02*
X75742857Y-116762295D01*
X75742857Y-116762295D02*
X75742857Y-116838485D01*
X76466666Y-117028961D02*
X76466666Y-117676580D01*
X76466666Y-117676580D02*
X76428571Y-117752771D01*
X76428571Y-117752771D02*
X76390475Y-117790866D01*
X76390475Y-117790866D02*
X76314285Y-117828961D01*
X76314285Y-117828961D02*
X76199999Y-117828961D01*
X76199999Y-117828961D02*
X76123809Y-117790866D01*
X76466666Y-117524200D02*
X76390475Y-117562295D01*
X76390475Y-117562295D02*
X76238094Y-117562295D01*
X76238094Y-117562295D02*
X76161904Y-117524200D01*
X76161904Y-117524200D02*
X76123809Y-117486104D01*
X76123809Y-117486104D02*
X76085713Y-117409914D01*
X76085713Y-117409914D02*
X76085713Y-117181342D01*
X76085713Y-117181342D02*
X76123809Y-117105152D01*
X76123809Y-117105152D02*
X76161904Y-117067057D01*
X76161904Y-117067057D02*
X76238094Y-117028961D01*
X76238094Y-117028961D02*
X76390475Y-117028961D01*
X76390475Y-117028961D02*
X76466666Y-117067057D01*
X77190476Y-117028961D02*
X77190476Y-117676580D01*
X77190476Y-117676580D02*
X77152381Y-117752771D01*
X77152381Y-117752771D02*
X77114285Y-117790866D01*
X77114285Y-117790866D02*
X77038095Y-117828961D01*
X77038095Y-117828961D02*
X76923809Y-117828961D01*
X76923809Y-117828961D02*
X76847619Y-117790866D01*
X77190476Y-117524200D02*
X77114285Y-117562295D01*
X77114285Y-117562295D02*
X76961904Y-117562295D01*
X76961904Y-117562295D02*
X76885714Y-117524200D01*
X76885714Y-117524200D02*
X76847619Y-117486104D01*
X76847619Y-117486104D02*
X76809523Y-117409914D01*
X76809523Y-117409914D02*
X76809523Y-117181342D01*
X76809523Y-117181342D02*
X76847619Y-117105152D01*
X76847619Y-117105152D02*
X76885714Y-117067057D01*
X76885714Y-117067057D02*
X76961904Y-117028961D01*
X76961904Y-117028961D02*
X77114285Y-117028961D01*
X77114285Y-117028961D02*
X77190476Y-117067057D01*
X77876191Y-117524200D02*
X77800000Y-117562295D01*
X77800000Y-117562295D02*
X77647619Y-117562295D01*
X77647619Y-117562295D02*
X77571429Y-117524200D01*
X77571429Y-117524200D02*
X77533333Y-117448009D01*
X77533333Y-117448009D02*
X77533333Y-117143247D01*
X77533333Y-117143247D02*
X77571429Y-117067057D01*
X77571429Y-117067057D02*
X77647619Y-117028961D01*
X77647619Y-117028961D02*
X77800000Y-117028961D01*
X77800000Y-117028961D02*
X77876191Y-117067057D01*
X77876191Y-117067057D02*
X77914286Y-117143247D01*
X77914286Y-117143247D02*
X77914286Y-117219438D01*
X77914286Y-117219438D02*
X77533333Y-117295628D01*
X78257143Y-117562295D02*
X78257143Y-117028961D01*
X78257143Y-117181342D02*
X78295238Y-117105152D01*
X78295238Y-117105152D02*
X78333333Y-117067057D01*
X78333333Y-117067057D02*
X78409524Y-117028961D01*
X78409524Y-117028961D02*
X78485714Y-117028961D01*
X79361905Y-117562295D02*
X79361905Y-117028961D01*
X79361905Y-116762295D02*
X79323809Y-116800390D01*
X79323809Y-116800390D02*
X79361905Y-116838485D01*
X79361905Y-116838485D02*
X79400000Y-116800390D01*
X79400000Y-116800390D02*
X79361905Y-116762295D01*
X79361905Y-116762295D02*
X79361905Y-116838485D01*
X79742857Y-117028961D02*
X79742857Y-117562295D01*
X79742857Y-117105152D02*
X79780952Y-117067057D01*
X79780952Y-117067057D02*
X79857142Y-117028961D01*
X79857142Y-117028961D02*
X79971428Y-117028961D01*
X79971428Y-117028961D02*
X80047619Y-117067057D01*
X80047619Y-117067057D02*
X80085714Y-117143247D01*
X80085714Y-117143247D02*
X80085714Y-117562295D01*
X80390476Y-117028961D02*
X80580952Y-117562295D01*
X80580952Y-117562295D02*
X80771429Y-117028961D01*
X81380953Y-117524200D02*
X81304762Y-117562295D01*
X81304762Y-117562295D02*
X81152381Y-117562295D01*
X81152381Y-117562295D02*
X81076191Y-117524200D01*
X81076191Y-117524200D02*
X81038095Y-117448009D01*
X81038095Y-117448009D02*
X81038095Y-117143247D01*
X81038095Y-117143247D02*
X81076191Y-117067057D01*
X81076191Y-117067057D02*
X81152381Y-117028961D01*
X81152381Y-117028961D02*
X81304762Y-117028961D01*
X81304762Y-117028961D02*
X81380953Y-117067057D01*
X81380953Y-117067057D02*
X81419048Y-117143247D01*
X81419048Y-117143247D02*
X81419048Y-117219438D01*
X81419048Y-117219438D02*
X81038095Y-117295628D01*
X81761905Y-117562295D02*
X81761905Y-117028961D01*
X81761905Y-117181342D02*
X81800000Y-117105152D01*
X81800000Y-117105152D02*
X81838095Y-117067057D01*
X81838095Y-117067057D02*
X81914286Y-117028961D01*
X81914286Y-117028961D02*
X81990476Y-117028961D01*
X82142857Y-117028961D02*
X82447619Y-117028961D01*
X82257143Y-116762295D02*
X82257143Y-117448009D01*
X82257143Y-117448009D02*
X82295238Y-117524200D01*
X82295238Y-117524200D02*
X82371428Y-117562295D01*
X82371428Y-117562295D02*
X82447619Y-117562295D01*
X83019048Y-117524200D02*
X82942857Y-117562295D01*
X82942857Y-117562295D02*
X82790476Y-117562295D01*
X82790476Y-117562295D02*
X82714286Y-117524200D01*
X82714286Y-117524200D02*
X82676190Y-117448009D01*
X82676190Y-117448009D02*
X82676190Y-117143247D01*
X82676190Y-117143247D02*
X82714286Y-117067057D01*
X82714286Y-117067057D02*
X82790476Y-117028961D01*
X82790476Y-117028961D02*
X82942857Y-117028961D01*
X82942857Y-117028961D02*
X83019048Y-117067057D01*
X83019048Y-117067057D02*
X83057143Y-117143247D01*
X83057143Y-117143247D02*
X83057143Y-117219438D01*
X83057143Y-117219438D02*
X82676190Y-117295628D01*
X83400000Y-117562295D02*
X83400000Y-117028961D01*
X83400000Y-117181342D02*
X83438095Y-117105152D01*
X83438095Y-117105152D02*
X83476190Y-117067057D01*
X83476190Y-117067057D02*
X83552381Y-117028961D01*
X83552381Y-117028961D02*
X83628571Y-117028961D01*
X68523811Y-118212295D02*
X68371430Y-118212295D01*
X68371430Y-118212295D02*
X68295239Y-118250390D01*
X68295239Y-118250390D02*
X68257144Y-118288485D01*
X68257144Y-118288485D02*
X68180954Y-118402771D01*
X68180954Y-118402771D02*
X68142858Y-118555152D01*
X68142858Y-118555152D02*
X68142858Y-118859914D01*
X68142858Y-118859914D02*
X68180954Y-118936104D01*
X68180954Y-118936104D02*
X68219049Y-118974200D01*
X68219049Y-118974200D02*
X68295239Y-119012295D01*
X68295239Y-119012295D02*
X68447620Y-119012295D01*
X68447620Y-119012295D02*
X68523811Y-118974200D01*
X68523811Y-118974200D02*
X68561906Y-118936104D01*
X68561906Y-118936104D02*
X68600001Y-118859914D01*
X68600001Y-118859914D02*
X68600001Y-118669438D01*
X68600001Y-118669438D02*
X68561906Y-118593247D01*
X68561906Y-118593247D02*
X68523811Y-118555152D01*
X68523811Y-118555152D02*
X68447620Y-118517057D01*
X68447620Y-118517057D02*
X68295239Y-118517057D01*
X68295239Y-118517057D02*
X68219049Y-118555152D01*
X68219049Y-118555152D02*
X68180954Y-118593247D01*
X68180954Y-118593247D02*
X68142858Y-118669438D01*
X68828573Y-118974200D02*
X69819049Y-118974200D01*
X68828573Y-118174200D02*
X68828573Y-119012295D01*
X69095240Y-118707533D02*
X69552383Y-118707533D01*
X69095240Y-118402771D02*
X69095240Y-118707533D01*
X68828573Y-118174200D02*
X69819049Y-118174200D01*
X69819049Y-118174200D02*
X69819049Y-119012295D01*
X69095240Y-118402771D02*
X69552383Y-118402771D01*
X69552383Y-118402771D02*
X69552383Y-118707533D01*
X70085715Y-118440866D02*
X70390477Y-118440866D01*
X70085715Y-118174200D02*
X70085715Y-118440866D01*
X70085715Y-118593247D02*
X70085715Y-118936104D01*
X70238096Y-118631342D02*
X70390477Y-118631342D01*
X70238096Y-118402771D02*
X70238096Y-118898009D01*
X70390477Y-118898009D02*
X70009525Y-118936104D01*
X70542858Y-118669438D02*
X70542858Y-119012295D01*
X70542858Y-118974200D02*
X70961906Y-118974200D01*
X70085715Y-118174200D02*
X70390477Y-118174200D01*
X70390477Y-118174200D02*
X70390477Y-118440866D01*
X70542858Y-118669438D02*
X70961906Y-118669438D01*
X70961906Y-118669438D02*
X70961906Y-119012295D01*
X70619049Y-118098009D02*
X70542858Y-118288485D01*
X70542858Y-118288485D02*
X70428573Y-118402771D01*
X70580954Y-118250390D02*
X70619049Y-118402771D01*
X70619049Y-118402771D02*
X70847620Y-118631342D01*
X70847620Y-118631342D02*
X71000001Y-118669438D01*
X70580954Y-118212295D02*
X70885715Y-118212295D01*
X70885715Y-118212295D02*
X70809525Y-118402771D01*
X70809525Y-118402771D02*
X70580954Y-118593247D01*
X70580954Y-118593247D02*
X70390477Y-118669438D01*
X71304763Y-118440866D02*
X71419048Y-118555152D01*
X71380953Y-118212295D02*
X71495239Y-118326580D01*
X71304763Y-118936104D02*
X71495239Y-118859914D01*
X71495239Y-118859914D02*
X71609525Y-118783723D01*
X71609525Y-118783723D02*
X71685715Y-118707533D01*
X71685715Y-118707533D02*
X71800001Y-118402771D01*
X72180953Y-118821819D02*
X72600001Y-118821819D01*
X72257143Y-118440866D02*
X72485715Y-118440866D01*
X72485715Y-118440866D02*
X72485715Y-118821819D01*
X72980953Y-118745628D02*
X73400000Y-118936104D01*
X73057143Y-118478961D02*
X73361905Y-118593247D01*
X73057143Y-118212295D02*
X73438096Y-118364676D01*
X73819048Y-118440866D02*
X73895238Y-118631342D01*
X74009524Y-118402771D02*
X74047619Y-118593247D01*
X74238095Y-118440866D02*
X74238095Y-118631342D01*
X74238095Y-118631342D02*
X74200000Y-118745628D01*
X74200000Y-118745628D02*
X74085714Y-118859914D01*
X74085714Y-118859914D02*
X73971429Y-118936104D01*
X74885714Y-118478961D02*
X75114286Y-118669438D01*
X74885714Y-118136104D02*
X74885714Y-118974200D01*
X75723809Y-118478961D02*
X75952381Y-118669438D01*
X75723809Y-118136104D02*
X75723809Y-118974200D01*
X76447618Y-118174200D02*
X76447618Y-118593247D01*
X76714285Y-118174200D02*
X76714285Y-118478961D01*
X76714285Y-118478961D02*
X76714285Y-118631342D01*
X76714285Y-118631342D02*
X76638095Y-118783723D01*
X76638095Y-118783723D02*
X76599999Y-118859914D01*
X76599999Y-118859914D02*
X76485714Y-118974200D01*
X77552380Y-118174200D02*
X77628571Y-118288485D01*
X77628571Y-118098009D02*
X77704761Y-118212295D01*
X77171428Y-118364676D02*
X77628571Y-118364676D01*
X77628571Y-118364676D02*
X77590475Y-118936104D01*
X77590475Y-118936104D02*
X77476190Y-118859914D01*
X77361904Y-118098009D02*
X77361904Y-118364676D01*
X77361904Y-118364676D02*
X77361904Y-118555152D01*
X77361904Y-118555152D02*
X77323809Y-118707533D01*
X77323809Y-118707533D02*
X77247618Y-118821819D01*
X77247618Y-118821819D02*
X77171428Y-118936104D01*
X78238094Y-118440866D02*
X78238094Y-119012295D01*
X78428570Y-118174200D02*
X78352380Y-118288485D01*
X78352380Y-118288485D02*
X78238094Y-118440866D01*
X78238094Y-118440866D02*
X78085713Y-118555152D01*
X78085713Y-118555152D02*
X77971427Y-118631342D01*
X78847618Y-118288485D02*
X78999999Y-118440866D01*
X78847618Y-118898009D02*
X79038094Y-118859914D01*
X79038094Y-118859914D02*
X79152380Y-118745628D01*
X79152380Y-118745628D02*
X79228570Y-118631342D01*
X79228570Y-118631342D02*
X79304761Y-118364676D01*
X80028570Y-118364676D02*
X80180951Y-118821819D01*
X80066665Y-118288485D02*
X80142856Y-118364676D01*
X80180951Y-118250390D02*
X80257141Y-118326580D01*
X79838094Y-118364676D02*
X79799998Y-118555152D01*
X79799998Y-118555152D02*
X79723808Y-118707533D01*
X79723808Y-118707533D02*
X79647617Y-118821819D01*
X80447617Y-118593247D02*
X81057141Y-118593247D01*
X81476188Y-118440866D02*
X81666665Y-118669438D01*
X81514284Y-118136104D02*
X81476188Y-118288485D01*
X81476188Y-118288485D02*
X81438093Y-118440866D01*
X81438093Y-118440866D02*
X81361903Y-118593247D01*
X81514284Y-118288485D02*
X81780950Y-118288485D01*
X81780950Y-118288485D02*
X81742855Y-118440866D01*
X81742855Y-118440866D02*
X81704760Y-118593247D01*
X81704760Y-118593247D02*
X81666665Y-118745628D01*
X81666665Y-118745628D02*
X81590474Y-118859914D01*
X81590474Y-118859914D02*
X81476188Y-118974200D01*
X76347618Y-50638485D02*
X76385714Y-50600390D01*
X76385714Y-50600390D02*
X76461904Y-50562295D01*
X76461904Y-50562295D02*
X76652380Y-50562295D01*
X76652380Y-50562295D02*
X76728571Y-50600390D01*
X76728571Y-50600390D02*
X76766666Y-50638485D01*
X76766666Y-50638485D02*
X76804761Y-50714676D01*
X76804761Y-50714676D02*
X76804761Y-50790866D01*
X76804761Y-50790866D02*
X76766666Y-50905152D01*
X76766666Y-50905152D02*
X76309523Y-51362295D01*
X76309523Y-51362295D02*
X76804761Y-51362295D01*
X77109523Y-51133723D02*
X77490476Y-51133723D01*
X77033333Y-51362295D02*
X77300000Y-50562295D01*
X77300000Y-50562295D02*
X77566666Y-51362295D01*
X77757142Y-50562295D02*
X78252380Y-50562295D01*
X78252380Y-50562295D02*
X77985714Y-50867057D01*
X77985714Y-50867057D02*
X78099999Y-50867057D01*
X78099999Y-50867057D02*
X78176190Y-50905152D01*
X78176190Y-50905152D02*
X78214285Y-50943247D01*
X78214285Y-50943247D02*
X78252380Y-51019438D01*
X78252380Y-51019438D02*
X78252380Y-51209914D01*
X78252380Y-51209914D02*
X78214285Y-51286104D01*
X78214285Y-51286104D02*
X78176190Y-51324200D01*
X78176190Y-51324200D02*
X78099999Y-51362295D01*
X78099999Y-51362295D02*
X77871428Y-51362295D01*
X77871428Y-51362295D02*
X77795237Y-51324200D01*
X77795237Y-51324200D02*
X77757142Y-51286104D01*
X76804761Y-99362295D02*
X76347618Y-99362295D01*
X76576190Y-99362295D02*
X76576190Y-98562295D01*
X76576190Y-98562295D02*
X76499999Y-98676580D01*
X76499999Y-98676580D02*
X76423809Y-98752771D01*
X76423809Y-98752771D02*
X76347618Y-98790866D01*
X77109523Y-99133723D02*
X77490476Y-99133723D01*
X77033333Y-99362295D02*
X77300000Y-98562295D01*
X77300000Y-98562295D02*
X77566666Y-99362295D01*
X77757142Y-98562295D02*
X78252380Y-98562295D01*
X78252380Y-98562295D02*
X77985714Y-98867057D01*
X77985714Y-98867057D02*
X78099999Y-98867057D01*
X78099999Y-98867057D02*
X78176190Y-98905152D01*
X78176190Y-98905152D02*
X78214285Y-98943247D01*
X78214285Y-98943247D02*
X78252380Y-99019438D01*
X78252380Y-99019438D02*
X78252380Y-99209914D01*
X78252380Y-99209914D02*
X78214285Y-99286104D01*
X78214285Y-99286104D02*
X78176190Y-99324200D01*
X78176190Y-99324200D02*
X78099999Y-99362295D01*
X78099999Y-99362295D02*
X77871428Y-99362295D01*
X77871428Y-99362295D02*
X77795237Y-99324200D01*
X77795237Y-99324200D02*
X77757142Y-99286104D01*
X77109524Y-100828961D02*
X77109524Y-101362295D01*
X76919048Y-100524200D02*
X76728571Y-101095628D01*
X76728571Y-101095628D02*
X77223810Y-101095628D01*
X77490476Y-101133723D02*
X77871429Y-101133723D01*
X77414286Y-101362295D02*
X77680953Y-100562295D01*
X77680953Y-100562295D02*
X77947619Y-101362295D01*
X76690476Y-148562295D02*
X77185714Y-148562295D01*
X77185714Y-148562295D02*
X76919048Y-148867057D01*
X76919048Y-148867057D02*
X77033333Y-148867057D01*
X77033333Y-148867057D02*
X77109524Y-148905152D01*
X77109524Y-148905152D02*
X77147619Y-148943247D01*
X77147619Y-148943247D02*
X77185714Y-149019438D01*
X77185714Y-149019438D02*
X77185714Y-149209914D01*
X77185714Y-149209914D02*
X77147619Y-149286104D01*
X77147619Y-149286104D02*
X77109524Y-149324200D01*
X77109524Y-149324200D02*
X77033333Y-149362295D01*
X77033333Y-149362295D02*
X76804762Y-149362295D01*
X76804762Y-149362295D02*
X76728571Y-149324200D01*
X76728571Y-149324200D02*
X76690476Y-149286104D01*
X77680953Y-148981342D02*
X77680953Y-149362295D01*
X77414286Y-148562295D02*
X77680953Y-148981342D01*
X77680953Y-148981342D02*
X77947619Y-148562295D01*
X81404761Y-51362295D02*
X80947618Y-51362295D01*
X81176190Y-51362295D02*
X81176190Y-50562295D01*
X81176190Y-50562295D02*
X81099999Y-50676580D01*
X81099999Y-50676580D02*
X81023809Y-50752771D01*
X81023809Y-50752771D02*
X80947618Y-50790866D01*
X81900000Y-50981342D02*
X81900000Y-51362295D01*
X81633333Y-50562295D02*
X81900000Y-50981342D01*
X81900000Y-50981342D02*
X82166666Y-50562295D01*
X82357142Y-50562295D02*
X82852380Y-50562295D01*
X82852380Y-50562295D02*
X82585714Y-50867057D01*
X82585714Y-50867057D02*
X82699999Y-50867057D01*
X82699999Y-50867057D02*
X82776190Y-50905152D01*
X82776190Y-50905152D02*
X82814285Y-50943247D01*
X82814285Y-50943247D02*
X82852380Y-51019438D01*
X82852380Y-51019438D02*
X82852380Y-51209914D01*
X82852380Y-51209914D02*
X82814285Y-51286104D01*
X82814285Y-51286104D02*
X82776190Y-51324200D01*
X82776190Y-51324200D02*
X82699999Y-51362295D01*
X82699999Y-51362295D02*
X82471428Y-51362295D01*
X82471428Y-51362295D02*
X82395237Y-51324200D01*
X82395237Y-51324200D02*
X82357142Y-51286104D01*
X80947618Y-98638485D02*
X80985714Y-98600390D01*
X80985714Y-98600390D02*
X81061904Y-98562295D01*
X81061904Y-98562295D02*
X81252380Y-98562295D01*
X81252380Y-98562295D02*
X81328571Y-98600390D01*
X81328571Y-98600390D02*
X81366666Y-98638485D01*
X81366666Y-98638485D02*
X81404761Y-98714676D01*
X81404761Y-98714676D02*
X81404761Y-98790866D01*
X81404761Y-98790866D02*
X81366666Y-98905152D01*
X81366666Y-98905152D02*
X80909523Y-99362295D01*
X80909523Y-99362295D02*
X81404761Y-99362295D01*
X81900000Y-98981342D02*
X81900000Y-99362295D01*
X81633333Y-98562295D02*
X81900000Y-98981342D01*
X81900000Y-98981342D02*
X82166666Y-98562295D01*
X82395237Y-98638485D02*
X82433333Y-98600390D01*
X82433333Y-98600390D02*
X82509523Y-98562295D01*
X82509523Y-98562295D02*
X82699999Y-98562295D01*
X82699999Y-98562295D02*
X82776190Y-98600390D01*
X82776190Y-98600390D02*
X82814285Y-98638485D01*
X82814285Y-98638485D02*
X82852380Y-98714676D01*
X82852380Y-98714676D02*
X82852380Y-98790866D01*
X82852380Y-98790866D02*
X82814285Y-98905152D01*
X82814285Y-98905152D02*
X82357142Y-99362295D01*
X82357142Y-99362295D02*
X82852380Y-99362295D01*
X81709524Y-100828961D02*
X81709524Y-101362295D01*
X81519048Y-100524200D02*
X81328571Y-101095628D01*
X81328571Y-101095628D02*
X81823810Y-101095628D01*
X82280953Y-100981342D02*
X82280953Y-101362295D01*
X82014286Y-100562295D02*
X82280953Y-100981342D01*
X82280953Y-100981342D02*
X82547619Y-100562295D01*
X81290476Y-148600390D02*
X81214286Y-148562295D01*
X81214286Y-148562295D02*
X81100000Y-148562295D01*
X81100000Y-148562295D02*
X80985714Y-148600390D01*
X80985714Y-148600390D02*
X80909524Y-148676580D01*
X80909524Y-148676580D02*
X80871429Y-148752771D01*
X80871429Y-148752771D02*
X80833333Y-148905152D01*
X80833333Y-148905152D02*
X80833333Y-149019438D01*
X80833333Y-149019438D02*
X80871429Y-149171819D01*
X80871429Y-149171819D02*
X80909524Y-149248009D01*
X80909524Y-149248009D02*
X80985714Y-149324200D01*
X80985714Y-149324200D02*
X81100000Y-149362295D01*
X81100000Y-149362295D02*
X81176191Y-149362295D01*
X81176191Y-149362295D02*
X81290476Y-149324200D01*
X81290476Y-149324200D02*
X81328572Y-149286104D01*
X81328572Y-149286104D02*
X81328572Y-149019438D01*
X81328572Y-149019438D02*
X81176191Y-149019438D01*
X81671429Y-149362295D02*
X81671429Y-148562295D01*
X81671429Y-148562295D02*
X82128572Y-149362295D01*
X82128572Y-149362295D02*
X82128572Y-148562295D01*
X82509524Y-149362295D02*
X82509524Y-148562295D01*
X82509524Y-148562295D02*
X82700000Y-148562295D01*
X82700000Y-148562295D02*
X82814286Y-148600390D01*
X82814286Y-148600390D02*
X82890476Y-148676580D01*
X82890476Y-148676580D02*
X82928571Y-148752771D01*
X82928571Y-148752771D02*
X82966667Y-148905152D01*
X82966667Y-148905152D02*
X82966667Y-149019438D01*
X82966667Y-149019438D02*
X82928571Y-149171819D01*
X82928571Y-149171819D02*
X82890476Y-149248009D01*
X82890476Y-149248009D02*
X82814286Y-149324200D01*
X82814286Y-149324200D02*
X82700000Y-149362295D01*
X82700000Y-149362295D02*
X82509524Y-149362295D01*
X85547618Y-50638485D02*
X85585714Y-50600390D01*
X85585714Y-50600390D02*
X85661904Y-50562295D01*
X85661904Y-50562295D02*
X85852380Y-50562295D01*
X85852380Y-50562295D02*
X85928571Y-50600390D01*
X85928571Y-50600390D02*
X85966666Y-50638485D01*
X85966666Y-50638485D02*
X86004761Y-50714676D01*
X86004761Y-50714676D02*
X86004761Y-50790866D01*
X86004761Y-50790866D02*
X85966666Y-50905152D01*
X85966666Y-50905152D02*
X85509523Y-51362295D01*
X85509523Y-51362295D02*
X86004761Y-51362295D01*
X86309523Y-51133723D02*
X86690476Y-51133723D01*
X86233333Y-51362295D02*
X86500000Y-50562295D01*
X86500000Y-50562295D02*
X86766666Y-51362295D01*
X86995237Y-50638485D02*
X87033333Y-50600390D01*
X87033333Y-50600390D02*
X87109523Y-50562295D01*
X87109523Y-50562295D02*
X87299999Y-50562295D01*
X87299999Y-50562295D02*
X87376190Y-50600390D01*
X87376190Y-50600390D02*
X87414285Y-50638485D01*
X87414285Y-50638485D02*
X87452380Y-50714676D01*
X87452380Y-50714676D02*
X87452380Y-50790866D01*
X87452380Y-50790866D02*
X87414285Y-50905152D01*
X87414285Y-50905152D02*
X86957142Y-51362295D01*
X86957142Y-51362295D02*
X87452380Y-51362295D01*
X86004761Y-99362295D02*
X85547618Y-99362295D01*
X85776190Y-99362295D02*
X85776190Y-98562295D01*
X85776190Y-98562295D02*
X85699999Y-98676580D01*
X85699999Y-98676580D02*
X85623809Y-98752771D01*
X85623809Y-98752771D02*
X85547618Y-98790866D01*
X86309523Y-99133723D02*
X86690476Y-99133723D01*
X86233333Y-99362295D02*
X86500000Y-98562295D01*
X86500000Y-98562295D02*
X86766666Y-99362295D01*
X87376190Y-98828961D02*
X87376190Y-99362295D01*
X87185714Y-98524200D02*
X86995237Y-99095628D01*
X86995237Y-99095628D02*
X87490476Y-99095628D01*
X90604760Y-51362295D02*
X90147617Y-51362295D01*
X90376189Y-51362295D02*
X90376189Y-50562295D01*
X90376189Y-50562295D02*
X90299998Y-50676580D01*
X90299998Y-50676580D02*
X90223808Y-50752771D01*
X90223808Y-50752771D02*
X90147617Y-50790866D01*
X91099999Y-50981342D02*
X91099999Y-51362295D01*
X90833332Y-50562295D02*
X91099999Y-50981342D01*
X91099999Y-50981342D02*
X91366665Y-50562295D01*
X91976189Y-50828961D02*
X91976189Y-51362295D01*
X91785713Y-50524200D02*
X91595236Y-51095628D01*
X91595236Y-51095628D02*
X92090475Y-51095628D01*
X90147617Y-98638485D02*
X90185713Y-98600390D01*
X90185713Y-98600390D02*
X90261903Y-98562295D01*
X90261903Y-98562295D02*
X90452379Y-98562295D01*
X90452379Y-98562295D02*
X90528570Y-98600390D01*
X90528570Y-98600390D02*
X90566665Y-98638485D01*
X90566665Y-98638485D02*
X90604760Y-98714676D01*
X90604760Y-98714676D02*
X90604760Y-98790866D01*
X90604760Y-98790866D02*
X90566665Y-98905152D01*
X90566665Y-98905152D02*
X90109522Y-99362295D01*
X90109522Y-99362295D02*
X90604760Y-99362295D01*
X91099999Y-98981342D02*
X91099999Y-99362295D01*
X90833332Y-98562295D02*
X91099999Y-98981342D01*
X91099999Y-98981342D02*
X91366665Y-98562295D01*
X92052379Y-99362295D02*
X91595236Y-99362295D01*
X91823808Y-99362295D02*
X91823808Y-98562295D01*
X91823808Y-98562295D02*
X91747617Y-98676580D01*
X91747617Y-98676580D02*
X91671427Y-98752771D01*
X91671427Y-98752771D02*
X91595236Y-98790866D01*
X94747618Y-50638485D02*
X94785714Y-50600390D01*
X94785714Y-50600390D02*
X94861904Y-50562295D01*
X94861904Y-50562295D02*
X95052380Y-50562295D01*
X95052380Y-50562295D02*
X95128571Y-50600390D01*
X95128571Y-50600390D02*
X95166666Y-50638485D01*
X95166666Y-50638485D02*
X95204761Y-50714676D01*
X95204761Y-50714676D02*
X95204761Y-50790866D01*
X95204761Y-50790866D02*
X95166666Y-50905152D01*
X95166666Y-50905152D02*
X94709523Y-51362295D01*
X94709523Y-51362295D02*
X95204761Y-51362295D01*
X95509523Y-51133723D02*
X95890476Y-51133723D01*
X95433333Y-51362295D02*
X95700000Y-50562295D01*
X95700000Y-50562295D02*
X95966666Y-51362295D01*
X96652380Y-51362295D02*
X96195237Y-51362295D01*
X96423809Y-51362295D02*
X96423809Y-50562295D01*
X96423809Y-50562295D02*
X96347618Y-50676580D01*
X96347618Y-50676580D02*
X96271428Y-50752771D01*
X96271428Y-50752771D02*
X96195237Y-50790866D01*
X95090476Y-98600390D02*
X95014286Y-98562295D01*
X95014286Y-98562295D02*
X94900000Y-98562295D01*
X94900000Y-98562295D02*
X94785714Y-98600390D01*
X94785714Y-98600390D02*
X94709524Y-98676580D01*
X94709524Y-98676580D02*
X94671429Y-98752771D01*
X94671429Y-98752771D02*
X94633333Y-98905152D01*
X94633333Y-98905152D02*
X94633333Y-99019438D01*
X94633333Y-99019438D02*
X94671429Y-99171819D01*
X94671429Y-99171819D02*
X94709524Y-99248009D01*
X94709524Y-99248009D02*
X94785714Y-99324200D01*
X94785714Y-99324200D02*
X94900000Y-99362295D01*
X94900000Y-99362295D02*
X94976191Y-99362295D01*
X94976191Y-99362295D02*
X95090476Y-99324200D01*
X95090476Y-99324200D02*
X95128572Y-99286104D01*
X95128572Y-99286104D02*
X95128572Y-99019438D01*
X95128572Y-99019438D02*
X94976191Y-99019438D01*
X95471429Y-99362295D02*
X95471429Y-98562295D01*
X95471429Y-98562295D02*
X95928572Y-99362295D01*
X95928572Y-99362295D02*
X95928572Y-98562295D01*
X96309524Y-99362295D02*
X96309524Y-98562295D01*
X96309524Y-98562295D02*
X96500000Y-98562295D01*
X96500000Y-98562295D02*
X96614286Y-98600390D01*
X96614286Y-98600390D02*
X96690476Y-98676580D01*
X96690476Y-98676580D02*
X96728571Y-98752771D01*
X96728571Y-98752771D02*
X96766667Y-98905152D01*
X96766667Y-98905152D02*
X96766667Y-99019438D01*
X96766667Y-99019438D02*
X96728571Y-99171819D01*
X96728571Y-99171819D02*
X96690476Y-99248009D01*
X96690476Y-99248009D02*
X96614286Y-99324200D01*
X96614286Y-99324200D02*
X96500000Y-99362295D01*
X96500000Y-99362295D02*
X96309524Y-99362295D01*
X103233333Y-50562295D02*
X103500000Y-51362295D01*
X103500000Y-51362295D02*
X103766666Y-50562295D01*
X104490476Y-51286104D02*
X104452380Y-51324200D01*
X104452380Y-51324200D02*
X104338095Y-51362295D01*
X104338095Y-51362295D02*
X104261904Y-51362295D01*
X104261904Y-51362295D02*
X104147618Y-51324200D01*
X104147618Y-51324200D02*
X104071428Y-51248009D01*
X104071428Y-51248009D02*
X104033333Y-51171819D01*
X104033333Y-51171819D02*
X103995237Y-51019438D01*
X103995237Y-51019438D02*
X103995237Y-50905152D01*
X103995237Y-50905152D02*
X104033333Y-50752771D01*
X104033333Y-50752771D02*
X104071428Y-50676580D01*
X104071428Y-50676580D02*
X104147618Y-50600390D01*
X104147618Y-50600390D02*
X104261904Y-50562295D01*
X104261904Y-50562295D02*
X104338095Y-50562295D01*
X104338095Y-50562295D02*
X104452380Y-50600390D01*
X104452380Y-50600390D02*
X104490476Y-50638485D01*
X105290476Y-51286104D02*
X105252380Y-51324200D01*
X105252380Y-51324200D02*
X105138095Y-51362295D01*
X105138095Y-51362295D02*
X105061904Y-51362295D01*
X105061904Y-51362295D02*
X104947618Y-51324200D01*
X104947618Y-51324200D02*
X104871428Y-51248009D01*
X104871428Y-51248009D02*
X104833333Y-51171819D01*
X104833333Y-51171819D02*
X104795237Y-51019438D01*
X104795237Y-51019438D02*
X104795237Y-50905152D01*
X104795237Y-50905152D02*
X104833333Y-50752771D01*
X104833333Y-50752771D02*
X104871428Y-50676580D01*
X104871428Y-50676580D02*
X104947618Y-50600390D01*
X104947618Y-50600390D02*
X105061904Y-50562295D01*
X105061904Y-50562295D02*
X105138095Y-50562295D01*
X105138095Y-50562295D02*
X105252380Y-50600390D01*
X105252380Y-50600390D02*
X105290476Y-50638485D01*
X104185714Y-99362295D02*
X103728571Y-99362295D01*
X103957143Y-99362295D02*
X103957143Y-98562295D01*
X103957143Y-98562295D02*
X103880952Y-98676580D01*
X103880952Y-98676580D02*
X103804762Y-98752771D01*
X103804762Y-98752771D02*
X103728571Y-98790866D01*
X104490476Y-99133723D02*
X104871429Y-99133723D01*
X104414286Y-99362295D02*
X104680953Y-98562295D01*
X104680953Y-98562295D02*
X104947619Y-99362295D01*
X103233333Y-100562295D02*
X103500000Y-101362295D01*
X103500000Y-101362295D02*
X103766666Y-100562295D01*
X104490476Y-101286104D02*
X104452380Y-101324200D01*
X104452380Y-101324200D02*
X104338095Y-101362295D01*
X104338095Y-101362295D02*
X104261904Y-101362295D01*
X104261904Y-101362295D02*
X104147618Y-101324200D01*
X104147618Y-101324200D02*
X104071428Y-101248009D01*
X104071428Y-101248009D02*
X104033333Y-101171819D01*
X104033333Y-101171819D02*
X103995237Y-101019438D01*
X103995237Y-101019438D02*
X103995237Y-100905152D01*
X103995237Y-100905152D02*
X104033333Y-100752771D01*
X104033333Y-100752771D02*
X104071428Y-100676580D01*
X104071428Y-100676580D02*
X104147618Y-100600390D01*
X104147618Y-100600390D02*
X104261904Y-100562295D01*
X104261904Y-100562295D02*
X104338095Y-100562295D01*
X104338095Y-100562295D02*
X104452380Y-100600390D01*
X104452380Y-100600390D02*
X104490476Y-100638485D01*
X105290476Y-101286104D02*
X105252380Y-101324200D01*
X105252380Y-101324200D02*
X105138095Y-101362295D01*
X105138095Y-101362295D02*
X105061904Y-101362295D01*
X105061904Y-101362295D02*
X104947618Y-101324200D01*
X104947618Y-101324200D02*
X104871428Y-101248009D01*
X104871428Y-101248009D02*
X104833333Y-101171819D01*
X104833333Y-101171819D02*
X104795237Y-101019438D01*
X104795237Y-101019438D02*
X104795237Y-100905152D01*
X104795237Y-100905152D02*
X104833333Y-100752771D01*
X104833333Y-100752771D02*
X104871428Y-100676580D01*
X104871428Y-100676580D02*
X104947618Y-100600390D01*
X104947618Y-100600390D02*
X105061904Y-100562295D01*
X105061904Y-100562295D02*
X105138095Y-100562295D01*
X105138095Y-100562295D02*
X105252380Y-100600390D01*
X105252380Y-100600390D02*
X105290476Y-100638485D01*
X103747618Y-149362295D02*
X103290475Y-149362295D01*
X103519047Y-149362295D02*
X103519047Y-148562295D01*
X103519047Y-148562295D02*
X103442856Y-148676580D01*
X103442856Y-148676580D02*
X103366666Y-148752771D01*
X103366666Y-148752771D02*
X103290475Y-148790866D01*
X104242857Y-148562295D02*
X104395238Y-148562295D01*
X104395238Y-148562295D02*
X104471428Y-148600390D01*
X104471428Y-148600390D02*
X104547619Y-148676580D01*
X104547619Y-148676580D02*
X104585714Y-148828961D01*
X104585714Y-148828961D02*
X104585714Y-149095628D01*
X104585714Y-149095628D02*
X104547619Y-149248009D01*
X104547619Y-149248009D02*
X104471428Y-149324200D01*
X104471428Y-149324200D02*
X104395238Y-149362295D01*
X104395238Y-149362295D02*
X104242857Y-149362295D01*
X104242857Y-149362295D02*
X104166666Y-149324200D01*
X104166666Y-149324200D02*
X104090476Y-149248009D01*
X104090476Y-149248009D02*
X104052380Y-149095628D01*
X104052380Y-149095628D02*
X104052380Y-148828961D01*
X104052380Y-148828961D02*
X104090476Y-148676580D01*
X104090476Y-148676580D02*
X104166666Y-148600390D01*
X104166666Y-148600390D02*
X104242857Y-148562295D01*
X104928571Y-148943247D02*
X105195237Y-148943247D01*
X105309523Y-149362295D02*
X104928571Y-149362295D01*
X104928571Y-149362295D02*
X104928571Y-148562295D01*
X104928571Y-148562295D02*
X105309523Y-148562295D01*
X104471429Y-72057533D02*
X105080953Y-72057533D01*
X104776191Y-72362295D02*
X104776191Y-71752771D01*
X105842857Y-71562295D02*
X105461905Y-71562295D01*
X105461905Y-71562295D02*
X105423809Y-71943247D01*
X105423809Y-71943247D02*
X105461905Y-71905152D01*
X105461905Y-71905152D02*
X105538095Y-71867057D01*
X105538095Y-71867057D02*
X105728571Y-71867057D01*
X105728571Y-71867057D02*
X105804762Y-71905152D01*
X105804762Y-71905152D02*
X105842857Y-71943247D01*
X105842857Y-71943247D02*
X105880952Y-72019438D01*
X105880952Y-72019438D02*
X105880952Y-72209914D01*
X105880952Y-72209914D02*
X105842857Y-72286104D01*
X105842857Y-72286104D02*
X105804762Y-72324200D01*
X105804762Y-72324200D02*
X105728571Y-72362295D01*
X105728571Y-72362295D02*
X105538095Y-72362295D01*
X105538095Y-72362295D02*
X105461905Y-72324200D01*
X105461905Y-72324200D02*
X105423809Y-72286104D01*
X106109524Y-71562295D02*
X106376191Y-72362295D01*
X106376191Y-72362295D02*
X106642857Y-71562295D01*
X104890476Y-78500390D02*
X104814286Y-78462295D01*
X104814286Y-78462295D02*
X104700000Y-78462295D01*
X104700000Y-78462295D02*
X104585714Y-78500390D01*
X104585714Y-78500390D02*
X104509524Y-78576580D01*
X104509524Y-78576580D02*
X104471429Y-78652771D01*
X104471429Y-78652771D02*
X104433333Y-78805152D01*
X104433333Y-78805152D02*
X104433333Y-78919438D01*
X104433333Y-78919438D02*
X104471429Y-79071819D01*
X104471429Y-79071819D02*
X104509524Y-79148009D01*
X104509524Y-79148009D02*
X104585714Y-79224200D01*
X104585714Y-79224200D02*
X104700000Y-79262295D01*
X104700000Y-79262295D02*
X104776191Y-79262295D01*
X104776191Y-79262295D02*
X104890476Y-79224200D01*
X104890476Y-79224200D02*
X104928572Y-79186104D01*
X104928572Y-79186104D02*
X104928572Y-78919438D01*
X104928572Y-78919438D02*
X104776191Y-78919438D01*
X105271429Y-79262295D02*
X105271429Y-78462295D01*
X105271429Y-78462295D02*
X105728572Y-79262295D01*
X105728572Y-79262295D02*
X105728572Y-78462295D01*
X106109524Y-79262295D02*
X106109524Y-78462295D01*
X106109524Y-78462295D02*
X106300000Y-78462295D01*
X106300000Y-78462295D02*
X106414286Y-78500390D01*
X106414286Y-78500390D02*
X106490476Y-78576580D01*
X106490476Y-78576580D02*
X106528571Y-78652771D01*
X106528571Y-78652771D02*
X106566667Y-78805152D01*
X106566667Y-78805152D02*
X106566667Y-78919438D01*
X106566667Y-78919438D02*
X106528571Y-79071819D01*
X106528571Y-79071819D02*
X106490476Y-79148009D01*
X106490476Y-79148009D02*
X106414286Y-79224200D01*
X106414286Y-79224200D02*
X106300000Y-79262295D01*
X106300000Y-79262295D02*
X106109524Y-79262295D01*
X104471429Y-122057533D02*
X105080953Y-122057533D01*
X104776191Y-122362295D02*
X104776191Y-121752771D01*
X105842857Y-121562295D02*
X105461905Y-121562295D01*
X105461905Y-121562295D02*
X105423809Y-121943247D01*
X105423809Y-121943247D02*
X105461905Y-121905152D01*
X105461905Y-121905152D02*
X105538095Y-121867057D01*
X105538095Y-121867057D02*
X105728571Y-121867057D01*
X105728571Y-121867057D02*
X105804762Y-121905152D01*
X105804762Y-121905152D02*
X105842857Y-121943247D01*
X105842857Y-121943247D02*
X105880952Y-122019438D01*
X105880952Y-122019438D02*
X105880952Y-122209914D01*
X105880952Y-122209914D02*
X105842857Y-122286104D01*
X105842857Y-122286104D02*
X105804762Y-122324200D01*
X105804762Y-122324200D02*
X105728571Y-122362295D01*
X105728571Y-122362295D02*
X105538095Y-122362295D01*
X105538095Y-122362295D02*
X105461905Y-122324200D01*
X105461905Y-122324200D02*
X105423809Y-122286104D01*
X106109524Y-121562295D02*
X106376191Y-122362295D01*
X106376191Y-122362295D02*
X106642857Y-121562295D01*
X104890476Y-128500390D02*
X104814286Y-128462295D01*
X104814286Y-128462295D02*
X104700000Y-128462295D01*
X104700000Y-128462295D02*
X104585714Y-128500390D01*
X104585714Y-128500390D02*
X104509524Y-128576580D01*
X104509524Y-128576580D02*
X104471429Y-128652771D01*
X104471429Y-128652771D02*
X104433333Y-128805152D01*
X104433333Y-128805152D02*
X104433333Y-128919438D01*
X104433333Y-128919438D02*
X104471429Y-129071819D01*
X104471429Y-129071819D02*
X104509524Y-129148009D01*
X104509524Y-129148009D02*
X104585714Y-129224200D01*
X104585714Y-129224200D02*
X104700000Y-129262295D01*
X104700000Y-129262295D02*
X104776191Y-129262295D01*
X104776191Y-129262295D02*
X104890476Y-129224200D01*
X104890476Y-129224200D02*
X104928572Y-129186104D01*
X104928572Y-129186104D02*
X104928572Y-128919438D01*
X104928572Y-128919438D02*
X104776191Y-128919438D01*
X105271429Y-129262295D02*
X105271429Y-128462295D01*
X105271429Y-128462295D02*
X105728572Y-129262295D01*
X105728572Y-129262295D02*
X105728572Y-128462295D01*
X106109524Y-129262295D02*
X106109524Y-128462295D01*
X106109524Y-128462295D02*
X106300000Y-128462295D01*
X106300000Y-128462295D02*
X106414286Y-128500390D01*
X106414286Y-128500390D02*
X106490476Y-128576580D01*
X106490476Y-128576580D02*
X106528571Y-128652771D01*
X106528571Y-128652771D02*
X106566667Y-128805152D01*
X106566667Y-128805152D02*
X106566667Y-128919438D01*
X106566667Y-128919438D02*
X106528571Y-129071819D01*
X106528571Y-129071819D02*
X106490476Y-129148009D01*
X106490476Y-129148009D02*
X106414286Y-129224200D01*
X106414286Y-129224200D02*
X106300000Y-129262295D01*
X106300000Y-129262295D02*
X106109524Y-129262295D01*
X108709524Y-50562295D02*
X108557143Y-50562295D01*
X108557143Y-50562295D02*
X108480952Y-50600390D01*
X108480952Y-50600390D02*
X108442857Y-50638485D01*
X108442857Y-50638485D02*
X108366667Y-50752771D01*
X108366667Y-50752771D02*
X108328571Y-50905152D01*
X108328571Y-50905152D02*
X108328571Y-51209914D01*
X108328571Y-51209914D02*
X108366667Y-51286104D01*
X108366667Y-51286104D02*
X108404762Y-51324200D01*
X108404762Y-51324200D02*
X108480952Y-51362295D01*
X108480952Y-51362295D02*
X108633333Y-51362295D01*
X108633333Y-51362295D02*
X108709524Y-51324200D01*
X108709524Y-51324200D02*
X108747619Y-51286104D01*
X108747619Y-51286104D02*
X108785714Y-51209914D01*
X108785714Y-51209914D02*
X108785714Y-51019438D01*
X108785714Y-51019438D02*
X108747619Y-50943247D01*
X108747619Y-50943247D02*
X108709524Y-50905152D01*
X108709524Y-50905152D02*
X108633333Y-50867057D01*
X108633333Y-50867057D02*
X108480952Y-50867057D01*
X108480952Y-50867057D02*
X108404762Y-50905152D01*
X108404762Y-50905152D02*
X108366667Y-50943247D01*
X108366667Y-50943247D02*
X108328571Y-51019438D01*
X109090476Y-51133723D02*
X109471429Y-51133723D01*
X109014286Y-51362295D02*
X109280953Y-50562295D01*
X109280953Y-50562295D02*
X109547619Y-51362295D01*
X108785714Y-99362295D02*
X108328571Y-99362295D01*
X108557143Y-99362295D02*
X108557143Y-98562295D01*
X108557143Y-98562295D02*
X108480952Y-98676580D01*
X108480952Y-98676580D02*
X108404762Y-98752771D01*
X108404762Y-98752771D02*
X108328571Y-98790866D01*
X109280953Y-98981342D02*
X109280953Y-99362295D01*
X109014286Y-98562295D02*
X109280953Y-98981342D01*
X109280953Y-98981342D02*
X109547619Y-98562295D01*
X108271428Y-100828961D02*
X108271428Y-101362295D01*
X108080952Y-100524200D02*
X107890475Y-101095628D01*
X107890475Y-101095628D02*
X108385714Y-101095628D01*
X108842857Y-100562295D02*
X108995238Y-100562295D01*
X108995238Y-100562295D02*
X109071428Y-100600390D01*
X109071428Y-100600390D02*
X109147619Y-100676580D01*
X109147619Y-100676580D02*
X109185714Y-100828961D01*
X109185714Y-100828961D02*
X109185714Y-101095628D01*
X109185714Y-101095628D02*
X109147619Y-101248009D01*
X109147619Y-101248009D02*
X109071428Y-101324200D01*
X109071428Y-101324200D02*
X108995238Y-101362295D01*
X108995238Y-101362295D02*
X108842857Y-101362295D01*
X108842857Y-101362295D02*
X108766666Y-101324200D01*
X108766666Y-101324200D02*
X108690476Y-101248009D01*
X108690476Y-101248009D02*
X108652380Y-101095628D01*
X108652380Y-101095628D02*
X108652380Y-100828961D01*
X108652380Y-100828961D02*
X108690476Y-100676580D01*
X108690476Y-100676580D02*
X108766666Y-100600390D01*
X108766666Y-100600390D02*
X108842857Y-100562295D01*
X109528571Y-100943247D02*
X109795237Y-100943247D01*
X109909523Y-101362295D02*
X109528571Y-101362295D01*
X109528571Y-101362295D02*
X109528571Y-100562295D01*
X109528571Y-100562295D02*
X109909523Y-100562295D01*
X108785714Y-149362295D02*
X108328571Y-149362295D01*
X108557143Y-149362295D02*
X108557143Y-148562295D01*
X108557143Y-148562295D02*
X108480952Y-148676580D01*
X108480952Y-148676580D02*
X108404762Y-148752771D01*
X108404762Y-148752771D02*
X108328571Y-148790866D01*
X109090476Y-149133723D02*
X109471429Y-149133723D01*
X109014286Y-149362295D02*
X109280953Y-148562295D01*
X109280953Y-148562295D02*
X109547619Y-149362295D01*
X113309524Y-50562295D02*
X113157143Y-50562295D01*
X113157143Y-50562295D02*
X113080952Y-50600390D01*
X113080952Y-50600390D02*
X113042857Y-50638485D01*
X113042857Y-50638485D02*
X112966667Y-50752771D01*
X112966667Y-50752771D02*
X112928571Y-50905152D01*
X112928571Y-50905152D02*
X112928571Y-51209914D01*
X112928571Y-51209914D02*
X112966667Y-51286104D01*
X112966667Y-51286104D02*
X113004762Y-51324200D01*
X113004762Y-51324200D02*
X113080952Y-51362295D01*
X113080952Y-51362295D02*
X113233333Y-51362295D01*
X113233333Y-51362295D02*
X113309524Y-51324200D01*
X113309524Y-51324200D02*
X113347619Y-51286104D01*
X113347619Y-51286104D02*
X113385714Y-51209914D01*
X113385714Y-51209914D02*
X113385714Y-51019438D01*
X113385714Y-51019438D02*
X113347619Y-50943247D01*
X113347619Y-50943247D02*
X113309524Y-50905152D01*
X113309524Y-50905152D02*
X113233333Y-50867057D01*
X113233333Y-50867057D02*
X113080952Y-50867057D01*
X113080952Y-50867057D02*
X113004762Y-50905152D01*
X113004762Y-50905152D02*
X112966667Y-50943247D01*
X112966667Y-50943247D02*
X112928571Y-51019438D01*
X113880953Y-50981342D02*
X113880953Y-51362295D01*
X113614286Y-50562295D02*
X113880953Y-50981342D01*
X113880953Y-50981342D02*
X114147619Y-50562295D01*
X112928571Y-98638485D02*
X112966667Y-98600390D01*
X112966667Y-98600390D02*
X113042857Y-98562295D01*
X113042857Y-98562295D02*
X113233333Y-98562295D01*
X113233333Y-98562295D02*
X113309524Y-98600390D01*
X113309524Y-98600390D02*
X113347619Y-98638485D01*
X113347619Y-98638485D02*
X113385714Y-98714676D01*
X113385714Y-98714676D02*
X113385714Y-98790866D01*
X113385714Y-98790866D02*
X113347619Y-98905152D01*
X113347619Y-98905152D02*
X112890476Y-99362295D01*
X112890476Y-99362295D02*
X113385714Y-99362295D01*
X113690476Y-99133723D02*
X114071429Y-99133723D01*
X113614286Y-99362295D02*
X113880953Y-98562295D01*
X113880953Y-98562295D02*
X114147619Y-99362295D01*
X113309524Y-100828961D02*
X113309524Y-101362295D01*
X113119048Y-100524200D02*
X112928571Y-101095628D01*
X112928571Y-101095628D02*
X113423810Y-101095628D01*
X113690476Y-101133723D02*
X114071429Y-101133723D01*
X113614286Y-101362295D02*
X113880953Y-100562295D01*
X113880953Y-100562295D02*
X114147619Y-101362295D01*
X113385714Y-149362295D02*
X112928571Y-149362295D01*
X113157143Y-149362295D02*
X113157143Y-148562295D01*
X113157143Y-148562295D02*
X113080952Y-148676580D01*
X113080952Y-148676580D02*
X113004762Y-148752771D01*
X113004762Y-148752771D02*
X112928571Y-148790866D01*
X113880953Y-148981342D02*
X113880953Y-149362295D01*
X113614286Y-148562295D02*
X113880953Y-148981342D01*
X113880953Y-148981342D02*
X114147619Y-148562295D01*
X117947619Y-50562295D02*
X117566667Y-50562295D01*
X117566667Y-50562295D02*
X117528571Y-50943247D01*
X117528571Y-50943247D02*
X117566667Y-50905152D01*
X117566667Y-50905152D02*
X117642857Y-50867057D01*
X117642857Y-50867057D02*
X117833333Y-50867057D01*
X117833333Y-50867057D02*
X117909524Y-50905152D01*
X117909524Y-50905152D02*
X117947619Y-50943247D01*
X117947619Y-50943247D02*
X117985714Y-51019438D01*
X117985714Y-51019438D02*
X117985714Y-51209914D01*
X117985714Y-51209914D02*
X117947619Y-51286104D01*
X117947619Y-51286104D02*
X117909524Y-51324200D01*
X117909524Y-51324200D02*
X117833333Y-51362295D01*
X117833333Y-51362295D02*
X117642857Y-51362295D01*
X117642857Y-51362295D02*
X117566667Y-51324200D01*
X117566667Y-51324200D02*
X117528571Y-51286104D01*
X118290476Y-51133723D02*
X118671429Y-51133723D01*
X118214286Y-51362295D02*
X118480953Y-50562295D01*
X118480953Y-50562295D02*
X118747619Y-51362295D01*
X117528571Y-98638485D02*
X117566667Y-98600390D01*
X117566667Y-98600390D02*
X117642857Y-98562295D01*
X117642857Y-98562295D02*
X117833333Y-98562295D01*
X117833333Y-98562295D02*
X117909524Y-98600390D01*
X117909524Y-98600390D02*
X117947619Y-98638485D01*
X117947619Y-98638485D02*
X117985714Y-98714676D01*
X117985714Y-98714676D02*
X117985714Y-98790866D01*
X117985714Y-98790866D02*
X117947619Y-98905152D01*
X117947619Y-98905152D02*
X117490476Y-99362295D01*
X117490476Y-99362295D02*
X117985714Y-99362295D01*
X118480953Y-98981342D02*
X118480953Y-99362295D01*
X118214286Y-98562295D02*
X118480953Y-98981342D01*
X118480953Y-98981342D02*
X118747619Y-98562295D01*
X117909524Y-100828961D02*
X117909524Y-101362295D01*
X117719048Y-100524200D02*
X117528571Y-101095628D01*
X117528571Y-101095628D02*
X118023810Y-101095628D01*
X118480953Y-100981342D02*
X118480953Y-101362295D01*
X118214286Y-100562295D02*
X118480953Y-100981342D01*
X118480953Y-100981342D02*
X118747619Y-100562295D01*
X117090475Y-148638485D02*
X117128571Y-148600390D01*
X117128571Y-148600390D02*
X117204761Y-148562295D01*
X117204761Y-148562295D02*
X117395237Y-148562295D01*
X117395237Y-148562295D02*
X117471428Y-148600390D01*
X117471428Y-148600390D02*
X117509523Y-148638485D01*
X117509523Y-148638485D02*
X117547618Y-148714676D01*
X117547618Y-148714676D02*
X117547618Y-148790866D01*
X117547618Y-148790866D02*
X117509523Y-148905152D01*
X117509523Y-148905152D02*
X117052380Y-149362295D01*
X117052380Y-149362295D02*
X117547618Y-149362295D01*
X118042857Y-148562295D02*
X118195238Y-148562295D01*
X118195238Y-148562295D02*
X118271428Y-148600390D01*
X118271428Y-148600390D02*
X118347619Y-148676580D01*
X118347619Y-148676580D02*
X118385714Y-148828961D01*
X118385714Y-148828961D02*
X118385714Y-149095628D01*
X118385714Y-149095628D02*
X118347619Y-149248009D01*
X118347619Y-149248009D02*
X118271428Y-149324200D01*
X118271428Y-149324200D02*
X118195238Y-149362295D01*
X118195238Y-149362295D02*
X118042857Y-149362295D01*
X118042857Y-149362295D02*
X117966666Y-149324200D01*
X117966666Y-149324200D02*
X117890476Y-149248009D01*
X117890476Y-149248009D02*
X117852380Y-149095628D01*
X117852380Y-149095628D02*
X117852380Y-148828961D01*
X117852380Y-148828961D02*
X117890476Y-148676580D01*
X117890476Y-148676580D02*
X117966666Y-148600390D01*
X117966666Y-148600390D02*
X118042857Y-148562295D01*
X118728571Y-148943247D02*
X118995237Y-148943247D01*
X119109523Y-149362295D02*
X118728571Y-149362295D01*
X118728571Y-149362295D02*
X118728571Y-148562295D01*
X118728571Y-148562295D02*
X119109523Y-148562295D01*
X122547619Y-50562295D02*
X122166667Y-50562295D01*
X122166667Y-50562295D02*
X122128571Y-50943247D01*
X122128571Y-50943247D02*
X122166667Y-50905152D01*
X122166667Y-50905152D02*
X122242857Y-50867057D01*
X122242857Y-50867057D02*
X122433333Y-50867057D01*
X122433333Y-50867057D02*
X122509524Y-50905152D01*
X122509524Y-50905152D02*
X122547619Y-50943247D01*
X122547619Y-50943247D02*
X122585714Y-51019438D01*
X122585714Y-51019438D02*
X122585714Y-51209914D01*
X122585714Y-51209914D02*
X122547619Y-51286104D01*
X122547619Y-51286104D02*
X122509524Y-51324200D01*
X122509524Y-51324200D02*
X122433333Y-51362295D01*
X122433333Y-51362295D02*
X122242857Y-51362295D01*
X122242857Y-51362295D02*
X122166667Y-51324200D01*
X122166667Y-51324200D02*
X122128571Y-51286104D01*
X123080953Y-50981342D02*
X123080953Y-51362295D01*
X122814286Y-50562295D02*
X123080953Y-50981342D01*
X123080953Y-50981342D02*
X123347619Y-50562295D01*
X122090476Y-98562295D02*
X122585714Y-98562295D01*
X122585714Y-98562295D02*
X122319048Y-98867057D01*
X122319048Y-98867057D02*
X122433333Y-98867057D01*
X122433333Y-98867057D02*
X122509524Y-98905152D01*
X122509524Y-98905152D02*
X122547619Y-98943247D01*
X122547619Y-98943247D02*
X122585714Y-99019438D01*
X122585714Y-99019438D02*
X122585714Y-99209914D01*
X122585714Y-99209914D02*
X122547619Y-99286104D01*
X122547619Y-99286104D02*
X122509524Y-99324200D01*
X122509524Y-99324200D02*
X122433333Y-99362295D01*
X122433333Y-99362295D02*
X122204762Y-99362295D01*
X122204762Y-99362295D02*
X122128571Y-99324200D01*
X122128571Y-99324200D02*
X122090476Y-99286104D01*
X122890476Y-99133723D02*
X123271429Y-99133723D01*
X122814286Y-99362295D02*
X123080953Y-98562295D01*
X123080953Y-98562295D02*
X123347619Y-99362295D01*
X121652380Y-100562295D02*
X122147618Y-100562295D01*
X122147618Y-100562295D02*
X121880952Y-100867057D01*
X121880952Y-100867057D02*
X121995237Y-100867057D01*
X121995237Y-100867057D02*
X122071428Y-100905152D01*
X122071428Y-100905152D02*
X122109523Y-100943247D01*
X122109523Y-100943247D02*
X122147618Y-101019438D01*
X122147618Y-101019438D02*
X122147618Y-101209914D01*
X122147618Y-101209914D02*
X122109523Y-101286104D01*
X122109523Y-101286104D02*
X122071428Y-101324200D01*
X122071428Y-101324200D02*
X121995237Y-101362295D01*
X121995237Y-101362295D02*
X121766666Y-101362295D01*
X121766666Y-101362295D02*
X121690475Y-101324200D01*
X121690475Y-101324200D02*
X121652380Y-101286104D01*
X122642857Y-100562295D02*
X122795238Y-100562295D01*
X122795238Y-100562295D02*
X122871428Y-100600390D01*
X122871428Y-100600390D02*
X122947619Y-100676580D01*
X122947619Y-100676580D02*
X122985714Y-100828961D01*
X122985714Y-100828961D02*
X122985714Y-101095628D01*
X122985714Y-101095628D02*
X122947619Y-101248009D01*
X122947619Y-101248009D02*
X122871428Y-101324200D01*
X122871428Y-101324200D02*
X122795238Y-101362295D01*
X122795238Y-101362295D02*
X122642857Y-101362295D01*
X122642857Y-101362295D02*
X122566666Y-101324200D01*
X122566666Y-101324200D02*
X122490476Y-101248009D01*
X122490476Y-101248009D02*
X122452380Y-101095628D01*
X122452380Y-101095628D02*
X122452380Y-100828961D01*
X122452380Y-100828961D02*
X122490476Y-100676580D01*
X122490476Y-100676580D02*
X122566666Y-100600390D01*
X122566666Y-100600390D02*
X122642857Y-100562295D01*
X123328571Y-100943247D02*
X123595237Y-100943247D01*
X123709523Y-101362295D02*
X123328571Y-101362295D01*
X123328571Y-101362295D02*
X123328571Y-100562295D01*
X123328571Y-100562295D02*
X123709523Y-100562295D01*
X122128571Y-148638485D02*
X122166667Y-148600390D01*
X122166667Y-148600390D02*
X122242857Y-148562295D01*
X122242857Y-148562295D02*
X122433333Y-148562295D01*
X122433333Y-148562295D02*
X122509524Y-148600390D01*
X122509524Y-148600390D02*
X122547619Y-148638485D01*
X122547619Y-148638485D02*
X122585714Y-148714676D01*
X122585714Y-148714676D02*
X122585714Y-148790866D01*
X122585714Y-148790866D02*
X122547619Y-148905152D01*
X122547619Y-148905152D02*
X122090476Y-149362295D01*
X122090476Y-149362295D02*
X122585714Y-149362295D01*
X122890476Y-149133723D02*
X123271429Y-149133723D01*
X122814286Y-149362295D02*
X123080953Y-148562295D01*
X123080953Y-148562295D02*
X123347619Y-149362295D01*
X121533334Y-67562295D02*
X121533334Y-66762295D01*
X121533334Y-67143247D02*
X121990477Y-67143247D01*
X121990477Y-67562295D02*
X121990477Y-66762295D01*
X122676191Y-67524200D02*
X122600000Y-67562295D01*
X122600000Y-67562295D02*
X122447619Y-67562295D01*
X122447619Y-67562295D02*
X122371429Y-67524200D01*
X122371429Y-67524200D02*
X122333333Y-67448009D01*
X122333333Y-67448009D02*
X122333333Y-67143247D01*
X122333333Y-67143247D02*
X122371429Y-67067057D01*
X122371429Y-67067057D02*
X122447619Y-67028961D01*
X122447619Y-67028961D02*
X122600000Y-67028961D01*
X122600000Y-67028961D02*
X122676191Y-67067057D01*
X122676191Y-67067057D02*
X122714286Y-67143247D01*
X122714286Y-67143247D02*
X122714286Y-67219438D01*
X122714286Y-67219438D02*
X122333333Y-67295628D01*
X122980952Y-67562295D02*
X123400000Y-67028961D01*
X122980952Y-67028961D02*
X123400000Y-67562295D01*
X124314286Y-67562295D02*
X124314286Y-67028961D01*
X124314286Y-66762295D02*
X124276190Y-66800390D01*
X124276190Y-66800390D02*
X124314286Y-66838485D01*
X124314286Y-66838485D02*
X124352381Y-66800390D01*
X124352381Y-66800390D02*
X124314286Y-66762295D01*
X124314286Y-66762295D02*
X124314286Y-66838485D01*
X124695238Y-67028961D02*
X124695238Y-67562295D01*
X124695238Y-67105152D02*
X124733333Y-67067057D01*
X124733333Y-67067057D02*
X124809523Y-67028961D01*
X124809523Y-67028961D02*
X124923809Y-67028961D01*
X124923809Y-67028961D02*
X125000000Y-67067057D01*
X125000000Y-67067057D02*
X125038095Y-67143247D01*
X125038095Y-67143247D02*
X125038095Y-67562295D01*
X125342857Y-67028961D02*
X125533333Y-67562295D01*
X125533333Y-67562295D02*
X125723810Y-67028961D01*
X126333334Y-67524200D02*
X126257143Y-67562295D01*
X126257143Y-67562295D02*
X126104762Y-67562295D01*
X126104762Y-67562295D02*
X126028572Y-67524200D01*
X126028572Y-67524200D02*
X125990476Y-67448009D01*
X125990476Y-67448009D02*
X125990476Y-67143247D01*
X125990476Y-67143247D02*
X126028572Y-67067057D01*
X126028572Y-67067057D02*
X126104762Y-67028961D01*
X126104762Y-67028961D02*
X126257143Y-67028961D01*
X126257143Y-67028961D02*
X126333334Y-67067057D01*
X126333334Y-67067057D02*
X126371429Y-67143247D01*
X126371429Y-67143247D02*
X126371429Y-67219438D01*
X126371429Y-67219438D02*
X125990476Y-67295628D01*
X126714286Y-67562295D02*
X126714286Y-67028961D01*
X126714286Y-67181342D02*
X126752381Y-67105152D01*
X126752381Y-67105152D02*
X126790476Y-67067057D01*
X126790476Y-67067057D02*
X126866667Y-67028961D01*
X126866667Y-67028961D02*
X126942857Y-67028961D01*
X127095238Y-67028961D02*
X127400000Y-67028961D01*
X127209524Y-66762295D02*
X127209524Y-67448009D01*
X127209524Y-67448009D02*
X127247619Y-67524200D01*
X127247619Y-67524200D02*
X127323809Y-67562295D01*
X127323809Y-67562295D02*
X127400000Y-67562295D01*
X127971429Y-67524200D02*
X127895238Y-67562295D01*
X127895238Y-67562295D02*
X127742857Y-67562295D01*
X127742857Y-67562295D02*
X127666667Y-67524200D01*
X127666667Y-67524200D02*
X127628571Y-67448009D01*
X127628571Y-67448009D02*
X127628571Y-67143247D01*
X127628571Y-67143247D02*
X127666667Y-67067057D01*
X127666667Y-67067057D02*
X127742857Y-67028961D01*
X127742857Y-67028961D02*
X127895238Y-67028961D01*
X127895238Y-67028961D02*
X127971429Y-67067057D01*
X127971429Y-67067057D02*
X128009524Y-67143247D01*
X128009524Y-67143247D02*
X128009524Y-67219438D01*
X128009524Y-67219438D02*
X127628571Y-67295628D01*
X128352381Y-67562295D02*
X128352381Y-67028961D01*
X128352381Y-67181342D02*
X128390476Y-67105152D01*
X128390476Y-67105152D02*
X128428571Y-67067057D01*
X128428571Y-67067057D02*
X128504762Y-67028961D01*
X128504762Y-67028961D02*
X128580952Y-67028961D01*
X116885716Y-68212295D02*
X116733335Y-68212295D01*
X116733335Y-68212295D02*
X116657144Y-68250390D01*
X116657144Y-68250390D02*
X116619049Y-68288485D01*
X116619049Y-68288485D02*
X116542859Y-68402771D01*
X116542859Y-68402771D02*
X116504763Y-68555152D01*
X116504763Y-68555152D02*
X116504763Y-68859914D01*
X116504763Y-68859914D02*
X116542859Y-68936104D01*
X116542859Y-68936104D02*
X116580954Y-68974200D01*
X116580954Y-68974200D02*
X116657144Y-69012295D01*
X116657144Y-69012295D02*
X116809525Y-69012295D01*
X116809525Y-69012295D02*
X116885716Y-68974200D01*
X116885716Y-68974200D02*
X116923811Y-68936104D01*
X116923811Y-68936104D02*
X116961906Y-68859914D01*
X116961906Y-68859914D02*
X116961906Y-68669438D01*
X116961906Y-68669438D02*
X116923811Y-68593247D01*
X116923811Y-68593247D02*
X116885716Y-68555152D01*
X116885716Y-68555152D02*
X116809525Y-68517057D01*
X116809525Y-68517057D02*
X116657144Y-68517057D01*
X116657144Y-68517057D02*
X116580954Y-68555152D01*
X116580954Y-68555152D02*
X116542859Y-68593247D01*
X116542859Y-68593247D02*
X116504763Y-68669438D01*
X117190478Y-68974200D02*
X118180954Y-68974200D01*
X117190478Y-68174200D02*
X117190478Y-69012295D01*
X117457145Y-68707533D02*
X117914288Y-68707533D01*
X117457145Y-68402771D02*
X117457145Y-68707533D01*
X117190478Y-68174200D02*
X118180954Y-68174200D01*
X118180954Y-68174200D02*
X118180954Y-69012295D01*
X117457145Y-68402771D02*
X117914288Y-68402771D01*
X117914288Y-68402771D02*
X117914288Y-68707533D01*
X118447620Y-68440866D02*
X118752382Y-68440866D01*
X118447620Y-68174200D02*
X118447620Y-68440866D01*
X118447620Y-68593247D02*
X118447620Y-68936104D01*
X118600001Y-68631342D02*
X118752382Y-68631342D01*
X118600001Y-68402771D02*
X118600001Y-68898009D01*
X118752382Y-68898009D02*
X118371430Y-68936104D01*
X118904763Y-68669438D02*
X118904763Y-69012295D01*
X118904763Y-68974200D02*
X119323811Y-68974200D01*
X118447620Y-68174200D02*
X118752382Y-68174200D01*
X118752382Y-68174200D02*
X118752382Y-68440866D01*
X118904763Y-68669438D02*
X119323811Y-68669438D01*
X119323811Y-68669438D02*
X119323811Y-69012295D01*
X118980954Y-68098009D02*
X118904763Y-68288485D01*
X118904763Y-68288485D02*
X118790478Y-68402771D01*
X118942859Y-68250390D02*
X118980954Y-68402771D01*
X118980954Y-68402771D02*
X119209525Y-68631342D01*
X119209525Y-68631342D02*
X119361906Y-68669438D01*
X118942859Y-68212295D02*
X119247620Y-68212295D01*
X119247620Y-68212295D02*
X119171430Y-68402771D01*
X119171430Y-68402771D02*
X118942859Y-68593247D01*
X118942859Y-68593247D02*
X118752382Y-68669438D01*
X119666668Y-69012295D02*
X119666668Y-68212295D01*
X119666668Y-68212295D02*
X120123811Y-69012295D01*
X120123811Y-69012295D02*
X120123811Y-68212295D01*
X120657144Y-68212295D02*
X120809525Y-68212295D01*
X120809525Y-68212295D02*
X120885715Y-68250390D01*
X120885715Y-68250390D02*
X120961906Y-68326580D01*
X120961906Y-68326580D02*
X121000001Y-68478961D01*
X121000001Y-68478961D02*
X121000001Y-68745628D01*
X121000001Y-68745628D02*
X120961906Y-68898009D01*
X120961906Y-68898009D02*
X120885715Y-68974200D01*
X120885715Y-68974200D02*
X120809525Y-69012295D01*
X120809525Y-69012295D02*
X120657144Y-69012295D01*
X120657144Y-69012295D02*
X120580953Y-68974200D01*
X120580953Y-68974200D02*
X120504763Y-68898009D01*
X120504763Y-68898009D02*
X120466667Y-68745628D01*
X120466667Y-68745628D02*
X120466667Y-68478961D01*
X120466667Y-68478961D02*
X120504763Y-68326580D01*
X120504763Y-68326580D02*
X120580953Y-68250390D01*
X120580953Y-68250390D02*
X120657144Y-68212295D01*
X121228572Y-68212295D02*
X121685715Y-68212295D01*
X121457143Y-69012295D02*
X121457143Y-68212295D01*
X122028572Y-68402771D02*
X122447620Y-68402771D01*
X122295239Y-68250390D02*
X122371429Y-68326580D01*
X122409525Y-68212295D02*
X122485715Y-68288485D01*
X122066667Y-68136104D02*
X122028572Y-68288485D01*
X122028572Y-68288485D02*
X121952382Y-68478961D01*
X121952382Y-68478961D02*
X121914286Y-68631342D01*
X122257144Y-68402771D02*
X122257144Y-68593247D01*
X122257144Y-68593247D02*
X122219048Y-68707533D01*
X122219048Y-68707533D02*
X122142858Y-68821819D01*
X122142858Y-68821819D02*
X122028572Y-68974200D01*
X122714286Y-68593247D02*
X123323810Y-68593247D01*
X123857143Y-68478961D02*
X124085715Y-68669438D01*
X123857143Y-68136104D02*
X123857143Y-68974200D01*
X125647619Y-68174200D02*
X124961905Y-69202771D01*
X126866667Y-68212295D02*
X126714286Y-68212295D01*
X126714286Y-68212295D02*
X126638095Y-68250390D01*
X126638095Y-68250390D02*
X126600000Y-68288485D01*
X126600000Y-68288485D02*
X126523810Y-68402771D01*
X126523810Y-68402771D02*
X126485714Y-68555152D01*
X126485714Y-68555152D02*
X126485714Y-68859914D01*
X126485714Y-68859914D02*
X126523810Y-68936104D01*
X126523810Y-68936104D02*
X126561905Y-68974200D01*
X126561905Y-68974200D02*
X126638095Y-69012295D01*
X126638095Y-69012295D02*
X126790476Y-69012295D01*
X126790476Y-69012295D02*
X126866667Y-68974200D01*
X126866667Y-68974200D02*
X126904762Y-68936104D01*
X126904762Y-68936104D02*
X126942857Y-68859914D01*
X126942857Y-68859914D02*
X126942857Y-68669438D01*
X126942857Y-68669438D02*
X126904762Y-68593247D01*
X126904762Y-68593247D02*
X126866667Y-68555152D01*
X126866667Y-68555152D02*
X126790476Y-68517057D01*
X126790476Y-68517057D02*
X126638095Y-68517057D01*
X126638095Y-68517057D02*
X126561905Y-68555152D01*
X126561905Y-68555152D02*
X126523810Y-68593247D01*
X126523810Y-68593247D02*
X126485714Y-68669438D01*
X127171429Y-68974200D02*
X128161905Y-68974200D01*
X127171429Y-68174200D02*
X127171429Y-69012295D01*
X127438096Y-68707533D02*
X127895239Y-68707533D01*
X127438096Y-68402771D02*
X127438096Y-68707533D01*
X127171429Y-68174200D02*
X128161905Y-68174200D01*
X128161905Y-68174200D02*
X128161905Y-69012295D01*
X127438096Y-68402771D02*
X127895239Y-68402771D01*
X127895239Y-68402771D02*
X127895239Y-68707533D01*
X128428571Y-68440866D02*
X128733333Y-68440866D01*
X128428571Y-68174200D02*
X128428571Y-68440866D01*
X128428571Y-68593247D02*
X128428571Y-68936104D01*
X128580952Y-68631342D02*
X128733333Y-68631342D01*
X128580952Y-68402771D02*
X128580952Y-68898009D01*
X128733333Y-68898009D02*
X128352381Y-68936104D01*
X128885714Y-68669438D02*
X128885714Y-69012295D01*
X128885714Y-68974200D02*
X129304762Y-68974200D01*
X128428571Y-68174200D02*
X128733333Y-68174200D01*
X128733333Y-68174200D02*
X128733333Y-68440866D01*
X128885714Y-68669438D02*
X129304762Y-68669438D01*
X129304762Y-68669438D02*
X129304762Y-69012295D01*
X128961905Y-68098009D02*
X128885714Y-68288485D01*
X128885714Y-68288485D02*
X128771429Y-68402771D01*
X128923810Y-68250390D02*
X128961905Y-68402771D01*
X128961905Y-68402771D02*
X129190476Y-68631342D01*
X129190476Y-68631342D02*
X129342857Y-68669438D01*
X128923810Y-68212295D02*
X129228571Y-68212295D01*
X129228571Y-68212295D02*
X129152381Y-68402771D01*
X129152381Y-68402771D02*
X128923810Y-68593247D01*
X128923810Y-68593247D02*
X128733333Y-68669438D01*
X129876190Y-68440866D02*
X129876190Y-69012295D01*
X130066666Y-68174200D02*
X129990476Y-68288485D01*
X129990476Y-68288485D02*
X129876190Y-68440866D01*
X129876190Y-68440866D02*
X129723809Y-68555152D01*
X129723809Y-68555152D02*
X129609523Y-68631342D01*
X130485714Y-68288485D02*
X130638095Y-68440866D01*
X130485714Y-68898009D02*
X130676190Y-68859914D01*
X130676190Y-68859914D02*
X130790476Y-68745628D01*
X130790476Y-68745628D02*
X130866666Y-68631342D01*
X130866666Y-68631342D02*
X130942857Y-68364676D01*
X131666666Y-68364676D02*
X131819047Y-68821819D01*
X131704761Y-68288485D02*
X131780952Y-68364676D01*
X131819047Y-68250390D02*
X131895237Y-68326580D01*
X131476190Y-68364676D02*
X131438094Y-68555152D01*
X131438094Y-68555152D02*
X131361904Y-68707533D01*
X131361904Y-68707533D02*
X131285713Y-68821819D01*
X132085713Y-68593247D02*
X132695237Y-68593247D01*
X133114284Y-68440866D02*
X133304761Y-68669438D01*
X133152380Y-68136104D02*
X133114284Y-68288485D01*
X133114284Y-68288485D02*
X133076189Y-68440866D01*
X133076189Y-68440866D02*
X132999999Y-68593247D01*
X133152380Y-68288485D02*
X133419046Y-68288485D01*
X133419046Y-68288485D02*
X133380951Y-68440866D01*
X133380951Y-68440866D02*
X133342856Y-68593247D01*
X133342856Y-68593247D02*
X133304761Y-68745628D01*
X133304761Y-68745628D02*
X133228570Y-68859914D01*
X133228570Y-68859914D02*
X133114284Y-68974200D01*
X115114283Y-117638485D02*
X115038093Y-117600390D01*
X115038093Y-117600390D02*
X114961902Y-117524200D01*
X114961902Y-117524200D02*
X114847616Y-117409914D01*
X114847616Y-117409914D02*
X114771426Y-117371819D01*
X114771426Y-117371819D02*
X114695235Y-117371819D01*
X114733331Y-117562295D02*
X114657140Y-117524200D01*
X114657140Y-117524200D02*
X114580950Y-117448009D01*
X114580950Y-117448009D02*
X114542854Y-117295628D01*
X114542854Y-117295628D02*
X114542854Y-117028961D01*
X114542854Y-117028961D02*
X114580950Y-116876580D01*
X114580950Y-116876580D02*
X114657140Y-116800390D01*
X114657140Y-116800390D02*
X114733331Y-116762295D01*
X114733331Y-116762295D02*
X114885712Y-116762295D01*
X114885712Y-116762295D02*
X114961902Y-116800390D01*
X114961902Y-116800390D02*
X115038093Y-116876580D01*
X115038093Y-116876580D02*
X115076188Y-117028961D01*
X115076188Y-117028961D02*
X115076188Y-117295628D01*
X115076188Y-117295628D02*
X115038093Y-117448009D01*
X115038093Y-117448009D02*
X114961902Y-117524200D01*
X114961902Y-117524200D02*
X114885712Y-117562295D01*
X114885712Y-117562295D02*
X114733331Y-117562295D01*
X115761902Y-117028961D02*
X115761902Y-117562295D01*
X115419045Y-117028961D02*
X115419045Y-117448009D01*
X115419045Y-117448009D02*
X115457140Y-117524200D01*
X115457140Y-117524200D02*
X115533330Y-117562295D01*
X115533330Y-117562295D02*
X115647616Y-117562295D01*
X115647616Y-117562295D02*
X115723807Y-117524200D01*
X115723807Y-117524200D02*
X115761902Y-117486104D01*
X116485712Y-117562295D02*
X116485712Y-117143247D01*
X116485712Y-117143247D02*
X116447617Y-117067057D01*
X116447617Y-117067057D02*
X116371426Y-117028961D01*
X116371426Y-117028961D02*
X116219045Y-117028961D01*
X116219045Y-117028961D02*
X116142855Y-117067057D01*
X116485712Y-117524200D02*
X116409521Y-117562295D01*
X116409521Y-117562295D02*
X116219045Y-117562295D01*
X116219045Y-117562295D02*
X116142855Y-117524200D01*
X116142855Y-117524200D02*
X116104759Y-117448009D01*
X116104759Y-117448009D02*
X116104759Y-117371819D01*
X116104759Y-117371819D02*
X116142855Y-117295628D01*
X116142855Y-117295628D02*
X116219045Y-117257533D01*
X116219045Y-117257533D02*
X116409521Y-117257533D01*
X116409521Y-117257533D02*
X116485712Y-117219438D01*
X117209522Y-117562295D02*
X117209522Y-116762295D01*
X117209522Y-117524200D02*
X117133331Y-117562295D01*
X117133331Y-117562295D02*
X116980950Y-117562295D01*
X116980950Y-117562295D02*
X116904760Y-117524200D01*
X116904760Y-117524200D02*
X116866665Y-117486104D01*
X116866665Y-117486104D02*
X116828569Y-117409914D01*
X116828569Y-117409914D02*
X116828569Y-117181342D01*
X116828569Y-117181342D02*
X116866665Y-117105152D01*
X116866665Y-117105152D02*
X116904760Y-117067057D01*
X116904760Y-117067057D02*
X116980950Y-117028961D01*
X116980950Y-117028961D02*
X117133331Y-117028961D01*
X117133331Y-117028961D02*
X117209522Y-117067057D01*
X118199999Y-117562295D02*
X118199999Y-116762295D01*
X118199999Y-117067057D02*
X118276189Y-117028961D01*
X118276189Y-117028961D02*
X118428570Y-117028961D01*
X118428570Y-117028961D02*
X118504761Y-117067057D01*
X118504761Y-117067057D02*
X118542856Y-117105152D01*
X118542856Y-117105152D02*
X118580951Y-117181342D01*
X118580951Y-117181342D02*
X118580951Y-117409914D01*
X118580951Y-117409914D02*
X118542856Y-117486104D01*
X118542856Y-117486104D02*
X118504761Y-117524200D01*
X118504761Y-117524200D02*
X118428570Y-117562295D01*
X118428570Y-117562295D02*
X118276189Y-117562295D01*
X118276189Y-117562295D02*
X118199999Y-117524200D01*
X119266666Y-117028961D02*
X119266666Y-117562295D01*
X118923809Y-117028961D02*
X118923809Y-117448009D01*
X118923809Y-117448009D02*
X118961904Y-117524200D01*
X118961904Y-117524200D02*
X119038094Y-117562295D01*
X119038094Y-117562295D02*
X119152380Y-117562295D01*
X119152380Y-117562295D02*
X119228571Y-117524200D01*
X119228571Y-117524200D02*
X119266666Y-117486104D01*
X119609523Y-117524200D02*
X119685714Y-117562295D01*
X119685714Y-117562295D02*
X119838095Y-117562295D01*
X119838095Y-117562295D02*
X119914285Y-117524200D01*
X119914285Y-117524200D02*
X119952381Y-117448009D01*
X119952381Y-117448009D02*
X119952381Y-117409914D01*
X119952381Y-117409914D02*
X119914285Y-117333723D01*
X119914285Y-117333723D02*
X119838095Y-117295628D01*
X119838095Y-117295628D02*
X119723809Y-117295628D01*
X119723809Y-117295628D02*
X119647619Y-117257533D01*
X119647619Y-117257533D02*
X119609523Y-117181342D01*
X119609523Y-117181342D02*
X119609523Y-117143247D01*
X119609523Y-117143247D02*
X119647619Y-117067057D01*
X119647619Y-117067057D02*
X119723809Y-117028961D01*
X119723809Y-117028961D02*
X119838095Y-117028961D01*
X119838095Y-117028961D02*
X119914285Y-117067057D01*
X120904762Y-117562295D02*
X120904762Y-116762295D01*
X120904762Y-117067057D02*
X120980952Y-117028961D01*
X120980952Y-117028961D02*
X121133333Y-117028961D01*
X121133333Y-117028961D02*
X121209524Y-117067057D01*
X121209524Y-117067057D02*
X121247619Y-117105152D01*
X121247619Y-117105152D02*
X121285714Y-117181342D01*
X121285714Y-117181342D02*
X121285714Y-117409914D01*
X121285714Y-117409914D02*
X121247619Y-117486104D01*
X121247619Y-117486104D02*
X121209524Y-117524200D01*
X121209524Y-117524200D02*
X121133333Y-117562295D01*
X121133333Y-117562295D02*
X120980952Y-117562295D01*
X120980952Y-117562295D02*
X120904762Y-117524200D01*
X121971429Y-117028961D02*
X121971429Y-117562295D01*
X121628572Y-117028961D02*
X121628572Y-117448009D01*
X121628572Y-117448009D02*
X121666667Y-117524200D01*
X121666667Y-117524200D02*
X121742857Y-117562295D01*
X121742857Y-117562295D02*
X121857143Y-117562295D01*
X121857143Y-117562295D02*
X121933334Y-117524200D01*
X121933334Y-117524200D02*
X121971429Y-117486104D01*
X122238096Y-117028961D02*
X122542858Y-117028961D01*
X122352382Y-117562295D02*
X122352382Y-116876580D01*
X122352382Y-116876580D02*
X122390477Y-116800390D01*
X122390477Y-116800390D02*
X122466667Y-116762295D01*
X122466667Y-116762295D02*
X122542858Y-116762295D01*
X122695239Y-117028961D02*
X123000001Y-117028961D01*
X122809525Y-117562295D02*
X122809525Y-116876580D01*
X122809525Y-116876580D02*
X122847620Y-116800390D01*
X122847620Y-116800390D02*
X122923810Y-116762295D01*
X122923810Y-116762295D02*
X123000001Y-116762295D01*
X123571430Y-117524200D02*
X123495239Y-117562295D01*
X123495239Y-117562295D02*
X123342858Y-117562295D01*
X123342858Y-117562295D02*
X123266668Y-117524200D01*
X123266668Y-117524200D02*
X123228572Y-117448009D01*
X123228572Y-117448009D02*
X123228572Y-117143247D01*
X123228572Y-117143247D02*
X123266668Y-117067057D01*
X123266668Y-117067057D02*
X123342858Y-117028961D01*
X123342858Y-117028961D02*
X123495239Y-117028961D01*
X123495239Y-117028961D02*
X123571430Y-117067057D01*
X123571430Y-117067057D02*
X123609525Y-117143247D01*
X123609525Y-117143247D02*
X123609525Y-117219438D01*
X123609525Y-117219438D02*
X123228572Y-117295628D01*
X123952382Y-117562295D02*
X123952382Y-117028961D01*
X123952382Y-117181342D02*
X123990477Y-117105152D01*
X123990477Y-117105152D02*
X124028572Y-117067057D01*
X124028572Y-117067057D02*
X124104763Y-117028961D01*
X124104763Y-117028961D02*
X124180953Y-117028961D01*
X124485715Y-117524200D02*
X124485715Y-117562295D01*
X124485715Y-117562295D02*
X124447620Y-117638485D01*
X124447620Y-117638485D02*
X124409524Y-117676580D01*
X125323810Y-117028961D02*
X125628572Y-117028961D01*
X125438096Y-116762295D02*
X125438096Y-117448009D01*
X125438096Y-117448009D02*
X125476191Y-117524200D01*
X125476191Y-117524200D02*
X125552381Y-117562295D01*
X125552381Y-117562295D02*
X125628572Y-117562295D01*
X125895239Y-117562295D02*
X125895239Y-117028961D01*
X125895239Y-117181342D02*
X125933334Y-117105152D01*
X125933334Y-117105152D02*
X125971429Y-117067057D01*
X125971429Y-117067057D02*
X126047620Y-117028961D01*
X126047620Y-117028961D02*
X126123810Y-117028961D01*
X126390477Y-117562295D02*
X126390477Y-117028961D01*
X126390477Y-116762295D02*
X126352381Y-116800390D01*
X126352381Y-116800390D02*
X126390477Y-116838485D01*
X126390477Y-116838485D02*
X126428572Y-116800390D01*
X126428572Y-116800390D02*
X126390477Y-116762295D01*
X126390477Y-116762295D02*
X126390477Y-116838485D01*
X126771429Y-117257533D02*
X127380953Y-117257533D01*
X127723809Y-117524200D02*
X127800000Y-117562295D01*
X127800000Y-117562295D02*
X127952381Y-117562295D01*
X127952381Y-117562295D02*
X128028571Y-117524200D01*
X128028571Y-117524200D02*
X128066667Y-117448009D01*
X128066667Y-117448009D02*
X128066667Y-117409914D01*
X128066667Y-117409914D02*
X128028571Y-117333723D01*
X128028571Y-117333723D02*
X127952381Y-117295628D01*
X127952381Y-117295628D02*
X127838095Y-117295628D01*
X127838095Y-117295628D02*
X127761905Y-117257533D01*
X127761905Y-117257533D02*
X127723809Y-117181342D01*
X127723809Y-117181342D02*
X127723809Y-117143247D01*
X127723809Y-117143247D02*
X127761905Y-117067057D01*
X127761905Y-117067057D02*
X127838095Y-117028961D01*
X127838095Y-117028961D02*
X127952381Y-117028961D01*
X127952381Y-117028961D02*
X128028571Y-117067057D01*
X128295238Y-117028961D02*
X128600000Y-117028961D01*
X128409524Y-116762295D02*
X128409524Y-117448009D01*
X128409524Y-117448009D02*
X128447619Y-117524200D01*
X128447619Y-117524200D02*
X128523809Y-117562295D01*
X128523809Y-117562295D02*
X128600000Y-117562295D01*
X129209524Y-117562295D02*
X129209524Y-117143247D01*
X129209524Y-117143247D02*
X129171429Y-117067057D01*
X129171429Y-117067057D02*
X129095238Y-117028961D01*
X129095238Y-117028961D02*
X128942857Y-117028961D01*
X128942857Y-117028961D02*
X128866667Y-117067057D01*
X129209524Y-117524200D02*
X129133333Y-117562295D01*
X129133333Y-117562295D02*
X128942857Y-117562295D01*
X128942857Y-117562295D02*
X128866667Y-117524200D01*
X128866667Y-117524200D02*
X128828571Y-117448009D01*
X128828571Y-117448009D02*
X128828571Y-117371819D01*
X128828571Y-117371819D02*
X128866667Y-117295628D01*
X128866667Y-117295628D02*
X128942857Y-117257533D01*
X128942857Y-117257533D02*
X129133333Y-117257533D01*
X129133333Y-117257533D02*
X129209524Y-117219438D01*
X129476191Y-117028961D02*
X129780953Y-117028961D01*
X129590477Y-116762295D02*
X129590477Y-117448009D01*
X129590477Y-117448009D02*
X129628572Y-117524200D01*
X129628572Y-117524200D02*
X129704762Y-117562295D01*
X129704762Y-117562295D02*
X129780953Y-117562295D01*
X130352382Y-117524200D02*
X130276191Y-117562295D01*
X130276191Y-117562295D02*
X130123810Y-117562295D01*
X130123810Y-117562295D02*
X130047620Y-117524200D01*
X130047620Y-117524200D02*
X130009524Y-117448009D01*
X130009524Y-117448009D02*
X130009524Y-117143247D01*
X130009524Y-117143247D02*
X130047620Y-117067057D01*
X130047620Y-117067057D02*
X130123810Y-117028961D01*
X130123810Y-117028961D02*
X130276191Y-117028961D01*
X130276191Y-117028961D02*
X130352382Y-117067057D01*
X130352382Y-117067057D02*
X130390477Y-117143247D01*
X130390477Y-117143247D02*
X130390477Y-117219438D01*
X130390477Y-117219438D02*
X130009524Y-117295628D01*
X131457143Y-117562295D02*
X131380953Y-117524200D01*
X131380953Y-117524200D02*
X131342858Y-117486104D01*
X131342858Y-117486104D02*
X131304762Y-117409914D01*
X131304762Y-117409914D02*
X131304762Y-117181342D01*
X131304762Y-117181342D02*
X131342858Y-117105152D01*
X131342858Y-117105152D02*
X131380953Y-117067057D01*
X131380953Y-117067057D02*
X131457143Y-117028961D01*
X131457143Y-117028961D02*
X131571429Y-117028961D01*
X131571429Y-117028961D02*
X131647620Y-117067057D01*
X131647620Y-117067057D02*
X131685715Y-117105152D01*
X131685715Y-117105152D02*
X131723810Y-117181342D01*
X131723810Y-117181342D02*
X131723810Y-117409914D01*
X131723810Y-117409914D02*
X131685715Y-117486104D01*
X131685715Y-117486104D02*
X131647620Y-117524200D01*
X131647620Y-117524200D02*
X131571429Y-117562295D01*
X131571429Y-117562295D02*
X131457143Y-117562295D01*
X132409525Y-117028961D02*
X132409525Y-117562295D01*
X132066668Y-117028961D02*
X132066668Y-117448009D01*
X132066668Y-117448009D02*
X132104763Y-117524200D01*
X132104763Y-117524200D02*
X132180953Y-117562295D01*
X132180953Y-117562295D02*
X132295239Y-117562295D01*
X132295239Y-117562295D02*
X132371430Y-117524200D01*
X132371430Y-117524200D02*
X132409525Y-117486104D01*
X132676192Y-117028961D02*
X132980954Y-117028961D01*
X132790478Y-116762295D02*
X132790478Y-117448009D01*
X132790478Y-117448009D02*
X132828573Y-117524200D01*
X132828573Y-117524200D02*
X132904763Y-117562295D01*
X132904763Y-117562295D02*
X132980954Y-117562295D01*
X133247621Y-117028961D02*
X133247621Y-117828961D01*
X133247621Y-117067057D02*
X133323811Y-117028961D01*
X133323811Y-117028961D02*
X133476192Y-117028961D01*
X133476192Y-117028961D02*
X133552383Y-117067057D01*
X133552383Y-117067057D02*
X133590478Y-117105152D01*
X133590478Y-117105152D02*
X133628573Y-117181342D01*
X133628573Y-117181342D02*
X133628573Y-117409914D01*
X133628573Y-117409914D02*
X133590478Y-117486104D01*
X133590478Y-117486104D02*
X133552383Y-117524200D01*
X133552383Y-117524200D02*
X133476192Y-117562295D01*
X133476192Y-117562295D02*
X133323811Y-117562295D01*
X133323811Y-117562295D02*
X133247621Y-117524200D01*
X134314288Y-117028961D02*
X134314288Y-117562295D01*
X133971431Y-117028961D02*
X133971431Y-117448009D01*
X133971431Y-117448009D02*
X134009526Y-117524200D01*
X134009526Y-117524200D02*
X134085716Y-117562295D01*
X134085716Y-117562295D02*
X134200002Y-117562295D01*
X134200002Y-117562295D02*
X134276193Y-117524200D01*
X134276193Y-117524200D02*
X134314288Y-117486104D01*
X134580955Y-117028961D02*
X134885717Y-117028961D01*
X134695241Y-116762295D02*
X134695241Y-117448009D01*
X134695241Y-117448009D02*
X134733336Y-117524200D01*
X134733336Y-117524200D02*
X134809526Y-117562295D01*
X134809526Y-117562295D02*
X134885717Y-117562295D01*
X135114288Y-117524200D02*
X135190479Y-117562295D01*
X135190479Y-117562295D02*
X135342860Y-117562295D01*
X135342860Y-117562295D02*
X135419050Y-117524200D01*
X135419050Y-117524200D02*
X135457146Y-117448009D01*
X135457146Y-117448009D02*
X135457146Y-117409914D01*
X135457146Y-117409914D02*
X135419050Y-117333723D01*
X135419050Y-117333723D02*
X135342860Y-117295628D01*
X135342860Y-117295628D02*
X135228574Y-117295628D01*
X135228574Y-117295628D02*
X135152384Y-117257533D01*
X135152384Y-117257533D02*
X135114288Y-117181342D01*
X135114288Y-117181342D02*
X135114288Y-117143247D01*
X135114288Y-117143247D02*
X135152384Y-117067057D01*
X135152384Y-117067057D02*
X135228574Y-117028961D01*
X135228574Y-117028961D02*
X135342860Y-117028961D01*
X135342860Y-117028961D02*
X135419050Y-117067057D01*
X117876192Y-118478961D02*
X117876192Y-119012295D01*
X117685716Y-118174200D02*
X117495239Y-118745628D01*
X117495239Y-118745628D02*
X117990478Y-118745628D01*
X118180954Y-118974200D02*
X119171430Y-118974200D01*
X118180954Y-118174200D02*
X118180954Y-119012295D01*
X118447621Y-118707533D02*
X118904764Y-118707533D01*
X118447621Y-118402771D02*
X118447621Y-118707533D01*
X118180954Y-118174200D02*
X119171430Y-118174200D01*
X119171430Y-118174200D02*
X119171430Y-119012295D01*
X118447621Y-118402771D02*
X118904764Y-118402771D01*
X118904764Y-118402771D02*
X118904764Y-118707533D01*
X119438096Y-118440866D02*
X119742858Y-118440866D01*
X119438096Y-118174200D02*
X119438096Y-118440866D01*
X119438096Y-118593247D02*
X119438096Y-118936104D01*
X119590477Y-118631342D02*
X119742858Y-118631342D01*
X119590477Y-118402771D02*
X119590477Y-118898009D01*
X119742858Y-118898009D02*
X119361906Y-118936104D01*
X119895239Y-118669438D02*
X119895239Y-119012295D01*
X119895239Y-118974200D02*
X120314287Y-118974200D01*
X119438096Y-118174200D02*
X119742858Y-118174200D01*
X119742858Y-118174200D02*
X119742858Y-118440866D01*
X119895239Y-118669438D02*
X120314287Y-118669438D01*
X120314287Y-118669438D02*
X120314287Y-119012295D01*
X119971430Y-118098009D02*
X119895239Y-118288485D01*
X119895239Y-118288485D02*
X119780954Y-118402771D01*
X119933335Y-118250390D02*
X119971430Y-118402771D01*
X119971430Y-118402771D02*
X120200001Y-118631342D01*
X120200001Y-118631342D02*
X120352382Y-118669438D01*
X119933335Y-118212295D02*
X120238096Y-118212295D01*
X120238096Y-118212295D02*
X120161906Y-118402771D01*
X120161906Y-118402771D02*
X119933335Y-118593247D01*
X119933335Y-118593247D02*
X119742858Y-118669438D01*
X121000001Y-118364676D02*
X121152382Y-118821819D01*
X121038096Y-118288485D02*
X121114287Y-118364676D01*
X121152382Y-118250390D02*
X121228572Y-118326580D01*
X120809525Y-118364676D02*
X120771429Y-118555152D01*
X120771429Y-118555152D02*
X120695239Y-118707533D01*
X120695239Y-118707533D02*
X120619048Y-118821819D01*
X121723810Y-118631342D02*
X121800001Y-118745628D01*
X121800001Y-118745628D02*
X121914286Y-118936104D01*
X121495239Y-118212295D02*
X121838096Y-118212295D01*
X121838096Y-118212295D02*
X121800001Y-118440866D01*
X121800001Y-118440866D02*
X121723810Y-118593247D01*
X121723810Y-118593247D02*
X121647620Y-118707533D01*
X121647620Y-118707533D02*
X121571429Y-118821819D01*
X121571429Y-118821819D02*
X121457143Y-118936104D01*
X122676191Y-118364676D02*
X122828572Y-118821819D01*
X122714286Y-118288485D02*
X122790477Y-118364676D01*
X122828572Y-118250390D02*
X122904762Y-118326580D01*
X122485715Y-118364676D02*
X122447619Y-118555152D01*
X122447619Y-118555152D02*
X122371429Y-118707533D01*
X122371429Y-118707533D02*
X122295238Y-118821819D01*
X123171429Y-118440866D02*
X123247619Y-118631342D01*
X123361905Y-118402771D02*
X123400000Y-118593247D01*
X123590476Y-118440866D02*
X123590476Y-118631342D01*
X123590476Y-118631342D02*
X123552381Y-118745628D01*
X123552381Y-118745628D02*
X123438095Y-118859914D01*
X123438095Y-118859914D02*
X123323810Y-118936104D01*
X124009524Y-118288485D02*
X124428571Y-118288485D01*
X124428571Y-118288485D02*
X124428571Y-118478961D01*
X124428571Y-118478961D02*
X124390476Y-118669438D01*
X124390476Y-118669438D02*
X124314286Y-118783723D01*
X124314286Y-118783723D02*
X124200000Y-118859914D01*
X124200000Y-118859914D02*
X124047619Y-118936104D01*
X124885714Y-118402771D02*
X125266666Y-118402771D01*
X125266666Y-118402771D02*
X125228571Y-118517057D01*
X125228571Y-118517057D02*
X125152381Y-118631342D01*
X125076190Y-118517057D02*
X125076190Y-118669438D01*
X125076190Y-118669438D02*
X125038095Y-118783723D01*
X125038095Y-118783723D02*
X124961904Y-118898009D01*
X126104761Y-118098009D02*
X126066666Y-118212295D01*
X126066666Y-118212295D02*
X126028571Y-118364676D01*
X126028571Y-118364676D02*
X126028571Y-118745628D01*
X126028571Y-118745628D02*
X126066666Y-118898009D01*
X126066666Y-118898009D02*
X126104761Y-118974200D01*
X126447618Y-118212295D02*
X126942856Y-118212295D01*
X126942856Y-118212295D02*
X126676190Y-118517057D01*
X126676190Y-118517057D02*
X126790475Y-118517057D01*
X126790475Y-118517057D02*
X126866666Y-118555152D01*
X126866666Y-118555152D02*
X126904761Y-118593247D01*
X126904761Y-118593247D02*
X126942856Y-118669438D01*
X126942856Y-118669438D02*
X126942856Y-118859914D01*
X126942856Y-118859914D02*
X126904761Y-118936104D01*
X126904761Y-118936104D02*
X126866666Y-118974200D01*
X126866666Y-118974200D02*
X126790475Y-119012295D01*
X126790475Y-119012295D02*
X126561904Y-119012295D01*
X126561904Y-119012295D02*
X126485713Y-118974200D01*
X126485713Y-118974200D02*
X126447618Y-118936104D01*
X127209523Y-118250390D02*
X127361904Y-118402771D01*
X127438095Y-118555152D02*
X127171428Y-118783723D01*
X127438095Y-118098009D02*
X127438095Y-119012295D01*
X127514285Y-118440866D02*
X128161904Y-118440866D01*
X127971428Y-118174200D02*
X128085714Y-118288485D01*
X127819047Y-118440866D02*
X127857142Y-118631342D01*
X127857142Y-118631342D02*
X127933333Y-118821819D01*
X127933333Y-118821819D02*
X128123809Y-119012295D01*
X127819047Y-118098009D02*
X127819047Y-118440866D01*
X127819047Y-118440866D02*
X127742857Y-118631342D01*
X127742857Y-118631342D02*
X127666666Y-118821819D01*
X127666666Y-118821819D02*
X127514285Y-119012295D01*
X128352380Y-118288485D02*
X128809523Y-118288485D01*
X128428570Y-118593247D02*
X128771428Y-118593247D01*
X128428570Y-118478961D02*
X128771428Y-118478961D01*
X128428570Y-118364676D02*
X128428570Y-118745628D01*
X128504761Y-118859914D02*
X128352380Y-119012295D01*
X128542856Y-118098009D02*
X128466666Y-118288485D01*
X128657142Y-119012295D02*
X129076190Y-119012295D01*
X128657142Y-118821819D02*
X128657142Y-119012295D01*
X128695237Y-118174200D02*
X128847618Y-118288485D01*
X128923809Y-118745628D02*
X129304761Y-118745628D01*
X128923809Y-118402771D02*
X129304761Y-118402771D01*
X128961904Y-118478961D02*
X128961904Y-118745628D01*
X128961904Y-118136104D02*
X128961904Y-118364676D01*
X129114285Y-118936104D02*
X129076190Y-119012295D01*
X129152380Y-118821819D02*
X129342856Y-119012295D01*
X129228570Y-118174200D02*
X128923809Y-118250390D01*
X129228570Y-118517057D02*
X128923809Y-118593247D01*
X129304761Y-118288485D02*
X129304761Y-118402771D01*
X129304761Y-118631342D02*
X129304761Y-118745628D01*
X128428570Y-118364676D02*
X128771428Y-118364676D01*
X128771428Y-118364676D02*
X128771428Y-118745628D01*
X128657142Y-118745628D02*
X128771428Y-118783723D01*
X128771428Y-118783723D02*
X128923809Y-118859914D01*
X129533332Y-118936104D02*
X130523808Y-118936104D01*
X129533332Y-118631342D02*
X129533332Y-119012295D01*
X129571427Y-118517057D02*
X130485713Y-118517057D01*
X129571427Y-118212295D02*
X129571427Y-118517057D01*
X130028570Y-118098009D02*
X130028570Y-118936104D01*
X130485713Y-118212295D02*
X130485713Y-118517057D01*
X130523808Y-118631342D02*
X130523808Y-119012295D01*
X131323808Y-119012295D02*
X131590474Y-119012295D01*
X130752379Y-118364676D02*
X131704760Y-118364676D01*
X131704760Y-118364676D02*
X131704760Y-118593247D01*
X131704760Y-118593247D02*
X131628570Y-118974200D01*
X131171427Y-118098009D02*
X131171427Y-118440866D01*
X131171427Y-118440866D02*
X131095236Y-118631342D01*
X131095236Y-118631342D02*
X130980951Y-118821819D01*
X130980951Y-118821819D02*
X130752379Y-119012295D01*
X132009522Y-118098009D02*
X132085712Y-118212295D01*
X132085712Y-118212295D02*
X132123807Y-118364676D01*
X132123807Y-118364676D02*
X132123807Y-118745628D01*
X132123807Y-118745628D02*
X132085712Y-118898009D01*
X132085712Y-118898009D02*
X132009522Y-118974200D01*
X127109524Y-50828961D02*
X127109524Y-51362295D01*
X126919048Y-50524200D02*
X126728571Y-51095628D01*
X126728571Y-51095628D02*
X127223810Y-51095628D01*
X127490476Y-51133723D02*
X127871429Y-51133723D01*
X127414286Y-51362295D02*
X127680953Y-50562295D01*
X127680953Y-50562295D02*
X127947619Y-51362295D01*
X126690476Y-98562295D02*
X127185714Y-98562295D01*
X127185714Y-98562295D02*
X126919048Y-98867057D01*
X126919048Y-98867057D02*
X127033333Y-98867057D01*
X127033333Y-98867057D02*
X127109524Y-98905152D01*
X127109524Y-98905152D02*
X127147619Y-98943247D01*
X127147619Y-98943247D02*
X127185714Y-99019438D01*
X127185714Y-99019438D02*
X127185714Y-99209914D01*
X127185714Y-99209914D02*
X127147619Y-99286104D01*
X127147619Y-99286104D02*
X127109524Y-99324200D01*
X127109524Y-99324200D02*
X127033333Y-99362295D01*
X127033333Y-99362295D02*
X126804762Y-99362295D01*
X126804762Y-99362295D02*
X126728571Y-99324200D01*
X126728571Y-99324200D02*
X126690476Y-99286104D01*
X127680953Y-98981342D02*
X127680953Y-99362295D01*
X127414286Y-98562295D02*
X127680953Y-98981342D01*
X127680953Y-98981342D02*
X127947619Y-98562295D01*
X126690476Y-100562295D02*
X127185714Y-100562295D01*
X127185714Y-100562295D02*
X126919048Y-100867057D01*
X126919048Y-100867057D02*
X127033333Y-100867057D01*
X127033333Y-100867057D02*
X127109524Y-100905152D01*
X127109524Y-100905152D02*
X127147619Y-100943247D01*
X127147619Y-100943247D02*
X127185714Y-101019438D01*
X127185714Y-101019438D02*
X127185714Y-101209914D01*
X127185714Y-101209914D02*
X127147619Y-101286104D01*
X127147619Y-101286104D02*
X127109524Y-101324200D01*
X127109524Y-101324200D02*
X127033333Y-101362295D01*
X127033333Y-101362295D02*
X126804762Y-101362295D01*
X126804762Y-101362295D02*
X126728571Y-101324200D01*
X126728571Y-101324200D02*
X126690476Y-101286104D01*
X127490476Y-101133723D02*
X127871429Y-101133723D01*
X127414286Y-101362295D02*
X127680953Y-100562295D01*
X127680953Y-100562295D02*
X127947619Y-101362295D01*
X126728571Y-148638485D02*
X126766667Y-148600390D01*
X126766667Y-148600390D02*
X126842857Y-148562295D01*
X126842857Y-148562295D02*
X127033333Y-148562295D01*
X127033333Y-148562295D02*
X127109524Y-148600390D01*
X127109524Y-148600390D02*
X127147619Y-148638485D01*
X127147619Y-148638485D02*
X127185714Y-148714676D01*
X127185714Y-148714676D02*
X127185714Y-148790866D01*
X127185714Y-148790866D02*
X127147619Y-148905152D01*
X127147619Y-148905152D02*
X126690476Y-149362295D01*
X126690476Y-149362295D02*
X127185714Y-149362295D01*
X127680953Y-148981342D02*
X127680953Y-149362295D01*
X127414286Y-148562295D02*
X127680953Y-148981342D01*
X127680953Y-148981342D02*
X127947619Y-148562295D01*
X131709524Y-50828961D02*
X131709524Y-51362295D01*
X131519048Y-50524200D02*
X131328571Y-51095628D01*
X131328571Y-51095628D02*
X131823810Y-51095628D01*
X132280953Y-50981342D02*
X132280953Y-51362295D01*
X132014286Y-50562295D02*
X132280953Y-50981342D01*
X132280953Y-50981342D02*
X132547619Y-50562295D01*
X131290476Y-98600390D02*
X131214286Y-98562295D01*
X131214286Y-98562295D02*
X131100000Y-98562295D01*
X131100000Y-98562295D02*
X130985714Y-98600390D01*
X130985714Y-98600390D02*
X130909524Y-98676580D01*
X130909524Y-98676580D02*
X130871429Y-98752771D01*
X130871429Y-98752771D02*
X130833333Y-98905152D01*
X130833333Y-98905152D02*
X130833333Y-99019438D01*
X130833333Y-99019438D02*
X130871429Y-99171819D01*
X130871429Y-99171819D02*
X130909524Y-99248009D01*
X130909524Y-99248009D02*
X130985714Y-99324200D01*
X130985714Y-99324200D02*
X131100000Y-99362295D01*
X131100000Y-99362295D02*
X131176191Y-99362295D01*
X131176191Y-99362295D02*
X131290476Y-99324200D01*
X131290476Y-99324200D02*
X131328572Y-99286104D01*
X131328572Y-99286104D02*
X131328572Y-99019438D01*
X131328572Y-99019438D02*
X131176191Y-99019438D01*
X131671429Y-99362295D02*
X131671429Y-98562295D01*
X131671429Y-98562295D02*
X132128572Y-99362295D01*
X132128572Y-99362295D02*
X132128572Y-98562295D01*
X132509524Y-99362295D02*
X132509524Y-98562295D01*
X132509524Y-98562295D02*
X132700000Y-98562295D01*
X132700000Y-98562295D02*
X132814286Y-98600390D01*
X132814286Y-98600390D02*
X132890476Y-98676580D01*
X132890476Y-98676580D02*
X132928571Y-98752771D01*
X132928571Y-98752771D02*
X132966667Y-98905152D01*
X132966667Y-98905152D02*
X132966667Y-99019438D01*
X132966667Y-99019438D02*
X132928571Y-99171819D01*
X132928571Y-99171819D02*
X132890476Y-99248009D01*
X132890476Y-99248009D02*
X132814286Y-99324200D01*
X132814286Y-99324200D02*
X132700000Y-99362295D01*
X132700000Y-99362295D02*
X132509524Y-99362295D01*
X131290476Y-100562295D02*
X131785714Y-100562295D01*
X131785714Y-100562295D02*
X131519048Y-100867057D01*
X131519048Y-100867057D02*
X131633333Y-100867057D01*
X131633333Y-100867057D02*
X131709524Y-100905152D01*
X131709524Y-100905152D02*
X131747619Y-100943247D01*
X131747619Y-100943247D02*
X131785714Y-101019438D01*
X131785714Y-101019438D02*
X131785714Y-101209914D01*
X131785714Y-101209914D02*
X131747619Y-101286104D01*
X131747619Y-101286104D02*
X131709524Y-101324200D01*
X131709524Y-101324200D02*
X131633333Y-101362295D01*
X131633333Y-101362295D02*
X131404762Y-101362295D01*
X131404762Y-101362295D02*
X131328571Y-101324200D01*
X131328571Y-101324200D02*
X131290476Y-101286104D01*
X132280953Y-100981342D02*
X132280953Y-101362295D01*
X132014286Y-100562295D02*
X132280953Y-100981342D01*
X132280953Y-100981342D02*
X132547619Y-100562295D01*
X131290476Y-148600390D02*
X131214286Y-148562295D01*
X131214286Y-148562295D02*
X131100000Y-148562295D01*
X131100000Y-148562295D02*
X130985714Y-148600390D01*
X130985714Y-148600390D02*
X130909524Y-148676580D01*
X130909524Y-148676580D02*
X130871429Y-148752771D01*
X130871429Y-148752771D02*
X130833333Y-148905152D01*
X130833333Y-148905152D02*
X130833333Y-149019438D01*
X130833333Y-149019438D02*
X130871429Y-149171819D01*
X130871429Y-149171819D02*
X130909524Y-149248009D01*
X130909524Y-149248009D02*
X130985714Y-149324200D01*
X130985714Y-149324200D02*
X131100000Y-149362295D01*
X131100000Y-149362295D02*
X131176191Y-149362295D01*
X131176191Y-149362295D02*
X131290476Y-149324200D01*
X131290476Y-149324200D02*
X131328572Y-149286104D01*
X131328572Y-149286104D02*
X131328572Y-149019438D01*
X131328572Y-149019438D02*
X131176191Y-149019438D01*
X131671429Y-149362295D02*
X131671429Y-148562295D01*
X131671429Y-148562295D02*
X132128572Y-149362295D01*
X132128572Y-149362295D02*
X132128572Y-148562295D01*
X132509524Y-149362295D02*
X132509524Y-148562295D01*
X132509524Y-148562295D02*
X132700000Y-148562295D01*
X132700000Y-148562295D02*
X132814286Y-148600390D01*
X132814286Y-148600390D02*
X132890476Y-148676580D01*
X132890476Y-148676580D02*
X132928571Y-148752771D01*
X132928571Y-148752771D02*
X132966667Y-148905152D01*
X132966667Y-148905152D02*
X132966667Y-149019438D01*
X132966667Y-149019438D02*
X132928571Y-149171819D01*
X132928571Y-149171819D02*
X132890476Y-149248009D01*
X132890476Y-149248009D02*
X132814286Y-149324200D01*
X132814286Y-149324200D02*
X132700000Y-149362295D01*
X132700000Y-149362295D02*
X132509524Y-149362295D01*
X89571427Y-70332390D02*
X90638094Y-70332390D01*
X90638094Y-70332390D02*
X89952379Y-71932390D01*
X91933332Y-70865723D02*
X91933332Y-71932390D01*
X91552380Y-70256200D02*
X91171427Y-71399057D01*
X91171427Y-71399057D02*
X92161904Y-71399057D01*
X92619047Y-71932390D02*
X93457142Y-70865723D01*
X92619047Y-70865723D02*
X93457142Y-71932390D01*
X93990475Y-70484771D02*
X94066666Y-70408580D01*
X94066666Y-70408580D02*
X94219047Y-70332390D01*
X94219047Y-70332390D02*
X94599999Y-70332390D01*
X94599999Y-70332390D02*
X94752380Y-70408580D01*
X94752380Y-70408580D02*
X94828571Y-70484771D01*
X94828571Y-70484771D02*
X94904761Y-70637152D01*
X94904761Y-70637152D02*
X94904761Y-70789533D01*
X94904761Y-70789533D02*
X94828571Y-71018104D01*
X94828571Y-71018104D02*
X93914285Y-71932390D01*
X93914285Y-71932390D02*
X94904761Y-71932390D01*
X96276190Y-70865723D02*
X96276190Y-71932390D01*
X95895238Y-70256200D02*
X95514285Y-71399057D01*
X95514285Y-71399057D02*
X96504762Y-71399057D01*
X97800000Y-70865723D02*
X97800000Y-71932390D01*
X97419048Y-70256200D02*
X97038095Y-71399057D01*
X97038095Y-71399057D02*
X98028572Y-71399057D01*
X90333332Y-120332390D02*
X91399999Y-120332390D01*
X91399999Y-120332390D02*
X90714284Y-121932390D01*
X92695237Y-120865723D02*
X92695237Y-121932390D01*
X92314285Y-120256200D02*
X91933332Y-121399057D01*
X91933332Y-121399057D02*
X92923809Y-121399057D01*
X93380952Y-121932390D02*
X94219047Y-120865723D01*
X93380952Y-120865723D02*
X94219047Y-121932390D01*
X95666666Y-121932390D02*
X94752380Y-121932390D01*
X95209523Y-121932390D02*
X95209523Y-120332390D01*
X95209523Y-120332390D02*
X95057142Y-120560961D01*
X95057142Y-120560961D02*
X94904761Y-120713342D01*
X94904761Y-120713342D02*
X94752380Y-120789533D01*
X97038095Y-120865723D02*
X97038095Y-121932390D01*
X96657143Y-120256200D02*
X96276190Y-121399057D01*
X96276190Y-121399057D02*
X97266667Y-121399057D01*
X140333332Y-70332390D02*
X141399999Y-70332390D01*
X141399999Y-70332390D02*
X140714284Y-71932390D01*
X142695237Y-70865723D02*
X142695237Y-71932390D01*
X142314285Y-70256200D02*
X141933332Y-71399057D01*
X141933332Y-71399057D02*
X142923809Y-71399057D01*
X143380952Y-71932390D02*
X144219047Y-70865723D01*
X143380952Y-70865723D02*
X144219047Y-71932390D01*
X145133333Y-70332390D02*
X145285714Y-70332390D01*
X145285714Y-70332390D02*
X145438095Y-70408580D01*
X145438095Y-70408580D02*
X145514285Y-70484771D01*
X145514285Y-70484771D02*
X145590476Y-70637152D01*
X145590476Y-70637152D02*
X145666666Y-70941914D01*
X145666666Y-70941914D02*
X145666666Y-71322866D01*
X145666666Y-71322866D02*
X145590476Y-71627628D01*
X145590476Y-71627628D02*
X145514285Y-71780009D01*
X145514285Y-71780009D02*
X145438095Y-71856200D01*
X145438095Y-71856200D02*
X145285714Y-71932390D01*
X145285714Y-71932390D02*
X145133333Y-71932390D01*
X145133333Y-71932390D02*
X144980952Y-71856200D01*
X144980952Y-71856200D02*
X144904761Y-71780009D01*
X144904761Y-71780009D02*
X144828571Y-71627628D01*
X144828571Y-71627628D02*
X144752380Y-71322866D01*
X144752380Y-71322866D02*
X144752380Y-70941914D01*
X144752380Y-70941914D02*
X144828571Y-70637152D01*
X144828571Y-70637152D02*
X144904761Y-70484771D01*
X144904761Y-70484771D02*
X144980952Y-70408580D01*
X144980952Y-70408580D02*
X145133333Y-70332390D01*
X147038095Y-70865723D02*
X147038095Y-71932390D01*
X146657143Y-70256200D02*
X146276190Y-71399057D01*
X146276190Y-71399057D02*
X147266667Y-71399057D01*
X139571427Y-120332390D02*
X140638094Y-120332390D01*
X140638094Y-120332390D02*
X139952379Y-121932390D01*
X141933332Y-120865723D02*
X141933332Y-121932390D01*
X141552380Y-120256200D02*
X141171427Y-121399057D01*
X141171427Y-121399057D02*
X142161904Y-121399057D01*
X142619047Y-121932390D02*
X143457142Y-120865723D01*
X142619047Y-120865723D02*
X143457142Y-121932390D01*
X144904761Y-121932390D02*
X143990475Y-121932390D01*
X144447618Y-121932390D02*
X144447618Y-120332390D01*
X144447618Y-120332390D02*
X144295237Y-120560961D01*
X144295237Y-120560961D02*
X144142856Y-120713342D01*
X144142856Y-120713342D02*
X143990475Y-120789533D01*
X145514285Y-120484771D02*
X145590476Y-120408580D01*
X145590476Y-120408580D02*
X145742857Y-120332390D01*
X145742857Y-120332390D02*
X146123809Y-120332390D01*
X146123809Y-120332390D02*
X146276190Y-120408580D01*
X146276190Y-120408580D02*
X146352381Y-120484771D01*
X146352381Y-120484771D02*
X146428571Y-120637152D01*
X146428571Y-120637152D02*
X146428571Y-120789533D01*
X146428571Y-120789533D02*
X146352381Y-121018104D01*
X146352381Y-121018104D02*
X145438095Y-121932390D01*
X145438095Y-121932390D02*
X146428571Y-121932390D01*
X147876191Y-120332390D02*
X147114286Y-120332390D01*
X147114286Y-120332390D02*
X147038095Y-121094295D01*
X147038095Y-121094295D02*
X147114286Y-121018104D01*
X147114286Y-121018104D02*
X147266667Y-120941914D01*
X147266667Y-120941914D02*
X147647619Y-120941914D01*
X147647619Y-120941914D02*
X147800000Y-121018104D01*
X147800000Y-121018104D02*
X147876191Y-121094295D01*
X147876191Y-121094295D02*
X147952381Y-121246676D01*
X147952381Y-121246676D02*
X147952381Y-121627628D01*
X147952381Y-121627628D02*
X147876191Y-121780009D01*
X147876191Y-121780009D02*
X147800000Y-121856200D01*
X147800000Y-121856200D02*
X147647619Y-121932390D01*
X147647619Y-121932390D02*
X147266667Y-121932390D01*
X147266667Y-121932390D02*
X147114286Y-121856200D01*
X147114286Y-121856200D02*
X147038095Y-121780009D01*
%TO.C,C_R4*%
D11*
X65977500Y-135037258D02*
X65977500Y-134562742D01*
X67022500Y-135037258D02*
X67022500Y-134562742D01*
%TO.C,C_D8*%
X84165000Y-137100000D02*
X84165000Y-139385000D01*
X84165000Y-139385000D02*
X85635000Y-139385000D01*
X85635000Y-139385000D02*
X85635000Y-137100000D01*
%TO.C,B_D9*%
X138764999Y-87100000D02*
X138764999Y-89385000D01*
X138764999Y-89385000D02*
X140234999Y-89385000D01*
X140234999Y-89385000D02*
X140234999Y-87100000D01*
%TO.C,A_D9*%
X88764999Y-87100000D02*
X88764999Y-89385000D01*
X88764999Y-89385000D02*
X90234999Y-89385000D01*
X90234999Y-89385000D02*
X90234999Y-87100000D01*
%TO.C,A_D15*%
X78165000Y-60615000D02*
X78165000Y-62900000D01*
X79635000Y-60615000D02*
X78165000Y-60615000D01*
X79635000Y-62900000D02*
X79635000Y-60615000D01*
%TO.C,A_D7*%
X79564999Y-87100000D02*
X79564999Y-89385000D01*
X79564999Y-89385000D02*
X81034999Y-89385000D01*
X81034999Y-89385000D02*
X81034999Y-87100000D01*
%TO.C,D_R18*%
X114577500Y-114962742D02*
X114577500Y-115437258D01*
X115622500Y-114962742D02*
X115622500Y-115437258D01*
%TO.C,A_R7*%
X79777499Y-85037258D02*
X79777499Y-84562742D01*
X80822499Y-85037258D02*
X80822499Y-84562742D01*
%TO.C,B_D6*%
X124965000Y-87100000D02*
X124965000Y-89385000D01*
X124965000Y-89385000D02*
X126435000Y-89385000D01*
X126435000Y-89385000D02*
X126435000Y-87100000D01*
%TO.C,B_R39*%
X108377500Y-64962742D02*
X108377500Y-65437258D01*
X109422500Y-64962742D02*
X109422500Y-65437258D01*
%TO.C,D_R38*%
X112977500Y-114962742D02*
X112977500Y-115437258D01*
X114022500Y-114962742D02*
X114022500Y-115437258D01*
%TO.C,D_R37*%
X117577500Y-114962742D02*
X117577500Y-115437258D01*
X118622500Y-114962742D02*
X118622500Y-115437258D01*
%TO.C,B_R4*%
X115977500Y-85037258D02*
X115977500Y-84562742D01*
X117022500Y-85037258D02*
X117022500Y-84562742D01*
%TO.C,C_R31*%
X95177500Y-114962742D02*
X95177500Y-115437258D01*
X96222500Y-114962742D02*
X96222500Y-115437258D01*
%TO.C,C_D4*%
X65765000Y-137100000D02*
X65765000Y-139385000D01*
X65765000Y-139385000D02*
X67235000Y-139385000D01*
X67235000Y-139385000D02*
X67235000Y-137100000D01*
%TO.C,D_D17*%
X118965000Y-110615000D02*
X118965000Y-112900000D01*
X120435000Y-110615000D02*
X118965000Y-110615000D01*
X120435000Y-112900000D02*
X120435000Y-110615000D01*
%TO.C,C_D12*%
X91964999Y-110615000D02*
X91964999Y-112900000D01*
X93434999Y-110615000D02*
X91964999Y-110615000D01*
X93434999Y-112900000D02*
X93434999Y-110615000D01*
%TO.C,B_R16*%
X123777500Y-64962742D02*
X123777500Y-65437258D01*
X124822500Y-64962742D02*
X124822500Y-65437258D01*
%TO.C,C_R9*%
X88977499Y-135037258D02*
X88977499Y-134562742D01*
X90022499Y-135037258D02*
X90022499Y-134562742D01*
%TO.C,D_R1*%
X102177500Y-135037258D02*
X102177500Y-134562742D01*
X103222500Y-135037258D02*
X103222500Y-134562742D01*
%TO.C,D_D19*%
X109765000Y-110615000D02*
X109765000Y-112900000D01*
X111235000Y-110615000D02*
X109765000Y-110615000D01*
X111235000Y-112900000D02*
X111235000Y-110615000D01*
%TO.C,D_D6*%
X124965000Y-137100000D02*
X124965000Y-139385000D01*
X124965000Y-139385000D02*
X126435000Y-139385000D01*
X126435000Y-139385000D02*
X126435000Y-137100000D01*
%TO.C,D_D9*%
X138764999Y-137100000D02*
X138764999Y-139385000D01*
X138764999Y-139385000D02*
X140234999Y-139385000D01*
X140234999Y-139385000D02*
X140234999Y-137100000D01*
%TO.C,C_R38*%
X62977500Y-114962742D02*
X62977500Y-115437258D01*
X64022500Y-114962742D02*
X64022500Y-115437258D01*
%TO.C,C_R15*%
X78377500Y-114962742D02*
X78377500Y-115437258D01*
X79422500Y-114962742D02*
X79422500Y-115437258D01*
%TO.C,B_D8*%
X134165000Y-87100000D02*
X134165000Y-89385000D01*
X134165000Y-89385000D02*
X135635000Y-89385000D01*
X135635000Y-89385000D02*
X135635000Y-87100000D01*
%TO.C,B_R33*%
X135977500Y-64962742D02*
X135977500Y-65437258D01*
X137022500Y-64962742D02*
X137022500Y-65437258D01*
%TO.C,C_R37*%
X67577500Y-114962742D02*
X67577500Y-115437258D01*
X68622500Y-114962742D02*
X68622500Y-115437258D01*
%TO.C,C_R21*%
X53777500Y-135037258D02*
X53777500Y-134562742D01*
X54822500Y-135037258D02*
X54822500Y-134562742D01*
%TO.C,C_R30*%
X95177500Y-135037258D02*
X95177500Y-134562742D01*
X96222500Y-135037258D02*
X96222500Y-134562742D01*
%TO.C,A_D1*%
X51965000Y-87100000D02*
X51965000Y-89385000D01*
X51965000Y-89385000D02*
X53435000Y-89385000D01*
X53435000Y-89385000D02*
X53435000Y-87100000D01*
%TO.C,C_R16*%
X73777500Y-114962742D02*
X73777500Y-115437258D01*
X74822500Y-114962742D02*
X74822500Y-115437258D01*
%TO.C,B_D12*%
X141964999Y-60615000D02*
X141964999Y-62900000D01*
X143434999Y-60615000D02*
X141964999Y-60615000D01*
X143434999Y-62900000D02*
X143434999Y-60615000D01*
%TO.C,D_R32*%
X140577499Y-114962742D02*
X140577499Y-115437258D01*
X141622499Y-114962742D02*
X141622499Y-115437258D01*
%TO.C,A_R32*%
X90577499Y-64962742D02*
X90577499Y-65437258D01*
X91622499Y-64962742D02*
X91622499Y-65437258D01*
%TO.C,D_R19*%
X109977500Y-114962742D02*
X109977500Y-115437258D01*
X111022500Y-114962742D02*
X111022500Y-115437258D01*
%TO.C,D_D10*%
X143365000Y-137100000D02*
X143365000Y-139385000D01*
X143365000Y-139385000D02*
X144835000Y-139385000D01*
X144835000Y-139385000D02*
X144835000Y-137100000D01*
%TO.C,A_R6*%
X75177500Y-85037258D02*
X75177500Y-84562742D01*
X76222500Y-85037258D02*
X76222500Y-84562742D01*
%TO.C,B_R31*%
X145177500Y-64962742D02*
X145177500Y-65437258D01*
X146222500Y-64962742D02*
X146222500Y-65437258D01*
%TO.C,D_R8*%
X134377500Y-135037258D02*
X134377500Y-134562742D01*
X135422500Y-135037258D02*
X135422500Y-134562742D01*
%TO.C,D_D18*%
X114365000Y-110615000D02*
X114365000Y-112900000D01*
X115835000Y-110615000D02*
X114365000Y-110615000D01*
X115835000Y-112900000D02*
X115835000Y-110615000D01*
%TO.C,D_R23*%
X112977500Y-135037258D02*
X112977500Y-134562742D01*
X114022500Y-135037258D02*
X114022500Y-134562742D01*
%TO.C,A_R1*%
X52177500Y-85037258D02*
X52177500Y-84562742D01*
X53222500Y-85037258D02*
X53222500Y-84562742D01*
%TO.C,B_D1*%
X101965000Y-87100000D02*
X101965000Y-89385000D01*
X101965000Y-89385000D02*
X103435000Y-89385000D01*
X103435000Y-89385000D02*
X103435000Y-87100000D01*
%TO.C,A_R33*%
X85977500Y-64962742D02*
X85977500Y-65437258D01*
X87022500Y-64962742D02*
X87022500Y-65437258D01*
%TO.C,A_U1*%
X62240000Y-72350000D02*
X62240000Y-74000000D01*
X62240000Y-76000000D02*
X62240000Y-77650000D01*
X62240000Y-77650000D02*
X87760000Y-77650000D01*
X87760000Y-72350000D02*
X62240000Y-72350000D01*
X87760000Y-77650000D02*
X87760000Y-72350000D01*
X62180000Y-69860000D02*
X87820000Y-69860000D01*
X87820000Y-80140000D01*
X62180000Y-80140000D01*
X62180000Y-69860000D01*
X62240000Y-74000000D02*
G75*
G02*
X62240000Y-76000000I0J-1000000D01*
G01*
%TO.C,D_D15*%
X128165000Y-110615000D02*
X128165000Y-112900000D01*
X129635000Y-110615000D02*
X128165000Y-110615000D01*
X129635000Y-112900000D02*
X129635000Y-110615000D01*
%TO.C,B_R28*%
X135977500Y-85037258D02*
X135977500Y-84562742D01*
X137022500Y-85037258D02*
X137022500Y-84562742D01*
%TO.C,B_R26*%
X126777500Y-85037258D02*
X126777500Y-84562742D01*
X127822500Y-85037258D02*
X127822500Y-84562742D01*
%TO.C,C_D2*%
X56565000Y-137100000D02*
X56565000Y-139385000D01*
X56565000Y-139385000D02*
X58035000Y-139385000D01*
X58035000Y-139385000D02*
X58035000Y-137100000D01*
%TO.C,B_U1*%
X112240000Y-72350000D02*
X112240000Y-74000000D01*
X112240000Y-76000000D02*
X112240000Y-77650000D01*
X112240000Y-77650000D02*
X137760000Y-77650000D01*
X137760000Y-72350000D02*
X112240000Y-72350000D01*
X137760000Y-77650000D02*
X137760000Y-72350000D01*
X112180000Y-69860000D02*
X137820000Y-69860000D01*
X137820000Y-80140000D01*
X112180000Y-80140000D01*
X112180000Y-69860000D01*
X112240000Y-74000000D02*
G75*
G02*
X112240000Y-76000000I0J-1000000D01*
G01*
%TO.C,C_D6*%
X74965000Y-137100000D02*
X74965000Y-139385000D01*
X74965000Y-139385000D02*
X76435000Y-139385000D01*
X76435000Y-139385000D02*
X76435000Y-137100000D01*
%TO.C,B_R19*%
X109977500Y-64962742D02*
X109977500Y-65437258D01*
X111022500Y-64962742D02*
X111022500Y-65437258D01*
%TO.C,D_D16*%
X123565000Y-110615000D02*
X123565000Y-112900000D01*
X125035000Y-110615000D02*
X123565000Y-110615000D01*
X125035000Y-112900000D02*
X125035000Y-110615000D01*
%TO.C,C_R2*%
X56777500Y-135037258D02*
X56777500Y-134562742D01*
X57822500Y-135037258D02*
X57822500Y-134562742D01*
%TO.C,A_R17*%
X69177500Y-64962742D02*
X69177500Y-65437258D01*
X70222500Y-64962742D02*
X70222500Y-65437258D01*
%TO.C,A_J1*%
X56920000Y-72795000D02*
X58300000Y-72795000D01*
X56920000Y-74175000D02*
X56920000Y-72795000D01*
X56920000Y-75445000D02*
X56920000Y-78095000D01*
X56920000Y-75445000D02*
X59680000Y-75445000D01*
X56920000Y-78095000D02*
X59680000Y-78095000D01*
X59680000Y-75445000D02*
X59680000Y-78095000D01*
%TO.C,B_R22*%
X108377500Y-85037258D02*
X108377500Y-84562742D01*
X109422500Y-85037258D02*
X109422500Y-84562742D01*
%TO.C,A_D18*%
X64365000Y-60615000D02*
X64365000Y-62900000D01*
X65835000Y-60615000D02*
X64365000Y-60615000D01*
X65835000Y-62900000D02*
X65835000Y-60615000D01*
%TO.C,A_D4*%
X65765000Y-87100000D02*
X65765000Y-89385000D01*
X65765000Y-89385000D02*
X67235000Y-89385000D01*
X67235000Y-89385000D02*
X67235000Y-87100000D01*
%TO.C,C_C1*%
X60690000Y-124859420D02*
X60690000Y-125140580D01*
X61710000Y-124859420D02*
X61710000Y-125140580D01*
%TO.C,D_R9*%
X138977499Y-135037258D02*
X138977499Y-134562742D01*
X140022499Y-135037258D02*
X140022499Y-134562742D01*
%TO.C,A_D17*%
X68965000Y-60615000D02*
X68965000Y-62900000D01*
X70435000Y-60615000D02*
X68965000Y-60615000D01*
X70435000Y-62900000D02*
X70435000Y-60615000D01*
%TO.C,A_R39*%
X58377500Y-64962742D02*
X58377500Y-65437258D01*
X59422500Y-64962742D02*
X59422500Y-65437258D01*
%TO.C,D_D13*%
X137365000Y-110615000D02*
X137365000Y-112900000D01*
X138835000Y-110615000D02*
X137365000Y-110615000D01*
X138835000Y-112900000D02*
X138835000Y-110615000D01*
%TO.C,B_D2*%
X106565000Y-87100000D02*
X106565000Y-89385000D01*
X106565000Y-89385000D02*
X108035000Y-89385000D01*
X108035000Y-89385000D02*
X108035000Y-87100000D01*
%TO.C,D_U1*%
X112240000Y-122350000D02*
X112240000Y-124000000D01*
X112240000Y-126000000D02*
X112240000Y-127650000D01*
X112240000Y-127650000D02*
X137760000Y-127650000D01*
X137760000Y-122350000D02*
X112240000Y-122350000D01*
X137760000Y-127650000D02*
X137760000Y-122350000D01*
X112180000Y-119860000D02*
X137820000Y-119860000D01*
X137820000Y-130140000D01*
X112180000Y-130140000D01*
X112180000Y-119860000D01*
X112240000Y-124000000D02*
G75*
G02*
X112240000Y-126000000I0J-1000000D01*
G01*
%TO.C,B_R5*%
X120577499Y-85037258D02*
X120577499Y-84562742D01*
X121622499Y-85037258D02*
X121622499Y-84562742D01*
%TO.C,A_R2*%
X56777500Y-85037258D02*
X56777500Y-84562742D01*
X57822500Y-85037258D02*
X57822500Y-84562742D01*
%TO.C,D_R5*%
X120577499Y-135037258D02*
X120577499Y-134562742D01*
X121622499Y-135037258D02*
X121622499Y-134562742D01*
%TO.C,B_D4*%
X115765000Y-87100000D02*
X115765000Y-89385000D01*
X115765000Y-89385000D02*
X117235000Y-89385000D01*
X117235000Y-89385000D02*
X117235000Y-87100000D01*
%TO.C,A_D16*%
X73565000Y-60615000D02*
X73565000Y-62900000D01*
X75035000Y-60615000D02*
X73565000Y-60615000D01*
X75035000Y-62900000D02*
X75035000Y-60615000D01*
%TO.C,A_R4*%
X65977500Y-85037258D02*
X65977500Y-84562742D01*
X67022500Y-85037258D02*
X67022500Y-84562742D01*
%TO.C,D_R26*%
X126777500Y-135037258D02*
X126777500Y-134562742D01*
X127822500Y-135037258D02*
X127822500Y-134562742D01*
%TO.C,C_D14*%
X82765000Y-110615000D02*
X82765000Y-112900000D01*
X84235000Y-110615000D02*
X82765000Y-110615000D01*
X84235000Y-112900000D02*
X84235000Y-110615000D01*
%TO.C,A_R11*%
X96777500Y-64962742D02*
X96777500Y-65437258D01*
X97822500Y-64962742D02*
X97822500Y-65437258D01*
%TO.C,B_R13*%
X137577500Y-64962742D02*
X137577500Y-65437258D01*
X138622500Y-64962742D02*
X138622500Y-65437258D01*
%TO.C,A_D3*%
X61165000Y-87100000D02*
X61165000Y-89385000D01*
X61165000Y-89385000D02*
X62635000Y-89385000D01*
X62635000Y-89385000D02*
X62635000Y-87100000D01*
%TO.C,B_R12*%
X142177499Y-64962742D02*
X142177499Y-65437258D01*
X143222499Y-64962742D02*
X143222499Y-65437258D01*
%TO.C,A_R22*%
X58377500Y-85037258D02*
X58377500Y-84562742D01*
X59422500Y-85037258D02*
X59422500Y-84562742D01*
%TO.C,C_R1*%
X52177500Y-135037258D02*
X52177500Y-134562742D01*
X53222500Y-135037258D02*
X53222500Y-134562742D01*
%TO.C,C_R19*%
X59977500Y-114962742D02*
X59977500Y-115437258D01*
X61022500Y-114962742D02*
X61022500Y-115437258D01*
%TO.C,A_R27*%
X81377500Y-85037258D02*
X81377500Y-84562742D01*
X82422500Y-85037258D02*
X82422500Y-84562742D01*
%TO.C,B_D18*%
X114365000Y-60615000D02*
X114365000Y-62900000D01*
X115835000Y-60615000D02*
X114365000Y-60615000D01*
X115835000Y-62900000D02*
X115835000Y-60615000D01*
%TO.C,C_R13*%
X87577500Y-114962742D02*
X87577500Y-115437258D01*
X88622500Y-114962742D02*
X88622500Y-115437258D01*
%TO.C,D_R31*%
X145177500Y-114962742D02*
X145177500Y-115437258D01*
X146222500Y-114962742D02*
X146222500Y-115437258D01*
%TO.C,C_D18*%
X64365000Y-110615000D02*
X64365000Y-112900000D01*
X65835000Y-110615000D02*
X64365000Y-110615000D01*
X65835000Y-112900000D02*
X65835000Y-110615000D01*
%TO.C,C_D11*%
X96565000Y-110615000D02*
X96565000Y-112900000D01*
X98035000Y-110615000D02*
X96565000Y-110615000D01*
X98035000Y-112900000D02*
X98035000Y-110615000D01*
%TO.C,C_D1*%
X51965000Y-137100000D02*
X51965000Y-139385000D01*
X51965000Y-139385000D02*
X53435000Y-139385000D01*
X53435000Y-139385000D02*
X53435000Y-137100000D01*
%TO.C,C_R14*%
X82977500Y-114962742D02*
X82977500Y-115437258D01*
X84022500Y-114962742D02*
X84022500Y-115437258D01*
%TO.C,A_R5*%
X70577499Y-85037258D02*
X70577499Y-84562742D01*
X71622499Y-85037258D02*
X71622499Y-84562742D01*
%TO.C,C_D19*%
X59765000Y-110615000D02*
X59765000Y-112900000D01*
X61235000Y-110615000D02*
X59765000Y-110615000D01*
X61235000Y-112900000D02*
X61235000Y-110615000D01*
%TO.C,C_R3*%
X61377500Y-135037258D02*
X61377500Y-134562742D01*
X62422500Y-135037258D02*
X62422500Y-134562742D01*
%TO.C,A_R28*%
X85977500Y-85037258D02*
X85977500Y-84562742D01*
X87022500Y-85037258D02*
X87022500Y-84562742D01*
%TO.C,C_R8*%
X84377500Y-135037258D02*
X84377500Y-134562742D01*
X85422500Y-135037258D02*
X85422500Y-134562742D01*
%TO.C,C_R23*%
X62977500Y-135037258D02*
X62977500Y-134562742D01*
X64022500Y-135037258D02*
X64022500Y-134562742D01*
%TO.C,C_R24*%
X67577500Y-135037258D02*
X67577500Y-134562742D01*
X68622500Y-135037258D02*
X68622500Y-134562742D01*
%TO.C,C_R36*%
X72177500Y-114962742D02*
X72177500Y-115437258D01*
X73222500Y-114962742D02*
X73222500Y-115437258D01*
%TO.C,B_R10*%
X143577500Y-85037258D02*
X143577500Y-84562742D01*
X144622500Y-85037258D02*
X144622500Y-84562742D01*
%TO.C,C_R32*%
X90577499Y-114962742D02*
X90577499Y-115437258D01*
X91622499Y-114962742D02*
X91622499Y-115437258D01*
%TO.C,B_R37*%
X117577500Y-64962742D02*
X117577500Y-65437258D01*
X118622500Y-64962742D02*
X118622500Y-65437258D01*
%TO.C,D_R11*%
X146777500Y-114962742D02*
X146777500Y-115437258D01*
X147822500Y-114962742D02*
X147822500Y-115437258D01*
%TO.C,A_R3*%
X61377500Y-85037258D02*
X61377500Y-84562742D01*
X62422500Y-85037258D02*
X62422500Y-84562742D01*
%TO.C,C_D9*%
X88764999Y-137100000D02*
X88764999Y-139385000D01*
X88764999Y-139385000D02*
X90234999Y-139385000D01*
X90234999Y-139385000D02*
X90234999Y-137100000D01*
%TO.C,B_R29*%
X140577499Y-85037258D02*
X140577499Y-84562742D01*
X141622499Y-85037258D02*
X141622499Y-84562742D01*
%TO.C,A_D6*%
X74965000Y-87100000D02*
X74965000Y-89385000D01*
X74965000Y-89385000D02*
X76435000Y-89385000D01*
X76435000Y-89385000D02*
X76435000Y-87100000D01*
%TO.C,D_R35*%
X126777500Y-114962742D02*
X126777500Y-115437258D01*
X127822500Y-114962742D02*
X127822500Y-115437258D01*
%TO.C,C_D16*%
X73565000Y-110615000D02*
X73565000Y-112900000D01*
X75035000Y-110615000D02*
X73565000Y-110615000D01*
X75035000Y-112900000D02*
X75035000Y-110615000D01*
%TO.C,B_D15*%
X128165000Y-60615000D02*
X128165000Y-62900000D01*
X129635000Y-60615000D02*
X128165000Y-60615000D01*
X129635000Y-62900000D02*
X129635000Y-60615000D01*
%TO.C,A_R29*%
X90577499Y-85037258D02*
X90577499Y-84562742D01*
X91622499Y-85037258D02*
X91622499Y-84562742D01*
%TO.C,B_R8*%
X134377500Y-85037258D02*
X134377500Y-84562742D01*
X135422500Y-85037258D02*
X135422500Y-84562742D01*
%TO.C,C_R28*%
X85977500Y-135037258D02*
X85977500Y-134562742D01*
X87022500Y-135037258D02*
X87022500Y-134562742D01*
%TO.C,D_R16*%
X123777500Y-114962742D02*
X123777500Y-115437258D01*
X124822500Y-114962742D02*
X124822500Y-115437258D01*
%TO.C,C_R34*%
X81377500Y-114962742D02*
X81377500Y-115437258D01*
X82422500Y-114962742D02*
X82422500Y-115437258D01*
%TO.C,D_R21*%
X103777500Y-135037258D02*
X103777500Y-134562742D01*
X104822500Y-135037258D02*
X104822500Y-134562742D01*
%TO.C,A_D11*%
X96565000Y-60615000D02*
X96565000Y-62900000D01*
X98035000Y-60615000D02*
X96565000Y-60615000D01*
X98035000Y-62900000D02*
X98035000Y-60615000D01*
%TO.C,B_R24*%
X117577500Y-85037258D02*
X117577500Y-84562742D01*
X118622500Y-85037258D02*
X118622500Y-84562742D01*
%TO.C,A_R25*%
X72177500Y-85037258D02*
X72177500Y-84562742D01*
X73222500Y-85037258D02*
X73222500Y-84562742D01*
%TO.C,D_D14*%
X132765000Y-110615000D02*
X132765000Y-112900000D01*
X134235000Y-110615000D02*
X132765000Y-110615000D01*
X134235000Y-112900000D02*
X134235000Y-110615000D01*
%TO.C,A_R37*%
X67577500Y-64962742D02*
X67577500Y-65437258D01*
X68622500Y-64962742D02*
X68622500Y-65437258D01*
%TO.C,D_R34*%
X131377500Y-114962742D02*
X131377500Y-115437258D01*
X132422500Y-114962742D02*
X132422500Y-115437258D01*
%TO.C,D_R29*%
X140577499Y-135037258D02*
X140577499Y-134562742D01*
X141622499Y-135037258D02*
X141622499Y-134562742D01*
%TO.C,A_D2*%
X56565000Y-87100000D02*
X56565000Y-89385000D01*
X56565000Y-89385000D02*
X58035000Y-89385000D01*
X58035000Y-89385000D02*
X58035000Y-87100000D01*
%TO.C,D_R12*%
X142177499Y-114962742D02*
X142177499Y-115437258D01*
X143222499Y-114962742D02*
X143222499Y-115437258D01*
%TO.C,B_D5*%
X120364999Y-87100000D02*
X120364999Y-89385000D01*
X120364999Y-89385000D02*
X121834999Y-89385000D01*
X121834999Y-89385000D02*
X121834999Y-87100000D01*
%TO.C,C_R22*%
X58377500Y-135037258D02*
X58377500Y-134562742D01*
X59422500Y-135037258D02*
X59422500Y-134562742D01*
%TO.C,C_D17*%
X68965000Y-110615000D02*
X68965000Y-112900000D01*
X70435000Y-110615000D02*
X68965000Y-110615000D01*
X70435000Y-112900000D02*
X70435000Y-110615000D01*
%TO.C,B_D13*%
X137365000Y-60615000D02*
X137365000Y-62900000D01*
X138835000Y-60615000D02*
X137365000Y-60615000D01*
X138835000Y-62900000D02*
X138835000Y-60615000D01*
%TO.C,B_R14*%
X132977500Y-64962742D02*
X132977500Y-65437258D01*
X134022500Y-64962742D02*
X134022500Y-65437258D01*
%TO.C,A_R36*%
X72177500Y-64962742D02*
X72177500Y-65437258D01*
X73222500Y-64962742D02*
X73222500Y-65437258D01*
%TO.C,D_D5*%
X120364999Y-137100000D02*
X120364999Y-139385000D01*
X120364999Y-139385000D02*
X121834999Y-139385000D01*
X121834999Y-139385000D02*
X121834999Y-137100000D01*
%TO.C,B_R25*%
X122177500Y-85037258D02*
X122177500Y-84562742D01*
X123222500Y-85037258D02*
X123222500Y-84562742D01*
%TO.C,A_R9*%
X88977499Y-85037258D02*
X88977499Y-84562742D01*
X90022499Y-85037258D02*
X90022499Y-84562742D01*
%TO.C,C_R35*%
X76777500Y-114962742D02*
X76777500Y-115437258D01*
X77822500Y-114962742D02*
X77822500Y-115437258D01*
%TO.C,B_R15*%
X128377500Y-64962742D02*
X128377500Y-65437258D01*
X129422500Y-64962742D02*
X129422500Y-65437258D01*
%TO.C,D_R25*%
X122177500Y-135037258D02*
X122177500Y-134562742D01*
X123222500Y-135037258D02*
X123222500Y-134562742D01*
%TO.C,B_R3*%
X111377500Y-85037258D02*
X111377500Y-84562742D01*
X112422500Y-85037258D02*
X112422500Y-84562742D01*
%TO.C,B_D16*%
X123565000Y-60615000D02*
X123565000Y-62900000D01*
X125035000Y-60615000D02*
X123565000Y-60615000D01*
X125035000Y-62900000D02*
X125035000Y-60615000D01*
%TO.C,A_R21*%
X53777500Y-85037258D02*
X53777500Y-84562742D01*
X54822500Y-85037258D02*
X54822500Y-84562742D01*
%TO.C,A_R19*%
X59977500Y-64962742D02*
X59977500Y-65437258D01*
X61022500Y-64962742D02*
X61022500Y-65437258D01*
%TO.C,D_R39*%
X108377500Y-114962742D02*
X108377500Y-115437258D01*
X109422500Y-114962742D02*
X109422500Y-115437258D01*
%TO.C,B_R17*%
X119177500Y-64962742D02*
X119177500Y-65437258D01*
X120222500Y-64962742D02*
X120222500Y-65437258D01*
%TO.C,D_R24*%
X117577500Y-135037258D02*
X117577500Y-134562742D01*
X118622500Y-135037258D02*
X118622500Y-134562742D01*
%TO.C,B_R1*%
X102177500Y-85037258D02*
X102177500Y-84562742D01*
X103222500Y-85037258D02*
X103222500Y-84562742D01*
%TO.C,D_R33*%
X135977500Y-114962742D02*
X135977500Y-115437258D01*
X137022500Y-114962742D02*
X137022500Y-115437258D01*
%TO.C,A_D14*%
X82765000Y-60615000D02*
X82765000Y-62900000D01*
X84235000Y-60615000D02*
X82765000Y-60615000D01*
X84235000Y-62900000D02*
X84235000Y-60615000D01*
%TO.C,B_R38*%
X112977500Y-64962742D02*
X112977500Y-65437258D01*
X114022500Y-64962742D02*
X114022500Y-65437258D01*
%TO.C,A_R24*%
X67577500Y-85037258D02*
X67577500Y-84562742D01*
X68622500Y-85037258D02*
X68622500Y-84562742D01*
%TO.C,D_R28*%
X135977500Y-135037258D02*
X135977500Y-134562742D01*
X137022500Y-135037258D02*
X137022500Y-134562742D01*
%TO.C,B_R9*%
X138977499Y-85037258D02*
X138977499Y-84562742D01*
X140022499Y-85037258D02*
X140022499Y-84562742D01*
%TO.C,B_R23*%
X112977500Y-85037258D02*
X112977500Y-84562742D01*
X114022500Y-85037258D02*
X114022500Y-84562742D01*
%TO.C,D_C1*%
X110690000Y-124859420D02*
X110690000Y-125140580D01*
X111710000Y-124859420D02*
X111710000Y-125140580D01*
%TO.C,C_D13*%
X87365000Y-110615000D02*
X87365000Y-112900000D01*
X88835000Y-110615000D02*
X87365000Y-110615000D01*
X88835000Y-112900000D02*
X88835000Y-110615000D01*
%TO.C,B_C1*%
X110690000Y-74859420D02*
X110690000Y-75140580D01*
X111710000Y-74859420D02*
X111710000Y-75140580D01*
%TO.C,C_D3*%
X61165000Y-137100000D02*
X61165000Y-139385000D01*
X61165000Y-139385000D02*
X62635000Y-139385000D01*
X62635000Y-139385000D02*
X62635000Y-137100000D01*
%TO.C,B_D19*%
X109765000Y-60615000D02*
X109765000Y-62900000D01*
X111235000Y-60615000D02*
X109765000Y-60615000D01*
X111235000Y-62900000D02*
X111235000Y-60615000D01*
%TO.C,D_D8*%
X134165000Y-137100000D02*
X134165000Y-139385000D01*
X134165000Y-139385000D02*
X135635000Y-139385000D01*
X135635000Y-139385000D02*
X135635000Y-137100000D01*
%TO.C,D_R13*%
X137577500Y-114962742D02*
X137577500Y-115437258D01*
X138622500Y-114962742D02*
X138622500Y-115437258D01*
%TO.C,C_R18*%
X64577500Y-114962742D02*
X64577500Y-115437258D01*
X65622500Y-114962742D02*
X65622500Y-115437258D01*
%TO.C,D_R2*%
X106777500Y-135037258D02*
X106777500Y-134562742D01*
X107822500Y-135037258D02*
X107822500Y-134562742D01*
%TO.C,D_D12*%
X141964999Y-110615000D02*
X141964999Y-112900000D01*
X143434999Y-110615000D02*
X141964999Y-110615000D01*
X143434999Y-112900000D02*
X143434999Y-110615000D01*
%TO.C,A_D8*%
X84165000Y-87100000D02*
X84165000Y-89385000D01*
X84165000Y-89385000D02*
X85635000Y-89385000D01*
X85635000Y-89385000D02*
X85635000Y-87100000D01*
%TO.C,D_D4*%
X115765000Y-137100000D02*
X115765000Y-139385000D01*
X115765000Y-139385000D02*
X117235000Y-139385000D01*
X117235000Y-139385000D02*
X117235000Y-137100000D01*
%TO.C,A_R8*%
X84377500Y-85037258D02*
X84377500Y-84562742D01*
X85422500Y-85037258D02*
X85422500Y-84562742D01*
%TO.C,A_D13*%
X87365000Y-60615000D02*
X87365000Y-62900000D01*
X88835000Y-60615000D02*
X87365000Y-60615000D01*
X88835000Y-62900000D02*
X88835000Y-60615000D01*
%TO.C,C_D5*%
X70364999Y-137100000D02*
X70364999Y-139385000D01*
X70364999Y-139385000D02*
X71834999Y-139385000D01*
X71834999Y-139385000D02*
X71834999Y-137100000D01*
%TO.C,B_R35*%
X126777500Y-64962742D02*
X126777500Y-65437258D01*
X127822500Y-64962742D02*
X127822500Y-65437258D01*
%TO.C,B_R21*%
X103777500Y-85037258D02*
X103777500Y-84562742D01*
X104822500Y-85037258D02*
X104822500Y-84562742D01*
%TO.C,D_R15*%
X128377500Y-114962742D02*
X128377500Y-115437258D01*
X129422500Y-114962742D02*
X129422500Y-115437258D01*
%TO.C,C_R26*%
X76777500Y-135037258D02*
X76777500Y-134562742D01*
X77822500Y-135037258D02*
X77822500Y-134562742D01*
%TO.C,C_R17*%
X69177500Y-114962742D02*
X69177500Y-115437258D01*
X70222500Y-114962742D02*
X70222500Y-115437258D01*
%TO.C,B_R18*%
X114577500Y-64962742D02*
X114577500Y-65437258D01*
X115622500Y-64962742D02*
X115622500Y-65437258D01*
%TO.C,A_R35*%
X76777500Y-64962742D02*
X76777500Y-65437258D01*
X77822500Y-64962742D02*
X77822500Y-65437258D01*
%TO.C,D_D2*%
X106565000Y-137100000D02*
X106565000Y-139385000D01*
X106565000Y-139385000D02*
X108035000Y-139385000D01*
X108035000Y-139385000D02*
X108035000Y-137100000D01*
%TO.C,D_R30*%
X145177500Y-135037258D02*
X145177500Y-134562742D01*
X146222500Y-135037258D02*
X146222500Y-134562742D01*
%TO.C,A_R38*%
X62977500Y-64962742D02*
X62977500Y-65437258D01*
X64022500Y-64962742D02*
X64022500Y-65437258D01*
%TO.C,A_R18*%
X64577500Y-64962742D02*
X64577500Y-65437258D01*
X65622500Y-64962742D02*
X65622500Y-65437258D01*
%TO.C,C_D10*%
X93365000Y-137100000D02*
X93365000Y-139385000D01*
X93365000Y-139385000D02*
X94835000Y-139385000D01*
X94835000Y-139385000D02*
X94835000Y-137100000D01*
%TO.C,C_R5*%
X70577499Y-135037258D02*
X70577499Y-134562742D01*
X71622499Y-135037258D02*
X71622499Y-134562742D01*
%TO.C,A_R31*%
X95177500Y-64962742D02*
X95177500Y-65437258D01*
X96222500Y-64962742D02*
X96222500Y-65437258D01*
%TO.C,A_D19*%
X59765000Y-60615000D02*
X59765000Y-62900000D01*
X61235000Y-60615000D02*
X59765000Y-60615000D01*
X61235000Y-62900000D02*
X61235000Y-60615000D01*
%TO.C,B_R32*%
X140577499Y-64962742D02*
X140577499Y-65437258D01*
X141622499Y-64962742D02*
X141622499Y-65437258D01*
%TO.C,C_R25*%
X72177500Y-135037258D02*
X72177500Y-134562742D01*
X73222500Y-135037258D02*
X73222500Y-134562742D01*
%TO.C,B_D3*%
X111165000Y-87100000D02*
X111165000Y-89385000D01*
X111165000Y-89385000D02*
X112635000Y-89385000D01*
X112635000Y-89385000D02*
X112635000Y-87100000D01*
%TO.C,B_R2*%
X106777500Y-85037258D02*
X106777500Y-84562742D01*
X107822500Y-85037258D02*
X107822500Y-84562742D01*
%TO.C,B_D11*%
X146565000Y-60615000D02*
X146565000Y-62900000D01*
X148035000Y-60615000D02*
X146565000Y-60615000D01*
X148035000Y-62900000D02*
X148035000Y-60615000D01*
%TO.C,B_J1*%
X106920000Y-72795000D02*
X108300000Y-72795000D01*
X106920000Y-74175000D02*
X106920000Y-72795000D01*
X106920000Y-75445000D02*
X106920000Y-78095000D01*
X106920000Y-75445000D02*
X109680000Y-75445000D01*
X106920000Y-78095000D02*
X109680000Y-78095000D01*
X109680000Y-75445000D02*
X109680000Y-78095000D01*
%TO.C,B_R34*%
X131377500Y-64962742D02*
X131377500Y-65437258D01*
X132422500Y-64962742D02*
X132422500Y-65437258D01*
%TO.C,D_R36*%
X122177500Y-114962742D02*
X122177500Y-115437258D01*
X123222500Y-114962742D02*
X123222500Y-115437258D01*
%TO.C,D_D11*%
X146565000Y-110615000D02*
X146565000Y-112900000D01*
X148035000Y-110615000D02*
X146565000Y-110615000D01*
X148035000Y-112900000D02*
X148035000Y-110615000D01*
%TO.C,C_R33*%
X85977500Y-114962742D02*
X85977500Y-115437258D01*
X87022500Y-114962742D02*
X87022500Y-115437258D01*
%TO.C,A_R34*%
X81377500Y-64962742D02*
X81377500Y-65437258D01*
X82422500Y-64962742D02*
X82422500Y-65437258D01*
%TO.C,B_R36*%
X122177500Y-64962742D02*
X122177500Y-65437258D01*
X123222500Y-64962742D02*
X123222500Y-65437258D01*
%TO.C,A_R15*%
X78377500Y-64962742D02*
X78377500Y-65437258D01*
X79422500Y-64962742D02*
X79422500Y-65437258D01*
%TO.C,D_R17*%
X119177500Y-114962742D02*
X119177500Y-115437258D01*
X120222500Y-114962742D02*
X120222500Y-115437258D01*
%TO.C,B_D17*%
X118965000Y-60615000D02*
X118965000Y-62900000D01*
X120435000Y-60615000D02*
X118965000Y-60615000D01*
X120435000Y-62900000D02*
X120435000Y-60615000D01*
%TO.C,D_R14*%
X132977500Y-114962742D02*
X132977500Y-115437258D01*
X134022500Y-114962742D02*
X134022500Y-115437258D01*
%TO.C,A_R16*%
X73777500Y-64962742D02*
X73777500Y-65437258D01*
X74822500Y-64962742D02*
X74822500Y-65437258D01*
%TO.C,D_R22*%
X108377500Y-135037258D02*
X108377500Y-134562742D01*
X109422500Y-135037258D02*
X109422500Y-134562742D01*
%TO.C,C_U1*%
X62240000Y-122350000D02*
X62240000Y-124000000D01*
X62240000Y-126000000D02*
X62240000Y-127650000D01*
X62240000Y-127650000D02*
X87760000Y-127650000D01*
X87760000Y-122350000D02*
X62240000Y-122350000D01*
X87760000Y-127650000D02*
X87760000Y-122350000D01*
X62180000Y-119860000D02*
X87820000Y-119860000D01*
X87820000Y-130140000D01*
X62180000Y-130140000D01*
X62180000Y-119860000D01*
X62240000Y-124000000D02*
G75*
G02*
X62240000Y-126000000I0J-1000000D01*
G01*
%TO.C,D_R10*%
X143577500Y-135037258D02*
X143577500Y-134562742D01*
X144622500Y-135037258D02*
X144622500Y-134562742D01*
%TO.C,A_D12*%
X91964999Y-60615000D02*
X91964999Y-62900000D01*
X93434999Y-60615000D02*
X91964999Y-60615000D01*
X93434999Y-62900000D02*
X93434999Y-60615000D01*
%TO.C,A_R26*%
X76777500Y-85037258D02*
X76777500Y-84562742D01*
X77822500Y-85037258D02*
X77822500Y-84562742D01*
%TO.C,D_R3*%
X111377500Y-135037258D02*
X111377500Y-134562742D01*
X112422500Y-135037258D02*
X112422500Y-134562742D01*
%TO.C,A_C1*%
X60690000Y-74859420D02*
X60690000Y-75140580D01*
X61710000Y-74859420D02*
X61710000Y-75140580D01*
%TO.C,B_R30*%
X145177500Y-85037258D02*
X145177500Y-84562742D01*
X146222500Y-85037258D02*
X146222500Y-84562742D01*
%TO.C,B_D10*%
X143365000Y-87100000D02*
X143365000Y-89385000D01*
X143365000Y-89385000D02*
X144835000Y-89385000D01*
X144835000Y-89385000D02*
X144835000Y-87100000D01*
%TO.C,C_R6*%
X75177500Y-135037258D02*
X75177500Y-134562742D01*
X76222500Y-135037258D02*
X76222500Y-134562742D01*
%TO.C,A_R12*%
X92177499Y-64962742D02*
X92177499Y-65437258D01*
X93222499Y-64962742D02*
X93222499Y-65437258D01*
%TO.C,D_D3*%
X111165000Y-137100000D02*
X111165000Y-139385000D01*
X111165000Y-139385000D02*
X112635000Y-139385000D01*
X112635000Y-139385000D02*
X112635000Y-137100000D01*
%TO.C,C_R39*%
X58377500Y-114962742D02*
X58377500Y-115437258D01*
X59422500Y-114962742D02*
X59422500Y-115437258D01*
%TO.C,D_R6*%
X125177500Y-135037258D02*
X125177500Y-134562742D01*
X126222500Y-135037258D02*
X126222500Y-134562742D01*
%TO.C,A_R23*%
X62977500Y-85037258D02*
X62977500Y-84562742D01*
X64022500Y-85037258D02*
X64022500Y-84562742D01*
%TO.C,C_D15*%
X78165000Y-110615000D02*
X78165000Y-112900000D01*
X79635000Y-110615000D02*
X78165000Y-110615000D01*
X79635000Y-112900000D02*
X79635000Y-110615000D01*
%TO.C,B_R6*%
X125177500Y-85037258D02*
X125177500Y-84562742D01*
X126222500Y-85037258D02*
X126222500Y-84562742D01*
%TO.C,C_R11*%
X96777500Y-114962742D02*
X96777500Y-115437258D01*
X97822500Y-114962742D02*
X97822500Y-115437258D01*
%TO.C,C_R12*%
X92177499Y-114962742D02*
X92177499Y-115437258D01*
X93222499Y-114962742D02*
X93222499Y-115437258D01*
%TO.C,A_R14*%
X82977500Y-64962742D02*
X82977500Y-65437258D01*
X84022500Y-64962742D02*
X84022500Y-65437258D01*
%TO.C,B_R11*%
X146777500Y-64962742D02*
X146777500Y-65437258D01*
X147822500Y-64962742D02*
X147822500Y-65437258D01*
%TO.C,C_R10*%
X93577500Y-135037258D02*
X93577500Y-134562742D01*
X94622500Y-135037258D02*
X94622500Y-134562742D01*
%TO.C,B_D14*%
X132765000Y-60615000D02*
X132765000Y-62900000D01*
X134235000Y-60615000D02*
X132765000Y-60615000D01*
X134235000Y-62900000D02*
X134235000Y-60615000D01*
%TO.C,A_R13*%
X87577500Y-64962742D02*
X87577500Y-65437258D01*
X88622500Y-64962742D02*
X88622500Y-65437258D01*
%TO.C,C_R29*%
X90577499Y-135037258D02*
X90577499Y-134562742D01*
X91622499Y-135037258D02*
X91622499Y-134562742D01*
%TO.C,D_R4*%
X115977500Y-135037258D02*
X115977500Y-134562742D01*
X117022500Y-135037258D02*
X117022500Y-134562742D01*
%TO.C,D_J1*%
X106920000Y-122795000D02*
X108300000Y-122795000D01*
X106920000Y-124175000D02*
X106920000Y-122795000D01*
X106920000Y-125445000D02*
X106920000Y-128095000D01*
X106920000Y-125445000D02*
X109680000Y-125445000D01*
X106920000Y-128095000D02*
X109680000Y-128095000D01*
X109680000Y-125445000D02*
X109680000Y-128095000D01*
%TO.C,D_D1*%
X101965000Y-137100000D02*
X101965000Y-139385000D01*
X101965000Y-139385000D02*
X103435000Y-139385000D01*
X103435000Y-139385000D02*
X103435000Y-137100000D01*
%TO.C,A_D5*%
X70364999Y-87100000D02*
X70364999Y-89385000D01*
X70364999Y-89385000D02*
X71834999Y-89385000D01*
X71834999Y-89385000D02*
X71834999Y-87100000D01*
%TO.C,C_J1*%
X56920000Y-122795000D02*
X58300000Y-122795000D01*
X56920000Y-124175000D02*
X56920000Y-122795000D01*
X56920000Y-125445000D02*
X56920000Y-128095000D01*
X56920000Y-125445000D02*
X59680000Y-125445000D01*
X56920000Y-128095000D02*
X59680000Y-128095000D01*
X59680000Y-125445000D02*
X59680000Y-128095000D01*
%TD*%
M02*
