%TF.GenerationSoftware,KiCad,Pcbnew,10.0.3*%
%TF.CreationDate,2026-09-25T12:59:15+09:00*%
%TF.ProjectId,buffers_drivers_panel,62756666-6572-4735-9f64-726976657273,rev?*%
%TF.SameCoordinates,Original*%
%TF.FileFunction,Legend,Bot*%
%TF.FilePolarity,Positive*%
%FSLAX46Y46*%
G04 Gerber Fmt 4.6, Leading zero omitted, Abs format (unit mm)*
G04 Created by KiCad (PCBNEW 10.0.3) date 2026-09-25 12:59:15*
%MOMM*%
%LPD*%
G01*
G04 APERTURE LIST*
%ADD10C,0.150000*%
G04 APERTURE END LIST*
D10*
X86614285Y-72408557D02*
X86014285Y-72408557D01*
X86014285Y-72408557D02*
X86399999Y-73308557D01*
X85285714Y-72708557D02*
X85285714Y-73308557D01*
X85499999Y-72365700D02*
X85714285Y-73008557D01*
X85714285Y-73008557D02*
X85157142Y-73008557D01*
X84642856Y-72408557D02*
X84557142Y-72408557D01*
X84557142Y-72408557D02*
X84471428Y-72451414D01*
X84471428Y-72451414D02*
X84428571Y-72494271D01*
X84428571Y-72494271D02*
X84385713Y-72579985D01*
X84385713Y-72579985D02*
X84342856Y-72751414D01*
X84342856Y-72751414D02*
X84342856Y-72965700D01*
X84342856Y-72965700D02*
X84385713Y-73137128D01*
X84385713Y-73137128D02*
X84428571Y-73222842D01*
X84428571Y-73222842D02*
X84471428Y-73265700D01*
X84471428Y-73265700D02*
X84557142Y-73308557D01*
X84557142Y-73308557D02*
X84642856Y-73308557D01*
X84642856Y-73308557D02*
X84728571Y-73265700D01*
X84728571Y-73265700D02*
X84771428Y-73222842D01*
X84771428Y-73222842D02*
X84814285Y-73137128D01*
X84814285Y-73137128D02*
X84857142Y-72965700D01*
X84857142Y-72965700D02*
X84857142Y-72751414D01*
X84857142Y-72751414D02*
X84814285Y-72579985D01*
X84814285Y-72579985D02*
X84771428Y-72494271D01*
X84771428Y-72494271D02*
X84728571Y-72451414D01*
X84728571Y-72451414D02*
X84642856Y-72408557D01*
X83785713Y-72408557D02*
X83699999Y-72408557D01*
X83699999Y-72408557D02*
X83614285Y-72451414D01*
X83614285Y-72451414D02*
X83571428Y-72494271D01*
X83571428Y-72494271D02*
X83528570Y-72579985D01*
X83528570Y-72579985D02*
X83485713Y-72751414D01*
X83485713Y-72751414D02*
X83485713Y-72965700D01*
X83485713Y-72965700D02*
X83528570Y-73137128D01*
X83528570Y-73137128D02*
X83571428Y-73222842D01*
X83571428Y-73222842D02*
X83614285Y-73265700D01*
X83614285Y-73265700D02*
X83699999Y-73308557D01*
X83699999Y-73308557D02*
X83785713Y-73308557D01*
X83785713Y-73308557D02*
X83871428Y-73265700D01*
X83871428Y-73265700D02*
X83914285Y-73222842D01*
X83914285Y-73222842D02*
X83957142Y-73137128D01*
X83957142Y-73137128D02*
X83999999Y-72965700D01*
X83999999Y-72965700D02*
X83999999Y-72751414D01*
X83999999Y-72751414D02*
X83957142Y-72579985D01*
X83957142Y-72579985D02*
X83914285Y-72494271D01*
X83914285Y-72494271D02*
X83871428Y-72451414D01*
X83871428Y-72451414D02*
X83785713Y-72408557D01*
X82457142Y-73265700D02*
X82328571Y-73308557D01*
X82328571Y-73308557D02*
X82114285Y-73308557D01*
X82114285Y-73308557D02*
X82028571Y-73265700D01*
X82028571Y-73265700D02*
X81985713Y-73222842D01*
X81985713Y-73222842D02*
X81942856Y-73137128D01*
X81942856Y-73137128D02*
X81942856Y-73051414D01*
X81942856Y-73051414D02*
X81985713Y-72965700D01*
X81985713Y-72965700D02*
X82028571Y-72922842D01*
X82028571Y-72922842D02*
X82114285Y-72879985D01*
X82114285Y-72879985D02*
X82285713Y-72837128D01*
X82285713Y-72837128D02*
X82371428Y-72794271D01*
X82371428Y-72794271D02*
X82414285Y-72751414D01*
X82414285Y-72751414D02*
X82457142Y-72665700D01*
X82457142Y-72665700D02*
X82457142Y-72579985D01*
X82457142Y-72579985D02*
X82414285Y-72494271D01*
X82414285Y-72494271D02*
X82371428Y-72451414D01*
X82371428Y-72451414D02*
X82285713Y-72408557D01*
X82285713Y-72408557D02*
X82071428Y-72408557D01*
X82071428Y-72408557D02*
X81942856Y-72451414D01*
X81557142Y-72708557D02*
X81557142Y-73608557D01*
X81557142Y-72751414D02*
X81471428Y-72708557D01*
X81471428Y-72708557D02*
X81299999Y-72708557D01*
X81299999Y-72708557D02*
X81214285Y-72751414D01*
X81214285Y-72751414D02*
X81171428Y-72794271D01*
X81171428Y-72794271D02*
X81128570Y-72879985D01*
X81128570Y-72879985D02*
X81128570Y-73137128D01*
X81128570Y-73137128D02*
X81171428Y-73222842D01*
X81171428Y-73222842D02*
X81214285Y-73265700D01*
X81214285Y-73265700D02*
X81299999Y-73308557D01*
X81299999Y-73308557D02*
X81471428Y-73308557D01*
X81471428Y-73308557D02*
X81557142Y-73265700D01*
X80399999Y-73265700D02*
X80485713Y-73308557D01*
X80485713Y-73308557D02*
X80657142Y-73308557D01*
X80657142Y-73308557D02*
X80742856Y-73265700D01*
X80742856Y-73265700D02*
X80785713Y-73179985D01*
X80785713Y-73179985D02*
X80785713Y-72837128D01*
X80785713Y-72837128D02*
X80742856Y-72751414D01*
X80742856Y-72751414D02*
X80657142Y-72708557D01*
X80657142Y-72708557D02*
X80485713Y-72708557D01*
X80485713Y-72708557D02*
X80399999Y-72751414D01*
X80399999Y-72751414D02*
X80357142Y-72837128D01*
X80357142Y-72837128D02*
X80357142Y-72922842D01*
X80357142Y-72922842D02*
X80785713Y-73008557D01*
X79585713Y-73265700D02*
X79671427Y-73308557D01*
X79671427Y-73308557D02*
X79842855Y-73308557D01*
X79842855Y-73308557D02*
X79928570Y-73265700D01*
X79928570Y-73265700D02*
X79971427Y-73222842D01*
X79971427Y-73222842D02*
X80014284Y-73137128D01*
X80014284Y-73137128D02*
X80014284Y-72879985D01*
X80014284Y-72879985D02*
X79971427Y-72794271D01*
X79971427Y-72794271D02*
X79928570Y-72751414D01*
X79928570Y-72751414D02*
X79842855Y-72708557D01*
X79842855Y-72708557D02*
X79671427Y-72708557D01*
X79671427Y-72708557D02*
X79585713Y-72751414D01*
X79199998Y-73308557D02*
X79199998Y-72708557D01*
X79199998Y-72408557D02*
X79242855Y-72451414D01*
X79242855Y-72451414D02*
X79199998Y-72494271D01*
X79199998Y-72494271D02*
X79157141Y-72451414D01*
X79157141Y-72451414D02*
X79199998Y-72408557D01*
X79199998Y-72408557D02*
X79199998Y-72494271D01*
X78771427Y-73308557D02*
X78771427Y-72708557D01*
X78771427Y-72794271D02*
X78728570Y-72751414D01*
X78728570Y-72751414D02*
X78642855Y-72708557D01*
X78642855Y-72708557D02*
X78514284Y-72708557D01*
X78514284Y-72708557D02*
X78428570Y-72751414D01*
X78428570Y-72751414D02*
X78385713Y-72837128D01*
X78385713Y-72837128D02*
X78385713Y-73308557D01*
X78385713Y-72837128D02*
X78342855Y-72751414D01*
X78342855Y-72751414D02*
X78257141Y-72708557D01*
X78257141Y-72708557D02*
X78128570Y-72708557D01*
X78128570Y-72708557D02*
X78042855Y-72751414D01*
X78042855Y-72751414D02*
X77999998Y-72837128D01*
X77999998Y-72837128D02*
X77999998Y-73308557D01*
X77228570Y-73265700D02*
X77314284Y-73308557D01*
X77314284Y-73308557D02*
X77485713Y-73308557D01*
X77485713Y-73308557D02*
X77571427Y-73265700D01*
X77571427Y-73265700D02*
X77614284Y-73179985D01*
X77614284Y-73179985D02*
X77614284Y-72837128D01*
X77614284Y-72837128D02*
X77571427Y-72751414D01*
X77571427Y-72751414D02*
X77485713Y-72708557D01*
X77485713Y-72708557D02*
X77314284Y-72708557D01*
X77314284Y-72708557D02*
X77228570Y-72751414D01*
X77228570Y-72751414D02*
X77185713Y-72837128D01*
X77185713Y-72837128D02*
X77185713Y-72922842D01*
X77185713Y-72922842D02*
X77614284Y-73008557D01*
X76799998Y-72708557D02*
X76799998Y-73308557D01*
X76799998Y-72794271D02*
X76757141Y-72751414D01*
X76757141Y-72751414D02*
X76671426Y-72708557D01*
X76671426Y-72708557D02*
X76542855Y-72708557D01*
X76542855Y-72708557D02*
X76457141Y-72751414D01*
X76457141Y-72751414D02*
X76414284Y-72837128D01*
X76414284Y-72837128D02*
X76414284Y-73308557D01*
X75428569Y-72408557D02*
X74914284Y-72408557D01*
X75171426Y-73308557D02*
X75171426Y-72408557D01*
X74614284Y-73308557D02*
X74614284Y-72708557D01*
X74614284Y-72408557D02*
X74657141Y-72451414D01*
X74657141Y-72451414D02*
X74614284Y-72494271D01*
X74614284Y-72494271D02*
X74571427Y-72451414D01*
X74571427Y-72451414D02*
X74614284Y-72408557D01*
X74614284Y-72408557D02*
X74614284Y-72494271D01*
X74057141Y-73308557D02*
X74142856Y-73265700D01*
X74142856Y-73265700D02*
X74185713Y-73179985D01*
X74185713Y-73179985D02*
X74185713Y-72408557D01*
X73371427Y-73265700D02*
X73457141Y-73308557D01*
X73457141Y-73308557D02*
X73628570Y-73308557D01*
X73628570Y-73308557D02*
X73714284Y-73265700D01*
X73714284Y-73265700D02*
X73757141Y-73179985D01*
X73757141Y-73179985D02*
X73757141Y-72837128D01*
X73757141Y-72837128D02*
X73714284Y-72751414D01*
X73714284Y-72751414D02*
X73628570Y-72708557D01*
X73628570Y-72708557D02*
X73457141Y-72708557D01*
X73457141Y-72708557D02*
X73371427Y-72751414D01*
X73371427Y-72751414D02*
X73328570Y-72837128D01*
X73328570Y-72837128D02*
X73328570Y-72922842D01*
X73328570Y-72922842D02*
X73757141Y-73008557D01*
X72342855Y-72708557D02*
X72128569Y-73308557D01*
X72128569Y-73308557D02*
X71914284Y-72708557D01*
X71399998Y-72408557D02*
X71314284Y-72408557D01*
X71314284Y-72408557D02*
X71228570Y-72451414D01*
X71228570Y-72451414D02*
X71185713Y-72494271D01*
X71185713Y-72494271D02*
X71142855Y-72579985D01*
X71142855Y-72579985D02*
X71099998Y-72751414D01*
X71099998Y-72751414D02*
X71099998Y-72965700D01*
X71099998Y-72965700D02*
X71142855Y-73137128D01*
X71142855Y-73137128D02*
X71185713Y-73222842D01*
X71185713Y-73222842D02*
X71228570Y-73265700D01*
X71228570Y-73265700D02*
X71314284Y-73308557D01*
X71314284Y-73308557D02*
X71399998Y-73308557D01*
X71399998Y-73308557D02*
X71485713Y-73265700D01*
X71485713Y-73265700D02*
X71528570Y-73222842D01*
X71528570Y-73222842D02*
X71571427Y-73137128D01*
X71571427Y-73137128D02*
X71614284Y-72965700D01*
X71614284Y-72965700D02*
X71614284Y-72751414D01*
X71614284Y-72751414D02*
X71571427Y-72579985D01*
X71571427Y-72579985D02*
X71528570Y-72494271D01*
X71528570Y-72494271D02*
X71485713Y-72451414D01*
X71485713Y-72451414D02*
X71399998Y-72408557D01*
X70714284Y-73222842D02*
X70671427Y-73265700D01*
X70671427Y-73265700D02*
X70714284Y-73308557D01*
X70714284Y-73308557D02*
X70757141Y-73265700D01*
X70757141Y-73265700D02*
X70714284Y-73222842D01*
X70714284Y-73222842D02*
X70714284Y-73308557D01*
X69814284Y-73308557D02*
X70328570Y-73308557D01*
X70071427Y-73308557D02*
X70071427Y-72408557D01*
X70071427Y-72408557D02*
X70157141Y-72537128D01*
X70157141Y-72537128D02*
X70242856Y-72622842D01*
X70242856Y-72622842D02*
X70328570Y-72665700D01*
X68142856Y-72408557D02*
X67542856Y-72408557D01*
X67542856Y-72408557D02*
X67928570Y-73308557D01*
X66814285Y-72708557D02*
X66814285Y-73308557D01*
X67028570Y-72365700D02*
X67242856Y-73008557D01*
X67242856Y-73008557D02*
X66685713Y-73008557D01*
X66428570Y-73308557D02*
X65957142Y-72708557D01*
X66428570Y-72708557D02*
X65957142Y-73308557D01*
X65657142Y-72494271D02*
X65614285Y-72451414D01*
X65614285Y-72451414D02*
X65528571Y-72408557D01*
X65528571Y-72408557D02*
X65314285Y-72408557D01*
X65314285Y-72408557D02*
X65228571Y-72451414D01*
X65228571Y-72451414D02*
X65185713Y-72494271D01*
X65185713Y-72494271D02*
X65142856Y-72579985D01*
X65142856Y-72579985D02*
X65142856Y-72665700D01*
X65142856Y-72665700D02*
X65185713Y-72794271D01*
X65185713Y-72794271D02*
X65699999Y-73308557D01*
X65699999Y-73308557D02*
X65142856Y-73308557D01*
X64371428Y-72708557D02*
X64371428Y-73308557D01*
X64585713Y-72365700D02*
X64799999Y-73008557D01*
X64799999Y-73008557D02*
X64242856Y-73008557D01*
X63514285Y-72708557D02*
X63514285Y-73308557D01*
X63728570Y-72365700D02*
X63942856Y-73008557D01*
X63942856Y-73008557D02*
X63385713Y-73008557D01*
X81428571Y-73808556D02*
X81342857Y-73808556D01*
X81342857Y-73808556D02*
X81257143Y-73851413D01*
X81257143Y-73851413D02*
X81214286Y-73894270D01*
X81214286Y-73894270D02*
X81171428Y-73979984D01*
X81171428Y-73979984D02*
X81128571Y-74151413D01*
X81128571Y-74151413D02*
X81128571Y-74365699D01*
X81128571Y-74365699D02*
X81171428Y-74537127D01*
X81171428Y-74537127D02*
X81214286Y-74622841D01*
X81214286Y-74622841D02*
X81257143Y-74665699D01*
X81257143Y-74665699D02*
X81342857Y-74708556D01*
X81342857Y-74708556D02*
X81428571Y-74708556D01*
X81428571Y-74708556D02*
X81514286Y-74665699D01*
X81514286Y-74665699D02*
X81557143Y-74622841D01*
X81557143Y-74622841D02*
X81600000Y-74537127D01*
X81600000Y-74537127D02*
X81642857Y-74365699D01*
X81642857Y-74365699D02*
X81642857Y-74151413D01*
X81642857Y-74151413D02*
X81600000Y-73979984D01*
X81600000Y-73979984D02*
X81557143Y-73894270D01*
X81557143Y-73894270D02*
X81514286Y-73851413D01*
X81514286Y-73851413D02*
X81428571Y-73808556D01*
X80271428Y-74708556D02*
X80785714Y-74708556D01*
X80528571Y-74708556D02*
X80528571Y-73808556D01*
X80528571Y-73808556D02*
X80614285Y-73937127D01*
X80614285Y-73937127D02*
X80700000Y-74022841D01*
X80700000Y-74022841D02*
X80785714Y-74065699D01*
X80100000Y-74794270D02*
X79414285Y-74794270D01*
X79200000Y-74708556D02*
X79200000Y-73808556D01*
X79200000Y-74151413D02*
X79114286Y-74108556D01*
X79114286Y-74108556D02*
X78942857Y-74108556D01*
X78942857Y-74108556D02*
X78857143Y-74151413D01*
X78857143Y-74151413D02*
X78814286Y-74194270D01*
X78814286Y-74194270D02*
X78771428Y-74279984D01*
X78771428Y-74279984D02*
X78771428Y-74537127D01*
X78771428Y-74537127D02*
X78814286Y-74622841D01*
X78814286Y-74622841D02*
X78857143Y-74665699D01*
X78857143Y-74665699D02*
X78942857Y-74708556D01*
X78942857Y-74708556D02*
X79114286Y-74708556D01*
X79114286Y-74708556D02*
X79200000Y-74665699D01*
X78000000Y-74108556D02*
X78000000Y-74708556D01*
X78385714Y-74108556D02*
X78385714Y-74579984D01*
X78385714Y-74579984D02*
X78342857Y-74665699D01*
X78342857Y-74665699D02*
X78257142Y-74708556D01*
X78257142Y-74708556D02*
X78128571Y-74708556D01*
X78128571Y-74708556D02*
X78042857Y-74665699D01*
X78042857Y-74665699D02*
X78000000Y-74622841D01*
X77699999Y-74108556D02*
X77357142Y-74108556D01*
X77571428Y-74708556D02*
X77571428Y-73937127D01*
X77571428Y-73937127D02*
X77528571Y-73851413D01*
X77528571Y-73851413D02*
X77442856Y-73808556D01*
X77442856Y-73808556D02*
X77357142Y-73808556D01*
X77185713Y-74108556D02*
X76842856Y-74108556D01*
X77057142Y-74708556D02*
X77057142Y-73937127D01*
X77057142Y-73937127D02*
X77014285Y-73851413D01*
X77014285Y-73851413D02*
X76928570Y-73808556D01*
X76928570Y-73808556D02*
X76842856Y-73808556D01*
X76199999Y-74665699D02*
X76285713Y-74708556D01*
X76285713Y-74708556D02*
X76457142Y-74708556D01*
X76457142Y-74708556D02*
X76542856Y-74665699D01*
X76542856Y-74665699D02*
X76585713Y-74579984D01*
X76585713Y-74579984D02*
X76585713Y-74237127D01*
X76585713Y-74237127D02*
X76542856Y-74151413D01*
X76542856Y-74151413D02*
X76457142Y-74108556D01*
X76457142Y-74108556D02*
X76285713Y-74108556D01*
X76285713Y-74108556D02*
X76199999Y-74151413D01*
X76199999Y-74151413D02*
X76157142Y-74237127D01*
X76157142Y-74237127D02*
X76157142Y-74322841D01*
X76157142Y-74322841D02*
X76585713Y-74408556D01*
X75771427Y-74708556D02*
X75771427Y-74108556D01*
X75771427Y-74279984D02*
X75728570Y-74194270D01*
X75728570Y-74194270D02*
X75685713Y-74151413D01*
X75685713Y-74151413D02*
X75599998Y-74108556D01*
X75599998Y-74108556D02*
X75514284Y-74108556D01*
X75257141Y-74665699D02*
X75171427Y-74708556D01*
X75171427Y-74708556D02*
X74999998Y-74708556D01*
X74999998Y-74708556D02*
X74914284Y-74665699D01*
X74914284Y-74665699D02*
X74871427Y-74579984D01*
X74871427Y-74579984D02*
X74871427Y-74537127D01*
X74871427Y-74537127D02*
X74914284Y-74451413D01*
X74914284Y-74451413D02*
X74999998Y-74408556D01*
X74999998Y-74408556D02*
X75128570Y-74408556D01*
X75128570Y-74408556D02*
X75214284Y-74365699D01*
X75214284Y-74365699D02*
X75257141Y-74279984D01*
X75257141Y-74279984D02*
X75257141Y-74237127D01*
X75257141Y-74237127D02*
X75214284Y-74151413D01*
X75214284Y-74151413D02*
X75128570Y-74108556D01*
X75128570Y-74108556D02*
X74999998Y-74108556D01*
X74999998Y-74108556D02*
X74914284Y-74151413D01*
X74699999Y-74794270D02*
X74014284Y-74794270D01*
X73799999Y-74708556D02*
X73799999Y-74108556D01*
X73799999Y-73808556D02*
X73842856Y-73851413D01*
X73842856Y-73851413D02*
X73799999Y-73894270D01*
X73799999Y-73894270D02*
X73757142Y-73851413D01*
X73757142Y-73851413D02*
X73799999Y-73808556D01*
X73799999Y-73808556D02*
X73799999Y-73894270D01*
X73371428Y-74108556D02*
X73371428Y-74708556D01*
X73371428Y-74194270D02*
X73328571Y-74151413D01*
X73328571Y-74151413D02*
X73242856Y-74108556D01*
X73242856Y-74108556D02*
X73114285Y-74108556D01*
X73114285Y-74108556D02*
X73028571Y-74151413D01*
X73028571Y-74151413D02*
X72985714Y-74237127D01*
X72985714Y-74237127D02*
X72985714Y-74708556D01*
X72642856Y-74108556D02*
X72428570Y-74708556D01*
X72428570Y-74708556D02*
X72214285Y-74108556D01*
X71528571Y-74665699D02*
X71614285Y-74708556D01*
X71614285Y-74708556D02*
X71785714Y-74708556D01*
X71785714Y-74708556D02*
X71871428Y-74665699D01*
X71871428Y-74665699D02*
X71914285Y-74579984D01*
X71914285Y-74579984D02*
X71914285Y-74237127D01*
X71914285Y-74237127D02*
X71871428Y-74151413D01*
X71871428Y-74151413D02*
X71785714Y-74108556D01*
X71785714Y-74108556D02*
X71614285Y-74108556D01*
X71614285Y-74108556D02*
X71528571Y-74151413D01*
X71528571Y-74151413D02*
X71485714Y-74237127D01*
X71485714Y-74237127D02*
X71485714Y-74322841D01*
X71485714Y-74322841D02*
X71914285Y-74408556D01*
X71099999Y-74708556D02*
X71099999Y-74108556D01*
X71099999Y-74279984D02*
X71057142Y-74194270D01*
X71057142Y-74194270D02*
X71014285Y-74151413D01*
X71014285Y-74151413D02*
X70928570Y-74108556D01*
X70928570Y-74108556D02*
X70842856Y-74108556D01*
X70671427Y-74108556D02*
X70328570Y-74108556D01*
X70542856Y-73808556D02*
X70542856Y-74579984D01*
X70542856Y-74579984D02*
X70499999Y-74665699D01*
X70499999Y-74665699D02*
X70414284Y-74708556D01*
X70414284Y-74708556D02*
X70328570Y-74708556D01*
X69685713Y-74665699D02*
X69771427Y-74708556D01*
X69771427Y-74708556D02*
X69942856Y-74708556D01*
X69942856Y-74708556D02*
X70028570Y-74665699D01*
X70028570Y-74665699D02*
X70071427Y-74579984D01*
X70071427Y-74579984D02*
X70071427Y-74237127D01*
X70071427Y-74237127D02*
X70028570Y-74151413D01*
X70028570Y-74151413D02*
X69942856Y-74108556D01*
X69942856Y-74108556D02*
X69771427Y-74108556D01*
X69771427Y-74108556D02*
X69685713Y-74151413D01*
X69685713Y-74151413D02*
X69642856Y-74237127D01*
X69642856Y-74237127D02*
X69642856Y-74322841D01*
X69642856Y-74322841D02*
X70071427Y-74408556D01*
X69257141Y-74708556D02*
X69257141Y-74108556D01*
X69257141Y-74279984D02*
X69214284Y-74194270D01*
X69214284Y-74194270D02*
X69171427Y-74151413D01*
X69171427Y-74151413D02*
X69085712Y-74108556D01*
X69085712Y-74108556D02*
X68999998Y-74108556D01*
X68742855Y-74665699D02*
X68657141Y-74708556D01*
X68657141Y-74708556D02*
X68485712Y-74708556D01*
X68485712Y-74708556D02*
X68399998Y-74665699D01*
X68399998Y-74665699D02*
X68357141Y-74579984D01*
X68357141Y-74579984D02*
X68357141Y-74537127D01*
X68357141Y-74537127D02*
X68399998Y-74451413D01*
X68399998Y-74451413D02*
X68485712Y-74408556D01*
X68485712Y-74408556D02*
X68614284Y-74408556D01*
X68614284Y-74408556D02*
X68699998Y-74365699D01*
X68699998Y-74365699D02*
X68742855Y-74279984D01*
X68742855Y-74279984D02*
X68742855Y-74237127D01*
X68742855Y-74237127D02*
X68699998Y-74151413D01*
X68699998Y-74151413D02*
X68614284Y-74108556D01*
X68614284Y-74108556D02*
X68485712Y-74108556D01*
X68485712Y-74108556D02*
X68399998Y-74151413D01*
X78707142Y-76108557D02*
X78707142Y-75208557D01*
X78707142Y-75208557D02*
X78407142Y-75851414D01*
X78407142Y-75851414D02*
X78107142Y-75208557D01*
X78107142Y-75208557D02*
X78107142Y-76108557D01*
X77678571Y-76108557D02*
X77678571Y-75208557D01*
X77378571Y-75208557D02*
X76864286Y-75208557D01*
X77121428Y-76108557D02*
X77121428Y-75208557D01*
X75450000Y-76108557D02*
X75878572Y-76108557D01*
X75878572Y-76108557D02*
X75878572Y-75208557D01*
X75150001Y-76108557D02*
X75150001Y-75508557D01*
X75150001Y-75208557D02*
X75192858Y-75251414D01*
X75192858Y-75251414D02*
X75150001Y-75294271D01*
X75150001Y-75294271D02*
X75107144Y-75251414D01*
X75107144Y-75251414D02*
X75150001Y-75208557D01*
X75150001Y-75208557D02*
X75150001Y-75294271D01*
X74335716Y-76065700D02*
X74421430Y-76108557D01*
X74421430Y-76108557D02*
X74592858Y-76108557D01*
X74592858Y-76108557D02*
X74678573Y-76065700D01*
X74678573Y-76065700D02*
X74721430Y-76022842D01*
X74721430Y-76022842D02*
X74764287Y-75937128D01*
X74764287Y-75937128D02*
X74764287Y-75679985D01*
X74764287Y-75679985D02*
X74721430Y-75594271D01*
X74721430Y-75594271D02*
X74678573Y-75551414D01*
X74678573Y-75551414D02*
X74592858Y-75508557D01*
X74592858Y-75508557D02*
X74421430Y-75508557D01*
X74421430Y-75508557D02*
X74335716Y-75551414D01*
X73607144Y-76065700D02*
X73692858Y-76108557D01*
X73692858Y-76108557D02*
X73864287Y-76108557D01*
X73864287Y-76108557D02*
X73950001Y-76065700D01*
X73950001Y-76065700D02*
X73992858Y-75979985D01*
X73992858Y-75979985D02*
X73992858Y-75637128D01*
X73992858Y-75637128D02*
X73950001Y-75551414D01*
X73950001Y-75551414D02*
X73864287Y-75508557D01*
X73864287Y-75508557D02*
X73692858Y-75508557D01*
X73692858Y-75508557D02*
X73607144Y-75551414D01*
X73607144Y-75551414D02*
X73564287Y-75637128D01*
X73564287Y-75637128D02*
X73564287Y-75722842D01*
X73564287Y-75722842D02*
X73992858Y-75808557D01*
X73178572Y-75508557D02*
X73178572Y-76108557D01*
X73178572Y-75594271D02*
X73135715Y-75551414D01*
X73135715Y-75551414D02*
X73050000Y-75508557D01*
X73050000Y-75508557D02*
X72921429Y-75508557D01*
X72921429Y-75508557D02*
X72835715Y-75551414D01*
X72835715Y-75551414D02*
X72792858Y-75637128D01*
X72792858Y-75637128D02*
X72792858Y-76108557D01*
X72407143Y-76065700D02*
X72321429Y-76108557D01*
X72321429Y-76108557D02*
X72150000Y-76108557D01*
X72150000Y-76108557D02*
X72064286Y-76065700D01*
X72064286Y-76065700D02*
X72021429Y-75979985D01*
X72021429Y-75979985D02*
X72021429Y-75937128D01*
X72021429Y-75937128D02*
X72064286Y-75851414D01*
X72064286Y-75851414D02*
X72150000Y-75808557D01*
X72150000Y-75808557D02*
X72278572Y-75808557D01*
X72278572Y-75808557D02*
X72364286Y-75765700D01*
X72364286Y-75765700D02*
X72407143Y-75679985D01*
X72407143Y-75679985D02*
X72407143Y-75637128D01*
X72407143Y-75637128D02*
X72364286Y-75551414D01*
X72364286Y-75551414D02*
X72278572Y-75508557D01*
X72278572Y-75508557D02*
X72150000Y-75508557D01*
X72150000Y-75508557D02*
X72064286Y-75551414D01*
X71292858Y-76065700D02*
X71378572Y-76108557D01*
X71378572Y-76108557D02*
X71550001Y-76108557D01*
X71550001Y-76108557D02*
X71635715Y-76065700D01*
X71635715Y-76065700D02*
X71678572Y-75979985D01*
X71678572Y-75979985D02*
X71678572Y-75637128D01*
X71678572Y-75637128D02*
X71635715Y-75551414D01*
X71635715Y-75551414D02*
X71550001Y-75508557D01*
X71550001Y-75508557D02*
X71378572Y-75508557D01*
X71378572Y-75508557D02*
X71292858Y-75551414D01*
X71292858Y-75551414D02*
X71250001Y-75637128D01*
X71250001Y-75637128D02*
X71250001Y-75722842D01*
X71250001Y-75722842D02*
X71678572Y-75808557D01*
X86185714Y-122408557D02*
X85585714Y-122408557D01*
X85585714Y-122408557D02*
X85971428Y-123308557D01*
X84857143Y-122708557D02*
X84857143Y-123308557D01*
X85071428Y-122365700D02*
X85285714Y-123008557D01*
X85285714Y-123008557D02*
X84728571Y-123008557D01*
X84214285Y-122408557D02*
X84128571Y-122408557D01*
X84128571Y-122408557D02*
X84042857Y-122451414D01*
X84042857Y-122451414D02*
X84000000Y-122494271D01*
X84000000Y-122494271D02*
X83957142Y-122579985D01*
X83957142Y-122579985D02*
X83914285Y-122751414D01*
X83914285Y-122751414D02*
X83914285Y-122965700D01*
X83914285Y-122965700D02*
X83957142Y-123137128D01*
X83957142Y-123137128D02*
X84000000Y-123222842D01*
X84000000Y-123222842D02*
X84042857Y-123265700D01*
X84042857Y-123265700D02*
X84128571Y-123308557D01*
X84128571Y-123308557D02*
X84214285Y-123308557D01*
X84214285Y-123308557D02*
X84300000Y-123265700D01*
X84300000Y-123265700D02*
X84342857Y-123222842D01*
X84342857Y-123222842D02*
X84385714Y-123137128D01*
X84385714Y-123137128D02*
X84428571Y-122965700D01*
X84428571Y-122965700D02*
X84428571Y-122751414D01*
X84428571Y-122751414D02*
X84385714Y-122579985D01*
X84385714Y-122579985D02*
X84342857Y-122494271D01*
X84342857Y-122494271D02*
X84300000Y-122451414D01*
X84300000Y-122451414D02*
X84214285Y-122408557D01*
X83357142Y-122408557D02*
X83271428Y-122408557D01*
X83271428Y-122408557D02*
X83185714Y-122451414D01*
X83185714Y-122451414D02*
X83142857Y-122494271D01*
X83142857Y-122494271D02*
X83099999Y-122579985D01*
X83099999Y-122579985D02*
X83057142Y-122751414D01*
X83057142Y-122751414D02*
X83057142Y-122965700D01*
X83057142Y-122965700D02*
X83099999Y-123137128D01*
X83099999Y-123137128D02*
X83142857Y-123222842D01*
X83142857Y-123222842D02*
X83185714Y-123265700D01*
X83185714Y-123265700D02*
X83271428Y-123308557D01*
X83271428Y-123308557D02*
X83357142Y-123308557D01*
X83357142Y-123308557D02*
X83442857Y-123265700D01*
X83442857Y-123265700D02*
X83485714Y-123222842D01*
X83485714Y-123222842D02*
X83528571Y-123137128D01*
X83528571Y-123137128D02*
X83571428Y-122965700D01*
X83571428Y-122965700D02*
X83571428Y-122751414D01*
X83571428Y-122751414D02*
X83528571Y-122579985D01*
X83528571Y-122579985D02*
X83485714Y-122494271D01*
X83485714Y-122494271D02*
X83442857Y-122451414D01*
X83442857Y-122451414D02*
X83357142Y-122408557D01*
X82028571Y-123265700D02*
X81900000Y-123308557D01*
X81900000Y-123308557D02*
X81685714Y-123308557D01*
X81685714Y-123308557D02*
X81600000Y-123265700D01*
X81600000Y-123265700D02*
X81557142Y-123222842D01*
X81557142Y-123222842D02*
X81514285Y-123137128D01*
X81514285Y-123137128D02*
X81514285Y-123051414D01*
X81514285Y-123051414D02*
X81557142Y-122965700D01*
X81557142Y-122965700D02*
X81600000Y-122922842D01*
X81600000Y-122922842D02*
X81685714Y-122879985D01*
X81685714Y-122879985D02*
X81857142Y-122837128D01*
X81857142Y-122837128D02*
X81942857Y-122794271D01*
X81942857Y-122794271D02*
X81985714Y-122751414D01*
X81985714Y-122751414D02*
X82028571Y-122665700D01*
X82028571Y-122665700D02*
X82028571Y-122579985D01*
X82028571Y-122579985D02*
X81985714Y-122494271D01*
X81985714Y-122494271D02*
X81942857Y-122451414D01*
X81942857Y-122451414D02*
X81857142Y-122408557D01*
X81857142Y-122408557D02*
X81642857Y-122408557D01*
X81642857Y-122408557D02*
X81514285Y-122451414D01*
X81128571Y-122708557D02*
X81128571Y-123608557D01*
X81128571Y-122751414D02*
X81042857Y-122708557D01*
X81042857Y-122708557D02*
X80871428Y-122708557D01*
X80871428Y-122708557D02*
X80785714Y-122751414D01*
X80785714Y-122751414D02*
X80742857Y-122794271D01*
X80742857Y-122794271D02*
X80699999Y-122879985D01*
X80699999Y-122879985D02*
X80699999Y-123137128D01*
X80699999Y-123137128D02*
X80742857Y-123222842D01*
X80742857Y-123222842D02*
X80785714Y-123265700D01*
X80785714Y-123265700D02*
X80871428Y-123308557D01*
X80871428Y-123308557D02*
X81042857Y-123308557D01*
X81042857Y-123308557D02*
X81128571Y-123265700D01*
X79971428Y-123265700D02*
X80057142Y-123308557D01*
X80057142Y-123308557D02*
X80228571Y-123308557D01*
X80228571Y-123308557D02*
X80314285Y-123265700D01*
X80314285Y-123265700D02*
X80357142Y-123179985D01*
X80357142Y-123179985D02*
X80357142Y-122837128D01*
X80357142Y-122837128D02*
X80314285Y-122751414D01*
X80314285Y-122751414D02*
X80228571Y-122708557D01*
X80228571Y-122708557D02*
X80057142Y-122708557D01*
X80057142Y-122708557D02*
X79971428Y-122751414D01*
X79971428Y-122751414D02*
X79928571Y-122837128D01*
X79928571Y-122837128D02*
X79928571Y-122922842D01*
X79928571Y-122922842D02*
X80357142Y-123008557D01*
X79157142Y-123265700D02*
X79242856Y-123308557D01*
X79242856Y-123308557D02*
X79414284Y-123308557D01*
X79414284Y-123308557D02*
X79499999Y-123265700D01*
X79499999Y-123265700D02*
X79542856Y-123222842D01*
X79542856Y-123222842D02*
X79585713Y-123137128D01*
X79585713Y-123137128D02*
X79585713Y-122879985D01*
X79585713Y-122879985D02*
X79542856Y-122794271D01*
X79542856Y-122794271D02*
X79499999Y-122751414D01*
X79499999Y-122751414D02*
X79414284Y-122708557D01*
X79414284Y-122708557D02*
X79242856Y-122708557D01*
X79242856Y-122708557D02*
X79157142Y-122751414D01*
X78771427Y-123308557D02*
X78771427Y-122708557D01*
X78771427Y-122408557D02*
X78814284Y-122451414D01*
X78814284Y-122451414D02*
X78771427Y-122494271D01*
X78771427Y-122494271D02*
X78728570Y-122451414D01*
X78728570Y-122451414D02*
X78771427Y-122408557D01*
X78771427Y-122408557D02*
X78771427Y-122494271D01*
X78342856Y-123308557D02*
X78342856Y-122708557D01*
X78342856Y-122794271D02*
X78299999Y-122751414D01*
X78299999Y-122751414D02*
X78214284Y-122708557D01*
X78214284Y-122708557D02*
X78085713Y-122708557D01*
X78085713Y-122708557D02*
X77999999Y-122751414D01*
X77999999Y-122751414D02*
X77957142Y-122837128D01*
X77957142Y-122837128D02*
X77957142Y-123308557D01*
X77957142Y-122837128D02*
X77914284Y-122751414D01*
X77914284Y-122751414D02*
X77828570Y-122708557D01*
X77828570Y-122708557D02*
X77699999Y-122708557D01*
X77699999Y-122708557D02*
X77614284Y-122751414D01*
X77614284Y-122751414D02*
X77571427Y-122837128D01*
X77571427Y-122837128D02*
X77571427Y-123308557D01*
X76799999Y-123265700D02*
X76885713Y-123308557D01*
X76885713Y-123308557D02*
X77057142Y-123308557D01*
X77057142Y-123308557D02*
X77142856Y-123265700D01*
X77142856Y-123265700D02*
X77185713Y-123179985D01*
X77185713Y-123179985D02*
X77185713Y-122837128D01*
X77185713Y-122837128D02*
X77142856Y-122751414D01*
X77142856Y-122751414D02*
X77057142Y-122708557D01*
X77057142Y-122708557D02*
X76885713Y-122708557D01*
X76885713Y-122708557D02*
X76799999Y-122751414D01*
X76799999Y-122751414D02*
X76757142Y-122837128D01*
X76757142Y-122837128D02*
X76757142Y-122922842D01*
X76757142Y-122922842D02*
X77185713Y-123008557D01*
X76371427Y-122708557D02*
X76371427Y-123308557D01*
X76371427Y-122794271D02*
X76328570Y-122751414D01*
X76328570Y-122751414D02*
X76242855Y-122708557D01*
X76242855Y-122708557D02*
X76114284Y-122708557D01*
X76114284Y-122708557D02*
X76028570Y-122751414D01*
X76028570Y-122751414D02*
X75985713Y-122837128D01*
X75985713Y-122837128D02*
X75985713Y-123308557D01*
X74999998Y-122408557D02*
X74485713Y-122408557D01*
X74742855Y-123308557D02*
X74742855Y-122408557D01*
X74185713Y-123308557D02*
X74185713Y-122708557D01*
X74185713Y-122408557D02*
X74228570Y-122451414D01*
X74228570Y-122451414D02*
X74185713Y-122494271D01*
X74185713Y-122494271D02*
X74142856Y-122451414D01*
X74142856Y-122451414D02*
X74185713Y-122408557D01*
X74185713Y-122408557D02*
X74185713Y-122494271D01*
X73628570Y-123308557D02*
X73714285Y-123265700D01*
X73714285Y-123265700D02*
X73757142Y-123179985D01*
X73757142Y-123179985D02*
X73757142Y-122408557D01*
X72942856Y-123265700D02*
X73028570Y-123308557D01*
X73028570Y-123308557D02*
X73199999Y-123308557D01*
X73199999Y-123308557D02*
X73285713Y-123265700D01*
X73285713Y-123265700D02*
X73328570Y-123179985D01*
X73328570Y-123179985D02*
X73328570Y-122837128D01*
X73328570Y-122837128D02*
X73285713Y-122751414D01*
X73285713Y-122751414D02*
X73199999Y-122708557D01*
X73199999Y-122708557D02*
X73028570Y-122708557D01*
X73028570Y-122708557D02*
X72942856Y-122751414D01*
X72942856Y-122751414D02*
X72899999Y-122837128D01*
X72899999Y-122837128D02*
X72899999Y-122922842D01*
X72899999Y-122922842D02*
X73328570Y-123008557D01*
X71914284Y-122708557D02*
X71699998Y-123308557D01*
X71699998Y-123308557D02*
X71485713Y-122708557D01*
X70971427Y-122408557D02*
X70885713Y-122408557D01*
X70885713Y-122408557D02*
X70799999Y-122451414D01*
X70799999Y-122451414D02*
X70757142Y-122494271D01*
X70757142Y-122494271D02*
X70714284Y-122579985D01*
X70714284Y-122579985D02*
X70671427Y-122751414D01*
X70671427Y-122751414D02*
X70671427Y-122965700D01*
X70671427Y-122965700D02*
X70714284Y-123137128D01*
X70714284Y-123137128D02*
X70757142Y-123222842D01*
X70757142Y-123222842D02*
X70799999Y-123265700D01*
X70799999Y-123265700D02*
X70885713Y-123308557D01*
X70885713Y-123308557D02*
X70971427Y-123308557D01*
X70971427Y-123308557D02*
X71057142Y-123265700D01*
X71057142Y-123265700D02*
X71099999Y-123222842D01*
X71099999Y-123222842D02*
X71142856Y-123137128D01*
X71142856Y-123137128D02*
X71185713Y-122965700D01*
X71185713Y-122965700D02*
X71185713Y-122751414D01*
X71185713Y-122751414D02*
X71142856Y-122579985D01*
X71142856Y-122579985D02*
X71099999Y-122494271D01*
X71099999Y-122494271D02*
X71057142Y-122451414D01*
X71057142Y-122451414D02*
X70971427Y-122408557D01*
X70285713Y-123222842D02*
X70242856Y-123265700D01*
X70242856Y-123265700D02*
X70285713Y-123308557D01*
X70285713Y-123308557D02*
X70328570Y-123265700D01*
X70328570Y-123265700D02*
X70285713Y-123222842D01*
X70285713Y-123222842D02*
X70285713Y-123308557D01*
X69385713Y-123308557D02*
X69899999Y-123308557D01*
X69642856Y-123308557D02*
X69642856Y-122408557D01*
X69642856Y-122408557D02*
X69728570Y-122537128D01*
X69728570Y-122537128D02*
X69814285Y-122622842D01*
X69814285Y-122622842D02*
X69899999Y-122665700D01*
X67714285Y-122408557D02*
X67114285Y-122408557D01*
X67114285Y-122408557D02*
X67499999Y-123308557D01*
X66385714Y-122708557D02*
X66385714Y-123308557D01*
X66599999Y-122365700D02*
X66814285Y-123008557D01*
X66814285Y-123008557D02*
X66257142Y-123008557D01*
X65999999Y-123308557D02*
X65528571Y-122708557D01*
X65999999Y-122708557D02*
X65528571Y-123308557D01*
X64714285Y-123308557D02*
X65228571Y-123308557D01*
X64971428Y-123308557D02*
X64971428Y-122408557D01*
X64971428Y-122408557D02*
X65057142Y-122537128D01*
X65057142Y-122537128D02*
X65142857Y-122622842D01*
X65142857Y-122622842D02*
X65228571Y-122665700D01*
X63942857Y-122708557D02*
X63942857Y-123308557D01*
X64157142Y-122365700D02*
X64371428Y-123008557D01*
X64371428Y-123008557D02*
X63814285Y-123008557D01*
X81428571Y-123808556D02*
X81342857Y-123808556D01*
X81342857Y-123808556D02*
X81257143Y-123851413D01*
X81257143Y-123851413D02*
X81214286Y-123894270D01*
X81214286Y-123894270D02*
X81171428Y-123979984D01*
X81171428Y-123979984D02*
X81128571Y-124151413D01*
X81128571Y-124151413D02*
X81128571Y-124365699D01*
X81128571Y-124365699D02*
X81171428Y-124537127D01*
X81171428Y-124537127D02*
X81214286Y-124622841D01*
X81214286Y-124622841D02*
X81257143Y-124665699D01*
X81257143Y-124665699D02*
X81342857Y-124708556D01*
X81342857Y-124708556D02*
X81428571Y-124708556D01*
X81428571Y-124708556D02*
X81514286Y-124665699D01*
X81514286Y-124665699D02*
X81557143Y-124622841D01*
X81557143Y-124622841D02*
X81600000Y-124537127D01*
X81600000Y-124537127D02*
X81642857Y-124365699D01*
X81642857Y-124365699D02*
X81642857Y-124151413D01*
X81642857Y-124151413D02*
X81600000Y-123979984D01*
X81600000Y-123979984D02*
X81557143Y-123894270D01*
X81557143Y-123894270D02*
X81514286Y-123851413D01*
X81514286Y-123851413D02*
X81428571Y-123808556D01*
X80271428Y-124708556D02*
X80785714Y-124708556D01*
X80528571Y-124708556D02*
X80528571Y-123808556D01*
X80528571Y-123808556D02*
X80614285Y-123937127D01*
X80614285Y-123937127D02*
X80700000Y-124022841D01*
X80700000Y-124022841D02*
X80785714Y-124065699D01*
X80100000Y-124794270D02*
X79414285Y-124794270D01*
X79200000Y-124708556D02*
X79200000Y-123808556D01*
X79200000Y-124151413D02*
X79114286Y-124108556D01*
X79114286Y-124108556D02*
X78942857Y-124108556D01*
X78942857Y-124108556D02*
X78857143Y-124151413D01*
X78857143Y-124151413D02*
X78814286Y-124194270D01*
X78814286Y-124194270D02*
X78771428Y-124279984D01*
X78771428Y-124279984D02*
X78771428Y-124537127D01*
X78771428Y-124537127D02*
X78814286Y-124622841D01*
X78814286Y-124622841D02*
X78857143Y-124665699D01*
X78857143Y-124665699D02*
X78942857Y-124708556D01*
X78942857Y-124708556D02*
X79114286Y-124708556D01*
X79114286Y-124708556D02*
X79200000Y-124665699D01*
X78000000Y-124108556D02*
X78000000Y-124708556D01*
X78385714Y-124108556D02*
X78385714Y-124579984D01*
X78385714Y-124579984D02*
X78342857Y-124665699D01*
X78342857Y-124665699D02*
X78257142Y-124708556D01*
X78257142Y-124708556D02*
X78128571Y-124708556D01*
X78128571Y-124708556D02*
X78042857Y-124665699D01*
X78042857Y-124665699D02*
X78000000Y-124622841D01*
X77699999Y-124108556D02*
X77357142Y-124108556D01*
X77571428Y-124708556D02*
X77571428Y-123937127D01*
X77571428Y-123937127D02*
X77528571Y-123851413D01*
X77528571Y-123851413D02*
X77442856Y-123808556D01*
X77442856Y-123808556D02*
X77357142Y-123808556D01*
X77185713Y-124108556D02*
X76842856Y-124108556D01*
X77057142Y-124708556D02*
X77057142Y-123937127D01*
X77057142Y-123937127D02*
X77014285Y-123851413D01*
X77014285Y-123851413D02*
X76928570Y-123808556D01*
X76928570Y-123808556D02*
X76842856Y-123808556D01*
X76199999Y-124665699D02*
X76285713Y-124708556D01*
X76285713Y-124708556D02*
X76457142Y-124708556D01*
X76457142Y-124708556D02*
X76542856Y-124665699D01*
X76542856Y-124665699D02*
X76585713Y-124579984D01*
X76585713Y-124579984D02*
X76585713Y-124237127D01*
X76585713Y-124237127D02*
X76542856Y-124151413D01*
X76542856Y-124151413D02*
X76457142Y-124108556D01*
X76457142Y-124108556D02*
X76285713Y-124108556D01*
X76285713Y-124108556D02*
X76199999Y-124151413D01*
X76199999Y-124151413D02*
X76157142Y-124237127D01*
X76157142Y-124237127D02*
X76157142Y-124322841D01*
X76157142Y-124322841D02*
X76585713Y-124408556D01*
X75771427Y-124708556D02*
X75771427Y-124108556D01*
X75771427Y-124279984D02*
X75728570Y-124194270D01*
X75728570Y-124194270D02*
X75685713Y-124151413D01*
X75685713Y-124151413D02*
X75599998Y-124108556D01*
X75599998Y-124108556D02*
X75514284Y-124108556D01*
X75257141Y-124665699D02*
X75171427Y-124708556D01*
X75171427Y-124708556D02*
X74999998Y-124708556D01*
X74999998Y-124708556D02*
X74914284Y-124665699D01*
X74914284Y-124665699D02*
X74871427Y-124579984D01*
X74871427Y-124579984D02*
X74871427Y-124537127D01*
X74871427Y-124537127D02*
X74914284Y-124451413D01*
X74914284Y-124451413D02*
X74999998Y-124408556D01*
X74999998Y-124408556D02*
X75128570Y-124408556D01*
X75128570Y-124408556D02*
X75214284Y-124365699D01*
X75214284Y-124365699D02*
X75257141Y-124279984D01*
X75257141Y-124279984D02*
X75257141Y-124237127D01*
X75257141Y-124237127D02*
X75214284Y-124151413D01*
X75214284Y-124151413D02*
X75128570Y-124108556D01*
X75128570Y-124108556D02*
X74999998Y-124108556D01*
X74999998Y-124108556D02*
X74914284Y-124151413D01*
X74699999Y-124794270D02*
X74014284Y-124794270D01*
X73799999Y-124708556D02*
X73799999Y-124108556D01*
X73799999Y-123808556D02*
X73842856Y-123851413D01*
X73842856Y-123851413D02*
X73799999Y-123894270D01*
X73799999Y-123894270D02*
X73757142Y-123851413D01*
X73757142Y-123851413D02*
X73799999Y-123808556D01*
X73799999Y-123808556D02*
X73799999Y-123894270D01*
X73371428Y-124108556D02*
X73371428Y-124708556D01*
X73371428Y-124194270D02*
X73328571Y-124151413D01*
X73328571Y-124151413D02*
X73242856Y-124108556D01*
X73242856Y-124108556D02*
X73114285Y-124108556D01*
X73114285Y-124108556D02*
X73028571Y-124151413D01*
X73028571Y-124151413D02*
X72985714Y-124237127D01*
X72985714Y-124237127D02*
X72985714Y-124708556D01*
X72642856Y-124108556D02*
X72428570Y-124708556D01*
X72428570Y-124708556D02*
X72214285Y-124108556D01*
X71528571Y-124665699D02*
X71614285Y-124708556D01*
X71614285Y-124708556D02*
X71785714Y-124708556D01*
X71785714Y-124708556D02*
X71871428Y-124665699D01*
X71871428Y-124665699D02*
X71914285Y-124579984D01*
X71914285Y-124579984D02*
X71914285Y-124237127D01*
X71914285Y-124237127D02*
X71871428Y-124151413D01*
X71871428Y-124151413D02*
X71785714Y-124108556D01*
X71785714Y-124108556D02*
X71614285Y-124108556D01*
X71614285Y-124108556D02*
X71528571Y-124151413D01*
X71528571Y-124151413D02*
X71485714Y-124237127D01*
X71485714Y-124237127D02*
X71485714Y-124322841D01*
X71485714Y-124322841D02*
X71914285Y-124408556D01*
X71099999Y-124708556D02*
X71099999Y-124108556D01*
X71099999Y-124279984D02*
X71057142Y-124194270D01*
X71057142Y-124194270D02*
X71014285Y-124151413D01*
X71014285Y-124151413D02*
X70928570Y-124108556D01*
X70928570Y-124108556D02*
X70842856Y-124108556D01*
X70671427Y-124108556D02*
X70328570Y-124108556D01*
X70542856Y-123808556D02*
X70542856Y-124579984D01*
X70542856Y-124579984D02*
X70499999Y-124665699D01*
X70499999Y-124665699D02*
X70414284Y-124708556D01*
X70414284Y-124708556D02*
X70328570Y-124708556D01*
X69685713Y-124665699D02*
X69771427Y-124708556D01*
X69771427Y-124708556D02*
X69942856Y-124708556D01*
X69942856Y-124708556D02*
X70028570Y-124665699D01*
X70028570Y-124665699D02*
X70071427Y-124579984D01*
X70071427Y-124579984D02*
X70071427Y-124237127D01*
X70071427Y-124237127D02*
X70028570Y-124151413D01*
X70028570Y-124151413D02*
X69942856Y-124108556D01*
X69942856Y-124108556D02*
X69771427Y-124108556D01*
X69771427Y-124108556D02*
X69685713Y-124151413D01*
X69685713Y-124151413D02*
X69642856Y-124237127D01*
X69642856Y-124237127D02*
X69642856Y-124322841D01*
X69642856Y-124322841D02*
X70071427Y-124408556D01*
X69257141Y-124708556D02*
X69257141Y-124108556D01*
X69257141Y-124279984D02*
X69214284Y-124194270D01*
X69214284Y-124194270D02*
X69171427Y-124151413D01*
X69171427Y-124151413D02*
X69085712Y-124108556D01*
X69085712Y-124108556D02*
X68999998Y-124108556D01*
X68742855Y-124665699D02*
X68657141Y-124708556D01*
X68657141Y-124708556D02*
X68485712Y-124708556D01*
X68485712Y-124708556D02*
X68399998Y-124665699D01*
X68399998Y-124665699D02*
X68357141Y-124579984D01*
X68357141Y-124579984D02*
X68357141Y-124537127D01*
X68357141Y-124537127D02*
X68399998Y-124451413D01*
X68399998Y-124451413D02*
X68485712Y-124408556D01*
X68485712Y-124408556D02*
X68614284Y-124408556D01*
X68614284Y-124408556D02*
X68699998Y-124365699D01*
X68699998Y-124365699D02*
X68742855Y-124279984D01*
X68742855Y-124279984D02*
X68742855Y-124237127D01*
X68742855Y-124237127D02*
X68699998Y-124151413D01*
X68699998Y-124151413D02*
X68614284Y-124108556D01*
X68614284Y-124108556D02*
X68485712Y-124108556D01*
X68485712Y-124108556D02*
X68399998Y-124151413D01*
X78707142Y-126108557D02*
X78707142Y-125208557D01*
X78707142Y-125208557D02*
X78407142Y-125851414D01*
X78407142Y-125851414D02*
X78107142Y-125208557D01*
X78107142Y-125208557D02*
X78107142Y-126108557D01*
X77678571Y-126108557D02*
X77678571Y-125208557D01*
X77378571Y-125208557D02*
X76864286Y-125208557D01*
X77121428Y-126108557D02*
X77121428Y-125208557D01*
X75450000Y-126108557D02*
X75878572Y-126108557D01*
X75878572Y-126108557D02*
X75878572Y-125208557D01*
X75150001Y-126108557D02*
X75150001Y-125508557D01*
X75150001Y-125208557D02*
X75192858Y-125251414D01*
X75192858Y-125251414D02*
X75150001Y-125294271D01*
X75150001Y-125294271D02*
X75107144Y-125251414D01*
X75107144Y-125251414D02*
X75150001Y-125208557D01*
X75150001Y-125208557D02*
X75150001Y-125294271D01*
X74335716Y-126065700D02*
X74421430Y-126108557D01*
X74421430Y-126108557D02*
X74592858Y-126108557D01*
X74592858Y-126108557D02*
X74678573Y-126065700D01*
X74678573Y-126065700D02*
X74721430Y-126022842D01*
X74721430Y-126022842D02*
X74764287Y-125937128D01*
X74764287Y-125937128D02*
X74764287Y-125679985D01*
X74764287Y-125679985D02*
X74721430Y-125594271D01*
X74721430Y-125594271D02*
X74678573Y-125551414D01*
X74678573Y-125551414D02*
X74592858Y-125508557D01*
X74592858Y-125508557D02*
X74421430Y-125508557D01*
X74421430Y-125508557D02*
X74335716Y-125551414D01*
X73607144Y-126065700D02*
X73692858Y-126108557D01*
X73692858Y-126108557D02*
X73864287Y-126108557D01*
X73864287Y-126108557D02*
X73950001Y-126065700D01*
X73950001Y-126065700D02*
X73992858Y-125979985D01*
X73992858Y-125979985D02*
X73992858Y-125637128D01*
X73992858Y-125637128D02*
X73950001Y-125551414D01*
X73950001Y-125551414D02*
X73864287Y-125508557D01*
X73864287Y-125508557D02*
X73692858Y-125508557D01*
X73692858Y-125508557D02*
X73607144Y-125551414D01*
X73607144Y-125551414D02*
X73564287Y-125637128D01*
X73564287Y-125637128D02*
X73564287Y-125722842D01*
X73564287Y-125722842D02*
X73992858Y-125808557D01*
X73178572Y-125508557D02*
X73178572Y-126108557D01*
X73178572Y-125594271D02*
X73135715Y-125551414D01*
X73135715Y-125551414D02*
X73050000Y-125508557D01*
X73050000Y-125508557D02*
X72921429Y-125508557D01*
X72921429Y-125508557D02*
X72835715Y-125551414D01*
X72835715Y-125551414D02*
X72792858Y-125637128D01*
X72792858Y-125637128D02*
X72792858Y-126108557D01*
X72407143Y-126065700D02*
X72321429Y-126108557D01*
X72321429Y-126108557D02*
X72150000Y-126108557D01*
X72150000Y-126108557D02*
X72064286Y-126065700D01*
X72064286Y-126065700D02*
X72021429Y-125979985D01*
X72021429Y-125979985D02*
X72021429Y-125937128D01*
X72021429Y-125937128D02*
X72064286Y-125851414D01*
X72064286Y-125851414D02*
X72150000Y-125808557D01*
X72150000Y-125808557D02*
X72278572Y-125808557D01*
X72278572Y-125808557D02*
X72364286Y-125765700D01*
X72364286Y-125765700D02*
X72407143Y-125679985D01*
X72407143Y-125679985D02*
X72407143Y-125637128D01*
X72407143Y-125637128D02*
X72364286Y-125551414D01*
X72364286Y-125551414D02*
X72278572Y-125508557D01*
X72278572Y-125508557D02*
X72150000Y-125508557D01*
X72150000Y-125508557D02*
X72064286Y-125551414D01*
X71292858Y-126065700D02*
X71378572Y-126108557D01*
X71378572Y-126108557D02*
X71550001Y-126108557D01*
X71550001Y-126108557D02*
X71635715Y-126065700D01*
X71635715Y-126065700D02*
X71678572Y-125979985D01*
X71678572Y-125979985D02*
X71678572Y-125637128D01*
X71678572Y-125637128D02*
X71635715Y-125551414D01*
X71635715Y-125551414D02*
X71550001Y-125508557D01*
X71550001Y-125508557D02*
X71378572Y-125508557D01*
X71378572Y-125508557D02*
X71292858Y-125551414D01*
X71292858Y-125551414D02*
X71250001Y-125637128D01*
X71250001Y-125637128D02*
X71250001Y-125722842D01*
X71250001Y-125722842D02*
X71678572Y-125808557D01*
X136185714Y-72408557D02*
X135585714Y-72408557D01*
X135585714Y-72408557D02*
X135971428Y-73308557D01*
X134857143Y-72708557D02*
X134857143Y-73308557D01*
X135071428Y-72365700D02*
X135285714Y-73008557D01*
X135285714Y-73008557D02*
X134728571Y-73008557D01*
X134214285Y-72408557D02*
X134128571Y-72408557D01*
X134128571Y-72408557D02*
X134042857Y-72451414D01*
X134042857Y-72451414D02*
X134000000Y-72494271D01*
X134000000Y-72494271D02*
X133957142Y-72579985D01*
X133957142Y-72579985D02*
X133914285Y-72751414D01*
X133914285Y-72751414D02*
X133914285Y-72965700D01*
X133914285Y-72965700D02*
X133957142Y-73137128D01*
X133957142Y-73137128D02*
X134000000Y-73222842D01*
X134000000Y-73222842D02*
X134042857Y-73265700D01*
X134042857Y-73265700D02*
X134128571Y-73308557D01*
X134128571Y-73308557D02*
X134214285Y-73308557D01*
X134214285Y-73308557D02*
X134300000Y-73265700D01*
X134300000Y-73265700D02*
X134342857Y-73222842D01*
X134342857Y-73222842D02*
X134385714Y-73137128D01*
X134385714Y-73137128D02*
X134428571Y-72965700D01*
X134428571Y-72965700D02*
X134428571Y-72751414D01*
X134428571Y-72751414D02*
X134385714Y-72579985D01*
X134385714Y-72579985D02*
X134342857Y-72494271D01*
X134342857Y-72494271D02*
X134300000Y-72451414D01*
X134300000Y-72451414D02*
X134214285Y-72408557D01*
X133357142Y-72408557D02*
X133271428Y-72408557D01*
X133271428Y-72408557D02*
X133185714Y-72451414D01*
X133185714Y-72451414D02*
X133142857Y-72494271D01*
X133142857Y-72494271D02*
X133099999Y-72579985D01*
X133099999Y-72579985D02*
X133057142Y-72751414D01*
X133057142Y-72751414D02*
X133057142Y-72965700D01*
X133057142Y-72965700D02*
X133099999Y-73137128D01*
X133099999Y-73137128D02*
X133142857Y-73222842D01*
X133142857Y-73222842D02*
X133185714Y-73265700D01*
X133185714Y-73265700D02*
X133271428Y-73308557D01*
X133271428Y-73308557D02*
X133357142Y-73308557D01*
X133357142Y-73308557D02*
X133442857Y-73265700D01*
X133442857Y-73265700D02*
X133485714Y-73222842D01*
X133485714Y-73222842D02*
X133528571Y-73137128D01*
X133528571Y-73137128D02*
X133571428Y-72965700D01*
X133571428Y-72965700D02*
X133571428Y-72751414D01*
X133571428Y-72751414D02*
X133528571Y-72579985D01*
X133528571Y-72579985D02*
X133485714Y-72494271D01*
X133485714Y-72494271D02*
X133442857Y-72451414D01*
X133442857Y-72451414D02*
X133357142Y-72408557D01*
X132028571Y-73265700D02*
X131900000Y-73308557D01*
X131900000Y-73308557D02*
X131685714Y-73308557D01*
X131685714Y-73308557D02*
X131600000Y-73265700D01*
X131600000Y-73265700D02*
X131557142Y-73222842D01*
X131557142Y-73222842D02*
X131514285Y-73137128D01*
X131514285Y-73137128D02*
X131514285Y-73051414D01*
X131514285Y-73051414D02*
X131557142Y-72965700D01*
X131557142Y-72965700D02*
X131600000Y-72922842D01*
X131600000Y-72922842D02*
X131685714Y-72879985D01*
X131685714Y-72879985D02*
X131857142Y-72837128D01*
X131857142Y-72837128D02*
X131942857Y-72794271D01*
X131942857Y-72794271D02*
X131985714Y-72751414D01*
X131985714Y-72751414D02*
X132028571Y-72665700D01*
X132028571Y-72665700D02*
X132028571Y-72579985D01*
X132028571Y-72579985D02*
X131985714Y-72494271D01*
X131985714Y-72494271D02*
X131942857Y-72451414D01*
X131942857Y-72451414D02*
X131857142Y-72408557D01*
X131857142Y-72408557D02*
X131642857Y-72408557D01*
X131642857Y-72408557D02*
X131514285Y-72451414D01*
X131128571Y-72708557D02*
X131128571Y-73608557D01*
X131128571Y-72751414D02*
X131042857Y-72708557D01*
X131042857Y-72708557D02*
X130871428Y-72708557D01*
X130871428Y-72708557D02*
X130785714Y-72751414D01*
X130785714Y-72751414D02*
X130742857Y-72794271D01*
X130742857Y-72794271D02*
X130699999Y-72879985D01*
X130699999Y-72879985D02*
X130699999Y-73137128D01*
X130699999Y-73137128D02*
X130742857Y-73222842D01*
X130742857Y-73222842D02*
X130785714Y-73265700D01*
X130785714Y-73265700D02*
X130871428Y-73308557D01*
X130871428Y-73308557D02*
X131042857Y-73308557D01*
X131042857Y-73308557D02*
X131128571Y-73265700D01*
X129971428Y-73265700D02*
X130057142Y-73308557D01*
X130057142Y-73308557D02*
X130228571Y-73308557D01*
X130228571Y-73308557D02*
X130314285Y-73265700D01*
X130314285Y-73265700D02*
X130357142Y-73179985D01*
X130357142Y-73179985D02*
X130357142Y-72837128D01*
X130357142Y-72837128D02*
X130314285Y-72751414D01*
X130314285Y-72751414D02*
X130228571Y-72708557D01*
X130228571Y-72708557D02*
X130057142Y-72708557D01*
X130057142Y-72708557D02*
X129971428Y-72751414D01*
X129971428Y-72751414D02*
X129928571Y-72837128D01*
X129928571Y-72837128D02*
X129928571Y-72922842D01*
X129928571Y-72922842D02*
X130357142Y-73008557D01*
X129157142Y-73265700D02*
X129242856Y-73308557D01*
X129242856Y-73308557D02*
X129414284Y-73308557D01*
X129414284Y-73308557D02*
X129499999Y-73265700D01*
X129499999Y-73265700D02*
X129542856Y-73222842D01*
X129542856Y-73222842D02*
X129585713Y-73137128D01*
X129585713Y-73137128D02*
X129585713Y-72879985D01*
X129585713Y-72879985D02*
X129542856Y-72794271D01*
X129542856Y-72794271D02*
X129499999Y-72751414D01*
X129499999Y-72751414D02*
X129414284Y-72708557D01*
X129414284Y-72708557D02*
X129242856Y-72708557D01*
X129242856Y-72708557D02*
X129157142Y-72751414D01*
X128771427Y-73308557D02*
X128771427Y-72708557D01*
X128771427Y-72408557D02*
X128814284Y-72451414D01*
X128814284Y-72451414D02*
X128771427Y-72494271D01*
X128771427Y-72494271D02*
X128728570Y-72451414D01*
X128728570Y-72451414D02*
X128771427Y-72408557D01*
X128771427Y-72408557D02*
X128771427Y-72494271D01*
X128342856Y-73308557D02*
X128342856Y-72708557D01*
X128342856Y-72794271D02*
X128299999Y-72751414D01*
X128299999Y-72751414D02*
X128214284Y-72708557D01*
X128214284Y-72708557D02*
X128085713Y-72708557D01*
X128085713Y-72708557D02*
X127999999Y-72751414D01*
X127999999Y-72751414D02*
X127957142Y-72837128D01*
X127957142Y-72837128D02*
X127957142Y-73308557D01*
X127957142Y-72837128D02*
X127914284Y-72751414D01*
X127914284Y-72751414D02*
X127828570Y-72708557D01*
X127828570Y-72708557D02*
X127699999Y-72708557D01*
X127699999Y-72708557D02*
X127614284Y-72751414D01*
X127614284Y-72751414D02*
X127571427Y-72837128D01*
X127571427Y-72837128D02*
X127571427Y-73308557D01*
X126799999Y-73265700D02*
X126885713Y-73308557D01*
X126885713Y-73308557D02*
X127057142Y-73308557D01*
X127057142Y-73308557D02*
X127142856Y-73265700D01*
X127142856Y-73265700D02*
X127185713Y-73179985D01*
X127185713Y-73179985D02*
X127185713Y-72837128D01*
X127185713Y-72837128D02*
X127142856Y-72751414D01*
X127142856Y-72751414D02*
X127057142Y-72708557D01*
X127057142Y-72708557D02*
X126885713Y-72708557D01*
X126885713Y-72708557D02*
X126799999Y-72751414D01*
X126799999Y-72751414D02*
X126757142Y-72837128D01*
X126757142Y-72837128D02*
X126757142Y-72922842D01*
X126757142Y-72922842D02*
X127185713Y-73008557D01*
X126371427Y-72708557D02*
X126371427Y-73308557D01*
X126371427Y-72794271D02*
X126328570Y-72751414D01*
X126328570Y-72751414D02*
X126242855Y-72708557D01*
X126242855Y-72708557D02*
X126114284Y-72708557D01*
X126114284Y-72708557D02*
X126028570Y-72751414D01*
X126028570Y-72751414D02*
X125985713Y-72837128D01*
X125985713Y-72837128D02*
X125985713Y-73308557D01*
X124999998Y-72408557D02*
X124485713Y-72408557D01*
X124742855Y-73308557D02*
X124742855Y-72408557D01*
X124185713Y-73308557D02*
X124185713Y-72708557D01*
X124185713Y-72408557D02*
X124228570Y-72451414D01*
X124228570Y-72451414D02*
X124185713Y-72494271D01*
X124185713Y-72494271D02*
X124142856Y-72451414D01*
X124142856Y-72451414D02*
X124185713Y-72408557D01*
X124185713Y-72408557D02*
X124185713Y-72494271D01*
X123628570Y-73308557D02*
X123714285Y-73265700D01*
X123714285Y-73265700D02*
X123757142Y-73179985D01*
X123757142Y-73179985D02*
X123757142Y-72408557D01*
X122942856Y-73265700D02*
X123028570Y-73308557D01*
X123028570Y-73308557D02*
X123199999Y-73308557D01*
X123199999Y-73308557D02*
X123285713Y-73265700D01*
X123285713Y-73265700D02*
X123328570Y-73179985D01*
X123328570Y-73179985D02*
X123328570Y-72837128D01*
X123328570Y-72837128D02*
X123285713Y-72751414D01*
X123285713Y-72751414D02*
X123199999Y-72708557D01*
X123199999Y-72708557D02*
X123028570Y-72708557D01*
X123028570Y-72708557D02*
X122942856Y-72751414D01*
X122942856Y-72751414D02*
X122899999Y-72837128D01*
X122899999Y-72837128D02*
X122899999Y-72922842D01*
X122899999Y-72922842D02*
X123328570Y-73008557D01*
X121914284Y-72708557D02*
X121699998Y-73308557D01*
X121699998Y-73308557D02*
X121485713Y-72708557D01*
X120971427Y-72408557D02*
X120885713Y-72408557D01*
X120885713Y-72408557D02*
X120799999Y-72451414D01*
X120799999Y-72451414D02*
X120757142Y-72494271D01*
X120757142Y-72494271D02*
X120714284Y-72579985D01*
X120714284Y-72579985D02*
X120671427Y-72751414D01*
X120671427Y-72751414D02*
X120671427Y-72965700D01*
X120671427Y-72965700D02*
X120714284Y-73137128D01*
X120714284Y-73137128D02*
X120757142Y-73222842D01*
X120757142Y-73222842D02*
X120799999Y-73265700D01*
X120799999Y-73265700D02*
X120885713Y-73308557D01*
X120885713Y-73308557D02*
X120971427Y-73308557D01*
X120971427Y-73308557D02*
X121057142Y-73265700D01*
X121057142Y-73265700D02*
X121099999Y-73222842D01*
X121099999Y-73222842D02*
X121142856Y-73137128D01*
X121142856Y-73137128D02*
X121185713Y-72965700D01*
X121185713Y-72965700D02*
X121185713Y-72751414D01*
X121185713Y-72751414D02*
X121142856Y-72579985D01*
X121142856Y-72579985D02*
X121099999Y-72494271D01*
X121099999Y-72494271D02*
X121057142Y-72451414D01*
X121057142Y-72451414D02*
X120971427Y-72408557D01*
X120285713Y-73222842D02*
X120242856Y-73265700D01*
X120242856Y-73265700D02*
X120285713Y-73308557D01*
X120285713Y-73308557D02*
X120328570Y-73265700D01*
X120328570Y-73265700D02*
X120285713Y-73222842D01*
X120285713Y-73222842D02*
X120285713Y-73308557D01*
X119385713Y-73308557D02*
X119899999Y-73308557D01*
X119642856Y-73308557D02*
X119642856Y-72408557D01*
X119642856Y-72408557D02*
X119728570Y-72537128D01*
X119728570Y-72537128D02*
X119814285Y-72622842D01*
X119814285Y-72622842D02*
X119899999Y-72665700D01*
X117714285Y-72408557D02*
X117114285Y-72408557D01*
X117114285Y-72408557D02*
X117499999Y-73308557D01*
X116385714Y-72708557D02*
X116385714Y-73308557D01*
X116599999Y-72365700D02*
X116814285Y-73008557D01*
X116814285Y-73008557D02*
X116257142Y-73008557D01*
X115999999Y-73308557D02*
X115528571Y-72708557D01*
X115999999Y-72708557D02*
X115528571Y-73308557D01*
X115014285Y-72408557D02*
X114928571Y-72408557D01*
X114928571Y-72408557D02*
X114842857Y-72451414D01*
X114842857Y-72451414D02*
X114800000Y-72494271D01*
X114800000Y-72494271D02*
X114757142Y-72579985D01*
X114757142Y-72579985D02*
X114714285Y-72751414D01*
X114714285Y-72751414D02*
X114714285Y-72965700D01*
X114714285Y-72965700D02*
X114757142Y-73137128D01*
X114757142Y-73137128D02*
X114800000Y-73222842D01*
X114800000Y-73222842D02*
X114842857Y-73265700D01*
X114842857Y-73265700D02*
X114928571Y-73308557D01*
X114928571Y-73308557D02*
X115014285Y-73308557D01*
X115014285Y-73308557D02*
X115100000Y-73265700D01*
X115100000Y-73265700D02*
X115142857Y-73222842D01*
X115142857Y-73222842D02*
X115185714Y-73137128D01*
X115185714Y-73137128D02*
X115228571Y-72965700D01*
X115228571Y-72965700D02*
X115228571Y-72751414D01*
X115228571Y-72751414D02*
X115185714Y-72579985D01*
X115185714Y-72579985D02*
X115142857Y-72494271D01*
X115142857Y-72494271D02*
X115100000Y-72451414D01*
X115100000Y-72451414D02*
X115014285Y-72408557D01*
X113942857Y-72708557D02*
X113942857Y-73308557D01*
X114157142Y-72365700D02*
X114371428Y-73008557D01*
X114371428Y-73008557D02*
X113814285Y-73008557D01*
X131428571Y-73808556D02*
X131342857Y-73808556D01*
X131342857Y-73808556D02*
X131257143Y-73851413D01*
X131257143Y-73851413D02*
X131214286Y-73894270D01*
X131214286Y-73894270D02*
X131171428Y-73979984D01*
X131171428Y-73979984D02*
X131128571Y-74151413D01*
X131128571Y-74151413D02*
X131128571Y-74365699D01*
X131128571Y-74365699D02*
X131171428Y-74537127D01*
X131171428Y-74537127D02*
X131214286Y-74622841D01*
X131214286Y-74622841D02*
X131257143Y-74665699D01*
X131257143Y-74665699D02*
X131342857Y-74708556D01*
X131342857Y-74708556D02*
X131428571Y-74708556D01*
X131428571Y-74708556D02*
X131514286Y-74665699D01*
X131514286Y-74665699D02*
X131557143Y-74622841D01*
X131557143Y-74622841D02*
X131600000Y-74537127D01*
X131600000Y-74537127D02*
X131642857Y-74365699D01*
X131642857Y-74365699D02*
X131642857Y-74151413D01*
X131642857Y-74151413D02*
X131600000Y-73979984D01*
X131600000Y-73979984D02*
X131557143Y-73894270D01*
X131557143Y-73894270D02*
X131514286Y-73851413D01*
X131514286Y-73851413D02*
X131428571Y-73808556D01*
X130271428Y-74708556D02*
X130785714Y-74708556D01*
X130528571Y-74708556D02*
X130528571Y-73808556D01*
X130528571Y-73808556D02*
X130614285Y-73937127D01*
X130614285Y-73937127D02*
X130700000Y-74022841D01*
X130700000Y-74022841D02*
X130785714Y-74065699D01*
X130100000Y-74794270D02*
X129414285Y-74794270D01*
X129200000Y-74708556D02*
X129200000Y-73808556D01*
X129200000Y-74151413D02*
X129114286Y-74108556D01*
X129114286Y-74108556D02*
X128942857Y-74108556D01*
X128942857Y-74108556D02*
X128857143Y-74151413D01*
X128857143Y-74151413D02*
X128814286Y-74194270D01*
X128814286Y-74194270D02*
X128771428Y-74279984D01*
X128771428Y-74279984D02*
X128771428Y-74537127D01*
X128771428Y-74537127D02*
X128814286Y-74622841D01*
X128814286Y-74622841D02*
X128857143Y-74665699D01*
X128857143Y-74665699D02*
X128942857Y-74708556D01*
X128942857Y-74708556D02*
X129114286Y-74708556D01*
X129114286Y-74708556D02*
X129200000Y-74665699D01*
X128000000Y-74108556D02*
X128000000Y-74708556D01*
X128385714Y-74108556D02*
X128385714Y-74579984D01*
X128385714Y-74579984D02*
X128342857Y-74665699D01*
X128342857Y-74665699D02*
X128257142Y-74708556D01*
X128257142Y-74708556D02*
X128128571Y-74708556D01*
X128128571Y-74708556D02*
X128042857Y-74665699D01*
X128042857Y-74665699D02*
X128000000Y-74622841D01*
X127699999Y-74108556D02*
X127357142Y-74108556D01*
X127571428Y-74708556D02*
X127571428Y-73937127D01*
X127571428Y-73937127D02*
X127528571Y-73851413D01*
X127528571Y-73851413D02*
X127442856Y-73808556D01*
X127442856Y-73808556D02*
X127357142Y-73808556D01*
X127185713Y-74108556D02*
X126842856Y-74108556D01*
X127057142Y-74708556D02*
X127057142Y-73937127D01*
X127057142Y-73937127D02*
X127014285Y-73851413D01*
X127014285Y-73851413D02*
X126928570Y-73808556D01*
X126928570Y-73808556D02*
X126842856Y-73808556D01*
X126199999Y-74665699D02*
X126285713Y-74708556D01*
X126285713Y-74708556D02*
X126457142Y-74708556D01*
X126457142Y-74708556D02*
X126542856Y-74665699D01*
X126542856Y-74665699D02*
X126585713Y-74579984D01*
X126585713Y-74579984D02*
X126585713Y-74237127D01*
X126585713Y-74237127D02*
X126542856Y-74151413D01*
X126542856Y-74151413D02*
X126457142Y-74108556D01*
X126457142Y-74108556D02*
X126285713Y-74108556D01*
X126285713Y-74108556D02*
X126199999Y-74151413D01*
X126199999Y-74151413D02*
X126157142Y-74237127D01*
X126157142Y-74237127D02*
X126157142Y-74322841D01*
X126157142Y-74322841D02*
X126585713Y-74408556D01*
X125771427Y-74708556D02*
X125771427Y-74108556D01*
X125771427Y-74279984D02*
X125728570Y-74194270D01*
X125728570Y-74194270D02*
X125685713Y-74151413D01*
X125685713Y-74151413D02*
X125599998Y-74108556D01*
X125599998Y-74108556D02*
X125514284Y-74108556D01*
X125257141Y-74665699D02*
X125171427Y-74708556D01*
X125171427Y-74708556D02*
X124999998Y-74708556D01*
X124999998Y-74708556D02*
X124914284Y-74665699D01*
X124914284Y-74665699D02*
X124871427Y-74579984D01*
X124871427Y-74579984D02*
X124871427Y-74537127D01*
X124871427Y-74537127D02*
X124914284Y-74451413D01*
X124914284Y-74451413D02*
X124999998Y-74408556D01*
X124999998Y-74408556D02*
X125128570Y-74408556D01*
X125128570Y-74408556D02*
X125214284Y-74365699D01*
X125214284Y-74365699D02*
X125257141Y-74279984D01*
X125257141Y-74279984D02*
X125257141Y-74237127D01*
X125257141Y-74237127D02*
X125214284Y-74151413D01*
X125214284Y-74151413D02*
X125128570Y-74108556D01*
X125128570Y-74108556D02*
X124999998Y-74108556D01*
X124999998Y-74108556D02*
X124914284Y-74151413D01*
X124699999Y-74794270D02*
X124014284Y-74794270D01*
X123799999Y-74708556D02*
X123799999Y-74108556D01*
X123799999Y-73808556D02*
X123842856Y-73851413D01*
X123842856Y-73851413D02*
X123799999Y-73894270D01*
X123799999Y-73894270D02*
X123757142Y-73851413D01*
X123757142Y-73851413D02*
X123799999Y-73808556D01*
X123799999Y-73808556D02*
X123799999Y-73894270D01*
X123371428Y-74108556D02*
X123371428Y-74708556D01*
X123371428Y-74194270D02*
X123328571Y-74151413D01*
X123328571Y-74151413D02*
X123242856Y-74108556D01*
X123242856Y-74108556D02*
X123114285Y-74108556D01*
X123114285Y-74108556D02*
X123028571Y-74151413D01*
X123028571Y-74151413D02*
X122985714Y-74237127D01*
X122985714Y-74237127D02*
X122985714Y-74708556D01*
X122642856Y-74108556D02*
X122428570Y-74708556D01*
X122428570Y-74708556D02*
X122214285Y-74108556D01*
X121528571Y-74665699D02*
X121614285Y-74708556D01*
X121614285Y-74708556D02*
X121785714Y-74708556D01*
X121785714Y-74708556D02*
X121871428Y-74665699D01*
X121871428Y-74665699D02*
X121914285Y-74579984D01*
X121914285Y-74579984D02*
X121914285Y-74237127D01*
X121914285Y-74237127D02*
X121871428Y-74151413D01*
X121871428Y-74151413D02*
X121785714Y-74108556D01*
X121785714Y-74108556D02*
X121614285Y-74108556D01*
X121614285Y-74108556D02*
X121528571Y-74151413D01*
X121528571Y-74151413D02*
X121485714Y-74237127D01*
X121485714Y-74237127D02*
X121485714Y-74322841D01*
X121485714Y-74322841D02*
X121914285Y-74408556D01*
X121099999Y-74708556D02*
X121099999Y-74108556D01*
X121099999Y-74279984D02*
X121057142Y-74194270D01*
X121057142Y-74194270D02*
X121014285Y-74151413D01*
X121014285Y-74151413D02*
X120928570Y-74108556D01*
X120928570Y-74108556D02*
X120842856Y-74108556D01*
X120671427Y-74108556D02*
X120328570Y-74108556D01*
X120542856Y-73808556D02*
X120542856Y-74579984D01*
X120542856Y-74579984D02*
X120499999Y-74665699D01*
X120499999Y-74665699D02*
X120414284Y-74708556D01*
X120414284Y-74708556D02*
X120328570Y-74708556D01*
X119685713Y-74665699D02*
X119771427Y-74708556D01*
X119771427Y-74708556D02*
X119942856Y-74708556D01*
X119942856Y-74708556D02*
X120028570Y-74665699D01*
X120028570Y-74665699D02*
X120071427Y-74579984D01*
X120071427Y-74579984D02*
X120071427Y-74237127D01*
X120071427Y-74237127D02*
X120028570Y-74151413D01*
X120028570Y-74151413D02*
X119942856Y-74108556D01*
X119942856Y-74108556D02*
X119771427Y-74108556D01*
X119771427Y-74108556D02*
X119685713Y-74151413D01*
X119685713Y-74151413D02*
X119642856Y-74237127D01*
X119642856Y-74237127D02*
X119642856Y-74322841D01*
X119642856Y-74322841D02*
X120071427Y-74408556D01*
X119257141Y-74708556D02*
X119257141Y-74108556D01*
X119257141Y-74279984D02*
X119214284Y-74194270D01*
X119214284Y-74194270D02*
X119171427Y-74151413D01*
X119171427Y-74151413D02*
X119085712Y-74108556D01*
X119085712Y-74108556D02*
X118999998Y-74108556D01*
X118742855Y-74665699D02*
X118657141Y-74708556D01*
X118657141Y-74708556D02*
X118485712Y-74708556D01*
X118485712Y-74708556D02*
X118399998Y-74665699D01*
X118399998Y-74665699D02*
X118357141Y-74579984D01*
X118357141Y-74579984D02*
X118357141Y-74537127D01*
X118357141Y-74537127D02*
X118399998Y-74451413D01*
X118399998Y-74451413D02*
X118485712Y-74408556D01*
X118485712Y-74408556D02*
X118614284Y-74408556D01*
X118614284Y-74408556D02*
X118699998Y-74365699D01*
X118699998Y-74365699D02*
X118742855Y-74279984D01*
X118742855Y-74279984D02*
X118742855Y-74237127D01*
X118742855Y-74237127D02*
X118699998Y-74151413D01*
X118699998Y-74151413D02*
X118614284Y-74108556D01*
X118614284Y-74108556D02*
X118485712Y-74108556D01*
X118485712Y-74108556D02*
X118399998Y-74151413D01*
X128707142Y-76108557D02*
X128707142Y-75208557D01*
X128707142Y-75208557D02*
X128407142Y-75851414D01*
X128407142Y-75851414D02*
X128107142Y-75208557D01*
X128107142Y-75208557D02*
X128107142Y-76108557D01*
X127678571Y-76108557D02*
X127678571Y-75208557D01*
X127378571Y-75208557D02*
X126864286Y-75208557D01*
X127121428Y-76108557D02*
X127121428Y-75208557D01*
X125450000Y-76108557D02*
X125878572Y-76108557D01*
X125878572Y-76108557D02*
X125878572Y-75208557D01*
X125150001Y-76108557D02*
X125150001Y-75508557D01*
X125150001Y-75208557D02*
X125192858Y-75251414D01*
X125192858Y-75251414D02*
X125150001Y-75294271D01*
X125150001Y-75294271D02*
X125107144Y-75251414D01*
X125107144Y-75251414D02*
X125150001Y-75208557D01*
X125150001Y-75208557D02*
X125150001Y-75294271D01*
X124335716Y-76065700D02*
X124421430Y-76108557D01*
X124421430Y-76108557D02*
X124592858Y-76108557D01*
X124592858Y-76108557D02*
X124678573Y-76065700D01*
X124678573Y-76065700D02*
X124721430Y-76022842D01*
X124721430Y-76022842D02*
X124764287Y-75937128D01*
X124764287Y-75937128D02*
X124764287Y-75679985D01*
X124764287Y-75679985D02*
X124721430Y-75594271D01*
X124721430Y-75594271D02*
X124678573Y-75551414D01*
X124678573Y-75551414D02*
X124592858Y-75508557D01*
X124592858Y-75508557D02*
X124421430Y-75508557D01*
X124421430Y-75508557D02*
X124335716Y-75551414D01*
X123607144Y-76065700D02*
X123692858Y-76108557D01*
X123692858Y-76108557D02*
X123864287Y-76108557D01*
X123864287Y-76108557D02*
X123950001Y-76065700D01*
X123950001Y-76065700D02*
X123992858Y-75979985D01*
X123992858Y-75979985D02*
X123992858Y-75637128D01*
X123992858Y-75637128D02*
X123950001Y-75551414D01*
X123950001Y-75551414D02*
X123864287Y-75508557D01*
X123864287Y-75508557D02*
X123692858Y-75508557D01*
X123692858Y-75508557D02*
X123607144Y-75551414D01*
X123607144Y-75551414D02*
X123564287Y-75637128D01*
X123564287Y-75637128D02*
X123564287Y-75722842D01*
X123564287Y-75722842D02*
X123992858Y-75808557D01*
X123178572Y-75508557D02*
X123178572Y-76108557D01*
X123178572Y-75594271D02*
X123135715Y-75551414D01*
X123135715Y-75551414D02*
X123050000Y-75508557D01*
X123050000Y-75508557D02*
X122921429Y-75508557D01*
X122921429Y-75508557D02*
X122835715Y-75551414D01*
X122835715Y-75551414D02*
X122792858Y-75637128D01*
X122792858Y-75637128D02*
X122792858Y-76108557D01*
X122407143Y-76065700D02*
X122321429Y-76108557D01*
X122321429Y-76108557D02*
X122150000Y-76108557D01*
X122150000Y-76108557D02*
X122064286Y-76065700D01*
X122064286Y-76065700D02*
X122021429Y-75979985D01*
X122021429Y-75979985D02*
X122021429Y-75937128D01*
X122021429Y-75937128D02*
X122064286Y-75851414D01*
X122064286Y-75851414D02*
X122150000Y-75808557D01*
X122150000Y-75808557D02*
X122278572Y-75808557D01*
X122278572Y-75808557D02*
X122364286Y-75765700D01*
X122364286Y-75765700D02*
X122407143Y-75679985D01*
X122407143Y-75679985D02*
X122407143Y-75637128D01*
X122407143Y-75637128D02*
X122364286Y-75551414D01*
X122364286Y-75551414D02*
X122278572Y-75508557D01*
X122278572Y-75508557D02*
X122150000Y-75508557D01*
X122150000Y-75508557D02*
X122064286Y-75551414D01*
X121292858Y-76065700D02*
X121378572Y-76108557D01*
X121378572Y-76108557D02*
X121550001Y-76108557D01*
X121550001Y-76108557D02*
X121635715Y-76065700D01*
X121635715Y-76065700D02*
X121678572Y-75979985D01*
X121678572Y-75979985D02*
X121678572Y-75637128D01*
X121678572Y-75637128D02*
X121635715Y-75551414D01*
X121635715Y-75551414D02*
X121550001Y-75508557D01*
X121550001Y-75508557D02*
X121378572Y-75508557D01*
X121378572Y-75508557D02*
X121292858Y-75551414D01*
X121292858Y-75551414D02*
X121250001Y-75637128D01*
X121250001Y-75637128D02*
X121250001Y-75722842D01*
X121250001Y-75722842D02*
X121678572Y-75808557D01*
X136614285Y-122408557D02*
X136014285Y-122408557D01*
X136014285Y-122408557D02*
X136399999Y-123308557D01*
X135285714Y-122708557D02*
X135285714Y-123308557D01*
X135499999Y-122365700D02*
X135714285Y-123008557D01*
X135714285Y-123008557D02*
X135157142Y-123008557D01*
X134642856Y-122408557D02*
X134557142Y-122408557D01*
X134557142Y-122408557D02*
X134471428Y-122451414D01*
X134471428Y-122451414D02*
X134428571Y-122494271D01*
X134428571Y-122494271D02*
X134385713Y-122579985D01*
X134385713Y-122579985D02*
X134342856Y-122751414D01*
X134342856Y-122751414D02*
X134342856Y-122965700D01*
X134342856Y-122965700D02*
X134385713Y-123137128D01*
X134385713Y-123137128D02*
X134428571Y-123222842D01*
X134428571Y-123222842D02*
X134471428Y-123265700D01*
X134471428Y-123265700D02*
X134557142Y-123308557D01*
X134557142Y-123308557D02*
X134642856Y-123308557D01*
X134642856Y-123308557D02*
X134728571Y-123265700D01*
X134728571Y-123265700D02*
X134771428Y-123222842D01*
X134771428Y-123222842D02*
X134814285Y-123137128D01*
X134814285Y-123137128D02*
X134857142Y-122965700D01*
X134857142Y-122965700D02*
X134857142Y-122751414D01*
X134857142Y-122751414D02*
X134814285Y-122579985D01*
X134814285Y-122579985D02*
X134771428Y-122494271D01*
X134771428Y-122494271D02*
X134728571Y-122451414D01*
X134728571Y-122451414D02*
X134642856Y-122408557D01*
X133785713Y-122408557D02*
X133699999Y-122408557D01*
X133699999Y-122408557D02*
X133614285Y-122451414D01*
X133614285Y-122451414D02*
X133571428Y-122494271D01*
X133571428Y-122494271D02*
X133528570Y-122579985D01*
X133528570Y-122579985D02*
X133485713Y-122751414D01*
X133485713Y-122751414D02*
X133485713Y-122965700D01*
X133485713Y-122965700D02*
X133528570Y-123137128D01*
X133528570Y-123137128D02*
X133571428Y-123222842D01*
X133571428Y-123222842D02*
X133614285Y-123265700D01*
X133614285Y-123265700D02*
X133699999Y-123308557D01*
X133699999Y-123308557D02*
X133785713Y-123308557D01*
X133785713Y-123308557D02*
X133871428Y-123265700D01*
X133871428Y-123265700D02*
X133914285Y-123222842D01*
X133914285Y-123222842D02*
X133957142Y-123137128D01*
X133957142Y-123137128D02*
X133999999Y-122965700D01*
X133999999Y-122965700D02*
X133999999Y-122751414D01*
X133999999Y-122751414D02*
X133957142Y-122579985D01*
X133957142Y-122579985D02*
X133914285Y-122494271D01*
X133914285Y-122494271D02*
X133871428Y-122451414D01*
X133871428Y-122451414D02*
X133785713Y-122408557D01*
X132457142Y-123265700D02*
X132328571Y-123308557D01*
X132328571Y-123308557D02*
X132114285Y-123308557D01*
X132114285Y-123308557D02*
X132028571Y-123265700D01*
X132028571Y-123265700D02*
X131985713Y-123222842D01*
X131985713Y-123222842D02*
X131942856Y-123137128D01*
X131942856Y-123137128D02*
X131942856Y-123051414D01*
X131942856Y-123051414D02*
X131985713Y-122965700D01*
X131985713Y-122965700D02*
X132028571Y-122922842D01*
X132028571Y-122922842D02*
X132114285Y-122879985D01*
X132114285Y-122879985D02*
X132285713Y-122837128D01*
X132285713Y-122837128D02*
X132371428Y-122794271D01*
X132371428Y-122794271D02*
X132414285Y-122751414D01*
X132414285Y-122751414D02*
X132457142Y-122665700D01*
X132457142Y-122665700D02*
X132457142Y-122579985D01*
X132457142Y-122579985D02*
X132414285Y-122494271D01*
X132414285Y-122494271D02*
X132371428Y-122451414D01*
X132371428Y-122451414D02*
X132285713Y-122408557D01*
X132285713Y-122408557D02*
X132071428Y-122408557D01*
X132071428Y-122408557D02*
X131942856Y-122451414D01*
X131557142Y-122708557D02*
X131557142Y-123608557D01*
X131557142Y-122751414D02*
X131471428Y-122708557D01*
X131471428Y-122708557D02*
X131299999Y-122708557D01*
X131299999Y-122708557D02*
X131214285Y-122751414D01*
X131214285Y-122751414D02*
X131171428Y-122794271D01*
X131171428Y-122794271D02*
X131128570Y-122879985D01*
X131128570Y-122879985D02*
X131128570Y-123137128D01*
X131128570Y-123137128D02*
X131171428Y-123222842D01*
X131171428Y-123222842D02*
X131214285Y-123265700D01*
X131214285Y-123265700D02*
X131299999Y-123308557D01*
X131299999Y-123308557D02*
X131471428Y-123308557D01*
X131471428Y-123308557D02*
X131557142Y-123265700D01*
X130399999Y-123265700D02*
X130485713Y-123308557D01*
X130485713Y-123308557D02*
X130657142Y-123308557D01*
X130657142Y-123308557D02*
X130742856Y-123265700D01*
X130742856Y-123265700D02*
X130785713Y-123179985D01*
X130785713Y-123179985D02*
X130785713Y-122837128D01*
X130785713Y-122837128D02*
X130742856Y-122751414D01*
X130742856Y-122751414D02*
X130657142Y-122708557D01*
X130657142Y-122708557D02*
X130485713Y-122708557D01*
X130485713Y-122708557D02*
X130399999Y-122751414D01*
X130399999Y-122751414D02*
X130357142Y-122837128D01*
X130357142Y-122837128D02*
X130357142Y-122922842D01*
X130357142Y-122922842D02*
X130785713Y-123008557D01*
X129585713Y-123265700D02*
X129671427Y-123308557D01*
X129671427Y-123308557D02*
X129842855Y-123308557D01*
X129842855Y-123308557D02*
X129928570Y-123265700D01*
X129928570Y-123265700D02*
X129971427Y-123222842D01*
X129971427Y-123222842D02*
X130014284Y-123137128D01*
X130014284Y-123137128D02*
X130014284Y-122879985D01*
X130014284Y-122879985D02*
X129971427Y-122794271D01*
X129971427Y-122794271D02*
X129928570Y-122751414D01*
X129928570Y-122751414D02*
X129842855Y-122708557D01*
X129842855Y-122708557D02*
X129671427Y-122708557D01*
X129671427Y-122708557D02*
X129585713Y-122751414D01*
X129199998Y-123308557D02*
X129199998Y-122708557D01*
X129199998Y-122408557D02*
X129242855Y-122451414D01*
X129242855Y-122451414D02*
X129199998Y-122494271D01*
X129199998Y-122494271D02*
X129157141Y-122451414D01*
X129157141Y-122451414D02*
X129199998Y-122408557D01*
X129199998Y-122408557D02*
X129199998Y-122494271D01*
X128771427Y-123308557D02*
X128771427Y-122708557D01*
X128771427Y-122794271D02*
X128728570Y-122751414D01*
X128728570Y-122751414D02*
X128642855Y-122708557D01*
X128642855Y-122708557D02*
X128514284Y-122708557D01*
X128514284Y-122708557D02*
X128428570Y-122751414D01*
X128428570Y-122751414D02*
X128385713Y-122837128D01*
X128385713Y-122837128D02*
X128385713Y-123308557D01*
X128385713Y-122837128D02*
X128342855Y-122751414D01*
X128342855Y-122751414D02*
X128257141Y-122708557D01*
X128257141Y-122708557D02*
X128128570Y-122708557D01*
X128128570Y-122708557D02*
X128042855Y-122751414D01*
X128042855Y-122751414D02*
X127999998Y-122837128D01*
X127999998Y-122837128D02*
X127999998Y-123308557D01*
X127228570Y-123265700D02*
X127314284Y-123308557D01*
X127314284Y-123308557D02*
X127485713Y-123308557D01*
X127485713Y-123308557D02*
X127571427Y-123265700D01*
X127571427Y-123265700D02*
X127614284Y-123179985D01*
X127614284Y-123179985D02*
X127614284Y-122837128D01*
X127614284Y-122837128D02*
X127571427Y-122751414D01*
X127571427Y-122751414D02*
X127485713Y-122708557D01*
X127485713Y-122708557D02*
X127314284Y-122708557D01*
X127314284Y-122708557D02*
X127228570Y-122751414D01*
X127228570Y-122751414D02*
X127185713Y-122837128D01*
X127185713Y-122837128D02*
X127185713Y-122922842D01*
X127185713Y-122922842D02*
X127614284Y-123008557D01*
X126799998Y-122708557D02*
X126799998Y-123308557D01*
X126799998Y-122794271D02*
X126757141Y-122751414D01*
X126757141Y-122751414D02*
X126671426Y-122708557D01*
X126671426Y-122708557D02*
X126542855Y-122708557D01*
X126542855Y-122708557D02*
X126457141Y-122751414D01*
X126457141Y-122751414D02*
X126414284Y-122837128D01*
X126414284Y-122837128D02*
X126414284Y-123308557D01*
X125428569Y-122408557D02*
X124914284Y-122408557D01*
X125171426Y-123308557D02*
X125171426Y-122408557D01*
X124614284Y-123308557D02*
X124614284Y-122708557D01*
X124614284Y-122408557D02*
X124657141Y-122451414D01*
X124657141Y-122451414D02*
X124614284Y-122494271D01*
X124614284Y-122494271D02*
X124571427Y-122451414D01*
X124571427Y-122451414D02*
X124614284Y-122408557D01*
X124614284Y-122408557D02*
X124614284Y-122494271D01*
X124057141Y-123308557D02*
X124142856Y-123265700D01*
X124142856Y-123265700D02*
X124185713Y-123179985D01*
X124185713Y-123179985D02*
X124185713Y-122408557D01*
X123371427Y-123265700D02*
X123457141Y-123308557D01*
X123457141Y-123308557D02*
X123628570Y-123308557D01*
X123628570Y-123308557D02*
X123714284Y-123265700D01*
X123714284Y-123265700D02*
X123757141Y-123179985D01*
X123757141Y-123179985D02*
X123757141Y-122837128D01*
X123757141Y-122837128D02*
X123714284Y-122751414D01*
X123714284Y-122751414D02*
X123628570Y-122708557D01*
X123628570Y-122708557D02*
X123457141Y-122708557D01*
X123457141Y-122708557D02*
X123371427Y-122751414D01*
X123371427Y-122751414D02*
X123328570Y-122837128D01*
X123328570Y-122837128D02*
X123328570Y-122922842D01*
X123328570Y-122922842D02*
X123757141Y-123008557D01*
X122342855Y-122708557D02*
X122128569Y-123308557D01*
X122128569Y-123308557D02*
X121914284Y-122708557D01*
X121399998Y-122408557D02*
X121314284Y-122408557D01*
X121314284Y-122408557D02*
X121228570Y-122451414D01*
X121228570Y-122451414D02*
X121185713Y-122494271D01*
X121185713Y-122494271D02*
X121142855Y-122579985D01*
X121142855Y-122579985D02*
X121099998Y-122751414D01*
X121099998Y-122751414D02*
X121099998Y-122965700D01*
X121099998Y-122965700D02*
X121142855Y-123137128D01*
X121142855Y-123137128D02*
X121185713Y-123222842D01*
X121185713Y-123222842D02*
X121228570Y-123265700D01*
X121228570Y-123265700D02*
X121314284Y-123308557D01*
X121314284Y-123308557D02*
X121399998Y-123308557D01*
X121399998Y-123308557D02*
X121485713Y-123265700D01*
X121485713Y-123265700D02*
X121528570Y-123222842D01*
X121528570Y-123222842D02*
X121571427Y-123137128D01*
X121571427Y-123137128D02*
X121614284Y-122965700D01*
X121614284Y-122965700D02*
X121614284Y-122751414D01*
X121614284Y-122751414D02*
X121571427Y-122579985D01*
X121571427Y-122579985D02*
X121528570Y-122494271D01*
X121528570Y-122494271D02*
X121485713Y-122451414D01*
X121485713Y-122451414D02*
X121399998Y-122408557D01*
X120714284Y-123222842D02*
X120671427Y-123265700D01*
X120671427Y-123265700D02*
X120714284Y-123308557D01*
X120714284Y-123308557D02*
X120757141Y-123265700D01*
X120757141Y-123265700D02*
X120714284Y-123222842D01*
X120714284Y-123222842D02*
X120714284Y-123308557D01*
X119814284Y-123308557D02*
X120328570Y-123308557D01*
X120071427Y-123308557D02*
X120071427Y-122408557D01*
X120071427Y-122408557D02*
X120157141Y-122537128D01*
X120157141Y-122537128D02*
X120242856Y-122622842D01*
X120242856Y-122622842D02*
X120328570Y-122665700D01*
X118142856Y-122408557D02*
X117542856Y-122408557D01*
X117542856Y-122408557D02*
X117928570Y-123308557D01*
X116814285Y-122708557D02*
X116814285Y-123308557D01*
X117028570Y-122365700D02*
X117242856Y-123008557D01*
X117242856Y-123008557D02*
X116685713Y-123008557D01*
X116428570Y-123308557D02*
X115957142Y-122708557D01*
X116428570Y-122708557D02*
X115957142Y-123308557D01*
X115142856Y-123308557D02*
X115657142Y-123308557D01*
X115399999Y-123308557D02*
X115399999Y-122408557D01*
X115399999Y-122408557D02*
X115485713Y-122537128D01*
X115485713Y-122537128D02*
X115571428Y-122622842D01*
X115571428Y-122622842D02*
X115657142Y-122665700D01*
X114799999Y-122494271D02*
X114757142Y-122451414D01*
X114757142Y-122451414D02*
X114671428Y-122408557D01*
X114671428Y-122408557D02*
X114457142Y-122408557D01*
X114457142Y-122408557D02*
X114371428Y-122451414D01*
X114371428Y-122451414D02*
X114328570Y-122494271D01*
X114328570Y-122494271D02*
X114285713Y-122579985D01*
X114285713Y-122579985D02*
X114285713Y-122665700D01*
X114285713Y-122665700D02*
X114328570Y-122794271D01*
X114328570Y-122794271D02*
X114842856Y-123308557D01*
X114842856Y-123308557D02*
X114285713Y-123308557D01*
X113471427Y-122408557D02*
X113899999Y-122408557D01*
X113899999Y-122408557D02*
X113942856Y-122837128D01*
X113942856Y-122837128D02*
X113899999Y-122794271D01*
X113899999Y-122794271D02*
X113814285Y-122751414D01*
X113814285Y-122751414D02*
X113599999Y-122751414D01*
X113599999Y-122751414D02*
X113514285Y-122794271D01*
X113514285Y-122794271D02*
X113471427Y-122837128D01*
X113471427Y-122837128D02*
X113428570Y-122922842D01*
X113428570Y-122922842D02*
X113428570Y-123137128D01*
X113428570Y-123137128D02*
X113471427Y-123222842D01*
X113471427Y-123222842D02*
X113514285Y-123265700D01*
X113514285Y-123265700D02*
X113599999Y-123308557D01*
X113599999Y-123308557D02*
X113814285Y-123308557D01*
X113814285Y-123308557D02*
X113899999Y-123265700D01*
X113899999Y-123265700D02*
X113942856Y-123222842D01*
X131428571Y-123808556D02*
X131342857Y-123808556D01*
X131342857Y-123808556D02*
X131257143Y-123851413D01*
X131257143Y-123851413D02*
X131214286Y-123894270D01*
X131214286Y-123894270D02*
X131171428Y-123979984D01*
X131171428Y-123979984D02*
X131128571Y-124151413D01*
X131128571Y-124151413D02*
X131128571Y-124365699D01*
X131128571Y-124365699D02*
X131171428Y-124537127D01*
X131171428Y-124537127D02*
X131214286Y-124622841D01*
X131214286Y-124622841D02*
X131257143Y-124665699D01*
X131257143Y-124665699D02*
X131342857Y-124708556D01*
X131342857Y-124708556D02*
X131428571Y-124708556D01*
X131428571Y-124708556D02*
X131514286Y-124665699D01*
X131514286Y-124665699D02*
X131557143Y-124622841D01*
X131557143Y-124622841D02*
X131600000Y-124537127D01*
X131600000Y-124537127D02*
X131642857Y-124365699D01*
X131642857Y-124365699D02*
X131642857Y-124151413D01*
X131642857Y-124151413D02*
X131600000Y-123979984D01*
X131600000Y-123979984D02*
X131557143Y-123894270D01*
X131557143Y-123894270D02*
X131514286Y-123851413D01*
X131514286Y-123851413D02*
X131428571Y-123808556D01*
X130271428Y-124708556D02*
X130785714Y-124708556D01*
X130528571Y-124708556D02*
X130528571Y-123808556D01*
X130528571Y-123808556D02*
X130614285Y-123937127D01*
X130614285Y-123937127D02*
X130700000Y-124022841D01*
X130700000Y-124022841D02*
X130785714Y-124065699D01*
X130100000Y-124794270D02*
X129414285Y-124794270D01*
X129200000Y-124708556D02*
X129200000Y-123808556D01*
X129200000Y-124151413D02*
X129114286Y-124108556D01*
X129114286Y-124108556D02*
X128942857Y-124108556D01*
X128942857Y-124108556D02*
X128857143Y-124151413D01*
X128857143Y-124151413D02*
X128814286Y-124194270D01*
X128814286Y-124194270D02*
X128771428Y-124279984D01*
X128771428Y-124279984D02*
X128771428Y-124537127D01*
X128771428Y-124537127D02*
X128814286Y-124622841D01*
X128814286Y-124622841D02*
X128857143Y-124665699D01*
X128857143Y-124665699D02*
X128942857Y-124708556D01*
X128942857Y-124708556D02*
X129114286Y-124708556D01*
X129114286Y-124708556D02*
X129200000Y-124665699D01*
X128000000Y-124108556D02*
X128000000Y-124708556D01*
X128385714Y-124108556D02*
X128385714Y-124579984D01*
X128385714Y-124579984D02*
X128342857Y-124665699D01*
X128342857Y-124665699D02*
X128257142Y-124708556D01*
X128257142Y-124708556D02*
X128128571Y-124708556D01*
X128128571Y-124708556D02*
X128042857Y-124665699D01*
X128042857Y-124665699D02*
X128000000Y-124622841D01*
X127699999Y-124108556D02*
X127357142Y-124108556D01*
X127571428Y-124708556D02*
X127571428Y-123937127D01*
X127571428Y-123937127D02*
X127528571Y-123851413D01*
X127528571Y-123851413D02*
X127442856Y-123808556D01*
X127442856Y-123808556D02*
X127357142Y-123808556D01*
X127185713Y-124108556D02*
X126842856Y-124108556D01*
X127057142Y-124708556D02*
X127057142Y-123937127D01*
X127057142Y-123937127D02*
X127014285Y-123851413D01*
X127014285Y-123851413D02*
X126928570Y-123808556D01*
X126928570Y-123808556D02*
X126842856Y-123808556D01*
X126199999Y-124665699D02*
X126285713Y-124708556D01*
X126285713Y-124708556D02*
X126457142Y-124708556D01*
X126457142Y-124708556D02*
X126542856Y-124665699D01*
X126542856Y-124665699D02*
X126585713Y-124579984D01*
X126585713Y-124579984D02*
X126585713Y-124237127D01*
X126585713Y-124237127D02*
X126542856Y-124151413D01*
X126542856Y-124151413D02*
X126457142Y-124108556D01*
X126457142Y-124108556D02*
X126285713Y-124108556D01*
X126285713Y-124108556D02*
X126199999Y-124151413D01*
X126199999Y-124151413D02*
X126157142Y-124237127D01*
X126157142Y-124237127D02*
X126157142Y-124322841D01*
X126157142Y-124322841D02*
X126585713Y-124408556D01*
X125771427Y-124708556D02*
X125771427Y-124108556D01*
X125771427Y-124279984D02*
X125728570Y-124194270D01*
X125728570Y-124194270D02*
X125685713Y-124151413D01*
X125685713Y-124151413D02*
X125599998Y-124108556D01*
X125599998Y-124108556D02*
X125514284Y-124108556D01*
X125257141Y-124665699D02*
X125171427Y-124708556D01*
X125171427Y-124708556D02*
X124999998Y-124708556D01*
X124999998Y-124708556D02*
X124914284Y-124665699D01*
X124914284Y-124665699D02*
X124871427Y-124579984D01*
X124871427Y-124579984D02*
X124871427Y-124537127D01*
X124871427Y-124537127D02*
X124914284Y-124451413D01*
X124914284Y-124451413D02*
X124999998Y-124408556D01*
X124999998Y-124408556D02*
X125128570Y-124408556D01*
X125128570Y-124408556D02*
X125214284Y-124365699D01*
X125214284Y-124365699D02*
X125257141Y-124279984D01*
X125257141Y-124279984D02*
X125257141Y-124237127D01*
X125257141Y-124237127D02*
X125214284Y-124151413D01*
X125214284Y-124151413D02*
X125128570Y-124108556D01*
X125128570Y-124108556D02*
X124999998Y-124108556D01*
X124999998Y-124108556D02*
X124914284Y-124151413D01*
X124699999Y-124794270D02*
X124014284Y-124794270D01*
X123799999Y-124708556D02*
X123799999Y-124108556D01*
X123799999Y-123808556D02*
X123842856Y-123851413D01*
X123842856Y-123851413D02*
X123799999Y-123894270D01*
X123799999Y-123894270D02*
X123757142Y-123851413D01*
X123757142Y-123851413D02*
X123799999Y-123808556D01*
X123799999Y-123808556D02*
X123799999Y-123894270D01*
X123371428Y-124108556D02*
X123371428Y-124708556D01*
X123371428Y-124194270D02*
X123328571Y-124151413D01*
X123328571Y-124151413D02*
X123242856Y-124108556D01*
X123242856Y-124108556D02*
X123114285Y-124108556D01*
X123114285Y-124108556D02*
X123028571Y-124151413D01*
X123028571Y-124151413D02*
X122985714Y-124237127D01*
X122985714Y-124237127D02*
X122985714Y-124708556D01*
X122642856Y-124108556D02*
X122428570Y-124708556D01*
X122428570Y-124708556D02*
X122214285Y-124108556D01*
X121528571Y-124665699D02*
X121614285Y-124708556D01*
X121614285Y-124708556D02*
X121785714Y-124708556D01*
X121785714Y-124708556D02*
X121871428Y-124665699D01*
X121871428Y-124665699D02*
X121914285Y-124579984D01*
X121914285Y-124579984D02*
X121914285Y-124237127D01*
X121914285Y-124237127D02*
X121871428Y-124151413D01*
X121871428Y-124151413D02*
X121785714Y-124108556D01*
X121785714Y-124108556D02*
X121614285Y-124108556D01*
X121614285Y-124108556D02*
X121528571Y-124151413D01*
X121528571Y-124151413D02*
X121485714Y-124237127D01*
X121485714Y-124237127D02*
X121485714Y-124322841D01*
X121485714Y-124322841D02*
X121914285Y-124408556D01*
X121099999Y-124708556D02*
X121099999Y-124108556D01*
X121099999Y-124279984D02*
X121057142Y-124194270D01*
X121057142Y-124194270D02*
X121014285Y-124151413D01*
X121014285Y-124151413D02*
X120928570Y-124108556D01*
X120928570Y-124108556D02*
X120842856Y-124108556D01*
X120671427Y-124108556D02*
X120328570Y-124108556D01*
X120542856Y-123808556D02*
X120542856Y-124579984D01*
X120542856Y-124579984D02*
X120499999Y-124665699D01*
X120499999Y-124665699D02*
X120414284Y-124708556D01*
X120414284Y-124708556D02*
X120328570Y-124708556D01*
X119685713Y-124665699D02*
X119771427Y-124708556D01*
X119771427Y-124708556D02*
X119942856Y-124708556D01*
X119942856Y-124708556D02*
X120028570Y-124665699D01*
X120028570Y-124665699D02*
X120071427Y-124579984D01*
X120071427Y-124579984D02*
X120071427Y-124237127D01*
X120071427Y-124237127D02*
X120028570Y-124151413D01*
X120028570Y-124151413D02*
X119942856Y-124108556D01*
X119942856Y-124108556D02*
X119771427Y-124108556D01*
X119771427Y-124108556D02*
X119685713Y-124151413D01*
X119685713Y-124151413D02*
X119642856Y-124237127D01*
X119642856Y-124237127D02*
X119642856Y-124322841D01*
X119642856Y-124322841D02*
X120071427Y-124408556D01*
X119257141Y-124708556D02*
X119257141Y-124108556D01*
X119257141Y-124279984D02*
X119214284Y-124194270D01*
X119214284Y-124194270D02*
X119171427Y-124151413D01*
X119171427Y-124151413D02*
X119085712Y-124108556D01*
X119085712Y-124108556D02*
X118999998Y-124108556D01*
X118742855Y-124665699D02*
X118657141Y-124708556D01*
X118657141Y-124708556D02*
X118485712Y-124708556D01*
X118485712Y-124708556D02*
X118399998Y-124665699D01*
X118399998Y-124665699D02*
X118357141Y-124579984D01*
X118357141Y-124579984D02*
X118357141Y-124537127D01*
X118357141Y-124537127D02*
X118399998Y-124451413D01*
X118399998Y-124451413D02*
X118485712Y-124408556D01*
X118485712Y-124408556D02*
X118614284Y-124408556D01*
X118614284Y-124408556D02*
X118699998Y-124365699D01*
X118699998Y-124365699D02*
X118742855Y-124279984D01*
X118742855Y-124279984D02*
X118742855Y-124237127D01*
X118742855Y-124237127D02*
X118699998Y-124151413D01*
X118699998Y-124151413D02*
X118614284Y-124108556D01*
X118614284Y-124108556D02*
X118485712Y-124108556D01*
X118485712Y-124108556D02*
X118399998Y-124151413D01*
X128707142Y-126108557D02*
X128707142Y-125208557D01*
X128707142Y-125208557D02*
X128407142Y-125851414D01*
X128407142Y-125851414D02*
X128107142Y-125208557D01*
X128107142Y-125208557D02*
X128107142Y-126108557D01*
X127678571Y-126108557D02*
X127678571Y-125208557D01*
X127378571Y-125208557D02*
X126864286Y-125208557D01*
X127121428Y-126108557D02*
X127121428Y-125208557D01*
X125450000Y-126108557D02*
X125878572Y-126108557D01*
X125878572Y-126108557D02*
X125878572Y-125208557D01*
X125150001Y-126108557D02*
X125150001Y-125508557D01*
X125150001Y-125208557D02*
X125192858Y-125251414D01*
X125192858Y-125251414D02*
X125150001Y-125294271D01*
X125150001Y-125294271D02*
X125107144Y-125251414D01*
X125107144Y-125251414D02*
X125150001Y-125208557D01*
X125150001Y-125208557D02*
X125150001Y-125294271D01*
X124335716Y-126065700D02*
X124421430Y-126108557D01*
X124421430Y-126108557D02*
X124592858Y-126108557D01*
X124592858Y-126108557D02*
X124678573Y-126065700D01*
X124678573Y-126065700D02*
X124721430Y-126022842D01*
X124721430Y-126022842D02*
X124764287Y-125937128D01*
X124764287Y-125937128D02*
X124764287Y-125679985D01*
X124764287Y-125679985D02*
X124721430Y-125594271D01*
X124721430Y-125594271D02*
X124678573Y-125551414D01*
X124678573Y-125551414D02*
X124592858Y-125508557D01*
X124592858Y-125508557D02*
X124421430Y-125508557D01*
X124421430Y-125508557D02*
X124335716Y-125551414D01*
X123607144Y-126065700D02*
X123692858Y-126108557D01*
X123692858Y-126108557D02*
X123864287Y-126108557D01*
X123864287Y-126108557D02*
X123950001Y-126065700D01*
X123950001Y-126065700D02*
X123992858Y-125979985D01*
X123992858Y-125979985D02*
X123992858Y-125637128D01*
X123992858Y-125637128D02*
X123950001Y-125551414D01*
X123950001Y-125551414D02*
X123864287Y-125508557D01*
X123864287Y-125508557D02*
X123692858Y-125508557D01*
X123692858Y-125508557D02*
X123607144Y-125551414D01*
X123607144Y-125551414D02*
X123564287Y-125637128D01*
X123564287Y-125637128D02*
X123564287Y-125722842D01*
X123564287Y-125722842D02*
X123992858Y-125808557D01*
X123178572Y-125508557D02*
X123178572Y-126108557D01*
X123178572Y-125594271D02*
X123135715Y-125551414D01*
X123135715Y-125551414D02*
X123050000Y-125508557D01*
X123050000Y-125508557D02*
X122921429Y-125508557D01*
X122921429Y-125508557D02*
X122835715Y-125551414D01*
X122835715Y-125551414D02*
X122792858Y-125637128D01*
X122792858Y-125637128D02*
X122792858Y-126108557D01*
X122407143Y-126065700D02*
X122321429Y-126108557D01*
X122321429Y-126108557D02*
X122150000Y-126108557D01*
X122150000Y-126108557D02*
X122064286Y-126065700D01*
X122064286Y-126065700D02*
X122021429Y-125979985D01*
X122021429Y-125979985D02*
X122021429Y-125937128D01*
X122021429Y-125937128D02*
X122064286Y-125851414D01*
X122064286Y-125851414D02*
X122150000Y-125808557D01*
X122150000Y-125808557D02*
X122278572Y-125808557D01*
X122278572Y-125808557D02*
X122364286Y-125765700D01*
X122364286Y-125765700D02*
X122407143Y-125679985D01*
X122407143Y-125679985D02*
X122407143Y-125637128D01*
X122407143Y-125637128D02*
X122364286Y-125551414D01*
X122364286Y-125551414D02*
X122278572Y-125508557D01*
X122278572Y-125508557D02*
X122150000Y-125508557D01*
X122150000Y-125508557D02*
X122064286Y-125551414D01*
X121292858Y-126065700D02*
X121378572Y-126108557D01*
X121378572Y-126108557D02*
X121550001Y-126108557D01*
X121550001Y-126108557D02*
X121635715Y-126065700D01*
X121635715Y-126065700D02*
X121678572Y-125979985D01*
X121678572Y-125979985D02*
X121678572Y-125637128D01*
X121678572Y-125637128D02*
X121635715Y-125551414D01*
X121635715Y-125551414D02*
X121550001Y-125508557D01*
X121550001Y-125508557D02*
X121378572Y-125508557D01*
X121378572Y-125508557D02*
X121292858Y-125551414D01*
X121292858Y-125551414D02*
X121250001Y-125637128D01*
X121250001Y-125637128D02*
X121250001Y-125722842D01*
X121250001Y-125722842D02*
X121678572Y-125808557D01*
M02*
