%TF.GenerationSoftware,KiCad,Pcbnew,10.0.3*%
%TF.CreationDate,2026-09-25T12:59:15+09:00*%
%TF.ProjectId,buffers_drivers_panel,62756666-6572-4735-9f64-726976657273,rev?*%
%TF.SameCoordinates,Original*%
%TF.FileFunction,Other,Comment*%
%FSLAX46Y46*%
G04 Gerber Fmt 4.6, Leading zero omitted, Abs format (unit mm)*
G04 Created by KiCad (PCBNEW 10.0.3) date 2026-09-25 12:59:15*
%MOMM*%
%LPD*%
G01*
G04 APERTURE LIST*
%ADD10C,0.400000*%
%ADD11C,0.150000*%
G04 APERTURE END LIST*
D10*
X47000000Y-100000000D02*
X153000000Y-100000000D01*
X100000000Y-47000000D02*
X100000000Y-153000000D01*
X156453633Y-98904438D02*
X157120299Y-100904438D01*
X157120299Y-100904438D02*
X157786966Y-98904438D01*
X158453633Y-100142533D02*
X159977443Y-100142533D01*
X162072680Y-100713961D02*
X161977442Y-100809200D01*
X161977442Y-100809200D02*
X161691728Y-100904438D01*
X161691728Y-100904438D02*
X161501252Y-100904438D01*
X161501252Y-100904438D02*
X161215537Y-100809200D01*
X161215537Y-100809200D02*
X161025061Y-100618723D01*
X161025061Y-100618723D02*
X160929823Y-100428247D01*
X160929823Y-100428247D02*
X160834585Y-100047295D01*
X160834585Y-100047295D02*
X160834585Y-99761580D01*
X160834585Y-99761580D02*
X160929823Y-99380628D01*
X160929823Y-99380628D02*
X161025061Y-99190152D01*
X161025061Y-99190152D02*
X161215537Y-98999676D01*
X161215537Y-98999676D02*
X161501252Y-98904438D01*
X161501252Y-98904438D02*
X161691728Y-98904438D01*
X161691728Y-98904438D02*
X161977442Y-98999676D01*
X161977442Y-98999676D02*
X162072680Y-99094914D01*
X162929823Y-98904438D02*
X162929823Y-100523485D01*
X162929823Y-100523485D02*
X163025061Y-100713961D01*
X163025061Y-100713961D02*
X163120299Y-100809200D01*
X163120299Y-100809200D02*
X163310775Y-100904438D01*
X163310775Y-100904438D02*
X163691728Y-100904438D01*
X163691728Y-100904438D02*
X163882204Y-100809200D01*
X163882204Y-100809200D02*
X163977442Y-100713961D01*
X163977442Y-100713961D02*
X164072680Y-100523485D01*
X164072680Y-100523485D02*
X164072680Y-98904438D01*
X164739347Y-98904438D02*
X165882204Y-98904438D01*
X165310775Y-100904438D02*
X165310775Y-98904438D01*
X169120300Y-100904438D02*
X167977443Y-100904438D01*
X168548871Y-100904438D02*
X168548871Y-98904438D01*
X168548871Y-98904438D02*
X168358395Y-99190152D01*
X168358395Y-99190152D02*
X168167919Y-99380628D01*
X168167919Y-99380628D02*
X167977443Y-99475866D01*
X170358395Y-98904438D02*
X170548872Y-98904438D01*
X170548872Y-98904438D02*
X170739348Y-98999676D01*
X170739348Y-98999676D02*
X170834586Y-99094914D01*
X170834586Y-99094914D02*
X170929824Y-99285390D01*
X170929824Y-99285390D02*
X171025062Y-99666342D01*
X171025062Y-99666342D02*
X171025062Y-100142533D01*
X171025062Y-100142533D02*
X170929824Y-100523485D01*
X170929824Y-100523485D02*
X170834586Y-100713961D01*
X170834586Y-100713961D02*
X170739348Y-100809200D01*
X170739348Y-100809200D02*
X170548872Y-100904438D01*
X170548872Y-100904438D02*
X170358395Y-100904438D01*
X170358395Y-100904438D02*
X170167919Y-100809200D01*
X170167919Y-100809200D02*
X170072681Y-100713961D01*
X170072681Y-100713961D02*
X169977443Y-100523485D01*
X169977443Y-100523485D02*
X169882205Y-100142533D01*
X169882205Y-100142533D02*
X169882205Y-99666342D01*
X169882205Y-99666342D02*
X169977443Y-99285390D01*
X169977443Y-99285390D02*
X170072681Y-99094914D01*
X170072681Y-99094914D02*
X170167919Y-98999676D01*
X170167919Y-98999676D02*
X170358395Y-98904438D01*
X172263157Y-98904438D02*
X172453634Y-98904438D01*
X172453634Y-98904438D02*
X172644110Y-98999676D01*
X172644110Y-98999676D02*
X172739348Y-99094914D01*
X172739348Y-99094914D02*
X172834586Y-99285390D01*
X172834586Y-99285390D02*
X172929824Y-99666342D01*
X172929824Y-99666342D02*
X172929824Y-100142533D01*
X172929824Y-100142533D02*
X172834586Y-100523485D01*
X172834586Y-100523485D02*
X172739348Y-100713961D01*
X172739348Y-100713961D02*
X172644110Y-100809200D01*
X172644110Y-100809200D02*
X172453634Y-100904438D01*
X172453634Y-100904438D02*
X172263157Y-100904438D01*
X172263157Y-100904438D02*
X172072681Y-100809200D01*
X172072681Y-100809200D02*
X171977443Y-100713961D01*
X171977443Y-100713961D02*
X171882205Y-100523485D01*
X171882205Y-100523485D02*
X171786967Y-100142533D01*
X171786967Y-100142533D02*
X171786967Y-99666342D01*
X171786967Y-99666342D02*
X171882205Y-99285390D01*
X171882205Y-99285390D02*
X171977443Y-99094914D01*
X171977443Y-99094914D02*
X172072681Y-98999676D01*
X172072681Y-98999676D02*
X172263157Y-98904438D01*
X173786967Y-100713961D02*
X173882205Y-100809200D01*
X173882205Y-100809200D02*
X173786967Y-100904438D01*
X173786967Y-100904438D02*
X173691729Y-100809200D01*
X173691729Y-100809200D02*
X173786967Y-100713961D01*
X173786967Y-100713961D02*
X173786967Y-100904438D01*
X175120300Y-98904438D02*
X175310777Y-98904438D01*
X175310777Y-98904438D02*
X175501253Y-98999676D01*
X175501253Y-98999676D02*
X175596491Y-99094914D01*
X175596491Y-99094914D02*
X175691729Y-99285390D01*
X175691729Y-99285390D02*
X175786967Y-99666342D01*
X175786967Y-99666342D02*
X175786967Y-100142533D01*
X175786967Y-100142533D02*
X175691729Y-100523485D01*
X175691729Y-100523485D02*
X175596491Y-100713961D01*
X175596491Y-100713961D02*
X175501253Y-100809200D01*
X175501253Y-100809200D02*
X175310777Y-100904438D01*
X175310777Y-100904438D02*
X175120300Y-100904438D01*
X175120300Y-100904438D02*
X174929824Y-100809200D01*
X174929824Y-100809200D02*
X174834586Y-100713961D01*
X174834586Y-100713961D02*
X174739348Y-100523485D01*
X174739348Y-100523485D02*
X174644110Y-100142533D01*
X174644110Y-100142533D02*
X174644110Y-99666342D01*
X174644110Y-99666342D02*
X174739348Y-99285390D01*
X174739348Y-99285390D02*
X174834586Y-99094914D01*
X174834586Y-99094914D02*
X174929824Y-98999676D01*
X174929824Y-98999676D02*
X175120300Y-98904438D01*
X177025062Y-98904438D02*
X177215539Y-98904438D01*
X177215539Y-98904438D02*
X177406015Y-98999676D01*
X177406015Y-98999676D02*
X177501253Y-99094914D01*
X177501253Y-99094914D02*
X177596491Y-99285390D01*
X177596491Y-99285390D02*
X177691729Y-99666342D01*
X177691729Y-99666342D02*
X177691729Y-100142533D01*
X177691729Y-100142533D02*
X177596491Y-100523485D01*
X177596491Y-100523485D02*
X177501253Y-100713961D01*
X177501253Y-100713961D02*
X177406015Y-100809200D01*
X177406015Y-100809200D02*
X177215539Y-100904438D01*
X177215539Y-100904438D02*
X177025062Y-100904438D01*
X177025062Y-100904438D02*
X176834586Y-100809200D01*
X176834586Y-100809200D02*
X176739348Y-100713961D01*
X176739348Y-100713961D02*
X176644110Y-100523485D01*
X176644110Y-100523485D02*
X176548872Y-100142533D01*
X176548872Y-100142533D02*
X176548872Y-99666342D01*
X176548872Y-99666342D02*
X176644110Y-99285390D01*
X176644110Y-99285390D02*
X176739348Y-99094914D01*
X176739348Y-99094914D02*
X176834586Y-98999676D01*
X176834586Y-98999676D02*
X177025062Y-98904438D01*
X180072682Y-100904438D02*
X180072682Y-99571104D01*
X180072682Y-99761580D02*
X180167920Y-99666342D01*
X180167920Y-99666342D02*
X180358396Y-99571104D01*
X180358396Y-99571104D02*
X180644111Y-99571104D01*
X180644111Y-99571104D02*
X180834587Y-99666342D01*
X180834587Y-99666342D02*
X180929825Y-99856819D01*
X180929825Y-99856819D02*
X180929825Y-100904438D01*
X180929825Y-99856819D02*
X181025063Y-99666342D01*
X181025063Y-99666342D02*
X181215539Y-99571104D01*
X181215539Y-99571104D02*
X181501253Y-99571104D01*
X181501253Y-99571104D02*
X181691730Y-99666342D01*
X181691730Y-99666342D02*
X181786968Y-99856819D01*
X181786968Y-99856819D02*
X181786968Y-100904438D01*
X182739349Y-100904438D02*
X182739349Y-99571104D01*
X182739349Y-99761580D02*
X182834587Y-99666342D01*
X182834587Y-99666342D02*
X183025063Y-99571104D01*
X183025063Y-99571104D02*
X183310778Y-99571104D01*
X183310778Y-99571104D02*
X183501254Y-99666342D01*
X183501254Y-99666342D02*
X183596492Y-99856819D01*
X183596492Y-99856819D02*
X183596492Y-100904438D01*
X183596492Y-99856819D02*
X183691730Y-99666342D01*
X183691730Y-99666342D02*
X183882206Y-99571104D01*
X183882206Y-99571104D02*
X184167920Y-99571104D01*
X184167920Y-99571104D02*
X184358397Y-99666342D01*
X184358397Y-99666342D02*
X184453635Y-99856819D01*
X184453635Y-99856819D02*
X184453635Y-100904438D01*
X98904438Y-43546366D02*
X100904438Y-42879700D01*
X100904438Y-42879700D02*
X98904438Y-42213033D01*
X100142533Y-41546366D02*
X100142533Y-40022557D01*
X100713961Y-37927319D02*
X100809200Y-38022557D01*
X100809200Y-38022557D02*
X100904438Y-38308271D01*
X100904438Y-38308271D02*
X100904438Y-38498747D01*
X100904438Y-38498747D02*
X100809200Y-38784462D01*
X100809200Y-38784462D02*
X100618723Y-38974938D01*
X100618723Y-38974938D02*
X100428247Y-39070176D01*
X100428247Y-39070176D02*
X100047295Y-39165414D01*
X100047295Y-39165414D02*
X99761580Y-39165414D01*
X99761580Y-39165414D02*
X99380628Y-39070176D01*
X99380628Y-39070176D02*
X99190152Y-38974938D01*
X99190152Y-38974938D02*
X98999676Y-38784462D01*
X98999676Y-38784462D02*
X98904438Y-38498747D01*
X98904438Y-38498747D02*
X98904438Y-38308271D01*
X98904438Y-38308271D02*
X98999676Y-38022557D01*
X98999676Y-38022557D02*
X99094914Y-37927319D01*
X98904438Y-37070176D02*
X100523485Y-37070176D01*
X100523485Y-37070176D02*
X100713961Y-36974938D01*
X100713961Y-36974938D02*
X100809200Y-36879700D01*
X100809200Y-36879700D02*
X100904438Y-36689224D01*
X100904438Y-36689224D02*
X100904438Y-36308271D01*
X100904438Y-36308271D02*
X100809200Y-36117795D01*
X100809200Y-36117795D02*
X100713961Y-36022557D01*
X100713961Y-36022557D02*
X100523485Y-35927319D01*
X100523485Y-35927319D02*
X98904438Y-35927319D01*
X98904438Y-35260652D02*
X98904438Y-34117795D01*
X100904438Y-34689224D02*
X98904438Y-34689224D01*
X100904438Y-30879699D02*
X100904438Y-32022556D01*
X100904438Y-31451128D02*
X98904438Y-31451128D01*
X98904438Y-31451128D02*
X99190152Y-31641604D01*
X99190152Y-31641604D02*
X99380628Y-31832080D01*
X99380628Y-31832080D02*
X99475866Y-32022556D01*
X98904438Y-29641604D02*
X98904438Y-29451127D01*
X98904438Y-29451127D02*
X98999676Y-29260651D01*
X98999676Y-29260651D02*
X99094914Y-29165413D01*
X99094914Y-29165413D02*
X99285390Y-29070175D01*
X99285390Y-29070175D02*
X99666342Y-28974937D01*
X99666342Y-28974937D02*
X100142533Y-28974937D01*
X100142533Y-28974937D02*
X100523485Y-29070175D01*
X100523485Y-29070175D02*
X100713961Y-29165413D01*
X100713961Y-29165413D02*
X100809200Y-29260651D01*
X100809200Y-29260651D02*
X100904438Y-29451127D01*
X100904438Y-29451127D02*
X100904438Y-29641604D01*
X100904438Y-29641604D02*
X100809200Y-29832080D01*
X100809200Y-29832080D02*
X100713961Y-29927318D01*
X100713961Y-29927318D02*
X100523485Y-30022556D01*
X100523485Y-30022556D02*
X100142533Y-30117794D01*
X100142533Y-30117794D02*
X99666342Y-30117794D01*
X99666342Y-30117794D02*
X99285390Y-30022556D01*
X99285390Y-30022556D02*
X99094914Y-29927318D01*
X99094914Y-29927318D02*
X98999676Y-29832080D01*
X98999676Y-29832080D02*
X98904438Y-29641604D01*
X98904438Y-27736842D02*
X98904438Y-27546365D01*
X98904438Y-27546365D02*
X98999676Y-27355889D01*
X98999676Y-27355889D02*
X99094914Y-27260651D01*
X99094914Y-27260651D02*
X99285390Y-27165413D01*
X99285390Y-27165413D02*
X99666342Y-27070175D01*
X99666342Y-27070175D02*
X100142533Y-27070175D01*
X100142533Y-27070175D02*
X100523485Y-27165413D01*
X100523485Y-27165413D02*
X100713961Y-27260651D01*
X100713961Y-27260651D02*
X100809200Y-27355889D01*
X100809200Y-27355889D02*
X100904438Y-27546365D01*
X100904438Y-27546365D02*
X100904438Y-27736842D01*
X100904438Y-27736842D02*
X100809200Y-27927318D01*
X100809200Y-27927318D02*
X100713961Y-28022556D01*
X100713961Y-28022556D02*
X100523485Y-28117794D01*
X100523485Y-28117794D02*
X100142533Y-28213032D01*
X100142533Y-28213032D02*
X99666342Y-28213032D01*
X99666342Y-28213032D02*
X99285390Y-28117794D01*
X99285390Y-28117794D02*
X99094914Y-28022556D01*
X99094914Y-28022556D02*
X98999676Y-27927318D01*
X98999676Y-27927318D02*
X98904438Y-27736842D01*
X100713961Y-26213032D02*
X100809200Y-26117794D01*
X100809200Y-26117794D02*
X100904438Y-26213032D01*
X100904438Y-26213032D02*
X100809200Y-26308270D01*
X100809200Y-26308270D02*
X100713961Y-26213032D01*
X100713961Y-26213032D02*
X100904438Y-26213032D01*
X98904438Y-24879699D02*
X98904438Y-24689222D01*
X98904438Y-24689222D02*
X98999676Y-24498746D01*
X98999676Y-24498746D02*
X99094914Y-24403508D01*
X99094914Y-24403508D02*
X99285390Y-24308270D01*
X99285390Y-24308270D02*
X99666342Y-24213032D01*
X99666342Y-24213032D02*
X100142533Y-24213032D01*
X100142533Y-24213032D02*
X100523485Y-24308270D01*
X100523485Y-24308270D02*
X100713961Y-24403508D01*
X100713961Y-24403508D02*
X100809200Y-24498746D01*
X100809200Y-24498746D02*
X100904438Y-24689222D01*
X100904438Y-24689222D02*
X100904438Y-24879699D01*
X100904438Y-24879699D02*
X100809200Y-25070175D01*
X100809200Y-25070175D02*
X100713961Y-25165413D01*
X100713961Y-25165413D02*
X100523485Y-25260651D01*
X100523485Y-25260651D02*
X100142533Y-25355889D01*
X100142533Y-25355889D02*
X99666342Y-25355889D01*
X99666342Y-25355889D02*
X99285390Y-25260651D01*
X99285390Y-25260651D02*
X99094914Y-25165413D01*
X99094914Y-25165413D02*
X98999676Y-25070175D01*
X98999676Y-25070175D02*
X98904438Y-24879699D01*
X98904438Y-22974937D02*
X98904438Y-22784460D01*
X98904438Y-22784460D02*
X98999676Y-22593984D01*
X98999676Y-22593984D02*
X99094914Y-22498746D01*
X99094914Y-22498746D02*
X99285390Y-22403508D01*
X99285390Y-22403508D02*
X99666342Y-22308270D01*
X99666342Y-22308270D02*
X100142533Y-22308270D01*
X100142533Y-22308270D02*
X100523485Y-22403508D01*
X100523485Y-22403508D02*
X100713961Y-22498746D01*
X100713961Y-22498746D02*
X100809200Y-22593984D01*
X100809200Y-22593984D02*
X100904438Y-22784460D01*
X100904438Y-22784460D02*
X100904438Y-22974937D01*
X100904438Y-22974937D02*
X100809200Y-23165413D01*
X100809200Y-23165413D02*
X100713961Y-23260651D01*
X100713961Y-23260651D02*
X100523485Y-23355889D01*
X100523485Y-23355889D02*
X100142533Y-23451127D01*
X100142533Y-23451127D02*
X99666342Y-23451127D01*
X99666342Y-23451127D02*
X99285390Y-23355889D01*
X99285390Y-23355889D02*
X99094914Y-23260651D01*
X99094914Y-23260651D02*
X98999676Y-23165413D01*
X98999676Y-23165413D02*
X98904438Y-22974937D01*
X100904438Y-19927317D02*
X99571104Y-19927317D01*
X99761580Y-19927317D02*
X99666342Y-19832079D01*
X99666342Y-19832079D02*
X99571104Y-19641603D01*
X99571104Y-19641603D02*
X99571104Y-19355888D01*
X99571104Y-19355888D02*
X99666342Y-19165412D01*
X99666342Y-19165412D02*
X99856819Y-19070174D01*
X99856819Y-19070174D02*
X100904438Y-19070174D01*
X99856819Y-19070174D02*
X99666342Y-18974936D01*
X99666342Y-18974936D02*
X99571104Y-18784460D01*
X99571104Y-18784460D02*
X99571104Y-18498746D01*
X99571104Y-18498746D02*
X99666342Y-18308269D01*
X99666342Y-18308269D02*
X99856819Y-18213031D01*
X99856819Y-18213031D02*
X100904438Y-18213031D01*
X100904438Y-17260650D02*
X99571104Y-17260650D01*
X99761580Y-17260650D02*
X99666342Y-17165412D01*
X99666342Y-17165412D02*
X99571104Y-16974936D01*
X99571104Y-16974936D02*
X99571104Y-16689221D01*
X99571104Y-16689221D02*
X99666342Y-16498745D01*
X99666342Y-16498745D02*
X99856819Y-16403507D01*
X99856819Y-16403507D02*
X100904438Y-16403507D01*
X99856819Y-16403507D02*
X99666342Y-16308269D01*
X99666342Y-16308269D02*
X99571104Y-16117793D01*
X99571104Y-16117793D02*
X99571104Y-15832079D01*
X99571104Y-15832079D02*
X99666342Y-15641602D01*
X99666342Y-15641602D02*
X99856819Y-15546364D01*
X99856819Y-15546364D02*
X100904438Y-15546364D01*
%TO.C,D_MTG1*%
D11*
X105700000Y-125000000D02*
G75*
G02*
X101300000Y-125000000I-2200000J0D01*
G01*
X101300000Y-125000000D02*
G75*
G02*
X105700000Y-125000000I2200000J0D01*
G01*
%TO.C,A_MTG2*%
X98700000Y-75000000D02*
G75*
G02*
X94300000Y-75000000I-2200000J0D01*
G01*
X94300000Y-75000000D02*
G75*
G02*
X98700000Y-75000000I2200000J0D01*
G01*
%TO.C,A_MTG1*%
X55700000Y-75000000D02*
G75*
G02*
X51300000Y-75000000I-2200000J0D01*
G01*
X51300000Y-75000000D02*
G75*
G02*
X55700000Y-75000000I2200000J0D01*
G01*
%TO.C,C_MTG2*%
X98700000Y-125000000D02*
G75*
G02*
X94300000Y-125000000I-2200000J0D01*
G01*
X94300000Y-125000000D02*
G75*
G02*
X98700000Y-125000000I2200000J0D01*
G01*
%TO.C,C_MTG1*%
X55700000Y-125000000D02*
G75*
G02*
X51300000Y-125000000I-2200000J0D01*
G01*
X51300000Y-125000000D02*
G75*
G02*
X55700000Y-125000000I2200000J0D01*
G01*
%TO.C,B_MTG1*%
X105700000Y-75000000D02*
G75*
G02*
X101300000Y-75000000I-2200000J0D01*
G01*
X101300000Y-75000000D02*
G75*
G02*
X105700000Y-75000000I2200000J0D01*
G01*
%TO.C,B_MTG2*%
X148700000Y-75000000D02*
G75*
G02*
X144300000Y-75000000I-2200000J0D01*
G01*
X144300000Y-75000000D02*
G75*
G02*
X148700000Y-75000000I2200000J0D01*
G01*
%TO.C,D_MTG2*%
X148700000Y-125000000D02*
G75*
G02*
X144300000Y-125000000I-2200000J0D01*
G01*
X144300000Y-125000000D02*
G75*
G02*
X148700000Y-125000000I2200000J0D01*
G01*
%TD*%
M02*
